G04 #@! TF.GenerationSoftware,KiCad,Pcbnew,7.0.5*
G04 #@! TF.CreationDate,2023-11-15T14:25:37-06:00*
G04 #@! TF.ProjectId,RotatingSignalStack_board,526f7461-7469-46e6-9753-69676e616c53,rev?*
G04 #@! TF.SameCoordinates,Original*
G04 #@! TF.FileFunction,Legend,Bot*
G04 #@! TF.FilePolarity,Positive*
%FSLAX46Y46*%
G04 Gerber Fmt 4.6, Leading zero omitted, Abs format (unit mm)*
G04 Created by KiCad (PCBNEW 7.0.5) date 2023-11-15 14:25:37*
%MOMM*%
%LPD*%
G01*
G04 APERTURE LIST*
%ADD10C,0.150000*%
%ADD11C,0.010000*%
G04 APERTURE END LIST*
D10*
X167226839Y-74287201D02*
X166990982Y-74365820D01*
X166990982Y-74365820D02*
X166597887Y-74365820D01*
X166597887Y-74365820D02*
X166440649Y-74287201D01*
X166440649Y-74287201D02*
X166362030Y-74208581D01*
X166362030Y-74208581D02*
X166283411Y-74051343D01*
X166283411Y-74051343D02*
X166283411Y-73894105D01*
X166283411Y-73894105D02*
X166362030Y-73736867D01*
X166362030Y-73736867D02*
X166440649Y-73658248D01*
X166440649Y-73658248D02*
X166597887Y-73579629D01*
X166597887Y-73579629D02*
X166912363Y-73501010D01*
X166912363Y-73501010D02*
X167069601Y-73422391D01*
X167069601Y-73422391D02*
X167148220Y-73343772D01*
X167148220Y-73343772D02*
X167226839Y-73186534D01*
X167226839Y-73186534D02*
X167226839Y-73029296D01*
X167226839Y-73029296D02*
X167148220Y-72872058D01*
X167148220Y-72872058D02*
X167069601Y-72793439D01*
X167069601Y-72793439D02*
X166912363Y-72714820D01*
X166912363Y-72714820D02*
X166519268Y-72714820D01*
X166519268Y-72714820D02*
X166283411Y-72793439D01*
X165575839Y-74365820D02*
X165575839Y-73265153D01*
X165575839Y-72714820D02*
X165654458Y-72793439D01*
X165654458Y-72793439D02*
X165575839Y-72872058D01*
X165575839Y-72872058D02*
X165497220Y-72793439D01*
X165497220Y-72793439D02*
X165575839Y-72714820D01*
X165575839Y-72714820D02*
X165575839Y-72872058D01*
X164082078Y-73265153D02*
X164082078Y-74601677D01*
X164082078Y-74601677D02*
X164160697Y-74758915D01*
X164160697Y-74758915D02*
X164239316Y-74837534D01*
X164239316Y-74837534D02*
X164396554Y-74916153D01*
X164396554Y-74916153D02*
X164632411Y-74916153D01*
X164632411Y-74916153D02*
X164789649Y-74837534D01*
X164082078Y-74287201D02*
X164239316Y-74365820D01*
X164239316Y-74365820D02*
X164553792Y-74365820D01*
X164553792Y-74365820D02*
X164711030Y-74287201D01*
X164711030Y-74287201D02*
X164789649Y-74208581D01*
X164789649Y-74208581D02*
X164868268Y-74051343D01*
X164868268Y-74051343D02*
X164868268Y-73579629D01*
X164868268Y-73579629D02*
X164789649Y-73422391D01*
X164789649Y-73422391D02*
X164711030Y-73343772D01*
X164711030Y-73343772D02*
X164553792Y-73265153D01*
X164553792Y-73265153D02*
X164239316Y-73265153D01*
X164239316Y-73265153D02*
X164082078Y-73343772D01*
X163295887Y-73265153D02*
X163295887Y-74365820D01*
X163295887Y-73422391D02*
X163217268Y-73343772D01*
X163217268Y-73343772D02*
X163060030Y-73265153D01*
X163060030Y-73265153D02*
X162824173Y-73265153D01*
X162824173Y-73265153D02*
X162666935Y-73343772D01*
X162666935Y-73343772D02*
X162588316Y-73501010D01*
X162588316Y-73501010D02*
X162588316Y-74365820D01*
X161094554Y-74365820D02*
X161094554Y-73501010D01*
X161094554Y-73501010D02*
X161173173Y-73343772D01*
X161173173Y-73343772D02*
X161330411Y-73265153D01*
X161330411Y-73265153D02*
X161644887Y-73265153D01*
X161644887Y-73265153D02*
X161802125Y-73343772D01*
X161094554Y-74287201D02*
X161251792Y-74365820D01*
X161251792Y-74365820D02*
X161644887Y-74365820D01*
X161644887Y-74365820D02*
X161802125Y-74287201D01*
X161802125Y-74287201D02*
X161880744Y-74129962D01*
X161880744Y-74129962D02*
X161880744Y-73972724D01*
X161880744Y-73972724D02*
X161802125Y-73815486D01*
X161802125Y-73815486D02*
X161644887Y-73736867D01*
X161644887Y-73736867D02*
X161251792Y-73736867D01*
X161251792Y-73736867D02*
X161094554Y-73658248D01*
X160072506Y-74365820D02*
X160229744Y-74287201D01*
X160229744Y-74287201D02*
X160308363Y-74129962D01*
X160308363Y-74129962D02*
X160308363Y-72714820D01*
X158264267Y-74287201D02*
X158028410Y-74365820D01*
X158028410Y-74365820D02*
X157635315Y-74365820D01*
X157635315Y-74365820D02*
X157478077Y-74287201D01*
X157478077Y-74287201D02*
X157399458Y-74208581D01*
X157399458Y-74208581D02*
X157320839Y-74051343D01*
X157320839Y-74051343D02*
X157320839Y-73894105D01*
X157320839Y-73894105D02*
X157399458Y-73736867D01*
X157399458Y-73736867D02*
X157478077Y-73658248D01*
X157478077Y-73658248D02*
X157635315Y-73579629D01*
X157635315Y-73579629D02*
X157949791Y-73501010D01*
X157949791Y-73501010D02*
X158107029Y-73422391D01*
X158107029Y-73422391D02*
X158185648Y-73343772D01*
X158185648Y-73343772D02*
X158264267Y-73186534D01*
X158264267Y-73186534D02*
X158264267Y-73029296D01*
X158264267Y-73029296D02*
X158185648Y-72872058D01*
X158185648Y-72872058D02*
X158107029Y-72793439D01*
X158107029Y-72793439D02*
X157949791Y-72714820D01*
X157949791Y-72714820D02*
X157556696Y-72714820D01*
X157556696Y-72714820D02*
X157320839Y-72793439D01*
X156849124Y-73265153D02*
X156220172Y-73265153D01*
X156613267Y-72714820D02*
X156613267Y-74129962D01*
X156613267Y-74129962D02*
X156534648Y-74287201D01*
X156534648Y-74287201D02*
X156377410Y-74365820D01*
X156377410Y-74365820D02*
X156220172Y-74365820D01*
X154962267Y-74365820D02*
X154962267Y-73501010D01*
X154962267Y-73501010D02*
X155040886Y-73343772D01*
X155040886Y-73343772D02*
X155198124Y-73265153D01*
X155198124Y-73265153D02*
X155512600Y-73265153D01*
X155512600Y-73265153D02*
X155669838Y-73343772D01*
X154962267Y-74287201D02*
X155119505Y-74365820D01*
X155119505Y-74365820D02*
X155512600Y-74365820D01*
X155512600Y-74365820D02*
X155669838Y-74287201D01*
X155669838Y-74287201D02*
X155748457Y-74129962D01*
X155748457Y-74129962D02*
X155748457Y-73972724D01*
X155748457Y-73972724D02*
X155669838Y-73815486D01*
X155669838Y-73815486D02*
X155512600Y-73736867D01*
X155512600Y-73736867D02*
X155119505Y-73736867D01*
X155119505Y-73736867D02*
X154962267Y-73658248D01*
X153468505Y-74287201D02*
X153625743Y-74365820D01*
X153625743Y-74365820D02*
X153940219Y-74365820D01*
X153940219Y-74365820D02*
X154097457Y-74287201D01*
X154097457Y-74287201D02*
X154176076Y-74208581D01*
X154176076Y-74208581D02*
X154254695Y-74051343D01*
X154254695Y-74051343D02*
X154254695Y-73579629D01*
X154254695Y-73579629D02*
X154176076Y-73422391D01*
X154176076Y-73422391D02*
X154097457Y-73343772D01*
X154097457Y-73343772D02*
X153940219Y-73265153D01*
X153940219Y-73265153D02*
X153625743Y-73265153D01*
X153625743Y-73265153D02*
X153468505Y-73343772D01*
X152760933Y-74365820D02*
X152760933Y-72714820D01*
X152603695Y-73736867D02*
X152131981Y-74365820D01*
X152131981Y-73265153D02*
X152760933Y-73894105D01*
X149616171Y-73501010D02*
X149380314Y-73579629D01*
X149380314Y-73579629D02*
X149301695Y-73658248D01*
X149301695Y-73658248D02*
X149223076Y-73815486D01*
X149223076Y-73815486D02*
X149223076Y-74051343D01*
X149223076Y-74051343D02*
X149301695Y-74208581D01*
X149301695Y-74208581D02*
X149380314Y-74287201D01*
X149380314Y-74287201D02*
X149537552Y-74365820D01*
X149537552Y-74365820D02*
X150166504Y-74365820D01*
X150166504Y-74365820D02*
X150166504Y-72714820D01*
X150166504Y-72714820D02*
X149616171Y-72714820D01*
X149616171Y-72714820D02*
X149458933Y-72793439D01*
X149458933Y-72793439D02*
X149380314Y-72872058D01*
X149380314Y-72872058D02*
X149301695Y-73029296D01*
X149301695Y-73029296D02*
X149301695Y-73186534D01*
X149301695Y-73186534D02*
X149380314Y-73343772D01*
X149380314Y-73343772D02*
X149458933Y-73422391D01*
X149458933Y-73422391D02*
X149616171Y-73501010D01*
X149616171Y-73501010D02*
X150166504Y-73501010D01*
X148279647Y-74365820D02*
X148436885Y-74287201D01*
X148436885Y-74287201D02*
X148515504Y-74208581D01*
X148515504Y-74208581D02*
X148594123Y-74051343D01*
X148594123Y-74051343D02*
X148594123Y-73579629D01*
X148594123Y-73579629D02*
X148515504Y-73422391D01*
X148515504Y-73422391D02*
X148436885Y-73343772D01*
X148436885Y-73343772D02*
X148279647Y-73265153D01*
X148279647Y-73265153D02*
X148043790Y-73265153D01*
X148043790Y-73265153D02*
X147886552Y-73343772D01*
X147886552Y-73343772D02*
X147807933Y-73422391D01*
X147807933Y-73422391D02*
X147729314Y-73579629D01*
X147729314Y-73579629D02*
X147729314Y-74051343D01*
X147729314Y-74051343D02*
X147807933Y-74208581D01*
X147807933Y-74208581D02*
X147886552Y-74287201D01*
X147886552Y-74287201D02*
X148043790Y-74365820D01*
X148043790Y-74365820D02*
X148279647Y-74365820D01*
X146314171Y-74365820D02*
X146314171Y-73501010D01*
X146314171Y-73501010D02*
X146392790Y-73343772D01*
X146392790Y-73343772D02*
X146550028Y-73265153D01*
X146550028Y-73265153D02*
X146864504Y-73265153D01*
X146864504Y-73265153D02*
X147021742Y-73343772D01*
X146314171Y-74287201D02*
X146471409Y-74365820D01*
X146471409Y-74365820D02*
X146864504Y-74365820D01*
X146864504Y-74365820D02*
X147021742Y-74287201D01*
X147021742Y-74287201D02*
X147100361Y-74129962D01*
X147100361Y-74129962D02*
X147100361Y-73972724D01*
X147100361Y-73972724D02*
X147021742Y-73815486D01*
X147021742Y-73815486D02*
X146864504Y-73736867D01*
X146864504Y-73736867D02*
X146471409Y-73736867D01*
X146471409Y-73736867D02*
X146314171Y-73658248D01*
X145527980Y-74365820D02*
X145527980Y-73265153D01*
X145527980Y-73579629D02*
X145449361Y-73422391D01*
X145449361Y-73422391D02*
X145370742Y-73343772D01*
X145370742Y-73343772D02*
X145213504Y-73265153D01*
X145213504Y-73265153D02*
X145056266Y-73265153D01*
X143798361Y-74365820D02*
X143798361Y-72714820D01*
X143798361Y-74287201D02*
X143955599Y-74365820D01*
X143955599Y-74365820D02*
X144270075Y-74365820D01*
X144270075Y-74365820D02*
X144427313Y-74287201D01*
X144427313Y-74287201D02*
X144505932Y-74208581D01*
X144505932Y-74208581D02*
X144584551Y-74051343D01*
X144584551Y-74051343D02*
X144584551Y-73579629D01*
X144584551Y-73579629D02*
X144505932Y-73422391D01*
X144505932Y-73422391D02*
X144427313Y-73343772D01*
X144427313Y-73343772D02*
X144270075Y-73265153D01*
X144270075Y-73265153D02*
X143955599Y-73265153D01*
X143955599Y-73265153D02*
X143798361Y-73343772D01*
X142933551Y-74287201D02*
X142933551Y-74365820D01*
X142933551Y-74365820D02*
X143012170Y-74523058D01*
X143012170Y-74523058D02*
X143090789Y-74601677D01*
X140024647Y-74365820D02*
X140574980Y-73579629D01*
X140968075Y-74365820D02*
X140968075Y-72714820D01*
X140968075Y-72714820D02*
X140339123Y-72714820D01*
X140339123Y-72714820D02*
X140181885Y-72793439D01*
X140181885Y-72793439D02*
X140103266Y-72872058D01*
X140103266Y-72872058D02*
X140024647Y-73029296D01*
X140024647Y-73029296D02*
X140024647Y-73265153D01*
X140024647Y-73265153D02*
X140103266Y-73422391D01*
X140103266Y-73422391D02*
X140181885Y-73501010D01*
X140181885Y-73501010D02*
X140339123Y-73579629D01*
X140339123Y-73579629D02*
X140968075Y-73579629D01*
X138688123Y-74287201D02*
X138845361Y-74365820D01*
X138845361Y-74365820D02*
X139159837Y-74365820D01*
X139159837Y-74365820D02*
X139317075Y-74287201D01*
X139317075Y-74287201D02*
X139395694Y-74129962D01*
X139395694Y-74129962D02*
X139395694Y-73501010D01*
X139395694Y-73501010D02*
X139317075Y-73343772D01*
X139317075Y-73343772D02*
X139159837Y-73265153D01*
X139159837Y-73265153D02*
X138845361Y-73265153D01*
X138845361Y-73265153D02*
X138688123Y-73343772D01*
X138688123Y-73343772D02*
X138609504Y-73501010D01*
X138609504Y-73501010D02*
X138609504Y-73658248D01*
X138609504Y-73658248D02*
X139395694Y-73815486D01*
X138059170Y-73265153D02*
X137666075Y-74365820D01*
X137666075Y-74365820D02*
X137272980Y-73265153D01*
X135779218Y-74365820D02*
X136722646Y-74365820D01*
X136250932Y-74365820D02*
X136250932Y-72714820D01*
X136250932Y-72714820D02*
X136408170Y-72950677D01*
X136408170Y-72950677D02*
X136565408Y-73107915D01*
X136565408Y-73107915D02*
X136722646Y-73186534D01*
X167148220Y-77023930D02*
X167148220Y-75372930D01*
X167148220Y-75372930D02*
X166597887Y-76552215D01*
X166597887Y-76552215D02*
X166047554Y-75372930D01*
X166047554Y-75372930D02*
X166047554Y-77023930D01*
X164553792Y-77023930D02*
X164553792Y-76159120D01*
X164553792Y-76159120D02*
X164632411Y-76001882D01*
X164632411Y-76001882D02*
X164789649Y-75923263D01*
X164789649Y-75923263D02*
X165104125Y-75923263D01*
X165104125Y-75923263D02*
X165261363Y-76001882D01*
X164553792Y-76945311D02*
X164711030Y-77023930D01*
X164711030Y-77023930D02*
X165104125Y-77023930D01*
X165104125Y-77023930D02*
X165261363Y-76945311D01*
X165261363Y-76945311D02*
X165339982Y-76788072D01*
X165339982Y-76788072D02*
X165339982Y-76630834D01*
X165339982Y-76630834D02*
X165261363Y-76473596D01*
X165261363Y-76473596D02*
X165104125Y-76394977D01*
X165104125Y-76394977D02*
X164711030Y-76394977D01*
X164711030Y-76394977D02*
X164553792Y-76316358D01*
X163767601Y-77023930D02*
X163767601Y-75923263D01*
X163767601Y-76237739D02*
X163688982Y-76080501D01*
X163688982Y-76080501D02*
X163610363Y-76001882D01*
X163610363Y-76001882D02*
X163453125Y-75923263D01*
X163453125Y-75923263D02*
X163295887Y-75923263D01*
X162824172Y-76945311D02*
X162666934Y-77023930D01*
X162666934Y-77023930D02*
X162352458Y-77023930D01*
X162352458Y-77023930D02*
X162195220Y-76945311D01*
X162195220Y-76945311D02*
X162116601Y-76788072D01*
X162116601Y-76788072D02*
X162116601Y-76709453D01*
X162116601Y-76709453D02*
X162195220Y-76552215D01*
X162195220Y-76552215D02*
X162352458Y-76473596D01*
X162352458Y-76473596D02*
X162588315Y-76473596D01*
X162588315Y-76473596D02*
X162745553Y-76394977D01*
X162745553Y-76394977D02*
X162824172Y-76237739D01*
X162824172Y-76237739D02*
X162824172Y-76159120D01*
X162824172Y-76159120D02*
X162745553Y-76001882D01*
X162745553Y-76001882D02*
X162588315Y-75923263D01*
X162588315Y-75923263D02*
X162352458Y-75923263D01*
X162352458Y-75923263D02*
X162195220Y-76001882D01*
X159207696Y-77023930D02*
X159758029Y-76237739D01*
X160151124Y-77023930D02*
X160151124Y-75372930D01*
X160151124Y-75372930D02*
X159522172Y-75372930D01*
X159522172Y-75372930D02*
X159364934Y-75451549D01*
X159364934Y-75451549D02*
X159286315Y-75530168D01*
X159286315Y-75530168D02*
X159207696Y-75687406D01*
X159207696Y-75687406D02*
X159207696Y-75923263D01*
X159207696Y-75923263D02*
X159286315Y-76080501D01*
X159286315Y-76080501D02*
X159364934Y-76159120D01*
X159364934Y-76159120D02*
X159522172Y-76237739D01*
X159522172Y-76237739D02*
X160151124Y-76237739D01*
X158264267Y-77023930D02*
X158421505Y-76945311D01*
X158421505Y-76945311D02*
X158500124Y-76866691D01*
X158500124Y-76866691D02*
X158578743Y-76709453D01*
X158578743Y-76709453D02*
X158578743Y-76237739D01*
X158578743Y-76237739D02*
X158500124Y-76080501D01*
X158500124Y-76080501D02*
X158421505Y-76001882D01*
X158421505Y-76001882D02*
X158264267Y-75923263D01*
X158264267Y-75923263D02*
X158028410Y-75923263D01*
X158028410Y-75923263D02*
X157871172Y-76001882D01*
X157871172Y-76001882D02*
X157792553Y-76080501D01*
X157792553Y-76080501D02*
X157713934Y-76237739D01*
X157713934Y-76237739D02*
X157713934Y-76709453D01*
X157713934Y-76709453D02*
X157792553Y-76866691D01*
X157792553Y-76866691D02*
X157871172Y-76945311D01*
X157871172Y-76945311D02*
X158028410Y-77023930D01*
X158028410Y-77023930D02*
X158264267Y-77023930D01*
X157163600Y-75923263D02*
X156770505Y-77023930D01*
X156770505Y-77023930D02*
X156377410Y-75923263D01*
X155119505Y-76945311D02*
X155276743Y-77023930D01*
X155276743Y-77023930D02*
X155591219Y-77023930D01*
X155591219Y-77023930D02*
X155748457Y-76945311D01*
X155748457Y-76945311D02*
X155827076Y-76788072D01*
X155827076Y-76788072D02*
X155827076Y-76159120D01*
X155827076Y-76159120D02*
X155748457Y-76001882D01*
X155748457Y-76001882D02*
X155591219Y-75923263D01*
X155591219Y-75923263D02*
X155276743Y-75923263D01*
X155276743Y-75923263D02*
X155119505Y-76001882D01*
X155119505Y-76001882D02*
X155040886Y-76159120D01*
X155040886Y-76159120D02*
X155040886Y-76316358D01*
X155040886Y-76316358D02*
X155827076Y-76473596D01*
X154333314Y-77023930D02*
X154333314Y-75923263D01*
X154333314Y-76237739D02*
X154254695Y-76080501D01*
X154254695Y-76080501D02*
X154176076Y-76001882D01*
X154176076Y-76001882D02*
X154018838Y-75923263D01*
X154018838Y-75923263D02*
X153861600Y-75923263D01*
X152053361Y-77023930D02*
X152053361Y-75372930D01*
X152053361Y-75372930D02*
X151660266Y-75372930D01*
X151660266Y-75372930D02*
X151424409Y-75451549D01*
X151424409Y-75451549D02*
X151267171Y-75608787D01*
X151267171Y-75608787D02*
X151188552Y-75766025D01*
X151188552Y-75766025D02*
X151109933Y-76080501D01*
X151109933Y-76080501D02*
X151109933Y-76316358D01*
X151109933Y-76316358D02*
X151188552Y-76630834D01*
X151188552Y-76630834D02*
X151267171Y-76788072D01*
X151267171Y-76788072D02*
X151424409Y-76945311D01*
X151424409Y-76945311D02*
X151660266Y-77023930D01*
X151660266Y-77023930D02*
X152053361Y-77023930D01*
X149773409Y-76945311D02*
X149930647Y-77023930D01*
X149930647Y-77023930D02*
X150245123Y-77023930D01*
X150245123Y-77023930D02*
X150402361Y-76945311D01*
X150402361Y-76945311D02*
X150480980Y-76788072D01*
X150480980Y-76788072D02*
X150480980Y-76159120D01*
X150480980Y-76159120D02*
X150402361Y-76001882D01*
X150402361Y-76001882D02*
X150245123Y-75923263D01*
X150245123Y-75923263D02*
X149930647Y-75923263D01*
X149930647Y-75923263D02*
X149773409Y-76001882D01*
X149773409Y-76001882D02*
X149694790Y-76159120D01*
X149694790Y-76159120D02*
X149694790Y-76316358D01*
X149694790Y-76316358D02*
X150480980Y-76473596D01*
X149065837Y-76945311D02*
X148908599Y-77023930D01*
X148908599Y-77023930D02*
X148594123Y-77023930D01*
X148594123Y-77023930D02*
X148436885Y-76945311D01*
X148436885Y-76945311D02*
X148358266Y-76788072D01*
X148358266Y-76788072D02*
X148358266Y-76709453D01*
X148358266Y-76709453D02*
X148436885Y-76552215D01*
X148436885Y-76552215D02*
X148594123Y-76473596D01*
X148594123Y-76473596D02*
X148829980Y-76473596D01*
X148829980Y-76473596D02*
X148987218Y-76394977D01*
X148987218Y-76394977D02*
X149065837Y-76237739D01*
X149065837Y-76237739D02*
X149065837Y-76159120D01*
X149065837Y-76159120D02*
X148987218Y-76001882D01*
X148987218Y-76001882D02*
X148829980Y-75923263D01*
X148829980Y-75923263D02*
X148594123Y-75923263D01*
X148594123Y-75923263D02*
X148436885Y-76001882D01*
X147650694Y-77023930D02*
X147650694Y-75923263D01*
X147650694Y-75372930D02*
X147729313Y-75451549D01*
X147729313Y-75451549D02*
X147650694Y-75530168D01*
X147650694Y-75530168D02*
X147572075Y-75451549D01*
X147572075Y-75451549D02*
X147650694Y-75372930D01*
X147650694Y-75372930D02*
X147650694Y-75530168D01*
X146156933Y-75923263D02*
X146156933Y-77259787D01*
X146156933Y-77259787D02*
X146235552Y-77417025D01*
X146235552Y-77417025D02*
X146314171Y-77495644D01*
X146314171Y-77495644D02*
X146471409Y-77574263D01*
X146471409Y-77574263D02*
X146707266Y-77574263D01*
X146707266Y-77574263D02*
X146864504Y-77495644D01*
X146156933Y-76945311D02*
X146314171Y-77023930D01*
X146314171Y-77023930D02*
X146628647Y-77023930D01*
X146628647Y-77023930D02*
X146785885Y-76945311D01*
X146785885Y-76945311D02*
X146864504Y-76866691D01*
X146864504Y-76866691D02*
X146943123Y-76709453D01*
X146943123Y-76709453D02*
X146943123Y-76237739D01*
X146943123Y-76237739D02*
X146864504Y-76080501D01*
X146864504Y-76080501D02*
X146785885Y-76001882D01*
X146785885Y-76001882D02*
X146628647Y-75923263D01*
X146628647Y-75923263D02*
X146314171Y-75923263D01*
X146314171Y-75923263D02*
X146156933Y-76001882D01*
X145370742Y-75923263D02*
X145370742Y-77023930D01*
X145370742Y-76080501D02*
X145292123Y-76001882D01*
X145292123Y-76001882D02*
X145134885Y-75923263D01*
X145134885Y-75923263D02*
X144899028Y-75923263D01*
X144899028Y-75923263D02*
X144741790Y-76001882D01*
X144741790Y-76001882D02*
X144663171Y-76159120D01*
X144663171Y-76159120D02*
X144663171Y-77023930D01*
X142854932Y-75372930D02*
X141911504Y-75372930D01*
X142383218Y-77023930D02*
X142383218Y-75372930D01*
X140732218Y-76945311D02*
X140889456Y-77023930D01*
X140889456Y-77023930D02*
X141203932Y-77023930D01*
X141203932Y-77023930D02*
X141361170Y-76945311D01*
X141361170Y-76945311D02*
X141439789Y-76788072D01*
X141439789Y-76788072D02*
X141439789Y-76159120D01*
X141439789Y-76159120D02*
X141361170Y-76001882D01*
X141361170Y-76001882D02*
X141203932Y-75923263D01*
X141203932Y-75923263D02*
X140889456Y-75923263D01*
X140889456Y-75923263D02*
X140732218Y-76001882D01*
X140732218Y-76001882D02*
X140653599Y-76159120D01*
X140653599Y-76159120D02*
X140653599Y-76316358D01*
X140653599Y-76316358D02*
X141439789Y-76473596D01*
X139238456Y-77023930D02*
X139238456Y-76159120D01*
X139238456Y-76159120D02*
X139317075Y-76001882D01*
X139317075Y-76001882D02*
X139474313Y-75923263D01*
X139474313Y-75923263D02*
X139788789Y-75923263D01*
X139788789Y-75923263D02*
X139946027Y-76001882D01*
X139238456Y-76945311D02*
X139395694Y-77023930D01*
X139395694Y-77023930D02*
X139788789Y-77023930D01*
X139788789Y-77023930D02*
X139946027Y-76945311D01*
X139946027Y-76945311D02*
X140024646Y-76788072D01*
X140024646Y-76788072D02*
X140024646Y-76630834D01*
X140024646Y-76630834D02*
X139946027Y-76473596D01*
X139946027Y-76473596D02*
X139788789Y-76394977D01*
X139788789Y-76394977D02*
X139395694Y-76394977D01*
X139395694Y-76394977D02*
X139238456Y-76316358D01*
X138452265Y-77023930D02*
X138452265Y-75923263D01*
X138452265Y-76080501D02*
X138373646Y-76001882D01*
X138373646Y-76001882D02*
X138216408Y-75923263D01*
X138216408Y-75923263D02*
X137980551Y-75923263D01*
X137980551Y-75923263D02*
X137823313Y-76001882D01*
X137823313Y-76001882D02*
X137744694Y-76159120D01*
X137744694Y-76159120D02*
X137744694Y-77023930D01*
X137744694Y-76159120D02*
X137666075Y-76001882D01*
X137666075Y-76001882D02*
X137508837Y-75923263D01*
X137508837Y-75923263D02*
X137272980Y-75923263D01*
X137272980Y-75923263D02*
X137115741Y-76001882D01*
X137115741Y-76001882D02*
X137037122Y-76159120D01*
X137037122Y-76159120D02*
X137037122Y-77023930D01*
X167148220Y-79682040D02*
X167148220Y-78031040D01*
X167148220Y-78031040D02*
X166597887Y-79210325D01*
X166597887Y-79210325D02*
X166047554Y-78031040D01*
X166047554Y-78031040D02*
X166047554Y-79682040D01*
X165261363Y-79682040D02*
X165261363Y-78581373D01*
X165261363Y-78031040D02*
X165339982Y-78109659D01*
X165339982Y-78109659D02*
X165261363Y-78188278D01*
X165261363Y-78188278D02*
X165182744Y-78109659D01*
X165182744Y-78109659D02*
X165261363Y-78031040D01*
X165261363Y-78031040D02*
X165261363Y-78188278D01*
X164553792Y-79603421D02*
X164396554Y-79682040D01*
X164396554Y-79682040D02*
X164082078Y-79682040D01*
X164082078Y-79682040D02*
X163924840Y-79603421D01*
X163924840Y-79603421D02*
X163846221Y-79446182D01*
X163846221Y-79446182D02*
X163846221Y-79367563D01*
X163846221Y-79367563D02*
X163924840Y-79210325D01*
X163924840Y-79210325D02*
X164082078Y-79131706D01*
X164082078Y-79131706D02*
X164317935Y-79131706D01*
X164317935Y-79131706D02*
X164475173Y-79053087D01*
X164475173Y-79053087D02*
X164553792Y-78895849D01*
X164553792Y-78895849D02*
X164553792Y-78817230D01*
X164553792Y-78817230D02*
X164475173Y-78659992D01*
X164475173Y-78659992D02*
X164317935Y-78581373D01*
X164317935Y-78581373D02*
X164082078Y-78581373D01*
X164082078Y-78581373D02*
X163924840Y-78659992D01*
X163217268Y-79603421D02*
X163060030Y-79682040D01*
X163060030Y-79682040D02*
X162745554Y-79682040D01*
X162745554Y-79682040D02*
X162588316Y-79603421D01*
X162588316Y-79603421D02*
X162509697Y-79446182D01*
X162509697Y-79446182D02*
X162509697Y-79367563D01*
X162509697Y-79367563D02*
X162588316Y-79210325D01*
X162588316Y-79210325D02*
X162745554Y-79131706D01*
X162745554Y-79131706D02*
X162981411Y-79131706D01*
X162981411Y-79131706D02*
X163138649Y-79053087D01*
X163138649Y-79053087D02*
X163217268Y-78895849D01*
X163217268Y-78895849D02*
X163217268Y-78817230D01*
X163217268Y-78817230D02*
X163138649Y-78659992D01*
X163138649Y-78659992D02*
X162981411Y-78581373D01*
X162981411Y-78581373D02*
X162745554Y-78581373D01*
X162745554Y-78581373D02*
X162588316Y-78659992D01*
X161566268Y-79682040D02*
X161723506Y-79603421D01*
X161723506Y-79603421D02*
X161802125Y-79524801D01*
X161802125Y-79524801D02*
X161880744Y-79367563D01*
X161880744Y-79367563D02*
X161880744Y-78895849D01*
X161880744Y-78895849D02*
X161802125Y-78738611D01*
X161802125Y-78738611D02*
X161723506Y-78659992D01*
X161723506Y-78659992D02*
X161566268Y-78581373D01*
X161566268Y-78581373D02*
X161330411Y-78581373D01*
X161330411Y-78581373D02*
X161173173Y-78659992D01*
X161173173Y-78659992D02*
X161094554Y-78738611D01*
X161094554Y-78738611D02*
X161015935Y-78895849D01*
X161015935Y-78895849D02*
X161015935Y-79367563D01*
X161015935Y-79367563D02*
X161094554Y-79524801D01*
X161094554Y-79524801D02*
X161173173Y-79603421D01*
X161173173Y-79603421D02*
X161330411Y-79682040D01*
X161330411Y-79682040D02*
X161566268Y-79682040D01*
X159600792Y-78581373D02*
X159600792Y-79682040D01*
X160308363Y-78581373D02*
X160308363Y-79446182D01*
X160308363Y-79446182D02*
X160229744Y-79603421D01*
X160229744Y-79603421D02*
X160072506Y-79682040D01*
X160072506Y-79682040D02*
X159836649Y-79682040D01*
X159836649Y-79682040D02*
X159679411Y-79603421D01*
X159679411Y-79603421D02*
X159600792Y-79524801D01*
X158814601Y-79682040D02*
X158814601Y-78581373D01*
X158814601Y-78895849D02*
X158735982Y-78738611D01*
X158735982Y-78738611D02*
X158657363Y-78659992D01*
X158657363Y-78659992D02*
X158500125Y-78581373D01*
X158500125Y-78581373D02*
X158342887Y-78581373D01*
X157792553Y-79682040D02*
X157792553Y-78581373D01*
X157792553Y-78031040D02*
X157871172Y-78109659D01*
X157871172Y-78109659D02*
X157792553Y-78188278D01*
X157792553Y-78188278D02*
X157713934Y-78109659D01*
X157713934Y-78109659D02*
X157792553Y-78031040D01*
X157792553Y-78031040D02*
X157792553Y-78188278D01*
X155827077Y-79603421D02*
X155591220Y-79682040D01*
X155591220Y-79682040D02*
X155198125Y-79682040D01*
X155198125Y-79682040D02*
X155040887Y-79603421D01*
X155040887Y-79603421D02*
X154962268Y-79524801D01*
X154962268Y-79524801D02*
X154883649Y-79367563D01*
X154883649Y-79367563D02*
X154883649Y-79210325D01*
X154883649Y-79210325D02*
X154962268Y-79053087D01*
X154962268Y-79053087D02*
X155040887Y-78974468D01*
X155040887Y-78974468D02*
X155198125Y-78895849D01*
X155198125Y-78895849D02*
X155512601Y-78817230D01*
X155512601Y-78817230D02*
X155669839Y-78738611D01*
X155669839Y-78738611D02*
X155748458Y-78659992D01*
X155748458Y-78659992D02*
X155827077Y-78502754D01*
X155827077Y-78502754D02*
X155827077Y-78345516D01*
X155827077Y-78345516D02*
X155748458Y-78188278D01*
X155748458Y-78188278D02*
X155669839Y-78109659D01*
X155669839Y-78109659D02*
X155512601Y-78031040D01*
X155512601Y-78031040D02*
X155119506Y-78031040D01*
X155119506Y-78031040D02*
X154883649Y-78109659D01*
X152839553Y-79682040D02*
X152918173Y-79682040D01*
X152918173Y-79682040D02*
X153075411Y-79603421D01*
X153075411Y-79603421D02*
X153311268Y-79367563D01*
X153311268Y-79367563D02*
X153704363Y-78895849D01*
X153704363Y-78895849D02*
X153861601Y-78659992D01*
X153861601Y-78659992D02*
X153940220Y-78424135D01*
X153940220Y-78424135D02*
X153940220Y-78266897D01*
X153940220Y-78266897D02*
X153861601Y-78109659D01*
X153861601Y-78109659D02*
X153704363Y-78031040D01*
X153704363Y-78031040D02*
X153625744Y-78031040D01*
X153625744Y-78031040D02*
X153468506Y-78109659D01*
X153468506Y-78109659D02*
X153389887Y-78266897D01*
X153389887Y-78266897D02*
X153389887Y-78345516D01*
X153389887Y-78345516D02*
X153468506Y-78502754D01*
X153468506Y-78502754D02*
X153547125Y-78581373D01*
X153547125Y-78581373D02*
X154018839Y-78895849D01*
X154018839Y-78895849D02*
X154097458Y-78974468D01*
X154097458Y-78974468D02*
X154176077Y-79131706D01*
X154176077Y-79131706D02*
X154176077Y-79367563D01*
X154176077Y-79367563D02*
X154097458Y-79524801D01*
X154097458Y-79524801D02*
X154018839Y-79603421D01*
X154018839Y-79603421D02*
X153861601Y-79682040D01*
X153861601Y-79682040D02*
X153625744Y-79682040D01*
X153625744Y-79682040D02*
X153468506Y-79603421D01*
X153468506Y-79603421D02*
X153389887Y-79524801D01*
X153389887Y-79524801D02*
X153154030Y-79210325D01*
X153154030Y-79210325D02*
X153075411Y-78974468D01*
X153075411Y-78974468D02*
X153075411Y-78817230D01*
X152367839Y-78031040D02*
X151424411Y-78031040D01*
X151896125Y-79682040D02*
X151896125Y-78031040D01*
X150795458Y-79603421D02*
X150795458Y-79682040D01*
X150795458Y-79682040D02*
X150874077Y-79839278D01*
X150874077Y-79839278D02*
X150952696Y-79917897D01*
X148908601Y-78188278D02*
X148829982Y-78109659D01*
X148829982Y-78109659D02*
X148672744Y-78031040D01*
X148672744Y-78031040D02*
X148279649Y-78031040D01*
X148279649Y-78031040D02*
X148122411Y-78109659D01*
X148122411Y-78109659D02*
X148043792Y-78188278D01*
X148043792Y-78188278D02*
X147965173Y-78345516D01*
X147965173Y-78345516D02*
X147965173Y-78502754D01*
X147965173Y-78502754D02*
X148043792Y-78738611D01*
X148043792Y-78738611D02*
X148987220Y-79682040D01*
X148987220Y-79682040D02*
X147965173Y-79682040D01*
X146943125Y-78031040D02*
X146785887Y-78031040D01*
X146785887Y-78031040D02*
X146628649Y-78109659D01*
X146628649Y-78109659D02*
X146550030Y-78188278D01*
X146550030Y-78188278D02*
X146471411Y-78345516D01*
X146471411Y-78345516D02*
X146392792Y-78659992D01*
X146392792Y-78659992D02*
X146392792Y-79053087D01*
X146392792Y-79053087D02*
X146471411Y-79367563D01*
X146471411Y-79367563D02*
X146550030Y-79524801D01*
X146550030Y-79524801D02*
X146628649Y-79603421D01*
X146628649Y-79603421D02*
X146785887Y-79682040D01*
X146785887Y-79682040D02*
X146943125Y-79682040D01*
X146943125Y-79682040D02*
X147100363Y-79603421D01*
X147100363Y-79603421D02*
X147178982Y-79524801D01*
X147178982Y-79524801D02*
X147257601Y-79367563D01*
X147257601Y-79367563D02*
X147336220Y-79053087D01*
X147336220Y-79053087D02*
X147336220Y-78659992D01*
X147336220Y-78659992D02*
X147257601Y-78345516D01*
X147257601Y-78345516D02*
X147178982Y-78188278D01*
X147178982Y-78188278D02*
X147100363Y-78109659D01*
X147100363Y-78109659D02*
X146943125Y-78031040D01*
X145763839Y-78188278D02*
X145685220Y-78109659D01*
X145685220Y-78109659D02*
X145527982Y-78031040D01*
X145527982Y-78031040D02*
X145134887Y-78031040D01*
X145134887Y-78031040D02*
X144977649Y-78109659D01*
X144977649Y-78109659D02*
X144899030Y-78188278D01*
X144899030Y-78188278D02*
X144820411Y-78345516D01*
X144820411Y-78345516D02*
X144820411Y-78502754D01*
X144820411Y-78502754D02*
X144899030Y-78738611D01*
X144899030Y-78738611D02*
X145842458Y-79682040D01*
X145842458Y-79682040D02*
X144820411Y-79682040D01*
X143405268Y-78581373D02*
X143405268Y-79682040D01*
X143798363Y-77952421D02*
X144191458Y-79131706D01*
X144191458Y-79131706D02*
X143169411Y-79131706D01*
X166283411Y-80767769D02*
X166440649Y-80689150D01*
X166440649Y-80689150D02*
X166676506Y-80689150D01*
X166676506Y-80689150D02*
X166912363Y-80767769D01*
X166912363Y-80767769D02*
X167069601Y-80925007D01*
X167069601Y-80925007D02*
X167148220Y-81082245D01*
X167148220Y-81082245D02*
X167226839Y-81396721D01*
X167226839Y-81396721D02*
X167226839Y-81632578D01*
X167226839Y-81632578D02*
X167148220Y-81947054D01*
X167148220Y-81947054D02*
X167069601Y-82104292D01*
X167069601Y-82104292D02*
X166912363Y-82261531D01*
X166912363Y-82261531D02*
X166676506Y-82340150D01*
X166676506Y-82340150D02*
X166519268Y-82340150D01*
X166519268Y-82340150D02*
X166283411Y-82261531D01*
X166283411Y-82261531D02*
X166204792Y-82182911D01*
X166204792Y-82182911D02*
X166204792Y-81632578D01*
X166204792Y-81632578D02*
X166519268Y-81632578D01*
X165497220Y-82340150D02*
X165497220Y-81239483D01*
X165497220Y-81553959D02*
X165418601Y-81396721D01*
X165418601Y-81396721D02*
X165339982Y-81318102D01*
X165339982Y-81318102D02*
X165182744Y-81239483D01*
X165182744Y-81239483D02*
X165025506Y-81239483D01*
X163767601Y-82340150D02*
X163767601Y-81475340D01*
X163767601Y-81475340D02*
X163846220Y-81318102D01*
X163846220Y-81318102D02*
X164003458Y-81239483D01*
X164003458Y-81239483D02*
X164317934Y-81239483D01*
X164317934Y-81239483D02*
X164475172Y-81318102D01*
X163767601Y-82261531D02*
X163924839Y-82340150D01*
X163924839Y-82340150D02*
X164317934Y-82340150D01*
X164317934Y-82340150D02*
X164475172Y-82261531D01*
X164475172Y-82261531D02*
X164553791Y-82104292D01*
X164553791Y-82104292D02*
X164553791Y-81947054D01*
X164553791Y-81947054D02*
X164475172Y-81789816D01*
X164475172Y-81789816D02*
X164317934Y-81711197D01*
X164317934Y-81711197D02*
X163924839Y-81711197D01*
X163924839Y-81711197D02*
X163767601Y-81632578D01*
X162981410Y-81239483D02*
X162981410Y-82340150D01*
X162981410Y-81396721D02*
X162902791Y-81318102D01*
X162902791Y-81318102D02*
X162745553Y-81239483D01*
X162745553Y-81239483D02*
X162509696Y-81239483D01*
X162509696Y-81239483D02*
X162352458Y-81318102D01*
X162352458Y-81318102D02*
X162273839Y-81475340D01*
X162273839Y-81475340D02*
X162273839Y-82340150D01*
X161723505Y-81239483D02*
X161094553Y-81239483D01*
X161487648Y-80689150D02*
X161487648Y-82104292D01*
X161487648Y-82104292D02*
X161409029Y-82261531D01*
X161409029Y-82261531D02*
X161251791Y-82340150D01*
X161251791Y-82340150D02*
X161094553Y-82340150D01*
X158735981Y-81475340D02*
X158500124Y-81553959D01*
X158500124Y-81553959D02*
X158421505Y-81632578D01*
X158421505Y-81632578D02*
X158342886Y-81789816D01*
X158342886Y-81789816D02*
X158342886Y-82025673D01*
X158342886Y-82025673D02*
X158421505Y-82182911D01*
X158421505Y-82182911D02*
X158500124Y-82261531D01*
X158500124Y-82261531D02*
X158657362Y-82340150D01*
X158657362Y-82340150D02*
X159286314Y-82340150D01*
X159286314Y-82340150D02*
X159286314Y-80689150D01*
X159286314Y-80689150D02*
X158735981Y-80689150D01*
X158735981Y-80689150D02*
X158578743Y-80767769D01*
X158578743Y-80767769D02*
X158500124Y-80846388D01*
X158500124Y-80846388D02*
X158421505Y-81003626D01*
X158421505Y-81003626D02*
X158421505Y-81160864D01*
X158421505Y-81160864D02*
X158500124Y-81318102D01*
X158500124Y-81318102D02*
X158578743Y-81396721D01*
X158578743Y-81396721D02*
X158735981Y-81475340D01*
X158735981Y-81475340D02*
X159286314Y-81475340D01*
X157635314Y-82340150D02*
X157635314Y-81239483D01*
X157635314Y-81553959D02*
X157556695Y-81396721D01*
X157556695Y-81396721D02*
X157478076Y-81318102D01*
X157478076Y-81318102D02*
X157320838Y-81239483D01*
X157320838Y-81239483D02*
X157163600Y-81239483D01*
X156613266Y-82340150D02*
X156613266Y-81239483D01*
X156613266Y-80689150D02*
X156691885Y-80767769D01*
X156691885Y-80767769D02*
X156613266Y-80846388D01*
X156613266Y-80846388D02*
X156534647Y-80767769D01*
X156534647Y-80767769D02*
X156613266Y-80689150D01*
X156613266Y-80689150D02*
X156613266Y-80846388D01*
X155827076Y-81239483D02*
X155827076Y-82340150D01*
X155827076Y-81396721D02*
X155748457Y-81318102D01*
X155748457Y-81318102D02*
X155591219Y-81239483D01*
X155591219Y-81239483D02*
X155355362Y-81239483D01*
X155355362Y-81239483D02*
X155198124Y-81318102D01*
X155198124Y-81318102D02*
X155119505Y-81475340D01*
X155119505Y-81475340D02*
X155119505Y-82340150D01*
X154333314Y-82340150D02*
X154333314Y-80689150D01*
X154176076Y-81711197D02*
X153704362Y-82340150D01*
X153704362Y-81239483D02*
X154333314Y-81868435D01*
X152367838Y-82261531D02*
X152525076Y-82340150D01*
X152525076Y-82340150D02*
X152839552Y-82340150D01*
X152839552Y-82340150D02*
X152996790Y-82261531D01*
X152996790Y-82261531D02*
X153075409Y-82104292D01*
X153075409Y-82104292D02*
X153075409Y-81475340D01*
X153075409Y-81475340D02*
X152996790Y-81318102D01*
X152996790Y-81318102D02*
X152839552Y-81239483D01*
X152839552Y-81239483D02*
X152525076Y-81239483D01*
X152525076Y-81239483D02*
X152367838Y-81318102D01*
X152367838Y-81318102D02*
X152289219Y-81475340D01*
X152289219Y-81475340D02*
X152289219Y-81632578D01*
X152289219Y-81632578D02*
X153075409Y-81789816D01*
X151581647Y-82340150D02*
X151581647Y-81239483D01*
X151581647Y-81553959D02*
X151503028Y-81396721D01*
X151503028Y-81396721D02*
X151424409Y-81318102D01*
X151424409Y-81318102D02*
X151267171Y-81239483D01*
X151267171Y-81239483D02*
X151109933Y-81239483D01*
G04 #@! TO.C,G\u002A\u002A\u002A*
G36*
X181867819Y-73752305D02*
G01*
X181835989Y-73784135D01*
X181804160Y-73752305D01*
X181835989Y-73720476D01*
X181867819Y-73752305D01*
G37*
G36*
X179512431Y-77126240D02*
G01*
X179480601Y-77158070D01*
X179448771Y-77126240D01*
X179480601Y-77094411D01*
X179512431Y-77126240D01*
G37*
G36*
X177729974Y-76425990D02*
G01*
X177698145Y-76457819D01*
X177666315Y-76425990D01*
X177698145Y-76394160D01*
X177729974Y-76425990D01*
G37*
G36*
X175183609Y-74325238D02*
G01*
X175151779Y-74357067D01*
X175119949Y-74325238D01*
X175151779Y-74293408D01*
X175183609Y-74325238D01*
G37*
G36*
X170536491Y-75407443D02*
G01*
X170504661Y-75439273D01*
X170472832Y-75407443D01*
X170504661Y-75375614D01*
X170536491Y-75407443D01*
G37*
G36*
X170281854Y-76362330D02*
G01*
X170250025Y-76394160D01*
X170218195Y-76362330D01*
X170250025Y-76330501D01*
X170281854Y-76362330D01*
G37*
G36*
X170154536Y-76298671D02*
G01*
X170122706Y-76330501D01*
X170090877Y-76298671D01*
X170122706Y-76266842D01*
X170154536Y-76298671D01*
G37*
G36*
X175413792Y-74082240D02*
G01*
X175474372Y-74119973D01*
X175430707Y-74170748D01*
X175354869Y-74196862D01*
X175279178Y-74173192D01*
X175280098Y-74100812D01*
X175310424Y-74077854D01*
X175413792Y-74082240D01*
G37*
G36*
X182021920Y-73725474D02*
G01*
X182026967Y-73784135D01*
X182013901Y-73803186D01*
X181959551Y-73847794D01*
X181953198Y-73846139D01*
X181931478Y-73784135D01*
X181934069Y-73766687D01*
X181998894Y-73720476D01*
X182021920Y-73725474D01*
G37*
G36*
X170295957Y-75378042D02*
G01*
X170377343Y-75439273D01*
X170383332Y-75472070D01*
X170317441Y-75502932D01*
X170270011Y-75495141D01*
X170218195Y-75439273D01*
X170219910Y-75424169D01*
X170278097Y-75375614D01*
X170295957Y-75378042D01*
G37*
G36*
X178437006Y-76382179D02*
G01*
X178466912Y-76438645D01*
X178383820Y-76515630D01*
X178314522Y-76553029D01*
X178209736Y-76578008D01*
X178143759Y-76521478D01*
X178096494Y-76484837D01*
X177970244Y-76457819D01*
X177945263Y-76457493D01*
X177863976Y-76444003D01*
X177886096Y-76417348D01*
X177993064Y-76386677D01*
X178166324Y-76361141D01*
X178307973Y-76356083D01*
X178437006Y-76382179D01*
G37*
G36*
X168451654Y-75350986D02*
G01*
X168637526Y-75377358D01*
X168906147Y-75398010D01*
X169183343Y-75405699D01*
X169239246Y-75405710D01*
X169454569Y-75409988D01*
X169571647Y-75426097D01*
X169614726Y-75460555D01*
X169608054Y-75519881D01*
X169603778Y-75536236D01*
X169607540Y-75630118D01*
X169658263Y-75765093D01*
X169765362Y-75961708D01*
X169938251Y-76240508D01*
X169957881Y-76271244D01*
X170019990Y-76373779D01*
X170012111Y-76388226D01*
X169933384Y-76330501D01*
X169859986Y-76271962D01*
X169641786Y-76059806D01*
X169490824Y-75830334D01*
X169437584Y-75740495D01*
X169358773Y-75672623D01*
X169230151Y-75638161D01*
X169012966Y-75620056D01*
X168632658Y-75598421D01*
X168670155Y-75789398D01*
X168676163Y-75821776D01*
X168704246Y-76078958D01*
X168704368Y-76335102D01*
X168678470Y-76548759D01*
X168628494Y-76678484D01*
X168610779Y-76695940D01*
X168497261Y-76750494D01*
X168354713Y-76775010D01*
X168232779Y-76765226D01*
X168181102Y-76716883D01*
X168212398Y-76675590D01*
X168324335Y-76637309D01*
X168369955Y-76627932D01*
X168434936Y-76582388D01*
X168469127Y-76474971D01*
X168487150Y-76272963D01*
X168489526Y-76123322D01*
X168457263Y-75850350D01*
X168381657Y-75647274D01*
X168270763Y-75541334D01*
X168228025Y-75512079D01*
X168181102Y-75401305D01*
X168181174Y-75394837D01*
X168201899Y-75335707D01*
X168281443Y-75323064D01*
X168451654Y-75350986D01*
G37*
G36*
X179525643Y-74383059D02*
G01*
X179528014Y-74580406D01*
X179534621Y-75170806D01*
X179538888Y-75649565D01*
X179540634Y-76028773D01*
X179539675Y-76320520D01*
X179535832Y-76536898D01*
X179528922Y-76689998D01*
X179518763Y-76791909D01*
X179505174Y-76854724D01*
X179487974Y-76890532D01*
X179452213Y-76925103D01*
X179390732Y-76919519D01*
X179379102Y-76906540D01*
X179281082Y-76831416D01*
X179130476Y-76736737D01*
X179038702Y-76679477D01*
X178779472Y-76483593D01*
X178524664Y-76250411D01*
X178309399Y-76013855D01*
X178168798Y-75807849D01*
X178098717Y-75652680D01*
X178053751Y-75431713D01*
X178110460Y-75246014D01*
X178273292Y-75063912D01*
X178381414Y-74977137D01*
X178560275Y-74889490D01*
X178778809Y-74866340D01*
X178866486Y-74868320D01*
X179033790Y-74891225D01*
X179085856Y-74931074D01*
X179018995Y-74976867D01*
X178829520Y-75017604D01*
X178606526Y-75072693D01*
X178356755Y-75225866D01*
X178182013Y-75393279D01*
X178311412Y-75646921D01*
X178321706Y-75666485D01*
X178454186Y-75866865D01*
X178635880Y-76084507D01*
X178841831Y-76295466D01*
X179047080Y-76475797D01*
X179226671Y-76601556D01*
X179355647Y-76648797D01*
X179360073Y-76645211D01*
X179371901Y-76560917D01*
X179372767Y-76387506D01*
X179362264Y-76155438D01*
X179362032Y-76151859D01*
X179345382Y-75863411D01*
X179332383Y-75580376D01*
X179325830Y-75363538D01*
X179319996Y-75235640D01*
X179293291Y-75114779D01*
X179228021Y-74998497D01*
X179106144Y-74856175D01*
X178909615Y-74657192D01*
X178626244Y-74343001D01*
X178413929Y-74030061D01*
X178292723Y-73746342D01*
X178278019Y-73613965D01*
X178449261Y-73613965D01*
X178503829Y-73831949D01*
X178633888Y-74085754D01*
X178830889Y-74352252D01*
X178867353Y-74394627D01*
X179040490Y-74587359D01*
X179159646Y-74688558D01*
X179235732Y-74691066D01*
X179279656Y-74587728D01*
X179302325Y-74371385D01*
X179314650Y-74034883D01*
X179319928Y-73784084D01*
X179314770Y-73612859D01*
X179291610Y-73513278D01*
X179243447Y-73456630D01*
X179163277Y-73414206D01*
X179048322Y-73373342D01*
X178825560Y-73341703D01*
X178624244Y-73363117D01*
X178492208Y-73436030D01*
X178478734Y-73454929D01*
X178449261Y-73613965D01*
X178278019Y-73613965D01*
X178265704Y-73503102D01*
X178335950Y-73311600D01*
X178506540Y-73183094D01*
X178611555Y-73145080D01*
X178776277Y-73120398D01*
X178972099Y-73142752D01*
X179241879Y-73213940D01*
X179512431Y-73295015D01*
X179518370Y-73784084D01*
X179525643Y-74383059D01*
G37*
G36*
X191651426Y-75098124D02*
G01*
X191542900Y-75330736D01*
X191414471Y-75494006D01*
X191558814Y-75713375D01*
X191582317Y-75749135D01*
X191694616Y-75920939D01*
X191779436Y-76052048D01*
X191790338Y-76068694D01*
X191855911Y-76131451D01*
X191914383Y-76085515D01*
X191964716Y-76043026D01*
X192092740Y-76022507D01*
X192130037Y-76036010D01*
X192213410Y-76136849D01*
X192224370Y-76203183D01*
X192237510Y-76282714D01*
X192191946Y-76407020D01*
X192188466Y-76416513D01*
X192178265Y-76429676D01*
X192129943Y-76577929D01*
X192169476Y-76720344D01*
X192209710Y-76749837D01*
X192283890Y-76804214D01*
X192328765Y-76821989D01*
X192456435Y-76914983D01*
X192590644Y-77052980D01*
X192705666Y-77203928D01*
X192775775Y-77335771D01*
X192775247Y-77416456D01*
X192706662Y-77410737D01*
X192566255Y-77320260D01*
X192371094Y-77151738D01*
X192026110Y-76827850D01*
X191959975Y-77008875D01*
X191931971Y-77081124D01*
X191814897Y-77334183D01*
X191680299Y-77574350D01*
X191557482Y-77747817D01*
X191530797Y-77775146D01*
X191397681Y-77833353D01*
X191239068Y-77782502D01*
X191048727Y-77619144D01*
X190820429Y-77339830D01*
X190810193Y-77326220D01*
X190685873Y-77217837D01*
X190533962Y-77208847D01*
X190430449Y-77215544D01*
X190413507Y-77188544D01*
X190428039Y-77160905D01*
X190404061Y-77068438D01*
X190379920Y-77022282D01*
X190321481Y-76866714D01*
X190245113Y-76634312D01*
X190159167Y-76353424D01*
X190071995Y-76052397D01*
X189991946Y-75759579D01*
X189927371Y-75503315D01*
X189886622Y-75311954D01*
X189844953Y-75049010D01*
X189802725Y-74733917D01*
X189795260Y-74668660D01*
X189954913Y-74668660D01*
X189981472Y-74734349D01*
X189998835Y-74788979D01*
X190025542Y-74944336D01*
X190048397Y-75151400D01*
X190064851Y-75297985D01*
X190100544Y-75498033D01*
X190140037Y-75623764D01*
X190141996Y-75627552D01*
X190187166Y-75750485D01*
X190245594Y-75953646D01*
X190305155Y-76195083D01*
X190344001Y-76356180D01*
X190404390Y-76542086D01*
X190488001Y-76696768D01*
X190617964Y-76859757D01*
X190817408Y-77070583D01*
X190910287Y-77167104D01*
X191072159Y-77342789D01*
X191183984Y-77474618D01*
X191225714Y-77539563D01*
X191273479Y-77607666D01*
X191376607Y-77627193D01*
X191467740Y-77583985D01*
X191545529Y-77464985D01*
X191634365Y-77297008D01*
X191705727Y-77135726D01*
X191734987Y-77032007D01*
X191731929Y-77021825D01*
X191668901Y-77028314D01*
X191550061Y-77100002D01*
X191524810Y-77117829D01*
X191387784Y-77187832D01*
X191295425Y-77193640D01*
X191247319Y-77153572D01*
X191240425Y-77073403D01*
X191350663Y-77012926D01*
X191399250Y-76986382D01*
X191509731Y-76867385D01*
X191603474Y-76712456D01*
X191752490Y-76712456D01*
X191766657Y-76786160D01*
X191808436Y-76839774D01*
X191844062Y-76830146D01*
X191902791Y-76749837D01*
X191894135Y-76648797D01*
X191844111Y-76595230D01*
X191775807Y-76604219D01*
X191752490Y-76712456D01*
X191603474Y-76712456D01*
X191614861Y-76693636D01*
X191754109Y-76407020D01*
X191611157Y-76192947D01*
X191933279Y-76192947D01*
X191976892Y-76279574D01*
X191992444Y-76294196D01*
X192040445Y-76304366D01*
X192053283Y-76203183D01*
X192052818Y-76172543D01*
X192033902Y-76095456D01*
X191976892Y-76126792D01*
X191933279Y-76192947D01*
X191611157Y-76192947D01*
X191485226Y-76004364D01*
X191459134Y-75965684D01*
X191278786Y-75729047D01*
X191101510Y-75566832D01*
X190886817Y-75440916D01*
X190749960Y-75365846D01*
X190618055Y-75268036D01*
X190574785Y-75195819D01*
X190576007Y-75160895D01*
X190532388Y-75148527D01*
X190492297Y-75142953D01*
X190386573Y-75066737D01*
X190254153Y-74930452D01*
X190213537Y-74884136D01*
X190090099Y-74757329D01*
X189997507Y-74680912D01*
X189954913Y-74668660D01*
X189795260Y-74668660D01*
X189766113Y-74413869D01*
X189737595Y-74115064D01*
X189719649Y-73863702D01*
X189714756Y-73685980D01*
X189725393Y-73608098D01*
X189785015Y-73606633D01*
X189861469Y-73687538D01*
X189925613Y-73817267D01*
X189952531Y-73957495D01*
X189953652Y-73990315D01*
X190013656Y-74243077D01*
X190150633Y-74525266D01*
X190344506Y-74794038D01*
X190465417Y-74922013D01*
X190636409Y-75078505D01*
X190801226Y-75208375D01*
X190932198Y-75290210D01*
X191001655Y-75302597D01*
X191002811Y-75260706D01*
X190969861Y-75127696D01*
X190905907Y-74941437D01*
X190870562Y-74841317D01*
X190800094Y-74555095D01*
X190783024Y-74310617D01*
X190784055Y-74305023D01*
X190976015Y-74305023D01*
X190982415Y-74463513D01*
X191038668Y-74684006D01*
X191141404Y-74943016D01*
X191229138Y-75119679D01*
X191311460Y-75258694D01*
X191361971Y-75311954D01*
X191386892Y-75305420D01*
X191461808Y-75217268D01*
X191520366Y-75060574D01*
X191544010Y-74879430D01*
X191511173Y-74752953D01*
X191415289Y-74580474D01*
X191285141Y-74410704D01*
X191149969Y-74281257D01*
X191039011Y-74229749D01*
X191022841Y-74232023D01*
X190976015Y-74305023D01*
X190784055Y-74305023D01*
X190816790Y-74127394D01*
X190898829Y-74024936D01*
X191026579Y-74022752D01*
X191203782Y-74111431D01*
X191425382Y-74309357D01*
X191581381Y-74558842D01*
X191660491Y-74831295D01*
X191658856Y-74879430D01*
X191651426Y-75098124D01*
G37*
G36*
X183492834Y-73243019D02*
G01*
X183515905Y-73351776D01*
X183528040Y-73562960D01*
X183531994Y-73648587D01*
X183554046Y-73851404D01*
X183606819Y-73995970D01*
X183709540Y-74096092D01*
X183881437Y-74165579D01*
X184141739Y-74218238D01*
X184509674Y-74267876D01*
X184706491Y-74295855D01*
X184854079Y-74332460D01*
X184902674Y-74377329D01*
X184868044Y-74437945D01*
X184816066Y-74468827D01*
X184709540Y-74428103D01*
X184646991Y-74389217D01*
X184594585Y-74420628D01*
X184571858Y-74438561D01*
X184456327Y-74447230D01*
X184279841Y-74427372D01*
X184082063Y-74386328D01*
X183902658Y-74331442D01*
X183781288Y-74270058D01*
X183719364Y-74230087D01*
X183737301Y-74277493D01*
X183751823Y-74319255D01*
X183701777Y-74356966D01*
X183672258Y-74374353D01*
X183649487Y-74450029D01*
X183639160Y-74601584D01*
X183640270Y-74846047D01*
X183651807Y-75200449D01*
X183654303Y-75260292D01*
X183671842Y-75575541D01*
X183693810Y-75843903D01*
X183717652Y-76038583D01*
X183740807Y-76132783D01*
X183776438Y-76237854D01*
X183791278Y-76403334D01*
X183803754Y-76530124D01*
X183842531Y-76585137D01*
X183869477Y-76602466D01*
X183941910Y-76705908D01*
X184025672Y-76871604D01*
X184072707Y-76969116D01*
X184156199Y-77104816D01*
X184217388Y-77158070D01*
X184236949Y-77155086D01*
X184322589Y-77076093D01*
X184388080Y-76920745D01*
X184414185Y-76730805D01*
X184446227Y-76550353D01*
X184573853Y-76337861D01*
X184770182Y-76200950D01*
X184924756Y-76168326D01*
X185083025Y-76225705D01*
X185213914Y-76401874D01*
X185236712Y-76444534D01*
X185322794Y-76562256D01*
X185393720Y-76560536D01*
X185465380Y-76441904D01*
X185501071Y-76374405D01*
X185600373Y-76295375D01*
X185723606Y-76331974D01*
X185874793Y-76486367D01*
X186057957Y-76760717D01*
X186109228Y-76843926D01*
X186236930Y-77029864D01*
X186339841Y-77150403D01*
X186399404Y-77182616D01*
X186414356Y-77170038D01*
X186489957Y-77060751D01*
X186582605Y-76884728D01*
X186672912Y-76684169D01*
X186741490Y-76501275D01*
X186768952Y-76378245D01*
X186783173Y-76319054D01*
X186859856Y-76266842D01*
X186900956Y-76264156D01*
X187044089Y-76230789D01*
X187103498Y-76230647D01*
X187198035Y-76277090D01*
X187339643Y-76381702D01*
X187542633Y-76555111D01*
X187821316Y-76807944D01*
X187886510Y-76864462D01*
X188131517Y-77026044D01*
X188372496Y-77117483D01*
X188572698Y-77123353D01*
X188660357Y-77089659D01*
X188735758Y-76986245D01*
X188696845Y-76829045D01*
X188543558Y-76617044D01*
X188480487Y-76539732D01*
X188400976Y-76413913D01*
X188390002Y-76344278D01*
X188416561Y-76333750D01*
X188549261Y-76315743D01*
X188762614Y-76303310D01*
X189025645Y-76298671D01*
X189615394Y-76298671D01*
X189620770Y-76481241D01*
X189622182Y-76504743D01*
X189698180Y-76717857D01*
X189863620Y-76892213D01*
X190084308Y-76990265D01*
X190088027Y-76991017D01*
X190238314Y-77044467D01*
X190273379Y-77102603D01*
X190201787Y-77141388D01*
X190032105Y-77136780D01*
X189952987Y-77116804D01*
X189736724Y-77003269D01*
X189546584Y-76833172D01*
X189432007Y-76646875D01*
X189394597Y-76618266D01*
X189271365Y-76573485D01*
X189102837Y-76530191D01*
X188930767Y-76497351D01*
X188796906Y-76483933D01*
X188743007Y-76498902D01*
X188745071Y-76506801D01*
X188781755Y-76594201D01*
X188849799Y-76741105D01*
X188907364Y-76878166D01*
X188919872Y-77000296D01*
X188869952Y-77126937D01*
X188813740Y-77209518D01*
X188644816Y-77315826D01*
X188422784Y-77313199D01*
X188154812Y-77202630D01*
X187848067Y-76985115D01*
X187679263Y-76843991D01*
X187707919Y-76993897D01*
X187717416Y-77078183D01*
X187677634Y-77264832D01*
X187565332Y-77380133D01*
X187410487Y-77414121D01*
X187243072Y-77356832D01*
X187093061Y-77198300D01*
X187043981Y-77114977D01*
X186972837Y-76960360D01*
X186973951Y-76893442D01*
X187042417Y-76922850D01*
X187173328Y-77057207D01*
X187305863Y-77192781D01*
X187430326Y-77256825D01*
X187507196Y-77205046D01*
X187533483Y-77037604D01*
X187477028Y-76849580D01*
X187300066Y-76627577D01*
X187131232Y-76469875D01*
X187027019Y-76406766D01*
X186974820Y-76436805D01*
X186960551Y-76557065D01*
X186944900Y-76658029D01*
X186902072Y-76683828D01*
X186901380Y-76683414D01*
X186848684Y-76712162D01*
X186803746Y-76829107D01*
X186791591Y-76871170D01*
X186705729Y-77048876D01*
X186580632Y-77227532D01*
X186457261Y-77358659D01*
X186368262Y-77402635D01*
X186281088Y-77374026D01*
X186277121Y-77371457D01*
X186189576Y-77281003D01*
X186066050Y-77117885D01*
X185931017Y-76918179D01*
X185808950Y-76717961D01*
X185724323Y-76553308D01*
X185695559Y-76533751D01*
X185626137Y-76585137D01*
X185602490Y-76638764D01*
X185580995Y-76826624D01*
X185592304Y-77110325D01*
X185599840Y-77204905D01*
X185606835Y-77405626D01*
X185589539Y-77510061D01*
X185545581Y-77540025D01*
X185501684Y-77506910D01*
X185439755Y-77360858D01*
X185380254Y-77110327D01*
X185347100Y-76956746D01*
X185255693Y-76689303D01*
X185131019Y-76505565D01*
X184991346Y-76383363D01*
X184839933Y-76328888D01*
X184720680Y-76394276D01*
X184631156Y-76581195D01*
X184568932Y-76891311D01*
X184547007Y-77024516D01*
X184478391Y-77226868D01*
X184370436Y-77326237D01*
X184210797Y-77338019D01*
X184197709Y-77335684D01*
X184096844Y-77279475D01*
X183990512Y-77142129D01*
X183862517Y-76903433D01*
X183860131Y-76898530D01*
X183753518Y-76674447D01*
X183666229Y-76481985D01*
X183616954Y-76362330D01*
X183615229Y-76357395D01*
X183581808Y-76297339D01*
X183544114Y-76332512D01*
X183486670Y-76476474D01*
X183411566Y-76656295D01*
X183279487Y-76882512D01*
X183140358Y-77037141D01*
X183013896Y-77094411D01*
X182950744Y-77084634D01*
X182826057Y-77017975D01*
X182740386Y-76920137D01*
X182733818Y-76829095D01*
X182761764Y-76802225D01*
X182842623Y-76834227D01*
X182844590Y-76836181D01*
X182963238Y-76899517D01*
X183077750Y-76843620D01*
X183195999Y-76664711D01*
X183340850Y-76292830D01*
X183426130Y-75782730D01*
X183400375Y-75250942D01*
X183368817Y-75017343D01*
X183341776Y-74746006D01*
X183331005Y-74535851D01*
X183322380Y-74344840D01*
X183276100Y-74199731D01*
X183165677Y-74120123D01*
X182964678Y-74072589D01*
X182902793Y-74060428D01*
X182720378Y-74004141D01*
X182603753Y-73938043D01*
X182546728Y-73896518D01*
X182493611Y-73906780D01*
X182492611Y-73909182D01*
X182420450Y-73939134D01*
X182294801Y-73928752D01*
X182175518Y-73889781D01*
X182122456Y-73833963D01*
X182127186Y-73822910D01*
X182212566Y-73799820D01*
X182379383Y-73801197D01*
X182593981Y-73825291D01*
X182822706Y-73870354D01*
X182896619Y-73888601D01*
X183116542Y-73941205D01*
X183242089Y-73953795D01*
X183297677Y-73913739D01*
X183307724Y-73808402D01*
X183296646Y-73625154D01*
X183292031Y-73418247D01*
X183314351Y-73288177D01*
X183370074Y-73231819D01*
X183446954Y-73211803D01*
X183492834Y-73243019D01*
G37*
G36*
X172935159Y-75060720D02*
G01*
X172900420Y-75796202D01*
X173131002Y-75983778D01*
X173347663Y-76151485D01*
X173513251Y-76253005D01*
X173634310Y-76285237D01*
X173734317Y-76258884D01*
X173819460Y-76154508D01*
X173846766Y-75951513D01*
X173847130Y-75916738D01*
X173859945Y-75731621D01*
X173885407Y-75603627D01*
X173923083Y-75542371D01*
X174029274Y-75504254D01*
X174154330Y-75561621D01*
X174266820Y-75706033D01*
X174340840Y-75833877D01*
X174392645Y-75860426D01*
X174451344Y-75800416D01*
X174492582Y-75756821D01*
X174613330Y-75729483D01*
X174771992Y-75812067D01*
X174976044Y-76007525D01*
X175072662Y-76111935D01*
X175158494Y-76183875D01*
X175216603Y-76179324D01*
X175279970Y-76109328D01*
X175331037Y-76013900D01*
X175352310Y-75857278D01*
X175336079Y-75615970D01*
X175323292Y-75476716D01*
X175325987Y-75304665D01*
X175364124Y-75248295D01*
X175396346Y-75255143D01*
X175481711Y-75341804D01*
X175534424Y-75488489D01*
X175533044Y-75644859D01*
X175539401Y-75744770D01*
X175614353Y-75912293D01*
X175737066Y-76082205D01*
X175876866Y-76213918D01*
X176003080Y-76266842D01*
X176094055Y-76248644D01*
X176209502Y-76141047D01*
X176264312Y-75961254D01*
X176252433Y-75737512D01*
X176167811Y-75498069D01*
X176069807Y-75308552D01*
X176406533Y-75317868D01*
X176515957Y-75318544D01*
X176771672Y-75306639D01*
X176981979Y-75280655D01*
X177102038Y-75261623D01*
X177196136Y-75271306D01*
X177220701Y-75331394D01*
X177213220Y-75377037D01*
X177149072Y-75452539D01*
X177122237Y-75470241D01*
X177101609Y-75574254D01*
X177145834Y-75738460D01*
X177244758Y-75934011D01*
X177388228Y-76132059D01*
X177475875Y-76241608D01*
X177545852Y-76351577D01*
X177546080Y-76394160D01*
X177542165Y-76393981D01*
X177443349Y-76341686D01*
X177304979Y-76218889D01*
X177157385Y-76058401D01*
X177030895Y-75893036D01*
X176955841Y-75755605D01*
X176918102Y-75677341D01*
X176760929Y-75548268D01*
X176509355Y-75503801D01*
X176497296Y-75504041D01*
X176440607Y-75530352D01*
X176422452Y-75621317D01*
X176435475Y-75807144D01*
X176445775Y-75954853D01*
X176425247Y-76121495D01*
X176351082Y-76246040D01*
X176326100Y-76273370D01*
X176128139Y-76405303D01*
X175915106Y-76411897D01*
X175697083Y-76292438D01*
X175500562Y-76127076D01*
X175385878Y-76268705D01*
X175334598Y-76321310D01*
X175184824Y-76374223D01*
X175015160Y-76301555D01*
X174825885Y-76103390D01*
X174781498Y-76047638D01*
X174672923Y-75931237D01*
X174603121Y-75884887D01*
X174582918Y-75906352D01*
X174557111Y-76021596D01*
X174547017Y-76203183D01*
X174546250Y-76259210D01*
X174525421Y-76444101D01*
X174482096Y-76511933D01*
X174424304Y-76459291D01*
X174360072Y-76282756D01*
X174354590Y-76263260D01*
X174278076Y-76058516D01*
X174187216Y-75889888D01*
X174117404Y-75797410D01*
X174071242Y-75780808D01*
X174032538Y-75858059D01*
X174012254Y-75948036D01*
X174017479Y-76118092D01*
X174018703Y-76189249D01*
X173951724Y-76342199D01*
X173825127Y-76468753D01*
X173678744Y-76521478D01*
X173610152Y-76505167D01*
X173452562Y-76435805D01*
X173264004Y-76330501D01*
X173129617Y-76249934D01*
X172986905Y-76170328D01*
X172916905Y-76139523D01*
X172905635Y-76156781D01*
X172893907Y-76265785D01*
X172896481Y-76441904D01*
X172900184Y-76522090D01*
X172905281Y-76746405D01*
X172902329Y-76919348D01*
X172874802Y-77037352D01*
X172796390Y-77094411D01*
X172759615Y-77085249D01*
X172714320Y-77003276D01*
X172700902Y-76818205D01*
X172700858Y-76812937D01*
X172679506Y-76641138D01*
X172624637Y-76384491D01*
X172544318Y-76076810D01*
X172446613Y-75751914D01*
X172430933Y-75703061D01*
X172337664Y-75406476D01*
X172261783Y-75155171D01*
X172210738Y-74974373D01*
X172191977Y-74889308D01*
X172187010Y-74856850D01*
X172111453Y-74726533D01*
X171979051Y-74599086D01*
X171834048Y-74520142D01*
X171794970Y-74510583D01*
X171728959Y-74521482D01*
X171691539Y-74603709D01*
X171664905Y-74785162D01*
X171659063Y-74883960D01*
X171673959Y-75098572D01*
X171717017Y-75298244D01*
X171778622Y-75445517D01*
X171849157Y-75502932D01*
X171906197Y-75477978D01*
X172013058Y-75396216D01*
X172101541Y-75330034D01*
X172178385Y-75321072D01*
X172195139Y-75399723D01*
X172150538Y-75550813D01*
X172043316Y-75759169D01*
X171979066Y-75859559D01*
X171770178Y-76091397D01*
X171521607Y-76219919D01*
X171203145Y-76263249D01*
X171050916Y-76295263D01*
X170902880Y-76392416D01*
X170745884Y-76513470D01*
X170546285Y-76567658D01*
X170366039Y-76529158D01*
X170326636Y-76505674D01*
X170287689Y-76468587D01*
X170358433Y-76459755D01*
X170462320Y-76442348D01*
X170611426Y-76390332D01*
X170737811Y-76325305D01*
X170791127Y-76269412D01*
X170787934Y-76261415D01*
X170712214Y-76209955D01*
X170567329Y-76147833D01*
X170378099Y-76037360D01*
X170217204Y-75819285D01*
X170164759Y-75708938D01*
X170110025Y-75563393D01*
X170095781Y-75478954D01*
X170123709Y-75474886D01*
X170195490Y-75570452D01*
X170303433Y-75703522D01*
X170477951Y-75853976D01*
X170661789Y-75967389D01*
X170810981Y-76012205D01*
X170893351Y-75975768D01*
X170912556Y-75859005D01*
X170849629Y-75684272D01*
X170816109Y-75595392D01*
X170823004Y-75513495D01*
X170824071Y-75512459D01*
X170888509Y-75517784D01*
X170961405Y-75608570D01*
X171021057Y-75747450D01*
X171045764Y-75897054D01*
X171046009Y-75921126D01*
X171062823Y-76023182D01*
X171124053Y-76065313D01*
X171254775Y-76052978D01*
X171480063Y-75991638D01*
X171565854Y-75962777D01*
X171753128Y-75867839D01*
X171854051Y-75764802D01*
X171857245Y-75670085D01*
X171751335Y-75600109D01*
X171689898Y-75566017D01*
X171583886Y-75411554D01*
X171515574Y-75160839D01*
X171491378Y-74832806D01*
X171494918Y-74719197D01*
X171541161Y-74498315D01*
X171648913Y-74384843D01*
X171828247Y-74372408D01*
X172089236Y-74454638D01*
X172164122Y-74475103D01*
X172189009Y-74429573D01*
X172170298Y-74287762D01*
X172151147Y-74176391D01*
X172096940Y-73669359D01*
X172101303Y-73489550D01*
X172284983Y-73489550D01*
X172288450Y-73829362D01*
X172309262Y-74136848D01*
X172349163Y-74388897D01*
X172386632Y-74556877D01*
X172440760Y-74817717D01*
X172479342Y-75025488D01*
X172487896Y-75072242D01*
X172534845Y-75248364D01*
X172587075Y-75359699D01*
X172660408Y-75427103D01*
X172721638Y-75412277D01*
X172758127Y-75286228D01*
X172774316Y-75041403D01*
X172776341Y-74840177D01*
X172769158Y-74427491D01*
X172750402Y-73961606D01*
X172722305Y-73478626D01*
X172687095Y-73014654D01*
X172647004Y-72605792D01*
X172604260Y-72288145D01*
X172591796Y-72210127D01*
X172578314Y-72113082D01*
X172578112Y-72111364D01*
X172524398Y-72065338D01*
X172466826Y-72114411D01*
X172409710Y-72269218D01*
X172361225Y-72507244D01*
X172323113Y-72805381D01*
X172297118Y-73140520D01*
X172284983Y-73489550D01*
X172101303Y-73489550D01*
X172108828Y-73179435D01*
X172187466Y-72644059D01*
X172225892Y-72451956D01*
X172279295Y-72204649D01*
X172323349Y-72023231D01*
X172351184Y-71937361D01*
X172442713Y-71878227D01*
X172572334Y-71898749D01*
X172682657Y-71996121D01*
X172695225Y-72022090D01*
X172736885Y-72180848D01*
X172779150Y-72437177D01*
X172820153Y-72768423D01*
X172858028Y-73151938D01*
X172890908Y-73565068D01*
X172916928Y-73985162D01*
X172934220Y-74389570D01*
X172940919Y-74755640D01*
X172939323Y-74840177D01*
X172935159Y-75060720D01*
G37*
G36*
X143402242Y-92240485D02*
G01*
X141277879Y-92240485D01*
X141277879Y-89685091D01*
X139984788Y-89685091D01*
X139984788Y-91532363D01*
X139646121Y-91532363D01*
X139646121Y-89685091D01*
X138784061Y-89685091D01*
X138784061Y-91039757D01*
X138445394Y-91039757D01*
X138445394Y-89685091D01*
X137583333Y-89685091D01*
X137583333Y-91039757D01*
X137244667Y-91039757D01*
X137244667Y-89685091D01*
X136382606Y-89685091D01*
X136382606Y-91039757D01*
X136043939Y-91039757D01*
X136043939Y-89685091D01*
X135181879Y-89685091D01*
X135181879Y-91039757D01*
X134843212Y-91039757D01*
X134843212Y-89685091D01*
X133981151Y-89685091D01*
X133981151Y-91039757D01*
X133642485Y-91039757D01*
X133642485Y-89685091D01*
X132780424Y-89685091D01*
X132780424Y-91039757D01*
X132441757Y-91039757D01*
X132441757Y-89685091D01*
X131579697Y-89685091D01*
X131579697Y-91039757D01*
X131241030Y-91039757D01*
X131241030Y-89685091D01*
X130378970Y-89685091D01*
X130378970Y-91039757D01*
X130217333Y-91039785D01*
X130055697Y-91039813D01*
X130073381Y-89685091D01*
X129178242Y-89685091D01*
X129178242Y-91039757D01*
X128870364Y-91039757D01*
X128870364Y-89685091D01*
X127977515Y-89685091D01*
X127977515Y-91039757D01*
X127669636Y-91039757D01*
X127669636Y-89685091D01*
X126776788Y-89685091D01*
X126776788Y-91039757D01*
X126468909Y-91039757D01*
X126468909Y-89685091D01*
X124406121Y-89685091D01*
X124406121Y-89285678D01*
X126453515Y-89269454D01*
X126470087Y-87899394D01*
X126775610Y-87899394D01*
X126792182Y-89269454D01*
X127654242Y-89269454D01*
X127670814Y-87899394D01*
X127976337Y-87899394D01*
X127992909Y-89269454D01*
X128854970Y-89269454D01*
X128871542Y-87899394D01*
X129177064Y-87899394D01*
X129193636Y-89269454D01*
X130055697Y-89269454D01*
X130061520Y-88592121D01*
X130067344Y-87914788D01*
X130222563Y-87905502D01*
X130377783Y-87896217D01*
X130386073Y-88582836D01*
X130394364Y-89269454D01*
X131239848Y-89286578D01*
X131256424Y-87914788D01*
X131417467Y-87905502D01*
X131578510Y-87896217D01*
X131586801Y-88582836D01*
X131595091Y-89269454D01*
X132440575Y-89286578D01*
X132457151Y-87914788D01*
X132618195Y-87905502D01*
X132779238Y-87896217D01*
X132787528Y-88582836D01*
X132795818Y-89269454D01*
X133641302Y-89286578D01*
X133649590Y-88600683D01*
X133657879Y-87914788D01*
X133818922Y-87905502D01*
X133979965Y-87896217D01*
X133988255Y-88582836D01*
X133996545Y-89269454D01*
X134842029Y-89286578D01*
X134850318Y-88600683D01*
X134858606Y-87914788D01*
X135019649Y-87905502D01*
X135180692Y-87896217D01*
X135188982Y-88582836D01*
X135197273Y-89269454D01*
X136042757Y-89286578D01*
X136059333Y-87914788D01*
X136220376Y-87905502D01*
X136381419Y-87896217D01*
X136389710Y-88582836D01*
X136398000Y-89269454D01*
X137243484Y-89286578D01*
X137251772Y-88600683D01*
X137260061Y-87914788D01*
X137421104Y-87905502D01*
X137582147Y-87896217D01*
X137590437Y-88582836D01*
X137598727Y-89269454D01*
X138444211Y-89286578D01*
X138452500Y-88600683D01*
X138460788Y-87914788D01*
X138621831Y-87905502D01*
X138782874Y-87896217D01*
X138791164Y-88582836D01*
X138799454Y-89269454D01*
X139645216Y-89286580D01*
X139653365Y-88354381D01*
X139661515Y-87422182D01*
X139822698Y-87412891D01*
X139983880Y-87403601D01*
X139992031Y-88336528D01*
X140000182Y-89269454D01*
X141262485Y-89269454D01*
X141270523Y-87999454D01*
X141278562Y-86729454D01*
X143402242Y-86729454D01*
X143402242Y-92240485D01*
G37*
D11*
X127657589Y-77053360D02*
X127652569Y-77058380D01*
X127647549Y-77053360D01*
X127652569Y-77048340D01*
X127657589Y-77053360D01*
G36*
X127657589Y-77053360D02*
G01*
X127652569Y-77058380D01*
X127647549Y-77053360D01*
X127652569Y-77048340D01*
X127657589Y-77053360D01*
G37*
X123559394Y-72458429D02*
X123569997Y-72459731D01*
X123631717Y-72469703D01*
X123690413Y-72484175D01*
X123751029Y-72504791D01*
X123818505Y-72533195D01*
X123897786Y-72571032D01*
X123898486Y-72571379D01*
X124004844Y-72629741D01*
X124115527Y-72701373D01*
X124230913Y-72786671D01*
X124351383Y-72886031D01*
X124477314Y-72999847D01*
X124609085Y-73128515D01*
X124747076Y-73272429D01*
X124891666Y-73431985D01*
X125043234Y-73607578D01*
X125202157Y-73799603D01*
X125368817Y-74008455D01*
X125543590Y-74234530D01*
X125726857Y-74478222D01*
X125737452Y-74492562D01*
X125775009Y-74544135D01*
X125822081Y-74609608D01*
X125877291Y-74687013D01*
X125939264Y-74774385D01*
X126006622Y-74869758D01*
X126077991Y-74971166D01*
X126151994Y-75076642D01*
X126227255Y-75184222D01*
X126302398Y-75291937D01*
X126376047Y-75397824D01*
X126446825Y-75499915D01*
X126513357Y-75596245D01*
X126574267Y-75684848D01*
X126628178Y-75763757D01*
X126673715Y-75831006D01*
X126701032Y-75871456D01*
X126736209Y-75923087D01*
X126766464Y-75966958D01*
X126790240Y-76000835D01*
X126805980Y-76022482D01*
X126812126Y-76029666D01*
X126811746Y-76027541D01*
X126805259Y-76010279D01*
X126791556Y-75977099D01*
X126771372Y-75929653D01*
X126745442Y-75869594D01*
X126714501Y-75798573D01*
X126679285Y-75718244D01*
X126640526Y-75630257D01*
X126598962Y-75536266D01*
X126555326Y-75437923D01*
X126510354Y-75336880D01*
X126464780Y-75234789D01*
X126419340Y-75133302D01*
X126374767Y-75034073D01*
X126331798Y-74938752D01*
X126291167Y-74848993D01*
X126253609Y-74766448D01*
X126219859Y-74692769D01*
X126190652Y-74629608D01*
X126166722Y-74578617D01*
X126142424Y-74527616D01*
X126074338Y-74387113D01*
X126011293Y-74260694D01*
X125953607Y-74148925D01*
X125901596Y-74052369D01*
X125855580Y-73971588D01*
X125815874Y-73907147D01*
X125782797Y-73859608D01*
X125756666Y-73829535D01*
X125737798Y-73817492D01*
X125737560Y-73817450D01*
X125719560Y-73824026D01*
X125700187Y-73847557D01*
X125697621Y-73851630D01*
X125685460Y-73865795D01*
X125679804Y-73863690D01*
X125681514Y-73847923D01*
X125691453Y-73821105D01*
X125702175Y-73805278D01*
X125725250Y-73795683D01*
X125755673Y-73803611D01*
X125792732Y-73828666D01*
X125835716Y-73870448D01*
X125883911Y-73928561D01*
X125918317Y-73975998D01*
X125963869Y-74043581D01*
X126016926Y-74126248D01*
X126076621Y-74222547D01*
X126142089Y-74331026D01*
X126212464Y-74450233D01*
X126286882Y-74578716D01*
X126364476Y-74715022D01*
X126444380Y-74857700D01*
X126525731Y-75005297D01*
X126543234Y-75037295D01*
X126593442Y-75128949D01*
X126646798Y-75226191D01*
X126700750Y-75324376D01*
X126752745Y-75418862D01*
X126800232Y-75505007D01*
X126840657Y-75578166D01*
X126868506Y-75628602D01*
X126914385Y-75712110D01*
X126961849Y-75798931D01*
X127008055Y-75883853D01*
X127050165Y-75961663D01*
X127085336Y-76027148D01*
X127100270Y-76054996D01*
X127129788Y-76109322D01*
X127155659Y-76155993D01*
X127176454Y-76192483D01*
X127190745Y-76216266D01*
X127197101Y-76224812D01*
X127198145Y-76224390D01*
X127208286Y-76213329D01*
X127225354Y-76190290D01*
X127246295Y-76159340D01*
X127251939Y-76150842D01*
X127272195Y-76123113D01*
X127288077Y-76105539D01*
X127296545Y-76101613D01*
X127296976Y-76102307D01*
X127303064Y-76116475D01*
X127315136Y-76146927D01*
X127332392Y-76191535D01*
X127354034Y-76248170D01*
X127379261Y-76314705D01*
X127407277Y-76389010D01*
X127437280Y-76468958D01*
X127468472Y-76552420D01*
X127500054Y-76637267D01*
X127531227Y-76721372D01*
X127561191Y-76802605D01*
X127589148Y-76878839D01*
X127614299Y-76947945D01*
X127624655Y-76977314D01*
X127635010Y-77009080D01*
X127640347Y-77028874D01*
X127639650Y-77033281D01*
X127638793Y-77032163D01*
X127629476Y-77017067D01*
X127612014Y-76986993D01*
X127587608Y-76944098D01*
X127557458Y-76890539D01*
X127522764Y-76828475D01*
X127484726Y-76760062D01*
X127444545Y-76687458D01*
X127403421Y-76612820D01*
X127362554Y-76538307D01*
X127323144Y-76466074D01*
X127286391Y-76398281D01*
X127263630Y-76356609D01*
X127238691Y-76312146D01*
X127218146Y-76276847D01*
X127203665Y-76253572D01*
X127196919Y-76245178D01*
X127194140Y-76246357D01*
X127181346Y-76261104D01*
X127162050Y-76290756D01*
X127137527Y-76332811D01*
X127109051Y-76384768D01*
X127077897Y-76444126D01*
X127045342Y-76508382D01*
X127012659Y-76575037D01*
X126981123Y-76641588D01*
X126952011Y-76705534D01*
X126926596Y-76764375D01*
X126906153Y-76815607D01*
X126867178Y-76919198D01*
X126841923Y-76875844D01*
X126841507Y-76875129D01*
X126828283Y-76852012D01*
X126807409Y-76815088D01*
X126780890Y-76767926D01*
X126750733Y-76714093D01*
X126718944Y-76657156D01*
X126717765Y-76655041D01*
X126680905Y-76589487D01*
X126637466Y-76513086D01*
X126590995Y-76432024D01*
X126545038Y-76352491D01*
X126503143Y-76280674D01*
X126461081Y-76208695D01*
X126413142Y-76126107D01*
X126363905Y-76040819D01*
X126317213Y-75959489D01*
X126276911Y-75888775D01*
X126232315Y-75810508D01*
X126055118Y-75506350D01*
X125867455Y-75194436D01*
X125672343Y-74879803D01*
X125586782Y-74744094D01*
X125484968Y-74583382D01*
X125391815Y-74437402D01*
X125306360Y-74304766D01*
X125227644Y-74184086D01*
X125154707Y-74073974D01*
X125086588Y-73973042D01*
X125022328Y-73879901D01*
X124960965Y-73793164D01*
X124901540Y-73711443D01*
X124843092Y-73633349D01*
X124784661Y-73557494D01*
X124725288Y-73482490D01*
X124664010Y-73406949D01*
X124599869Y-73329484D01*
X124530636Y-73247810D01*
X124391698Y-73091827D01*
X124259193Y-72954241D01*
X124132761Y-72834758D01*
X124012041Y-72733084D01*
X123896671Y-72648926D01*
X123786293Y-72581990D01*
X123680543Y-72531983D01*
X123579063Y-72498611D01*
X123575468Y-72497718D01*
X123488383Y-72484445D01*
X123390199Y-72483662D01*
X123285375Y-72495418D01*
X123255257Y-72500513D01*
X123288009Y-72485335D01*
X123296170Y-72481802D01*
X123349675Y-72466247D01*
X123415389Y-72456769D01*
X123487300Y-72453964D01*
X123559394Y-72458429D01*
G36*
X123559394Y-72458429D02*
G01*
X123569997Y-72459731D01*
X123631717Y-72469703D01*
X123690413Y-72484175D01*
X123751029Y-72504791D01*
X123818505Y-72533195D01*
X123897786Y-72571032D01*
X123898486Y-72571379D01*
X124004844Y-72629741D01*
X124115527Y-72701373D01*
X124230913Y-72786671D01*
X124351383Y-72886031D01*
X124477314Y-72999847D01*
X124609085Y-73128515D01*
X124747076Y-73272429D01*
X124891666Y-73431985D01*
X125043234Y-73607578D01*
X125202157Y-73799603D01*
X125368817Y-74008455D01*
X125543590Y-74234530D01*
X125726857Y-74478222D01*
X125737452Y-74492562D01*
X125775009Y-74544135D01*
X125822081Y-74609608D01*
X125877291Y-74687013D01*
X125939264Y-74774385D01*
X126006622Y-74869758D01*
X126077991Y-74971166D01*
X126151994Y-75076642D01*
X126227255Y-75184222D01*
X126302398Y-75291937D01*
X126376047Y-75397824D01*
X126446825Y-75499915D01*
X126513357Y-75596245D01*
X126574267Y-75684848D01*
X126628178Y-75763757D01*
X126673715Y-75831006D01*
X126701032Y-75871456D01*
X126736209Y-75923087D01*
X126766464Y-75966958D01*
X126790240Y-76000835D01*
X126805980Y-76022482D01*
X126812126Y-76029666D01*
X126811746Y-76027541D01*
X126805259Y-76010279D01*
X126791556Y-75977099D01*
X126771372Y-75929653D01*
X126745442Y-75869594D01*
X126714501Y-75798573D01*
X126679285Y-75718244D01*
X126640526Y-75630257D01*
X126598962Y-75536266D01*
X126555326Y-75437923D01*
X126510354Y-75336880D01*
X126464780Y-75234789D01*
X126419340Y-75133302D01*
X126374767Y-75034073D01*
X126331798Y-74938752D01*
X126291167Y-74848993D01*
X126253609Y-74766448D01*
X126219859Y-74692769D01*
X126190652Y-74629608D01*
X126166722Y-74578617D01*
X126142424Y-74527616D01*
X126074338Y-74387113D01*
X126011293Y-74260694D01*
X125953607Y-74148925D01*
X125901596Y-74052369D01*
X125855580Y-73971588D01*
X125815874Y-73907147D01*
X125782797Y-73859608D01*
X125756666Y-73829535D01*
X125737798Y-73817492D01*
X125737560Y-73817450D01*
X125719560Y-73824026D01*
X125700187Y-73847557D01*
X125697621Y-73851630D01*
X125685460Y-73865795D01*
X125679804Y-73863690D01*
X125681514Y-73847923D01*
X125691453Y-73821105D01*
X125702175Y-73805278D01*
X125725250Y-73795683D01*
X125755673Y-73803611D01*
X125792732Y-73828666D01*
X125835716Y-73870448D01*
X125883911Y-73928561D01*
X125918317Y-73975998D01*
X125963869Y-74043581D01*
X126016926Y-74126248D01*
X126076621Y-74222547D01*
X126142089Y-74331026D01*
X126212464Y-74450233D01*
X126286882Y-74578716D01*
X126364476Y-74715022D01*
X126444380Y-74857700D01*
X126525731Y-75005297D01*
X126543234Y-75037295D01*
X126593442Y-75128949D01*
X126646798Y-75226191D01*
X126700750Y-75324376D01*
X126752745Y-75418862D01*
X126800232Y-75505007D01*
X126840657Y-75578166D01*
X126868506Y-75628602D01*
X126914385Y-75712110D01*
X126961849Y-75798931D01*
X127008055Y-75883853D01*
X127050165Y-75961663D01*
X127085336Y-76027148D01*
X127100270Y-76054996D01*
X127129788Y-76109322D01*
X127155659Y-76155993D01*
X127176454Y-76192483D01*
X127190745Y-76216266D01*
X127197101Y-76224812D01*
X127198145Y-76224390D01*
X127208286Y-76213329D01*
X127225354Y-76190290D01*
X127246295Y-76159340D01*
X127251939Y-76150842D01*
X127272195Y-76123113D01*
X127288077Y-76105539D01*
X127296545Y-76101613D01*
X127296976Y-76102307D01*
X127303064Y-76116475D01*
X127315136Y-76146927D01*
X127332392Y-76191535D01*
X127354034Y-76248170D01*
X127379261Y-76314705D01*
X127407277Y-76389010D01*
X127437280Y-76468958D01*
X127468472Y-76552420D01*
X127500054Y-76637267D01*
X127531227Y-76721372D01*
X127561191Y-76802605D01*
X127589148Y-76878839D01*
X127614299Y-76947945D01*
X127624655Y-76977314D01*
X127635010Y-77009080D01*
X127640347Y-77028874D01*
X127639650Y-77033281D01*
X127638793Y-77032163D01*
X127629476Y-77017067D01*
X127612014Y-76986993D01*
X127587608Y-76944098D01*
X127557458Y-76890539D01*
X127522764Y-76828475D01*
X127484726Y-76760062D01*
X127444545Y-76687458D01*
X127403421Y-76612820D01*
X127362554Y-76538307D01*
X127323144Y-76466074D01*
X127286391Y-76398281D01*
X127263630Y-76356609D01*
X127238691Y-76312146D01*
X127218146Y-76276847D01*
X127203665Y-76253572D01*
X127196919Y-76245178D01*
X127194140Y-76246357D01*
X127181346Y-76261104D01*
X127162050Y-76290756D01*
X127137527Y-76332811D01*
X127109051Y-76384768D01*
X127077897Y-76444126D01*
X127045342Y-76508382D01*
X127012659Y-76575037D01*
X126981123Y-76641588D01*
X126952011Y-76705534D01*
X126926596Y-76764375D01*
X126906153Y-76815607D01*
X126867178Y-76919198D01*
X126841923Y-76875844D01*
X126841507Y-76875129D01*
X126828283Y-76852012D01*
X126807409Y-76815088D01*
X126780890Y-76767926D01*
X126750733Y-76714093D01*
X126718944Y-76657156D01*
X126717765Y-76655041D01*
X126680905Y-76589487D01*
X126637466Y-76513086D01*
X126590995Y-76432024D01*
X126545038Y-76352491D01*
X126503143Y-76280674D01*
X126461081Y-76208695D01*
X126413142Y-76126107D01*
X126363905Y-76040819D01*
X126317213Y-75959489D01*
X126276911Y-75888775D01*
X126232315Y-75810508D01*
X126055118Y-75506350D01*
X125867455Y-75194436D01*
X125672343Y-74879803D01*
X125586782Y-74744094D01*
X125484968Y-74583382D01*
X125391815Y-74437402D01*
X125306360Y-74304766D01*
X125227644Y-74184086D01*
X125154707Y-74073974D01*
X125086588Y-73973042D01*
X125022328Y-73879901D01*
X124960965Y-73793164D01*
X124901540Y-73711443D01*
X124843092Y-73633349D01*
X124784661Y-73557494D01*
X124725288Y-73482490D01*
X124664010Y-73406949D01*
X124599869Y-73329484D01*
X124530636Y-73247810D01*
X124391698Y-73091827D01*
X124259193Y-72954241D01*
X124132761Y-72834758D01*
X124012041Y-72733084D01*
X123896671Y-72648926D01*
X123786293Y-72581990D01*
X123680543Y-72531983D01*
X123579063Y-72498611D01*
X123575468Y-72497718D01*
X123488383Y-72484445D01*
X123390199Y-72483662D01*
X123285375Y-72495418D01*
X123255257Y-72500513D01*
X123288009Y-72485335D01*
X123296170Y-72481802D01*
X123349675Y-72466247D01*
X123415389Y-72456769D01*
X123487300Y-72453964D01*
X123559394Y-72458429D01*
G37*
X132743125Y-80130475D02*
X132741958Y-80231588D01*
X132739574Y-80338301D01*
X132735863Y-80431177D01*
X132730545Y-80513627D01*
X132723340Y-80589058D01*
X132713968Y-80660880D01*
X132702151Y-80732500D01*
X132687608Y-80807326D01*
X132687162Y-80809507D01*
X132677979Y-80865250D01*
X132673386Y-80916920D01*
X132673391Y-80960652D01*
X132678001Y-80992577D01*
X132687222Y-81008829D01*
X132688244Y-81008795D01*
X132695167Y-80997459D01*
X132705815Y-80970360D01*
X132719258Y-80930483D01*
X132734569Y-80880813D01*
X132750817Y-80824333D01*
X132767075Y-80764030D01*
X132782415Y-80702886D01*
X132790719Y-80666365D01*
X132807871Y-80579399D01*
X132824819Y-80479534D01*
X132840970Y-80371411D01*
X132855730Y-80259675D01*
X132868506Y-80148968D01*
X132878703Y-80043932D01*
X132885728Y-79949211D01*
X132888987Y-79869447D01*
X132889598Y-79844069D01*
X132891077Y-79828391D01*
X132894152Y-79829161D01*
X132899686Y-79844348D01*
X132901115Y-79849949D01*
X132904887Y-79879367D01*
X132907724Y-79924806D01*
X132909648Y-79983219D01*
X132910680Y-80051562D01*
X132910842Y-80126788D01*
X132910155Y-80205852D01*
X132908640Y-80285708D01*
X132906319Y-80363310D01*
X132903212Y-80435612D01*
X132899342Y-80499569D01*
X132894729Y-80552135D01*
X132873582Y-80720562D01*
X132846481Y-80887038D01*
X132814832Y-81040671D01*
X132784174Y-81159526D01*
X132779118Y-81179128D01*
X132739821Y-81300079D01*
X132738340Y-81304170D01*
X132723153Y-81352945D01*
X132710747Y-81404136D01*
X132703683Y-81447307D01*
X132702866Y-81455236D01*
X132682651Y-81574284D01*
X132649072Y-81681614D01*
X132602803Y-81776088D01*
X132544513Y-81856567D01*
X132475007Y-81921792D01*
X132474877Y-81921914D01*
X132394565Y-81970989D01*
X132388726Y-81973733D01*
X132348692Y-81991201D01*
X132311951Y-82005229D01*
X132285810Y-82012995D01*
X132265990Y-82019252D01*
X132232009Y-82034886D01*
X132197437Y-82055001D01*
X132167547Y-82073782D01*
X132052856Y-82133258D01*
X131926263Y-82181825D01*
X131824863Y-82209346D01*
X131792396Y-82218158D01*
X131655879Y-82240929D01*
X131521338Y-82248815D01*
X131502195Y-82249231D01*
X131475262Y-82253522D01*
X131451573Y-82265286D01*
X131422470Y-82287949D01*
X131384766Y-82318223D01*
X131275845Y-82389740D01*
X131161821Y-82441910D01*
X131042848Y-82474657D01*
X130978677Y-82482792D01*
X130891579Y-82484709D01*
X130802488Y-82478208D01*
X130720157Y-82463591D01*
X130668685Y-82447856D01*
X130602819Y-82421965D01*
X130533022Y-82389842D01*
X130465682Y-82354445D01*
X130407188Y-82318730D01*
X130340818Y-82271404D01*
X130252875Y-82199947D01*
X130164053Y-82117474D01*
X130073221Y-82022726D01*
X129992638Y-81929874D01*
X130456144Y-81929874D01*
X130458264Y-81934852D01*
X130472422Y-81951051D01*
X130496809Y-81976486D01*
X130529620Y-82009172D01*
X130551854Y-82030593D01*
X130614569Y-82086231D01*
X130673586Y-82129932D01*
X130734318Y-82165416D01*
X130802181Y-82196401D01*
X130843665Y-82210911D01*
X130891989Y-82220639D01*
X130950553Y-82224867D01*
X130963323Y-82225200D01*
X131003990Y-82225403D01*
X131036926Y-82224330D01*
X131055968Y-82222139D01*
X131069017Y-82218064D01*
X131082916Y-82209346D01*
X131076898Y-82201379D01*
X131051073Y-82194782D01*
X131023864Y-82189245D01*
X130972165Y-82175389D01*
X130911549Y-82156408D01*
X130847598Y-82134180D01*
X130785893Y-82110581D01*
X130732016Y-82087489D01*
X130728363Y-82085793D01*
X130652045Y-82047015D01*
X130562384Y-81995621D01*
X130458616Y-81931173D01*
X130456144Y-81929874D01*
X129992638Y-81929874D01*
X129979249Y-81914447D01*
X129936776Y-81861241D01*
X131033594Y-81861241D01*
X131040141Y-81866161D01*
X131062515Y-81874909D01*
X131097081Y-81886410D01*
X131140207Y-81899590D01*
X131188259Y-81913374D01*
X131237602Y-81926687D01*
X131284604Y-81938455D01*
X131325630Y-81947603D01*
X131330562Y-81948604D01*
X131381557Y-81958688D01*
X131417100Y-81964512D01*
X131441073Y-81965960D01*
X131457360Y-81962914D01*
X131469842Y-81955256D01*
X131482402Y-81942871D01*
X131484616Y-81940513D01*
X131494001Y-81929751D01*
X131497331Y-81921792D01*
X131492281Y-81915895D01*
X131476523Y-81911320D01*
X131447733Y-81907329D01*
X131403583Y-81903179D01*
X131341747Y-81898133D01*
X131283583Y-81892848D01*
X131221827Y-81886162D01*
X131165364Y-81879056D01*
X131121565Y-81872392D01*
X131106243Y-81869770D01*
X131070269Y-81864240D01*
X131044460Y-81861192D01*
X131033602Y-81861234D01*
X131033594Y-81861241D01*
X129936776Y-81861241D01*
X129886580Y-81798362D01*
X132023468Y-81798362D01*
X132025619Y-81801065D01*
X132035987Y-81803824D01*
X132061067Y-81807561D01*
X132095059Y-81811318D01*
X132160316Y-81817540D01*
X132220553Y-81768741D01*
X132262675Y-81732786D01*
X132363391Y-81630106D01*
X132456145Y-81510070D01*
X132541574Y-81371889D01*
X132554158Y-81348429D01*
X132570683Y-81310917D01*
X132579719Y-81275065D01*
X132584156Y-81231336D01*
X132588536Y-81159526D01*
X132538634Y-81257142D01*
X132473172Y-81373886D01*
X132392237Y-81490746D01*
X132303309Y-81591508D01*
X132204784Y-81677962D01*
X132095059Y-81751897D01*
X132087097Y-81756588D01*
X132054042Y-81776146D01*
X132034524Y-81788137D01*
X132025384Y-81794798D01*
X132023468Y-81798362D01*
X129886580Y-81798362D01*
X129881006Y-81791379D01*
X129777362Y-81652266D01*
X129667187Y-81495850D01*
X129637656Y-81452934D01*
X129629182Y-81440633D01*
X130739723Y-81440633D01*
X130744743Y-81445653D01*
X130749762Y-81440633D01*
X130744743Y-81435613D01*
X130739723Y-81440633D01*
X129629182Y-81440633D01*
X129600229Y-81398602D01*
X129567307Y-81350878D01*
X129540607Y-81312248D01*
X129521845Y-81285197D01*
X129512738Y-81272210D01*
X129496313Y-81260727D01*
X129462261Y-81249648D01*
X129409486Y-81238905D01*
X129385425Y-81234676D01*
X129158721Y-81184505D01*
X128931596Y-81116073D01*
X128707391Y-81030640D01*
X128489444Y-80929464D01*
X128281095Y-80813801D01*
X128220047Y-80775943D01*
X128010761Y-80631259D01*
X127814179Y-80471601D01*
X127631008Y-80297935D01*
X127461955Y-80111224D01*
X127307727Y-79912433D01*
X127169032Y-79702526D01*
X127046577Y-79482470D01*
X126941067Y-79253227D01*
X126853211Y-79015762D01*
X126783716Y-78771041D01*
X126751936Y-78628404D01*
X126727539Y-78490942D01*
X126710336Y-78354830D01*
X126699807Y-78214876D01*
X126695432Y-78065888D01*
X126696691Y-77902675D01*
X126697033Y-77888146D01*
X126701093Y-77770207D01*
X126707490Y-77665962D01*
X126716879Y-77569735D01*
X126729917Y-77475850D01*
X126747261Y-77378631D01*
X126769567Y-77272403D01*
X126796721Y-77150101D01*
X126774593Y-77121970D01*
X126767728Y-77113702D01*
X126746800Y-77089666D01*
X126715597Y-77054518D01*
X126676179Y-77010528D01*
X126630606Y-76959966D01*
X126580938Y-76905101D01*
X126529235Y-76848203D01*
X126477556Y-76791541D01*
X126427963Y-76737385D01*
X126382514Y-76688004D01*
X126343271Y-76645668D01*
X126312292Y-76612646D01*
X126274991Y-76574764D01*
X126224933Y-76526865D01*
X126170452Y-76477107D01*
X126115251Y-76428724D01*
X126063028Y-76384953D01*
X126017485Y-76349027D01*
X125982321Y-76324182D01*
X125980343Y-76322938D01*
X125935935Y-76301695D01*
X125891176Y-76295057D01*
X125874427Y-76294836D01*
X125856811Y-76293267D01*
X125854816Y-76288683D01*
X125865533Y-76279296D01*
X125869441Y-76276601D01*
X125901910Y-76268137D01*
X125947216Y-76274626D01*
X126005011Y-76295945D01*
X126074948Y-76331970D01*
X126156679Y-76382577D01*
X126161249Y-76385609D01*
X126222913Y-76428437D01*
X126289500Y-76478275D01*
X126362504Y-76536370D01*
X126443421Y-76603970D01*
X126533747Y-76682322D01*
X126634978Y-76772673D01*
X126748609Y-76876271D01*
X126755050Y-76882192D01*
X126793365Y-76917111D01*
X126819935Y-76940177D01*
X126837343Y-76953001D01*
X126848169Y-76957199D01*
X126854993Y-76954384D01*
X126860396Y-76946170D01*
X126866160Y-76936376D01*
X126872776Y-76932914D01*
X126881178Y-76942914D01*
X126894879Y-76968666D01*
X126901691Y-76981840D01*
X126918959Y-77013895D01*
X126932996Y-77038301D01*
X126933549Y-77039214D01*
X126935652Y-77046645D01*
X126924806Y-77039726D01*
X126901636Y-77018848D01*
X126878275Y-76997674D01*
X126859437Y-76982755D01*
X126850671Y-76978690D01*
X126849206Y-76981231D01*
X126842608Y-76998911D01*
X126833365Y-77027871D01*
X126823190Y-77062213D01*
X126813799Y-77096033D01*
X126806907Y-77123432D01*
X126804229Y-77138508D01*
X126805808Y-77142651D01*
X126817674Y-77160870D01*
X126839261Y-77189815D01*
X126868300Y-77226501D01*
X126902523Y-77267940D01*
X126909472Y-77276201D01*
X126951504Y-77326473D01*
X126994619Y-77378481D01*
X127034124Y-77426543D01*
X127065326Y-77464981D01*
X127078291Y-77481046D01*
X127109438Y-77519355D01*
X127149073Y-77567860D01*
X127194454Y-77623214D01*
X127242836Y-77682066D01*
X127291477Y-77741068D01*
X127326720Y-77783981D01*
X127376143Y-77845488D01*
X127416979Y-77898706D01*
X127452185Y-77947826D01*
X127484721Y-77997042D01*
X127517546Y-78050546D01*
X127553617Y-78112530D01*
X127613731Y-78216732D01*
X127743096Y-78434452D01*
X127870918Y-78640061D01*
X128000315Y-78838387D01*
X128134403Y-79034263D01*
X128276299Y-79232519D01*
X128342562Y-79324778D01*
X128400552Y-79409318D01*
X128452314Y-79489585D01*
X128501378Y-79571052D01*
X128551271Y-79659199D01*
X128555337Y-79666546D01*
X128595975Y-79738161D01*
X128640798Y-79814417D01*
X128686418Y-79889712D01*
X128729447Y-79958446D01*
X128766498Y-80015020D01*
X128791262Y-80052618D01*
X128830212Y-80114374D01*
X128873979Y-80186062D01*
X128919914Y-80263270D01*
X128965366Y-80341587D01*
X129007687Y-80416601D01*
X129034357Y-80464401D01*
X129083514Y-80551208D01*
X129134660Y-80640069D01*
X129186710Y-80729210D01*
X129238584Y-80816857D01*
X129289198Y-80901236D01*
X129337469Y-80980575D01*
X129382315Y-81053098D01*
X129422653Y-81117034D01*
X129457400Y-81170607D01*
X129485475Y-81212044D01*
X129505793Y-81239573D01*
X129517273Y-81251418D01*
X129535226Y-81257951D01*
X129576661Y-81266359D01*
X129633521Y-81273310D01*
X129703066Y-81278782D01*
X129782554Y-81282757D01*
X129869244Y-81285214D01*
X129960396Y-81286133D01*
X130053267Y-81285494D01*
X130145118Y-81283277D01*
X130233206Y-81279462D01*
X130314792Y-81274029D01*
X130387134Y-81266957D01*
X130447491Y-81258227D01*
X130447849Y-81258163D01*
X130502206Y-81258163D01*
X130505142Y-81263107D01*
X130520852Y-81278167D01*
X130547157Y-81300481D01*
X130580967Y-81327337D01*
X130607893Y-81348046D01*
X130660989Y-81388106D01*
X130699069Y-81415534D01*
X130722009Y-81430243D01*
X130729683Y-81432145D01*
X130729533Y-81431647D01*
X130720178Y-81422068D01*
X130698768Y-81403885D01*
X130668764Y-81379746D01*
X130633630Y-81352300D01*
X130596829Y-81324196D01*
X130561823Y-81298082D01*
X130532076Y-81276606D01*
X130511049Y-81262416D01*
X130502206Y-81258163D01*
X130447849Y-81258163D01*
X130481543Y-81252133D01*
X130323083Y-81102677D01*
X130401384Y-81165490D01*
X130423335Y-81183264D01*
X130453508Y-81208312D01*
X130475211Y-81227119D01*
X130484803Y-81236583D01*
X130487227Y-81239219D01*
X130503594Y-81243973D01*
X130534416Y-81243207D01*
X130581275Y-81236804D01*
X130645752Y-81224646D01*
X130660993Y-81221415D01*
X130700444Y-81212446D01*
X130747768Y-81201137D01*
X130799049Y-81188484D01*
X130850373Y-81175487D01*
X130897823Y-81163143D01*
X130937486Y-81152450D01*
X130965444Y-81144406D01*
X130977784Y-81140010D01*
X130977116Y-81139191D01*
X130992707Y-81139191D01*
X130993855Y-81141794D01*
X131006556Y-81155558D01*
X131031116Y-81179151D01*
X131065237Y-81210537D01*
X131106621Y-81247681D01*
X131152967Y-81288547D01*
X131201978Y-81331099D01*
X131251355Y-81373302D01*
X131298799Y-81413119D01*
X131322026Y-81432145D01*
X131332388Y-81440633D01*
X131342011Y-81448516D01*
X131356852Y-81460393D01*
X131410065Y-81501858D01*
X131464844Y-81543100D01*
X131515526Y-81579906D01*
X131556449Y-81608063D01*
X131584331Y-81625636D01*
X131621425Y-81646741D01*
X131651407Y-81661174D01*
X131669603Y-81666522D01*
X131674953Y-81666074D01*
X131686290Y-81661604D01*
X131699092Y-81650788D01*
X131714687Y-81631731D01*
X131734403Y-81602534D01*
X131759567Y-81561301D01*
X131791507Y-81506135D01*
X131831550Y-81435140D01*
X131836001Y-81427181D01*
X131877203Y-81352459D01*
X131913904Y-81283454D01*
X131947743Y-81216659D01*
X131980357Y-81148567D01*
X132013384Y-81075671D01*
X132048460Y-80994463D01*
X132087224Y-80901436D01*
X132131312Y-80793083D01*
X132152341Y-80741301D01*
X132180121Y-80673941D01*
X132204804Y-80615311D01*
X132225526Y-80567399D01*
X132241424Y-80532189D01*
X132251634Y-80511668D01*
X132255295Y-80507821D01*
X132254882Y-80513544D01*
X132250331Y-80539370D01*
X132241415Y-80580002D01*
X132228945Y-80632286D01*
X132213734Y-80693066D01*
X132196594Y-80759185D01*
X132178338Y-80827489D01*
X132159778Y-80894822D01*
X132141726Y-80958029D01*
X132124995Y-81013953D01*
X132115320Y-81044465D01*
X132088994Y-81122268D01*
X132057641Y-81209672D01*
X132023441Y-81300917D01*
X131988578Y-81390243D01*
X131955235Y-81471892D01*
X131925595Y-81540103D01*
X131922540Y-81546890D01*
X131908792Y-81579359D01*
X131900111Y-81603188D01*
X131898263Y-81613626D01*
X131898507Y-81613821D01*
X131910945Y-81612054D01*
X131936397Y-81602183D01*
X131970856Y-81586235D01*
X132010310Y-81566237D01*
X132050751Y-81544218D01*
X132088169Y-81522204D01*
X132118554Y-81502224D01*
X132126906Y-81496117D01*
X132187187Y-81445937D01*
X132249419Y-81385028D01*
X132307517Y-81319710D01*
X132355391Y-81256304D01*
X132374223Y-81226572D01*
X132407955Y-81166649D01*
X132443624Y-81096616D01*
X132478570Y-81022006D01*
X132510137Y-80948352D01*
X132535665Y-80881183D01*
X132566173Y-80793591D01*
X132546628Y-80673791D01*
X132540196Y-80635785D01*
X132527695Y-80566433D01*
X132514042Y-80494810D01*
X132501223Y-80431514D01*
X132500283Y-80427042D01*
X132490949Y-80380672D01*
X132483951Y-80342247D01*
X132479952Y-80315656D01*
X132479614Y-80304786D01*
X132481481Y-80304805D01*
X132489930Y-80317443D01*
X132503059Y-80346646D01*
X132520105Y-80390489D01*
X132540303Y-80447050D01*
X132562890Y-80514405D01*
X132564724Y-80519990D01*
X132579636Y-80562660D01*
X132592743Y-80595633D01*
X132602685Y-80615742D01*
X132608106Y-80619820D01*
X132611971Y-80608086D01*
X132618659Y-80578616D01*
X132626809Y-80536349D01*
X132635763Y-80485228D01*
X132644862Y-80429193D01*
X132653446Y-80372187D01*
X132660856Y-80318152D01*
X132666433Y-80271028D01*
X132669198Y-80242755D01*
X132673552Y-80190784D01*
X132677577Y-80134434D01*
X132681100Y-80077191D01*
X132683944Y-80022540D01*
X132685935Y-79973967D01*
X132686900Y-79934956D01*
X132686662Y-79908994D01*
X132685048Y-79899566D01*
X132681564Y-79902361D01*
X132667950Y-79917929D01*
X132647041Y-79944100D01*
X132621690Y-79977372D01*
X132530021Y-80094090D01*
X132365175Y-80278509D01*
X132185442Y-80450735D01*
X131992178Y-80609764D01*
X131786738Y-80754596D01*
X131570478Y-80884228D01*
X131344754Y-80997659D01*
X131110921Y-81093885D01*
X131108663Y-81094716D01*
X131064470Y-81111119D01*
X131027918Y-81124955D01*
X131002749Y-81134791D01*
X130992707Y-81139191D01*
X130977116Y-81139191D01*
X130973689Y-81134992D01*
X130957379Y-81117390D01*
X130930376Y-81088984D01*
X130894532Y-81051708D01*
X130851697Y-81007495D01*
X130803723Y-80958276D01*
X130789539Y-80943743D01*
X130702854Y-80854074D01*
X130610131Y-80756865D01*
X130513380Y-80654303D01*
X130414610Y-80548576D01*
X130315830Y-80441873D01*
X130219048Y-80336383D01*
X130126275Y-80234292D01*
X130039518Y-80137789D01*
X129960788Y-80049063D01*
X129892094Y-79970302D01*
X129835443Y-79903693D01*
X129814614Y-79880031D01*
X129778829Y-79841572D01*
X129732077Y-79792777D01*
X129676234Y-79735553D01*
X129613174Y-79671806D01*
X129544772Y-79603443D01*
X129472905Y-79532369D01*
X129399446Y-79460491D01*
X129358720Y-79420913D01*
X129271513Y-79336440D01*
X129196490Y-79263842D01*
X129132326Y-79201396D01*
X129077695Y-79147378D01*
X129031270Y-79100065D01*
X128991726Y-79057733D01*
X128957737Y-79018659D01*
X128927978Y-78981118D01*
X128901121Y-78943388D01*
X128875842Y-78903744D01*
X128850815Y-78860462D01*
X128824713Y-78811820D01*
X128796210Y-78756093D01*
X128763982Y-78691559D01*
X128726701Y-78616492D01*
X128683042Y-78529170D01*
X128650830Y-78465030D01*
X128594239Y-78351899D01*
X128535727Y-78234344D01*
X128474684Y-78111120D01*
X128410500Y-77980980D01*
X128342566Y-77842678D01*
X128270273Y-77694968D01*
X128193010Y-77536603D01*
X128110169Y-77366337D01*
X128021140Y-77182925D01*
X127925313Y-76985119D01*
X127822079Y-76771675D01*
X127710828Y-76541344D01*
X127691505Y-76501332D01*
X127643083Y-76401233D01*
X127597401Y-76307029D01*
X127555204Y-76220243D01*
X127517239Y-76142401D01*
X127484251Y-76075028D01*
X127456987Y-76019649D01*
X127436192Y-75977788D01*
X127422612Y-75950970D01*
X127416994Y-75940721D01*
X127412943Y-75941255D01*
X127398702Y-75953500D01*
X127377678Y-75977301D01*
X127352780Y-76009539D01*
X127296468Y-76086648D01*
X127285631Y-76057988D01*
X127279780Y-76042545D01*
X127250377Y-75965572D01*
X127216109Y-75876706D01*
X127178314Y-75779352D01*
X127138330Y-75676915D01*
X127097494Y-75572801D01*
X127057145Y-75470415D01*
X127018621Y-75373161D01*
X126983260Y-75284444D01*
X126952400Y-75207670D01*
X126927378Y-75146244D01*
X126897957Y-75075105D01*
X126864909Y-74996489D01*
X126837132Y-74932406D01*
X126813497Y-74880477D01*
X126792875Y-74838325D01*
X126774139Y-74803573D01*
X126756160Y-74773842D01*
X126737810Y-74746756D01*
X126728000Y-74732867D01*
X126710903Y-74707126D01*
X126705646Y-74695025D01*
X126711898Y-74694953D01*
X126729332Y-74705296D01*
X126739414Y-74713578D01*
X126765031Y-74742872D01*
X126798209Y-74788795D01*
X126838346Y-74850308D01*
X126884843Y-74926372D01*
X126937099Y-75015948D01*
X126994513Y-75117997D01*
X127056486Y-75231480D01*
X127122417Y-75355358D01*
X127191706Y-75488593D01*
X127263752Y-75630146D01*
X127286989Y-75676147D01*
X127321003Y-75743006D01*
X127351516Y-75802406D01*
X127377430Y-75852244D01*
X127397652Y-75890423D01*
X127411087Y-75914841D01*
X127416640Y-75923399D01*
X127424245Y-75916627D01*
X127440578Y-75897891D01*
X127461818Y-75871431D01*
X127482032Y-75846936D01*
X127521011Y-75803500D01*
X127569821Y-75751951D01*
X127625416Y-75695294D01*
X127684749Y-75636536D01*
X127744774Y-75578680D01*
X127802445Y-75524734D01*
X127854715Y-75477702D01*
X127898537Y-75440589D01*
X128012778Y-75351976D01*
X128227492Y-75204107D01*
X128449218Y-75075037D01*
X128678170Y-74964676D01*
X128914561Y-74872937D01*
X129158606Y-74799731D01*
X129410519Y-74744969D01*
X129670513Y-74708564D01*
X129711372Y-74705030D01*
X129793981Y-74700584D01*
X129888303Y-74698107D01*
X129989126Y-74697557D01*
X130091239Y-74698896D01*
X130189430Y-74702082D01*
X130278488Y-74707075D01*
X130353201Y-74713835D01*
X130535398Y-74739910D01*
X130788200Y-74793014D01*
X131034425Y-74864810D01*
X131273311Y-74954966D01*
X131504097Y-75063151D01*
X131726021Y-75189032D01*
X131938321Y-75332277D01*
X132140237Y-75492556D01*
X132168460Y-75517376D01*
X132233085Y-75577463D01*
X132303452Y-75646432D01*
X132375338Y-75719922D01*
X132444521Y-75793573D01*
X132506779Y-75863023D01*
X132557889Y-75923913D01*
X132615118Y-75997427D01*
X132763190Y-76209234D01*
X132893103Y-76429568D01*
X133004874Y-76658476D01*
X133098524Y-76896003D01*
X133174070Y-77142193D01*
X133231531Y-77397095D01*
X133270926Y-77660751D01*
X133274493Y-77700274D01*
X133278282Y-77768019D01*
X133280861Y-77847838D01*
X133282230Y-77935142D01*
X133282389Y-78025343D01*
X133281338Y-78113853D01*
X133279077Y-78196085D01*
X133275606Y-78267450D01*
X133270926Y-78323360D01*
X133246705Y-78500124D01*
X133195617Y-78757064D01*
X133126726Y-79004785D01*
X133039994Y-79243400D01*
X132935386Y-79473020D01*
X132812863Y-79693755D01*
X132745737Y-79804190D01*
X132744690Y-79934956D01*
X132743125Y-80130475D01*
G36*
X132743125Y-80130475D02*
G01*
X132741958Y-80231588D01*
X132739574Y-80338301D01*
X132735863Y-80431177D01*
X132730545Y-80513627D01*
X132723340Y-80589058D01*
X132713968Y-80660880D01*
X132702151Y-80732500D01*
X132687608Y-80807326D01*
X132687162Y-80809507D01*
X132677979Y-80865250D01*
X132673386Y-80916920D01*
X132673391Y-80960652D01*
X132678001Y-80992577D01*
X132687222Y-81008829D01*
X132688244Y-81008795D01*
X132695167Y-80997459D01*
X132705815Y-80970360D01*
X132719258Y-80930483D01*
X132734569Y-80880813D01*
X132750817Y-80824333D01*
X132767075Y-80764030D01*
X132782415Y-80702886D01*
X132790719Y-80666365D01*
X132807871Y-80579399D01*
X132824819Y-80479534D01*
X132840970Y-80371411D01*
X132855730Y-80259675D01*
X132868506Y-80148968D01*
X132878703Y-80043932D01*
X132885728Y-79949211D01*
X132888987Y-79869447D01*
X132889598Y-79844069D01*
X132891077Y-79828391D01*
X132894152Y-79829161D01*
X132899686Y-79844348D01*
X132901115Y-79849949D01*
X132904887Y-79879367D01*
X132907724Y-79924806D01*
X132909648Y-79983219D01*
X132910680Y-80051562D01*
X132910842Y-80126788D01*
X132910155Y-80205852D01*
X132908640Y-80285708D01*
X132906319Y-80363310D01*
X132903212Y-80435612D01*
X132899342Y-80499569D01*
X132894729Y-80552135D01*
X132873582Y-80720562D01*
X132846481Y-80887038D01*
X132814832Y-81040671D01*
X132784174Y-81159526D01*
X132779118Y-81179128D01*
X132739821Y-81300079D01*
X132738340Y-81304170D01*
X132723153Y-81352945D01*
X132710747Y-81404136D01*
X132703683Y-81447307D01*
X132702866Y-81455236D01*
X132682651Y-81574284D01*
X132649072Y-81681614D01*
X132602803Y-81776088D01*
X132544513Y-81856567D01*
X132475007Y-81921792D01*
X132474877Y-81921914D01*
X132394565Y-81970989D01*
X132388726Y-81973733D01*
X132348692Y-81991201D01*
X132311951Y-82005229D01*
X132285810Y-82012995D01*
X132265990Y-82019252D01*
X132232009Y-82034886D01*
X132197437Y-82055001D01*
X132167547Y-82073782D01*
X132052856Y-82133258D01*
X131926263Y-82181825D01*
X131824863Y-82209346D01*
X131792396Y-82218158D01*
X131655879Y-82240929D01*
X131521338Y-82248815D01*
X131502195Y-82249231D01*
X131475262Y-82253522D01*
X131451573Y-82265286D01*
X131422470Y-82287949D01*
X131384766Y-82318223D01*
X131275845Y-82389740D01*
X131161821Y-82441910D01*
X131042848Y-82474657D01*
X130978677Y-82482792D01*
X130891579Y-82484709D01*
X130802488Y-82478208D01*
X130720157Y-82463591D01*
X130668685Y-82447856D01*
X130602819Y-82421965D01*
X130533022Y-82389842D01*
X130465682Y-82354445D01*
X130407188Y-82318730D01*
X130340818Y-82271404D01*
X130252875Y-82199947D01*
X130164053Y-82117474D01*
X130073221Y-82022726D01*
X129992638Y-81929874D01*
X130456144Y-81929874D01*
X130458264Y-81934852D01*
X130472422Y-81951051D01*
X130496809Y-81976486D01*
X130529620Y-82009172D01*
X130551854Y-82030593D01*
X130614569Y-82086231D01*
X130673586Y-82129932D01*
X130734318Y-82165416D01*
X130802181Y-82196401D01*
X130843665Y-82210911D01*
X130891989Y-82220639D01*
X130950553Y-82224867D01*
X130963323Y-82225200D01*
X131003990Y-82225403D01*
X131036926Y-82224330D01*
X131055968Y-82222139D01*
X131069017Y-82218064D01*
X131082916Y-82209346D01*
X131076898Y-82201379D01*
X131051073Y-82194782D01*
X131023864Y-82189245D01*
X130972165Y-82175389D01*
X130911549Y-82156408D01*
X130847598Y-82134180D01*
X130785893Y-82110581D01*
X130732016Y-82087489D01*
X130728363Y-82085793D01*
X130652045Y-82047015D01*
X130562384Y-81995621D01*
X130458616Y-81931173D01*
X130456144Y-81929874D01*
X129992638Y-81929874D01*
X129979249Y-81914447D01*
X129936776Y-81861241D01*
X131033594Y-81861241D01*
X131040141Y-81866161D01*
X131062515Y-81874909D01*
X131097081Y-81886410D01*
X131140207Y-81899590D01*
X131188259Y-81913374D01*
X131237602Y-81926687D01*
X131284604Y-81938455D01*
X131325630Y-81947603D01*
X131330562Y-81948604D01*
X131381557Y-81958688D01*
X131417100Y-81964512D01*
X131441073Y-81965960D01*
X131457360Y-81962914D01*
X131469842Y-81955256D01*
X131482402Y-81942871D01*
X131484616Y-81940513D01*
X131494001Y-81929751D01*
X131497331Y-81921792D01*
X131492281Y-81915895D01*
X131476523Y-81911320D01*
X131447733Y-81907329D01*
X131403583Y-81903179D01*
X131341747Y-81898133D01*
X131283583Y-81892848D01*
X131221827Y-81886162D01*
X131165364Y-81879056D01*
X131121565Y-81872392D01*
X131106243Y-81869770D01*
X131070269Y-81864240D01*
X131044460Y-81861192D01*
X131033602Y-81861234D01*
X131033594Y-81861241D01*
X129936776Y-81861241D01*
X129886580Y-81798362D01*
X132023468Y-81798362D01*
X132025619Y-81801065D01*
X132035987Y-81803824D01*
X132061067Y-81807561D01*
X132095059Y-81811318D01*
X132160316Y-81817540D01*
X132220553Y-81768741D01*
X132262675Y-81732786D01*
X132363391Y-81630106D01*
X132456145Y-81510070D01*
X132541574Y-81371889D01*
X132554158Y-81348429D01*
X132570683Y-81310917D01*
X132579719Y-81275065D01*
X132584156Y-81231336D01*
X132588536Y-81159526D01*
X132538634Y-81257142D01*
X132473172Y-81373886D01*
X132392237Y-81490746D01*
X132303309Y-81591508D01*
X132204784Y-81677962D01*
X132095059Y-81751897D01*
X132087097Y-81756588D01*
X132054042Y-81776146D01*
X132034524Y-81788137D01*
X132025384Y-81794798D01*
X132023468Y-81798362D01*
X129886580Y-81798362D01*
X129881006Y-81791379D01*
X129777362Y-81652266D01*
X129667187Y-81495850D01*
X129637656Y-81452934D01*
X129629182Y-81440633D01*
X130739723Y-81440633D01*
X130744743Y-81445653D01*
X130749762Y-81440633D01*
X130744743Y-81435613D01*
X130739723Y-81440633D01*
X129629182Y-81440633D01*
X129600229Y-81398602D01*
X129567307Y-81350878D01*
X129540607Y-81312248D01*
X129521845Y-81285197D01*
X129512738Y-81272210D01*
X129496313Y-81260727D01*
X129462261Y-81249648D01*
X129409486Y-81238905D01*
X129385425Y-81234676D01*
X129158721Y-81184505D01*
X128931596Y-81116073D01*
X128707391Y-81030640D01*
X128489444Y-80929464D01*
X128281095Y-80813801D01*
X128220047Y-80775943D01*
X128010761Y-80631259D01*
X127814179Y-80471601D01*
X127631008Y-80297935D01*
X127461955Y-80111224D01*
X127307727Y-79912433D01*
X127169032Y-79702526D01*
X127046577Y-79482470D01*
X126941067Y-79253227D01*
X126853211Y-79015762D01*
X126783716Y-78771041D01*
X126751936Y-78628404D01*
X126727539Y-78490942D01*
X126710336Y-78354830D01*
X126699807Y-78214876D01*
X126695432Y-78065888D01*
X126696691Y-77902675D01*
X126697033Y-77888146D01*
X126701093Y-77770207D01*
X126707490Y-77665962D01*
X126716879Y-77569735D01*
X126729917Y-77475850D01*
X126747261Y-77378631D01*
X126769567Y-77272403D01*
X126796721Y-77150101D01*
X126774593Y-77121970D01*
X126767728Y-77113702D01*
X126746800Y-77089666D01*
X126715597Y-77054518D01*
X126676179Y-77010528D01*
X126630606Y-76959966D01*
X126580938Y-76905101D01*
X126529235Y-76848203D01*
X126477556Y-76791541D01*
X126427963Y-76737385D01*
X126382514Y-76688004D01*
X126343271Y-76645668D01*
X126312292Y-76612646D01*
X126274991Y-76574764D01*
X126224933Y-76526865D01*
X126170452Y-76477107D01*
X126115251Y-76428724D01*
X126063028Y-76384953D01*
X126017485Y-76349027D01*
X125982321Y-76324182D01*
X125980343Y-76322938D01*
X125935935Y-76301695D01*
X125891176Y-76295057D01*
X125874427Y-76294836D01*
X125856811Y-76293267D01*
X125854816Y-76288683D01*
X125865533Y-76279296D01*
X125869441Y-76276601D01*
X125901910Y-76268137D01*
X125947216Y-76274626D01*
X126005011Y-76295945D01*
X126074948Y-76331970D01*
X126156679Y-76382577D01*
X126161249Y-76385609D01*
X126222913Y-76428437D01*
X126289500Y-76478275D01*
X126362504Y-76536370D01*
X126443421Y-76603970D01*
X126533747Y-76682322D01*
X126634978Y-76772673D01*
X126748609Y-76876271D01*
X126755050Y-76882192D01*
X126793365Y-76917111D01*
X126819935Y-76940177D01*
X126837343Y-76953001D01*
X126848169Y-76957199D01*
X126854993Y-76954384D01*
X126860396Y-76946170D01*
X126866160Y-76936376D01*
X126872776Y-76932914D01*
X126881178Y-76942914D01*
X126894879Y-76968666D01*
X126901691Y-76981840D01*
X126918959Y-77013895D01*
X126932996Y-77038301D01*
X126933549Y-77039214D01*
X126935652Y-77046645D01*
X126924806Y-77039726D01*
X126901636Y-77018848D01*
X126878275Y-76997674D01*
X126859437Y-76982755D01*
X126850671Y-76978690D01*
X126849206Y-76981231D01*
X126842608Y-76998911D01*
X126833365Y-77027871D01*
X126823190Y-77062213D01*
X126813799Y-77096033D01*
X126806907Y-77123432D01*
X126804229Y-77138508D01*
X126805808Y-77142651D01*
X126817674Y-77160870D01*
X126839261Y-77189815D01*
X126868300Y-77226501D01*
X126902523Y-77267940D01*
X126909472Y-77276201D01*
X126951504Y-77326473D01*
X126994619Y-77378481D01*
X127034124Y-77426543D01*
X127065326Y-77464981D01*
X127078291Y-77481046D01*
X127109438Y-77519355D01*
X127149073Y-77567860D01*
X127194454Y-77623214D01*
X127242836Y-77682066D01*
X127291477Y-77741068D01*
X127326720Y-77783981D01*
X127376143Y-77845488D01*
X127416979Y-77898706D01*
X127452185Y-77947826D01*
X127484721Y-77997042D01*
X127517546Y-78050546D01*
X127553617Y-78112530D01*
X127613731Y-78216732D01*
X127743096Y-78434452D01*
X127870918Y-78640061D01*
X128000315Y-78838387D01*
X128134403Y-79034263D01*
X128276299Y-79232519D01*
X128342562Y-79324778D01*
X128400552Y-79409318D01*
X128452314Y-79489585D01*
X128501378Y-79571052D01*
X128551271Y-79659199D01*
X128555337Y-79666546D01*
X128595975Y-79738161D01*
X128640798Y-79814417D01*
X128686418Y-79889712D01*
X128729447Y-79958446D01*
X128766498Y-80015020D01*
X128791262Y-80052618D01*
X128830212Y-80114374D01*
X128873979Y-80186062D01*
X128919914Y-80263270D01*
X128965366Y-80341587D01*
X129007687Y-80416601D01*
X129034357Y-80464401D01*
X129083514Y-80551208D01*
X129134660Y-80640069D01*
X129186710Y-80729210D01*
X129238584Y-80816857D01*
X129289198Y-80901236D01*
X129337469Y-80980575D01*
X129382315Y-81053098D01*
X129422653Y-81117034D01*
X129457400Y-81170607D01*
X129485475Y-81212044D01*
X129505793Y-81239573D01*
X129517273Y-81251418D01*
X129535226Y-81257951D01*
X129576661Y-81266359D01*
X129633521Y-81273310D01*
X129703066Y-81278782D01*
X129782554Y-81282757D01*
X129869244Y-81285214D01*
X129960396Y-81286133D01*
X130053267Y-81285494D01*
X130145118Y-81283277D01*
X130233206Y-81279462D01*
X130314792Y-81274029D01*
X130387134Y-81266957D01*
X130447491Y-81258227D01*
X130447849Y-81258163D01*
X130502206Y-81258163D01*
X130505142Y-81263107D01*
X130520852Y-81278167D01*
X130547157Y-81300481D01*
X130580967Y-81327337D01*
X130607893Y-81348046D01*
X130660989Y-81388106D01*
X130699069Y-81415534D01*
X130722009Y-81430243D01*
X130729683Y-81432145D01*
X130729533Y-81431647D01*
X130720178Y-81422068D01*
X130698768Y-81403885D01*
X130668764Y-81379746D01*
X130633630Y-81352300D01*
X130596829Y-81324196D01*
X130561823Y-81298082D01*
X130532076Y-81276606D01*
X130511049Y-81262416D01*
X130502206Y-81258163D01*
X130447849Y-81258163D01*
X130481543Y-81252133D01*
X130323083Y-81102677D01*
X130401384Y-81165490D01*
X130423335Y-81183264D01*
X130453508Y-81208312D01*
X130475211Y-81227119D01*
X130484803Y-81236583D01*
X130487227Y-81239219D01*
X130503594Y-81243973D01*
X130534416Y-81243207D01*
X130581275Y-81236804D01*
X130645752Y-81224646D01*
X130660993Y-81221415D01*
X130700444Y-81212446D01*
X130747768Y-81201137D01*
X130799049Y-81188484D01*
X130850373Y-81175487D01*
X130897823Y-81163143D01*
X130937486Y-81152450D01*
X130965444Y-81144406D01*
X130977784Y-81140010D01*
X130977116Y-81139191D01*
X130992707Y-81139191D01*
X130993855Y-81141794D01*
X131006556Y-81155558D01*
X131031116Y-81179151D01*
X131065237Y-81210537D01*
X131106621Y-81247681D01*
X131152967Y-81288547D01*
X131201978Y-81331099D01*
X131251355Y-81373302D01*
X131298799Y-81413119D01*
X131322026Y-81432145D01*
X131332388Y-81440633D01*
X131342011Y-81448516D01*
X131356852Y-81460393D01*
X131410065Y-81501858D01*
X131464844Y-81543100D01*
X131515526Y-81579906D01*
X131556449Y-81608063D01*
X131584331Y-81625636D01*
X131621425Y-81646741D01*
X131651407Y-81661174D01*
X131669603Y-81666522D01*
X131674953Y-81666074D01*
X131686290Y-81661604D01*
X131699092Y-81650788D01*
X131714687Y-81631731D01*
X131734403Y-81602534D01*
X131759567Y-81561301D01*
X131791507Y-81506135D01*
X131831550Y-81435140D01*
X131836001Y-81427181D01*
X131877203Y-81352459D01*
X131913904Y-81283454D01*
X131947743Y-81216659D01*
X131980357Y-81148567D01*
X132013384Y-81075671D01*
X132048460Y-80994463D01*
X132087224Y-80901436D01*
X132131312Y-80793083D01*
X132152341Y-80741301D01*
X132180121Y-80673941D01*
X132204804Y-80615311D01*
X132225526Y-80567399D01*
X132241424Y-80532189D01*
X132251634Y-80511668D01*
X132255295Y-80507821D01*
X132254882Y-80513544D01*
X132250331Y-80539370D01*
X132241415Y-80580002D01*
X132228945Y-80632286D01*
X132213734Y-80693066D01*
X132196594Y-80759185D01*
X132178338Y-80827489D01*
X132159778Y-80894822D01*
X132141726Y-80958029D01*
X132124995Y-81013953D01*
X132115320Y-81044465D01*
X132088994Y-81122268D01*
X132057641Y-81209672D01*
X132023441Y-81300917D01*
X131988578Y-81390243D01*
X131955235Y-81471892D01*
X131925595Y-81540103D01*
X131922540Y-81546890D01*
X131908792Y-81579359D01*
X131900111Y-81603188D01*
X131898263Y-81613626D01*
X131898507Y-81613821D01*
X131910945Y-81612054D01*
X131936397Y-81602183D01*
X131970856Y-81586235D01*
X132010310Y-81566237D01*
X132050751Y-81544218D01*
X132088169Y-81522204D01*
X132118554Y-81502224D01*
X132126906Y-81496117D01*
X132187187Y-81445937D01*
X132249419Y-81385028D01*
X132307517Y-81319710D01*
X132355391Y-81256304D01*
X132374223Y-81226572D01*
X132407955Y-81166649D01*
X132443624Y-81096616D01*
X132478570Y-81022006D01*
X132510137Y-80948352D01*
X132535665Y-80881183D01*
X132566173Y-80793591D01*
X132546628Y-80673791D01*
X132540196Y-80635785D01*
X132527695Y-80566433D01*
X132514042Y-80494810D01*
X132501223Y-80431514D01*
X132500283Y-80427042D01*
X132490949Y-80380672D01*
X132483951Y-80342247D01*
X132479952Y-80315656D01*
X132479614Y-80304786D01*
X132481481Y-80304805D01*
X132489930Y-80317443D01*
X132503059Y-80346646D01*
X132520105Y-80390489D01*
X132540303Y-80447050D01*
X132562890Y-80514405D01*
X132564724Y-80519990D01*
X132579636Y-80562660D01*
X132592743Y-80595633D01*
X132602685Y-80615742D01*
X132608106Y-80619820D01*
X132611971Y-80608086D01*
X132618659Y-80578616D01*
X132626809Y-80536349D01*
X132635763Y-80485228D01*
X132644862Y-80429193D01*
X132653446Y-80372187D01*
X132660856Y-80318152D01*
X132666433Y-80271028D01*
X132669198Y-80242755D01*
X132673552Y-80190784D01*
X132677577Y-80134434D01*
X132681100Y-80077191D01*
X132683944Y-80022540D01*
X132685935Y-79973967D01*
X132686900Y-79934956D01*
X132686662Y-79908994D01*
X132685048Y-79899566D01*
X132681564Y-79902361D01*
X132667950Y-79917929D01*
X132647041Y-79944100D01*
X132621690Y-79977372D01*
X132530021Y-80094090D01*
X132365175Y-80278509D01*
X132185442Y-80450735D01*
X131992178Y-80609764D01*
X131786738Y-80754596D01*
X131570478Y-80884228D01*
X131344754Y-80997659D01*
X131110921Y-81093885D01*
X131108663Y-81094716D01*
X131064470Y-81111119D01*
X131027918Y-81124955D01*
X131002749Y-81134791D01*
X130992707Y-81139191D01*
X130977116Y-81139191D01*
X130973689Y-81134992D01*
X130957379Y-81117390D01*
X130930376Y-81088984D01*
X130894532Y-81051708D01*
X130851697Y-81007495D01*
X130803723Y-80958276D01*
X130789539Y-80943743D01*
X130702854Y-80854074D01*
X130610131Y-80756865D01*
X130513380Y-80654303D01*
X130414610Y-80548576D01*
X130315830Y-80441873D01*
X130219048Y-80336383D01*
X130126275Y-80234292D01*
X130039518Y-80137789D01*
X129960788Y-80049063D01*
X129892094Y-79970302D01*
X129835443Y-79903693D01*
X129814614Y-79880031D01*
X129778829Y-79841572D01*
X129732077Y-79792777D01*
X129676234Y-79735553D01*
X129613174Y-79671806D01*
X129544772Y-79603443D01*
X129472905Y-79532369D01*
X129399446Y-79460491D01*
X129358720Y-79420913D01*
X129271513Y-79336440D01*
X129196490Y-79263842D01*
X129132326Y-79201396D01*
X129077695Y-79147378D01*
X129031270Y-79100065D01*
X128991726Y-79057733D01*
X128957737Y-79018659D01*
X128927978Y-78981118D01*
X128901121Y-78943388D01*
X128875842Y-78903744D01*
X128850815Y-78860462D01*
X128824713Y-78811820D01*
X128796210Y-78756093D01*
X128763982Y-78691559D01*
X128726701Y-78616492D01*
X128683042Y-78529170D01*
X128650830Y-78465030D01*
X128594239Y-78351899D01*
X128535727Y-78234344D01*
X128474684Y-78111120D01*
X128410500Y-77980980D01*
X128342566Y-77842678D01*
X128270273Y-77694968D01*
X128193010Y-77536603D01*
X128110169Y-77366337D01*
X128021140Y-77182925D01*
X127925313Y-76985119D01*
X127822079Y-76771675D01*
X127710828Y-76541344D01*
X127691505Y-76501332D01*
X127643083Y-76401233D01*
X127597401Y-76307029D01*
X127555204Y-76220243D01*
X127517239Y-76142401D01*
X127484251Y-76075028D01*
X127456987Y-76019649D01*
X127436192Y-75977788D01*
X127422612Y-75950970D01*
X127416994Y-75940721D01*
X127412943Y-75941255D01*
X127398702Y-75953500D01*
X127377678Y-75977301D01*
X127352780Y-76009539D01*
X127296468Y-76086648D01*
X127285631Y-76057988D01*
X127279780Y-76042545D01*
X127250377Y-75965572D01*
X127216109Y-75876706D01*
X127178314Y-75779352D01*
X127138330Y-75676915D01*
X127097494Y-75572801D01*
X127057145Y-75470415D01*
X127018621Y-75373161D01*
X126983260Y-75284444D01*
X126952400Y-75207670D01*
X126927378Y-75146244D01*
X126897957Y-75075105D01*
X126864909Y-74996489D01*
X126837132Y-74932406D01*
X126813497Y-74880477D01*
X126792875Y-74838325D01*
X126774139Y-74803573D01*
X126756160Y-74773842D01*
X126737810Y-74746756D01*
X126728000Y-74732867D01*
X126710903Y-74707126D01*
X126705646Y-74695025D01*
X126711898Y-74694953D01*
X126729332Y-74705296D01*
X126739414Y-74713578D01*
X126765031Y-74742872D01*
X126798209Y-74788795D01*
X126838346Y-74850308D01*
X126884843Y-74926372D01*
X126937099Y-75015948D01*
X126994513Y-75117997D01*
X127056486Y-75231480D01*
X127122417Y-75355358D01*
X127191706Y-75488593D01*
X127263752Y-75630146D01*
X127286989Y-75676147D01*
X127321003Y-75743006D01*
X127351516Y-75802406D01*
X127377430Y-75852244D01*
X127397652Y-75890423D01*
X127411087Y-75914841D01*
X127416640Y-75923399D01*
X127424245Y-75916627D01*
X127440578Y-75897891D01*
X127461818Y-75871431D01*
X127482032Y-75846936D01*
X127521011Y-75803500D01*
X127569821Y-75751951D01*
X127625416Y-75695294D01*
X127684749Y-75636536D01*
X127744774Y-75578680D01*
X127802445Y-75524734D01*
X127854715Y-75477702D01*
X127898537Y-75440589D01*
X128012778Y-75351976D01*
X128227492Y-75204107D01*
X128449218Y-75075037D01*
X128678170Y-74964676D01*
X128914561Y-74872937D01*
X129158606Y-74799731D01*
X129410519Y-74744969D01*
X129670513Y-74708564D01*
X129711372Y-74705030D01*
X129793981Y-74700584D01*
X129888303Y-74698107D01*
X129989126Y-74697557D01*
X130091239Y-74698896D01*
X130189430Y-74702082D01*
X130278488Y-74707075D01*
X130353201Y-74713835D01*
X130535398Y-74739910D01*
X130788200Y-74793014D01*
X131034425Y-74864810D01*
X131273311Y-74954966D01*
X131504097Y-75063151D01*
X131726021Y-75189032D01*
X131938321Y-75332277D01*
X132140237Y-75492556D01*
X132168460Y-75517376D01*
X132233085Y-75577463D01*
X132303452Y-75646432D01*
X132375338Y-75719922D01*
X132444521Y-75793573D01*
X132506779Y-75863023D01*
X132557889Y-75923913D01*
X132615118Y-75997427D01*
X132763190Y-76209234D01*
X132893103Y-76429568D01*
X133004874Y-76658476D01*
X133098524Y-76896003D01*
X133174070Y-77142193D01*
X133231531Y-77397095D01*
X133270926Y-77660751D01*
X133274493Y-77700274D01*
X133278282Y-77768019D01*
X133280861Y-77847838D01*
X133282230Y-77935142D01*
X133282389Y-78025343D01*
X133281338Y-78113853D01*
X133279077Y-78196085D01*
X133275606Y-78267450D01*
X133270926Y-78323360D01*
X133246705Y-78500124D01*
X133195617Y-78757064D01*
X133126726Y-79004785D01*
X133039994Y-79243400D01*
X132935386Y-79473020D01*
X132812863Y-79693755D01*
X132745737Y-79804190D01*
X132744690Y-79934956D01*
X132743125Y-80130475D01*
G37*
G04 #@! TD*
M02*
