M48
; DRILL file {KiCad 7.0.5} date Sun Mar 24 13:33:01 2024
; FORMAT={-:-/ absolute / metric / decimal}
; #@! TF.CreationDate,2024-03-24T13:33:01-05:00
; #@! TF.GenerationSoftware,Kicad,Pcbnew,7.0.5
; #@! TF.FileFunction,Plated,1,2,PTH
FMAT,2
METRIC
; #@! TA.AperFunction,Plated,PTH,ViaDrill
T1C0.400
; #@! TA.AperFunction,Plated,PTH,ComponentDrill
T2C0.700
; #@! TA.AperFunction,Plated,PTH,ComponentDrill
T3C0.800
; #@! TA.AperFunction,Plated,PTH,ComponentDrill
T4C0.889
; #@! TA.AperFunction,Plated,PTH,ComponentDrill
T5C0.900
; #@! TA.AperFunction,Plated,PTH,ComponentDrill
T6C1.020
; #@! TA.AperFunction,Plated,PTH,ComponentDrill
T7C1.600
; #@! TA.AperFunction,Plated,PTH,ComponentDrill
T8C2.000
; #@! TA.AperFunction,Plated,PTH,ComponentDrill
T9C3.250
%
G90
G05
T1
X142.748Y-115.316
X148.59Y-115.316
X148.59Y-118.364
X154.432Y-115.316
X160.782Y-120.65
T2
X205.756Y-111.406
X205.756Y-113.406
X205.756Y-115.406
X207.756Y-111.406
X207.756Y-113.406
X207.756Y-115.406
T3
X162.306Y-102.616
X162.306Y-117.856
X164.846Y-102.616
X164.846Y-117.856
X167.386Y-102.616
X167.386Y-117.856
X169.926Y-102.616
X169.926Y-117.856
X172.466Y-102.616
X172.466Y-117.856
X175.006Y-102.616
X175.006Y-117.856
X177.546Y-102.616
X177.546Y-117.856
X180.086Y-102.616
X180.086Y-117.856
X182.626Y-102.616
X182.626Y-117.856
X185.166Y-102.616
X185.166Y-117.856
X187.706Y-102.616
X187.706Y-117.856
X190.246Y-102.616
X190.246Y-117.856
X192.786Y-102.616
X192.786Y-117.856
X195.326Y-102.616
X195.326Y-117.856
X197.866Y-102.616
X197.866Y-117.856
X200.406Y-102.616
X200.406Y-117.856
X202.946Y-102.616
X202.946Y-117.856
X205.486Y-102.616
X205.486Y-117.856
X208.026Y-102.616
X208.026Y-117.856
X210.566Y-102.616
X210.566Y-117.856
X213.106Y-102.616
X213.106Y-117.856
X215.646Y-102.616
X215.646Y-117.856
X218.186Y-102.616
X218.186Y-117.856
X220.726Y-102.616
X220.726Y-117.856
T4
X157.099Y-83.82
X157.099Y-86.36
X157.099Y-88.9
T5
X178.816Y-90.297
X181.356Y-90.297
X183.896Y-90.297
X191.516Y-90.297
X194.056Y-90.297
X196.596Y-90.297
X199.136Y-90.297
X210.058Y-97.028
X211.328Y-94.488
X212.598Y-97.028
X213.868Y-94.488
X215.138Y-97.028
X216.408Y-94.488
X217.678Y-97.028
X218.948Y-94.488
T6
X208.178Y-84.848
X210.718Y-83.058
X218.288Y-84.848
X220.828Y-83.058
T7
X206.628Y-91.188
X222.378Y-91.188
T9
X208.788Y-88.138
X220.218Y-88.138
T8
X140.864Y-95.299G85X138.764Y-95.299
G05
X140.864Y-103.173G85X138.764Y-103.173
G05
X150.516Y-95.299G85X148.416Y-95.299
G05
X150.516Y-103.173G85X148.416Y-103.173
G05
T0
M30
