G04 #@! TF.GenerationSoftware,KiCad,Pcbnew,7.0.5*
G04 #@! TF.CreationDate,2023-11-15T14:25:37-06:00*
G04 #@! TF.ProjectId,RotatingSignalStack_board,526f7461-7469-46e6-9753-69676e616c53,rev?*
G04 #@! TF.SameCoordinates,Original*
G04 #@! TF.FileFunction,Copper,L1,Top*
G04 #@! TF.FilePolarity,Positive*
%FSLAX46Y46*%
G04 Gerber Fmt 4.6, Leading zero omitted, Abs format (unit mm)*
G04 Created by KiCad (PCBNEW 7.0.5) date 2023-11-15 14:25:37*
%MOMM*%
%LPD*%
G01*
G04 APERTURE LIST*
G04 Aperture macros list*
%AMRoundRect*
0 Rectangle with rounded corners*
0 $1 Rounding radius*
0 $2 $3 $4 $5 $6 $7 $8 $9 X,Y pos of 4 corners*
0 Add a 4 corners polygon primitive as box body*
4,1,4,$2,$3,$4,$5,$6,$7,$8,$9,$2,$3,0*
0 Add four circle primitives for the rounded corners*
1,1,$1+$1,$2,$3*
1,1,$1+$1,$4,$5*
1,1,$1+$1,$6,$7*
1,1,$1+$1,$8,$9*
0 Add four rect primitives between the rounded corners*
20,1,$1+$1,$2,$3,$4,$5,0*
20,1,$1+$1,$4,$5,$6,$7,0*
20,1,$1+$1,$6,$7,$8,$9,0*
20,1,$1+$1,$8,$9,$2,$3,0*%
G04 Aperture macros list end*
G04 #@! TA.AperFunction,ComponentPad*
%ADD10C,1.100000*%
G04 #@! TD*
G04 #@! TA.AperFunction,ComponentPad*
%ADD11C,1.400000*%
G04 #@! TD*
G04 #@! TA.AperFunction,ComponentPad*
%ADD12C,4.000000*%
G04 #@! TD*
G04 #@! TA.AperFunction,ComponentPad*
%ADD13C,2.000000*%
G04 #@! TD*
G04 #@! TA.AperFunction,SMDPad,CuDef*
%ADD14RoundRect,0.237500X0.237500X-0.250000X0.237500X0.250000X-0.237500X0.250000X-0.237500X-0.250000X0*%
G04 #@! TD*
G04 #@! TA.AperFunction,SMDPad,CuDef*
%ADD15RoundRect,0.237500X-0.300000X-0.237500X0.300000X-0.237500X0.300000X0.237500X-0.300000X0.237500X0*%
G04 #@! TD*
G04 #@! TA.AperFunction,SMDPad,CuDef*
%ADD16R,1.400000X1.600000*%
G04 #@! TD*
G04 #@! TA.AperFunction,SMDPad,CuDef*
%ADD17RoundRect,0.237500X0.300000X0.237500X-0.300000X0.237500X-0.300000X-0.237500X0.300000X-0.237500X0*%
G04 #@! TD*
G04 #@! TA.AperFunction,ComponentPad*
%ADD18O,5.100000X3.000000*%
G04 #@! TD*
G04 #@! TA.AperFunction,SMDPad,CuDef*
%ADD19RoundRect,0.237500X-0.250000X-0.237500X0.250000X-0.237500X0.250000X0.237500X-0.250000X0.237500X0*%
G04 #@! TD*
G04 #@! TA.AperFunction,SMDPad,CuDef*
%ADD20RoundRect,0.237500X0.250000X0.237500X-0.250000X0.237500X-0.250000X-0.237500X0.250000X-0.237500X0*%
G04 #@! TD*
G04 #@! TA.AperFunction,ComponentPad*
%ADD21C,1.308000*%
G04 #@! TD*
G04 #@! TA.AperFunction,ComponentPad*
%ADD22C,1.208000*%
G04 #@! TD*
G04 #@! TA.AperFunction,SMDPad,CuDef*
%ADD23RoundRect,0.237500X0.287500X0.237500X-0.287500X0.237500X-0.287500X-0.237500X0.287500X-0.237500X0*%
G04 #@! TD*
G04 #@! TA.AperFunction,ComponentPad*
%ADD24C,1.524000*%
G04 #@! TD*
G04 #@! TA.AperFunction,SMDPad,CuDef*
%ADD25RoundRect,0.237500X-0.237500X0.287500X-0.237500X-0.287500X0.237500X-0.287500X0.237500X0.287500X0*%
G04 #@! TD*
G04 #@! TA.AperFunction,SMDPad,CuDef*
%ADD26RoundRect,0.237500X0.237500X-0.300000X0.237500X0.300000X-0.237500X0.300000X-0.237500X-0.300000X0*%
G04 #@! TD*
G04 #@! TA.AperFunction,ViaPad*
%ADD27C,0.800000*%
G04 #@! TD*
G04 #@! TA.AperFunction,Conductor*
%ADD28C,0.762000*%
G04 #@! TD*
G04 #@! TA.AperFunction,Conductor*
%ADD29C,0.254000*%
G04 #@! TD*
G04 APERTURE END LIST*
D10*
G04 #@! TO.P,J1,1*
G04 #@! TO.N,/Tx+*
X166243000Y-95809500D03*
G04 #@! TO.P,J1,2*
G04 #@! TO.N,Net-(C6-Pad1)*
X167513000Y-93269500D03*
G04 #@! TO.P,J1,3*
G04 #@! TO.N,/Tx-*
X168783000Y-95809500D03*
G04 #@! TO.P,J1,4*
G04 #@! TO.N,/Rx+*
X170053000Y-93269500D03*
G04 #@! TO.P,J1,5*
G04 #@! TO.N,Net-(C6-Pad1)*
X171323000Y-95809500D03*
G04 #@! TO.P,J1,6*
G04 #@! TO.N,/Rx-*
X172593000Y-93269500D03*
G04 #@! TO.P,J1,7*
G04 #@! TO.N,unconnected-(J1-Pad7)*
X173863000Y-95809500D03*
G04 #@! TO.P,J1,8*
G04 #@! TO.N,GND*
X175133000Y-93269500D03*
D11*
G04 #@! TO.P,J1,9*
X164363000Y-107239500D03*
G04 #@! TO.P,J1,10*
G04 #@! TO.N,/LED*
X166903000Y-105449500D03*
G04 #@! TO.P,J1,11*
G04 #@! TO.N,unconnected-(J1-Pad11)*
X174473000Y-107239500D03*
G04 #@! TO.P,J1,12*
G04 #@! TO.N,unconnected-(J1-Pad12)*
X177013000Y-105449500D03*
D12*
G04 #@! TO.P,J1,13*
G04 #@! TO.N,N/C*
X164973000Y-102159500D03*
G04 #@! TO.P,J1,14*
X176403000Y-102159500D03*
D13*
G04 #@! TO.P,J1,SH*
G04 #@! TO.N,GND*
X162813000Y-99109500D03*
X178563000Y-99109500D03*
G04 #@! TD*
D14*
G04 #@! TO.P,R7,1*
G04 #@! TO.N,JOG B*
X188722000Y-99615000D03*
G04 #@! TO.P,R7,2*
G04 #@! TO.N,Net-(D4-A)*
X188722000Y-97790000D03*
G04 #@! TD*
D15*
G04 #@! TO.P,C5,1*
G04 #@! TO.N,+3.3V*
X107849500Y-69342000D03*
G04 #@! TO.P,C5,2*
G04 #@! TO.N,GND*
X109574500Y-69342000D03*
G04 #@! TD*
D16*
G04 #@! TO.P,SW1,1,1*
G04 #@! TO.N,+3.3V*
X182904000Y-110280000D03*
X182904000Y-103080000D03*
G04 #@! TO.P,SW1,2,2*
G04 #@! TO.N,JOG A*
X185904000Y-110280000D03*
X185904000Y-103080000D03*
G04 #@! TD*
D17*
G04 #@! TO.P,C3,1*
G04 #@! TO.N,+12V*
X104494500Y-92710000D03*
G04 #@! TO.P,C3,2*
G04 #@! TO.N,GND*
X102769500Y-92710000D03*
G04 #@! TD*
D18*
G04 #@! TO.P,Conn2,1,GND*
G04 #@! TO.N,GND*
X120027700Y-87072500D03*
G04 #@! TO.P,Conn2,4,PV+*
G04 #@! TO.N,+12V*
X120027700Y-94946500D03*
G04 #@! TD*
D19*
G04 #@! TO.P,R5,1*
G04 #@! TO.N,COMP PWR*
X145645500Y-90678000D03*
G04 #@! TO.P,R5,2*
G04 #@! TO.N,I2C SCL*
X147470500Y-90678000D03*
G04 #@! TD*
D16*
G04 #@! TO.P,SW2,1,1*
G04 #@! TO.N,+3.3V*
X182904000Y-99612000D03*
X182904000Y-92412000D03*
G04 #@! TO.P,SW2,2,2*
G04 #@! TO.N,JOG B*
X185904000Y-99612000D03*
X185904000Y-92412000D03*
G04 #@! TD*
D20*
G04 #@! TO.P,R3,1*
G04 #@! TO.N,+3.3V*
X159662500Y-96520000D03*
G04 #@! TO.P,R3,2*
G04 #@! TO.N,MAG ENABLE*
X157837500Y-96520000D03*
G04 #@! TD*
D21*
G04 #@! TO.P,U2,0,RX1*
G04 #@! TO.N,JOG A*
X182372000Y-69596000D03*
G04 #@! TO.P,U2,1,TX1*
G04 #@! TO.N,JOG B*
X179832000Y-69596000D03*
G04 #@! TO.P,U2,2,OUT2*
G04 #@! TO.N,unconnected-(U2-OUT2-Pad2)*
X177292000Y-69596000D03*
G04 #@! TO.P,U2,3,LRCLK2*
G04 #@! TO.N,unconnected-(U2-LRCLK2-Pad3)*
X174752000Y-69596000D03*
G04 #@! TO.P,U2,3.3V_1,3.3V*
G04 #@! TO.N,+3.3V*
X149352000Y-69596000D03*
G04 #@! TO.P,U2,3.3V_2,3.3V*
X179832000Y-84836000D03*
G04 #@! TO.P,U2,4,BCLK2*
G04 #@! TO.N,unconnected-(U2-BCLK2-Pad4)*
X172212000Y-69596000D03*
G04 #@! TO.P,U2,5,IN2*
G04 #@! TO.N,unconnected-(U2-IN2-Pad5)*
X169672000Y-69596000D03*
G04 #@! TO.P,U2,6,OUT1D*
G04 #@! TO.N,unconnected-(U2-OUT1D-Pad6)*
X167132000Y-69596000D03*
G04 #@! TO.P,U2,7,RX2*
G04 #@! TO.N,unconnected-(U2-RX2-Pad7)*
X164592000Y-69596000D03*
G04 #@! TO.P,U2,8,TX2*
G04 #@! TO.N,unconnected-(U2-TX2-Pad8)*
X162052000Y-69596000D03*
G04 #@! TO.P,U2,9,OUT1C*
G04 #@! TO.N,unconnected-(U2-OUT1C-Pad9)*
X159512000Y-69596000D03*
G04 #@! TO.P,U2,10,CS1*
G04 #@! TO.N,unconnected-(U2-CS1-Pad10)*
X156972000Y-69596000D03*
G04 #@! TO.P,U2,11,MOSI*
G04 #@! TO.N,unconnected-(U2-MOSI-Pad11)*
X154432000Y-69596000D03*
G04 #@! TO.P,U2,12,MISO*
G04 #@! TO.N,unconnected-(U2-MISO-Pad12)*
X151892000Y-69596000D03*
G04 #@! TO.P,U2,13,SCK*
G04 #@! TO.N,unconnected-(U2-SCK-Pad13)*
X151892000Y-84836000D03*
G04 #@! TO.P,U2,14,A0*
G04 #@! TO.N,unconnected-(U2-A0-Pad14)*
X154432000Y-84836000D03*
G04 #@! TO.P,U2,15,A1*
G04 #@! TO.N,unconnected-(U2-A1-Pad15)*
X156972000Y-84836000D03*
G04 #@! TO.P,U2,16,A2*
G04 #@! TO.N,I2C SCL*
X159512000Y-84836000D03*
G04 #@! TO.P,U2,17,A3*
G04 #@! TO.N,I2C SDA*
X162052000Y-84836000D03*
G04 #@! TO.P,U2,18,A4*
G04 #@! TO.N,MAG ENABLE*
X164592000Y-84836000D03*
G04 #@! TO.P,U2,19,A5*
G04 #@! TO.N,unconnected-(U2-A5-Pad19)*
X167132000Y-84836000D03*
G04 #@! TO.P,U2,20,A6*
G04 #@! TO.N,unconnected-(U2-A6-Pad20)*
X169672000Y-84836000D03*
G04 #@! TO.P,U2,21,A7*
G04 #@! TO.N,unconnected-(U2-A7-Pad21)*
X172212000Y-84836000D03*
G04 #@! TO.P,U2,22,A8*
G04 #@! TO.N,unconnected-(U2-A8-Pad22)*
X174752000Y-84836000D03*
G04 #@! TO.P,U2,23,A9*
G04 #@! TO.N,unconnected-(U2-A9-Pad23)*
X177292000Y-84836000D03*
G04 #@! TO.P,U2,24,A10*
G04 #@! TO.N,unconnected-(U2-A10-Pad24)*
X146812000Y-69596000D03*
G04 #@! TO.P,U2,25,A11*
G04 #@! TO.N,unconnected-(U2-A11-Pad25)*
X144272000Y-69596000D03*
G04 #@! TO.P,U2,26,A12*
G04 #@! TO.N,unconnected-(U2-A12-Pad26)*
X141732000Y-69596000D03*
G04 #@! TO.P,U2,27,A13*
G04 #@! TO.N,unconnected-(U2-A13-Pad27)*
X139192000Y-69596000D03*
G04 #@! TO.P,U2,28,RX7*
G04 #@! TO.N,unconnected-(U2-RX7-Pad28)*
X136652000Y-69596000D03*
G04 #@! TO.P,U2,29,TX7*
G04 #@! TO.N,unconnected-(U2-TX7-Pad29)*
X134112000Y-69596000D03*
G04 #@! TO.P,U2,30,CRX3*
G04 #@! TO.N,unconnected-(U2-CRX3-Pad30)*
X131572000Y-69596000D03*
G04 #@! TO.P,U2,31,CTX3*
G04 #@! TO.N,unconnected-(U2-CTX3-Pad31)*
X129032000Y-69596000D03*
G04 #@! TO.P,U2,32,OUT1B*
G04 #@! TO.N,unconnected-(U2-OUT1B-Pad32)*
X126492000Y-69596000D03*
G04 #@! TO.P,U2,33,MCLK2*
G04 #@! TO.N,unconnected-(U2-MCLK2-Pad33)*
X126492000Y-84836000D03*
G04 #@! TO.P,U2,34,RX8*
G04 #@! TO.N,unconnected-(U2-RX8-Pad34)*
X129032000Y-84836000D03*
G04 #@! TO.P,U2,35,TX8*
G04 #@! TO.N,unconnected-(U2-TX8-Pad35)*
X131572000Y-84836000D03*
G04 #@! TO.P,U2,36,CS2*
G04 #@! TO.N,HB_RVS*
X134112000Y-84836000D03*
G04 #@! TO.P,U2,37,CS3*
G04 #@! TO.N,HB_FWD*
X136652000Y-84836000D03*
G04 #@! TO.P,U2,38,A14*
G04 #@! TO.N,unconnected-(U2-A14-Pad38)*
X139192000Y-84836000D03*
G04 #@! TO.P,U2,39,A15*
G04 #@! TO.N,unconnected-(U2-A15-Pad39)*
X141732000Y-84836000D03*
G04 #@! TO.P,U2,40,A16*
G04 #@! TO.N,COMP PWR*
X144272000Y-84836000D03*
G04 #@! TO.P,U2,41,A17*
G04 #@! TO.N,unconnected-(U2-A17-Pad41)*
X146812000Y-84836000D03*
G04 #@! TO.P,U2,GND1,GND*
G04 #@! TO.N,GND*
X184912000Y-69596000D03*
G04 #@! TO.P,U2,GND2,GND*
X149352000Y-84836000D03*
G04 #@! TO.P,U2,GND3,GND*
X182372000Y-84836000D03*
D22*
G04 #@! TO.P,U2,GND5,GND*
X169942000Y-80386000D03*
G04 #@! TO.P,U2,LED,LED*
G04 #@! TO.N,/LED*
X171942000Y-80386000D03*
G04 #@! TO.P,U2,R+,R+*
G04 #@! TO.N,/Rx+*
X171942000Y-82386000D03*
G04 #@! TO.P,U2,R-,R-*
G04 #@! TO.N,/Rx-*
X169942000Y-82386000D03*
G04 #@! TO.P,U2,T+,T+*
G04 #@! TO.N,/Tx+*
X169942000Y-78386000D03*
G04 #@! TO.P,U2,T-,T-*
G04 #@! TO.N,/Tx-*
X171942000Y-78386000D03*
D21*
G04 #@! TO.P,U2,VIN,VIN*
G04 #@! TO.N,unconnected-(U2-PadVIN)*
X184912000Y-84836000D03*
G04 #@! TD*
D17*
G04 #@! TO.P,C4,1*
G04 #@! TO.N,+12V*
X104494500Y-90424000D03*
G04 #@! TO.P,C4,2*
G04 #@! TO.N,GND*
X102769500Y-90424000D03*
G04 #@! TD*
D19*
G04 #@! TO.P,R1,1*
G04 #@! TO.N,Net-(D1-A)*
X102719500Y-97028000D03*
G04 #@! TO.P,R1,2*
G04 #@! TO.N,+12V*
X104544500Y-97028000D03*
G04 #@! TD*
D23*
G04 #@! TO.P,D2,1,K*
G04 #@! TO.N,GND*
X104394000Y-85852000D03*
G04 #@! TO.P,D2,2,A*
G04 #@! TO.N,Net-(D2-A)*
X102644000Y-85852000D03*
G04 #@! TD*
D24*
G04 #@! TO.P,Conn4,1*
G04 #@! TO.N,HB_FWD*
X136652000Y-99949000D03*
G04 #@! TO.P,Conn4,2*
G04 #@! TO.N,HB_RVS*
X134112000Y-99949000D03*
G04 #@! TO.P,Conn4,3*
G04 #@! TO.N,+3.3V*
X131572000Y-99949000D03*
G04 #@! TD*
D25*
G04 #@! TO.P,D3,1,K*
G04 #@! TO.N,GND*
X188722000Y-103265000D03*
G04 #@! TO.P,D3,2,A*
G04 #@! TO.N,Net-(D3-A)*
X188722000Y-105015000D03*
G04 #@! TD*
D24*
G04 #@! TO.P,Conn3,1*
G04 #@! TO.N,MAG ENABLE*
X155702000Y-99949000D03*
G04 #@! TO.P,Conn3,2*
G04 #@! TO.N,I2C SDA*
X153162000Y-99949000D03*
G04 #@! TO.P,Conn3,3*
G04 #@! TO.N,I2C SCL*
X150622000Y-99949000D03*
G04 #@! TO.P,Conn3,4*
G04 #@! TO.N,GND*
X148082000Y-99949000D03*
G04 #@! TO.P,Conn3,5*
G04 #@! TO.N,COMP PWR*
X145542000Y-99949000D03*
G04 #@! TD*
D25*
G04 #@! TO.P,D4,1,K*
G04 #@! TO.N,GND*
X188722000Y-92597000D03*
G04 #@! TO.P,D4,2,A*
G04 #@! TO.N,Net-(D4-A)*
X188722000Y-94347000D03*
G04 #@! TD*
D18*
G04 #@! TO.P,Conn1,1,GND*
G04 #@! TO.N,GND*
X109867700Y-87072500D03*
G04 #@! TO.P,Conn1,4,PV+*
G04 #@! TO.N,+12V*
X109867700Y-94946500D03*
G04 #@! TD*
D24*
G04 #@! TO.P,U1,1,Vi*
G04 #@! TO.N,+12V*
X107823000Y-78232000D03*
G04 #@! TO.P,U1,2,GND*
G04 #@! TO.N,GND*
X107823000Y-75692000D03*
G04 #@! TO.P,U1,3,Vo*
G04 #@! TO.N,+3.3V*
X107823000Y-73152000D03*
G04 #@! TD*
D20*
G04 #@! TO.P,R2,1*
G04 #@! TO.N,+3.3V*
X104544500Y-88138000D03*
G04 #@! TO.P,R2,2*
G04 #@! TO.N,Net-(D2-A)*
X102719500Y-88138000D03*
G04 #@! TD*
D26*
G04 #@! TO.P,C2,1*
G04 #@! TO.N,+12V*
X104902000Y-80010000D03*
G04 #@! TO.P,C2,2*
G04 #@! TO.N,GND*
X104902000Y-78285000D03*
G04 #@! TD*
D17*
G04 #@! TO.P,C1,1*
G04 #@! TO.N,+12V*
X104494500Y-94996000D03*
G04 #@! TO.P,C1,2*
G04 #@! TO.N,GND*
X102769500Y-94996000D03*
G04 #@! TD*
D19*
G04 #@! TO.P,R4,1*
G04 #@! TO.N,COMP PWR*
X145645500Y-88392000D03*
G04 #@! TO.P,R4,2*
G04 #@! TO.N,I2C SDA*
X147470500Y-88392000D03*
G04 #@! TD*
D14*
G04 #@! TO.P,R6,1*
G04 #@! TO.N,JOG A*
X188722000Y-110283000D03*
G04 #@! TO.P,R6,2*
G04 #@! TO.N,Net-(D3-A)*
X188722000Y-108458000D03*
G04 #@! TD*
D23*
G04 #@! TO.P,D1,1,K*
G04 #@! TO.N,GND*
X104507000Y-99060000D03*
G04 #@! TO.P,D1,2,A*
G04 #@! TO.N,Net-(D1-A)*
X102757000Y-99060000D03*
G04 #@! TD*
D15*
G04 #@! TO.P,C6,1*
G04 #@! TO.N,Net-(C6-Pad1)*
X167539500Y-90170000D03*
G04 #@! TO.P,C6,2*
G04 #@! TO.N,GND*
X169264500Y-90170000D03*
G04 #@! TD*
D27*
G04 #@! TO.N,GND*
X100838000Y-93726000D03*
X100838000Y-91440000D03*
X191516000Y-103124000D03*
X100838000Y-98044000D03*
X189992000Y-89662000D03*
X100838000Y-86868000D03*
X171196000Y-90170000D03*
X113030000Y-69342000D03*
G04 #@! TO.N,+3.3V*
X106172000Y-84328000D03*
G04 #@! TO.N,I2C SDA*
X151130000Y-91694000D03*
X152654000Y-93218000D03*
G04 #@! TD*
D28*
G04 #@! TO.N,+12V*
X101600000Y-81788000D02*
X99314000Y-84074000D01*
X108204000Y-101092000D02*
X109867700Y-99428300D01*
X109867700Y-99428300D02*
X109867700Y-94946500D01*
X100838000Y-101092000D02*
X108204000Y-101092000D01*
X107823000Y-78232000D02*
X107823000Y-79629000D01*
X104902000Y-80010000D02*
X103124000Y-81788000D01*
X107823000Y-79629000D02*
X105664000Y-81788000D01*
X99314000Y-99568000D02*
X100838000Y-101092000D01*
X105664000Y-81788000D02*
X103124000Y-81788000D01*
X103124000Y-81788000D02*
X101600000Y-81788000D01*
X99314000Y-84074000D02*
X99314000Y-99568000D01*
D29*
G04 #@! TO.N,+3.3V*
X182904000Y-92432000D02*
X182904000Y-92412000D01*
X180848000Y-101668000D02*
X180848000Y-94488000D01*
X128905000Y-102616000D02*
X131572000Y-99949000D01*
X158242000Y-102616000D02*
X155448000Y-102616000D01*
X107823000Y-69368500D02*
X107849500Y-69342000D01*
X182904000Y-110280000D02*
X178816000Y-110280000D01*
X179832000Y-72644000D02*
X179832000Y-84836000D01*
X180848000Y-101668000D02*
X182904000Y-99612000D01*
X159662500Y-101195500D02*
X158242000Y-102616000D01*
X107823000Y-73152000D02*
X98044000Y-82931000D01*
X178308000Y-71120000D02*
X179832000Y-72644000D01*
X155448000Y-102616000D02*
X128905000Y-102616000D01*
X107823000Y-73152000D02*
X107823000Y-69368500D01*
X159662500Y-96520000D02*
X159662500Y-101195500D01*
X100330000Y-102616000D02*
X128905000Y-102616000D01*
X104544500Y-88138000D02*
X106172000Y-86510500D01*
X106172000Y-86510500D02*
X106172000Y-84328000D01*
X98044000Y-82931000D02*
X98044000Y-100330000D01*
X147828000Y-71120000D02*
X149352000Y-69596000D01*
X180848000Y-105136000D02*
X180848000Y-101668000D01*
X147828000Y-71120000D02*
X178308000Y-71120000D01*
X107823000Y-73152000D02*
X109855000Y-71120000D01*
X180848000Y-105136000D02*
X180848000Y-108248000D01*
X109855000Y-71120000D02*
X147828000Y-71120000D01*
X180848000Y-94488000D02*
X182904000Y-92432000D01*
X182904000Y-103080000D02*
X180848000Y-105136000D01*
X163112000Y-110280000D02*
X155448000Y-102616000D01*
X180848000Y-108248000D02*
X178816000Y-110280000D01*
X178816000Y-110280000D02*
X163112000Y-110280000D01*
X98044000Y-100330000D02*
X100330000Y-102616000D01*
G04 #@! TO.N,Net-(C6-Pad1)*
X170001500Y-94488000D02*
X168731500Y-94488000D01*
X168731500Y-94488000D02*
X167513000Y-93269500D01*
X171323000Y-95809500D02*
X170001500Y-94488000D01*
X167513000Y-90196500D02*
X167513000Y-93269500D01*
X167539500Y-90170000D02*
X167513000Y-90196500D01*
G04 #@! TO.N,COMP PWR*
X145645500Y-88392000D02*
X145542000Y-88392000D01*
X144272000Y-91186000D02*
X144272000Y-98679000D01*
X145542000Y-90678000D02*
X144272000Y-89408000D01*
X145645500Y-90678000D02*
X145542000Y-90678000D01*
X144272000Y-98679000D02*
X145542000Y-99949000D01*
X144272000Y-89408000D02*
X144272000Y-91186000D01*
X145542000Y-88392000D02*
X144272000Y-87122000D01*
X144272000Y-84836000D02*
X144272000Y-87122000D01*
X144272000Y-87122000D02*
X144272000Y-89408000D01*
G04 #@! TO.N,I2C SCL*
X150622000Y-96774000D02*
X150622000Y-97536000D01*
X150622000Y-97536000D02*
X150622000Y-99949000D01*
X150622000Y-93726000D02*
X147574000Y-90678000D01*
X150622000Y-93726000D02*
X150622000Y-96774000D01*
X159512000Y-84836000D02*
X150622000Y-93726000D01*
X147574000Y-90678000D02*
X147470500Y-90678000D01*
G04 #@! TO.N,I2C SDA*
X162052000Y-84836000D02*
X153162000Y-93726000D01*
X151130000Y-91694000D02*
X147828000Y-88392000D01*
X153162000Y-93726000D02*
X152654000Y-93218000D01*
X147828000Y-88392000D02*
X147470500Y-88392000D01*
X153162000Y-93726000D02*
X153162000Y-99949000D01*
G04 #@! TO.N,MAG ENABLE*
X155702000Y-97790000D02*
X155702000Y-99949000D01*
X156972000Y-96520000D02*
X155702000Y-97790000D01*
X157837500Y-96520000D02*
X156972000Y-96520000D01*
X155702000Y-93726000D02*
X155702000Y-97790000D01*
X164592000Y-84836000D02*
X155702000Y-93726000D01*
G04 #@! TO.N,Net-(D1-A)*
X102719500Y-97028000D02*
X102719500Y-99022500D01*
X102719500Y-99022500D02*
X102757000Y-99060000D01*
G04 #@! TO.N,Net-(D2-A)*
X102719500Y-85927500D02*
X102644000Y-85852000D01*
X102719500Y-88138000D02*
X102719500Y-85927500D01*
G04 #@! TO.N,Net-(D3-A)*
X188722000Y-108458000D02*
X188722000Y-105015000D01*
G04 #@! TO.N,Net-(D4-A)*
X188722000Y-97790000D02*
X188722000Y-94347000D01*
G04 #@! TO.N,/LED*
X176276000Y-96266000D02*
X167092500Y-105449500D01*
X174366000Y-80386000D02*
X176276000Y-82296000D01*
X176276000Y-82296000D02*
X176276000Y-96266000D01*
X171942000Y-80386000D02*
X174366000Y-80386000D01*
X167092500Y-105449500D02*
X166903000Y-105449500D01*
G04 #@! TO.N,/Tx+*
X169942000Y-78386000D02*
X167232000Y-78386000D01*
X165362000Y-86406000D02*
X164962000Y-86406000D01*
X165662000Y-95228500D02*
X166243000Y-95809500D01*
X164962000Y-87006000D02*
X165362000Y-87006000D01*
X167232000Y-78386000D02*
X165662000Y-79956000D01*
X165662000Y-87552477D02*
X165662000Y-95228500D01*
X165662000Y-87306000D02*
X165662000Y-87552477D01*
X165662000Y-79956000D02*
X165662000Y-86106000D01*
X164662000Y-86706000D02*
G75*
G03*
X164962000Y-87006000I300000J0D01*
G01*
X164962000Y-86406000D02*
G75*
G03*
X164662000Y-86706000I0J-300000D01*
G01*
X165662000Y-87306000D02*
G75*
G03*
X165362000Y-87006000I-300000J0D01*
G01*
X165362000Y-86406000D02*
G75*
G03*
X165662000Y-86106000I0J300000D01*
G01*
G04 #@! TO.N,/Tx-*
X168199500Y-95809500D02*
X166116000Y-93726000D01*
X166116000Y-81280000D02*
X167941000Y-79455000D01*
X168783000Y-95809500D02*
X168199500Y-95809500D01*
X166116000Y-93726000D02*
X166116000Y-81280000D01*
X170873000Y-79455000D02*
X171942000Y-78386000D01*
X167941000Y-79455000D02*
X170873000Y-79455000D01*
G04 #@! TO.N,/Rx+*
X172528000Y-88460000D02*
X172928000Y-88460000D01*
X172528000Y-87260000D02*
X172928000Y-87260000D01*
X171942000Y-82386000D02*
X173228000Y-83672000D01*
X172928000Y-87860000D02*
X172528000Y-87860000D01*
X173228000Y-90094500D02*
X170053000Y-93269500D01*
X173228000Y-83672000D02*
X173228000Y-86360000D01*
X172928000Y-86660000D02*
X172528000Y-86660000D01*
X173228000Y-89336876D02*
X173228000Y-90094500D01*
X173228000Y-88760000D02*
X173228000Y-89336876D01*
X172528000Y-86660000D02*
G75*
G03*
X172228000Y-86960000I0J-300000D01*
G01*
X173228000Y-88760000D02*
G75*
G03*
X172928000Y-88460000I-300000J0D01*
G01*
X172228000Y-86960000D02*
G75*
G03*
X172528000Y-87260000I300000J0D01*
G01*
X173228000Y-87560000D02*
G75*
G03*
X172928000Y-87260000I-300000J0D01*
G01*
X172228000Y-88160000D02*
G75*
G03*
X172528000Y-88460000I300000J0D01*
G01*
X172528000Y-87860000D02*
G75*
G03*
X172228000Y-88160000I0J-300000D01*
G01*
X172928000Y-86660000D02*
G75*
G03*
X173228000Y-86360000I0J300000D01*
G01*
X172928000Y-87860000D02*
G75*
G03*
X173228000Y-87560000I0J300000D01*
G01*
G04 #@! TO.N,/Rx-*
X173682000Y-92180500D02*
X172593000Y-93269500D01*
X170873000Y-81455000D02*
X172641000Y-81455000D01*
X169942000Y-82386000D02*
X170873000Y-81455000D01*
X172641000Y-81455000D02*
X173682000Y-82496000D01*
X173682000Y-82496000D02*
X173682000Y-92180500D01*
G04 #@! TO.N,JOG A*
X191516000Y-78740000D02*
X191516000Y-99822000D01*
X185904000Y-110280000D02*
X188719000Y-110280000D01*
X189738000Y-101600000D02*
X187384000Y-101600000D01*
X182372000Y-69596000D02*
X191516000Y-78740000D01*
X187384000Y-101600000D02*
X185904000Y-103080000D01*
X188719000Y-110280000D02*
X188722000Y-110283000D01*
X185904000Y-110280000D02*
X185904000Y-103080000D01*
X191516000Y-99822000D02*
X189738000Y-101600000D01*
G04 #@! TO.N,JOG B*
X185904000Y-92412000D02*
X185972000Y-92412000D01*
X185972000Y-92412000D02*
X188722000Y-89662000D01*
X185904000Y-99612000D02*
X188719000Y-99612000D01*
X185904000Y-99612000D02*
X185904000Y-92412000D01*
X188722000Y-78486000D02*
X179832000Y-69596000D01*
X188719000Y-99612000D02*
X188722000Y-99615000D01*
X188722000Y-89662000D02*
X188722000Y-78486000D01*
G04 #@! TO.N,HB_RVS*
X134112000Y-84836000D02*
X134112000Y-99949000D01*
G04 #@! TO.N,HB_FWD*
X136652000Y-84836000D02*
X136652000Y-99949000D01*
G04 #@! TD*
G04 #@! TA.AperFunction,Conductor*
G04 #@! TO.N,+12V*
G36*
X123895039Y-89427685D02*
G01*
X123940794Y-89480489D01*
X123952000Y-89532000D01*
X123952000Y-97920000D01*
X123932315Y-97987039D01*
X123879511Y-98032794D01*
X123828000Y-98044000D01*
X103756000Y-98044000D01*
X103688961Y-98024315D01*
X103643206Y-97971511D01*
X103632000Y-97920000D01*
X103632000Y-89532000D01*
X103651685Y-89464961D01*
X103704489Y-89419206D01*
X103756000Y-89408000D01*
X123828000Y-89408000D01*
X123895039Y-89427685D01*
G37*
G04 #@! TD.AperFunction*
G04 #@! TD*
G04 #@! TA.AperFunction,Conductor*
G04 #@! TO.N,GND*
G36*
X171038207Y-79882337D02*
G01*
X171091319Y-79927734D01*
X171111456Y-79994639D01*
X171105390Y-80033795D01*
X171075179Y-80126777D01*
X171052392Y-80196908D01*
X171032518Y-80386000D01*
X171052392Y-80575092D01*
X171052393Y-80575095D01*
X171111144Y-80755913D01*
X171111147Y-80755920D01*
X171158314Y-80837616D01*
X171160557Y-80841500D01*
X171177030Y-80909400D01*
X171154177Y-80975427D01*
X171099256Y-81018618D01*
X171053170Y-81027500D01*
X170900495Y-81027500D01*
X170893556Y-81027110D01*
X170880031Y-81025586D01*
X170856833Y-81022972D01*
X170818595Y-81030208D01*
X170802493Y-81033254D01*
X170800228Y-81033639D01*
X170745568Y-81041877D01*
X170737835Y-81044262D01*
X170730210Y-81046931D01*
X170681338Y-81072760D01*
X170679270Y-81073804D01*
X170629458Y-81097793D01*
X170622792Y-81102337D01*
X170616272Y-81107150D01*
X170577188Y-81146234D01*
X170575520Y-81147841D01*
X170534994Y-81185444D01*
X170529201Y-81192709D01*
X170528505Y-81192154D01*
X170519375Y-81204046D01*
X170253618Y-81469803D01*
X170192295Y-81503288D01*
X170140156Y-81503412D01*
X170037067Y-81481500D01*
X169846933Y-81481500D01*
X169660957Y-81521030D01*
X169487257Y-81598366D01*
X169333436Y-81710124D01*
X169206213Y-81851421D01*
X169111147Y-82016079D01*
X169111144Y-82016086D01*
X169052393Y-82196904D01*
X169052392Y-82196908D01*
X169032518Y-82386000D01*
X169052392Y-82575092D01*
X169052393Y-82575095D01*
X169111144Y-82755913D01*
X169111147Y-82755920D01*
X169206214Y-82920580D01*
X169333438Y-83061877D01*
X169487259Y-83173635D01*
X169660955Y-83250969D01*
X169846933Y-83290500D01*
X170037067Y-83290500D01*
X170223045Y-83250969D01*
X170396741Y-83173635D01*
X170550562Y-83061877D01*
X170677786Y-82920580D01*
X170772853Y-82755920D01*
X170824069Y-82598293D01*
X170863506Y-82540618D01*
X170927865Y-82513420D01*
X170996711Y-82525335D01*
X171048187Y-82572579D01*
X171059930Y-82598292D01*
X171065003Y-82613903D01*
X171111144Y-82755914D01*
X171111147Y-82755920D01*
X171206214Y-82920580D01*
X171333438Y-83061877D01*
X171487259Y-83173635D01*
X171660955Y-83250969D01*
X171846933Y-83290500D01*
X172037066Y-83290500D01*
X172037067Y-83290500D01*
X172140157Y-83268587D01*
X172209824Y-83273903D01*
X172253619Y-83302196D01*
X172691601Y-83740178D01*
X172725086Y-83801501D01*
X172720102Y-83871193D01*
X172678230Y-83927126D01*
X172612766Y-83951543D01*
X172567924Y-83946519D01*
X172399117Y-83895311D01*
X172399115Y-83895310D01*
X172212000Y-83876882D01*
X172024884Y-83895310D01*
X172024882Y-83895311D01*
X171844959Y-83949891D01*
X171679148Y-84038518D01*
X171679142Y-84038523D01*
X171533800Y-84157800D01*
X171414523Y-84303142D01*
X171414518Y-84303148D01*
X171325891Y-84468959D01*
X171271311Y-84648882D01*
X171271310Y-84648884D01*
X171252882Y-84836000D01*
X171271310Y-85023115D01*
X171271311Y-85023117D01*
X171325891Y-85203040D01*
X171414518Y-85368851D01*
X171414523Y-85368857D01*
X171533800Y-85514199D01*
X171679142Y-85633476D01*
X171679148Y-85633481D01*
X171810548Y-85703715D01*
X171844961Y-85722109D01*
X172024882Y-85776688D01*
X172024884Y-85776689D01*
X172041660Y-85778341D01*
X172212000Y-85795118D01*
X172399115Y-85776689D01*
X172579039Y-85722109D01*
X172618046Y-85701258D01*
X172686449Y-85687017D01*
X172751693Y-85712017D01*
X172793064Y-85768321D01*
X172800500Y-85810617D01*
X172800500Y-86108500D01*
X172780815Y-86175539D01*
X172728011Y-86221294D01*
X172676500Y-86232500D01*
X172456343Y-86232500D01*
X172315803Y-86260455D01*
X172315795Y-86260457D01*
X172183403Y-86315296D01*
X172183393Y-86315301D01*
X172064246Y-86394913D01*
X172064242Y-86394916D01*
X171962916Y-86496242D01*
X171962913Y-86496246D01*
X171883301Y-86615393D01*
X171883296Y-86615403D01*
X171828457Y-86747795D01*
X171828455Y-86747803D01*
X171800500Y-86888343D01*
X171800500Y-87031656D01*
X171828455Y-87172196D01*
X171828457Y-87172204D01*
X171883296Y-87304596D01*
X171883301Y-87304606D01*
X171962913Y-87423753D01*
X171962916Y-87423757D01*
X172011478Y-87472319D01*
X172044963Y-87533642D01*
X172039979Y-87603334D01*
X172011478Y-87647681D01*
X171962916Y-87696242D01*
X171962913Y-87696246D01*
X171883301Y-87815393D01*
X171883296Y-87815403D01*
X171828457Y-87947795D01*
X171828455Y-87947803D01*
X171800500Y-88088343D01*
X171800500Y-88231656D01*
X171828455Y-88372196D01*
X171828457Y-88372204D01*
X171883296Y-88504596D01*
X171883301Y-88504606D01*
X171962913Y-88623753D01*
X171962916Y-88623757D01*
X172064242Y-88725083D01*
X172064246Y-88725086D01*
X172183393Y-88804698D01*
X172183397Y-88804700D01*
X172183400Y-88804702D01*
X172315796Y-88859543D01*
X172456343Y-88887499D01*
X172456347Y-88887500D01*
X172456348Y-88887500D01*
X172463565Y-88887500D01*
X172676500Y-88887500D01*
X172743539Y-88907185D01*
X172789294Y-88959989D01*
X172800500Y-89011500D01*
X172800500Y-89866061D01*
X172780815Y-89933100D01*
X172764181Y-89953742D01*
X170319090Y-92398832D01*
X170257767Y-92432317D01*
X170205631Y-92432441D01*
X170142391Y-92419000D01*
X169963609Y-92419000D01*
X169932954Y-92425515D01*
X169788733Y-92456170D01*
X169788728Y-92456172D01*
X169625408Y-92528887D01*
X169480768Y-92633975D01*
X169361140Y-92766836D01*
X169271750Y-92921664D01*
X169271747Y-92921670D01*
X169216504Y-93091692D01*
X169216503Y-93091694D01*
X169197815Y-93269500D01*
X169216503Y-93447305D01*
X169216504Y-93447307D01*
X169271747Y-93617329D01*
X169271750Y-93617335D01*
X169361140Y-93772164D01*
X169434400Y-93853528D01*
X169464630Y-93916520D01*
X169456004Y-93985855D01*
X169411263Y-94039520D01*
X169344610Y-94060478D01*
X169342250Y-94060500D01*
X168959938Y-94060500D01*
X168892899Y-94040815D01*
X168872257Y-94024181D01*
X168386171Y-93538095D01*
X168352686Y-93476772D01*
X168350531Y-93437460D01*
X168368185Y-93269500D01*
X168349497Y-93091697D01*
X168294250Y-92921665D01*
X168204859Y-92766835D01*
X168158003Y-92714796D01*
X168085235Y-92633978D01*
X168085232Y-92633976D01*
X168085231Y-92633975D01*
X168085230Y-92633974D01*
X167991612Y-92565956D01*
X167948948Y-92510627D01*
X167940500Y-92465644D01*
X167940500Y-91030385D01*
X167960185Y-90963345D01*
X168012989Y-90917591D01*
X168018972Y-90915046D01*
X168105658Y-90880862D01*
X168223500Y-90791500D01*
X168312862Y-90673658D01*
X168367117Y-90536077D01*
X168377500Y-90449618D01*
X168377500Y-89890382D01*
X168367117Y-89803923D01*
X168312862Y-89666342D01*
X168272863Y-89613595D01*
X168223500Y-89548499D01*
X168105660Y-89459139D01*
X168105658Y-89459138D01*
X167968077Y-89404883D01*
X167968076Y-89404882D01*
X167968074Y-89404882D01*
X167881619Y-89394500D01*
X167881618Y-89394500D01*
X167197382Y-89394500D01*
X167197381Y-89394500D01*
X167110925Y-89404882D01*
X167110924Y-89404882D01*
X166973339Y-89459139D01*
X166855499Y-89548499D01*
X166766304Y-89666122D01*
X166710111Y-89707646D01*
X166640390Y-89712197D01*
X166579276Y-89678332D01*
X166546172Y-89616802D01*
X166543500Y-89591197D01*
X166543500Y-85810617D01*
X166563185Y-85743578D01*
X166615989Y-85697823D01*
X166685147Y-85687879D01*
X166725952Y-85701258D01*
X166764961Y-85722109D01*
X166901687Y-85763585D01*
X166944882Y-85776688D01*
X166944884Y-85776689D01*
X166961660Y-85778341D01*
X167132000Y-85795118D01*
X167319115Y-85776689D01*
X167499039Y-85722109D01*
X167592047Y-85672395D01*
X167664851Y-85633481D01*
X167664853Y-85633478D01*
X167664857Y-85633477D01*
X167810199Y-85514199D01*
X167929477Y-85368857D01*
X167929478Y-85368853D01*
X167929481Y-85368851D01*
X167995141Y-85246008D01*
X168018109Y-85203039D01*
X168072689Y-85023115D01*
X168091118Y-84836000D01*
X168712882Y-84836000D01*
X168731310Y-85023115D01*
X168731311Y-85023117D01*
X168785891Y-85203040D01*
X168874518Y-85368851D01*
X168874523Y-85368857D01*
X168993800Y-85514199D01*
X169139142Y-85633476D01*
X169139148Y-85633481D01*
X169270548Y-85703715D01*
X169304961Y-85722109D01*
X169484882Y-85776688D01*
X169484884Y-85776689D01*
X169501660Y-85778341D01*
X169672000Y-85795118D01*
X169859115Y-85776689D01*
X170039039Y-85722109D01*
X170132047Y-85672395D01*
X170204851Y-85633481D01*
X170204853Y-85633478D01*
X170204857Y-85633477D01*
X170350199Y-85514199D01*
X170469477Y-85368857D01*
X170469478Y-85368853D01*
X170469481Y-85368851D01*
X170535141Y-85246008D01*
X170558109Y-85203039D01*
X170612689Y-85023115D01*
X170631118Y-84836000D01*
X170612689Y-84648885D01*
X170558109Y-84468961D01*
X170553988Y-84461251D01*
X170469481Y-84303148D01*
X170469476Y-84303142D01*
X170350199Y-84157800D01*
X170204857Y-84038523D01*
X170204851Y-84038518D01*
X170039040Y-83949891D01*
X169859117Y-83895311D01*
X169859115Y-83895310D01*
X169672000Y-83876882D01*
X169484884Y-83895310D01*
X169484882Y-83895311D01*
X169304959Y-83949891D01*
X169139148Y-84038518D01*
X169139142Y-84038523D01*
X168993800Y-84157800D01*
X168874523Y-84303142D01*
X168874518Y-84303148D01*
X168785891Y-84468959D01*
X168731311Y-84648882D01*
X168731310Y-84648884D01*
X168712882Y-84836000D01*
X168091118Y-84836000D01*
X168072689Y-84648885D01*
X168018109Y-84468961D01*
X168013988Y-84461251D01*
X167929481Y-84303148D01*
X167929476Y-84303142D01*
X167810199Y-84157800D01*
X167664857Y-84038523D01*
X167664851Y-84038518D01*
X167499040Y-83949891D01*
X167319117Y-83895311D01*
X167319115Y-83895310D01*
X167132000Y-83876882D01*
X166944884Y-83895310D01*
X166944882Y-83895311D01*
X166764961Y-83949890D01*
X166725952Y-83970741D01*
X166657549Y-83984982D01*
X166592306Y-83959981D01*
X166550936Y-83903676D01*
X166543500Y-83861382D01*
X166543500Y-81508438D01*
X166563185Y-81441399D01*
X166579819Y-81420757D01*
X168081757Y-79918819D01*
X168143080Y-79885334D01*
X168169438Y-79882500D01*
X170845508Y-79882500D01*
X170852448Y-79882889D01*
X170889166Y-79887027D01*
X170889166Y-79887026D01*
X170889167Y-79887027D01*
X170907604Y-79883538D01*
X170943510Y-79876743D01*
X170945705Y-79876369D01*
X170968985Y-79872861D01*
X171038207Y-79882337D01*
G37*
G04 #@! TD.AperFunction*
G04 #@! TA.AperFunction,Conductor*
G36*
X194004238Y-67076185D02*
G01*
X194049993Y-67128989D01*
X194059937Y-67198147D01*
X194030912Y-67261703D01*
X193972134Y-67299477D01*
X193967797Y-67300666D01*
X193899272Y-67318114D01*
X193526549Y-67453774D01*
X193169191Y-67625869D01*
X192830753Y-67832684D01*
X192830742Y-67832692D01*
X192514575Y-68072180D01*
X192514572Y-68072182D01*
X192223813Y-68341968D01*
X191961365Y-68639359D01*
X191729839Y-68961393D01*
X191729826Y-68961413D01*
X191531516Y-69304896D01*
X191368382Y-69666437D01*
X191242059Y-70042419D01*
X191153799Y-70429111D01*
X191104478Y-70822681D01*
X191094590Y-71219173D01*
X191094590Y-71219187D01*
X191124230Y-71614711D01*
X191124231Y-71614724D01*
X191193108Y-72005339D01*
X191300530Y-72387137D01*
X191300534Y-72387151D01*
X191445435Y-72756353D01*
X191445440Y-72756365D01*
X191541488Y-72943714D01*
X191626391Y-73109323D01*
X191841586Y-73442509D01*
X191967691Y-73600640D01*
X192088895Y-73752625D01*
X192365823Y-74036544D01*
X192365833Y-74036554D01*
X192669676Y-74291508D01*
X192997394Y-74514942D01*
X193345730Y-74704636D01*
X193711223Y-74858704D01*
X193711232Y-74858706D01*
X193711238Y-74858709D01*
X194090235Y-74975614D01*
X194090248Y-74975617D01*
X194478999Y-75054205D01*
X194479014Y-75054208D01*
X194817300Y-75088058D01*
X194873680Y-75093700D01*
X194873681Y-75093700D01*
X195171084Y-75093700D01*
X195171101Y-75093700D01*
X195468145Y-75078875D01*
X195860353Y-75019759D01*
X196244726Y-74921886D01*
X196617445Y-74786228D01*
X196974803Y-74614133D01*
X197313251Y-74407312D01*
X197629424Y-74167820D01*
X197920181Y-73898037D01*
X198182631Y-73600645D01*
X198414166Y-73278600D01*
X198612485Y-72935101D01*
X198775617Y-72573563D01*
X198814275Y-72458502D01*
X198854286Y-72401224D01*
X198918912Y-72374668D01*
X198987636Y-72387269D01*
X199038639Y-72435024D01*
X199055818Y-72497995D01*
X199055818Y-107838559D01*
X199036133Y-107905598D01*
X198983329Y-107951353D01*
X198914171Y-107961297D01*
X198850615Y-107932272D01*
X198816390Y-107883861D01*
X198698564Y-107583646D01*
X198698559Y-107583634D01*
X198559863Y-107313097D01*
X198517609Y-107230677D01*
X198302414Y-106897491D01*
X198055114Y-106587386D01*
X198055111Y-106587383D01*
X198055104Y-106587374D01*
X197778176Y-106303455D01*
X197778173Y-106303452D01*
X197778172Y-106303451D01*
X197778167Y-106303446D01*
X197474324Y-106048492D01*
X197401613Y-105998918D01*
X197146605Y-105825057D01*
X197030494Y-105761826D01*
X196798270Y-105635364D01*
X196798262Y-105635360D01*
X196798259Y-105635359D01*
X196432777Y-105481296D01*
X196432761Y-105481290D01*
X196053764Y-105364385D01*
X196053751Y-105364382D01*
X195665000Y-105285794D01*
X195664979Y-105285791D01*
X195270320Y-105246300D01*
X195270319Y-105246300D01*
X194972899Y-105246300D01*
X194972884Y-105246300D01*
X194675855Y-105261124D01*
X194283647Y-105320241D01*
X193899272Y-105418114D01*
X193526549Y-105553774D01*
X193169191Y-105725869D01*
X192830753Y-105932684D01*
X192830742Y-105932692D01*
X192514575Y-106172180D01*
X192514572Y-106172182D01*
X192223813Y-106441968D01*
X191961365Y-106739359D01*
X191729839Y-107061393D01*
X191729826Y-107061413D01*
X191531516Y-107404896D01*
X191368382Y-107766437D01*
X191242059Y-108142419D01*
X191153799Y-108529111D01*
X191104478Y-108922681D01*
X191094590Y-109319173D01*
X191094590Y-109319187D01*
X191124230Y-109714711D01*
X191124231Y-109714724D01*
X191193108Y-110105339D01*
X191300530Y-110487137D01*
X191300534Y-110487151D01*
X191445435Y-110856353D01*
X191445440Y-110856365D01*
X191595971Y-111149987D01*
X191626391Y-111209323D01*
X191841586Y-111542509D01*
X192088886Y-111852614D01*
X192088895Y-111852625D01*
X192327362Y-112097112D01*
X192365833Y-112136554D01*
X192669676Y-112391508D01*
X192997394Y-112614942D01*
X193345730Y-112804636D01*
X193711223Y-112958704D01*
X193711232Y-112958706D01*
X193711238Y-112958709D01*
X193978048Y-113041009D01*
X194036307Y-113079579D01*
X194064464Y-113143524D01*
X194053581Y-113212541D01*
X194007113Y-113264717D01*
X193941498Y-113283500D01*
X102393214Y-113283500D01*
X102326175Y-113263815D01*
X102280420Y-113211011D01*
X102270476Y-113141853D01*
X102299501Y-113078297D01*
X102350804Y-113042978D01*
X102356214Y-113041009D01*
X102555025Y-112968648D01*
X102912383Y-112796553D01*
X102948241Y-112774641D01*
X103250826Y-112589735D01*
X103250825Y-112589735D01*
X103250831Y-112589732D01*
X103567004Y-112350240D01*
X103857761Y-112080457D01*
X104120211Y-111783065D01*
X104351746Y-111461020D01*
X104550065Y-111117521D01*
X104713197Y-110755983D01*
X104839521Y-110379998D01*
X104927781Y-109993305D01*
X104977101Y-109599745D01*
X104981206Y-109435117D01*
X104986989Y-109203246D01*
X104986989Y-109203230D01*
X104980813Y-109120810D01*
X104957349Y-108807700D01*
X104918081Y-108585001D01*
X128321454Y-108585001D01*
X128341613Y-108866866D01*
X128396856Y-109120810D01*
X128401680Y-109142984D01*
X128440103Y-109246000D01*
X128500432Y-109407750D01*
X128500434Y-109407754D01*
X128635855Y-109655758D01*
X128635860Y-109655766D01*
X128805196Y-109881974D01*
X128805212Y-109881992D01*
X129005007Y-110081787D01*
X129005025Y-110081803D01*
X129231233Y-110251139D01*
X129231241Y-110251144D01*
X129479245Y-110386565D01*
X129479249Y-110386567D01*
X129479251Y-110386568D01*
X129744016Y-110485320D01*
X129871466Y-110513045D01*
X130020133Y-110545386D01*
X130020135Y-110545386D01*
X130020139Y-110545387D01*
X130231447Y-110560500D01*
X130372553Y-110560500D01*
X130583861Y-110545387D01*
X130859984Y-110485320D01*
X131124749Y-110386568D01*
X131372764Y-110251141D01*
X131598982Y-110081797D01*
X131798797Y-109881982D01*
X131968141Y-109655764D01*
X132103568Y-109407749D01*
X132202320Y-109142984D01*
X132262387Y-108866861D01*
X132282546Y-108585001D01*
X135941454Y-108585001D01*
X135961613Y-108866866D01*
X136016856Y-109120810D01*
X136021680Y-109142984D01*
X136060103Y-109246000D01*
X136120432Y-109407750D01*
X136120434Y-109407754D01*
X136255855Y-109655758D01*
X136255860Y-109655766D01*
X136425196Y-109881974D01*
X136425212Y-109881992D01*
X136625007Y-110081787D01*
X136625025Y-110081803D01*
X136851233Y-110251139D01*
X136851241Y-110251144D01*
X137099245Y-110386565D01*
X137099249Y-110386567D01*
X137099251Y-110386568D01*
X137364016Y-110485320D01*
X137491466Y-110513045D01*
X137640133Y-110545386D01*
X137640135Y-110545386D01*
X137640139Y-110545387D01*
X137851447Y-110560500D01*
X137992553Y-110560500D01*
X138203861Y-110545387D01*
X138479984Y-110485320D01*
X138744749Y-110386568D01*
X138992764Y-110251141D01*
X139218982Y-110081797D01*
X139418797Y-109881982D01*
X139588141Y-109655764D01*
X139723568Y-109407749D01*
X139822320Y-109142984D01*
X139882387Y-108866861D01*
X139902546Y-108585001D01*
X142291454Y-108585001D01*
X142311613Y-108866866D01*
X142366856Y-109120810D01*
X142371680Y-109142984D01*
X142410103Y-109246000D01*
X142470432Y-109407750D01*
X142470434Y-109407754D01*
X142605855Y-109655758D01*
X142605860Y-109655766D01*
X142775196Y-109881974D01*
X142775212Y-109881992D01*
X142975007Y-110081787D01*
X142975025Y-110081803D01*
X143201233Y-110251139D01*
X143201241Y-110251144D01*
X143449245Y-110386565D01*
X143449249Y-110386567D01*
X143449251Y-110386568D01*
X143714016Y-110485320D01*
X143841466Y-110513045D01*
X143990133Y-110545386D01*
X143990135Y-110545386D01*
X143990139Y-110545387D01*
X144201447Y-110560500D01*
X144342553Y-110560500D01*
X144553861Y-110545387D01*
X144829984Y-110485320D01*
X145094749Y-110386568D01*
X145342764Y-110251141D01*
X145568982Y-110081797D01*
X145768797Y-109881982D01*
X145938141Y-109655764D01*
X146073568Y-109407749D01*
X146172320Y-109142984D01*
X146232387Y-108866861D01*
X146252546Y-108585001D01*
X154991454Y-108585001D01*
X155011613Y-108866866D01*
X155066856Y-109120810D01*
X155071680Y-109142984D01*
X155110103Y-109246000D01*
X155170432Y-109407750D01*
X155170434Y-109407754D01*
X155305855Y-109655758D01*
X155305860Y-109655766D01*
X155475196Y-109881974D01*
X155475212Y-109881992D01*
X155675007Y-110081787D01*
X155675025Y-110081803D01*
X155901233Y-110251139D01*
X155901241Y-110251144D01*
X156149245Y-110386565D01*
X156149249Y-110386567D01*
X156149251Y-110386568D01*
X156414016Y-110485320D01*
X156541466Y-110513045D01*
X156690133Y-110545386D01*
X156690135Y-110545386D01*
X156690139Y-110545387D01*
X156901447Y-110560500D01*
X157042553Y-110560500D01*
X157253861Y-110545387D01*
X157529984Y-110485320D01*
X157794749Y-110386568D01*
X158042764Y-110251141D01*
X158268982Y-110081797D01*
X158468797Y-109881982D01*
X158638141Y-109655764D01*
X158773568Y-109407749D01*
X158872320Y-109142984D01*
X158932387Y-108866861D01*
X158952546Y-108585000D01*
X158932387Y-108303139D01*
X158921880Y-108254841D01*
X158883721Y-108079425D01*
X158872320Y-108027016D01*
X158773568Y-107762251D01*
X158757598Y-107733005D01*
X158638144Y-107514241D01*
X158638139Y-107514233D01*
X158468803Y-107288025D01*
X158468787Y-107288007D01*
X158268992Y-107088212D01*
X158268974Y-107088196D01*
X158042766Y-106918860D01*
X158042758Y-106918855D01*
X157794754Y-106783434D01*
X157794750Y-106783432D01*
X157676574Y-106739355D01*
X157529984Y-106684680D01*
X157529980Y-106684679D01*
X157529977Y-106684678D01*
X157253866Y-106624613D01*
X157042555Y-106609500D01*
X157042553Y-106609500D01*
X156901447Y-106609500D01*
X156901444Y-106609500D01*
X156690133Y-106624613D01*
X156414022Y-106684678D01*
X156414017Y-106684679D01*
X156414016Y-106684680D01*
X156350003Y-106708555D01*
X156149249Y-106783432D01*
X156149245Y-106783434D01*
X155901241Y-106918855D01*
X155901233Y-106918860D01*
X155675025Y-107088196D01*
X155675007Y-107088212D01*
X155475212Y-107288007D01*
X155475196Y-107288025D01*
X155305860Y-107514233D01*
X155305855Y-107514241D01*
X155170434Y-107762245D01*
X155170432Y-107762249D01*
X155071678Y-108027022D01*
X155011613Y-108303133D01*
X154991454Y-108584998D01*
X154991454Y-108585001D01*
X146252546Y-108585001D01*
X146252546Y-108585000D01*
X146232387Y-108303139D01*
X146221880Y-108254841D01*
X146183721Y-108079425D01*
X146172320Y-108027016D01*
X146073568Y-107762251D01*
X146057598Y-107733005D01*
X145938144Y-107514241D01*
X145938139Y-107514233D01*
X145768803Y-107288025D01*
X145768787Y-107288007D01*
X145568992Y-107088212D01*
X145568974Y-107088196D01*
X145342766Y-106918860D01*
X145342758Y-106918855D01*
X145094754Y-106783434D01*
X145094750Y-106783432D01*
X144976574Y-106739355D01*
X144829984Y-106684680D01*
X144829980Y-106684679D01*
X144829977Y-106684678D01*
X144553866Y-106624613D01*
X144342555Y-106609500D01*
X144342553Y-106609500D01*
X144201447Y-106609500D01*
X144201444Y-106609500D01*
X143990133Y-106624613D01*
X143714022Y-106684678D01*
X143714017Y-106684679D01*
X143714016Y-106684680D01*
X143650003Y-106708555D01*
X143449249Y-106783432D01*
X143449245Y-106783434D01*
X143201241Y-106918855D01*
X143201233Y-106918860D01*
X142975025Y-107088196D01*
X142975007Y-107088212D01*
X142775212Y-107288007D01*
X142775196Y-107288025D01*
X142605860Y-107514233D01*
X142605855Y-107514241D01*
X142470434Y-107762245D01*
X142470432Y-107762249D01*
X142371678Y-108027022D01*
X142311613Y-108303133D01*
X142291454Y-108584998D01*
X142291454Y-108585001D01*
X139902546Y-108585001D01*
X139902546Y-108585000D01*
X139882387Y-108303139D01*
X139871880Y-108254841D01*
X139833721Y-108079425D01*
X139822320Y-108027016D01*
X139723568Y-107762251D01*
X139707598Y-107733005D01*
X139588144Y-107514241D01*
X139588139Y-107514233D01*
X139418803Y-107288025D01*
X139418787Y-107288007D01*
X139218992Y-107088212D01*
X139218974Y-107088196D01*
X138992766Y-106918860D01*
X138992758Y-106918855D01*
X138744754Y-106783434D01*
X138744750Y-106783432D01*
X138626574Y-106739355D01*
X138479984Y-106684680D01*
X138479980Y-106684679D01*
X138479977Y-106684678D01*
X138203866Y-106624613D01*
X137992555Y-106609500D01*
X137992553Y-106609500D01*
X137851447Y-106609500D01*
X137851444Y-106609500D01*
X137640133Y-106624613D01*
X137364022Y-106684678D01*
X137364017Y-106684679D01*
X137364016Y-106684680D01*
X137300003Y-106708555D01*
X137099249Y-106783432D01*
X137099245Y-106783434D01*
X136851241Y-106918855D01*
X136851233Y-106918860D01*
X136625025Y-107088196D01*
X136625007Y-107088212D01*
X136425212Y-107288007D01*
X136425196Y-107288025D01*
X136255860Y-107514233D01*
X136255855Y-107514241D01*
X136120434Y-107762245D01*
X136120432Y-107762249D01*
X136021678Y-108027022D01*
X135961613Y-108303133D01*
X135941454Y-108584998D01*
X135941454Y-108585001D01*
X132282546Y-108585001D01*
X132282546Y-108585000D01*
X132262387Y-108303139D01*
X132251880Y-108254841D01*
X132213721Y-108079425D01*
X132202320Y-108027016D01*
X132103568Y-107762251D01*
X132087598Y-107733005D01*
X131968144Y-107514241D01*
X131968139Y-107514233D01*
X131798803Y-107288025D01*
X131798787Y-107288007D01*
X131598992Y-107088212D01*
X131598974Y-107088196D01*
X131372766Y-106918860D01*
X131372758Y-106918855D01*
X131124754Y-106783434D01*
X131124750Y-106783432D01*
X131006574Y-106739355D01*
X130859984Y-106684680D01*
X130859980Y-106684679D01*
X130859977Y-106684678D01*
X130583866Y-106624613D01*
X130372555Y-106609500D01*
X130372553Y-106609500D01*
X130231447Y-106609500D01*
X130231444Y-106609500D01*
X130020133Y-106624613D01*
X129744022Y-106684678D01*
X129744017Y-106684679D01*
X129744016Y-106684680D01*
X129680003Y-106708555D01*
X129479249Y-106783432D01*
X129479245Y-106783434D01*
X129231241Y-106918855D01*
X129231233Y-106918860D01*
X129005025Y-107088196D01*
X129005007Y-107088212D01*
X128805212Y-107288007D01*
X128805196Y-107288025D01*
X128635860Y-107514233D01*
X128635855Y-107514241D01*
X128500434Y-107762245D01*
X128500432Y-107762249D01*
X128401678Y-108027022D01*
X128341613Y-108303133D01*
X128321454Y-108584998D01*
X128321454Y-108585001D01*
X104918081Y-108585001D01*
X104888473Y-108417088D01*
X104781047Y-108035274D01*
X104777808Y-108027022D01*
X104636144Y-107666066D01*
X104636138Y-107666052D01*
X104455193Y-107313105D01*
X104455189Y-107313097D01*
X104239994Y-106979911D01*
X103992694Y-106669806D01*
X103992691Y-106669803D01*
X103992684Y-106669794D01*
X103715756Y-106385875D01*
X103715753Y-106385872D01*
X103715752Y-106385871D01*
X103715747Y-106385866D01*
X103411904Y-106130912D01*
X103291010Y-106048488D01*
X103084185Y-105907477D01*
X102929516Y-105823249D01*
X102735850Y-105717784D01*
X102735842Y-105717780D01*
X102735839Y-105717779D01*
X102370357Y-105563716D01*
X102370341Y-105563710D01*
X101991344Y-105446805D01*
X101991331Y-105446802D01*
X101602580Y-105368214D01*
X101602559Y-105368211D01*
X101207900Y-105328720D01*
X101207899Y-105328720D01*
X100910479Y-105328720D01*
X100910464Y-105328720D01*
X100613435Y-105343544D01*
X100221227Y-105402661D01*
X99836852Y-105500534D01*
X99464129Y-105636194D01*
X99106771Y-105808289D01*
X98768333Y-106015104D01*
X98768322Y-106015112D01*
X98452155Y-106254600D01*
X98452152Y-106254602D01*
X98161393Y-106524388D01*
X97898945Y-106821779D01*
X97667419Y-107143813D01*
X97667406Y-107143833D01*
X97469096Y-107487316D01*
X97305962Y-107848857D01*
X97270043Y-107955767D01*
X97230032Y-108013047D01*
X97165406Y-108039602D01*
X97096681Y-108027001D01*
X97045679Y-107979246D01*
X97028500Y-107916275D01*
X97028500Y-100346166D01*
X97611972Y-100346166D01*
X97622249Y-100400475D01*
X97622637Y-100402760D01*
X97630878Y-100457432D01*
X97633256Y-100465140D01*
X97635934Y-100472795D01*
X97661765Y-100521669D01*
X97662809Y-100523738D01*
X97686794Y-100573542D01*
X97691339Y-100580208D01*
X97696147Y-100586723D01*
X97696149Y-100586726D01*
X97735258Y-100625835D01*
X97736841Y-100627479D01*
X97774447Y-100668008D01*
X97774452Y-100668011D01*
X97781712Y-100673801D01*
X97781154Y-100674499D01*
X97793051Y-100683628D01*
X100008266Y-102898842D01*
X100012902Y-102904030D01*
X100028155Y-102923156D01*
X100035942Y-102932920D01*
X100081633Y-102964072D01*
X100083499Y-102965397D01*
X100094082Y-102973207D01*
X100127986Y-102998229D01*
X100127987Y-102998229D01*
X100127988Y-102998230D01*
X100135130Y-103002005D01*
X100142416Y-103005513D01*
X100142419Y-103005515D01*
X100195298Y-103021825D01*
X100197431Y-103022528D01*
X100249625Y-103040792D01*
X100249627Y-103040792D01*
X100257553Y-103042291D01*
X100265563Y-103043499D01*
X100265565Y-103043500D01*
X100320856Y-103043500D01*
X100323138Y-103043542D01*
X100375443Y-103045499D01*
X100378404Y-103045610D01*
X100378404Y-103045609D01*
X100378405Y-103045610D01*
X100378405Y-103045609D01*
X100387637Y-103044570D01*
X100387737Y-103045457D01*
X100402604Y-103043500D01*
X128840565Y-103043500D01*
X128877508Y-103043500D01*
X128884448Y-103043889D01*
X128913723Y-103047188D01*
X128921165Y-103048027D01*
X128921165Y-103048026D01*
X128921166Y-103048027D01*
X128933665Y-103045661D01*
X128956719Y-103043500D01*
X155219561Y-103043500D01*
X155286600Y-103063185D01*
X155307242Y-103079819D01*
X162790266Y-110562842D01*
X162794902Y-110568030D01*
X162800555Y-110575118D01*
X162817942Y-110596920D01*
X162863633Y-110628072D01*
X162865499Y-110629397D01*
X162893353Y-110649953D01*
X162909986Y-110662229D01*
X162909987Y-110662229D01*
X162909988Y-110662230D01*
X162917130Y-110666005D01*
X162924416Y-110669513D01*
X162924419Y-110669515D01*
X162977298Y-110685825D01*
X162979431Y-110686528D01*
X163031625Y-110704792D01*
X163031627Y-110704792D01*
X163039553Y-110706291D01*
X163047563Y-110707499D01*
X163047565Y-110707500D01*
X163102839Y-110707500D01*
X163105124Y-110707542D01*
X163160405Y-110709611D01*
X163160405Y-110709610D01*
X163160406Y-110709611D01*
X163169640Y-110708571D01*
X163169739Y-110709457D01*
X163184610Y-110707500D01*
X178751565Y-110707500D01*
X178788508Y-110707500D01*
X178795448Y-110707889D01*
X178824723Y-110711188D01*
X178832165Y-110712027D01*
X178832165Y-110712026D01*
X178832166Y-110712027D01*
X178844665Y-110709661D01*
X178867719Y-110707500D01*
X181779501Y-110707500D01*
X181846540Y-110727185D01*
X181892295Y-110779989D01*
X181903501Y-110831500D01*
X181903501Y-111124856D01*
X181903502Y-111124882D01*
X181906413Y-111149987D01*
X181906415Y-111149991D01*
X181951793Y-111252764D01*
X181951794Y-111252765D01*
X182031235Y-111332206D01*
X182134009Y-111377585D01*
X182159135Y-111380500D01*
X183648864Y-111380499D01*
X183648879Y-111380497D01*
X183648882Y-111380497D01*
X183673987Y-111377586D01*
X183673988Y-111377585D01*
X183673991Y-111377585D01*
X183776765Y-111332206D01*
X183856206Y-111252765D01*
X183901585Y-111149991D01*
X183904500Y-111124865D01*
X183904499Y-109435136D01*
X183904497Y-109435117D01*
X183901586Y-109410012D01*
X183901585Y-109410010D01*
X183901585Y-109410009D01*
X183856206Y-109307235D01*
X183776765Y-109227794D01*
X183721133Y-109203230D01*
X183673992Y-109182415D01*
X183648865Y-109179500D01*
X182159143Y-109179500D01*
X182159117Y-109179502D01*
X182134012Y-109182413D01*
X182134008Y-109182415D01*
X182031235Y-109227793D01*
X181951794Y-109307234D01*
X181906415Y-109410006D01*
X181906415Y-109410008D01*
X181903500Y-109435131D01*
X181903500Y-109728500D01*
X181883815Y-109795539D01*
X181831011Y-109841294D01*
X181779500Y-109852500D01*
X180147439Y-109852500D01*
X180080400Y-109832815D01*
X180034645Y-109780011D01*
X180024701Y-109710853D01*
X180053726Y-109647297D01*
X180059758Y-109640819D01*
X180593565Y-109107011D01*
X181130854Y-108569720D01*
X181136022Y-108565101D01*
X181164920Y-108542058D01*
X181196075Y-108496361D01*
X181197405Y-108494488D01*
X181230229Y-108450014D01*
X181230230Y-108450010D01*
X181233991Y-108442896D01*
X181237511Y-108435585D01*
X181237515Y-108435581D01*
X181253820Y-108382716D01*
X181254531Y-108380560D01*
X181272792Y-108328374D01*
X181274295Y-108320423D01*
X181275500Y-108312437D01*
X181275500Y-108257160D01*
X181275542Y-108254876D01*
X181277611Y-108199595D01*
X181276571Y-108190364D01*
X181277461Y-108190263D01*
X181275500Y-108175399D01*
X181275500Y-105364436D01*
X181295185Y-105297398D01*
X181311814Y-105276760D01*
X182371757Y-104216817D01*
X182433080Y-104183333D01*
X182459438Y-104180499D01*
X183648856Y-104180499D01*
X183648864Y-104180499D01*
X183648879Y-104180497D01*
X183648882Y-104180497D01*
X183673987Y-104177586D01*
X183673988Y-104177585D01*
X183673991Y-104177585D01*
X183776765Y-104132206D01*
X183856206Y-104052765D01*
X183901585Y-103949991D01*
X183904500Y-103924865D01*
X183904499Y-102235136D01*
X183904497Y-102235117D01*
X183901586Y-102210012D01*
X183901585Y-102210010D01*
X183901585Y-102210009D01*
X183856206Y-102107235D01*
X183776765Y-102027794D01*
X183732090Y-102008068D01*
X183673992Y-101982415D01*
X183648865Y-101979500D01*
X182159143Y-101979500D01*
X182159117Y-101979502D01*
X182134012Y-101982413D01*
X182134008Y-101982415D01*
X182031235Y-102027793D01*
X181951794Y-102107234D01*
X181906415Y-102210006D01*
X181906415Y-102210008D01*
X181903500Y-102235131D01*
X181903499Y-102235137D01*
X181903500Y-103424560D01*
X181883815Y-103491599D01*
X181867181Y-103512241D01*
X181487181Y-103892241D01*
X181425858Y-103925726D01*
X181356166Y-103920742D01*
X181300233Y-103878870D01*
X181275816Y-103813406D01*
X181275500Y-103804560D01*
X181275500Y-101896437D01*
X181295185Y-101829398D01*
X181311814Y-101808760D01*
X182371757Y-100748817D01*
X182433080Y-100715333D01*
X182459438Y-100712499D01*
X183648856Y-100712499D01*
X183648864Y-100712499D01*
X183648879Y-100712497D01*
X183648882Y-100712497D01*
X183673987Y-100709586D01*
X183673988Y-100709585D01*
X183673991Y-100709585D01*
X183776765Y-100664206D01*
X183856206Y-100584765D01*
X183901585Y-100481991D01*
X183904500Y-100456865D01*
X183904499Y-98767136D01*
X183902451Y-98749475D01*
X183901586Y-98742012D01*
X183901585Y-98742010D01*
X183901585Y-98742009D01*
X183856206Y-98639235D01*
X183776765Y-98559794D01*
X183768940Y-98556339D01*
X183673992Y-98514415D01*
X183648865Y-98511500D01*
X182159143Y-98511500D01*
X182159117Y-98511502D01*
X182134012Y-98514413D01*
X182134008Y-98514415D01*
X182031235Y-98559793D01*
X181951794Y-98639234D01*
X181906415Y-98742006D01*
X181906415Y-98742008D01*
X181903500Y-98767131D01*
X181903499Y-98767137D01*
X181903500Y-99956560D01*
X181883815Y-100023599D01*
X181867181Y-100044241D01*
X181487181Y-100424241D01*
X181425858Y-100457726D01*
X181356166Y-100452742D01*
X181300233Y-100410870D01*
X181275816Y-100345406D01*
X181275500Y-100336560D01*
X181275500Y-94716437D01*
X181295185Y-94649398D01*
X181311814Y-94628760D01*
X182391757Y-93548817D01*
X182453080Y-93515333D01*
X182479438Y-93512499D01*
X183648856Y-93512499D01*
X183648864Y-93512499D01*
X183648879Y-93512497D01*
X183648882Y-93512497D01*
X183673987Y-93509586D01*
X183673988Y-93509585D01*
X183673991Y-93509585D01*
X183776765Y-93464206D01*
X183856206Y-93384765D01*
X183901585Y-93281991D01*
X183904500Y-93256865D01*
X183904499Y-91567136D01*
X183904497Y-91567117D01*
X183901586Y-91542012D01*
X183901585Y-91542010D01*
X183901585Y-91542009D01*
X183856206Y-91439235D01*
X183776765Y-91359794D01*
X183776763Y-91359793D01*
X183673992Y-91314415D01*
X183648865Y-91311500D01*
X182159143Y-91311500D01*
X182159117Y-91311502D01*
X182134012Y-91314413D01*
X182134008Y-91314415D01*
X182031235Y-91359793D01*
X181951794Y-91439234D01*
X181906415Y-91542006D01*
X181906415Y-91542008D01*
X181903500Y-91567131D01*
X181903499Y-91567137D01*
X181903500Y-92776560D01*
X181883815Y-92843599D01*
X181867181Y-92864241D01*
X180565156Y-94166267D01*
X180559968Y-94170903D01*
X180531079Y-94193942D01*
X180499932Y-94239624D01*
X180498592Y-94241513D01*
X180465771Y-94285984D01*
X180461994Y-94293129D01*
X180458484Y-94300420D01*
X180442184Y-94353259D01*
X180441460Y-94355458D01*
X180423207Y-94407626D01*
X180421710Y-94415538D01*
X180420500Y-94423568D01*
X180420500Y-94478838D01*
X180420457Y-94481123D01*
X180419637Y-94503043D01*
X180418388Y-94536406D01*
X180419429Y-94545640D01*
X180418540Y-94545740D01*
X180420500Y-94560609D01*
X180420500Y-101658838D01*
X180420457Y-101661123D01*
X180419770Y-101679496D01*
X180418388Y-101716406D01*
X180419429Y-101725640D01*
X180418540Y-101725740D01*
X180420500Y-101740609D01*
X180420500Y-105126838D01*
X180420457Y-105129123D01*
X180419637Y-105151043D01*
X180418388Y-105184406D01*
X180419429Y-105193640D01*
X180418540Y-105193740D01*
X180420500Y-105208609D01*
X180420500Y-108019561D01*
X180400815Y-108086600D01*
X180384181Y-108107242D01*
X178675243Y-109816181D01*
X178613920Y-109849666D01*
X178587562Y-109852500D01*
X163340439Y-109852500D01*
X163273400Y-109832815D01*
X163252758Y-109816181D01*
X160676077Y-107239500D01*
X173467659Y-107239500D01*
X173486975Y-107435629D01*
X173486976Y-107435632D01*
X173510819Y-107514233D01*
X173544188Y-107624233D01*
X173637086Y-107798032D01*
X173637090Y-107798039D01*
X173762116Y-107950383D01*
X173914460Y-108075409D01*
X173914467Y-108075413D01*
X174088266Y-108168311D01*
X174088269Y-108168311D01*
X174088273Y-108168314D01*
X174276868Y-108225524D01*
X174473000Y-108244841D01*
X174669132Y-108225524D01*
X174857727Y-108168314D01*
X174906168Y-108142422D01*
X174944632Y-108121862D01*
X175031538Y-108075410D01*
X175183883Y-107950383D01*
X175308910Y-107798038D01*
X175365237Y-107692658D01*
X175401811Y-107624233D01*
X175401811Y-107624232D01*
X175401814Y-107624227D01*
X175459024Y-107435632D01*
X175478341Y-107239500D01*
X175459024Y-107043368D01*
X175401814Y-106854773D01*
X175401811Y-106854769D01*
X175401811Y-106854766D01*
X175308913Y-106680967D01*
X175308909Y-106680960D01*
X175183883Y-106528616D01*
X175031539Y-106403590D01*
X175031532Y-106403586D01*
X174857733Y-106310688D01*
X174857727Y-106310686D01*
X174672844Y-106254602D01*
X174669129Y-106253475D01*
X174473000Y-106234159D01*
X174276870Y-106253475D01*
X174088266Y-106310688D01*
X173914467Y-106403586D01*
X173914460Y-106403590D01*
X173762116Y-106528616D01*
X173637090Y-106680960D01*
X173637086Y-106680967D01*
X173544188Y-106854766D01*
X173486975Y-107043370D01*
X173467659Y-107239500D01*
X160676077Y-107239500D01*
X160023951Y-106587374D01*
X156691756Y-103255180D01*
X156658272Y-103193858D01*
X156663256Y-103124166D01*
X156705128Y-103068233D01*
X156770592Y-103043816D01*
X156779438Y-103043500D01*
X158214508Y-103043500D01*
X158221448Y-103043889D01*
X158258166Y-103048027D01*
X158258166Y-103048026D01*
X158258167Y-103048027D01*
X158276435Y-103044570D01*
X158312510Y-103037743D01*
X158314697Y-103037371D01*
X158369431Y-103029122D01*
X158369436Y-103029119D01*
X158377164Y-103026735D01*
X158384784Y-103024068D01*
X158384789Y-103024068D01*
X158433676Y-102998230D01*
X158435719Y-102997198D01*
X158485540Y-102973207D01*
X158485539Y-102973207D01*
X158492211Y-102968657D01*
X158498718Y-102963854D01*
X158498726Y-102963851D01*
X158537835Y-102924740D01*
X158539458Y-102923176D01*
X158580008Y-102885553D01*
X158580010Y-102885549D01*
X158585805Y-102878283D01*
X158586507Y-102878843D01*
X158595627Y-102866948D01*
X159303074Y-102159500D01*
X162667564Y-102159500D01*
X162672521Y-102235137D01*
X162687287Y-102460418D01*
X162687288Y-102460430D01*
X162746118Y-102756183D01*
X162746122Y-102756198D01*
X162843053Y-103041747D01*
X162843062Y-103041768D01*
X162976431Y-103312213D01*
X162976435Y-103312220D01*
X163143973Y-103562959D01*
X163342810Y-103789689D01*
X163569540Y-103988526D01*
X163820279Y-104156064D01*
X163820286Y-104156068D01*
X164090731Y-104289437D01*
X164090736Y-104289439D01*
X164090748Y-104289445D01*
X164376309Y-104386380D01*
X164576251Y-104426151D01*
X164672069Y-104445211D01*
X164672070Y-104445211D01*
X164672080Y-104445213D01*
X164973000Y-104464936D01*
X165273920Y-104445213D01*
X165569691Y-104386380D01*
X165855252Y-104289445D01*
X166125718Y-104156066D01*
X166376461Y-103988525D01*
X166603189Y-103789689D01*
X166802025Y-103562961D01*
X166969566Y-103312218D01*
X167102945Y-103041752D01*
X167199880Y-102756191D01*
X167258713Y-102460420D01*
X167278436Y-102159500D01*
X167258713Y-101858580D01*
X167199880Y-101562809D01*
X167102945Y-101277248D01*
X167098349Y-101267929D01*
X166969568Y-101006786D01*
X166969564Y-101006779D01*
X166802026Y-100756040D01*
X166603189Y-100529310D01*
X166376459Y-100330473D01*
X166125720Y-100162935D01*
X166125713Y-100162931D01*
X165855268Y-100029562D01*
X165855247Y-100029553D01*
X165569698Y-99932622D01*
X165569692Y-99932620D01*
X165569691Y-99932620D01*
X165569689Y-99932619D01*
X165569683Y-99932618D01*
X165273930Y-99873788D01*
X165273921Y-99873787D01*
X165273920Y-99873787D01*
X164973000Y-99854064D01*
X164672080Y-99873787D01*
X164672079Y-99873787D01*
X164672069Y-99873788D01*
X164376316Y-99932618D01*
X164376301Y-99932622D01*
X164090752Y-100029553D01*
X164090731Y-100029562D01*
X163820286Y-100162931D01*
X163820279Y-100162935D01*
X163569540Y-100330473D01*
X163342810Y-100529310D01*
X163143973Y-100756040D01*
X162976435Y-101006779D01*
X162976431Y-101006786D01*
X162843062Y-101277231D01*
X162843053Y-101277252D01*
X162746122Y-101562801D01*
X162746118Y-101562816D01*
X162687288Y-101858569D01*
X162687287Y-101858579D01*
X162687287Y-101858580D01*
X162667564Y-102159500D01*
X159303074Y-102159500D01*
X159945354Y-101517220D01*
X159950522Y-101512601D01*
X159979420Y-101489558D01*
X160010584Y-101443846D01*
X160011907Y-101441984D01*
X160044728Y-101397514D01*
X160044730Y-101397505D01*
X160048530Y-101390318D01*
X160052015Y-101383081D01*
X160068312Y-101330246D01*
X160069037Y-101328042D01*
X160081355Y-101292841D01*
X160087292Y-101275875D01*
X160087292Y-101275872D01*
X160088795Y-101267929D01*
X160090000Y-101259937D01*
X160090000Y-101204644D01*
X160090042Y-101202361D01*
X160092110Y-101147095D01*
X160091070Y-101137863D01*
X160091956Y-101137763D01*
X160090000Y-101122895D01*
X160090000Y-97350218D01*
X160109685Y-97283179D01*
X160162489Y-97237424D01*
X160168512Y-97234863D01*
X160178658Y-97230862D01*
X160296500Y-97141500D01*
X160385862Y-97023658D01*
X160440117Y-96886077D01*
X160450500Y-96799618D01*
X160450500Y-96240382D01*
X160440117Y-96153923D01*
X160385862Y-96016342D01*
X160385860Y-96016339D01*
X160296500Y-95898499D01*
X160178660Y-95809139D01*
X160178658Y-95809138D01*
X160041077Y-95754883D01*
X160041076Y-95754882D01*
X160041074Y-95754882D01*
X159954619Y-95744500D01*
X159954618Y-95744500D01*
X159370382Y-95744500D01*
X159370381Y-95744500D01*
X159283925Y-95754882D01*
X159283924Y-95754882D01*
X159146339Y-95809139D01*
X159028499Y-95898499D01*
X158939139Y-96016339D01*
X158884882Y-96153924D01*
X158884882Y-96153925D01*
X158874500Y-96240381D01*
X158874500Y-96799618D01*
X158884882Y-96886074D01*
X158884882Y-96886075D01*
X158939139Y-97023660D01*
X159028499Y-97141500D01*
X159146339Y-97230860D01*
X159146342Y-97230862D01*
X159156488Y-97234863D01*
X159211633Y-97277768D01*
X159234827Y-97343676D01*
X159235000Y-97350218D01*
X159235000Y-100967062D01*
X159215315Y-101034101D01*
X159198681Y-101054743D01*
X158101243Y-102152181D01*
X158039920Y-102185666D01*
X158013562Y-102188500D01*
X155457161Y-102188500D01*
X155454875Y-102188457D01*
X155432413Y-102187617D01*
X155399593Y-102186388D01*
X155390360Y-102187429D01*
X155390260Y-102186542D01*
X155375390Y-102188500D01*
X130236439Y-102188500D01*
X130169400Y-102168815D01*
X130123645Y-102116011D01*
X130113701Y-102046853D01*
X130142726Y-101983297D01*
X130148758Y-101976819D01*
X130636018Y-101489558D01*
X131131419Y-100994155D01*
X131192740Y-100960672D01*
X131255091Y-100963176D01*
X131363714Y-100996127D01*
X131572000Y-101016641D01*
X131780286Y-100996127D01*
X131980569Y-100935372D01*
X132165150Y-100836711D01*
X132326936Y-100703936D01*
X132459711Y-100542150D01*
X132558372Y-100357569D01*
X132619127Y-100157286D01*
X132639641Y-99949000D01*
X133044359Y-99949000D01*
X133064872Y-100157284D01*
X133066758Y-100163500D01*
X133125628Y-100357569D01*
X133217426Y-100529311D01*
X133224291Y-100542153D01*
X133357063Y-100703936D01*
X133518846Y-100836708D01*
X133518850Y-100836711D01*
X133703431Y-100935372D01*
X133903714Y-100996127D01*
X134112000Y-101016641D01*
X134320286Y-100996127D01*
X134520569Y-100935372D01*
X134705150Y-100836711D01*
X134866936Y-100703936D01*
X134999711Y-100542150D01*
X135098372Y-100357569D01*
X135159127Y-100157286D01*
X135179641Y-99949000D01*
X135584359Y-99949000D01*
X135604872Y-100157284D01*
X135606758Y-100163500D01*
X135665628Y-100357569D01*
X135757426Y-100529311D01*
X135764291Y-100542153D01*
X135897063Y-100703936D01*
X136058846Y-100836708D01*
X136058850Y-100836711D01*
X136243431Y-100935372D01*
X136443714Y-100996127D01*
X136652000Y-101016641D01*
X136860286Y-100996127D01*
X137060569Y-100935372D01*
X137245150Y-100836711D01*
X137406936Y-100703936D01*
X137539711Y-100542150D01*
X137638372Y-100357569D01*
X137699127Y-100157286D01*
X137719641Y-99949000D01*
X137699127Y-99740714D01*
X137638372Y-99540431D01*
X137539711Y-99355850D01*
X137512654Y-99322881D01*
X137406936Y-99194063D01*
X137245151Y-99061289D01*
X137145045Y-99007780D01*
X137095202Y-98958817D01*
X137079500Y-98898423D01*
X137079500Y-85764113D01*
X137099185Y-85697074D01*
X137145044Y-85654756D01*
X137184857Y-85633477D01*
X137330199Y-85514199D01*
X137449477Y-85368857D01*
X137449478Y-85368853D01*
X137449481Y-85368851D01*
X137515141Y-85246008D01*
X137538109Y-85203039D01*
X137592689Y-85023115D01*
X137611118Y-84836000D01*
X138232882Y-84836000D01*
X138251310Y-85023115D01*
X138251311Y-85023117D01*
X138305891Y-85203040D01*
X138394518Y-85368851D01*
X138394523Y-85368857D01*
X138513800Y-85514199D01*
X138659142Y-85633476D01*
X138659148Y-85633481D01*
X138790548Y-85703715D01*
X138824961Y-85722109D01*
X139004882Y-85776688D01*
X139004884Y-85776689D01*
X139021660Y-85778341D01*
X139192000Y-85795118D01*
X139379115Y-85776689D01*
X139559039Y-85722109D01*
X139652047Y-85672395D01*
X139724851Y-85633481D01*
X139724853Y-85633478D01*
X139724857Y-85633477D01*
X139870199Y-85514199D01*
X139989477Y-85368857D01*
X139989478Y-85368853D01*
X139989481Y-85368851D01*
X140055141Y-85246008D01*
X140078109Y-85203039D01*
X140132689Y-85023115D01*
X140151118Y-84836000D01*
X140772882Y-84836000D01*
X140791310Y-85023115D01*
X140791311Y-85023117D01*
X140845891Y-85203040D01*
X140934518Y-85368851D01*
X140934523Y-85368857D01*
X141053800Y-85514199D01*
X141199142Y-85633476D01*
X141199148Y-85633481D01*
X141330548Y-85703715D01*
X141364961Y-85722109D01*
X141544882Y-85776688D01*
X141544884Y-85776689D01*
X141561660Y-85778341D01*
X141732000Y-85795118D01*
X141919115Y-85776689D01*
X142099039Y-85722109D01*
X142192047Y-85672395D01*
X142264851Y-85633481D01*
X142264853Y-85633478D01*
X142264857Y-85633477D01*
X142410199Y-85514199D01*
X142529477Y-85368857D01*
X142529478Y-85368853D01*
X142529481Y-85368851D01*
X142595141Y-85246008D01*
X142618109Y-85203039D01*
X142672689Y-85023115D01*
X142691118Y-84836000D01*
X143312882Y-84836000D01*
X143331310Y-85023115D01*
X143331311Y-85023117D01*
X143385891Y-85203040D01*
X143474518Y-85368851D01*
X143474523Y-85368857D01*
X143593800Y-85514199D01*
X143653438Y-85563142D01*
X143739143Y-85633477D01*
X143778954Y-85654756D01*
X143828796Y-85703715D01*
X143844500Y-85764113D01*
X143844500Y-87094507D01*
X143844110Y-87101455D01*
X143839972Y-87138165D01*
X143842338Y-87150664D01*
X143844500Y-87173719D01*
X143844500Y-89380507D01*
X143844110Y-89387455D01*
X143839972Y-89424165D01*
X143842338Y-89436664D01*
X143844500Y-89459719D01*
X143844500Y-98651507D01*
X143844110Y-98658455D01*
X143839972Y-98695166D01*
X143850249Y-98749475D01*
X143850637Y-98751760D01*
X143858878Y-98806432D01*
X143861256Y-98814140D01*
X143863934Y-98821795D01*
X143889765Y-98870669D01*
X143890809Y-98872738D01*
X143914794Y-98922542D01*
X143919336Y-98929203D01*
X143924147Y-98935722D01*
X143924149Y-98935726D01*
X143924151Y-98935728D01*
X143924152Y-98935729D01*
X143963231Y-98974807D01*
X143964841Y-98976478D01*
X144002449Y-99017010D01*
X144009712Y-99022802D01*
X144009155Y-99023499D01*
X144021051Y-99032628D01*
X144496841Y-99508418D01*
X144530326Y-99569741D01*
X144527821Y-99632092D01*
X144494873Y-99740712D01*
X144494872Y-99740714D01*
X144474359Y-99949000D01*
X144494872Y-100157284D01*
X144496758Y-100163500D01*
X144555628Y-100357569D01*
X144647426Y-100529311D01*
X144654291Y-100542153D01*
X144787063Y-100703936D01*
X144948846Y-100836708D01*
X144948850Y-100836711D01*
X145133431Y-100935372D01*
X145333714Y-100996127D01*
X145542000Y-101016641D01*
X145750286Y-100996127D01*
X145950569Y-100935372D01*
X146135150Y-100836711D01*
X146296936Y-100703936D01*
X146429711Y-100542150D01*
X146528372Y-100357569D01*
X146589127Y-100157286D01*
X146609641Y-99949000D01*
X146589127Y-99740714D01*
X146528372Y-99540431D01*
X146429711Y-99355850D01*
X146402654Y-99322881D01*
X146296936Y-99194063D01*
X146135153Y-99061291D01*
X146135151Y-99061290D01*
X146135150Y-99061289D01*
X145950569Y-98962628D01*
X145818423Y-98922542D01*
X145750284Y-98901872D01*
X145542000Y-98881359D01*
X145333714Y-98901872D01*
X145225093Y-98934822D01*
X145155226Y-98935445D01*
X145101418Y-98903842D01*
X144735819Y-98538243D01*
X144702334Y-98476920D01*
X144699500Y-98450562D01*
X144699500Y-91256802D01*
X144719185Y-91189763D01*
X144771989Y-91144008D01*
X144841147Y-91134064D01*
X144904703Y-91163089D01*
X144922304Y-91181877D01*
X145011499Y-91299500D01*
X145099283Y-91366068D01*
X145129342Y-91388862D01*
X145266923Y-91443117D01*
X145324562Y-91450039D01*
X145353381Y-91453500D01*
X145353382Y-91453500D01*
X145937619Y-91453500D01*
X145959232Y-91450904D01*
X146024077Y-91443117D01*
X146161658Y-91388862D01*
X146279500Y-91299500D01*
X146368862Y-91181658D01*
X146423117Y-91044077D01*
X146433500Y-90957618D01*
X146682500Y-90957618D01*
X146692882Y-91044074D01*
X146692882Y-91044075D01*
X146747139Y-91181660D01*
X146836499Y-91299500D01*
X146924283Y-91366068D01*
X146954342Y-91388862D01*
X147091923Y-91443117D01*
X147149562Y-91450039D01*
X147178381Y-91453500D01*
X147178382Y-91453500D01*
X147693561Y-91453500D01*
X147760600Y-91473185D01*
X147781242Y-91489819D01*
X150158181Y-93866757D01*
X150191666Y-93928080D01*
X150194500Y-93954438D01*
X150194500Y-98898423D01*
X150174815Y-98965462D01*
X150128955Y-99007780D01*
X150028848Y-99061289D01*
X149867063Y-99194063D01*
X149734291Y-99355846D01*
X149635629Y-99540428D01*
X149574872Y-99740715D01*
X149554359Y-99948999D01*
X149574872Y-100157284D01*
X149576758Y-100163500D01*
X149635628Y-100357569D01*
X149727426Y-100529311D01*
X149734291Y-100542153D01*
X149867063Y-100703936D01*
X150028846Y-100836708D01*
X150028850Y-100836711D01*
X150213431Y-100935372D01*
X150413714Y-100996127D01*
X150622000Y-101016641D01*
X150830286Y-100996127D01*
X151030569Y-100935372D01*
X151215150Y-100836711D01*
X151376936Y-100703936D01*
X151509711Y-100542150D01*
X151608372Y-100357569D01*
X151669127Y-100157286D01*
X151689641Y-99949000D01*
X151669127Y-99740714D01*
X151608372Y-99540431D01*
X151509711Y-99355850D01*
X151482654Y-99322881D01*
X151376936Y-99194063D01*
X151215151Y-99061289D01*
X151115045Y-99007780D01*
X151065202Y-98958817D01*
X151049500Y-98898423D01*
X151049500Y-93954438D01*
X151069185Y-93887399D01*
X151085819Y-93866757D01*
X151414481Y-93538095D01*
X151745130Y-93207445D01*
X151806451Y-93173962D01*
X151876142Y-93178946D01*
X151932076Y-93220817D01*
X151955905Y-93280181D01*
X151968859Y-93386868D01*
X151968860Y-93386874D01*
X152029182Y-93545931D01*
X152078470Y-93617335D01*
X152125817Y-93685929D01*
X152223157Y-93772164D01*
X152253150Y-93798736D01*
X152403773Y-93877789D01*
X152403775Y-93877790D01*
X152568944Y-93918500D01*
X152610500Y-93918500D01*
X152677539Y-93938185D01*
X152723294Y-93990989D01*
X152734500Y-94042500D01*
X152734500Y-98898423D01*
X152714815Y-98965462D01*
X152668955Y-99007780D01*
X152568848Y-99061289D01*
X152407063Y-99194063D01*
X152274291Y-99355846D01*
X152175629Y-99540428D01*
X152114872Y-99740715D01*
X152094359Y-99949000D01*
X152114872Y-100157284D01*
X152116758Y-100163500D01*
X152175628Y-100357569D01*
X152267426Y-100529311D01*
X152274291Y-100542153D01*
X152407063Y-100703936D01*
X152568846Y-100836708D01*
X152568850Y-100836711D01*
X152753431Y-100935372D01*
X152953714Y-100996127D01*
X153162000Y-101016641D01*
X153370286Y-100996127D01*
X153570569Y-100935372D01*
X153755150Y-100836711D01*
X153916936Y-100703936D01*
X154049711Y-100542150D01*
X154148372Y-100357569D01*
X154209127Y-100157286D01*
X154229641Y-99949000D01*
X154634359Y-99949000D01*
X154654872Y-100157284D01*
X154656758Y-100163500D01*
X154715628Y-100357569D01*
X154807426Y-100529311D01*
X154814291Y-100542153D01*
X154947063Y-100703936D01*
X155108846Y-100836708D01*
X155108850Y-100836711D01*
X155293431Y-100935372D01*
X155493714Y-100996127D01*
X155702000Y-101016641D01*
X155910286Y-100996127D01*
X156110569Y-100935372D01*
X156295150Y-100836711D01*
X156456936Y-100703936D01*
X156589711Y-100542150D01*
X156688372Y-100357569D01*
X156749127Y-100157286D01*
X156769641Y-99949000D01*
X156749127Y-99740714D01*
X156688372Y-99540431D01*
X156589711Y-99355850D01*
X156562654Y-99322881D01*
X156456936Y-99194063D01*
X156295151Y-99061289D01*
X156195045Y-99007780D01*
X156145202Y-98958817D01*
X156129500Y-98898423D01*
X156129500Y-98018437D01*
X156149185Y-97951398D01*
X156165815Y-97930760D01*
X156995804Y-97100770D01*
X157057125Y-97067287D01*
X157126816Y-97072271D01*
X157182286Y-97113527D01*
X157203498Y-97141499D01*
X157222621Y-97156000D01*
X157321342Y-97230862D01*
X157458923Y-97285117D01*
X157516562Y-97292039D01*
X157545381Y-97295500D01*
X157545382Y-97295500D01*
X158129619Y-97295500D01*
X158151232Y-97292904D01*
X158216077Y-97285117D01*
X158353658Y-97230862D01*
X158471500Y-97141500D01*
X158560862Y-97023658D01*
X158615117Y-96886077D01*
X158625500Y-96799618D01*
X158625500Y-96240382D01*
X158615117Y-96153923D01*
X158560862Y-96016342D01*
X158560860Y-96016339D01*
X158471500Y-95898499D01*
X158353660Y-95809139D01*
X158353658Y-95809138D01*
X158216077Y-95754883D01*
X158216076Y-95754882D01*
X158216074Y-95754882D01*
X158129619Y-95744500D01*
X158129618Y-95744500D01*
X157545382Y-95744500D01*
X157545381Y-95744500D01*
X157458925Y-95754882D01*
X157458924Y-95754882D01*
X157321339Y-95809139D01*
X157203499Y-95898499D01*
X157114139Y-96016339D01*
X157109982Y-96023734D01*
X157108152Y-96022705D01*
X157072282Y-96068793D01*
X157006371Y-96091976D01*
X156985963Y-96091368D01*
X156955832Y-96087972D01*
X156901523Y-96098249D01*
X156899238Y-96098637D01*
X156844564Y-96106878D01*
X156836870Y-96109252D01*
X156829209Y-96111932D01*
X156780347Y-96137755D01*
X156778281Y-96138798D01*
X156728461Y-96162791D01*
X156721811Y-96167324D01*
X156715270Y-96172152D01*
X156676201Y-96211221D01*
X156674533Y-96212828D01*
X156633990Y-96250447D01*
X156628199Y-96257710D01*
X156627505Y-96257156D01*
X156618372Y-96269050D01*
X156341181Y-96546242D01*
X156279858Y-96579727D01*
X156210167Y-96574743D01*
X156154233Y-96532872D01*
X156129816Y-96467407D01*
X156129500Y-96458561D01*
X156129500Y-93954437D01*
X156149185Y-93887398D01*
X156165814Y-93866761D01*
X164238012Y-85794562D01*
X164299333Y-85761079D01*
X164361687Y-85763585D01*
X164404882Y-85776688D01*
X164404884Y-85776689D01*
X164423312Y-85778503D01*
X164592000Y-85795118D01*
X164636490Y-85790736D01*
X164705136Y-85803755D01*
X164755846Y-85851820D01*
X164772521Y-85919670D01*
X164749865Y-85985765D01*
X164696097Y-86028700D01*
X164617403Y-86061296D01*
X164617393Y-86061301D01*
X164498246Y-86140913D01*
X164498242Y-86140916D01*
X164396916Y-86242242D01*
X164396913Y-86242246D01*
X164317301Y-86361393D01*
X164317296Y-86361403D01*
X164262457Y-86493795D01*
X164262455Y-86493803D01*
X164234500Y-86634343D01*
X164234500Y-86777656D01*
X164262455Y-86918196D01*
X164262457Y-86918204D01*
X164317296Y-87050596D01*
X164317301Y-87050606D01*
X164396913Y-87169753D01*
X164396916Y-87169757D01*
X164498242Y-87271083D01*
X164498246Y-87271086D01*
X164617393Y-87350698D01*
X164617397Y-87350700D01*
X164617400Y-87350702D01*
X164749796Y-87405543D01*
X164890343Y-87433499D01*
X164890347Y-87433500D01*
X164890348Y-87433500D01*
X164897565Y-87433500D01*
X165110500Y-87433500D01*
X165177539Y-87453185D01*
X165223294Y-87505989D01*
X165234500Y-87557500D01*
X165234500Y-95201007D01*
X165234110Y-95207947D01*
X165232858Y-95219056D01*
X165229972Y-95244666D01*
X165240249Y-95298975D01*
X165240637Y-95301260D01*
X165248878Y-95355932D01*
X165251256Y-95363640D01*
X165253934Y-95371295D01*
X165279765Y-95420169D01*
X165280809Y-95422238D01*
X165304794Y-95472042D01*
X165309339Y-95478708D01*
X165314147Y-95485223D01*
X165314149Y-95485226D01*
X165314151Y-95485228D01*
X165353232Y-95524309D01*
X165354841Y-95525979D01*
X165372917Y-95545461D01*
X165404086Y-95607993D01*
X165405340Y-95642764D01*
X165387815Y-95809499D01*
X165406503Y-95987305D01*
X165406504Y-95987307D01*
X165461747Y-96157329D01*
X165461750Y-96157335D01*
X165551141Y-96312165D01*
X165574606Y-96338225D01*
X165670764Y-96445021D01*
X165670767Y-96445023D01*
X165670770Y-96445026D01*
X165815407Y-96550112D01*
X165978733Y-96622829D01*
X166153609Y-96660000D01*
X166153610Y-96660000D01*
X166332389Y-96660000D01*
X166332391Y-96660000D01*
X166507267Y-96622829D01*
X166670593Y-96550112D01*
X166815230Y-96445026D01*
X166934859Y-96312165D01*
X167024250Y-96157335D01*
X167079497Y-95987303D01*
X167098185Y-95809500D01*
X167079497Y-95631697D01*
X167076602Y-95622789D01*
X167074606Y-95552952D01*
X167110684Y-95493118D01*
X167173384Y-95462288D01*
X167242798Y-95470250D01*
X167282214Y-95496790D01*
X167877766Y-96092342D01*
X167882402Y-96097530D01*
X167892679Y-96110416D01*
X167905442Y-96126420D01*
X167951133Y-96157572D01*
X167952999Y-96158897D01*
X167970957Y-96172150D01*
X167997486Y-96191729D01*
X167997487Y-96191729D01*
X167997488Y-96191730D01*
X168000615Y-96193383D01*
X168003522Y-96196183D01*
X168004962Y-96197246D01*
X168004822Y-96197435D01*
X168050061Y-96241013D01*
X168069102Y-96273993D01*
X168091141Y-96312165D01*
X168114606Y-96338225D01*
X168210764Y-96445021D01*
X168210767Y-96445023D01*
X168210770Y-96445026D01*
X168355407Y-96550112D01*
X168518733Y-96622829D01*
X168693609Y-96660000D01*
X168693610Y-96660000D01*
X168872389Y-96660000D01*
X168872391Y-96660000D01*
X169047267Y-96622829D01*
X169210593Y-96550112D01*
X169355230Y-96445026D01*
X169474859Y-96312165D01*
X169564250Y-96157335D01*
X169619497Y-95987303D01*
X169638185Y-95809500D01*
X169619497Y-95631697D01*
X169571906Y-95485228D01*
X169564252Y-95461670D01*
X169564249Y-95461664D01*
X169474859Y-95306835D01*
X169418882Y-95244666D01*
X169355235Y-95173978D01*
X169355232Y-95173976D01*
X169355231Y-95173975D01*
X169355230Y-95173974D01*
X169308217Y-95139816D01*
X169265553Y-95084488D01*
X169259574Y-95014874D01*
X169292180Y-94953079D01*
X169353019Y-94918722D01*
X169381104Y-94915500D01*
X169773061Y-94915500D01*
X169840100Y-94935185D01*
X169860742Y-94951819D01*
X170449828Y-95540905D01*
X170483313Y-95602228D01*
X170485468Y-95641548D01*
X170467815Y-95809499D01*
X170486503Y-95987305D01*
X170486504Y-95987307D01*
X170541747Y-96157329D01*
X170541750Y-96157335D01*
X170631141Y-96312165D01*
X170654606Y-96338225D01*
X170750764Y-96445021D01*
X170750767Y-96445023D01*
X170750770Y-96445026D01*
X170895407Y-96550112D01*
X171058733Y-96622829D01*
X171233609Y-96660000D01*
X171233610Y-96660000D01*
X171412389Y-96660000D01*
X171412391Y-96660000D01*
X171587267Y-96622829D01*
X171750593Y-96550112D01*
X171895230Y-96445026D01*
X172014859Y-96312165D01*
X172104250Y-96157335D01*
X172159497Y-95987303D01*
X172178185Y-95809500D01*
X173007815Y-95809500D01*
X173026503Y-95987305D01*
X173026504Y-95987307D01*
X173081747Y-96157329D01*
X173081750Y-96157335D01*
X173171141Y-96312165D01*
X173194606Y-96338225D01*
X173290764Y-96445021D01*
X173290767Y-96445023D01*
X173290770Y-96445026D01*
X173435407Y-96550112D01*
X173598733Y-96622829D01*
X173773609Y-96660000D01*
X173773610Y-96660000D01*
X173952389Y-96660000D01*
X173952391Y-96660000D01*
X174127267Y-96622829D01*
X174290593Y-96550112D01*
X174435230Y-96445026D01*
X174554859Y-96312165D01*
X174644250Y-96157335D01*
X174699497Y-95987303D01*
X174718185Y-95809500D01*
X174699497Y-95631697D01*
X174651906Y-95485228D01*
X174644252Y-95461670D01*
X174644249Y-95461664D01*
X174554859Y-95306835D01*
X174498882Y-95244666D01*
X174435235Y-95173978D01*
X174435232Y-95173976D01*
X174435231Y-95173975D01*
X174435230Y-95173974D01*
X174290593Y-95068888D01*
X174127267Y-94996171D01*
X174127265Y-94996170D01*
X173962562Y-94961162D01*
X173952391Y-94959000D01*
X173773609Y-94959000D01*
X173763438Y-94961162D01*
X173598733Y-94996170D01*
X173598728Y-94996172D01*
X173435408Y-95068887D01*
X173290768Y-95173975D01*
X173171140Y-95306836D01*
X173081750Y-95461664D01*
X173081747Y-95461670D01*
X173026504Y-95631692D01*
X173026503Y-95631694D01*
X173007815Y-95809500D01*
X172178185Y-95809500D01*
X172159497Y-95631697D01*
X172111906Y-95485228D01*
X172104252Y-95461670D01*
X172104249Y-95461664D01*
X172014859Y-95306835D01*
X171958882Y-95244666D01*
X171895235Y-95173978D01*
X171895232Y-95173976D01*
X171895231Y-95173975D01*
X171895230Y-95173974D01*
X171750593Y-95068888D01*
X171587267Y-94996171D01*
X171587265Y-94996170D01*
X171422562Y-94961162D01*
X171412391Y-94959000D01*
X171233609Y-94959000D01*
X171233605Y-94959000D01*
X171170370Y-94972441D01*
X171100703Y-94967125D01*
X171056908Y-94938832D01*
X170364329Y-94246253D01*
X170330844Y-94184930D01*
X170335828Y-94115238D01*
X170377700Y-94059305D01*
X170401568Y-94045295D01*
X170480593Y-94010112D01*
X170625230Y-93905026D01*
X170641102Y-93887399D01*
X170659688Y-93866757D01*
X170744859Y-93772165D01*
X170834250Y-93617335D01*
X170889497Y-93447303D01*
X170908185Y-93269500D01*
X170890531Y-93101542D01*
X170903100Y-93032817D01*
X170926168Y-93000907D01*
X173042818Y-90884257D01*
X173104142Y-90850772D01*
X173173834Y-90855756D01*
X173229767Y-90897628D01*
X173254184Y-90963092D01*
X173254500Y-90971938D01*
X173254500Y-91952061D01*
X173234815Y-92019100D01*
X173218181Y-92039742D01*
X172859090Y-92398832D01*
X172797767Y-92432317D01*
X172745631Y-92432441D01*
X172682391Y-92419000D01*
X172503609Y-92419000D01*
X172472954Y-92425515D01*
X172328733Y-92456170D01*
X172328728Y-92456172D01*
X172165408Y-92528887D01*
X172020768Y-92633975D01*
X171901140Y-92766836D01*
X171811750Y-92921664D01*
X171811747Y-92921670D01*
X171756504Y-93091692D01*
X171756503Y-93091694D01*
X171737815Y-93269500D01*
X171756503Y-93447305D01*
X171756504Y-93447307D01*
X171811747Y-93617329D01*
X171811750Y-93617335D01*
X171901141Y-93772165D01*
X171925064Y-93798734D01*
X172020764Y-93905021D01*
X172020767Y-93905023D01*
X172020770Y-93905026D01*
X172165407Y-94010112D01*
X172328733Y-94082829D01*
X172503609Y-94120000D01*
X172503610Y-94120000D01*
X172682389Y-94120000D01*
X172682391Y-94120000D01*
X172857267Y-94082829D01*
X173020593Y-94010112D01*
X173165230Y-93905026D01*
X173181102Y-93887399D01*
X173199688Y-93866757D01*
X173284859Y-93772165D01*
X173374250Y-93617335D01*
X173429497Y-93447303D01*
X173448185Y-93269500D01*
X173430531Y-93101542D01*
X173443100Y-93032817D01*
X173466168Y-93000907D01*
X173964854Y-92502220D01*
X173970022Y-92497601D01*
X173998920Y-92474558D01*
X174030075Y-92428861D01*
X174031405Y-92426988D01*
X174064229Y-92382514D01*
X174064230Y-92382510D01*
X174067986Y-92375406D01*
X174071510Y-92368088D01*
X174071515Y-92368081D01*
X174087813Y-92315239D01*
X174088528Y-92313068D01*
X174106791Y-92260880D01*
X174106791Y-92260879D01*
X174106793Y-92260874D01*
X174106793Y-92260868D01*
X174108295Y-92252928D01*
X174109500Y-92244936D01*
X174109500Y-92189670D01*
X174109542Y-92187387D01*
X174111611Y-92132095D01*
X174111610Y-92132094D01*
X174110571Y-92122864D01*
X174111456Y-92122764D01*
X174109500Y-92107892D01*
X174109500Y-85781753D01*
X174129185Y-85714714D01*
X174181989Y-85668959D01*
X174251147Y-85659015D01*
X174291951Y-85672394D01*
X174384961Y-85722109D01*
X174521687Y-85763585D01*
X174564882Y-85776688D01*
X174564884Y-85776689D01*
X174581660Y-85778341D01*
X174752000Y-85795118D01*
X174939115Y-85776689D01*
X175119039Y-85722109D01*
X175212047Y-85672395D01*
X175284851Y-85633481D01*
X175284853Y-85633478D01*
X175284857Y-85633477D01*
X175430199Y-85514199D01*
X175549477Y-85368857D01*
X175583898Y-85304461D01*
X175615142Y-85246008D01*
X175664104Y-85196164D01*
X175732242Y-85180703D01*
X175797921Y-85204535D01*
X175840290Y-85260092D01*
X175848500Y-85304461D01*
X175848499Y-96037561D01*
X175828814Y-96104600D01*
X175812180Y-96125242D01*
X167436828Y-104500594D01*
X167375505Y-104534079D01*
X167305813Y-104529095D01*
X167290702Y-104522276D01*
X167287729Y-104520687D01*
X167287728Y-104520686D01*
X167287727Y-104520686D01*
X167099132Y-104463476D01*
X167099129Y-104463475D01*
X166903000Y-104444159D01*
X166706870Y-104463475D01*
X166518266Y-104520688D01*
X166344467Y-104613586D01*
X166344460Y-104613590D01*
X166192116Y-104738616D01*
X166067090Y-104890960D01*
X166067086Y-104890967D01*
X165974188Y-105064766D01*
X165916975Y-105253370D01*
X165897659Y-105449500D01*
X165916975Y-105645629D01*
X165916976Y-105645632D01*
X165969210Y-105817825D01*
X165974188Y-105834233D01*
X166067086Y-106008032D01*
X166067090Y-106008039D01*
X166192116Y-106160383D01*
X166344460Y-106285409D01*
X166344467Y-106285413D01*
X166518266Y-106378311D01*
X166518269Y-106378311D01*
X166518273Y-106378314D01*
X166706868Y-106435524D01*
X166903000Y-106454841D01*
X167099132Y-106435524D01*
X167287727Y-106378314D01*
X167461538Y-106285410D01*
X167613883Y-106160383D01*
X167738910Y-106008038D01*
X167785361Y-105921132D01*
X167831811Y-105834233D01*
X167831811Y-105834232D01*
X167831814Y-105834227D01*
X167889024Y-105645632D01*
X167908341Y-105449500D01*
X167895147Y-105315539D01*
X167908166Y-105246895D01*
X167930866Y-105215709D01*
X170987075Y-102159500D01*
X174097564Y-102159500D01*
X174102521Y-102235137D01*
X174117287Y-102460418D01*
X174117288Y-102460430D01*
X174176118Y-102756183D01*
X174176122Y-102756198D01*
X174273053Y-103041747D01*
X174273062Y-103041768D01*
X174406431Y-103312213D01*
X174406435Y-103312220D01*
X174573973Y-103562959D01*
X174772810Y-103789689D01*
X174999540Y-103988526D01*
X175250279Y-104156064D01*
X175250286Y-104156068D01*
X175520731Y-104289437D01*
X175520736Y-104289439D01*
X175520748Y-104289445D01*
X175806309Y-104386380D01*
X176006251Y-104426151D01*
X176102069Y-104445211D01*
X176102070Y-104445211D01*
X176102080Y-104445213D01*
X176305281Y-104458531D01*
X176370886Y-104482557D01*
X176413090Y-104538240D01*
X176418489Y-104607901D01*
X176385370Y-104669423D01*
X176375834Y-104678118D01*
X176302114Y-104738619D01*
X176177090Y-104890960D01*
X176177086Y-104890967D01*
X176084188Y-105064766D01*
X176026975Y-105253370D01*
X176007659Y-105449500D01*
X176026975Y-105645629D01*
X176026976Y-105645632D01*
X176079210Y-105817825D01*
X176084188Y-105834233D01*
X176177086Y-106008032D01*
X176177090Y-106008039D01*
X176302116Y-106160383D01*
X176454460Y-106285409D01*
X176454467Y-106285413D01*
X176628266Y-106378311D01*
X176628269Y-106378311D01*
X176628273Y-106378314D01*
X176816868Y-106435524D01*
X177013000Y-106454841D01*
X177209132Y-106435524D01*
X177397727Y-106378314D01*
X177571538Y-106285410D01*
X177723883Y-106160383D01*
X177848910Y-106008038D01*
X177895362Y-105921132D01*
X177941811Y-105834233D01*
X177941811Y-105834232D01*
X177941814Y-105834227D01*
X177999024Y-105645632D01*
X178018341Y-105449500D01*
X177999024Y-105253368D01*
X177941814Y-105064773D01*
X177941811Y-105064769D01*
X177941811Y-105064766D01*
X177848913Y-104890967D01*
X177848909Y-104890960D01*
X177723883Y-104738616D01*
X177571539Y-104613590D01*
X177571532Y-104613586D01*
X177397729Y-104520686D01*
X177338039Y-104502579D01*
X177279601Y-104464281D01*
X177251145Y-104400468D01*
X177261707Y-104331401D01*
X177307932Y-104279009D01*
X177319182Y-104272712D01*
X177555718Y-104156066D01*
X177806461Y-103988525D01*
X178033189Y-103789689D01*
X178232025Y-103562961D01*
X178399566Y-103312218D01*
X178532945Y-103041752D01*
X178629880Y-102756191D01*
X178688713Y-102460420D01*
X178708436Y-102159500D01*
X178688713Y-101858580D01*
X178629880Y-101562809D01*
X178532945Y-101277248D01*
X178528349Y-101267929D01*
X178399568Y-101006786D01*
X178399564Y-101006779D01*
X178232026Y-100756040D01*
X178033189Y-100529310D01*
X177806459Y-100330473D01*
X177555720Y-100162935D01*
X177555713Y-100162931D01*
X177285268Y-100029562D01*
X177285247Y-100029553D01*
X176999698Y-99932622D01*
X176999692Y-99932620D01*
X176999691Y-99932620D01*
X176999689Y-99932619D01*
X176999683Y-99932618D01*
X176703930Y-99873788D01*
X176703921Y-99873787D01*
X176703920Y-99873787D01*
X176403000Y-99854064D01*
X176102080Y-99873787D01*
X176102079Y-99873787D01*
X176102069Y-99873788D01*
X175806316Y-99932618D01*
X175806301Y-99932622D01*
X175520752Y-100029553D01*
X175520731Y-100029562D01*
X175250286Y-100162931D01*
X175250279Y-100162935D01*
X174999540Y-100330473D01*
X174772810Y-100529310D01*
X174573973Y-100756040D01*
X174406435Y-101006779D01*
X174406431Y-101006786D01*
X174273062Y-101277231D01*
X174273053Y-101277252D01*
X174176122Y-101562801D01*
X174176118Y-101562816D01*
X174117288Y-101858569D01*
X174117287Y-101858579D01*
X174117287Y-101858580D01*
X174097564Y-102159500D01*
X170987075Y-102159500D01*
X176558854Y-96587720D01*
X176564022Y-96583101D01*
X176592920Y-96560058D01*
X176624075Y-96514361D01*
X176625405Y-96512488D01*
X176658229Y-96468014D01*
X176658230Y-96468010D01*
X176661991Y-96460896D01*
X176665511Y-96453585D01*
X176665515Y-96453581D01*
X176681820Y-96400716D01*
X176682531Y-96398560D01*
X176686918Y-96386025D01*
X176700792Y-96346375D01*
X176700792Y-96346373D01*
X176702295Y-96338423D01*
X176703500Y-96330437D01*
X176703500Y-96275144D01*
X176703542Y-96272861D01*
X176705610Y-96217595D01*
X176704570Y-96208363D01*
X176705456Y-96208263D01*
X176703500Y-96193395D01*
X176703500Y-85810617D01*
X176723185Y-85743578D01*
X176775989Y-85697823D01*
X176845147Y-85687879D01*
X176885952Y-85701258D01*
X176924961Y-85722109D01*
X177061687Y-85763585D01*
X177104882Y-85776688D01*
X177104884Y-85776689D01*
X177121660Y-85778341D01*
X177292000Y-85795118D01*
X177479115Y-85776689D01*
X177659039Y-85722109D01*
X177752047Y-85672395D01*
X177824851Y-85633481D01*
X177824853Y-85633478D01*
X177824857Y-85633477D01*
X177970199Y-85514199D01*
X178089477Y-85368857D01*
X178089478Y-85368853D01*
X178089481Y-85368851D01*
X178155141Y-85246008D01*
X178178109Y-85203039D01*
X178232689Y-85023115D01*
X178251118Y-84836000D01*
X178232689Y-84648885D01*
X178178109Y-84468961D01*
X178173988Y-84461251D01*
X178089481Y-84303148D01*
X178089476Y-84303142D01*
X177970199Y-84157800D01*
X177824857Y-84038523D01*
X177824851Y-84038518D01*
X177659040Y-83949891D01*
X177479117Y-83895311D01*
X177479115Y-83895310D01*
X177292000Y-83876882D01*
X177104884Y-83895310D01*
X177104882Y-83895311D01*
X176924961Y-83949890D01*
X176885952Y-83970741D01*
X176817549Y-83984982D01*
X176752306Y-83959981D01*
X176710936Y-83903676D01*
X176703500Y-83861382D01*
X176703500Y-82323494D01*
X176703889Y-82316556D01*
X176708027Y-82279834D01*
X176697741Y-82225479D01*
X176697356Y-82223204D01*
X176689122Y-82168569D01*
X176689118Y-82168561D01*
X176686732Y-82160820D01*
X176684070Y-82153213D01*
X176658228Y-82104318D01*
X176657182Y-82102247D01*
X176633206Y-82052457D01*
X176628656Y-82045785D01*
X176623849Y-82039271D01*
X176584766Y-82000189D01*
X176583157Y-81998519D01*
X176545552Y-81957991D01*
X176538289Y-81952199D01*
X176538844Y-81951502D01*
X176526949Y-81942372D01*
X176087865Y-81503288D01*
X174687719Y-80103143D01*
X174683101Y-80097975D01*
X174660058Y-80069080D01*
X174649224Y-80061693D01*
X174614381Y-80037936D01*
X174612491Y-80036596D01*
X174568014Y-80003771D01*
X174560843Y-79999981D01*
X174553586Y-79996487D01*
X174553582Y-79996485D01*
X174553581Y-79996485D01*
X174500751Y-79980188D01*
X174498579Y-79979474D01*
X174473828Y-79970813D01*
X174446371Y-79961206D01*
X174438447Y-79959707D01*
X174430436Y-79958500D01*
X174430435Y-79958500D01*
X174375161Y-79958500D01*
X174372875Y-79958457D01*
X174350413Y-79957617D01*
X174317593Y-79956388D01*
X174308360Y-79957429D01*
X174308260Y-79956542D01*
X174293390Y-79958500D01*
X172811200Y-79958500D01*
X172744161Y-79938815D01*
X172703813Y-79896500D01*
X172701023Y-79891668D01*
X172677786Y-79851420D01*
X172550562Y-79710123D01*
X172396741Y-79598365D01*
X172223045Y-79521031D01*
X172223043Y-79521030D01*
X172158399Y-79507290D01*
X172096917Y-79474098D01*
X172063141Y-79412935D01*
X172067793Y-79343220D01*
X172109398Y-79287088D01*
X172158399Y-79264710D01*
X172159823Y-79264407D01*
X172223045Y-79250969D01*
X172396741Y-79173635D01*
X172550562Y-79061877D01*
X172677786Y-78920580D01*
X172772853Y-78755920D01*
X172831608Y-78575092D01*
X172851482Y-78386000D01*
X172831608Y-78196908D01*
X172772853Y-78016080D01*
X172677786Y-77851420D01*
X172550562Y-77710123D01*
X172396741Y-77598365D01*
X172223045Y-77521031D01*
X172223043Y-77521030D01*
X172037067Y-77481500D01*
X171846933Y-77481500D01*
X171660957Y-77521030D01*
X171487257Y-77598366D01*
X171333436Y-77710124D01*
X171206213Y-77851421D01*
X171111147Y-78016079D01*
X171111144Y-78016086D01*
X171059931Y-78173705D01*
X171020493Y-78231381D01*
X170956135Y-78258579D01*
X170887288Y-78246664D01*
X170835813Y-78199420D01*
X170824069Y-78173705D01*
X170772855Y-78016086D01*
X170772854Y-78016085D01*
X170772853Y-78016080D01*
X170677786Y-77851420D01*
X170550562Y-77710123D01*
X170396741Y-77598365D01*
X170223045Y-77521031D01*
X170223043Y-77521030D01*
X170037067Y-77481500D01*
X169846933Y-77481500D01*
X169660957Y-77521030D01*
X169487257Y-77598366D01*
X169333436Y-77710124D01*
X169206213Y-77851421D01*
X169180187Y-77896500D01*
X169129621Y-77944715D01*
X169072800Y-77958500D01*
X167259486Y-77958500D01*
X167252546Y-77958110D01*
X167237660Y-77956433D01*
X167215832Y-77953973D01*
X167161543Y-77964246D01*
X167159258Y-77964634D01*
X167117742Y-77970892D01*
X167104569Y-77972878D01*
X167104568Y-77972878D01*
X167104564Y-77972879D01*
X167096862Y-77975254D01*
X167089209Y-77977932D01*
X167040347Y-78003755D01*
X167038281Y-78004798D01*
X166988461Y-78028791D01*
X166981811Y-78033324D01*
X166975270Y-78038152D01*
X166936201Y-78077221D01*
X166934533Y-78078828D01*
X166893990Y-78116447D01*
X166888199Y-78123710D01*
X166887505Y-78123156D01*
X166878372Y-78135050D01*
X165379156Y-79634267D01*
X165373968Y-79638903D01*
X165345079Y-79661942D01*
X165313932Y-79707624D01*
X165312592Y-79709513D01*
X165279771Y-79753984D01*
X165275994Y-79761129D01*
X165272484Y-79768420D01*
X165256184Y-79821259D01*
X165255460Y-79823458D01*
X165237207Y-79875626D01*
X165235710Y-79883538D01*
X165234500Y-79891568D01*
X165234500Y-79946838D01*
X165234457Y-79949123D01*
X165233857Y-79965173D01*
X165232388Y-80004406D01*
X165233429Y-80013640D01*
X165232540Y-80013740D01*
X165234500Y-80028609D01*
X165234500Y-83890246D01*
X165214815Y-83957285D01*
X165162011Y-84003040D01*
X165092853Y-84012984D01*
X165052047Y-83999604D01*
X164959040Y-83949891D01*
X164779117Y-83895311D01*
X164779115Y-83895310D01*
X164592000Y-83876882D01*
X164404884Y-83895310D01*
X164404882Y-83895311D01*
X164224959Y-83949891D01*
X164059148Y-84038518D01*
X164059142Y-84038523D01*
X163913800Y-84157800D01*
X163794523Y-84303142D01*
X163794518Y-84303148D01*
X163705891Y-84468959D01*
X163651311Y-84648882D01*
X163651310Y-84648884D01*
X163632882Y-84835999D01*
X163651311Y-85023117D01*
X163664414Y-85066314D01*
X163665037Y-85136181D01*
X163633434Y-85189988D01*
X155419156Y-93404267D01*
X155413968Y-93408903D01*
X155385079Y-93431942D01*
X155353932Y-93477624D01*
X155352592Y-93479513D01*
X155319771Y-93523984D01*
X155315994Y-93531129D01*
X155312484Y-93538420D01*
X155296184Y-93591259D01*
X155295460Y-93593458D01*
X155277207Y-93645626D01*
X155275710Y-93653538D01*
X155274500Y-93661568D01*
X155274500Y-93716838D01*
X155274457Y-93719123D01*
X155273637Y-93741043D01*
X155272388Y-93774406D01*
X155273429Y-93783640D01*
X155272540Y-93783740D01*
X155274500Y-93798609D01*
X155274500Y-97780838D01*
X155274457Y-97783123D01*
X155274359Y-97785768D01*
X155272388Y-97838406D01*
X155273429Y-97847640D01*
X155272540Y-97847740D01*
X155274500Y-97862609D01*
X155274500Y-98898423D01*
X155254815Y-98965462D01*
X155208955Y-99007780D01*
X155108848Y-99061289D01*
X154947063Y-99194063D01*
X154814291Y-99355846D01*
X154715629Y-99540428D01*
X154654872Y-99740715D01*
X154634359Y-99949000D01*
X154229641Y-99949000D01*
X154209127Y-99740714D01*
X154148372Y-99540431D01*
X154049711Y-99355850D01*
X154022654Y-99322881D01*
X153916936Y-99194063D01*
X153755151Y-99061289D01*
X153655045Y-99007780D01*
X153605202Y-98958817D01*
X153589500Y-98898423D01*
X153589500Y-93954437D01*
X153609185Y-93887398D01*
X153625814Y-93866761D01*
X161698012Y-85794562D01*
X161759333Y-85761079D01*
X161821687Y-85763585D01*
X161864882Y-85776688D01*
X161864884Y-85776689D01*
X161881660Y-85778341D01*
X162052000Y-85795118D01*
X162239115Y-85776689D01*
X162419039Y-85722109D01*
X162512047Y-85672395D01*
X162584851Y-85633481D01*
X162584853Y-85633478D01*
X162584857Y-85633477D01*
X162730199Y-85514199D01*
X162849477Y-85368857D01*
X162849478Y-85368853D01*
X162849481Y-85368851D01*
X162915141Y-85246008D01*
X162938109Y-85203039D01*
X162992689Y-85023115D01*
X163011118Y-84836000D01*
X162992689Y-84648885D01*
X162938109Y-84468961D01*
X162933988Y-84461251D01*
X162849481Y-84303148D01*
X162849476Y-84303142D01*
X162730199Y-84157800D01*
X162584857Y-84038523D01*
X162584851Y-84038518D01*
X162419040Y-83949891D01*
X162239117Y-83895311D01*
X162239115Y-83895310D01*
X162052000Y-83876882D01*
X161864884Y-83895310D01*
X161864882Y-83895311D01*
X161684959Y-83949891D01*
X161519148Y-84038518D01*
X161519142Y-84038523D01*
X161373800Y-84157800D01*
X161254523Y-84303142D01*
X161254518Y-84303148D01*
X161165891Y-84468959D01*
X161111311Y-84648882D01*
X161111310Y-84648884D01*
X161092882Y-84835999D01*
X161111311Y-85023117D01*
X161124414Y-85066314D01*
X161125037Y-85136181D01*
X161093434Y-85189988D01*
X153430800Y-92852622D01*
X153369477Y-92886107D01*
X153299785Y-92881123D01*
X153243852Y-92839251D01*
X153241069Y-92835382D01*
X153234252Y-92825506D01*
X153182183Y-92750071D01*
X153054852Y-92637266D01*
X153054849Y-92637263D01*
X152904226Y-92558210D01*
X152739056Y-92517500D01*
X152734438Y-92517500D01*
X152667399Y-92497815D01*
X152621644Y-92445011D01*
X152611700Y-92375853D01*
X152640725Y-92312297D01*
X152646757Y-92305819D01*
X154270813Y-90681763D01*
X159158012Y-85794562D01*
X159219333Y-85761079D01*
X159281687Y-85763585D01*
X159324882Y-85776688D01*
X159324884Y-85776689D01*
X159341660Y-85778341D01*
X159512000Y-85795118D01*
X159699115Y-85776689D01*
X159879039Y-85722109D01*
X159972047Y-85672395D01*
X160044851Y-85633481D01*
X160044853Y-85633478D01*
X160044857Y-85633477D01*
X160190199Y-85514199D01*
X160309477Y-85368857D01*
X160309478Y-85368853D01*
X160309481Y-85368851D01*
X160375141Y-85246008D01*
X160398109Y-85203039D01*
X160452689Y-85023115D01*
X160471118Y-84836000D01*
X160452689Y-84648885D01*
X160398109Y-84468961D01*
X160393988Y-84461251D01*
X160309481Y-84303148D01*
X160309476Y-84303142D01*
X160190199Y-84157800D01*
X160044857Y-84038523D01*
X160044851Y-84038518D01*
X159879040Y-83949891D01*
X159699117Y-83895311D01*
X159699115Y-83895310D01*
X159512000Y-83876882D01*
X159324884Y-83895310D01*
X159324882Y-83895311D01*
X159144959Y-83949891D01*
X158979148Y-84038518D01*
X158979142Y-84038523D01*
X158833800Y-84157800D01*
X158714523Y-84303142D01*
X158714518Y-84303148D01*
X158625891Y-84468959D01*
X158571311Y-84648882D01*
X158571310Y-84648884D01*
X158552882Y-84835999D01*
X158571311Y-85023117D01*
X158584414Y-85066314D01*
X158585037Y-85136181D01*
X158553434Y-85189988D01*
X152038871Y-91704551D01*
X151977548Y-91738036D01*
X151907856Y-91733052D01*
X151851923Y-91691180D01*
X151828094Y-91631816D01*
X151826963Y-91622504D01*
X151815140Y-91525128D01*
X151754818Y-91366070D01*
X151750485Y-91359793D01*
X151719163Y-91314415D01*
X151658183Y-91226071D01*
X151530852Y-91113266D01*
X151530849Y-91113263D01*
X151380226Y-91034210D01*
X151215056Y-90993500D01*
X151085438Y-90993500D01*
X151018399Y-90973815D01*
X150997757Y-90957181D01*
X149646296Y-89605720D01*
X148294819Y-88254242D01*
X148261334Y-88192919D01*
X148258500Y-88166561D01*
X148258500Y-88112381D01*
X148248117Y-88025925D01*
X148248117Y-88025924D01*
X148248117Y-88025923D01*
X148193862Y-87888342D01*
X148138549Y-87815400D01*
X148104500Y-87770499D01*
X147986660Y-87681139D01*
X147986658Y-87681138D01*
X147849077Y-87626883D01*
X147849076Y-87626882D01*
X147849074Y-87626882D01*
X147762619Y-87616500D01*
X147762618Y-87616500D01*
X147178382Y-87616500D01*
X147178381Y-87616500D01*
X147091925Y-87626882D01*
X147091924Y-87626882D01*
X146954339Y-87681139D01*
X146836499Y-87770499D01*
X146747139Y-87888339D01*
X146692882Y-88025924D01*
X146692882Y-88025925D01*
X146682500Y-88112381D01*
X146682500Y-88671618D01*
X146692882Y-88758074D01*
X146692882Y-88758075D01*
X146711270Y-88804703D01*
X146732896Y-88859544D01*
X146747139Y-88895660D01*
X146836499Y-89013500D01*
X146953866Y-89102501D01*
X146954342Y-89102862D01*
X147091923Y-89157117D01*
X147149562Y-89164039D01*
X147178381Y-89167500D01*
X147178382Y-89167500D01*
X147762619Y-89167500D01*
X147784232Y-89164904D01*
X147849077Y-89157117D01*
X147873436Y-89147510D01*
X147943021Y-89141229D01*
X148004958Y-89173565D01*
X148006607Y-89175184D01*
X150392605Y-91561181D01*
X150426090Y-91622504D01*
X150428020Y-91663805D01*
X150424355Y-91693996D01*
X150424355Y-91693999D01*
X150444859Y-91862869D01*
X150444860Y-91862874D01*
X150505182Y-92021931D01*
X150523009Y-92047757D01*
X150601817Y-92161929D01*
X150704534Y-92252928D01*
X150729150Y-92274736D01*
X150859971Y-92343396D01*
X150879775Y-92353790D01*
X151044944Y-92394500D01*
X151049561Y-92394500D01*
X151116600Y-92414185D01*
X151162355Y-92466989D01*
X151172299Y-92536147D01*
X151143274Y-92599703D01*
X151137242Y-92606181D01*
X150709681Y-93033742D01*
X150648358Y-93067227D01*
X150578666Y-93062243D01*
X150534319Y-93033742D01*
X148294819Y-90794242D01*
X148261334Y-90732919D01*
X148258500Y-90706561D01*
X148258500Y-90398381D01*
X148248117Y-90311925D01*
X148248117Y-90311924D01*
X148248117Y-90311923D01*
X148193862Y-90174342D01*
X148193860Y-90174339D01*
X148104500Y-90056499D01*
X147986660Y-89967139D01*
X147986658Y-89967138D01*
X147849077Y-89912883D01*
X147849076Y-89912882D01*
X147849074Y-89912882D01*
X147762619Y-89902500D01*
X147762618Y-89902500D01*
X147178382Y-89902500D01*
X147178381Y-89902500D01*
X147091925Y-89912882D01*
X147091924Y-89912882D01*
X146954339Y-89967139D01*
X146836499Y-90056499D01*
X146747139Y-90174339D01*
X146692882Y-90311924D01*
X146692882Y-90311925D01*
X146682500Y-90398381D01*
X146682500Y-90957618D01*
X146433500Y-90957618D01*
X146433500Y-90398382D01*
X146423117Y-90311923D01*
X146368862Y-90174342D01*
X146368860Y-90174339D01*
X146279500Y-90056499D01*
X146161660Y-89967139D01*
X146161658Y-89967138D01*
X146024077Y-89912883D01*
X146024076Y-89912882D01*
X146024074Y-89912882D01*
X145937619Y-89902500D01*
X145937618Y-89902500D01*
X145422438Y-89902500D01*
X145355399Y-89882815D01*
X145334757Y-89866181D01*
X144735819Y-89267243D01*
X144702334Y-89205920D01*
X144699500Y-89179562D01*
X144699500Y-88970802D01*
X144719185Y-88903763D01*
X144771989Y-88858008D01*
X144841147Y-88848064D01*
X144904703Y-88877089D01*
X144922304Y-88895877D01*
X145011499Y-89013500D01*
X145128866Y-89102501D01*
X145129342Y-89102862D01*
X145266923Y-89157117D01*
X145324562Y-89164039D01*
X145353381Y-89167500D01*
X145353382Y-89167500D01*
X145937619Y-89167500D01*
X145959232Y-89164904D01*
X146024077Y-89157117D01*
X146161658Y-89102862D01*
X146279500Y-89013500D01*
X146368862Y-88895658D01*
X146423117Y-88758077D01*
X146433500Y-88671618D01*
X146433500Y-88112382D01*
X146423117Y-88025923D01*
X146368862Y-87888342D01*
X146313549Y-87815400D01*
X146279500Y-87770499D01*
X146161660Y-87681139D01*
X146161658Y-87681138D01*
X146024077Y-87626883D01*
X146024076Y-87626882D01*
X146024074Y-87626882D01*
X145937619Y-87616500D01*
X145937618Y-87616500D01*
X145422438Y-87616500D01*
X145355399Y-87596815D01*
X145334757Y-87580181D01*
X144735819Y-86981242D01*
X144702334Y-86919919D01*
X144699500Y-86893561D01*
X144699500Y-85764113D01*
X144719185Y-85697074D01*
X144765044Y-85654756D01*
X144804857Y-85633477D01*
X144950199Y-85514199D01*
X145069477Y-85368857D01*
X145069478Y-85368853D01*
X145069481Y-85368851D01*
X145135141Y-85246008D01*
X145158109Y-85203039D01*
X145212689Y-85023115D01*
X145231118Y-84836000D01*
X145852882Y-84836000D01*
X145871310Y-85023115D01*
X145871311Y-85023117D01*
X145925891Y-85203040D01*
X146014518Y-85368851D01*
X146014523Y-85368857D01*
X146133800Y-85514199D01*
X146279142Y-85633476D01*
X146279148Y-85633481D01*
X146410548Y-85703715D01*
X146444961Y-85722109D01*
X146624882Y-85776688D01*
X146624884Y-85776689D01*
X146641660Y-85778341D01*
X146812000Y-85795118D01*
X146999115Y-85776689D01*
X147179039Y-85722109D01*
X147272047Y-85672395D01*
X147344851Y-85633481D01*
X147344853Y-85633478D01*
X147344857Y-85633477D01*
X147490199Y-85514199D01*
X147609477Y-85368857D01*
X147609478Y-85368853D01*
X147609481Y-85368851D01*
X147675141Y-85246008D01*
X147698109Y-85203039D01*
X147752689Y-85023115D01*
X147771118Y-84836000D01*
X150932882Y-84836000D01*
X150951310Y-85023115D01*
X150951311Y-85023117D01*
X151005891Y-85203040D01*
X151094518Y-85368851D01*
X151094523Y-85368857D01*
X151213800Y-85514199D01*
X151359142Y-85633476D01*
X151359148Y-85633481D01*
X151490548Y-85703715D01*
X151524961Y-85722109D01*
X151704882Y-85776688D01*
X151704884Y-85776689D01*
X151721660Y-85778341D01*
X151892000Y-85795118D01*
X152079115Y-85776689D01*
X152259039Y-85722109D01*
X152352047Y-85672395D01*
X152424851Y-85633481D01*
X152424853Y-85633478D01*
X152424857Y-85633477D01*
X152570199Y-85514199D01*
X152689477Y-85368857D01*
X152689478Y-85368853D01*
X152689481Y-85368851D01*
X152755141Y-85246008D01*
X152778109Y-85203039D01*
X152832689Y-85023115D01*
X152851118Y-84836000D01*
X153472882Y-84836000D01*
X153491310Y-85023115D01*
X153491311Y-85023117D01*
X153545891Y-85203040D01*
X153634518Y-85368851D01*
X153634523Y-85368857D01*
X153753800Y-85514199D01*
X153899142Y-85633476D01*
X153899148Y-85633481D01*
X154030548Y-85703715D01*
X154064961Y-85722109D01*
X154244882Y-85776688D01*
X154244884Y-85776689D01*
X154261660Y-85778341D01*
X154432000Y-85795118D01*
X154619115Y-85776689D01*
X154799039Y-85722109D01*
X154892047Y-85672395D01*
X154964851Y-85633481D01*
X154964853Y-85633478D01*
X154964857Y-85633477D01*
X155110199Y-85514199D01*
X155229477Y-85368857D01*
X155229478Y-85368853D01*
X155229481Y-85368851D01*
X155295141Y-85246008D01*
X155318109Y-85203039D01*
X155372689Y-85023115D01*
X155391118Y-84836000D01*
X156012882Y-84836000D01*
X156031310Y-85023115D01*
X156031311Y-85023117D01*
X156085891Y-85203040D01*
X156174518Y-85368851D01*
X156174523Y-85368857D01*
X156293800Y-85514199D01*
X156439142Y-85633476D01*
X156439148Y-85633481D01*
X156570548Y-85703715D01*
X156604961Y-85722109D01*
X156784882Y-85776688D01*
X156784884Y-85776689D01*
X156801660Y-85778341D01*
X156972000Y-85795118D01*
X157159115Y-85776689D01*
X157339039Y-85722109D01*
X157432047Y-85672395D01*
X157504851Y-85633481D01*
X157504853Y-85633478D01*
X157504857Y-85633477D01*
X157650199Y-85514199D01*
X157769477Y-85368857D01*
X157769478Y-85368853D01*
X157769481Y-85368851D01*
X157835141Y-85246008D01*
X157858109Y-85203039D01*
X157912689Y-85023115D01*
X157931118Y-84836000D01*
X157912689Y-84648885D01*
X157858109Y-84468961D01*
X157853988Y-84461251D01*
X157769481Y-84303148D01*
X157769476Y-84303142D01*
X157650199Y-84157800D01*
X157504857Y-84038523D01*
X157504851Y-84038518D01*
X157339040Y-83949891D01*
X157159117Y-83895311D01*
X157159115Y-83895310D01*
X156972000Y-83876882D01*
X156784884Y-83895310D01*
X156784882Y-83895311D01*
X156604959Y-83949891D01*
X156439148Y-84038518D01*
X156439142Y-84038523D01*
X156293800Y-84157800D01*
X156174523Y-84303142D01*
X156174518Y-84303148D01*
X156085891Y-84468959D01*
X156031311Y-84648882D01*
X156031310Y-84648884D01*
X156012882Y-84836000D01*
X155391118Y-84836000D01*
X155372689Y-84648885D01*
X155318109Y-84468961D01*
X155313988Y-84461251D01*
X155229481Y-84303148D01*
X155229476Y-84303142D01*
X155110199Y-84157800D01*
X154964857Y-84038523D01*
X154964851Y-84038518D01*
X154799040Y-83949891D01*
X154619117Y-83895311D01*
X154619115Y-83895310D01*
X154432000Y-83876882D01*
X154244884Y-83895310D01*
X154244882Y-83895311D01*
X154064959Y-83949891D01*
X153899148Y-84038518D01*
X153899142Y-84038523D01*
X153753800Y-84157800D01*
X153634523Y-84303142D01*
X153634518Y-84303148D01*
X153545891Y-84468959D01*
X153491311Y-84648882D01*
X153491310Y-84648884D01*
X153472882Y-84836000D01*
X152851118Y-84836000D01*
X152832689Y-84648885D01*
X152778109Y-84468961D01*
X152773988Y-84461251D01*
X152689481Y-84303148D01*
X152689476Y-84303142D01*
X152570199Y-84157800D01*
X152424857Y-84038523D01*
X152424851Y-84038518D01*
X152259040Y-83949891D01*
X152079117Y-83895311D01*
X152079115Y-83895310D01*
X151892000Y-83876882D01*
X151704884Y-83895310D01*
X151704882Y-83895311D01*
X151524959Y-83949891D01*
X151359148Y-84038518D01*
X151359142Y-84038523D01*
X151213800Y-84157800D01*
X151094523Y-84303142D01*
X151094518Y-84303148D01*
X151005891Y-84468959D01*
X150951311Y-84648882D01*
X150951310Y-84648884D01*
X150932882Y-84836000D01*
X147771118Y-84836000D01*
X147752689Y-84648885D01*
X147698109Y-84468961D01*
X147693988Y-84461251D01*
X147609481Y-84303148D01*
X147609476Y-84303142D01*
X147490199Y-84157800D01*
X147344857Y-84038523D01*
X147344851Y-84038518D01*
X147179040Y-83949891D01*
X146999117Y-83895311D01*
X146999115Y-83895310D01*
X146812000Y-83876882D01*
X146624884Y-83895310D01*
X146624882Y-83895311D01*
X146444959Y-83949891D01*
X146279148Y-84038518D01*
X146279142Y-84038523D01*
X146133800Y-84157800D01*
X146014523Y-84303142D01*
X146014518Y-84303148D01*
X145925891Y-84468959D01*
X145871311Y-84648882D01*
X145871310Y-84648884D01*
X145852882Y-84836000D01*
X145231118Y-84836000D01*
X145212689Y-84648885D01*
X145158109Y-84468961D01*
X145153988Y-84461251D01*
X145069481Y-84303148D01*
X145069476Y-84303142D01*
X144950199Y-84157800D01*
X144804857Y-84038523D01*
X144804851Y-84038518D01*
X144639040Y-83949891D01*
X144459117Y-83895311D01*
X144459115Y-83895310D01*
X144272000Y-83876882D01*
X144084884Y-83895310D01*
X144084882Y-83895311D01*
X143904959Y-83949891D01*
X143739148Y-84038518D01*
X143739142Y-84038523D01*
X143593800Y-84157800D01*
X143474523Y-84303142D01*
X143474518Y-84303148D01*
X143385891Y-84468959D01*
X143331311Y-84648882D01*
X143331310Y-84648884D01*
X143312882Y-84836000D01*
X142691118Y-84836000D01*
X142672689Y-84648885D01*
X142618109Y-84468961D01*
X142613988Y-84461251D01*
X142529481Y-84303148D01*
X142529476Y-84303142D01*
X142410199Y-84157800D01*
X142264857Y-84038523D01*
X142264851Y-84038518D01*
X142099040Y-83949891D01*
X141919117Y-83895311D01*
X141919115Y-83895310D01*
X141732000Y-83876882D01*
X141544884Y-83895310D01*
X141544882Y-83895311D01*
X141364959Y-83949891D01*
X141199148Y-84038518D01*
X141199142Y-84038523D01*
X141053800Y-84157800D01*
X140934523Y-84303142D01*
X140934518Y-84303148D01*
X140845891Y-84468959D01*
X140791311Y-84648882D01*
X140791310Y-84648884D01*
X140772882Y-84836000D01*
X140151118Y-84836000D01*
X140132689Y-84648885D01*
X140078109Y-84468961D01*
X140073988Y-84461251D01*
X139989481Y-84303148D01*
X139989476Y-84303142D01*
X139870199Y-84157800D01*
X139724857Y-84038523D01*
X139724851Y-84038518D01*
X139559040Y-83949891D01*
X139379117Y-83895311D01*
X139379115Y-83895310D01*
X139192000Y-83876882D01*
X139004884Y-83895310D01*
X139004882Y-83895311D01*
X138824959Y-83949891D01*
X138659148Y-84038518D01*
X138659142Y-84038523D01*
X138513800Y-84157800D01*
X138394523Y-84303142D01*
X138394518Y-84303148D01*
X138305891Y-84468959D01*
X138251311Y-84648882D01*
X138251310Y-84648884D01*
X138232882Y-84836000D01*
X137611118Y-84836000D01*
X137592689Y-84648885D01*
X137538109Y-84468961D01*
X137533988Y-84461251D01*
X137449481Y-84303148D01*
X137449476Y-84303142D01*
X137330199Y-84157800D01*
X137184857Y-84038523D01*
X137184851Y-84038518D01*
X137019040Y-83949891D01*
X136839117Y-83895311D01*
X136839115Y-83895310D01*
X136652000Y-83876882D01*
X136464884Y-83895310D01*
X136464882Y-83895311D01*
X136284959Y-83949891D01*
X136119148Y-84038518D01*
X136119142Y-84038523D01*
X135973800Y-84157800D01*
X135854523Y-84303142D01*
X135854518Y-84303148D01*
X135765891Y-84468959D01*
X135711311Y-84648882D01*
X135711310Y-84648884D01*
X135692882Y-84836000D01*
X135711310Y-85023115D01*
X135711311Y-85023117D01*
X135765891Y-85203040D01*
X135854518Y-85368851D01*
X135854523Y-85368857D01*
X135973800Y-85514199D01*
X136033438Y-85563142D01*
X136119143Y-85633477D01*
X136158954Y-85654756D01*
X136208796Y-85703715D01*
X136224500Y-85764113D01*
X136224500Y-98898423D01*
X136204815Y-98965462D01*
X136158955Y-99007780D01*
X136058848Y-99061289D01*
X135897063Y-99194063D01*
X135764291Y-99355846D01*
X135665629Y-99540428D01*
X135604872Y-99740715D01*
X135584359Y-99949000D01*
X135179641Y-99949000D01*
X135159127Y-99740714D01*
X135098372Y-99540431D01*
X134999711Y-99355850D01*
X134972654Y-99322881D01*
X134866936Y-99194063D01*
X134705151Y-99061289D01*
X134605045Y-99007780D01*
X134555202Y-98958817D01*
X134539500Y-98898423D01*
X134539500Y-85764113D01*
X134559185Y-85697074D01*
X134605044Y-85654756D01*
X134644857Y-85633477D01*
X134790199Y-85514199D01*
X134909477Y-85368857D01*
X134909478Y-85368853D01*
X134909481Y-85368851D01*
X134975141Y-85246008D01*
X134998109Y-85203039D01*
X135052689Y-85023115D01*
X135071118Y-84836000D01*
X135052689Y-84648885D01*
X134998109Y-84468961D01*
X134993988Y-84461251D01*
X134909481Y-84303148D01*
X134909476Y-84303142D01*
X134790199Y-84157800D01*
X134644857Y-84038523D01*
X134644851Y-84038518D01*
X134479040Y-83949891D01*
X134299117Y-83895311D01*
X134299115Y-83895310D01*
X134112000Y-83876882D01*
X133924884Y-83895310D01*
X133924882Y-83895311D01*
X133744959Y-83949891D01*
X133579148Y-84038518D01*
X133579142Y-84038523D01*
X133433800Y-84157800D01*
X133314523Y-84303142D01*
X133314518Y-84303148D01*
X133225891Y-84468959D01*
X133171311Y-84648882D01*
X133171310Y-84648884D01*
X133152882Y-84836000D01*
X133171310Y-85023115D01*
X133171311Y-85023117D01*
X133225891Y-85203040D01*
X133314518Y-85368851D01*
X133314523Y-85368857D01*
X133433800Y-85514199D01*
X133493438Y-85563142D01*
X133579143Y-85633477D01*
X133618954Y-85654756D01*
X133668796Y-85703715D01*
X133684500Y-85764113D01*
X133684500Y-98898423D01*
X133664815Y-98965462D01*
X133618955Y-99007780D01*
X133518848Y-99061289D01*
X133357063Y-99194063D01*
X133224291Y-99355846D01*
X133125629Y-99540428D01*
X133064872Y-99740715D01*
X133044359Y-99949000D01*
X132639641Y-99949000D01*
X132619127Y-99740714D01*
X132558372Y-99540431D01*
X132459711Y-99355850D01*
X132432654Y-99322881D01*
X132326936Y-99194063D01*
X132165153Y-99061291D01*
X132165151Y-99061290D01*
X132165150Y-99061289D01*
X131980569Y-98962628D01*
X131848423Y-98922542D01*
X131780284Y-98901872D01*
X131572000Y-98881359D01*
X131363715Y-98901872D01*
X131163428Y-98962629D01*
X130978846Y-99061291D01*
X130817063Y-99194063D01*
X130684291Y-99355846D01*
X130585629Y-99540428D01*
X130524872Y-99740715D01*
X130504359Y-99949000D01*
X130524872Y-100157285D01*
X130557821Y-100265906D01*
X130558444Y-100335773D01*
X130526841Y-100389581D01*
X128764243Y-102152181D01*
X128702920Y-102185666D01*
X128676562Y-102188500D01*
X100558438Y-102188500D01*
X100491399Y-102168815D01*
X100470757Y-102152181D01*
X98507819Y-100189243D01*
X98474334Y-100127920D01*
X98471500Y-100101562D01*
X98471500Y-99943071D01*
X98491185Y-99876032D01*
X98543989Y-99830277D01*
X98613147Y-99820333D01*
X98676703Y-99849358D01*
X98701735Y-99880952D01*
X98701869Y-99880861D01*
X98703262Y-99882879D01*
X98705299Y-99885450D01*
X98706128Y-99887031D01*
X98706130Y-99887035D01*
X98711559Y-99894900D01*
X98722581Y-99914443D01*
X98726502Y-99923155D01*
X98733919Y-99932622D01*
X98763682Y-99970613D01*
X98765902Y-99973629D01*
X98800144Y-100023237D01*
X98845255Y-100063202D01*
X98847966Y-100065753D01*
X100340238Y-101558024D01*
X100342789Y-101560735D01*
X100382763Y-101605856D01*
X100432374Y-101640100D01*
X100432380Y-101640104D01*
X100435396Y-101642324D01*
X100482843Y-101679496D01*
X100482844Y-101679496D01*
X100482845Y-101679497D01*
X100491547Y-101683413D01*
X100511095Y-101694438D01*
X100518965Y-101699870D01*
X100575351Y-101721254D01*
X100578772Y-101722670D01*
X100633762Y-101747420D01*
X100639963Y-101748556D01*
X100643149Y-101749140D01*
X100664776Y-101755168D01*
X100673709Y-101758556D01*
X100733558Y-101765822D01*
X100737253Y-101766385D01*
X100744163Y-101767651D01*
X100796550Y-101777252D01*
X100849237Y-101774065D01*
X100856715Y-101773613D01*
X100860459Y-101773500D01*
X108181541Y-101773500D01*
X108185285Y-101773613D01*
X108245447Y-101777252D01*
X108245447Y-101777251D01*
X108245450Y-101777252D01*
X108304757Y-101766383D01*
X108308434Y-101765823D01*
X108368291Y-101758556D01*
X108377218Y-101755169D01*
X108398839Y-101749143D01*
X108399974Y-101748934D01*
X108408237Y-101747421D01*
X108463227Y-101722670D01*
X108466667Y-101721246D01*
X108523035Y-101699870D01*
X108530891Y-101694446D01*
X108550447Y-101683416D01*
X108559155Y-101679498D01*
X108606617Y-101642312D01*
X108609625Y-101640100D01*
X108627995Y-101627419D01*
X108659237Y-101605856D01*
X108699234Y-101560707D01*
X108701753Y-101558032D01*
X110333724Y-99926060D01*
X110336399Y-99923541D01*
X110381556Y-99883537D01*
X110415814Y-99833903D01*
X110418008Y-99830921D01*
X110455197Y-99783455D01*
X110459111Y-99774756D01*
X110470142Y-99755196D01*
X110475570Y-99747335D01*
X110496948Y-99690962D01*
X110498381Y-99687504D01*
X110501083Y-99681500D01*
X110523121Y-99632537D01*
X110524842Y-99623139D01*
X110530869Y-99601518D01*
X110534256Y-99592591D01*
X110541523Y-99532734D01*
X110542086Y-99529042D01*
X110552952Y-99469750D01*
X110550310Y-99426077D01*
X110549313Y-99409585D01*
X110549200Y-99405841D01*
X110549200Y-98473500D01*
X110568885Y-98406461D01*
X110621689Y-98360706D01*
X110673200Y-98349500D01*
X123827990Y-98349500D01*
X123828000Y-98349500D01*
X123892941Y-98342518D01*
X123944452Y-98331312D01*
X123982658Y-98320354D01*
X124079571Y-98263675D01*
X124132375Y-98217920D01*
X124132382Y-98217912D01*
X124132387Y-98217908D01*
X124174548Y-98173192D01*
X124174553Y-98173187D01*
X124225439Y-98073111D01*
X124245124Y-98006072D01*
X124257500Y-97920000D01*
X124257500Y-89532000D01*
X124250518Y-89467059D01*
X124239312Y-89415548D01*
X124228354Y-89377342D01*
X124171675Y-89280429D01*
X124125920Y-89227625D01*
X124125918Y-89227623D01*
X124125908Y-89227612D01*
X124081192Y-89185451D01*
X124081189Y-89185449D01*
X124081187Y-89185447D01*
X123981111Y-89134561D01*
X123981110Y-89134560D01*
X123981109Y-89134560D01*
X123914078Y-89114877D01*
X123914072Y-89114876D01*
X123828000Y-89102500D01*
X105069927Y-89102500D01*
X105002888Y-89082815D01*
X104957133Y-89030011D01*
X104947189Y-88960853D01*
X104976214Y-88897297D01*
X105024434Y-88863146D01*
X105060658Y-88848862D01*
X105178500Y-88759500D01*
X105267862Y-88641658D01*
X105322117Y-88504077D01*
X105332500Y-88417618D01*
X105332500Y-88005937D01*
X105352185Y-87938898D01*
X105368814Y-87918260D01*
X106454854Y-86832220D01*
X106460022Y-86827601D01*
X106488920Y-86804558D01*
X106520075Y-86758861D01*
X106521405Y-86756988D01*
X106528190Y-86747795D01*
X106554229Y-86712514D01*
X106554230Y-86712510D01*
X106557986Y-86705406D01*
X106561510Y-86698088D01*
X106561515Y-86698081D01*
X106577813Y-86645239D01*
X106578528Y-86643068D01*
X106581582Y-86634343D01*
X106596793Y-86590874D01*
X106596793Y-86590868D01*
X106598295Y-86582928D01*
X106599500Y-86574936D01*
X106599500Y-86519670D01*
X106599542Y-86517387D01*
X106601611Y-86462095D01*
X106601610Y-86462094D01*
X106600571Y-86452864D01*
X106601456Y-86452764D01*
X106599500Y-86437892D01*
X106599500Y-84940933D01*
X106619185Y-84873894D01*
X106641271Y-84848119D01*
X106654951Y-84836000D01*
X125532882Y-84836000D01*
X125551310Y-85023115D01*
X125551311Y-85023117D01*
X125605891Y-85203040D01*
X125694518Y-85368851D01*
X125694523Y-85368857D01*
X125813800Y-85514199D01*
X125959142Y-85633476D01*
X125959148Y-85633481D01*
X126090548Y-85703715D01*
X126124961Y-85722109D01*
X126304882Y-85776688D01*
X126304884Y-85776689D01*
X126321660Y-85778341D01*
X126492000Y-85795118D01*
X126679115Y-85776689D01*
X126859039Y-85722109D01*
X126952047Y-85672395D01*
X127024851Y-85633481D01*
X127024853Y-85633478D01*
X127024857Y-85633477D01*
X127170199Y-85514199D01*
X127289477Y-85368857D01*
X127289478Y-85368853D01*
X127289481Y-85368851D01*
X127355141Y-85246008D01*
X127378109Y-85203039D01*
X127432689Y-85023115D01*
X127451118Y-84836000D01*
X128072882Y-84836000D01*
X128091310Y-85023115D01*
X128091311Y-85023117D01*
X128145891Y-85203040D01*
X128234518Y-85368851D01*
X128234523Y-85368857D01*
X128353800Y-85514199D01*
X128499142Y-85633476D01*
X128499148Y-85633481D01*
X128630548Y-85703715D01*
X128664961Y-85722109D01*
X128844882Y-85776688D01*
X128844884Y-85776689D01*
X128861660Y-85778341D01*
X129032000Y-85795118D01*
X129219115Y-85776689D01*
X129399039Y-85722109D01*
X129492047Y-85672395D01*
X129564851Y-85633481D01*
X129564853Y-85633478D01*
X129564857Y-85633477D01*
X129710199Y-85514199D01*
X129829477Y-85368857D01*
X129829478Y-85368853D01*
X129829481Y-85368851D01*
X129895141Y-85246008D01*
X129918109Y-85203039D01*
X129972689Y-85023115D01*
X129991118Y-84836000D01*
X130612882Y-84836000D01*
X130631310Y-85023115D01*
X130631311Y-85023117D01*
X130685891Y-85203040D01*
X130774518Y-85368851D01*
X130774523Y-85368857D01*
X130893800Y-85514199D01*
X131039142Y-85633476D01*
X131039148Y-85633481D01*
X131170548Y-85703715D01*
X131204961Y-85722109D01*
X131384882Y-85776688D01*
X131384884Y-85776689D01*
X131401660Y-85778341D01*
X131572000Y-85795118D01*
X131759115Y-85776689D01*
X131939039Y-85722109D01*
X132032047Y-85672395D01*
X132104851Y-85633481D01*
X132104853Y-85633478D01*
X132104857Y-85633477D01*
X132250199Y-85514199D01*
X132369477Y-85368857D01*
X132369478Y-85368853D01*
X132369481Y-85368851D01*
X132435141Y-85246008D01*
X132458109Y-85203039D01*
X132512689Y-85023115D01*
X132531118Y-84836000D01*
X132512689Y-84648885D01*
X132458109Y-84468961D01*
X132453988Y-84461251D01*
X132369481Y-84303148D01*
X132369476Y-84303142D01*
X132250199Y-84157800D01*
X132104857Y-84038523D01*
X132104851Y-84038518D01*
X131939040Y-83949891D01*
X131759117Y-83895311D01*
X131759115Y-83895310D01*
X131572000Y-83876882D01*
X131384884Y-83895310D01*
X131384882Y-83895311D01*
X131204959Y-83949891D01*
X131039148Y-84038518D01*
X131039142Y-84038523D01*
X130893800Y-84157800D01*
X130774523Y-84303142D01*
X130774518Y-84303148D01*
X130685891Y-84468959D01*
X130631311Y-84648882D01*
X130631310Y-84648884D01*
X130612882Y-84836000D01*
X129991118Y-84836000D01*
X129972689Y-84648885D01*
X129918109Y-84468961D01*
X129913988Y-84461251D01*
X129829481Y-84303148D01*
X129829476Y-84303142D01*
X129710199Y-84157800D01*
X129564857Y-84038523D01*
X129564851Y-84038518D01*
X129399040Y-83949891D01*
X129219117Y-83895311D01*
X129219115Y-83895310D01*
X129032000Y-83876882D01*
X128844884Y-83895310D01*
X128844882Y-83895311D01*
X128664959Y-83949891D01*
X128499148Y-84038518D01*
X128499142Y-84038523D01*
X128353800Y-84157800D01*
X128234523Y-84303142D01*
X128234518Y-84303148D01*
X128145891Y-84468959D01*
X128091311Y-84648882D01*
X128091310Y-84648884D01*
X128072882Y-84836000D01*
X127451118Y-84836000D01*
X127432689Y-84648885D01*
X127378109Y-84468961D01*
X127373988Y-84461251D01*
X127289481Y-84303148D01*
X127289476Y-84303142D01*
X127170199Y-84157800D01*
X127024857Y-84038523D01*
X127024851Y-84038518D01*
X126859040Y-83949891D01*
X126679117Y-83895311D01*
X126679115Y-83895310D01*
X126492000Y-83876882D01*
X126304884Y-83895310D01*
X126304882Y-83895311D01*
X126124959Y-83949891D01*
X125959148Y-84038518D01*
X125959142Y-84038523D01*
X125813800Y-84157800D01*
X125694523Y-84303142D01*
X125694518Y-84303148D01*
X125605891Y-84468959D01*
X125551311Y-84648882D01*
X125551310Y-84648884D01*
X125532882Y-84836000D01*
X106654951Y-84836000D01*
X106700183Y-84795929D01*
X106796818Y-84655930D01*
X106857140Y-84496872D01*
X106877645Y-84328000D01*
X106857140Y-84159128D01*
X106796818Y-84000070D01*
X106796496Y-83999604D01*
X106733187Y-83907885D01*
X106700183Y-83860071D01*
X106605316Y-83776026D01*
X106572849Y-83747263D01*
X106422226Y-83668210D01*
X106257056Y-83627500D01*
X106086944Y-83627500D01*
X105921773Y-83668210D01*
X105771150Y-83747263D01*
X105643816Y-83860072D01*
X105547182Y-84000068D01*
X105486860Y-84159125D01*
X105486859Y-84159130D01*
X105466355Y-84328000D01*
X105486859Y-84496869D01*
X105486860Y-84496874D01*
X105547182Y-84655931D01*
X105643817Y-84795930D01*
X105680349Y-84828293D01*
X105702726Y-84848118D01*
X105739853Y-84907306D01*
X105744500Y-84940933D01*
X105744500Y-86282062D01*
X105724815Y-86349101D01*
X105708181Y-86369743D01*
X104751743Y-87326181D01*
X104690420Y-87359666D01*
X104664062Y-87362500D01*
X104252381Y-87362500D01*
X104165925Y-87372882D01*
X104165924Y-87372882D01*
X104028339Y-87427139D01*
X103910499Y-87516499D01*
X103821139Y-87634339D01*
X103766882Y-87771924D01*
X103766882Y-87771925D01*
X103756500Y-87858381D01*
X103756500Y-88417618D01*
X103766882Y-88504074D01*
X103766882Y-88504075D01*
X103821139Y-88641660D01*
X103910499Y-88759500D01*
X104028339Y-88848860D01*
X104028342Y-88848862D01*
X104064564Y-88863146D01*
X104119707Y-88906051D01*
X104142900Y-88971959D01*
X104126780Y-89039943D01*
X104076463Y-89088420D01*
X104019073Y-89102500D01*
X103756000Y-89102500D01*
X103755991Y-89102500D01*
X103755990Y-89102501D01*
X103691064Y-89109481D01*
X103691052Y-89109483D01*
X103639546Y-89120688D01*
X103601345Y-89131644D01*
X103601341Y-89131646D01*
X103504431Y-89188323D01*
X103504428Y-89188325D01*
X103451623Y-89234081D01*
X103451612Y-89234091D01*
X103409451Y-89278807D01*
X103409445Y-89278816D01*
X103358560Y-89378890D01*
X103338877Y-89445921D01*
X103326499Y-89532002D01*
X103326499Y-96170768D01*
X103306814Y-96237807D01*
X103254010Y-96283562D01*
X103184852Y-96293506D01*
X103157010Y-96286123D01*
X103098078Y-96262883D01*
X103098074Y-96262882D01*
X103011619Y-96252500D01*
X103011618Y-96252500D01*
X102427382Y-96252500D01*
X102427381Y-96252500D01*
X102340925Y-96262882D01*
X102340924Y-96262882D01*
X102203339Y-96317139D01*
X102085499Y-96406499D01*
X101996139Y-96524339D01*
X101941882Y-96661924D01*
X101941882Y-96661925D01*
X101931500Y-96748381D01*
X101931500Y-97307618D01*
X101941882Y-97394074D01*
X101941882Y-97394075D01*
X101941883Y-97394077D01*
X101982818Y-97497882D01*
X101996139Y-97531660D01*
X102085499Y-97649500D01*
X102185807Y-97725565D01*
X102203342Y-97738862D01*
X102213488Y-97742863D01*
X102268633Y-97785768D01*
X102291827Y-97851676D01*
X102292000Y-97858218D01*
X102292000Y-98229781D01*
X102272315Y-98296820D01*
X102219511Y-98342575D01*
X102213492Y-98345135D01*
X102203341Y-98349137D01*
X102085499Y-98438499D01*
X101996139Y-98556339D01*
X101941882Y-98693924D01*
X101941882Y-98693925D01*
X101931500Y-98780381D01*
X101931500Y-99339618D01*
X101941882Y-99426074D01*
X101941882Y-99426075D01*
X101941883Y-99426077D01*
X101986978Y-99540431D01*
X101996139Y-99563660D01*
X102085499Y-99681500D01*
X102196556Y-99765716D01*
X102203342Y-99770862D01*
X102340923Y-99825117D01*
X102389028Y-99830894D01*
X102427381Y-99835500D01*
X102427382Y-99835500D01*
X103086619Y-99835500D01*
X103112640Y-99832375D01*
X103173077Y-99825117D01*
X103310658Y-99770862D01*
X103428500Y-99681500D01*
X103517862Y-99563658D01*
X103572117Y-99426077D01*
X103582500Y-99339618D01*
X103582500Y-98780382D01*
X103572117Y-98693923D01*
X103517862Y-98556342D01*
X103504137Y-98538243D01*
X103487915Y-98516850D01*
X103463093Y-98451539D01*
X103477522Y-98383175D01*
X103526620Y-98333464D01*
X103594799Y-98318189D01*
X103621655Y-98322949D01*
X103634628Y-98326758D01*
X103669919Y-98337122D01*
X103669923Y-98337122D01*
X103669928Y-98337124D01*
X103756000Y-98349500D01*
X109062200Y-98349500D01*
X109129239Y-98369185D01*
X109174994Y-98421989D01*
X109186200Y-98473500D01*
X109186200Y-99094651D01*
X109166515Y-99161690D01*
X109149881Y-99182332D01*
X107958032Y-100374181D01*
X107896709Y-100407666D01*
X107870351Y-100410500D01*
X101171648Y-100410500D01*
X101104609Y-100390815D01*
X101083967Y-100374181D01*
X100031819Y-99322032D01*
X99998334Y-99260709D01*
X99995500Y-99234351D01*
X99995500Y-86131618D01*
X101818500Y-86131618D01*
X101828882Y-86218074D01*
X101828882Y-86218075D01*
X101883139Y-86355660D01*
X101972499Y-86473500D01*
X102090339Y-86562860D01*
X102090342Y-86562862D01*
X102213491Y-86611425D01*
X102268633Y-86654330D01*
X102291826Y-86720238D01*
X102291999Y-86726779D01*
X102292000Y-87307781D01*
X102272316Y-87374820D01*
X102219512Y-87420575D01*
X102213492Y-87423135D01*
X102203341Y-87427137D01*
X102085499Y-87516499D01*
X101996139Y-87634339D01*
X101941882Y-87771924D01*
X101941882Y-87771925D01*
X101931500Y-87858381D01*
X101931500Y-88417618D01*
X101941882Y-88504074D01*
X101941882Y-88504075D01*
X101996139Y-88641660D01*
X102085499Y-88759500D01*
X102203339Y-88848860D01*
X102203342Y-88848862D01*
X102340923Y-88903117D01*
X102398562Y-88910039D01*
X102427381Y-88913500D01*
X102427382Y-88913500D01*
X103011619Y-88913500D01*
X103033232Y-88910904D01*
X103098077Y-88903117D01*
X103235658Y-88848862D01*
X103353500Y-88759500D01*
X103442862Y-88641658D01*
X103497117Y-88504077D01*
X103507500Y-88417618D01*
X103507500Y-87858382D01*
X103497117Y-87771923D01*
X103442862Y-87634342D01*
X103401791Y-87580181D01*
X103353500Y-87516499D01*
X103235658Y-87427137D01*
X103225508Y-87423135D01*
X103170365Y-87380228D01*
X103147173Y-87314320D01*
X103147000Y-87307781D01*
X103147000Y-86662865D01*
X103166685Y-86595826D01*
X103196076Y-86564060D01*
X103197653Y-86562863D01*
X103197658Y-86562862D01*
X103315500Y-86473500D01*
X103404862Y-86355658D01*
X103459117Y-86218077D01*
X103469500Y-86131618D01*
X103469500Y-85572382D01*
X103459117Y-85485923D01*
X103404862Y-85348342D01*
X103404860Y-85348339D01*
X103315500Y-85230499D01*
X103197660Y-85141139D01*
X103197658Y-85141138D01*
X103060077Y-85086883D01*
X103060076Y-85086882D01*
X103060074Y-85086882D01*
X102973619Y-85076500D01*
X102973618Y-85076500D01*
X102314382Y-85076500D01*
X102314381Y-85076500D01*
X102227925Y-85086882D01*
X102227924Y-85086882D01*
X102090339Y-85141139D01*
X101972499Y-85230499D01*
X101883139Y-85348339D01*
X101828882Y-85485924D01*
X101828882Y-85485925D01*
X101818500Y-85572381D01*
X101818500Y-86131618D01*
X99995500Y-86131618D01*
X99995500Y-84407648D01*
X100015185Y-84340609D01*
X100031819Y-84319967D01*
X101845967Y-82505819D01*
X101907290Y-82472334D01*
X101933648Y-82469500D01*
X103082781Y-82469500D01*
X103101541Y-82469500D01*
X103105285Y-82469613D01*
X103110314Y-82469917D01*
X103165450Y-82473252D01*
X103172207Y-82472013D01*
X103174843Y-82471531D01*
X103197193Y-82469500D01*
X105641541Y-82469500D01*
X105645285Y-82469613D01*
X105705447Y-82473252D01*
X105705447Y-82473251D01*
X105705450Y-82473252D01*
X105764757Y-82462383D01*
X105768434Y-82461823D01*
X105828291Y-82454556D01*
X105837218Y-82451169D01*
X105858839Y-82445143D01*
X105859974Y-82444934D01*
X105868237Y-82443421D01*
X105923227Y-82418670D01*
X105926667Y-82417246D01*
X105983035Y-82395870D01*
X105990891Y-82390446D01*
X106010447Y-82379416D01*
X106019155Y-82375498D01*
X106066617Y-82338312D01*
X106069625Y-82336100D01*
X106097956Y-82316545D01*
X106119237Y-82301856D01*
X106159234Y-82256707D01*
X106161753Y-82254032D01*
X108289024Y-80126760D01*
X108291699Y-80124241D01*
X108336856Y-80084237D01*
X108371114Y-80034603D01*
X108373308Y-80031621D01*
X108410497Y-79984155D01*
X108414411Y-79975456D01*
X108425442Y-79955896D01*
X108430870Y-79948035D01*
X108452248Y-79891662D01*
X108453681Y-79888204D01*
X108456322Y-79882337D01*
X108478421Y-79833237D01*
X108480142Y-79823839D01*
X108486169Y-79802218D01*
X108489556Y-79793291D01*
X108496823Y-79733434D01*
X108497386Y-79729742D01*
X108499631Y-79717492D01*
X108508252Y-79670450D01*
X108507737Y-79661942D01*
X108504613Y-79610285D01*
X108504500Y-79606541D01*
X108504500Y-79362390D01*
X108504500Y-79105846D01*
X108524183Y-79038811D01*
X108549833Y-79009999D01*
X108577936Y-78986936D01*
X108710711Y-78825150D01*
X108809372Y-78640569D01*
X108870127Y-78440286D01*
X108890641Y-78232000D01*
X108870127Y-78023714D01*
X108809372Y-77823431D01*
X108710711Y-77638850D01*
X108710708Y-77638846D01*
X108577936Y-77477063D01*
X108416153Y-77344291D01*
X108416151Y-77344290D01*
X108416150Y-77344289D01*
X108231569Y-77245628D01*
X108131427Y-77215250D01*
X108031284Y-77184872D01*
X107823000Y-77164359D01*
X107614715Y-77184872D01*
X107414428Y-77245629D01*
X107229846Y-77344291D01*
X107068063Y-77477063D01*
X106935291Y-77638846D01*
X106836629Y-77823428D01*
X106775872Y-78023715D01*
X106755359Y-78232000D01*
X106775872Y-78440284D01*
X106777057Y-78444189D01*
X106832438Y-78626757D01*
X106836629Y-78640571D01*
X106935291Y-78825153D01*
X107068061Y-78986933D01*
X107068062Y-78986934D01*
X107068064Y-78986936D01*
X107093065Y-79007453D01*
X107096164Y-79009997D01*
X107135498Y-79067743D01*
X107141499Y-79105849D01*
X107141500Y-79295350D01*
X107121816Y-79362390D01*
X107105181Y-79383032D01*
X105839997Y-80648215D01*
X105778674Y-80681700D01*
X105708982Y-80676716D01*
X105653049Y-80634844D01*
X105628632Y-80569380D01*
X105636961Y-80515045D01*
X105667117Y-80438577D01*
X105677500Y-80352118D01*
X105677500Y-79667882D01*
X105667117Y-79581423D01*
X105612862Y-79443842D01*
X105566749Y-79383032D01*
X105523500Y-79325999D01*
X105405660Y-79236639D01*
X105405658Y-79236638D01*
X105268077Y-79182383D01*
X105268076Y-79182382D01*
X105268074Y-79182382D01*
X105181619Y-79172000D01*
X105181618Y-79172000D01*
X104622382Y-79172000D01*
X104622381Y-79172000D01*
X104535925Y-79182382D01*
X104535924Y-79182382D01*
X104398339Y-79236639D01*
X104280499Y-79325999D01*
X104191139Y-79443839D01*
X104136882Y-79581424D01*
X104136882Y-79581425D01*
X104126500Y-79667881D01*
X104126500Y-79770350D01*
X104106815Y-79837389D01*
X104090181Y-79858031D01*
X102878032Y-81070181D01*
X102816709Y-81103666D01*
X102790351Y-81106500D01*
X101622459Y-81106500D01*
X101618715Y-81106387D01*
X101558553Y-81102748D01*
X101558551Y-81102748D01*
X101558550Y-81102748D01*
X101545487Y-81105141D01*
X101499262Y-81113611D01*
X101495563Y-81114174D01*
X101435713Y-81121442D01*
X101435711Y-81121443D01*
X101426777Y-81124831D01*
X101405169Y-81130855D01*
X101395760Y-81132579D01*
X101340792Y-81157318D01*
X101337333Y-81158751D01*
X101280964Y-81180130D01*
X101280960Y-81180132D01*
X101273092Y-81185563D01*
X101253558Y-81196580D01*
X101244851Y-81200499D01*
X101244846Y-81200502D01*
X101197397Y-81237673D01*
X101194383Y-81239891D01*
X101144764Y-81274141D01*
X101104790Y-81319262D01*
X101102223Y-81321989D01*
X98847988Y-83576223D01*
X98845262Y-83578790D01*
X98800146Y-83618760D01*
X98800143Y-83618764D01*
X98765905Y-83668364D01*
X98763686Y-83671380D01*
X98726502Y-83718844D01*
X98722581Y-83727556D01*
X98711557Y-83747102D01*
X98706132Y-83754960D01*
X98705299Y-83756549D01*
X98704382Y-83757496D01*
X98701868Y-83761139D01*
X98701262Y-83760721D01*
X98656716Y-83806763D01*
X98588698Y-83822740D01*
X98522839Y-83799408D01*
X98480050Y-83744173D01*
X98471500Y-83698927D01*
X98471500Y-83159437D01*
X98491185Y-83092398D01*
X98507814Y-83071761D01*
X107382419Y-74197155D01*
X107443740Y-74163672D01*
X107506091Y-74166176D01*
X107614714Y-74199127D01*
X107823000Y-74219641D01*
X108031286Y-74199127D01*
X108231569Y-74138372D01*
X108416150Y-74039711D01*
X108577936Y-73906936D01*
X108710711Y-73745150D01*
X108809372Y-73560569D01*
X108870127Y-73360286D01*
X108890641Y-73152000D01*
X108870127Y-72943714D01*
X108837176Y-72835092D01*
X108836554Y-72765228D01*
X108868155Y-72711420D01*
X109995756Y-71583818D01*
X110057080Y-71550334D01*
X110083438Y-71547500D01*
X147763565Y-71547500D01*
X147800508Y-71547500D01*
X147807448Y-71547889D01*
X147836723Y-71551188D01*
X147844165Y-71552027D01*
X147844165Y-71552026D01*
X147844166Y-71552027D01*
X147856665Y-71549661D01*
X147879719Y-71547500D01*
X178079561Y-71547500D01*
X178146600Y-71567185D01*
X178167242Y-71583819D01*
X179368181Y-72784757D01*
X179401666Y-72846080D01*
X179404500Y-72872438D01*
X179404500Y-83907885D01*
X179384815Y-83974924D01*
X179338955Y-84017242D01*
X179299142Y-84038523D01*
X179153800Y-84157800D01*
X179034523Y-84303142D01*
X179034518Y-84303148D01*
X178945891Y-84468959D01*
X178891311Y-84648882D01*
X178891310Y-84648884D01*
X178872882Y-84836000D01*
X178891310Y-85023115D01*
X178891311Y-85023117D01*
X178945891Y-85203040D01*
X179034518Y-85368851D01*
X179034523Y-85368857D01*
X179153800Y-85514199D01*
X179299142Y-85633476D01*
X179299148Y-85633481D01*
X179430548Y-85703715D01*
X179464961Y-85722109D01*
X179644882Y-85776688D01*
X179644884Y-85776689D01*
X179661660Y-85778341D01*
X179832000Y-85795118D01*
X180019115Y-85776689D01*
X180199039Y-85722109D01*
X180292047Y-85672395D01*
X180364851Y-85633481D01*
X180364853Y-85633478D01*
X180364857Y-85633477D01*
X180510199Y-85514199D01*
X180629477Y-85368857D01*
X180629478Y-85368853D01*
X180629481Y-85368851D01*
X180695141Y-85246008D01*
X180718109Y-85203039D01*
X180772689Y-85023115D01*
X180791118Y-84836000D01*
X183952882Y-84836000D01*
X183971310Y-85023115D01*
X183971311Y-85023117D01*
X184025891Y-85203040D01*
X184114518Y-85368851D01*
X184114523Y-85368857D01*
X184233800Y-85514199D01*
X184379142Y-85633476D01*
X184379148Y-85633481D01*
X184510548Y-85703715D01*
X184544961Y-85722109D01*
X184724882Y-85776688D01*
X184724884Y-85776689D01*
X184741660Y-85778341D01*
X184912000Y-85795118D01*
X185099115Y-85776689D01*
X185279039Y-85722109D01*
X185372047Y-85672395D01*
X185444851Y-85633481D01*
X185444853Y-85633478D01*
X185444857Y-85633477D01*
X185590199Y-85514199D01*
X185709477Y-85368857D01*
X185709478Y-85368853D01*
X185709481Y-85368851D01*
X185775141Y-85246008D01*
X185798109Y-85203039D01*
X185852689Y-85023115D01*
X185871118Y-84836000D01*
X185852689Y-84648885D01*
X185798109Y-84468961D01*
X185793988Y-84461251D01*
X185709481Y-84303148D01*
X185709476Y-84303142D01*
X185590199Y-84157800D01*
X185444857Y-84038523D01*
X185444851Y-84038518D01*
X185279040Y-83949891D01*
X185099117Y-83895311D01*
X185099115Y-83895310D01*
X184912000Y-83876882D01*
X184724884Y-83895310D01*
X184724882Y-83895311D01*
X184544959Y-83949891D01*
X184379148Y-84038518D01*
X184379142Y-84038523D01*
X184233800Y-84157800D01*
X184114523Y-84303142D01*
X184114518Y-84303148D01*
X184025891Y-84468959D01*
X183971311Y-84648882D01*
X183971310Y-84648884D01*
X183952882Y-84836000D01*
X180791118Y-84836000D01*
X180772689Y-84648885D01*
X180718109Y-84468961D01*
X180713988Y-84461251D01*
X180629481Y-84303148D01*
X180629476Y-84303142D01*
X180510199Y-84157800D01*
X180364857Y-84038523D01*
X180325045Y-84017242D01*
X180275201Y-83968279D01*
X180259500Y-83907885D01*
X180259500Y-72671485D01*
X180259889Y-72664547D01*
X180264026Y-72627834D01*
X180253735Y-72573452D01*
X180253374Y-72571327D01*
X180245122Y-72516569D01*
X180245120Y-72516566D01*
X180245120Y-72516562D01*
X180242754Y-72508891D01*
X180240069Y-72501220D01*
X180240068Y-72501211D01*
X180214226Y-72452316D01*
X180213204Y-72450290D01*
X180189207Y-72400460D01*
X180184669Y-72393804D01*
X180179849Y-72387273D01*
X180167244Y-72374668D01*
X180140752Y-72348176D01*
X180139170Y-72346533D01*
X180101551Y-72305990D01*
X180094287Y-72300197D01*
X180094843Y-72299499D01*
X180082946Y-72290370D01*
X179359761Y-71567185D01*
X178629719Y-70837143D01*
X178625101Y-70831975D01*
X178602058Y-70803080D01*
X178591224Y-70795693D01*
X178556381Y-70771936D01*
X178554491Y-70770596D01*
X178510014Y-70737771D01*
X178502843Y-70733981D01*
X178495586Y-70730487D01*
X178495582Y-70730485D01*
X178495581Y-70730485D01*
X178442751Y-70714188D01*
X178440579Y-70713474D01*
X178415828Y-70704813D01*
X178388371Y-70695206D01*
X178380447Y-70693707D01*
X178372436Y-70692500D01*
X178372435Y-70692500D01*
X178317161Y-70692500D01*
X178314875Y-70692457D01*
X178292413Y-70691617D01*
X178259593Y-70690388D01*
X178250360Y-70691429D01*
X178250260Y-70690542D01*
X178235390Y-70692500D01*
X177760461Y-70692500D01*
X177693422Y-70672815D01*
X177647667Y-70620011D01*
X177637723Y-70550853D01*
X177666748Y-70487297D01*
X177702008Y-70459142D01*
X177789914Y-70412154D01*
X177824857Y-70393477D01*
X177970199Y-70274199D01*
X178089477Y-70128857D01*
X178089478Y-70128853D01*
X178089481Y-70128851D01*
X178154093Y-70007970D01*
X178178109Y-69963039D01*
X178232689Y-69783115D01*
X178251118Y-69596000D01*
X178251118Y-69595999D01*
X178872882Y-69595999D01*
X178891310Y-69783115D01*
X178891311Y-69783117D01*
X178945891Y-69963040D01*
X179034518Y-70128851D01*
X179034523Y-70128857D01*
X179153800Y-70274199D01*
X179299142Y-70393476D01*
X179299148Y-70393481D01*
X179464959Y-70482108D01*
X179464961Y-70482109D01*
X179601691Y-70523586D01*
X179644882Y-70536688D01*
X179644884Y-70536689D01*
X179661660Y-70538341D01*
X179832000Y-70555118D01*
X180019115Y-70536689D01*
X180062308Y-70523585D01*
X180132174Y-70522960D01*
X180185987Y-70554564D01*
X188258181Y-78626757D01*
X188291666Y-78688080D01*
X188294500Y-78714438D01*
X188294500Y-89433561D01*
X188274815Y-89500600D01*
X188258181Y-89521242D01*
X186504241Y-91275181D01*
X186442918Y-91308666D01*
X186416560Y-91311500D01*
X185159143Y-91311500D01*
X185159117Y-91311502D01*
X185134012Y-91314413D01*
X185134008Y-91314415D01*
X185031235Y-91359793D01*
X184951794Y-91439234D01*
X184906415Y-91542006D01*
X184906415Y-91542008D01*
X184903500Y-91567131D01*
X184903500Y-93256856D01*
X184903502Y-93256882D01*
X184906413Y-93281987D01*
X184906415Y-93281991D01*
X184951793Y-93384764D01*
X184951794Y-93384764D01*
X184951794Y-93384765D01*
X185031235Y-93464206D01*
X185134009Y-93509585D01*
X185159135Y-93512500D01*
X185352500Y-93512499D01*
X185419539Y-93532183D01*
X185465294Y-93584987D01*
X185476500Y-93636499D01*
X185476500Y-98387500D01*
X185456815Y-98454539D01*
X185404011Y-98500294D01*
X185352501Y-98511500D01*
X185159143Y-98511500D01*
X185159117Y-98511502D01*
X185134012Y-98514413D01*
X185134008Y-98514415D01*
X185031235Y-98559793D01*
X184951794Y-98639234D01*
X184906415Y-98742006D01*
X184906415Y-98742008D01*
X184903500Y-98767131D01*
X184903500Y-100456856D01*
X184903502Y-100456882D01*
X184906413Y-100481987D01*
X184906415Y-100481991D01*
X184951793Y-100584764D01*
X184951794Y-100584764D01*
X184951794Y-100584765D01*
X185031235Y-100664206D01*
X185134009Y-100709585D01*
X185159135Y-100712500D01*
X186648864Y-100712499D01*
X186648879Y-100712497D01*
X186648882Y-100712497D01*
X186673987Y-100709586D01*
X186673988Y-100709585D01*
X186673991Y-100709585D01*
X186776765Y-100664206D01*
X186856206Y-100584765D01*
X186901585Y-100481991D01*
X186904500Y-100456865D01*
X186904500Y-100163499D01*
X186924185Y-100096461D01*
X186976989Y-100050706D01*
X187028500Y-100039500D01*
X187890599Y-100039500D01*
X187957638Y-100059185D01*
X188003393Y-100111989D01*
X188005954Y-100118012D01*
X188011137Y-100131156D01*
X188011139Y-100131160D01*
X188100499Y-100249000D01*
X188218339Y-100338360D01*
X188218342Y-100338362D01*
X188355923Y-100392617D01*
X188413562Y-100399539D01*
X188442381Y-100403000D01*
X188442382Y-100403000D01*
X189001619Y-100403000D01*
X189023232Y-100400404D01*
X189088077Y-100392617D01*
X189225658Y-100338362D01*
X189343500Y-100249000D01*
X189432862Y-100131158D01*
X189487117Y-99993577D01*
X189497500Y-99907118D01*
X189497500Y-99322882D01*
X189487117Y-99236423D01*
X189432862Y-99098842D01*
X189429684Y-99094651D01*
X189343500Y-98980999D01*
X189225660Y-98891639D01*
X189225658Y-98891638D01*
X189088077Y-98837383D01*
X189088076Y-98837382D01*
X189088074Y-98837382D01*
X189001619Y-98827000D01*
X189001618Y-98827000D01*
X188442382Y-98827000D01*
X188442381Y-98827000D01*
X188355925Y-98837382D01*
X188355924Y-98837382D01*
X188218339Y-98891639D01*
X188100499Y-98980999D01*
X188011139Y-99098839D01*
X188011137Y-99098843D01*
X188008320Y-99105988D01*
X187965415Y-99161133D01*
X187899507Y-99184327D01*
X187892965Y-99184500D01*
X187028499Y-99184500D01*
X186961460Y-99164815D01*
X186915705Y-99112011D01*
X186904499Y-99060500D01*
X186904499Y-98767143D01*
X186904499Y-98767137D01*
X186904499Y-98767136D01*
X186902451Y-98749475D01*
X186901586Y-98742012D01*
X186901585Y-98742010D01*
X186901585Y-98742009D01*
X186856206Y-98639235D01*
X186776765Y-98559794D01*
X186768940Y-98556339D01*
X186673992Y-98514415D01*
X186648868Y-98511500D01*
X186648865Y-98511500D01*
X186455500Y-98511500D01*
X186388461Y-98491815D01*
X186342706Y-98439011D01*
X186331500Y-98387500D01*
X186331500Y-98082118D01*
X187946499Y-98082118D01*
X187956882Y-98168574D01*
X187956882Y-98168575D01*
X187958699Y-98173183D01*
X187994384Y-98263674D01*
X188011139Y-98306160D01*
X188100499Y-98424000D01*
X188215888Y-98511501D01*
X188218342Y-98513362D01*
X188355923Y-98567617D01*
X188413562Y-98574539D01*
X188442381Y-98578000D01*
X188442382Y-98578000D01*
X189001619Y-98578000D01*
X189023232Y-98575404D01*
X189088077Y-98567617D01*
X189225658Y-98513362D01*
X189343500Y-98424000D01*
X189432862Y-98306158D01*
X189487117Y-98168577D01*
X189497500Y-98082118D01*
X189497500Y-97497882D01*
X189487117Y-97411423D01*
X189432862Y-97273842D01*
X189426782Y-97265824D01*
X189343500Y-97155999D01*
X189225660Y-97066639D01*
X189218266Y-97062482D01*
X189219242Y-97060744D01*
X189172865Y-97024658D01*
X189149673Y-96958750D01*
X189149500Y-96952211D01*
X189149500Y-95222288D01*
X189169185Y-95155249D01*
X189218531Y-95112490D01*
X189218266Y-95112018D01*
X189220573Y-95110720D01*
X189221989Y-95109494D01*
X189225132Y-95108157D01*
X189225652Y-95107864D01*
X189225658Y-95107862D01*
X189343500Y-95018500D01*
X189432862Y-94900658D01*
X189487117Y-94763077D01*
X189497500Y-94676618D01*
X189497500Y-94017382D01*
X189487117Y-93930923D01*
X189432862Y-93793342D01*
X189424476Y-93782283D01*
X189343500Y-93675499D01*
X189225660Y-93586139D01*
X189225658Y-93586138D01*
X189088077Y-93531883D01*
X189088076Y-93531882D01*
X189088074Y-93531882D01*
X189001619Y-93521500D01*
X189001618Y-93521500D01*
X188442382Y-93521500D01*
X188442381Y-93521500D01*
X188355925Y-93531882D01*
X188355924Y-93531882D01*
X188218339Y-93586139D01*
X188100499Y-93675499D01*
X188011139Y-93793339D01*
X187956882Y-93930924D01*
X187956882Y-93930925D01*
X187946500Y-94017381D01*
X187946500Y-94676618D01*
X187956882Y-94763074D01*
X187956882Y-94763075D01*
X188011139Y-94900660D01*
X188100499Y-95018500D01*
X188218339Y-95107860D01*
X188218342Y-95107862D01*
X188218343Y-95107862D01*
X188225734Y-95112018D01*
X188224755Y-95113757D01*
X188271124Y-95149825D01*
X188294326Y-95215730D01*
X188294500Y-95222288D01*
X188294500Y-96952211D01*
X188274815Y-97019250D01*
X188225468Y-97062009D01*
X188225734Y-97062482D01*
X188223423Y-97063781D01*
X188222011Y-97065005D01*
X188218872Y-97066339D01*
X188218339Y-97066639D01*
X188100499Y-97155999D01*
X188011139Y-97273839D01*
X187956882Y-97411424D01*
X187956882Y-97411425D01*
X187946499Y-97497881D01*
X187946499Y-98082118D01*
X186331500Y-98082118D01*
X186331500Y-93636499D01*
X186351185Y-93569460D01*
X186403989Y-93523705D01*
X186455500Y-93512499D01*
X186648856Y-93512499D01*
X186648864Y-93512499D01*
X186648879Y-93512497D01*
X186648882Y-93512497D01*
X186673987Y-93509586D01*
X186673988Y-93509585D01*
X186673991Y-93509585D01*
X186776765Y-93464206D01*
X186856206Y-93384765D01*
X186901585Y-93281991D01*
X186904500Y-93256865D01*
X186904499Y-92135437D01*
X186924184Y-92068399D01*
X186940813Y-92047762D01*
X189004854Y-89983720D01*
X189010022Y-89979101D01*
X189038920Y-89956058D01*
X189070084Y-89910346D01*
X189071407Y-89908484D01*
X189104228Y-89864014D01*
X189104230Y-89864005D01*
X189108030Y-89856818D01*
X189111515Y-89849581D01*
X189127812Y-89796746D01*
X189128537Y-89794542D01*
X189130223Y-89789722D01*
X189146792Y-89742375D01*
X189146792Y-89742372D01*
X189148295Y-89734429D01*
X189149499Y-89726437D01*
X189149500Y-89726435D01*
X189149499Y-89671145D01*
X189149541Y-89668861D01*
X189151610Y-89613595D01*
X189150570Y-89604364D01*
X189151461Y-89604263D01*
X189149500Y-89589403D01*
X189149500Y-78513493D01*
X189149889Y-78506556D01*
X189154027Y-78469834D01*
X189143741Y-78415479D01*
X189143356Y-78413204D01*
X189141666Y-78401991D01*
X189135122Y-78358569D01*
X189135118Y-78358561D01*
X189132732Y-78350820D01*
X189130070Y-78343213D01*
X189104230Y-78294322D01*
X189103185Y-78292252D01*
X189079207Y-78242460D01*
X189079203Y-78242456D01*
X189074657Y-78235787D01*
X189069850Y-78229274D01*
X189030752Y-78190176D01*
X189029170Y-78188533D01*
X188991551Y-78147990D01*
X188984287Y-78142197D01*
X188984843Y-78141499D01*
X188972946Y-78132370D01*
X180790564Y-69949988D01*
X180757079Y-69888665D01*
X180759584Y-69826312D01*
X180772689Y-69783115D01*
X180791118Y-69596000D01*
X180791118Y-69595999D01*
X181412882Y-69595999D01*
X181431310Y-69783115D01*
X181431311Y-69783117D01*
X181485891Y-69963040D01*
X181574518Y-70128851D01*
X181574523Y-70128857D01*
X181693800Y-70274199D01*
X181839142Y-70393476D01*
X181839148Y-70393481D01*
X182004959Y-70482108D01*
X182004961Y-70482109D01*
X182141691Y-70523586D01*
X182184882Y-70536688D01*
X182184884Y-70536689D01*
X182201660Y-70538341D01*
X182372000Y-70555118D01*
X182559115Y-70536689D01*
X182602308Y-70523585D01*
X182672174Y-70522960D01*
X182725987Y-70554564D01*
X191052181Y-78880757D01*
X191085666Y-78942080D01*
X191088500Y-78968438D01*
X191088500Y-99593561D01*
X191068815Y-99660600D01*
X191052181Y-99681242D01*
X189597243Y-101136181D01*
X189535920Y-101169666D01*
X189509562Y-101172500D01*
X187411492Y-101172500D01*
X187404551Y-101172110D01*
X187391183Y-101170604D01*
X187367832Y-101167972D01*
X187313523Y-101178249D01*
X187311238Y-101178637D01*
X187256564Y-101186878D01*
X187248870Y-101189252D01*
X187241209Y-101191932D01*
X187192349Y-101217754D01*
X187190283Y-101218797D01*
X187140457Y-101242793D01*
X187133782Y-101247344D01*
X187127272Y-101252149D01*
X187088187Y-101291234D01*
X187086519Y-101292841D01*
X187045995Y-101330443D01*
X187040201Y-101337709D01*
X187039505Y-101337154D01*
X187030375Y-101349046D01*
X186436241Y-101943181D01*
X186374918Y-101976666D01*
X186348560Y-101979500D01*
X185159143Y-101979500D01*
X185159117Y-101979502D01*
X185134012Y-101982413D01*
X185134008Y-101982415D01*
X185031235Y-102027793D01*
X184951794Y-102107234D01*
X184906415Y-102210006D01*
X184906415Y-102210008D01*
X184903500Y-102235131D01*
X184903500Y-103924856D01*
X184903502Y-103924882D01*
X184906413Y-103949987D01*
X184906415Y-103949991D01*
X184951793Y-104052764D01*
X184951794Y-104052765D01*
X185031235Y-104132206D01*
X185134009Y-104177585D01*
X185159135Y-104180500D01*
X185352500Y-104180499D01*
X185419539Y-104200183D01*
X185465294Y-104252987D01*
X185476500Y-104304499D01*
X185476500Y-109055500D01*
X185456815Y-109122539D01*
X185404011Y-109168294D01*
X185352501Y-109179500D01*
X185159143Y-109179500D01*
X185159117Y-109179502D01*
X185134012Y-109182413D01*
X185134008Y-109182415D01*
X185031235Y-109227793D01*
X184951794Y-109307234D01*
X184906415Y-109410006D01*
X184906415Y-109410008D01*
X184903500Y-109435131D01*
X184903500Y-111124856D01*
X184903502Y-111124882D01*
X184906413Y-111149987D01*
X184906415Y-111149991D01*
X184951793Y-111252764D01*
X184951794Y-111252765D01*
X185031235Y-111332206D01*
X185134009Y-111377585D01*
X185159135Y-111380500D01*
X186648864Y-111380499D01*
X186648879Y-111380497D01*
X186648882Y-111380497D01*
X186673987Y-111377586D01*
X186673988Y-111377585D01*
X186673991Y-111377585D01*
X186776765Y-111332206D01*
X186856206Y-111252765D01*
X186901585Y-111149991D01*
X186904500Y-111124865D01*
X186904500Y-110831500D01*
X186924185Y-110764461D01*
X186976989Y-110718706D01*
X187028500Y-110707500D01*
X187890599Y-110707500D01*
X187957638Y-110727185D01*
X188003393Y-110779989D01*
X188005954Y-110786012D01*
X188011137Y-110799156D01*
X188011139Y-110799160D01*
X188100499Y-110917000D01*
X188218339Y-111006360D01*
X188218342Y-111006362D01*
X188355923Y-111060617D01*
X188413562Y-111067539D01*
X188442381Y-111071000D01*
X188442382Y-111071000D01*
X189001619Y-111071000D01*
X189023232Y-111068404D01*
X189088077Y-111060617D01*
X189225658Y-111006362D01*
X189343500Y-110917000D01*
X189432862Y-110799158D01*
X189487117Y-110661577D01*
X189497500Y-110575118D01*
X189497500Y-109990882D01*
X189487117Y-109904423D01*
X189432862Y-109766842D01*
X189432860Y-109766839D01*
X189343500Y-109648999D01*
X189225660Y-109559639D01*
X189225658Y-109559638D01*
X189088077Y-109505383D01*
X189088076Y-109505382D01*
X189088074Y-109505382D01*
X189001619Y-109495000D01*
X189001618Y-109495000D01*
X188442382Y-109495000D01*
X188442381Y-109495000D01*
X188355925Y-109505382D01*
X188355924Y-109505382D01*
X188218339Y-109559639D01*
X188100499Y-109648999D01*
X188011139Y-109766839D01*
X188011137Y-109766843D01*
X188008320Y-109773988D01*
X187965415Y-109829133D01*
X187899507Y-109852327D01*
X187892965Y-109852500D01*
X187028499Y-109852500D01*
X186961460Y-109832815D01*
X186915705Y-109780011D01*
X186904499Y-109728500D01*
X186904499Y-109435143D01*
X186904499Y-109435136D01*
X186904497Y-109435117D01*
X186901586Y-109410012D01*
X186901585Y-109410010D01*
X186901585Y-109410009D01*
X186856206Y-109307235D01*
X186776765Y-109227794D01*
X186721133Y-109203230D01*
X186673992Y-109182415D01*
X186648868Y-109179500D01*
X186648865Y-109179500D01*
X186455500Y-109179500D01*
X186388461Y-109159815D01*
X186342706Y-109107011D01*
X186331500Y-109055500D01*
X186331500Y-108750118D01*
X187946499Y-108750118D01*
X187956882Y-108836574D01*
X187956882Y-108836575D01*
X188011139Y-108974160D01*
X188100499Y-109092000D01*
X188215888Y-109179501D01*
X188218342Y-109181362D01*
X188355923Y-109235617D01*
X188413562Y-109242539D01*
X188442381Y-109246000D01*
X188442382Y-109246000D01*
X189001619Y-109246000D01*
X189023232Y-109243404D01*
X189088077Y-109235617D01*
X189225658Y-109181362D01*
X189343500Y-109092000D01*
X189432862Y-108974158D01*
X189487117Y-108836577D01*
X189497500Y-108750118D01*
X189497500Y-108165882D01*
X189487117Y-108079423D01*
X189432862Y-107941842D01*
X189413474Y-107916275D01*
X189343500Y-107823999D01*
X189225660Y-107734639D01*
X189218266Y-107730482D01*
X189219242Y-107728744D01*
X189172865Y-107692658D01*
X189149673Y-107626750D01*
X189149500Y-107620211D01*
X189149500Y-105890288D01*
X189169185Y-105823249D01*
X189218531Y-105780490D01*
X189218266Y-105780018D01*
X189220573Y-105778720D01*
X189221989Y-105777494D01*
X189225132Y-105776157D01*
X189225652Y-105775864D01*
X189225658Y-105775862D01*
X189343500Y-105686500D01*
X189432862Y-105568658D01*
X189487117Y-105431077D01*
X189497500Y-105344618D01*
X189497500Y-104685382D01*
X189495583Y-104669423D01*
X189487117Y-104598925D01*
X189487117Y-104598924D01*
X189473985Y-104565623D01*
X189432862Y-104461342D01*
X189420631Y-104445213D01*
X189343500Y-104343499D01*
X189225660Y-104254139D01*
X189225658Y-104254138D01*
X189088077Y-104199883D01*
X189088076Y-104199882D01*
X189088074Y-104199882D01*
X189001619Y-104189500D01*
X189001618Y-104189500D01*
X188442382Y-104189500D01*
X188442381Y-104189500D01*
X188355925Y-104199882D01*
X188355924Y-104199882D01*
X188218339Y-104254139D01*
X188100499Y-104343499D01*
X188011139Y-104461339D01*
X187956882Y-104598924D01*
X187956882Y-104598925D01*
X187946500Y-104685381D01*
X187946500Y-105344618D01*
X187956882Y-105431074D01*
X187956882Y-105431075D01*
X188011139Y-105568660D01*
X188100499Y-105686500D01*
X188218339Y-105775860D01*
X188218342Y-105775862D01*
X188218343Y-105775862D01*
X188225734Y-105780018D01*
X188224755Y-105781757D01*
X188271124Y-105817825D01*
X188294326Y-105883730D01*
X188294500Y-105890288D01*
X188294500Y-107620211D01*
X188274815Y-107687250D01*
X188225468Y-107730009D01*
X188225734Y-107730482D01*
X188223423Y-107731781D01*
X188222011Y-107733005D01*
X188218872Y-107734339D01*
X188218339Y-107734639D01*
X188100499Y-107823999D01*
X188011139Y-107941839D01*
X187956882Y-108079424D01*
X187956882Y-108079425D01*
X187946499Y-108165881D01*
X187946499Y-108750118D01*
X186331500Y-108750118D01*
X186331500Y-104304499D01*
X186351185Y-104237460D01*
X186403989Y-104191705D01*
X186455500Y-104180499D01*
X186648856Y-104180499D01*
X186648864Y-104180499D01*
X186648879Y-104180497D01*
X186648882Y-104180497D01*
X186673987Y-104177586D01*
X186673988Y-104177585D01*
X186673991Y-104177585D01*
X186776765Y-104132206D01*
X186856206Y-104052765D01*
X186901585Y-103949991D01*
X186904500Y-103924865D01*
X186904499Y-102735437D01*
X186924184Y-102668399D01*
X186940813Y-102647762D01*
X187524756Y-102063819D01*
X187586080Y-102030334D01*
X187612438Y-102027500D01*
X189710508Y-102027500D01*
X189717448Y-102027889D01*
X189754166Y-102032027D01*
X189754166Y-102032026D01*
X189754167Y-102032027D01*
X189771762Y-102028697D01*
X189808510Y-102021743D01*
X189810697Y-102021371D01*
X189865431Y-102013122D01*
X189865436Y-102013119D01*
X189873164Y-102010735D01*
X189880784Y-102008068D01*
X189880789Y-102008068D01*
X189929667Y-101982234D01*
X189931719Y-101981198D01*
X189981540Y-101957207D01*
X189988211Y-101952657D01*
X189994718Y-101947854D01*
X189994726Y-101947851D01*
X190033835Y-101908740D01*
X190035458Y-101907176D01*
X190076008Y-101869553D01*
X190076010Y-101869549D01*
X190081805Y-101862283D01*
X190082507Y-101862843D01*
X190091627Y-101850948D01*
X191798854Y-100143720D01*
X191804022Y-100139101D01*
X191832920Y-100116058D01*
X191864075Y-100070361D01*
X191865405Y-100068488D01*
X191878529Y-100050706D01*
X191898229Y-100024014D01*
X191898230Y-100024010D01*
X191901991Y-100016896D01*
X191905511Y-100009585D01*
X191905515Y-100009581D01*
X191921820Y-99956716D01*
X191922531Y-99954560D01*
X191926552Y-99943071D01*
X191940792Y-99902375D01*
X191940792Y-99902373D01*
X191942295Y-99894423D01*
X191943500Y-99886437D01*
X191943500Y-99831160D01*
X191943542Y-99828876D01*
X191945611Y-99773595D01*
X191944571Y-99764364D01*
X191945456Y-99764264D01*
X191943500Y-99749392D01*
X191943500Y-89267243D01*
X191943500Y-78767475D01*
X191943887Y-78760575D01*
X191948027Y-78723834D01*
X191937741Y-78669479D01*
X191937356Y-78667204D01*
X191936734Y-78663076D01*
X191929122Y-78612569D01*
X191929118Y-78612561D01*
X191926732Y-78604820D01*
X191924070Y-78597213D01*
X191898228Y-78548318D01*
X191897182Y-78546247D01*
X191873206Y-78496457D01*
X191868656Y-78489785D01*
X191863849Y-78483271D01*
X191824766Y-78444189D01*
X191823157Y-78442519D01*
X191785552Y-78401991D01*
X191778289Y-78396199D01*
X191778844Y-78395502D01*
X191766949Y-78386372D01*
X187577734Y-74197157D01*
X183330563Y-69949987D01*
X183297079Y-69888665D01*
X183299584Y-69826312D01*
X183312689Y-69783115D01*
X183331118Y-69596000D01*
X183312689Y-69408885D01*
X183258109Y-69228961D01*
X183258108Y-69228959D01*
X183169481Y-69063148D01*
X183169476Y-69063142D01*
X183168851Y-69062381D01*
X183097898Y-68975923D01*
X183050199Y-68917800D01*
X182904857Y-68798523D01*
X182904851Y-68798518D01*
X182739040Y-68709891D01*
X182559117Y-68655311D01*
X182559115Y-68655310D01*
X182372000Y-68636882D01*
X182184884Y-68655310D01*
X182184882Y-68655311D01*
X182004959Y-68709891D01*
X181839148Y-68798518D01*
X181839142Y-68798523D01*
X181693800Y-68917800D01*
X181574523Y-69063142D01*
X181574518Y-69063148D01*
X181485891Y-69228959D01*
X181431311Y-69408882D01*
X181431310Y-69408884D01*
X181412882Y-69595999D01*
X180791118Y-69595999D01*
X180772689Y-69408885D01*
X180718109Y-69228961D01*
X180718108Y-69228959D01*
X180629481Y-69063148D01*
X180629476Y-69063142D01*
X180628851Y-69062381D01*
X180557898Y-68975923D01*
X180510199Y-68917800D01*
X180364857Y-68798523D01*
X180364851Y-68798518D01*
X180199040Y-68709891D01*
X180019117Y-68655311D01*
X180019115Y-68655310D01*
X179832000Y-68636882D01*
X179644884Y-68655310D01*
X179644882Y-68655311D01*
X179464959Y-68709891D01*
X179299148Y-68798518D01*
X179299142Y-68798523D01*
X179153800Y-68917800D01*
X179034523Y-69063142D01*
X179034518Y-69063148D01*
X178945891Y-69228959D01*
X178891311Y-69408882D01*
X178891310Y-69408884D01*
X178872882Y-69595999D01*
X178251118Y-69595999D01*
X178232689Y-69408885D01*
X178178109Y-69228961D01*
X178178108Y-69228959D01*
X178089481Y-69063148D01*
X178089476Y-69063142D01*
X178088851Y-69062381D01*
X178017898Y-68975923D01*
X177970199Y-68917800D01*
X177824857Y-68798523D01*
X177824851Y-68798518D01*
X177659040Y-68709891D01*
X177479117Y-68655311D01*
X177479115Y-68655310D01*
X177292000Y-68636882D01*
X177104884Y-68655310D01*
X177104882Y-68655311D01*
X176924959Y-68709891D01*
X176759148Y-68798518D01*
X176759142Y-68798523D01*
X176613800Y-68917800D01*
X176494523Y-69063142D01*
X176494518Y-69063148D01*
X176405891Y-69228959D01*
X176351311Y-69408882D01*
X176351310Y-69408884D01*
X176332882Y-69595999D01*
X176351310Y-69783115D01*
X176351311Y-69783117D01*
X176405891Y-69963040D01*
X176494518Y-70128851D01*
X176494523Y-70128857D01*
X176613800Y-70274199D01*
X176733077Y-70372086D01*
X176759143Y-70393477D01*
X176759145Y-70393478D01*
X176759148Y-70393480D01*
X176881992Y-70459142D01*
X176931836Y-70508104D01*
X176947297Y-70576242D01*
X176923465Y-70641921D01*
X176867908Y-70684290D01*
X176823539Y-70692500D01*
X175220461Y-70692500D01*
X175153422Y-70672815D01*
X175107667Y-70620011D01*
X175097723Y-70550853D01*
X175126748Y-70487297D01*
X175162008Y-70459142D01*
X175249914Y-70412154D01*
X175284857Y-70393477D01*
X175430199Y-70274199D01*
X175549477Y-70128857D01*
X175549478Y-70128853D01*
X175549481Y-70128851D01*
X175614093Y-70007970D01*
X175638109Y-69963039D01*
X175692689Y-69783115D01*
X175711118Y-69596000D01*
X175692689Y-69408885D01*
X175638109Y-69228961D01*
X175638108Y-69228959D01*
X175549481Y-69063148D01*
X175549476Y-69063142D01*
X175548851Y-69062381D01*
X175477898Y-68975923D01*
X175430199Y-68917800D01*
X175284857Y-68798523D01*
X175284851Y-68798518D01*
X175119040Y-68709891D01*
X174939117Y-68655311D01*
X174939115Y-68655310D01*
X174752000Y-68636882D01*
X174564884Y-68655310D01*
X174564882Y-68655311D01*
X174384959Y-68709891D01*
X174219148Y-68798518D01*
X174219142Y-68798523D01*
X174073800Y-68917800D01*
X173954523Y-69063142D01*
X173954518Y-69063148D01*
X173865891Y-69228959D01*
X173811311Y-69408882D01*
X173811310Y-69408884D01*
X173792882Y-69595999D01*
X173811310Y-69783115D01*
X173811311Y-69783117D01*
X173865891Y-69963040D01*
X173954518Y-70128851D01*
X173954523Y-70128857D01*
X174073800Y-70274199D01*
X174193077Y-70372086D01*
X174219143Y-70393477D01*
X174219145Y-70393478D01*
X174219148Y-70393480D01*
X174341992Y-70459142D01*
X174391836Y-70508104D01*
X174407297Y-70576242D01*
X174383465Y-70641921D01*
X174327908Y-70684290D01*
X174283539Y-70692500D01*
X172680461Y-70692500D01*
X172613422Y-70672815D01*
X172567667Y-70620011D01*
X172557723Y-70550853D01*
X172586748Y-70487297D01*
X172622008Y-70459142D01*
X172709914Y-70412154D01*
X172744857Y-70393477D01*
X172890199Y-70274199D01*
X173009477Y-70128857D01*
X173009478Y-70128853D01*
X173009481Y-70128851D01*
X173074093Y-70007970D01*
X173098109Y-69963039D01*
X173152689Y-69783115D01*
X173171118Y-69596000D01*
X173152689Y-69408885D01*
X173098109Y-69228961D01*
X173098108Y-69228959D01*
X173009481Y-69063148D01*
X173009476Y-69063142D01*
X173008851Y-69062381D01*
X172937898Y-68975923D01*
X172890199Y-68917800D01*
X172744857Y-68798523D01*
X172744851Y-68798518D01*
X172579040Y-68709891D01*
X172399117Y-68655311D01*
X172399115Y-68655310D01*
X172212000Y-68636882D01*
X172024884Y-68655310D01*
X172024882Y-68655311D01*
X171844959Y-68709891D01*
X171679148Y-68798518D01*
X171679142Y-68798523D01*
X171533800Y-68917800D01*
X171414523Y-69063142D01*
X171414518Y-69063148D01*
X171325891Y-69228959D01*
X171271311Y-69408882D01*
X171271310Y-69408884D01*
X171252882Y-69595999D01*
X171271310Y-69783115D01*
X171271311Y-69783117D01*
X171325891Y-69963040D01*
X171414518Y-70128851D01*
X171414523Y-70128857D01*
X171533800Y-70274199D01*
X171653078Y-70372086D01*
X171679143Y-70393477D01*
X171679145Y-70393478D01*
X171679148Y-70393480D01*
X171801992Y-70459142D01*
X171851836Y-70508104D01*
X171867297Y-70576242D01*
X171843465Y-70641921D01*
X171787908Y-70684290D01*
X171743539Y-70692500D01*
X170140461Y-70692500D01*
X170073422Y-70672815D01*
X170027667Y-70620011D01*
X170017723Y-70550853D01*
X170046748Y-70487297D01*
X170082008Y-70459142D01*
X170169914Y-70412154D01*
X170204857Y-70393477D01*
X170350199Y-70274199D01*
X170469477Y-70128857D01*
X170469478Y-70128853D01*
X170469481Y-70128851D01*
X170534093Y-70007970D01*
X170558109Y-69963039D01*
X170612689Y-69783115D01*
X170631118Y-69596000D01*
X170612689Y-69408885D01*
X170558109Y-69228961D01*
X170558108Y-69228959D01*
X170469481Y-69063148D01*
X170469476Y-69063142D01*
X170468851Y-69062381D01*
X170397898Y-68975923D01*
X170350199Y-68917800D01*
X170204857Y-68798523D01*
X170204851Y-68798518D01*
X170039040Y-68709891D01*
X169859117Y-68655311D01*
X169859115Y-68655310D01*
X169672000Y-68636882D01*
X169484884Y-68655310D01*
X169484882Y-68655311D01*
X169304959Y-68709891D01*
X169139148Y-68798518D01*
X169139142Y-68798523D01*
X168993800Y-68917800D01*
X168874523Y-69063142D01*
X168874518Y-69063148D01*
X168785891Y-69228959D01*
X168731311Y-69408882D01*
X168731310Y-69408884D01*
X168712882Y-69595999D01*
X168731310Y-69783115D01*
X168731311Y-69783117D01*
X168785891Y-69963040D01*
X168874518Y-70128851D01*
X168874523Y-70128857D01*
X168993800Y-70274199D01*
X169113077Y-70372086D01*
X169139143Y-70393477D01*
X169139145Y-70393478D01*
X169139148Y-70393480D01*
X169261992Y-70459142D01*
X169311836Y-70508104D01*
X169327297Y-70576242D01*
X169303465Y-70641921D01*
X169247908Y-70684290D01*
X169203539Y-70692500D01*
X167600461Y-70692500D01*
X167533422Y-70672815D01*
X167487667Y-70620011D01*
X167477723Y-70550853D01*
X167506748Y-70487297D01*
X167542008Y-70459142D01*
X167629914Y-70412154D01*
X167664857Y-70393477D01*
X167810199Y-70274199D01*
X167929477Y-70128857D01*
X167929478Y-70128853D01*
X167929481Y-70128851D01*
X167994093Y-70007970D01*
X168018109Y-69963039D01*
X168072689Y-69783115D01*
X168091118Y-69596000D01*
X168072689Y-69408885D01*
X168018109Y-69228961D01*
X168018108Y-69228959D01*
X167929481Y-69063148D01*
X167929476Y-69063142D01*
X167928851Y-69062381D01*
X167857898Y-68975923D01*
X167810199Y-68917800D01*
X167664857Y-68798523D01*
X167664851Y-68798518D01*
X167499040Y-68709891D01*
X167319117Y-68655311D01*
X167319115Y-68655310D01*
X167132000Y-68636882D01*
X166944884Y-68655310D01*
X166944882Y-68655311D01*
X166764959Y-68709891D01*
X166599148Y-68798518D01*
X166599142Y-68798523D01*
X166453800Y-68917800D01*
X166334523Y-69063142D01*
X166334518Y-69063148D01*
X166245891Y-69228959D01*
X166191311Y-69408882D01*
X166191310Y-69408884D01*
X166172882Y-69595999D01*
X166191310Y-69783115D01*
X166191311Y-69783117D01*
X166245891Y-69963040D01*
X166334518Y-70128851D01*
X166334523Y-70128857D01*
X166453800Y-70274199D01*
X166573077Y-70372086D01*
X166599143Y-70393477D01*
X166599145Y-70393478D01*
X166599148Y-70393480D01*
X166721992Y-70459142D01*
X166771836Y-70508104D01*
X166787297Y-70576242D01*
X166763465Y-70641921D01*
X166707908Y-70684290D01*
X166663539Y-70692500D01*
X165060461Y-70692500D01*
X164993422Y-70672815D01*
X164947667Y-70620011D01*
X164937723Y-70550853D01*
X164966748Y-70487297D01*
X165002008Y-70459142D01*
X165089914Y-70412154D01*
X165124857Y-70393477D01*
X165270199Y-70274199D01*
X165389477Y-70128857D01*
X165389478Y-70128853D01*
X165389481Y-70128851D01*
X165454093Y-70007970D01*
X165478109Y-69963039D01*
X165532689Y-69783115D01*
X165551118Y-69596000D01*
X165532689Y-69408885D01*
X165478109Y-69228961D01*
X165478108Y-69228959D01*
X165389481Y-69063148D01*
X165389476Y-69063142D01*
X165388851Y-69062381D01*
X165317898Y-68975923D01*
X165270199Y-68917800D01*
X165124857Y-68798523D01*
X165124851Y-68798518D01*
X164959040Y-68709891D01*
X164779117Y-68655311D01*
X164779115Y-68655310D01*
X164592000Y-68636882D01*
X164404884Y-68655310D01*
X164404882Y-68655311D01*
X164224959Y-68709891D01*
X164059148Y-68798518D01*
X164059142Y-68798523D01*
X163913800Y-68917800D01*
X163794523Y-69063142D01*
X163794518Y-69063148D01*
X163705891Y-69228959D01*
X163651311Y-69408882D01*
X163651310Y-69408884D01*
X163632882Y-69595999D01*
X163651310Y-69783115D01*
X163651311Y-69783117D01*
X163705891Y-69963040D01*
X163794518Y-70128851D01*
X163794523Y-70128857D01*
X163913800Y-70274199D01*
X164033077Y-70372086D01*
X164059143Y-70393477D01*
X164059145Y-70393478D01*
X164059148Y-70393480D01*
X164181992Y-70459142D01*
X164231836Y-70508104D01*
X164247297Y-70576242D01*
X164223465Y-70641921D01*
X164167908Y-70684290D01*
X164123539Y-70692500D01*
X162520461Y-70692500D01*
X162453422Y-70672815D01*
X162407667Y-70620011D01*
X162397723Y-70550853D01*
X162426748Y-70487297D01*
X162462008Y-70459142D01*
X162549914Y-70412154D01*
X162584857Y-70393477D01*
X162730199Y-70274199D01*
X162849477Y-70128857D01*
X162849478Y-70128853D01*
X162849481Y-70128851D01*
X162914093Y-70007970D01*
X162938109Y-69963039D01*
X162992689Y-69783115D01*
X163011118Y-69596000D01*
X162992689Y-69408885D01*
X162938109Y-69228961D01*
X162938108Y-69228959D01*
X162849481Y-69063148D01*
X162849476Y-69063142D01*
X162848851Y-69062381D01*
X162777898Y-68975923D01*
X162730199Y-68917800D01*
X162584857Y-68798523D01*
X162584851Y-68798518D01*
X162419040Y-68709891D01*
X162239117Y-68655311D01*
X162239115Y-68655310D01*
X162052000Y-68636882D01*
X161864884Y-68655310D01*
X161864882Y-68655311D01*
X161684959Y-68709891D01*
X161519148Y-68798518D01*
X161519142Y-68798523D01*
X161373800Y-68917800D01*
X161254523Y-69063142D01*
X161254518Y-69063148D01*
X161165891Y-69228959D01*
X161111311Y-69408882D01*
X161111310Y-69408884D01*
X161092882Y-69595999D01*
X161111310Y-69783115D01*
X161111311Y-69783117D01*
X161165891Y-69963040D01*
X161254518Y-70128851D01*
X161254523Y-70128857D01*
X161373800Y-70274199D01*
X161493078Y-70372086D01*
X161519143Y-70393477D01*
X161519145Y-70393478D01*
X161519148Y-70393480D01*
X161641992Y-70459142D01*
X161691836Y-70508104D01*
X161707297Y-70576242D01*
X161683465Y-70641921D01*
X161627908Y-70684290D01*
X161583539Y-70692500D01*
X159980461Y-70692500D01*
X159913422Y-70672815D01*
X159867667Y-70620011D01*
X159857723Y-70550853D01*
X159886748Y-70487297D01*
X159922008Y-70459142D01*
X160009914Y-70412154D01*
X160044857Y-70393477D01*
X160190199Y-70274199D01*
X160309477Y-70128857D01*
X160309478Y-70128853D01*
X160309481Y-70128851D01*
X160374093Y-70007970D01*
X160398109Y-69963039D01*
X160452689Y-69783115D01*
X160471118Y-69596000D01*
X160452689Y-69408885D01*
X160398109Y-69228961D01*
X160398108Y-69228959D01*
X160309481Y-69063148D01*
X160309476Y-69063142D01*
X160308851Y-69062381D01*
X160237898Y-68975923D01*
X160190199Y-68917800D01*
X160044857Y-68798523D01*
X160044851Y-68798518D01*
X159879040Y-68709891D01*
X159699117Y-68655311D01*
X159699115Y-68655310D01*
X159512000Y-68636882D01*
X159324884Y-68655310D01*
X159324882Y-68655311D01*
X159144959Y-68709891D01*
X158979148Y-68798518D01*
X158979142Y-68798523D01*
X158833800Y-68917800D01*
X158714523Y-69063142D01*
X158714518Y-69063148D01*
X158625891Y-69228959D01*
X158571311Y-69408882D01*
X158571310Y-69408884D01*
X158552882Y-69595999D01*
X158571310Y-69783115D01*
X158571311Y-69783117D01*
X158625891Y-69963040D01*
X158714518Y-70128851D01*
X158714523Y-70128857D01*
X158833800Y-70274199D01*
X158953077Y-70372086D01*
X158979143Y-70393477D01*
X158979145Y-70393478D01*
X158979148Y-70393480D01*
X159101992Y-70459142D01*
X159151836Y-70508104D01*
X159167297Y-70576242D01*
X159143465Y-70641921D01*
X159087908Y-70684290D01*
X159043539Y-70692500D01*
X157440461Y-70692500D01*
X157373422Y-70672815D01*
X157327667Y-70620011D01*
X157317723Y-70550853D01*
X157346748Y-70487297D01*
X157382008Y-70459142D01*
X157469914Y-70412154D01*
X157504857Y-70393477D01*
X157650199Y-70274199D01*
X157769477Y-70128857D01*
X157769478Y-70128853D01*
X157769481Y-70128851D01*
X157834093Y-70007970D01*
X157858109Y-69963039D01*
X157912689Y-69783115D01*
X157931118Y-69596000D01*
X157912689Y-69408885D01*
X157858109Y-69228961D01*
X157858108Y-69228959D01*
X157769481Y-69063148D01*
X157769476Y-69063142D01*
X157768851Y-69062381D01*
X157697898Y-68975923D01*
X157650199Y-68917800D01*
X157504857Y-68798523D01*
X157504851Y-68798518D01*
X157339040Y-68709891D01*
X157159117Y-68655311D01*
X157159115Y-68655310D01*
X156972000Y-68636882D01*
X156784884Y-68655310D01*
X156784882Y-68655311D01*
X156604959Y-68709891D01*
X156439148Y-68798518D01*
X156439142Y-68798523D01*
X156293800Y-68917800D01*
X156174523Y-69063142D01*
X156174518Y-69063148D01*
X156085891Y-69228959D01*
X156031311Y-69408882D01*
X156031310Y-69408884D01*
X156012882Y-69595999D01*
X156031310Y-69783115D01*
X156031311Y-69783117D01*
X156085891Y-69963040D01*
X156174518Y-70128851D01*
X156174523Y-70128857D01*
X156293800Y-70274199D01*
X156413077Y-70372086D01*
X156439143Y-70393477D01*
X156439145Y-70393478D01*
X156439148Y-70393480D01*
X156561992Y-70459142D01*
X156611836Y-70508104D01*
X156627297Y-70576242D01*
X156603465Y-70641921D01*
X156547908Y-70684290D01*
X156503539Y-70692500D01*
X154900461Y-70692500D01*
X154833422Y-70672815D01*
X154787667Y-70620011D01*
X154777723Y-70550853D01*
X154806748Y-70487297D01*
X154842008Y-70459142D01*
X154929914Y-70412154D01*
X154964857Y-70393477D01*
X155110199Y-70274199D01*
X155229477Y-70128857D01*
X155229478Y-70128853D01*
X155229481Y-70128851D01*
X155294093Y-70007970D01*
X155318109Y-69963039D01*
X155372689Y-69783115D01*
X155391118Y-69596000D01*
X155372689Y-69408885D01*
X155318109Y-69228961D01*
X155318108Y-69228959D01*
X155229481Y-69063148D01*
X155229476Y-69063142D01*
X155228851Y-69062381D01*
X155157898Y-68975923D01*
X155110199Y-68917800D01*
X154964857Y-68798523D01*
X154964851Y-68798518D01*
X154799040Y-68709891D01*
X154619117Y-68655311D01*
X154619115Y-68655310D01*
X154432000Y-68636882D01*
X154244884Y-68655310D01*
X154244882Y-68655311D01*
X154064959Y-68709891D01*
X153899148Y-68798518D01*
X153899142Y-68798523D01*
X153753800Y-68917800D01*
X153634523Y-69063142D01*
X153634518Y-69063148D01*
X153545891Y-69228959D01*
X153491311Y-69408882D01*
X153491310Y-69408884D01*
X153472882Y-69595999D01*
X153491310Y-69783115D01*
X153491311Y-69783117D01*
X153545891Y-69963040D01*
X153634518Y-70128851D01*
X153634523Y-70128857D01*
X153753800Y-70274199D01*
X153873077Y-70372086D01*
X153899143Y-70393477D01*
X153899145Y-70393478D01*
X153899148Y-70393480D01*
X154021992Y-70459142D01*
X154071836Y-70508104D01*
X154087297Y-70576242D01*
X154063465Y-70641921D01*
X154007908Y-70684290D01*
X153963539Y-70692500D01*
X152360461Y-70692500D01*
X152293422Y-70672815D01*
X152247667Y-70620011D01*
X152237723Y-70550853D01*
X152266748Y-70487297D01*
X152302008Y-70459142D01*
X152389914Y-70412154D01*
X152424857Y-70393477D01*
X152570199Y-70274199D01*
X152689477Y-70128857D01*
X152689478Y-70128853D01*
X152689481Y-70128851D01*
X152754093Y-70007970D01*
X152778109Y-69963039D01*
X152832689Y-69783115D01*
X152851118Y-69596000D01*
X152832689Y-69408885D01*
X152778109Y-69228961D01*
X152778108Y-69228959D01*
X152689481Y-69063148D01*
X152689476Y-69063142D01*
X152688851Y-69062381D01*
X152617898Y-68975923D01*
X152570199Y-68917800D01*
X152424857Y-68798523D01*
X152424851Y-68798518D01*
X152259040Y-68709891D01*
X152079117Y-68655311D01*
X152079115Y-68655310D01*
X151892000Y-68636882D01*
X151704884Y-68655310D01*
X151704882Y-68655311D01*
X151524959Y-68709891D01*
X151359148Y-68798518D01*
X151359142Y-68798523D01*
X151213800Y-68917800D01*
X151094523Y-69063142D01*
X151094518Y-69063148D01*
X151005891Y-69228959D01*
X150951311Y-69408882D01*
X150951310Y-69408884D01*
X150932882Y-69595999D01*
X150951310Y-69783115D01*
X150951311Y-69783117D01*
X151005891Y-69963040D01*
X151094518Y-70128851D01*
X151094523Y-70128857D01*
X151213800Y-70274199D01*
X151333078Y-70372086D01*
X151359143Y-70393477D01*
X151359145Y-70393478D01*
X151359148Y-70393480D01*
X151481992Y-70459142D01*
X151531836Y-70508104D01*
X151547297Y-70576242D01*
X151523465Y-70641921D01*
X151467908Y-70684290D01*
X151423539Y-70692500D01*
X149820461Y-70692500D01*
X149753422Y-70672815D01*
X149707667Y-70620011D01*
X149697723Y-70550853D01*
X149726748Y-70487297D01*
X149762008Y-70459142D01*
X149849914Y-70412154D01*
X149884857Y-70393477D01*
X150030199Y-70274199D01*
X150149477Y-70128857D01*
X150149478Y-70128853D01*
X150149481Y-70128851D01*
X150214093Y-70007970D01*
X150238109Y-69963039D01*
X150292689Y-69783115D01*
X150311118Y-69596000D01*
X150292689Y-69408885D01*
X150238109Y-69228961D01*
X150238108Y-69228959D01*
X150149481Y-69063148D01*
X150149476Y-69063142D01*
X150148851Y-69062381D01*
X150077898Y-68975923D01*
X150030199Y-68917800D01*
X149884857Y-68798523D01*
X149884851Y-68798518D01*
X149719040Y-68709891D01*
X149539117Y-68655311D01*
X149539115Y-68655310D01*
X149352000Y-68636882D01*
X149164884Y-68655310D01*
X149164882Y-68655311D01*
X148984959Y-68709891D01*
X148819148Y-68798518D01*
X148819142Y-68798523D01*
X148673800Y-68917800D01*
X148554523Y-69063142D01*
X148554518Y-69063148D01*
X148465891Y-69228959D01*
X148411311Y-69408882D01*
X148411310Y-69408884D01*
X148392882Y-69595999D01*
X148411311Y-69783117D01*
X148424414Y-69826314D01*
X148425037Y-69896181D01*
X148393434Y-69949988D01*
X147687243Y-70656181D01*
X147625920Y-70689666D01*
X147599562Y-70692500D01*
X147280461Y-70692500D01*
X147213422Y-70672815D01*
X147167667Y-70620011D01*
X147157723Y-70550853D01*
X147186748Y-70487297D01*
X147222008Y-70459142D01*
X147309914Y-70412154D01*
X147344857Y-70393477D01*
X147490199Y-70274199D01*
X147609477Y-70128857D01*
X147609478Y-70128853D01*
X147609481Y-70128851D01*
X147674093Y-70007970D01*
X147698109Y-69963039D01*
X147752689Y-69783115D01*
X147771118Y-69596000D01*
X147752689Y-69408885D01*
X147698109Y-69228961D01*
X147698108Y-69228959D01*
X147609481Y-69063148D01*
X147609476Y-69063142D01*
X147608851Y-69062381D01*
X147537898Y-68975923D01*
X147490199Y-68917800D01*
X147344857Y-68798523D01*
X147344851Y-68798518D01*
X147179040Y-68709891D01*
X146999117Y-68655311D01*
X146999115Y-68655310D01*
X146812000Y-68636882D01*
X146624884Y-68655310D01*
X146624882Y-68655311D01*
X146444959Y-68709891D01*
X146279148Y-68798518D01*
X146279142Y-68798523D01*
X146133800Y-68917800D01*
X146014523Y-69063142D01*
X146014518Y-69063148D01*
X145925891Y-69228959D01*
X145871311Y-69408882D01*
X145871310Y-69408884D01*
X145852882Y-69595999D01*
X145871310Y-69783115D01*
X145871311Y-69783117D01*
X145925891Y-69963040D01*
X146014518Y-70128851D01*
X146014523Y-70128857D01*
X146133800Y-70274199D01*
X146253078Y-70372086D01*
X146279143Y-70393477D01*
X146279145Y-70393478D01*
X146279148Y-70393480D01*
X146401992Y-70459142D01*
X146451836Y-70508104D01*
X146467297Y-70576242D01*
X146443465Y-70641921D01*
X146387908Y-70684290D01*
X146343539Y-70692500D01*
X144740461Y-70692500D01*
X144673422Y-70672815D01*
X144627667Y-70620011D01*
X144617723Y-70550853D01*
X144646748Y-70487297D01*
X144682008Y-70459142D01*
X144769914Y-70412154D01*
X144804857Y-70393477D01*
X144950199Y-70274199D01*
X145069477Y-70128857D01*
X145069478Y-70128853D01*
X145069481Y-70128851D01*
X145134093Y-70007970D01*
X145158109Y-69963039D01*
X145212689Y-69783115D01*
X145231118Y-69596000D01*
X145212689Y-69408885D01*
X145158109Y-69228961D01*
X145158108Y-69228959D01*
X145069481Y-69063148D01*
X145069476Y-69063142D01*
X145068851Y-69062381D01*
X144997898Y-68975923D01*
X144950199Y-68917800D01*
X144804857Y-68798523D01*
X144804851Y-68798518D01*
X144639040Y-68709891D01*
X144459117Y-68655311D01*
X144459115Y-68655310D01*
X144272000Y-68636882D01*
X144084884Y-68655310D01*
X144084882Y-68655311D01*
X143904959Y-68709891D01*
X143739148Y-68798518D01*
X143739142Y-68798523D01*
X143593800Y-68917800D01*
X143474523Y-69063142D01*
X143474518Y-69063148D01*
X143385891Y-69228959D01*
X143331311Y-69408882D01*
X143331310Y-69408884D01*
X143312882Y-69595999D01*
X143331310Y-69783115D01*
X143331311Y-69783117D01*
X143385891Y-69963040D01*
X143474518Y-70128851D01*
X143474523Y-70128857D01*
X143593800Y-70274199D01*
X143713077Y-70372086D01*
X143739143Y-70393477D01*
X143739145Y-70393478D01*
X143739148Y-70393480D01*
X143861992Y-70459142D01*
X143911836Y-70508104D01*
X143927297Y-70576242D01*
X143903465Y-70641921D01*
X143847908Y-70684290D01*
X143803539Y-70692500D01*
X142200461Y-70692500D01*
X142133422Y-70672815D01*
X142087667Y-70620011D01*
X142077723Y-70550853D01*
X142106748Y-70487297D01*
X142142008Y-70459142D01*
X142229914Y-70412154D01*
X142264857Y-70393477D01*
X142410199Y-70274199D01*
X142529477Y-70128857D01*
X142529478Y-70128853D01*
X142529481Y-70128851D01*
X142594093Y-70007970D01*
X142618109Y-69963039D01*
X142672689Y-69783115D01*
X142691118Y-69596000D01*
X142672689Y-69408885D01*
X142618109Y-69228961D01*
X142618108Y-69228959D01*
X142529481Y-69063148D01*
X142529476Y-69063142D01*
X142528851Y-69062381D01*
X142457898Y-68975923D01*
X142410199Y-68917800D01*
X142264857Y-68798523D01*
X142264851Y-68798518D01*
X142099040Y-68709891D01*
X141919117Y-68655311D01*
X141919115Y-68655310D01*
X141732000Y-68636882D01*
X141544884Y-68655310D01*
X141544882Y-68655311D01*
X141364959Y-68709891D01*
X141199148Y-68798518D01*
X141199142Y-68798523D01*
X141053800Y-68917800D01*
X140934523Y-69063142D01*
X140934518Y-69063148D01*
X140845891Y-69228959D01*
X140791311Y-69408882D01*
X140791310Y-69408884D01*
X140772882Y-69595999D01*
X140791310Y-69783115D01*
X140791311Y-69783117D01*
X140845891Y-69963040D01*
X140934518Y-70128851D01*
X140934523Y-70128857D01*
X141053800Y-70274199D01*
X141173078Y-70372086D01*
X141199143Y-70393477D01*
X141199145Y-70393478D01*
X141199148Y-70393480D01*
X141321992Y-70459142D01*
X141371836Y-70508104D01*
X141387297Y-70576242D01*
X141363465Y-70641921D01*
X141307908Y-70684290D01*
X141263539Y-70692500D01*
X139660461Y-70692500D01*
X139593422Y-70672815D01*
X139547667Y-70620011D01*
X139537723Y-70550853D01*
X139566748Y-70487297D01*
X139602008Y-70459142D01*
X139689914Y-70412154D01*
X139724857Y-70393477D01*
X139870199Y-70274199D01*
X139989477Y-70128857D01*
X139989478Y-70128853D01*
X139989481Y-70128851D01*
X140054093Y-70007970D01*
X140078109Y-69963039D01*
X140132689Y-69783115D01*
X140151118Y-69596000D01*
X140132689Y-69408885D01*
X140078109Y-69228961D01*
X140078108Y-69228959D01*
X139989481Y-69063148D01*
X139989476Y-69063142D01*
X139988851Y-69062381D01*
X139917898Y-68975923D01*
X139870199Y-68917800D01*
X139724857Y-68798523D01*
X139724851Y-68798518D01*
X139559040Y-68709891D01*
X139379117Y-68655311D01*
X139379115Y-68655310D01*
X139192000Y-68636882D01*
X139004884Y-68655310D01*
X139004882Y-68655311D01*
X138824959Y-68709891D01*
X138659148Y-68798518D01*
X138659142Y-68798523D01*
X138513800Y-68917800D01*
X138394523Y-69063142D01*
X138394518Y-69063148D01*
X138305891Y-69228959D01*
X138251311Y-69408882D01*
X138251310Y-69408884D01*
X138232882Y-69595999D01*
X138251310Y-69783115D01*
X138251311Y-69783117D01*
X138305891Y-69963040D01*
X138394518Y-70128851D01*
X138394523Y-70128857D01*
X138513800Y-70274199D01*
X138633077Y-70372086D01*
X138659143Y-70393477D01*
X138659145Y-70393478D01*
X138659148Y-70393480D01*
X138781992Y-70459142D01*
X138831836Y-70508104D01*
X138847297Y-70576242D01*
X138823465Y-70641921D01*
X138767908Y-70684290D01*
X138723539Y-70692500D01*
X137120461Y-70692500D01*
X137053422Y-70672815D01*
X137007667Y-70620011D01*
X136997723Y-70550853D01*
X137026748Y-70487297D01*
X137062008Y-70459142D01*
X137149914Y-70412154D01*
X137184857Y-70393477D01*
X137330199Y-70274199D01*
X137449477Y-70128857D01*
X137449478Y-70128853D01*
X137449481Y-70128851D01*
X137514093Y-70007970D01*
X137538109Y-69963039D01*
X137592689Y-69783115D01*
X137611118Y-69596000D01*
X137592689Y-69408885D01*
X137538109Y-69228961D01*
X137538108Y-69228959D01*
X137449481Y-69063148D01*
X137449476Y-69063142D01*
X137448851Y-69062381D01*
X137377898Y-68975923D01*
X137330199Y-68917800D01*
X137184857Y-68798523D01*
X137184851Y-68798518D01*
X137019040Y-68709891D01*
X136839117Y-68655311D01*
X136839115Y-68655310D01*
X136652000Y-68636882D01*
X136464884Y-68655310D01*
X136464882Y-68655311D01*
X136284959Y-68709891D01*
X136119148Y-68798518D01*
X136119142Y-68798523D01*
X135973800Y-68917800D01*
X135854523Y-69063142D01*
X135854518Y-69063148D01*
X135765891Y-69228959D01*
X135711311Y-69408882D01*
X135711310Y-69408884D01*
X135692882Y-69595999D01*
X135711310Y-69783115D01*
X135711311Y-69783117D01*
X135765891Y-69963040D01*
X135854518Y-70128851D01*
X135854523Y-70128857D01*
X135973800Y-70274199D01*
X136093078Y-70372086D01*
X136119143Y-70393477D01*
X136119145Y-70393478D01*
X136119148Y-70393480D01*
X136241992Y-70459142D01*
X136291836Y-70508104D01*
X136307297Y-70576242D01*
X136283465Y-70641921D01*
X136227908Y-70684290D01*
X136183539Y-70692500D01*
X134580461Y-70692500D01*
X134513422Y-70672815D01*
X134467667Y-70620011D01*
X134457723Y-70550853D01*
X134486748Y-70487297D01*
X134522008Y-70459142D01*
X134609914Y-70412154D01*
X134644857Y-70393477D01*
X134790199Y-70274199D01*
X134909477Y-70128857D01*
X134909478Y-70128853D01*
X134909481Y-70128851D01*
X134974093Y-70007970D01*
X134998109Y-69963039D01*
X135052689Y-69783115D01*
X135071118Y-69596000D01*
X135052689Y-69408885D01*
X134998109Y-69228961D01*
X134998108Y-69228959D01*
X134909481Y-69063148D01*
X134909476Y-69063142D01*
X134908851Y-69062381D01*
X134837898Y-68975923D01*
X134790199Y-68917800D01*
X134644857Y-68798523D01*
X134644851Y-68798518D01*
X134479040Y-68709891D01*
X134299117Y-68655311D01*
X134299115Y-68655310D01*
X134112000Y-68636882D01*
X133924884Y-68655310D01*
X133924882Y-68655311D01*
X133744959Y-68709891D01*
X133579148Y-68798518D01*
X133579142Y-68798523D01*
X133433800Y-68917800D01*
X133314523Y-69063142D01*
X133314518Y-69063148D01*
X133225891Y-69228959D01*
X133171311Y-69408882D01*
X133171310Y-69408884D01*
X133152882Y-69595999D01*
X133171310Y-69783115D01*
X133171311Y-69783117D01*
X133225891Y-69963040D01*
X133314518Y-70128851D01*
X133314523Y-70128857D01*
X133433800Y-70274199D01*
X133553077Y-70372086D01*
X133579143Y-70393477D01*
X133579145Y-70393478D01*
X133579148Y-70393480D01*
X133701992Y-70459142D01*
X133751836Y-70508104D01*
X133767297Y-70576242D01*
X133743465Y-70641921D01*
X133687908Y-70684290D01*
X133643539Y-70692500D01*
X132040461Y-70692500D01*
X131973422Y-70672815D01*
X131927667Y-70620011D01*
X131917723Y-70550853D01*
X131946748Y-70487297D01*
X131982008Y-70459142D01*
X132069914Y-70412154D01*
X132104857Y-70393477D01*
X132250199Y-70274199D01*
X132369477Y-70128857D01*
X132369478Y-70128853D01*
X132369481Y-70128851D01*
X132434093Y-70007970D01*
X132458109Y-69963039D01*
X132512689Y-69783115D01*
X132531118Y-69596000D01*
X132512689Y-69408885D01*
X132458109Y-69228961D01*
X132458108Y-69228959D01*
X132369481Y-69063148D01*
X132369476Y-69063142D01*
X132368851Y-69062381D01*
X132297898Y-68975923D01*
X132250199Y-68917800D01*
X132104857Y-68798523D01*
X132104851Y-68798518D01*
X131939040Y-68709891D01*
X131759117Y-68655311D01*
X131759115Y-68655310D01*
X131572000Y-68636882D01*
X131384884Y-68655310D01*
X131384882Y-68655311D01*
X131204959Y-68709891D01*
X131039148Y-68798518D01*
X131039142Y-68798523D01*
X130893800Y-68917800D01*
X130774523Y-69063142D01*
X130774518Y-69063148D01*
X130685891Y-69228959D01*
X130631311Y-69408882D01*
X130631310Y-69408884D01*
X130612882Y-69595999D01*
X130631310Y-69783115D01*
X130631311Y-69783117D01*
X130685891Y-69963040D01*
X130774518Y-70128851D01*
X130774523Y-70128857D01*
X130893800Y-70274199D01*
X131013078Y-70372086D01*
X131039143Y-70393477D01*
X131039145Y-70393478D01*
X131039148Y-70393480D01*
X131161992Y-70459142D01*
X131211836Y-70508104D01*
X131227297Y-70576242D01*
X131203465Y-70641921D01*
X131147908Y-70684290D01*
X131103539Y-70692500D01*
X129500461Y-70692500D01*
X129433422Y-70672815D01*
X129387667Y-70620011D01*
X129377723Y-70550853D01*
X129406748Y-70487297D01*
X129442008Y-70459142D01*
X129529914Y-70412154D01*
X129564857Y-70393477D01*
X129710199Y-70274199D01*
X129829477Y-70128857D01*
X129829478Y-70128853D01*
X129829481Y-70128851D01*
X129894093Y-70007970D01*
X129918109Y-69963039D01*
X129972689Y-69783115D01*
X129991118Y-69596000D01*
X129972689Y-69408885D01*
X129918109Y-69228961D01*
X129918108Y-69228959D01*
X129829481Y-69063148D01*
X129829476Y-69063142D01*
X129828851Y-69062381D01*
X129757898Y-68975923D01*
X129710199Y-68917800D01*
X129564857Y-68798523D01*
X129564851Y-68798518D01*
X129399040Y-68709891D01*
X129219117Y-68655311D01*
X129219115Y-68655310D01*
X129032000Y-68636882D01*
X128844884Y-68655310D01*
X128844882Y-68655311D01*
X128664959Y-68709891D01*
X128499148Y-68798518D01*
X128499142Y-68798523D01*
X128353800Y-68917800D01*
X128234523Y-69063142D01*
X128234518Y-69063148D01*
X128145891Y-69228959D01*
X128091311Y-69408882D01*
X128091310Y-69408884D01*
X128072882Y-69595999D01*
X128091310Y-69783115D01*
X128091311Y-69783117D01*
X128145891Y-69963040D01*
X128234518Y-70128851D01*
X128234523Y-70128857D01*
X128353800Y-70274199D01*
X128473077Y-70372086D01*
X128499143Y-70393477D01*
X128499145Y-70393478D01*
X128499148Y-70393480D01*
X128621992Y-70459142D01*
X128671836Y-70508104D01*
X128687297Y-70576242D01*
X128663465Y-70641921D01*
X128607908Y-70684290D01*
X128563539Y-70692500D01*
X126960461Y-70692500D01*
X126893422Y-70672815D01*
X126847667Y-70620011D01*
X126837723Y-70550853D01*
X126866748Y-70487297D01*
X126902008Y-70459142D01*
X126989914Y-70412154D01*
X127024857Y-70393477D01*
X127170199Y-70274199D01*
X127289477Y-70128857D01*
X127289478Y-70128853D01*
X127289481Y-70128851D01*
X127354093Y-70007970D01*
X127378109Y-69963039D01*
X127432689Y-69783115D01*
X127451118Y-69596000D01*
X127432689Y-69408885D01*
X127378109Y-69228961D01*
X127378108Y-69228959D01*
X127289481Y-69063148D01*
X127289476Y-69063142D01*
X127288851Y-69062381D01*
X127217898Y-68975923D01*
X127170199Y-68917800D01*
X127024857Y-68798523D01*
X127024851Y-68798518D01*
X126859040Y-68709891D01*
X126679117Y-68655311D01*
X126679115Y-68655310D01*
X126492000Y-68636882D01*
X126304884Y-68655310D01*
X126304882Y-68655311D01*
X126124959Y-68709891D01*
X125959148Y-68798518D01*
X125959142Y-68798523D01*
X125813800Y-68917800D01*
X125694523Y-69063142D01*
X125694518Y-69063148D01*
X125605891Y-69228959D01*
X125551311Y-69408882D01*
X125551310Y-69408884D01*
X125532882Y-69595999D01*
X125551310Y-69783115D01*
X125551311Y-69783117D01*
X125605891Y-69963040D01*
X125694518Y-70128851D01*
X125694523Y-70128857D01*
X125813800Y-70274199D01*
X125933078Y-70372086D01*
X125959143Y-70393477D01*
X125959145Y-70393478D01*
X125959148Y-70393480D01*
X126081992Y-70459142D01*
X126131836Y-70508104D01*
X126147297Y-70576242D01*
X126123465Y-70641921D01*
X126067908Y-70684290D01*
X126023539Y-70692500D01*
X109882492Y-70692500D01*
X109875551Y-70692110D01*
X109861633Y-70690542D01*
X109838833Y-70687972D01*
X109800595Y-70695208D01*
X109784493Y-70698254D01*
X109782228Y-70698639D01*
X109727568Y-70706877D01*
X109719835Y-70709262D01*
X109712210Y-70711931D01*
X109663338Y-70737760D01*
X109661270Y-70738804D01*
X109611458Y-70762793D01*
X109604792Y-70767337D01*
X109598271Y-70772150D01*
X109559186Y-70811235D01*
X109557519Y-70812842D01*
X109516994Y-70850444D01*
X109511201Y-70857709D01*
X109510505Y-70857154D01*
X109501375Y-70869046D01*
X108462181Y-71908241D01*
X108400858Y-71941726D01*
X108331166Y-71936742D01*
X108275233Y-71894870D01*
X108250816Y-71829406D01*
X108250500Y-71820560D01*
X108250500Y-70202385D01*
X108270185Y-70135346D01*
X108322989Y-70089591D01*
X108328972Y-70087046D01*
X108415658Y-70052862D01*
X108533500Y-69963500D01*
X108622862Y-69845658D01*
X108677117Y-69708077D01*
X108687500Y-69621618D01*
X108687500Y-69062382D01*
X108677117Y-68975923D01*
X108622862Y-68838342D01*
X108609374Y-68820555D01*
X108533500Y-68720499D01*
X108415660Y-68631139D01*
X108415658Y-68631138D01*
X108278077Y-68576883D01*
X108278076Y-68576882D01*
X108278074Y-68576882D01*
X108191619Y-68566500D01*
X108191618Y-68566500D01*
X107507382Y-68566500D01*
X107507381Y-68566500D01*
X107420925Y-68576882D01*
X107420924Y-68576882D01*
X107283339Y-68631139D01*
X107165499Y-68720499D01*
X107076139Y-68838339D01*
X107021882Y-68975924D01*
X107021882Y-68975925D01*
X107011500Y-69062381D01*
X107011500Y-69621618D01*
X107021882Y-69708074D01*
X107021882Y-69708075D01*
X107021883Y-69708077D01*
X107068764Y-69826960D01*
X107076139Y-69845660D01*
X107165499Y-69963500D01*
X107283339Y-70052860D01*
X107283342Y-70052862D01*
X107316990Y-70066131D01*
X107372133Y-70109035D01*
X107395327Y-70174943D01*
X107395500Y-70181485D01*
X107395500Y-72101423D01*
X107375815Y-72168462D01*
X107329955Y-72210780D01*
X107229848Y-72264289D01*
X107068063Y-72397063D01*
X106935291Y-72558846D01*
X106836629Y-72743428D01*
X106775872Y-72943715D01*
X106755359Y-73152000D01*
X106775872Y-73360285D01*
X106808821Y-73468906D01*
X106809444Y-73538773D01*
X106777841Y-73592581D01*
X97761156Y-82609267D01*
X97755968Y-82613903D01*
X97727079Y-82636942D01*
X97695932Y-82682624D01*
X97694592Y-82684513D01*
X97661771Y-82728984D01*
X97657994Y-82736129D01*
X97654484Y-82743420D01*
X97638184Y-82796259D01*
X97637460Y-82798458D01*
X97619207Y-82850626D01*
X97617710Y-82858538D01*
X97616500Y-82866568D01*
X97616500Y-82921838D01*
X97616457Y-82924123D01*
X97615637Y-82946043D01*
X97614388Y-82979406D01*
X97615429Y-82988640D01*
X97614540Y-82988740D01*
X97616500Y-83003609D01*
X97616500Y-100302507D01*
X97616110Y-100309455D01*
X97611972Y-100346166D01*
X97028500Y-100346166D01*
X97028500Y-72247756D01*
X97048185Y-72180717D01*
X97100989Y-72134962D01*
X97170147Y-72125018D01*
X97233703Y-72154043D01*
X97271477Y-72212821D01*
X97271865Y-72214172D01*
X97320530Y-72387137D01*
X97320534Y-72387151D01*
X97465435Y-72756353D01*
X97465440Y-72756365D01*
X97561488Y-72943714D01*
X97646391Y-73109323D01*
X97861586Y-73442509D01*
X97987691Y-73600640D01*
X98108895Y-73752625D01*
X98385823Y-74036544D01*
X98385833Y-74036554D01*
X98689676Y-74291508D01*
X99017394Y-74514942D01*
X99365730Y-74704636D01*
X99731223Y-74858704D01*
X99731232Y-74858706D01*
X99731238Y-74858709D01*
X100110235Y-74975614D01*
X100110248Y-74975617D01*
X100498999Y-75054205D01*
X100499014Y-75054208D01*
X100837300Y-75088058D01*
X100893680Y-75093700D01*
X100893681Y-75093700D01*
X101191084Y-75093700D01*
X101191101Y-75093700D01*
X101488145Y-75078875D01*
X101880353Y-75019759D01*
X102264726Y-74921886D01*
X102637445Y-74786228D01*
X102994803Y-74614133D01*
X103333251Y-74407312D01*
X103649424Y-74167820D01*
X103940181Y-73898037D01*
X104202631Y-73600645D01*
X104434166Y-73278600D01*
X104632485Y-72935101D01*
X104795617Y-72573563D01*
X104921941Y-72197578D01*
X105010201Y-71810885D01*
X105059521Y-71417325D01*
X105066923Y-71120500D01*
X105069409Y-71020826D01*
X105069409Y-71020810D01*
X105058036Y-70869046D01*
X105039769Y-70625280D01*
X104970893Y-70234668D01*
X104863467Y-69852854D01*
X104853304Y-69826960D01*
X104718564Y-69483646D01*
X104718559Y-69483634D01*
X104537613Y-69130685D01*
X104537609Y-69130677D01*
X104322414Y-68797491D01*
X104075114Y-68487386D01*
X104075111Y-68487383D01*
X104075104Y-68487374D01*
X103798176Y-68203455D01*
X103798173Y-68203452D01*
X103798172Y-68203451D01*
X103798167Y-68203446D01*
X103494324Y-67948492D01*
X103389841Y-67877257D01*
X103166605Y-67725057D01*
X103050494Y-67661826D01*
X102818270Y-67535364D01*
X102818262Y-67535360D01*
X102818259Y-67535359D01*
X102452777Y-67381296D01*
X102452761Y-67381290D01*
X102185952Y-67298991D01*
X102127693Y-67260421D01*
X102099536Y-67196476D01*
X102110419Y-67127459D01*
X102156887Y-67075283D01*
X102222502Y-67056500D01*
X193937199Y-67056500D01*
X194004238Y-67076185D01*
G37*
G04 #@! TD.AperFunction*
G04 #@! TD*
M02*
