G04 #@! TF.GenerationSoftware,KiCad,Pcbnew,7.0.5*
G04 #@! TF.CreationDate,2024-03-24T13:33:04-05:00*
G04 #@! TF.ProjectId,RotatingSignalStack_board,526f7461-7469-46e6-9753-69676e616c53,rev?*
G04 #@! TF.SameCoordinates,Original*
G04 #@! TF.FileFunction,Copper,L2,Bot*
G04 #@! TF.FilePolarity,Positive*
%FSLAX46Y46*%
G04 Gerber Fmt 4.6, Leading zero omitted, Abs format (unit mm)*
G04 Created by KiCad (PCBNEW 7.0.5) date 2024-03-24 13:33:04*
%MOMM*%
%LPD*%
G01*
G04 APERTURE LIST*
G04 #@! TA.AperFunction,ComponentPad*
%ADD10C,1.524000*%
G04 #@! TD*
G04 #@! TA.AperFunction,ComponentPad*
%ADD11O,5.100000X3.000000*%
G04 #@! TD*
G04 #@! TA.AperFunction,ComponentPad*
%ADD12C,1.308000*%
G04 #@! TD*
G04 #@! TA.AperFunction,ComponentPad*
%ADD13C,1.208000*%
G04 #@! TD*
G04 #@! TA.AperFunction,ComponentPad*
%ADD14C,1.100000*%
G04 #@! TD*
G04 #@! TA.AperFunction,ComponentPad*
%ADD15C,1.400000*%
G04 #@! TD*
G04 #@! TA.AperFunction,ComponentPad*
%ADD16C,4.000000*%
G04 #@! TD*
G04 #@! TA.AperFunction,ComponentPad*
%ADD17C,2.000000*%
G04 #@! TD*
G04 #@! TA.AperFunction,ViaPad*
%ADD18C,0.800000*%
G04 #@! TD*
G04 APERTURE END LIST*
D10*
X157099000Y-88900000D03*
X157099000Y-86360000D03*
X157099000Y-83820000D03*
D11*
X139814300Y-103173500D03*
X139814300Y-95299500D03*
D12*
X218186000Y-102616000D03*
X215646000Y-102616000D03*
X213106000Y-102616000D03*
X210566000Y-102616000D03*
X185166000Y-102616000D03*
X215646000Y-117856000D03*
X208026000Y-102616000D03*
X205486000Y-102616000D03*
X202946000Y-102616000D03*
X200406000Y-102616000D03*
X197866000Y-102616000D03*
X195326000Y-102616000D03*
X192786000Y-102616000D03*
X190246000Y-102616000D03*
X187706000Y-102616000D03*
X187706000Y-117856000D03*
X190246000Y-117856000D03*
X192786000Y-117856000D03*
X195326000Y-117856000D03*
X197866000Y-117856000D03*
X200406000Y-117856000D03*
X202946000Y-117856000D03*
X205486000Y-117856000D03*
X208026000Y-117856000D03*
X210566000Y-117856000D03*
X213106000Y-117856000D03*
X182626000Y-102616000D03*
X180086000Y-102616000D03*
X177546000Y-102616000D03*
X175006000Y-102616000D03*
X172466000Y-102616000D03*
X169926000Y-102616000D03*
X167386000Y-102616000D03*
X164846000Y-102616000D03*
X162306000Y-102616000D03*
X162306000Y-117856000D03*
X164846000Y-117856000D03*
X167386000Y-117856000D03*
X169926000Y-117856000D03*
X172466000Y-117856000D03*
X175006000Y-117856000D03*
X177546000Y-117856000D03*
X180086000Y-117856000D03*
X182626000Y-117856000D03*
X220726000Y-102616000D03*
X185166000Y-117856000D03*
X218186000Y-117856000D03*
D13*
X205756000Y-113406000D03*
X207756000Y-113406000D03*
X207756000Y-115406000D03*
X205756000Y-115406000D03*
X205756000Y-111406000D03*
X207756000Y-111406000D03*
D12*
X220726000Y-117856000D03*
D11*
X149466300Y-103173500D03*
X149466300Y-95299500D03*
D10*
X191516000Y-90297000D03*
X194056000Y-90297000D03*
X196596000Y-90297000D03*
X199136000Y-90297000D03*
D14*
X218948000Y-94488000D03*
X217678000Y-97028000D03*
X216408000Y-94488000D03*
X215138000Y-97028000D03*
X213868000Y-94488000D03*
X212598000Y-97028000D03*
X211328000Y-94488000D03*
X210058000Y-97028000D03*
D15*
X220828000Y-83058000D03*
X218288000Y-84848000D03*
X210718000Y-83058000D03*
X208178000Y-84848000D03*
D16*
X220218000Y-88138000D03*
X208788000Y-88138000D03*
D17*
X222378000Y-91188000D03*
X206628000Y-91188000D03*
D10*
X178816000Y-90297000D03*
X181356000Y-90297000D03*
X183896000Y-90297000D03*
D18*
X142748000Y-115316000D03*
X148590000Y-115316000D03*
X154432000Y-115316000D03*
X160782000Y-120650000D03*
X148590000Y-118364000D03*
G04 #@! TA.AperFunction,Conductor*
G36*
X225754238Y-77236185D02*
G01*
X225799993Y-77288989D01*
X225809937Y-77358147D01*
X225780912Y-77421703D01*
X225722134Y-77459477D01*
X225717797Y-77460666D01*
X225649272Y-77478114D01*
X225276549Y-77613774D01*
X224919191Y-77785869D01*
X224580753Y-77992684D01*
X224580742Y-77992692D01*
X224264575Y-78232180D01*
X224264572Y-78232182D01*
X223973813Y-78501968D01*
X223711365Y-78799359D01*
X223479839Y-79121393D01*
X223479826Y-79121413D01*
X223281516Y-79464896D01*
X223118382Y-79826437D01*
X222992059Y-80202419D01*
X222903799Y-80589111D01*
X222854478Y-80982681D01*
X222844590Y-81379173D01*
X222844590Y-81379187D01*
X222874230Y-81774711D01*
X222874231Y-81774724D01*
X222943108Y-82165339D01*
X223050530Y-82547137D01*
X223050534Y-82547151D01*
X223195435Y-82916353D01*
X223195440Y-82916365D01*
X223376386Y-83269314D01*
X223376397Y-83269333D01*
X223413734Y-83327141D01*
X223591586Y-83602509D01*
X223838886Y-83912614D01*
X223838895Y-83912625D01*
X224115823Y-84196544D01*
X224115833Y-84196554D01*
X224419676Y-84451508D01*
X224747394Y-84674942D01*
X225095730Y-84864636D01*
X225461223Y-85018704D01*
X225461232Y-85018706D01*
X225461238Y-85018709D01*
X225840235Y-85135614D01*
X225840248Y-85135617D01*
X226228999Y-85214205D01*
X226229014Y-85214208D01*
X226567299Y-85248058D01*
X226623680Y-85253700D01*
X226623681Y-85253700D01*
X226921084Y-85253700D01*
X226921101Y-85253700D01*
X227218145Y-85238875D01*
X227610353Y-85179759D01*
X227994726Y-85081886D01*
X228367445Y-84946228D01*
X228724803Y-84774133D01*
X229063251Y-84567312D01*
X229379424Y-84327820D01*
X229670181Y-84058037D01*
X229932631Y-83760645D01*
X230164166Y-83438600D01*
X230362485Y-83095101D01*
X230525617Y-82733563D01*
X230643957Y-82381340D01*
X230683968Y-82324061D01*
X230748594Y-82297506D01*
X230817318Y-82310107D01*
X230868321Y-82357862D01*
X230885500Y-82420833D01*
X230885500Y-118252243D01*
X230865815Y-118319282D01*
X230813011Y-118365037D01*
X230743853Y-118374981D01*
X230680297Y-118345956D01*
X230642523Y-118287178D01*
X230642135Y-118285827D01*
X230593469Y-118112862D01*
X230593465Y-118112848D01*
X230448564Y-117743646D01*
X230448559Y-117743634D01*
X230267613Y-117390685D01*
X230267609Y-117390677D01*
X230052414Y-117057491D01*
X229805114Y-116747386D01*
X229805111Y-116747383D01*
X229805104Y-116747374D01*
X229528176Y-116463455D01*
X229528173Y-116463452D01*
X229528172Y-116463451D01*
X229528167Y-116463446D01*
X229224324Y-116208492D01*
X229151613Y-116158918D01*
X228896605Y-115985057D01*
X228780493Y-115921826D01*
X228548270Y-115795364D01*
X228548262Y-115795360D01*
X228548259Y-115795359D01*
X228182777Y-115641296D01*
X228182761Y-115641290D01*
X227803764Y-115524385D01*
X227803751Y-115524382D01*
X227415000Y-115445794D01*
X227414979Y-115445791D01*
X227020320Y-115406300D01*
X227020319Y-115406300D01*
X226722899Y-115406300D01*
X226722884Y-115406300D01*
X226425855Y-115421124D01*
X226033647Y-115480241D01*
X225649272Y-115578114D01*
X225276549Y-115713774D01*
X224919191Y-115885869D01*
X224580753Y-116092684D01*
X224580742Y-116092692D01*
X224264575Y-116332180D01*
X224264572Y-116332182D01*
X223973813Y-116601968D01*
X223711365Y-116899359D01*
X223479839Y-117221393D01*
X223479826Y-117221413D01*
X223281516Y-117564896D01*
X223118382Y-117926437D01*
X222992059Y-118302419D01*
X222903799Y-118689111D01*
X222854478Y-119082681D01*
X222844590Y-119479173D01*
X222844590Y-119479187D01*
X222874230Y-119874711D01*
X222874231Y-119874724D01*
X222943108Y-120265339D01*
X223050530Y-120647137D01*
X223050534Y-120647151D01*
X223195435Y-121016353D01*
X223195440Y-121016365D01*
X223376386Y-121369314D01*
X223376391Y-121369323D01*
X223591586Y-121702509D01*
X223838886Y-122012614D01*
X223838895Y-122012625D01*
X224115823Y-122296544D01*
X224115833Y-122296554D01*
X224419676Y-122551508D01*
X224747394Y-122774942D01*
X225095730Y-122964636D01*
X225461223Y-123118704D01*
X225461232Y-123118706D01*
X225461238Y-123118709D01*
X225728048Y-123201009D01*
X225786307Y-123239579D01*
X225814464Y-123303524D01*
X225803581Y-123372541D01*
X225757113Y-123424717D01*
X225691498Y-123443500D01*
X132706801Y-123443500D01*
X132639762Y-123423815D01*
X132594007Y-123371011D01*
X132584063Y-123301853D01*
X132613088Y-123238297D01*
X132671866Y-123200523D01*
X132676203Y-123199334D01*
X132744726Y-123181886D01*
X133117445Y-123046228D01*
X133474803Y-122874133D01*
X133813251Y-122667312D01*
X134129424Y-122427820D01*
X134420181Y-122158037D01*
X134682631Y-121860645D01*
X134914166Y-121538600D01*
X135112485Y-121195101D01*
X135275617Y-120833563D01*
X135401941Y-120457578D01*
X135490201Y-120070885D01*
X135539521Y-119677325D01*
X135544462Y-119479173D01*
X135549409Y-119280826D01*
X135549409Y-119280810D01*
X135549408Y-119280810D01*
X135519769Y-118885280D01*
X135450893Y-118494668D01*
X135414420Y-118365037D01*
X135379006Y-118239166D01*
X135343467Y-118112854D01*
X135316097Y-118043117D01*
X135242659Y-117856000D01*
X161346882Y-117856000D01*
X161365310Y-118043115D01*
X161365311Y-118043117D01*
X161419891Y-118223040D01*
X161508518Y-118388851D01*
X161508523Y-118388857D01*
X161627800Y-118534199D01*
X161773142Y-118653476D01*
X161773148Y-118653481D01*
X161938959Y-118742108D01*
X161938961Y-118742109D01*
X162118882Y-118796688D01*
X162118884Y-118796689D01*
X162137312Y-118798503D01*
X162306000Y-118815118D01*
X162493115Y-118796689D01*
X162673039Y-118742109D01*
X162734373Y-118709324D01*
X162838851Y-118653481D01*
X162838853Y-118653478D01*
X162838857Y-118653477D01*
X162984199Y-118534199D01*
X163103477Y-118388857D01*
X163103478Y-118388853D01*
X163103481Y-118388851D01*
X163192108Y-118223040D01*
X163192109Y-118223039D01*
X163246689Y-118043115D01*
X163265118Y-117856000D01*
X163886882Y-117856000D01*
X163905310Y-118043115D01*
X163905311Y-118043117D01*
X163959891Y-118223040D01*
X164048518Y-118388851D01*
X164048523Y-118388857D01*
X164167800Y-118534199D01*
X164313142Y-118653476D01*
X164313148Y-118653481D01*
X164478959Y-118742108D01*
X164478961Y-118742109D01*
X164658882Y-118796688D01*
X164658884Y-118796689D01*
X164675660Y-118798341D01*
X164846000Y-118815118D01*
X165033115Y-118796689D01*
X165213039Y-118742109D01*
X165274373Y-118709324D01*
X165378851Y-118653481D01*
X165378853Y-118653478D01*
X165378857Y-118653477D01*
X165524199Y-118534199D01*
X165643477Y-118388857D01*
X165643478Y-118388853D01*
X165643481Y-118388851D01*
X165732108Y-118223040D01*
X165732109Y-118223039D01*
X165786689Y-118043115D01*
X165805118Y-117856000D01*
X166426882Y-117856000D01*
X166445310Y-118043115D01*
X166445311Y-118043117D01*
X166499891Y-118223040D01*
X166588518Y-118388851D01*
X166588523Y-118388857D01*
X166707800Y-118534199D01*
X166853142Y-118653476D01*
X166853148Y-118653481D01*
X167018959Y-118742108D01*
X167018961Y-118742109D01*
X167198882Y-118796688D01*
X167198884Y-118796689D01*
X167215660Y-118798341D01*
X167386000Y-118815118D01*
X167573115Y-118796689D01*
X167753039Y-118742109D01*
X167814373Y-118709324D01*
X167918851Y-118653481D01*
X167918853Y-118653478D01*
X167918857Y-118653477D01*
X168064199Y-118534199D01*
X168183477Y-118388857D01*
X168183478Y-118388853D01*
X168183481Y-118388851D01*
X168272108Y-118223040D01*
X168272109Y-118223039D01*
X168326689Y-118043115D01*
X168345118Y-117856000D01*
X168966882Y-117856000D01*
X168985310Y-118043115D01*
X168985311Y-118043117D01*
X169039891Y-118223040D01*
X169128518Y-118388851D01*
X169128523Y-118388857D01*
X169247800Y-118534199D01*
X169393142Y-118653476D01*
X169393148Y-118653481D01*
X169558959Y-118742108D01*
X169558961Y-118742109D01*
X169738882Y-118796688D01*
X169738884Y-118796689D01*
X169757312Y-118798503D01*
X169926000Y-118815118D01*
X170113115Y-118796689D01*
X170293039Y-118742109D01*
X170354373Y-118709324D01*
X170458851Y-118653481D01*
X170458853Y-118653478D01*
X170458857Y-118653477D01*
X170604199Y-118534199D01*
X170723477Y-118388857D01*
X170723478Y-118388853D01*
X170723481Y-118388851D01*
X170812108Y-118223040D01*
X170812109Y-118223039D01*
X170866689Y-118043115D01*
X170885118Y-117856000D01*
X171506882Y-117856000D01*
X171525310Y-118043115D01*
X171525311Y-118043117D01*
X171579891Y-118223040D01*
X171668518Y-118388851D01*
X171668523Y-118388857D01*
X171787800Y-118534199D01*
X171933142Y-118653476D01*
X171933148Y-118653481D01*
X172098959Y-118742108D01*
X172098961Y-118742109D01*
X172278882Y-118796688D01*
X172278884Y-118796689D01*
X172297313Y-118798503D01*
X172466000Y-118815118D01*
X172653115Y-118796689D01*
X172833039Y-118742109D01*
X172894373Y-118709324D01*
X172998851Y-118653481D01*
X172998853Y-118653478D01*
X172998857Y-118653477D01*
X173144199Y-118534199D01*
X173263477Y-118388857D01*
X173263478Y-118388853D01*
X173263481Y-118388851D01*
X173352108Y-118223040D01*
X173352109Y-118223039D01*
X173406689Y-118043115D01*
X173425118Y-117856000D01*
X174046882Y-117856000D01*
X174065310Y-118043115D01*
X174065311Y-118043117D01*
X174119891Y-118223040D01*
X174208518Y-118388851D01*
X174208523Y-118388857D01*
X174327800Y-118534199D01*
X174473142Y-118653476D01*
X174473148Y-118653481D01*
X174638959Y-118742108D01*
X174638961Y-118742109D01*
X174818882Y-118796688D01*
X174818884Y-118796689D01*
X174835660Y-118798341D01*
X175006000Y-118815118D01*
X175193115Y-118796689D01*
X175373039Y-118742109D01*
X175434373Y-118709324D01*
X175538851Y-118653481D01*
X175538853Y-118653478D01*
X175538857Y-118653477D01*
X175684199Y-118534199D01*
X175803477Y-118388857D01*
X175803478Y-118388853D01*
X175803481Y-118388851D01*
X175892108Y-118223040D01*
X175892109Y-118223039D01*
X175946689Y-118043115D01*
X175965118Y-117856000D01*
X176586882Y-117856000D01*
X176605310Y-118043115D01*
X176605311Y-118043117D01*
X176659891Y-118223040D01*
X176748518Y-118388851D01*
X176748523Y-118388857D01*
X176867800Y-118534199D01*
X177013142Y-118653476D01*
X177013148Y-118653481D01*
X177178959Y-118742108D01*
X177178961Y-118742109D01*
X177358882Y-118796688D01*
X177358884Y-118796689D01*
X177375660Y-118798341D01*
X177546000Y-118815118D01*
X177733115Y-118796689D01*
X177913039Y-118742109D01*
X177974373Y-118709324D01*
X178078851Y-118653481D01*
X178078853Y-118653478D01*
X178078857Y-118653477D01*
X178224199Y-118534199D01*
X178343477Y-118388857D01*
X178343478Y-118388853D01*
X178343481Y-118388851D01*
X178432108Y-118223040D01*
X178432109Y-118223039D01*
X178486689Y-118043115D01*
X178505118Y-117856000D01*
X179126882Y-117856000D01*
X179145310Y-118043115D01*
X179145311Y-118043117D01*
X179199891Y-118223040D01*
X179288518Y-118388851D01*
X179288523Y-118388857D01*
X179407800Y-118534199D01*
X179553142Y-118653476D01*
X179553148Y-118653481D01*
X179718959Y-118742108D01*
X179718961Y-118742109D01*
X179898882Y-118796688D01*
X179898884Y-118796689D01*
X179917313Y-118798503D01*
X180086000Y-118815118D01*
X180273115Y-118796689D01*
X180453039Y-118742109D01*
X180514373Y-118709324D01*
X180618851Y-118653481D01*
X180618853Y-118653478D01*
X180618857Y-118653477D01*
X180764199Y-118534199D01*
X180883477Y-118388857D01*
X180883478Y-118388853D01*
X180883481Y-118388851D01*
X180972108Y-118223040D01*
X180972109Y-118223039D01*
X181026689Y-118043115D01*
X181045118Y-117856000D01*
X181666882Y-117856000D01*
X181685310Y-118043115D01*
X181685311Y-118043117D01*
X181739891Y-118223040D01*
X181828518Y-118388851D01*
X181828523Y-118388857D01*
X181947800Y-118534199D01*
X182093142Y-118653476D01*
X182093148Y-118653481D01*
X182258959Y-118742108D01*
X182258961Y-118742109D01*
X182438882Y-118796688D01*
X182438884Y-118796689D01*
X182457313Y-118798503D01*
X182626000Y-118815118D01*
X182813115Y-118796689D01*
X182993039Y-118742109D01*
X183054373Y-118709324D01*
X183158851Y-118653481D01*
X183158853Y-118653478D01*
X183158857Y-118653477D01*
X183304199Y-118534199D01*
X183423477Y-118388857D01*
X183423478Y-118388853D01*
X183423481Y-118388851D01*
X183512108Y-118223040D01*
X183512109Y-118223039D01*
X183566689Y-118043115D01*
X183585118Y-117856000D01*
X186746882Y-117856000D01*
X186765310Y-118043115D01*
X186765311Y-118043117D01*
X186819891Y-118223040D01*
X186908518Y-118388851D01*
X186908523Y-118388857D01*
X187027800Y-118534199D01*
X187173142Y-118653476D01*
X187173148Y-118653481D01*
X187338959Y-118742108D01*
X187338961Y-118742109D01*
X187518882Y-118796688D01*
X187518884Y-118796689D01*
X187535660Y-118798341D01*
X187706000Y-118815118D01*
X187893115Y-118796689D01*
X188073039Y-118742109D01*
X188134373Y-118709324D01*
X188238851Y-118653481D01*
X188238853Y-118653478D01*
X188238857Y-118653477D01*
X188384199Y-118534199D01*
X188503477Y-118388857D01*
X188503478Y-118388853D01*
X188503481Y-118388851D01*
X188592108Y-118223040D01*
X188592109Y-118223039D01*
X188646689Y-118043115D01*
X188665118Y-117856000D01*
X189286882Y-117856000D01*
X189305310Y-118043115D01*
X189305311Y-118043117D01*
X189359891Y-118223040D01*
X189448518Y-118388851D01*
X189448523Y-118388857D01*
X189567800Y-118534199D01*
X189713142Y-118653476D01*
X189713148Y-118653481D01*
X189878959Y-118742108D01*
X189878961Y-118742109D01*
X190058882Y-118796688D01*
X190058884Y-118796689D01*
X190077313Y-118798503D01*
X190246000Y-118815118D01*
X190433115Y-118796689D01*
X190613039Y-118742109D01*
X190674373Y-118709324D01*
X190778851Y-118653481D01*
X190778853Y-118653478D01*
X190778857Y-118653477D01*
X190924199Y-118534199D01*
X191043477Y-118388857D01*
X191043478Y-118388853D01*
X191043481Y-118388851D01*
X191132108Y-118223040D01*
X191132109Y-118223039D01*
X191186689Y-118043115D01*
X191205118Y-117856000D01*
X191826882Y-117856000D01*
X191845310Y-118043115D01*
X191845311Y-118043117D01*
X191899891Y-118223040D01*
X191988518Y-118388851D01*
X191988523Y-118388857D01*
X192107800Y-118534199D01*
X192253142Y-118653476D01*
X192253148Y-118653481D01*
X192418959Y-118742108D01*
X192418961Y-118742109D01*
X192598882Y-118796688D01*
X192598884Y-118796689D01*
X192617312Y-118798503D01*
X192786000Y-118815118D01*
X192973115Y-118796689D01*
X193153039Y-118742109D01*
X193214373Y-118709324D01*
X193318851Y-118653481D01*
X193318853Y-118653478D01*
X193318857Y-118653477D01*
X193464199Y-118534199D01*
X193583477Y-118388857D01*
X193583478Y-118388853D01*
X193583481Y-118388851D01*
X193672108Y-118223040D01*
X193672109Y-118223039D01*
X193726689Y-118043115D01*
X193745118Y-117856000D01*
X194366882Y-117856000D01*
X194385310Y-118043115D01*
X194385311Y-118043117D01*
X194439891Y-118223040D01*
X194528518Y-118388851D01*
X194528523Y-118388857D01*
X194647800Y-118534199D01*
X194793142Y-118653476D01*
X194793148Y-118653481D01*
X194958959Y-118742108D01*
X194958961Y-118742109D01*
X195138882Y-118796688D01*
X195138884Y-118796689D01*
X195155660Y-118798341D01*
X195326000Y-118815118D01*
X195513115Y-118796689D01*
X195693039Y-118742109D01*
X195754373Y-118709324D01*
X195858851Y-118653481D01*
X195858853Y-118653478D01*
X195858857Y-118653477D01*
X196004199Y-118534199D01*
X196123477Y-118388857D01*
X196123478Y-118388853D01*
X196123481Y-118388851D01*
X196212108Y-118223040D01*
X196212109Y-118223039D01*
X196266689Y-118043115D01*
X196285118Y-117856000D01*
X196906882Y-117856000D01*
X196925310Y-118043115D01*
X196925311Y-118043117D01*
X196979891Y-118223040D01*
X197068518Y-118388851D01*
X197068523Y-118388857D01*
X197187800Y-118534199D01*
X197333142Y-118653476D01*
X197333148Y-118653481D01*
X197498959Y-118742108D01*
X197498961Y-118742109D01*
X197678882Y-118796688D01*
X197678884Y-118796689D01*
X197695660Y-118798341D01*
X197866000Y-118815118D01*
X198053115Y-118796689D01*
X198233039Y-118742109D01*
X198294373Y-118709324D01*
X198398851Y-118653481D01*
X198398853Y-118653478D01*
X198398857Y-118653477D01*
X198544199Y-118534199D01*
X198663477Y-118388857D01*
X198663478Y-118388853D01*
X198663481Y-118388851D01*
X198752108Y-118223040D01*
X198752109Y-118223039D01*
X198806689Y-118043115D01*
X198825118Y-117856000D01*
X199446882Y-117856000D01*
X199465310Y-118043115D01*
X199465311Y-118043117D01*
X199519891Y-118223040D01*
X199608518Y-118388851D01*
X199608523Y-118388857D01*
X199727800Y-118534199D01*
X199873142Y-118653476D01*
X199873148Y-118653481D01*
X200038959Y-118742108D01*
X200038961Y-118742109D01*
X200218882Y-118796688D01*
X200218884Y-118796689D01*
X200237313Y-118798503D01*
X200406000Y-118815118D01*
X200593115Y-118796689D01*
X200773039Y-118742109D01*
X200834373Y-118709324D01*
X200938851Y-118653481D01*
X200938853Y-118653478D01*
X200938857Y-118653477D01*
X201084199Y-118534199D01*
X201203477Y-118388857D01*
X201203478Y-118388853D01*
X201203481Y-118388851D01*
X201292108Y-118223040D01*
X201292109Y-118223039D01*
X201346689Y-118043115D01*
X201365118Y-117856000D01*
X201986882Y-117856000D01*
X202005310Y-118043115D01*
X202005311Y-118043117D01*
X202059891Y-118223040D01*
X202148518Y-118388851D01*
X202148523Y-118388857D01*
X202267800Y-118534199D01*
X202413142Y-118653476D01*
X202413148Y-118653481D01*
X202578959Y-118742108D01*
X202578961Y-118742109D01*
X202758882Y-118796688D01*
X202758884Y-118796689D01*
X202777312Y-118798503D01*
X202946000Y-118815118D01*
X203133115Y-118796689D01*
X203313039Y-118742109D01*
X203374373Y-118709324D01*
X203478851Y-118653481D01*
X203478853Y-118653478D01*
X203478857Y-118653477D01*
X203624199Y-118534199D01*
X203743477Y-118388857D01*
X203743478Y-118388853D01*
X203743481Y-118388851D01*
X203832108Y-118223040D01*
X203832109Y-118223039D01*
X203886689Y-118043115D01*
X203905118Y-117856000D01*
X204526882Y-117856000D01*
X204545310Y-118043115D01*
X204545311Y-118043117D01*
X204599891Y-118223040D01*
X204688518Y-118388851D01*
X204688523Y-118388857D01*
X204807800Y-118534199D01*
X204953142Y-118653476D01*
X204953148Y-118653481D01*
X205118959Y-118742108D01*
X205118961Y-118742109D01*
X205298882Y-118796688D01*
X205298884Y-118796689D01*
X205315660Y-118798341D01*
X205486000Y-118815118D01*
X205673115Y-118796689D01*
X205853039Y-118742109D01*
X205914373Y-118709324D01*
X206018851Y-118653481D01*
X206018853Y-118653478D01*
X206018857Y-118653477D01*
X206164199Y-118534199D01*
X206283477Y-118388857D01*
X206283478Y-118388853D01*
X206283481Y-118388851D01*
X206372108Y-118223040D01*
X206372109Y-118223039D01*
X206426689Y-118043115D01*
X206445118Y-117856000D01*
X207066882Y-117856000D01*
X207085310Y-118043115D01*
X207085311Y-118043117D01*
X207139891Y-118223040D01*
X207228518Y-118388851D01*
X207228523Y-118388857D01*
X207347800Y-118534199D01*
X207493142Y-118653476D01*
X207493148Y-118653481D01*
X207658959Y-118742108D01*
X207658961Y-118742109D01*
X207838882Y-118796688D01*
X207838884Y-118796689D01*
X207855660Y-118798341D01*
X208026000Y-118815118D01*
X208213115Y-118796689D01*
X208393039Y-118742109D01*
X208454373Y-118709324D01*
X208558851Y-118653481D01*
X208558853Y-118653478D01*
X208558857Y-118653477D01*
X208704199Y-118534199D01*
X208823477Y-118388857D01*
X208823478Y-118388853D01*
X208823481Y-118388851D01*
X208912108Y-118223040D01*
X208912109Y-118223039D01*
X208966689Y-118043115D01*
X208985118Y-117856000D01*
X209606882Y-117856000D01*
X209625310Y-118043115D01*
X209625311Y-118043117D01*
X209679891Y-118223040D01*
X209768518Y-118388851D01*
X209768523Y-118388857D01*
X209887800Y-118534199D01*
X210033142Y-118653476D01*
X210033148Y-118653481D01*
X210198959Y-118742108D01*
X210198961Y-118742109D01*
X210378882Y-118796688D01*
X210378884Y-118796689D01*
X210397312Y-118798503D01*
X210566000Y-118815118D01*
X210753115Y-118796689D01*
X210933039Y-118742109D01*
X210994373Y-118709324D01*
X211098851Y-118653481D01*
X211098853Y-118653478D01*
X211098857Y-118653477D01*
X211244199Y-118534199D01*
X211363477Y-118388857D01*
X211363478Y-118388853D01*
X211363481Y-118388851D01*
X211452108Y-118223040D01*
X211452109Y-118223039D01*
X211506689Y-118043115D01*
X211525118Y-117856000D01*
X212146882Y-117856000D01*
X212165310Y-118043115D01*
X212165311Y-118043117D01*
X212219891Y-118223040D01*
X212308518Y-118388851D01*
X212308523Y-118388857D01*
X212427800Y-118534199D01*
X212573142Y-118653476D01*
X212573148Y-118653481D01*
X212738959Y-118742108D01*
X212738961Y-118742109D01*
X212918882Y-118796688D01*
X212918884Y-118796689D01*
X212937313Y-118798503D01*
X213106000Y-118815118D01*
X213293115Y-118796689D01*
X213473039Y-118742109D01*
X213534373Y-118709324D01*
X213638851Y-118653481D01*
X213638853Y-118653478D01*
X213638857Y-118653477D01*
X213784199Y-118534199D01*
X213903477Y-118388857D01*
X213903478Y-118388853D01*
X213903481Y-118388851D01*
X213992108Y-118223040D01*
X213992109Y-118223039D01*
X214046689Y-118043115D01*
X214065118Y-117856000D01*
X214686882Y-117856000D01*
X214705310Y-118043115D01*
X214705311Y-118043117D01*
X214759891Y-118223040D01*
X214848518Y-118388851D01*
X214848523Y-118388857D01*
X214967800Y-118534199D01*
X215113142Y-118653476D01*
X215113148Y-118653481D01*
X215278959Y-118742108D01*
X215278961Y-118742109D01*
X215458882Y-118796688D01*
X215458884Y-118796689D01*
X215475660Y-118798341D01*
X215646000Y-118815118D01*
X215833115Y-118796689D01*
X216013039Y-118742109D01*
X216074373Y-118709324D01*
X216178851Y-118653481D01*
X216178853Y-118653478D01*
X216178857Y-118653477D01*
X216324199Y-118534199D01*
X216443477Y-118388857D01*
X216443478Y-118388853D01*
X216443481Y-118388851D01*
X216532108Y-118223040D01*
X216532109Y-118223039D01*
X216586689Y-118043115D01*
X216605118Y-117856000D01*
X219766882Y-117856000D01*
X219785310Y-118043115D01*
X219785311Y-118043117D01*
X219839891Y-118223040D01*
X219928518Y-118388851D01*
X219928523Y-118388857D01*
X220047800Y-118534199D01*
X220193142Y-118653476D01*
X220193148Y-118653481D01*
X220358959Y-118742108D01*
X220358961Y-118742109D01*
X220538882Y-118796688D01*
X220538884Y-118796689D01*
X220557313Y-118798503D01*
X220726000Y-118815118D01*
X220913115Y-118796689D01*
X221093039Y-118742109D01*
X221154373Y-118709324D01*
X221258851Y-118653481D01*
X221258853Y-118653478D01*
X221258857Y-118653477D01*
X221404199Y-118534199D01*
X221523477Y-118388857D01*
X221523478Y-118388853D01*
X221523481Y-118388851D01*
X221612108Y-118223040D01*
X221612109Y-118223039D01*
X221666689Y-118043115D01*
X221685118Y-117856000D01*
X221666689Y-117668885D01*
X221612109Y-117488961D01*
X221612108Y-117488959D01*
X221523481Y-117323148D01*
X221523476Y-117323142D01*
X221404199Y-117177800D01*
X221258857Y-117058523D01*
X221258851Y-117058518D01*
X221093040Y-116969891D01*
X220913117Y-116915311D01*
X220913115Y-116915310D01*
X220726000Y-116896882D01*
X220538884Y-116915310D01*
X220538882Y-116915311D01*
X220358959Y-116969891D01*
X220193148Y-117058518D01*
X220193142Y-117058523D01*
X220047800Y-117177800D01*
X219928523Y-117323142D01*
X219928518Y-117323148D01*
X219839891Y-117488959D01*
X219785311Y-117668882D01*
X219785310Y-117668884D01*
X219766882Y-117856000D01*
X216605118Y-117856000D01*
X216586689Y-117668885D01*
X216532109Y-117488961D01*
X216532108Y-117488959D01*
X216443481Y-117323148D01*
X216443476Y-117323142D01*
X216324199Y-117177800D01*
X216178857Y-117058523D01*
X216178851Y-117058518D01*
X216013040Y-116969891D01*
X215833117Y-116915311D01*
X215833115Y-116915310D01*
X215646000Y-116896882D01*
X215458884Y-116915310D01*
X215458882Y-116915311D01*
X215278959Y-116969891D01*
X215113148Y-117058518D01*
X215113142Y-117058523D01*
X214967800Y-117177800D01*
X214848523Y-117323142D01*
X214848518Y-117323148D01*
X214759891Y-117488959D01*
X214705311Y-117668882D01*
X214705310Y-117668884D01*
X214686882Y-117856000D01*
X214065118Y-117856000D01*
X214046689Y-117668885D01*
X213992109Y-117488961D01*
X213992108Y-117488959D01*
X213903481Y-117323148D01*
X213903476Y-117323142D01*
X213784199Y-117177800D01*
X213638857Y-117058523D01*
X213638851Y-117058518D01*
X213473040Y-116969891D01*
X213293117Y-116915311D01*
X213293115Y-116915310D01*
X213106000Y-116896882D01*
X212918884Y-116915310D01*
X212918882Y-116915311D01*
X212738959Y-116969891D01*
X212573148Y-117058518D01*
X212573142Y-117058523D01*
X212427800Y-117177800D01*
X212308523Y-117323142D01*
X212308518Y-117323148D01*
X212219891Y-117488959D01*
X212165311Y-117668882D01*
X212165310Y-117668884D01*
X212146882Y-117856000D01*
X211525118Y-117856000D01*
X211506689Y-117668885D01*
X211452109Y-117488961D01*
X211452108Y-117488959D01*
X211363481Y-117323148D01*
X211363476Y-117323142D01*
X211244199Y-117177800D01*
X211098857Y-117058523D01*
X211098851Y-117058518D01*
X210933040Y-116969891D01*
X210753117Y-116915311D01*
X210753115Y-116915310D01*
X210566000Y-116896882D01*
X210378884Y-116915310D01*
X210378882Y-116915311D01*
X210198959Y-116969891D01*
X210033148Y-117058518D01*
X210033142Y-117058523D01*
X209887800Y-117177800D01*
X209768523Y-117323142D01*
X209768518Y-117323148D01*
X209679891Y-117488959D01*
X209625311Y-117668882D01*
X209625310Y-117668884D01*
X209606882Y-117856000D01*
X208985118Y-117856000D01*
X208966689Y-117668885D01*
X208912109Y-117488961D01*
X208912108Y-117488959D01*
X208823481Y-117323148D01*
X208823476Y-117323142D01*
X208704199Y-117177800D01*
X208558857Y-117058523D01*
X208558851Y-117058518D01*
X208393040Y-116969891D01*
X208213117Y-116915311D01*
X208213115Y-116915310D01*
X208026000Y-116896882D01*
X207838884Y-116915310D01*
X207838882Y-116915311D01*
X207658959Y-116969891D01*
X207493148Y-117058518D01*
X207493142Y-117058523D01*
X207347800Y-117177800D01*
X207228523Y-117323142D01*
X207228518Y-117323148D01*
X207139891Y-117488959D01*
X207085311Y-117668882D01*
X207085310Y-117668884D01*
X207066882Y-117856000D01*
X206445118Y-117856000D01*
X206426689Y-117668885D01*
X206372109Y-117488961D01*
X206372108Y-117488959D01*
X206283481Y-117323148D01*
X206283476Y-117323142D01*
X206164199Y-117177800D01*
X206018857Y-117058523D01*
X206018851Y-117058518D01*
X205853040Y-116969891D01*
X205673117Y-116915311D01*
X205673115Y-116915310D01*
X205486000Y-116896882D01*
X205298884Y-116915310D01*
X205298882Y-116915311D01*
X205118959Y-116969891D01*
X204953148Y-117058518D01*
X204953142Y-117058523D01*
X204807800Y-117177800D01*
X204688523Y-117323142D01*
X204688518Y-117323148D01*
X204599891Y-117488959D01*
X204545311Y-117668882D01*
X204545310Y-117668884D01*
X204526882Y-117856000D01*
X203905118Y-117856000D01*
X203886689Y-117668885D01*
X203832109Y-117488961D01*
X203832108Y-117488959D01*
X203743481Y-117323148D01*
X203743476Y-117323142D01*
X203624199Y-117177800D01*
X203478857Y-117058523D01*
X203478851Y-117058518D01*
X203313040Y-116969891D01*
X203133117Y-116915311D01*
X203133115Y-116915310D01*
X202946000Y-116896882D01*
X202758884Y-116915310D01*
X202758882Y-116915311D01*
X202578959Y-116969891D01*
X202413148Y-117058518D01*
X202413142Y-117058523D01*
X202267800Y-117177800D01*
X202148523Y-117323142D01*
X202148518Y-117323148D01*
X202059891Y-117488959D01*
X202005311Y-117668882D01*
X202005310Y-117668884D01*
X201986882Y-117856000D01*
X201365118Y-117856000D01*
X201346689Y-117668885D01*
X201292109Y-117488961D01*
X201292108Y-117488959D01*
X201203481Y-117323148D01*
X201203476Y-117323142D01*
X201084199Y-117177800D01*
X200938857Y-117058523D01*
X200938851Y-117058518D01*
X200773040Y-116969891D01*
X200593117Y-116915311D01*
X200593115Y-116915310D01*
X200406000Y-116896882D01*
X200218884Y-116915310D01*
X200218882Y-116915311D01*
X200038959Y-116969891D01*
X199873148Y-117058518D01*
X199873142Y-117058523D01*
X199727800Y-117177800D01*
X199608523Y-117323142D01*
X199608518Y-117323148D01*
X199519891Y-117488959D01*
X199465311Y-117668882D01*
X199465310Y-117668884D01*
X199446882Y-117856000D01*
X198825118Y-117856000D01*
X198806689Y-117668885D01*
X198752109Y-117488961D01*
X198752108Y-117488959D01*
X198663481Y-117323148D01*
X198663476Y-117323142D01*
X198544199Y-117177800D01*
X198398857Y-117058523D01*
X198398851Y-117058518D01*
X198233040Y-116969891D01*
X198053117Y-116915311D01*
X198053115Y-116915310D01*
X197866000Y-116896882D01*
X197678884Y-116915310D01*
X197678882Y-116915311D01*
X197498959Y-116969891D01*
X197333148Y-117058518D01*
X197333142Y-117058523D01*
X197187800Y-117177800D01*
X197068523Y-117323142D01*
X197068518Y-117323148D01*
X196979891Y-117488959D01*
X196925311Y-117668882D01*
X196925310Y-117668884D01*
X196906882Y-117856000D01*
X196285118Y-117856000D01*
X196266689Y-117668885D01*
X196212109Y-117488961D01*
X196212108Y-117488959D01*
X196123481Y-117323148D01*
X196123476Y-117323142D01*
X196004199Y-117177800D01*
X195858857Y-117058523D01*
X195858851Y-117058518D01*
X195693040Y-116969891D01*
X195513117Y-116915311D01*
X195513115Y-116915310D01*
X195326000Y-116896882D01*
X195138884Y-116915310D01*
X195138882Y-116915311D01*
X194958959Y-116969891D01*
X194793148Y-117058518D01*
X194793142Y-117058523D01*
X194647800Y-117177800D01*
X194528523Y-117323142D01*
X194528518Y-117323148D01*
X194439891Y-117488959D01*
X194385311Y-117668882D01*
X194385310Y-117668884D01*
X194366882Y-117856000D01*
X193745118Y-117856000D01*
X193726689Y-117668885D01*
X193672109Y-117488961D01*
X193672108Y-117488959D01*
X193583481Y-117323148D01*
X193583476Y-117323142D01*
X193464199Y-117177800D01*
X193318857Y-117058523D01*
X193318851Y-117058518D01*
X193153040Y-116969891D01*
X192973117Y-116915311D01*
X192973115Y-116915310D01*
X192786000Y-116896882D01*
X192598884Y-116915310D01*
X192598882Y-116915311D01*
X192418959Y-116969891D01*
X192253148Y-117058518D01*
X192253142Y-117058523D01*
X192107800Y-117177800D01*
X191988523Y-117323142D01*
X191988518Y-117323148D01*
X191899891Y-117488959D01*
X191845311Y-117668882D01*
X191845310Y-117668884D01*
X191826882Y-117856000D01*
X191205118Y-117856000D01*
X191186689Y-117668885D01*
X191132109Y-117488961D01*
X191132108Y-117488959D01*
X191043481Y-117323148D01*
X191043476Y-117323142D01*
X190924199Y-117177800D01*
X190778857Y-117058523D01*
X190778851Y-117058518D01*
X190613040Y-116969891D01*
X190433117Y-116915311D01*
X190433115Y-116915310D01*
X190246000Y-116896882D01*
X190058884Y-116915310D01*
X190058882Y-116915311D01*
X189878959Y-116969891D01*
X189713148Y-117058518D01*
X189713142Y-117058523D01*
X189567800Y-117177800D01*
X189448523Y-117323142D01*
X189448518Y-117323148D01*
X189359891Y-117488959D01*
X189305311Y-117668882D01*
X189305310Y-117668884D01*
X189286882Y-117856000D01*
X188665118Y-117856000D01*
X188646689Y-117668885D01*
X188592109Y-117488961D01*
X188592108Y-117488959D01*
X188503481Y-117323148D01*
X188503476Y-117323142D01*
X188384199Y-117177800D01*
X188238857Y-117058523D01*
X188238851Y-117058518D01*
X188073040Y-116969891D01*
X187893117Y-116915311D01*
X187893115Y-116915310D01*
X187706000Y-116896882D01*
X187518884Y-116915310D01*
X187518882Y-116915311D01*
X187338959Y-116969891D01*
X187173148Y-117058518D01*
X187173142Y-117058523D01*
X187027800Y-117177800D01*
X186908523Y-117323142D01*
X186908518Y-117323148D01*
X186819891Y-117488959D01*
X186765311Y-117668882D01*
X186765310Y-117668884D01*
X186746882Y-117856000D01*
X183585118Y-117856000D01*
X183566689Y-117668885D01*
X183512109Y-117488961D01*
X183512108Y-117488959D01*
X183423481Y-117323148D01*
X183423476Y-117323142D01*
X183304199Y-117177800D01*
X183158857Y-117058523D01*
X183158851Y-117058518D01*
X182993040Y-116969891D01*
X182813117Y-116915311D01*
X182813115Y-116915310D01*
X182626000Y-116896882D01*
X182438884Y-116915310D01*
X182438882Y-116915311D01*
X182258959Y-116969891D01*
X182093148Y-117058518D01*
X182093142Y-117058523D01*
X181947800Y-117177800D01*
X181828523Y-117323142D01*
X181828518Y-117323148D01*
X181739891Y-117488959D01*
X181685311Y-117668882D01*
X181685310Y-117668884D01*
X181666882Y-117856000D01*
X181045118Y-117856000D01*
X181026689Y-117668885D01*
X180972109Y-117488961D01*
X180972108Y-117488959D01*
X180883481Y-117323148D01*
X180883476Y-117323142D01*
X180764199Y-117177800D01*
X180618857Y-117058523D01*
X180618851Y-117058518D01*
X180453040Y-116969891D01*
X180273117Y-116915311D01*
X180273115Y-116915310D01*
X180086000Y-116896882D01*
X179898884Y-116915310D01*
X179898882Y-116915311D01*
X179718959Y-116969891D01*
X179553148Y-117058518D01*
X179553142Y-117058523D01*
X179407800Y-117177800D01*
X179288523Y-117323142D01*
X179288518Y-117323148D01*
X179199891Y-117488959D01*
X179145311Y-117668882D01*
X179145310Y-117668884D01*
X179126882Y-117856000D01*
X178505118Y-117856000D01*
X178486689Y-117668885D01*
X178432109Y-117488961D01*
X178432108Y-117488959D01*
X178343481Y-117323148D01*
X178343476Y-117323142D01*
X178224199Y-117177800D01*
X178078857Y-117058523D01*
X178078851Y-117058518D01*
X177913040Y-116969891D01*
X177733117Y-116915311D01*
X177733115Y-116915310D01*
X177546000Y-116896882D01*
X177358884Y-116915310D01*
X177358882Y-116915311D01*
X177178959Y-116969891D01*
X177013148Y-117058518D01*
X177013142Y-117058523D01*
X176867800Y-117177800D01*
X176748523Y-117323142D01*
X176748518Y-117323148D01*
X176659891Y-117488959D01*
X176605311Y-117668882D01*
X176605310Y-117668884D01*
X176586882Y-117856000D01*
X175965118Y-117856000D01*
X175946689Y-117668885D01*
X175892109Y-117488961D01*
X175892108Y-117488959D01*
X175803481Y-117323148D01*
X175803476Y-117323142D01*
X175684199Y-117177800D01*
X175538857Y-117058523D01*
X175538851Y-117058518D01*
X175373040Y-116969891D01*
X175193117Y-116915311D01*
X175193115Y-116915310D01*
X175006000Y-116896882D01*
X174818884Y-116915310D01*
X174818882Y-116915311D01*
X174638959Y-116969891D01*
X174473148Y-117058518D01*
X174473142Y-117058523D01*
X174327800Y-117177800D01*
X174208523Y-117323142D01*
X174208518Y-117323148D01*
X174119891Y-117488959D01*
X174065311Y-117668882D01*
X174065310Y-117668884D01*
X174046882Y-117856000D01*
X173425118Y-117856000D01*
X173406689Y-117668885D01*
X173352109Y-117488961D01*
X173352108Y-117488959D01*
X173263481Y-117323148D01*
X173263476Y-117323142D01*
X173144199Y-117177800D01*
X172998857Y-117058523D01*
X172998851Y-117058518D01*
X172833040Y-116969891D01*
X172653117Y-116915311D01*
X172653115Y-116915310D01*
X172466000Y-116896882D01*
X172278884Y-116915310D01*
X172278882Y-116915311D01*
X172098959Y-116969891D01*
X171933148Y-117058518D01*
X171933142Y-117058523D01*
X171787800Y-117177800D01*
X171668523Y-117323142D01*
X171668518Y-117323148D01*
X171579891Y-117488959D01*
X171525311Y-117668882D01*
X171525310Y-117668884D01*
X171506882Y-117856000D01*
X170885118Y-117856000D01*
X170866689Y-117668885D01*
X170812109Y-117488961D01*
X170812108Y-117488959D01*
X170723481Y-117323148D01*
X170723476Y-117323142D01*
X170604199Y-117177800D01*
X170458857Y-117058523D01*
X170458851Y-117058518D01*
X170293040Y-116969891D01*
X170113117Y-116915311D01*
X170113115Y-116915310D01*
X169926000Y-116896882D01*
X169738884Y-116915310D01*
X169738882Y-116915311D01*
X169558959Y-116969891D01*
X169393148Y-117058518D01*
X169393142Y-117058523D01*
X169247800Y-117177800D01*
X169128523Y-117323142D01*
X169128518Y-117323148D01*
X169039891Y-117488959D01*
X168985311Y-117668882D01*
X168985310Y-117668884D01*
X168966882Y-117856000D01*
X168345118Y-117856000D01*
X168326689Y-117668885D01*
X168272109Y-117488961D01*
X168272108Y-117488959D01*
X168183481Y-117323148D01*
X168183476Y-117323142D01*
X168064199Y-117177800D01*
X167918857Y-117058523D01*
X167918851Y-117058518D01*
X167753040Y-116969891D01*
X167573117Y-116915311D01*
X167573115Y-116915310D01*
X167386000Y-116896882D01*
X167198884Y-116915310D01*
X167198882Y-116915311D01*
X167018959Y-116969891D01*
X166853148Y-117058518D01*
X166853142Y-117058523D01*
X166707800Y-117177800D01*
X166588523Y-117323142D01*
X166588518Y-117323148D01*
X166499891Y-117488959D01*
X166445311Y-117668882D01*
X166445310Y-117668884D01*
X166426882Y-117856000D01*
X165805118Y-117856000D01*
X165786689Y-117668885D01*
X165732109Y-117488961D01*
X165732108Y-117488959D01*
X165643481Y-117323148D01*
X165643476Y-117323142D01*
X165524199Y-117177800D01*
X165378857Y-117058523D01*
X165378851Y-117058518D01*
X165213040Y-116969891D01*
X165033117Y-116915311D01*
X165033115Y-116915310D01*
X164846000Y-116896882D01*
X164658884Y-116915310D01*
X164658882Y-116915311D01*
X164478959Y-116969891D01*
X164313148Y-117058518D01*
X164313142Y-117058523D01*
X164167800Y-117177800D01*
X164048523Y-117323142D01*
X164048518Y-117323148D01*
X163959891Y-117488959D01*
X163905311Y-117668882D01*
X163905310Y-117668884D01*
X163886882Y-117856000D01*
X163265118Y-117856000D01*
X163246689Y-117668885D01*
X163192109Y-117488961D01*
X163192108Y-117488959D01*
X163103481Y-117323148D01*
X163103476Y-117323142D01*
X162984199Y-117177800D01*
X162838857Y-117058523D01*
X162838851Y-117058518D01*
X162673040Y-116969891D01*
X162493117Y-116915311D01*
X162493115Y-116915310D01*
X162306000Y-116896882D01*
X162118884Y-116915310D01*
X162118882Y-116915311D01*
X161938959Y-116969891D01*
X161773148Y-117058518D01*
X161773142Y-117058523D01*
X161627800Y-117177800D01*
X161508523Y-117323142D01*
X161508518Y-117323148D01*
X161419891Y-117488959D01*
X161365311Y-117668882D01*
X161365310Y-117668884D01*
X161346882Y-117856000D01*
X135242659Y-117856000D01*
X135198564Y-117743646D01*
X135198559Y-117743634D01*
X135017613Y-117390685D01*
X135017609Y-117390677D01*
X134802414Y-117057491D01*
X134555114Y-116747386D01*
X134555111Y-116747383D01*
X134555104Y-116747374D01*
X134278176Y-116463455D01*
X134278173Y-116463452D01*
X134278172Y-116463451D01*
X134278167Y-116463446D01*
X133974324Y-116208492D01*
X133901613Y-116158918D01*
X133646605Y-115985057D01*
X133530493Y-115921826D01*
X133298270Y-115795364D01*
X133298262Y-115795360D01*
X133298259Y-115795359D01*
X132932777Y-115641296D01*
X132932761Y-115641290D01*
X132553764Y-115524385D01*
X132553751Y-115524382D01*
X132165000Y-115445794D01*
X132164979Y-115445791D01*
X131770320Y-115406300D01*
X131770319Y-115406300D01*
X131472899Y-115406300D01*
X131472884Y-115406300D01*
X131175855Y-115421124D01*
X130783647Y-115480241D01*
X130399272Y-115578114D01*
X130026549Y-115713774D01*
X129669191Y-115885869D01*
X129330753Y-116092684D01*
X129330742Y-116092692D01*
X129014575Y-116332180D01*
X129014572Y-116332182D01*
X128723813Y-116601968D01*
X128461365Y-116899359D01*
X128229839Y-117221393D01*
X128229826Y-117221413D01*
X128031516Y-117564896D01*
X127868382Y-117926437D01*
X127750043Y-118278658D01*
X127710032Y-118335938D01*
X127645406Y-118362493D01*
X127576682Y-118349892D01*
X127525679Y-118302137D01*
X127508500Y-118239166D01*
X127508500Y-115406000D01*
X204846518Y-115406000D01*
X204866392Y-115595092D01*
X204866393Y-115595095D01*
X204925144Y-115775913D01*
X204925147Y-115775920D01*
X205020214Y-115940580D01*
X205147438Y-116081877D01*
X205301259Y-116193635D01*
X205474955Y-116270969D01*
X205660933Y-116310500D01*
X205851067Y-116310500D01*
X206037045Y-116270969D01*
X206210741Y-116193635D01*
X206364562Y-116081877D01*
X206491786Y-115940580D01*
X206586853Y-115775920D01*
X206638069Y-115618293D01*
X206677506Y-115560618D01*
X206741865Y-115533420D01*
X206810711Y-115545335D01*
X206862187Y-115592579D01*
X206873931Y-115618294D01*
X206925144Y-115775914D01*
X206925147Y-115775920D01*
X207020214Y-115940580D01*
X207147438Y-116081877D01*
X207301259Y-116193635D01*
X207474955Y-116270969D01*
X207660933Y-116310500D01*
X207851067Y-116310500D01*
X208037045Y-116270969D01*
X208210741Y-116193635D01*
X208364562Y-116081877D01*
X208491786Y-115940580D01*
X208586853Y-115775920D01*
X208645608Y-115595092D01*
X208665482Y-115406000D01*
X208645608Y-115216908D01*
X208586853Y-115036080D01*
X208491786Y-114871420D01*
X208364562Y-114730123D01*
X208210741Y-114618365D01*
X208037045Y-114541031D01*
X208037043Y-114541030D01*
X208037044Y-114541030D01*
X207972398Y-114527289D01*
X207910916Y-114494096D01*
X207877140Y-114432932D01*
X207881794Y-114363218D01*
X207923399Y-114307086D01*
X207972394Y-114284710D01*
X208037045Y-114270969D01*
X208210741Y-114193635D01*
X208364562Y-114081877D01*
X208491786Y-113940580D01*
X208586853Y-113775920D01*
X208645608Y-113595092D01*
X208665482Y-113406000D01*
X208645608Y-113216908D01*
X208586853Y-113036080D01*
X208491786Y-112871420D01*
X208364562Y-112730123D01*
X208210741Y-112618365D01*
X208037045Y-112541031D01*
X208037043Y-112541030D01*
X207972399Y-112527290D01*
X207910917Y-112494098D01*
X207877141Y-112432935D01*
X207881793Y-112363220D01*
X207923398Y-112307088D01*
X207972399Y-112284710D01*
X207973823Y-112284407D01*
X208037045Y-112270969D01*
X208210741Y-112193635D01*
X208364562Y-112081877D01*
X208491786Y-111940580D01*
X208586853Y-111775920D01*
X208645608Y-111595092D01*
X208665482Y-111406000D01*
X208645608Y-111216908D01*
X208586853Y-111036080D01*
X208491786Y-110871420D01*
X208364562Y-110730123D01*
X208210741Y-110618365D01*
X208037045Y-110541031D01*
X208037043Y-110541030D01*
X207851067Y-110501500D01*
X207660933Y-110501500D01*
X207474957Y-110541030D01*
X207301257Y-110618366D01*
X207147436Y-110730124D01*
X207020213Y-110871421D01*
X206925147Y-111036079D01*
X206925144Y-111036086D01*
X206873931Y-111193705D01*
X206834493Y-111251381D01*
X206770135Y-111278579D01*
X206701288Y-111266664D01*
X206649813Y-111219420D01*
X206638069Y-111193705D01*
X206586855Y-111036086D01*
X206586854Y-111036085D01*
X206586853Y-111036080D01*
X206491786Y-110871420D01*
X206364562Y-110730123D01*
X206210741Y-110618365D01*
X206037045Y-110541031D01*
X206037043Y-110541030D01*
X205851067Y-110501500D01*
X205660933Y-110501500D01*
X205474957Y-110541030D01*
X205301257Y-110618366D01*
X205147436Y-110730124D01*
X205020213Y-110871421D01*
X204925147Y-111036079D01*
X204925144Y-111036086D01*
X204873931Y-111193705D01*
X204866392Y-111216908D01*
X204846518Y-111406000D01*
X204866392Y-111595092D01*
X204866393Y-111595095D01*
X204925144Y-111775913D01*
X204925147Y-111775920D01*
X205020214Y-111940580D01*
X205147438Y-112081877D01*
X205301259Y-112193635D01*
X205474955Y-112270969D01*
X205660933Y-112310500D01*
X205851067Y-112310500D01*
X206037045Y-112270969D01*
X206210741Y-112193635D01*
X206364562Y-112081877D01*
X206491786Y-111940580D01*
X206586853Y-111775920D01*
X206638069Y-111618293D01*
X206677506Y-111560618D01*
X206741865Y-111533420D01*
X206810711Y-111545335D01*
X206862187Y-111592579D01*
X206873931Y-111618294D01*
X206925144Y-111775914D01*
X206925147Y-111775920D01*
X207020214Y-111940580D01*
X207147438Y-112081877D01*
X207301259Y-112193635D01*
X207474955Y-112270969D01*
X207539603Y-112284710D01*
X207601081Y-112317900D01*
X207634858Y-112379063D01*
X207630206Y-112448778D01*
X207588602Y-112504910D01*
X207539602Y-112527289D01*
X207474955Y-112541030D01*
X207301257Y-112618366D01*
X207147436Y-112730124D01*
X207020213Y-112871421D01*
X206925147Y-113036079D01*
X206925144Y-113036086D01*
X206866393Y-113216904D01*
X206866392Y-113216908D01*
X206846518Y-113406000D01*
X206866392Y-113595092D01*
X206866393Y-113595095D01*
X206925144Y-113775913D01*
X206925147Y-113775920D01*
X207020214Y-113940580D01*
X207147438Y-114081877D01*
X207301259Y-114193635D01*
X207474955Y-114270969D01*
X207517102Y-114279927D01*
X207539600Y-114284710D01*
X207601082Y-114317902D01*
X207634858Y-114379066D01*
X207630206Y-114448780D01*
X207588601Y-114504912D01*
X207539600Y-114527290D01*
X207474957Y-114541030D01*
X207301257Y-114618366D01*
X207147436Y-114730124D01*
X207020213Y-114871421D01*
X206925147Y-115036079D01*
X206925144Y-115036086D01*
X206873931Y-115193705D01*
X206834493Y-115251381D01*
X206770135Y-115278579D01*
X206701288Y-115266664D01*
X206649813Y-115219420D01*
X206638069Y-115193705D01*
X206586855Y-115036086D01*
X206586854Y-115036085D01*
X206586853Y-115036080D01*
X206491786Y-114871420D01*
X206364562Y-114730123D01*
X206210741Y-114618365D01*
X206037045Y-114541031D01*
X206037043Y-114541030D01*
X205851067Y-114501500D01*
X205660933Y-114501500D01*
X205474957Y-114541030D01*
X205301257Y-114618366D01*
X205147436Y-114730124D01*
X205020213Y-114871421D01*
X204925147Y-115036079D01*
X204925144Y-115036086D01*
X204873931Y-115193705D01*
X204866392Y-115216908D01*
X204846518Y-115406000D01*
X127508500Y-115406000D01*
X127508500Y-102616000D01*
X161346882Y-102616000D01*
X161365310Y-102803115D01*
X161365311Y-102803117D01*
X161419891Y-102983040D01*
X161508518Y-103148851D01*
X161508523Y-103148857D01*
X161627800Y-103294199D01*
X161773142Y-103413476D01*
X161773148Y-103413481D01*
X161938959Y-103502108D01*
X161938961Y-103502109D01*
X162118882Y-103556688D01*
X162118884Y-103556689D01*
X162137312Y-103558503D01*
X162306000Y-103575118D01*
X162493115Y-103556689D01*
X162673039Y-103502109D01*
X162734373Y-103469324D01*
X162838851Y-103413481D01*
X162838853Y-103413478D01*
X162838857Y-103413477D01*
X162984199Y-103294199D01*
X163103477Y-103148857D01*
X163103478Y-103148853D01*
X163103481Y-103148851D01*
X163192108Y-102983040D01*
X163192109Y-102983039D01*
X163246689Y-102803115D01*
X163265118Y-102616000D01*
X163886882Y-102616000D01*
X163905310Y-102803115D01*
X163905311Y-102803117D01*
X163959891Y-102983040D01*
X164048518Y-103148851D01*
X164048523Y-103148857D01*
X164167800Y-103294199D01*
X164313142Y-103413476D01*
X164313148Y-103413481D01*
X164478959Y-103502108D01*
X164478961Y-103502109D01*
X164658882Y-103556688D01*
X164658884Y-103556689D01*
X164675660Y-103558341D01*
X164846000Y-103575118D01*
X165033115Y-103556689D01*
X165213039Y-103502109D01*
X165274373Y-103469324D01*
X165378851Y-103413481D01*
X165378853Y-103413478D01*
X165378857Y-103413477D01*
X165524199Y-103294199D01*
X165643477Y-103148857D01*
X165643478Y-103148853D01*
X165643481Y-103148851D01*
X165732108Y-102983040D01*
X165732109Y-102983039D01*
X165786689Y-102803115D01*
X165805118Y-102616000D01*
X166426882Y-102616000D01*
X166445310Y-102803115D01*
X166445311Y-102803117D01*
X166499891Y-102983040D01*
X166588518Y-103148851D01*
X166588523Y-103148857D01*
X166707800Y-103294199D01*
X166853142Y-103413476D01*
X166853148Y-103413481D01*
X167018959Y-103502108D01*
X167018961Y-103502109D01*
X167198882Y-103556688D01*
X167198884Y-103556689D01*
X167215660Y-103558341D01*
X167386000Y-103575118D01*
X167573115Y-103556689D01*
X167753039Y-103502109D01*
X167814373Y-103469324D01*
X167918851Y-103413481D01*
X167918853Y-103413478D01*
X167918857Y-103413477D01*
X168064199Y-103294199D01*
X168183477Y-103148857D01*
X168183478Y-103148853D01*
X168183481Y-103148851D01*
X168272108Y-102983040D01*
X168272109Y-102983039D01*
X168326689Y-102803115D01*
X168345118Y-102616000D01*
X168966882Y-102616000D01*
X168985310Y-102803115D01*
X168985311Y-102803117D01*
X169039891Y-102983040D01*
X169128518Y-103148851D01*
X169128523Y-103148857D01*
X169247800Y-103294199D01*
X169393142Y-103413476D01*
X169393148Y-103413481D01*
X169558959Y-103502108D01*
X169558961Y-103502109D01*
X169738882Y-103556688D01*
X169738884Y-103556689D01*
X169757312Y-103558503D01*
X169926000Y-103575118D01*
X170113115Y-103556689D01*
X170293039Y-103502109D01*
X170354373Y-103469324D01*
X170458851Y-103413481D01*
X170458853Y-103413478D01*
X170458857Y-103413477D01*
X170604199Y-103294199D01*
X170723477Y-103148857D01*
X170723478Y-103148853D01*
X170723481Y-103148851D01*
X170812108Y-102983040D01*
X170812109Y-102983039D01*
X170866689Y-102803115D01*
X170885118Y-102616000D01*
X171506882Y-102616000D01*
X171525310Y-102803115D01*
X171525311Y-102803117D01*
X171579891Y-102983040D01*
X171668518Y-103148851D01*
X171668523Y-103148857D01*
X171787800Y-103294199D01*
X171933142Y-103413476D01*
X171933148Y-103413481D01*
X172098959Y-103502108D01*
X172098961Y-103502109D01*
X172278882Y-103556688D01*
X172278884Y-103556689D01*
X172297312Y-103558503D01*
X172466000Y-103575118D01*
X172653115Y-103556689D01*
X172833039Y-103502109D01*
X172894373Y-103469324D01*
X172998851Y-103413481D01*
X172998853Y-103413478D01*
X172998857Y-103413477D01*
X173144199Y-103294199D01*
X173263477Y-103148857D01*
X173263478Y-103148853D01*
X173263481Y-103148851D01*
X173352108Y-102983040D01*
X173352109Y-102983039D01*
X173406689Y-102803115D01*
X173425118Y-102616000D01*
X174046882Y-102616000D01*
X174065310Y-102803115D01*
X174065311Y-102803117D01*
X174119891Y-102983040D01*
X174208518Y-103148851D01*
X174208523Y-103148857D01*
X174327800Y-103294199D01*
X174473142Y-103413476D01*
X174473148Y-103413481D01*
X174638959Y-103502108D01*
X174638961Y-103502109D01*
X174818882Y-103556688D01*
X174818884Y-103556689D01*
X174835660Y-103558341D01*
X175006000Y-103575118D01*
X175193115Y-103556689D01*
X175373039Y-103502109D01*
X175434373Y-103469324D01*
X175538851Y-103413481D01*
X175538853Y-103413478D01*
X175538857Y-103413477D01*
X175684199Y-103294199D01*
X175803477Y-103148857D01*
X175803478Y-103148853D01*
X175803481Y-103148851D01*
X175892108Y-102983040D01*
X175892109Y-102983039D01*
X175946689Y-102803115D01*
X175965118Y-102616000D01*
X176586882Y-102616000D01*
X176605310Y-102803115D01*
X176605311Y-102803117D01*
X176659891Y-102983040D01*
X176748518Y-103148851D01*
X176748523Y-103148857D01*
X176867800Y-103294199D01*
X177013142Y-103413476D01*
X177013148Y-103413481D01*
X177178959Y-103502108D01*
X177178961Y-103502109D01*
X177358882Y-103556688D01*
X177358884Y-103556689D01*
X177375660Y-103558341D01*
X177546000Y-103575118D01*
X177733115Y-103556689D01*
X177913039Y-103502109D01*
X177974373Y-103469324D01*
X178078851Y-103413481D01*
X178078853Y-103413478D01*
X178078857Y-103413477D01*
X178224199Y-103294199D01*
X178343477Y-103148857D01*
X178343478Y-103148853D01*
X178343481Y-103148851D01*
X178432108Y-102983040D01*
X178432109Y-102983039D01*
X178486689Y-102803115D01*
X178505118Y-102616000D01*
X179126882Y-102616000D01*
X179145310Y-102803115D01*
X179145311Y-102803117D01*
X179199891Y-102983040D01*
X179288518Y-103148851D01*
X179288523Y-103148857D01*
X179407800Y-103294199D01*
X179553142Y-103413476D01*
X179553148Y-103413481D01*
X179718959Y-103502108D01*
X179718961Y-103502109D01*
X179898882Y-103556688D01*
X179898884Y-103556689D01*
X179917312Y-103558503D01*
X180086000Y-103575118D01*
X180273115Y-103556689D01*
X180453039Y-103502109D01*
X180514373Y-103469324D01*
X180618851Y-103413481D01*
X180618853Y-103413478D01*
X180618857Y-103413477D01*
X180764199Y-103294199D01*
X180883477Y-103148857D01*
X180883478Y-103148853D01*
X180883481Y-103148851D01*
X180972108Y-102983040D01*
X180972109Y-102983039D01*
X181026689Y-102803115D01*
X181045118Y-102616000D01*
X181666882Y-102616000D01*
X181685310Y-102803115D01*
X181685311Y-102803117D01*
X181739891Y-102983040D01*
X181828518Y-103148851D01*
X181828523Y-103148857D01*
X181947800Y-103294199D01*
X182093142Y-103413476D01*
X182093148Y-103413481D01*
X182258959Y-103502108D01*
X182258961Y-103502109D01*
X182438882Y-103556688D01*
X182438884Y-103556689D01*
X182457312Y-103558503D01*
X182626000Y-103575118D01*
X182813115Y-103556689D01*
X182993039Y-103502109D01*
X183054373Y-103469324D01*
X183158851Y-103413481D01*
X183158853Y-103413478D01*
X183158857Y-103413477D01*
X183304199Y-103294199D01*
X183423477Y-103148857D01*
X183423478Y-103148853D01*
X183423481Y-103148851D01*
X183512108Y-102983040D01*
X183512109Y-102983039D01*
X183566689Y-102803115D01*
X183585118Y-102616000D01*
X184206882Y-102616000D01*
X184225310Y-102803115D01*
X184225311Y-102803117D01*
X184279891Y-102983040D01*
X184368518Y-103148851D01*
X184368523Y-103148857D01*
X184487800Y-103294199D01*
X184633142Y-103413476D01*
X184633148Y-103413481D01*
X184798959Y-103502108D01*
X184798961Y-103502109D01*
X184978882Y-103556688D01*
X184978884Y-103556689D01*
X184995660Y-103558341D01*
X185166000Y-103575118D01*
X185353115Y-103556689D01*
X185533039Y-103502109D01*
X185594373Y-103469324D01*
X185698851Y-103413481D01*
X185698853Y-103413478D01*
X185698857Y-103413477D01*
X185844199Y-103294199D01*
X185963477Y-103148857D01*
X185963478Y-103148853D01*
X185963481Y-103148851D01*
X186052108Y-102983040D01*
X186052109Y-102983039D01*
X186106689Y-102803115D01*
X186125118Y-102616000D01*
X186746882Y-102616000D01*
X186765310Y-102803115D01*
X186765311Y-102803117D01*
X186819891Y-102983040D01*
X186908518Y-103148851D01*
X186908523Y-103148857D01*
X187027800Y-103294199D01*
X187173142Y-103413476D01*
X187173148Y-103413481D01*
X187338959Y-103502108D01*
X187338961Y-103502109D01*
X187518882Y-103556688D01*
X187518884Y-103556689D01*
X187535660Y-103558341D01*
X187706000Y-103575118D01*
X187893115Y-103556689D01*
X188073039Y-103502109D01*
X188134373Y-103469324D01*
X188238851Y-103413481D01*
X188238853Y-103413478D01*
X188238857Y-103413477D01*
X188384199Y-103294199D01*
X188503477Y-103148857D01*
X188503478Y-103148853D01*
X188503481Y-103148851D01*
X188592108Y-102983040D01*
X188592109Y-102983039D01*
X188646689Y-102803115D01*
X188665118Y-102616000D01*
X189286882Y-102616000D01*
X189305310Y-102803115D01*
X189305311Y-102803117D01*
X189359891Y-102983040D01*
X189448518Y-103148851D01*
X189448523Y-103148857D01*
X189567800Y-103294199D01*
X189713142Y-103413476D01*
X189713148Y-103413481D01*
X189878959Y-103502108D01*
X189878961Y-103502109D01*
X190058882Y-103556688D01*
X190058884Y-103556689D01*
X190077313Y-103558503D01*
X190246000Y-103575118D01*
X190433115Y-103556689D01*
X190613039Y-103502109D01*
X190674373Y-103469324D01*
X190778851Y-103413481D01*
X190778853Y-103413478D01*
X190778857Y-103413477D01*
X190924199Y-103294199D01*
X191043477Y-103148857D01*
X191043478Y-103148853D01*
X191043481Y-103148851D01*
X191132108Y-102983040D01*
X191132109Y-102983039D01*
X191186689Y-102803115D01*
X191205118Y-102616000D01*
X191826882Y-102616000D01*
X191845310Y-102803115D01*
X191845311Y-102803117D01*
X191899891Y-102983040D01*
X191988518Y-103148851D01*
X191988523Y-103148857D01*
X192107800Y-103294199D01*
X192253142Y-103413476D01*
X192253148Y-103413481D01*
X192418959Y-103502108D01*
X192418961Y-103502109D01*
X192598882Y-103556688D01*
X192598884Y-103556689D01*
X192617312Y-103558503D01*
X192786000Y-103575118D01*
X192973115Y-103556689D01*
X193153039Y-103502109D01*
X193214373Y-103469324D01*
X193318851Y-103413481D01*
X193318853Y-103413478D01*
X193318857Y-103413477D01*
X193464199Y-103294199D01*
X193583477Y-103148857D01*
X193583478Y-103148853D01*
X193583481Y-103148851D01*
X193672108Y-102983040D01*
X193672109Y-102983039D01*
X193726689Y-102803115D01*
X193745118Y-102616000D01*
X194366882Y-102616000D01*
X194385310Y-102803115D01*
X194385311Y-102803117D01*
X194439891Y-102983040D01*
X194528518Y-103148851D01*
X194528523Y-103148857D01*
X194647800Y-103294199D01*
X194793142Y-103413476D01*
X194793148Y-103413481D01*
X194958959Y-103502108D01*
X194958961Y-103502109D01*
X195138882Y-103556688D01*
X195138884Y-103556689D01*
X195155660Y-103558341D01*
X195326000Y-103575118D01*
X195513115Y-103556689D01*
X195693039Y-103502109D01*
X195754373Y-103469324D01*
X195858851Y-103413481D01*
X195858853Y-103413478D01*
X195858857Y-103413477D01*
X196004199Y-103294199D01*
X196123477Y-103148857D01*
X196123478Y-103148853D01*
X196123481Y-103148851D01*
X196212108Y-102983040D01*
X196212109Y-102983039D01*
X196266689Y-102803115D01*
X196285118Y-102616000D01*
X196906882Y-102616000D01*
X196925310Y-102803115D01*
X196925311Y-102803117D01*
X196979891Y-102983040D01*
X197068518Y-103148851D01*
X197068523Y-103148857D01*
X197187800Y-103294199D01*
X197333142Y-103413476D01*
X197333148Y-103413481D01*
X197498959Y-103502108D01*
X197498961Y-103502109D01*
X197678882Y-103556688D01*
X197678884Y-103556689D01*
X197695660Y-103558341D01*
X197866000Y-103575118D01*
X198053115Y-103556689D01*
X198233039Y-103502109D01*
X198294373Y-103469324D01*
X198398851Y-103413481D01*
X198398853Y-103413478D01*
X198398857Y-103413477D01*
X198544199Y-103294199D01*
X198663477Y-103148857D01*
X198663478Y-103148853D01*
X198663481Y-103148851D01*
X198752108Y-102983040D01*
X198752109Y-102983039D01*
X198806689Y-102803115D01*
X198825118Y-102616000D01*
X199446882Y-102616000D01*
X199465310Y-102803115D01*
X199465311Y-102803117D01*
X199519891Y-102983040D01*
X199608518Y-103148851D01*
X199608523Y-103148857D01*
X199727800Y-103294199D01*
X199873142Y-103413476D01*
X199873148Y-103413481D01*
X200038959Y-103502108D01*
X200038961Y-103502109D01*
X200218882Y-103556688D01*
X200218884Y-103556689D01*
X200237313Y-103558503D01*
X200406000Y-103575118D01*
X200593115Y-103556689D01*
X200773039Y-103502109D01*
X200834373Y-103469324D01*
X200938851Y-103413481D01*
X200938853Y-103413478D01*
X200938857Y-103413477D01*
X201084199Y-103294199D01*
X201203477Y-103148857D01*
X201203478Y-103148853D01*
X201203481Y-103148851D01*
X201292108Y-102983040D01*
X201292109Y-102983039D01*
X201346689Y-102803115D01*
X201365118Y-102616000D01*
X201986882Y-102616000D01*
X202005310Y-102803115D01*
X202005311Y-102803117D01*
X202059891Y-102983040D01*
X202148518Y-103148851D01*
X202148523Y-103148857D01*
X202267800Y-103294199D01*
X202413142Y-103413476D01*
X202413148Y-103413481D01*
X202578959Y-103502108D01*
X202578961Y-103502109D01*
X202758882Y-103556688D01*
X202758884Y-103556689D01*
X202777312Y-103558503D01*
X202946000Y-103575118D01*
X203133115Y-103556689D01*
X203313039Y-103502109D01*
X203374373Y-103469324D01*
X203478851Y-103413481D01*
X203478853Y-103413478D01*
X203478857Y-103413477D01*
X203624199Y-103294199D01*
X203743477Y-103148857D01*
X203743478Y-103148853D01*
X203743481Y-103148851D01*
X203832108Y-102983040D01*
X203832109Y-102983039D01*
X203886689Y-102803115D01*
X203905118Y-102616000D01*
X204526882Y-102616000D01*
X204545310Y-102803115D01*
X204545311Y-102803117D01*
X204599891Y-102983040D01*
X204688518Y-103148851D01*
X204688523Y-103148857D01*
X204807800Y-103294199D01*
X204953142Y-103413476D01*
X204953148Y-103413481D01*
X205118959Y-103502108D01*
X205118961Y-103502109D01*
X205298882Y-103556688D01*
X205298884Y-103556689D01*
X205315660Y-103558341D01*
X205486000Y-103575118D01*
X205673115Y-103556689D01*
X205853039Y-103502109D01*
X205914373Y-103469324D01*
X206018851Y-103413481D01*
X206018853Y-103413478D01*
X206018857Y-103413477D01*
X206164199Y-103294199D01*
X206283477Y-103148857D01*
X206283478Y-103148853D01*
X206283481Y-103148851D01*
X206372108Y-102983040D01*
X206372109Y-102983039D01*
X206426689Y-102803115D01*
X206445118Y-102616000D01*
X207066882Y-102616000D01*
X207085310Y-102803115D01*
X207085311Y-102803117D01*
X207139891Y-102983040D01*
X207228518Y-103148851D01*
X207228523Y-103148857D01*
X207347800Y-103294199D01*
X207493142Y-103413476D01*
X207493148Y-103413481D01*
X207658959Y-103502108D01*
X207658961Y-103502109D01*
X207838882Y-103556688D01*
X207838884Y-103556689D01*
X207855660Y-103558341D01*
X208026000Y-103575118D01*
X208213115Y-103556689D01*
X208393039Y-103502109D01*
X208454373Y-103469324D01*
X208558851Y-103413481D01*
X208558853Y-103413478D01*
X208558857Y-103413477D01*
X208704199Y-103294199D01*
X208823477Y-103148857D01*
X208823478Y-103148853D01*
X208823481Y-103148851D01*
X208912108Y-102983040D01*
X208912109Y-102983039D01*
X208966689Y-102803115D01*
X208985118Y-102616000D01*
X209606882Y-102616000D01*
X209625310Y-102803115D01*
X209625311Y-102803117D01*
X209679891Y-102983040D01*
X209768518Y-103148851D01*
X209768523Y-103148857D01*
X209887800Y-103294199D01*
X210033142Y-103413476D01*
X210033148Y-103413481D01*
X210198959Y-103502108D01*
X210198961Y-103502109D01*
X210378882Y-103556688D01*
X210378884Y-103556689D01*
X210397312Y-103558503D01*
X210566000Y-103575118D01*
X210753115Y-103556689D01*
X210933039Y-103502109D01*
X210994373Y-103469324D01*
X211098851Y-103413481D01*
X211098853Y-103413478D01*
X211098857Y-103413477D01*
X211244199Y-103294199D01*
X211363477Y-103148857D01*
X211363478Y-103148853D01*
X211363481Y-103148851D01*
X211452108Y-102983040D01*
X211452109Y-102983039D01*
X211506689Y-102803115D01*
X211525118Y-102616000D01*
X212146882Y-102616000D01*
X212165310Y-102803115D01*
X212165311Y-102803117D01*
X212219891Y-102983040D01*
X212308518Y-103148851D01*
X212308523Y-103148857D01*
X212427800Y-103294199D01*
X212573142Y-103413476D01*
X212573148Y-103413481D01*
X212738959Y-103502108D01*
X212738961Y-103502109D01*
X212918882Y-103556688D01*
X212918884Y-103556689D01*
X212937312Y-103558503D01*
X213106000Y-103575118D01*
X213293115Y-103556689D01*
X213473039Y-103502109D01*
X213534373Y-103469324D01*
X213638851Y-103413481D01*
X213638853Y-103413478D01*
X213638857Y-103413477D01*
X213784199Y-103294199D01*
X213903477Y-103148857D01*
X213903478Y-103148853D01*
X213903481Y-103148851D01*
X213992108Y-102983040D01*
X213992109Y-102983039D01*
X214046689Y-102803115D01*
X214065118Y-102616000D01*
X214686882Y-102616000D01*
X214705310Y-102803115D01*
X214705311Y-102803117D01*
X214759891Y-102983040D01*
X214848518Y-103148851D01*
X214848523Y-103148857D01*
X214967800Y-103294199D01*
X215113142Y-103413476D01*
X215113148Y-103413481D01*
X215278959Y-103502108D01*
X215278961Y-103502109D01*
X215458882Y-103556688D01*
X215458884Y-103556689D01*
X215475660Y-103558341D01*
X215646000Y-103575118D01*
X215833115Y-103556689D01*
X216013039Y-103502109D01*
X216074373Y-103469324D01*
X216178851Y-103413481D01*
X216178853Y-103413478D01*
X216178857Y-103413477D01*
X216324199Y-103294199D01*
X216443477Y-103148857D01*
X216443478Y-103148853D01*
X216443481Y-103148851D01*
X216532108Y-102983040D01*
X216532109Y-102983039D01*
X216586689Y-102803115D01*
X216605118Y-102616000D01*
X217226882Y-102616000D01*
X217245310Y-102803115D01*
X217245311Y-102803117D01*
X217299891Y-102983040D01*
X217388518Y-103148851D01*
X217388523Y-103148857D01*
X217507800Y-103294199D01*
X217653142Y-103413476D01*
X217653148Y-103413481D01*
X217818959Y-103502108D01*
X217818961Y-103502109D01*
X217998882Y-103556688D01*
X217998884Y-103556689D01*
X218015660Y-103558341D01*
X218186000Y-103575118D01*
X218373115Y-103556689D01*
X218553039Y-103502109D01*
X218614373Y-103469324D01*
X218718851Y-103413481D01*
X218718853Y-103413478D01*
X218718857Y-103413477D01*
X218864199Y-103294199D01*
X218983477Y-103148857D01*
X218983478Y-103148853D01*
X218983481Y-103148851D01*
X219072108Y-102983040D01*
X219072109Y-102983039D01*
X219126689Y-102803115D01*
X219145118Y-102616000D01*
X219126689Y-102428885D01*
X219072109Y-102248961D01*
X219072108Y-102248959D01*
X218983481Y-102083148D01*
X218983476Y-102083142D01*
X218864199Y-101937800D01*
X218718857Y-101818523D01*
X218718851Y-101818518D01*
X218553040Y-101729891D01*
X218373117Y-101675311D01*
X218373115Y-101675310D01*
X218186000Y-101656882D01*
X217998884Y-101675310D01*
X217998882Y-101675311D01*
X217818959Y-101729891D01*
X217653148Y-101818518D01*
X217653142Y-101818523D01*
X217507800Y-101937800D01*
X217388523Y-102083142D01*
X217388518Y-102083148D01*
X217299891Y-102248959D01*
X217245311Y-102428882D01*
X217245310Y-102428884D01*
X217226882Y-102616000D01*
X216605118Y-102616000D01*
X216586689Y-102428885D01*
X216532109Y-102248961D01*
X216532108Y-102248959D01*
X216443481Y-102083148D01*
X216443476Y-102083142D01*
X216324199Y-101937800D01*
X216178857Y-101818523D01*
X216178851Y-101818518D01*
X216013040Y-101729891D01*
X215833117Y-101675311D01*
X215833115Y-101675310D01*
X215646000Y-101656882D01*
X215458884Y-101675310D01*
X215458882Y-101675311D01*
X215278959Y-101729891D01*
X215113148Y-101818518D01*
X215113142Y-101818523D01*
X214967800Y-101937800D01*
X214848523Y-102083142D01*
X214848518Y-102083148D01*
X214759891Y-102248959D01*
X214705311Y-102428882D01*
X214705310Y-102428884D01*
X214686882Y-102616000D01*
X214065118Y-102616000D01*
X214046689Y-102428885D01*
X213992109Y-102248961D01*
X213992108Y-102248959D01*
X213903481Y-102083148D01*
X213903476Y-102083142D01*
X213784199Y-101937800D01*
X213638857Y-101818523D01*
X213638851Y-101818518D01*
X213473040Y-101729891D01*
X213293117Y-101675311D01*
X213293115Y-101675310D01*
X213106000Y-101656882D01*
X212918884Y-101675310D01*
X212918882Y-101675311D01*
X212738959Y-101729891D01*
X212573148Y-101818518D01*
X212573142Y-101818523D01*
X212427800Y-101937800D01*
X212308523Y-102083142D01*
X212308518Y-102083148D01*
X212219891Y-102248959D01*
X212165311Y-102428882D01*
X212165310Y-102428884D01*
X212146882Y-102616000D01*
X211525118Y-102616000D01*
X211506689Y-102428885D01*
X211452109Y-102248961D01*
X211452108Y-102248959D01*
X211363481Y-102083148D01*
X211363476Y-102083142D01*
X211244199Y-101937800D01*
X211098857Y-101818523D01*
X211098851Y-101818518D01*
X210933040Y-101729891D01*
X210753117Y-101675311D01*
X210753115Y-101675310D01*
X210566000Y-101656882D01*
X210378884Y-101675310D01*
X210378882Y-101675311D01*
X210198959Y-101729891D01*
X210033148Y-101818518D01*
X210033142Y-101818523D01*
X209887800Y-101937800D01*
X209768523Y-102083142D01*
X209768518Y-102083148D01*
X209679891Y-102248959D01*
X209625311Y-102428882D01*
X209625310Y-102428884D01*
X209606882Y-102616000D01*
X208985118Y-102616000D01*
X208966689Y-102428885D01*
X208912109Y-102248961D01*
X208912108Y-102248959D01*
X208823481Y-102083148D01*
X208823476Y-102083142D01*
X208704199Y-101937800D01*
X208558857Y-101818523D01*
X208558851Y-101818518D01*
X208393040Y-101729891D01*
X208213117Y-101675311D01*
X208213115Y-101675310D01*
X208026000Y-101656882D01*
X207838884Y-101675310D01*
X207838882Y-101675311D01*
X207658959Y-101729891D01*
X207493148Y-101818518D01*
X207493142Y-101818523D01*
X207347800Y-101937800D01*
X207228523Y-102083142D01*
X207228518Y-102083148D01*
X207139891Y-102248959D01*
X207085311Y-102428882D01*
X207085310Y-102428884D01*
X207066882Y-102616000D01*
X206445118Y-102616000D01*
X206426689Y-102428885D01*
X206372109Y-102248961D01*
X206372108Y-102248959D01*
X206283481Y-102083148D01*
X206283476Y-102083142D01*
X206164199Y-101937800D01*
X206018857Y-101818523D01*
X206018851Y-101818518D01*
X205853040Y-101729891D01*
X205673117Y-101675311D01*
X205673115Y-101675310D01*
X205486000Y-101656882D01*
X205298884Y-101675310D01*
X205298882Y-101675311D01*
X205118959Y-101729891D01*
X204953148Y-101818518D01*
X204953142Y-101818523D01*
X204807800Y-101937800D01*
X204688523Y-102083142D01*
X204688518Y-102083148D01*
X204599891Y-102248959D01*
X204545311Y-102428882D01*
X204545310Y-102428884D01*
X204526882Y-102616000D01*
X203905118Y-102616000D01*
X203886689Y-102428885D01*
X203832109Y-102248961D01*
X203832108Y-102248959D01*
X203743481Y-102083148D01*
X203743476Y-102083142D01*
X203624199Y-101937800D01*
X203478857Y-101818523D01*
X203478851Y-101818518D01*
X203313040Y-101729891D01*
X203133117Y-101675311D01*
X203133115Y-101675310D01*
X202946000Y-101656882D01*
X202758884Y-101675310D01*
X202758882Y-101675311D01*
X202578959Y-101729891D01*
X202413148Y-101818518D01*
X202413142Y-101818523D01*
X202267800Y-101937800D01*
X202148523Y-102083142D01*
X202148518Y-102083148D01*
X202059891Y-102248959D01*
X202005311Y-102428882D01*
X202005310Y-102428884D01*
X201986882Y-102616000D01*
X201365118Y-102616000D01*
X201346689Y-102428885D01*
X201292109Y-102248961D01*
X201292108Y-102248959D01*
X201203481Y-102083148D01*
X201203476Y-102083142D01*
X201084199Y-101937800D01*
X200938857Y-101818523D01*
X200938851Y-101818518D01*
X200773040Y-101729891D01*
X200593117Y-101675311D01*
X200593115Y-101675310D01*
X200406000Y-101656882D01*
X200218884Y-101675310D01*
X200218882Y-101675311D01*
X200038959Y-101729891D01*
X199873148Y-101818518D01*
X199873142Y-101818523D01*
X199727800Y-101937800D01*
X199608523Y-102083142D01*
X199608518Y-102083148D01*
X199519891Y-102248959D01*
X199465311Y-102428882D01*
X199465310Y-102428884D01*
X199446882Y-102616000D01*
X198825118Y-102616000D01*
X198806689Y-102428885D01*
X198752109Y-102248961D01*
X198752108Y-102248959D01*
X198663481Y-102083148D01*
X198663476Y-102083142D01*
X198544199Y-101937800D01*
X198398857Y-101818523D01*
X198398851Y-101818518D01*
X198233040Y-101729891D01*
X198053117Y-101675311D01*
X198053115Y-101675310D01*
X197866000Y-101656882D01*
X197678884Y-101675310D01*
X197678882Y-101675311D01*
X197498959Y-101729891D01*
X197333148Y-101818518D01*
X197333142Y-101818523D01*
X197187800Y-101937800D01*
X197068523Y-102083142D01*
X197068518Y-102083148D01*
X196979891Y-102248959D01*
X196925311Y-102428882D01*
X196925310Y-102428884D01*
X196906882Y-102616000D01*
X196285118Y-102616000D01*
X196266689Y-102428885D01*
X196212109Y-102248961D01*
X196212108Y-102248959D01*
X196123481Y-102083148D01*
X196123476Y-102083142D01*
X196004199Y-101937800D01*
X195858857Y-101818523D01*
X195858851Y-101818518D01*
X195693040Y-101729891D01*
X195513117Y-101675311D01*
X195513115Y-101675310D01*
X195326000Y-101656882D01*
X195138884Y-101675310D01*
X195138882Y-101675311D01*
X194958959Y-101729891D01*
X194793148Y-101818518D01*
X194793142Y-101818523D01*
X194647800Y-101937800D01*
X194528523Y-102083142D01*
X194528518Y-102083148D01*
X194439891Y-102248959D01*
X194385311Y-102428882D01*
X194385310Y-102428884D01*
X194366882Y-102616000D01*
X193745118Y-102616000D01*
X193726689Y-102428885D01*
X193672109Y-102248961D01*
X193672108Y-102248959D01*
X193583481Y-102083148D01*
X193583476Y-102083142D01*
X193464199Y-101937800D01*
X193318857Y-101818523D01*
X193318851Y-101818518D01*
X193153040Y-101729891D01*
X192973117Y-101675311D01*
X192973115Y-101675310D01*
X192786000Y-101656882D01*
X192598884Y-101675310D01*
X192598882Y-101675311D01*
X192418959Y-101729891D01*
X192253148Y-101818518D01*
X192253142Y-101818523D01*
X192107800Y-101937800D01*
X191988523Y-102083142D01*
X191988518Y-102083148D01*
X191899891Y-102248959D01*
X191845311Y-102428882D01*
X191845310Y-102428884D01*
X191826882Y-102616000D01*
X191205118Y-102616000D01*
X191186689Y-102428885D01*
X191132109Y-102248961D01*
X191132108Y-102248959D01*
X191043481Y-102083148D01*
X191043476Y-102083142D01*
X190924199Y-101937800D01*
X190778857Y-101818523D01*
X190778851Y-101818518D01*
X190613040Y-101729891D01*
X190433117Y-101675311D01*
X190433115Y-101675310D01*
X190246000Y-101656882D01*
X190058884Y-101675310D01*
X190058882Y-101675311D01*
X189878959Y-101729891D01*
X189713148Y-101818518D01*
X189713142Y-101818523D01*
X189567800Y-101937800D01*
X189448523Y-102083142D01*
X189448518Y-102083148D01*
X189359891Y-102248959D01*
X189305311Y-102428882D01*
X189305310Y-102428884D01*
X189286882Y-102616000D01*
X188665118Y-102616000D01*
X188646689Y-102428885D01*
X188592109Y-102248961D01*
X188592108Y-102248959D01*
X188503481Y-102083148D01*
X188503476Y-102083142D01*
X188384199Y-101937800D01*
X188238857Y-101818523D01*
X188238851Y-101818518D01*
X188073040Y-101729891D01*
X187893117Y-101675311D01*
X187893115Y-101675310D01*
X187706000Y-101656882D01*
X187518884Y-101675310D01*
X187518882Y-101675311D01*
X187338959Y-101729891D01*
X187173148Y-101818518D01*
X187173142Y-101818523D01*
X187027800Y-101937800D01*
X186908523Y-102083142D01*
X186908518Y-102083148D01*
X186819891Y-102248959D01*
X186765311Y-102428882D01*
X186765310Y-102428884D01*
X186746882Y-102616000D01*
X186125118Y-102616000D01*
X186106689Y-102428885D01*
X186052109Y-102248961D01*
X186052108Y-102248959D01*
X185963481Y-102083148D01*
X185963476Y-102083142D01*
X185844199Y-101937800D01*
X185698857Y-101818523D01*
X185698851Y-101818518D01*
X185533040Y-101729891D01*
X185353117Y-101675311D01*
X185353115Y-101675310D01*
X185166000Y-101656882D01*
X184978884Y-101675310D01*
X184978882Y-101675311D01*
X184798959Y-101729891D01*
X184633148Y-101818518D01*
X184633142Y-101818523D01*
X184487800Y-101937800D01*
X184368523Y-102083142D01*
X184368518Y-102083148D01*
X184279891Y-102248959D01*
X184225311Y-102428882D01*
X184225310Y-102428884D01*
X184206882Y-102616000D01*
X183585118Y-102616000D01*
X183566689Y-102428885D01*
X183512109Y-102248961D01*
X183512108Y-102248959D01*
X183423481Y-102083148D01*
X183423476Y-102083142D01*
X183304199Y-101937800D01*
X183158857Y-101818523D01*
X183158851Y-101818518D01*
X182993040Y-101729891D01*
X182813117Y-101675311D01*
X182813115Y-101675310D01*
X182626000Y-101656882D01*
X182438884Y-101675310D01*
X182438882Y-101675311D01*
X182258959Y-101729891D01*
X182093148Y-101818518D01*
X182093142Y-101818523D01*
X181947800Y-101937800D01*
X181828523Y-102083142D01*
X181828518Y-102083148D01*
X181739891Y-102248959D01*
X181685311Y-102428882D01*
X181685310Y-102428884D01*
X181666882Y-102616000D01*
X181045118Y-102616000D01*
X181026689Y-102428885D01*
X180972109Y-102248961D01*
X180972108Y-102248959D01*
X180883481Y-102083148D01*
X180883476Y-102083142D01*
X180764199Y-101937800D01*
X180618857Y-101818523D01*
X180618851Y-101818518D01*
X180453040Y-101729891D01*
X180273117Y-101675311D01*
X180273115Y-101675310D01*
X180086000Y-101656882D01*
X179898884Y-101675310D01*
X179898882Y-101675311D01*
X179718959Y-101729891D01*
X179553148Y-101818518D01*
X179553142Y-101818523D01*
X179407800Y-101937800D01*
X179288523Y-102083142D01*
X179288518Y-102083148D01*
X179199891Y-102248959D01*
X179145311Y-102428882D01*
X179145310Y-102428884D01*
X179126882Y-102616000D01*
X178505118Y-102616000D01*
X178486689Y-102428885D01*
X178432109Y-102248961D01*
X178432108Y-102248959D01*
X178343481Y-102083148D01*
X178343476Y-102083142D01*
X178224199Y-101937800D01*
X178078857Y-101818523D01*
X178078851Y-101818518D01*
X177913040Y-101729891D01*
X177733117Y-101675311D01*
X177733115Y-101675310D01*
X177546000Y-101656882D01*
X177358884Y-101675310D01*
X177358882Y-101675311D01*
X177178959Y-101729891D01*
X177013148Y-101818518D01*
X177013142Y-101818523D01*
X176867800Y-101937800D01*
X176748523Y-102083142D01*
X176748518Y-102083148D01*
X176659891Y-102248959D01*
X176605311Y-102428882D01*
X176605310Y-102428884D01*
X176586882Y-102616000D01*
X175965118Y-102616000D01*
X175946689Y-102428885D01*
X175892109Y-102248961D01*
X175892108Y-102248959D01*
X175803481Y-102083148D01*
X175803476Y-102083142D01*
X175684199Y-101937800D01*
X175538857Y-101818523D01*
X175538851Y-101818518D01*
X175373040Y-101729891D01*
X175193117Y-101675311D01*
X175193115Y-101675310D01*
X175006000Y-101656882D01*
X174818884Y-101675310D01*
X174818882Y-101675311D01*
X174638959Y-101729891D01*
X174473148Y-101818518D01*
X174473142Y-101818523D01*
X174327800Y-101937800D01*
X174208523Y-102083142D01*
X174208518Y-102083148D01*
X174119891Y-102248959D01*
X174065311Y-102428882D01*
X174065310Y-102428884D01*
X174046882Y-102616000D01*
X173425118Y-102616000D01*
X173406689Y-102428885D01*
X173352109Y-102248961D01*
X173352108Y-102248959D01*
X173263481Y-102083148D01*
X173263476Y-102083142D01*
X173144199Y-101937800D01*
X172998857Y-101818523D01*
X172998851Y-101818518D01*
X172833040Y-101729891D01*
X172653117Y-101675311D01*
X172653115Y-101675310D01*
X172466000Y-101656882D01*
X172278884Y-101675310D01*
X172278882Y-101675311D01*
X172098959Y-101729891D01*
X171933148Y-101818518D01*
X171933142Y-101818523D01*
X171787800Y-101937800D01*
X171668523Y-102083142D01*
X171668518Y-102083148D01*
X171579891Y-102248959D01*
X171525311Y-102428882D01*
X171525310Y-102428884D01*
X171506882Y-102616000D01*
X170885118Y-102616000D01*
X170866689Y-102428885D01*
X170812109Y-102248961D01*
X170812108Y-102248959D01*
X170723481Y-102083148D01*
X170723476Y-102083142D01*
X170604199Y-101937800D01*
X170458857Y-101818523D01*
X170458851Y-101818518D01*
X170293040Y-101729891D01*
X170113117Y-101675311D01*
X170113115Y-101675310D01*
X169926000Y-101656882D01*
X169738884Y-101675310D01*
X169738882Y-101675311D01*
X169558959Y-101729891D01*
X169393148Y-101818518D01*
X169393142Y-101818523D01*
X169247800Y-101937800D01*
X169128523Y-102083142D01*
X169128518Y-102083148D01*
X169039891Y-102248959D01*
X168985311Y-102428882D01*
X168985310Y-102428884D01*
X168966882Y-102616000D01*
X168345118Y-102616000D01*
X168326689Y-102428885D01*
X168272109Y-102248961D01*
X168272108Y-102248959D01*
X168183481Y-102083148D01*
X168183476Y-102083142D01*
X168064199Y-101937800D01*
X167918857Y-101818523D01*
X167918851Y-101818518D01*
X167753040Y-101729891D01*
X167573117Y-101675311D01*
X167573115Y-101675310D01*
X167386000Y-101656882D01*
X167198884Y-101675310D01*
X167198882Y-101675311D01*
X167018959Y-101729891D01*
X166853148Y-101818518D01*
X166853142Y-101818523D01*
X166707800Y-101937800D01*
X166588523Y-102083142D01*
X166588518Y-102083148D01*
X166499891Y-102248959D01*
X166445311Y-102428882D01*
X166445310Y-102428884D01*
X166426882Y-102616000D01*
X165805118Y-102616000D01*
X165786689Y-102428885D01*
X165732109Y-102248961D01*
X165732108Y-102248959D01*
X165643481Y-102083148D01*
X165643476Y-102083142D01*
X165524199Y-101937800D01*
X165378857Y-101818523D01*
X165378851Y-101818518D01*
X165213040Y-101729891D01*
X165033117Y-101675311D01*
X165033115Y-101675310D01*
X164846000Y-101656882D01*
X164658884Y-101675310D01*
X164658882Y-101675311D01*
X164478959Y-101729891D01*
X164313148Y-101818518D01*
X164313142Y-101818523D01*
X164167800Y-101937800D01*
X164048523Y-102083142D01*
X164048518Y-102083148D01*
X163959891Y-102248959D01*
X163905311Y-102428882D01*
X163905310Y-102428884D01*
X163886882Y-102616000D01*
X163265118Y-102616000D01*
X163246689Y-102428885D01*
X163192109Y-102248961D01*
X163192108Y-102248959D01*
X163103481Y-102083148D01*
X163103476Y-102083142D01*
X162984199Y-101937800D01*
X162838857Y-101818523D01*
X162838851Y-101818518D01*
X162673040Y-101729891D01*
X162493117Y-101675311D01*
X162493115Y-101675310D01*
X162306000Y-101656882D01*
X162118884Y-101675310D01*
X162118882Y-101675311D01*
X161938959Y-101729891D01*
X161773148Y-101818518D01*
X161773142Y-101818523D01*
X161627800Y-101937800D01*
X161508523Y-102083142D01*
X161508518Y-102083148D01*
X161419891Y-102248959D01*
X161365311Y-102428882D01*
X161365310Y-102428884D01*
X161346882Y-102616000D01*
X127508500Y-102616000D01*
X127508500Y-95434436D01*
X136963800Y-95434436D01*
X137004018Y-95701267D01*
X137004020Y-95701273D01*
X137083562Y-95959141D01*
X137200646Y-96202269D01*
X137200648Y-96202271D01*
X137200649Y-96202274D01*
X137330325Y-96392474D01*
X137352665Y-96425241D01*
X137536210Y-96623057D01*
X137536214Y-96623060D01*
X137536215Y-96623061D01*
X137747198Y-96791315D01*
X137980902Y-96926243D01*
X138232105Y-97024834D01*
X138495197Y-97084883D01*
X138533057Y-97087720D01*
X138696902Y-97099999D01*
X138696921Y-97099999D01*
X138696924Y-97100000D01*
X138696926Y-97100000D01*
X140931674Y-97100000D01*
X140931676Y-97100000D01*
X140931678Y-97099999D01*
X140931697Y-97099999D01*
X141076612Y-97089138D01*
X141133403Y-97084883D01*
X141396495Y-97024834D01*
X141647698Y-96926243D01*
X141881402Y-96791315D01*
X142092385Y-96623061D01*
X142275935Y-96425241D01*
X142427951Y-96202275D01*
X142545038Y-95959141D01*
X142624580Y-95701272D01*
X142664799Y-95434436D01*
X146615800Y-95434436D01*
X146656018Y-95701267D01*
X146656020Y-95701273D01*
X146735562Y-95959141D01*
X146852646Y-96202269D01*
X146852648Y-96202271D01*
X146852649Y-96202274D01*
X146982325Y-96392474D01*
X147004665Y-96425241D01*
X147188210Y-96623057D01*
X147188214Y-96623060D01*
X147188215Y-96623061D01*
X147399198Y-96791315D01*
X147632902Y-96926243D01*
X147884105Y-97024834D01*
X148147197Y-97084883D01*
X148185057Y-97087720D01*
X148348902Y-97099999D01*
X148348921Y-97099999D01*
X148348924Y-97100000D01*
X148348926Y-97100000D01*
X150583674Y-97100000D01*
X150583676Y-97100000D01*
X150583678Y-97099999D01*
X150583697Y-97099999D01*
X150728612Y-97089138D01*
X150785403Y-97084883D01*
X151034628Y-97027999D01*
X211742815Y-97027999D01*
X211761503Y-97205805D01*
X211761504Y-97205807D01*
X211816747Y-97375829D01*
X211816750Y-97375835D01*
X211906141Y-97530665D01*
X211947812Y-97576946D01*
X212025764Y-97663521D01*
X212025767Y-97663523D01*
X212025770Y-97663526D01*
X212170407Y-97768612D01*
X212333733Y-97841329D01*
X212508609Y-97878500D01*
X212508610Y-97878500D01*
X212687389Y-97878500D01*
X212687391Y-97878500D01*
X212862267Y-97841329D01*
X213025593Y-97768612D01*
X213170230Y-97663526D01*
X213289859Y-97530665D01*
X213379250Y-97375835D01*
X213434497Y-97205803D01*
X213453185Y-97028000D01*
X213453185Y-97027999D01*
X214282815Y-97027999D01*
X214301503Y-97205805D01*
X214301504Y-97205807D01*
X214356747Y-97375829D01*
X214356750Y-97375835D01*
X214446141Y-97530665D01*
X214487812Y-97576946D01*
X214565764Y-97663521D01*
X214565767Y-97663523D01*
X214565770Y-97663526D01*
X214710407Y-97768612D01*
X214873733Y-97841329D01*
X215048609Y-97878500D01*
X215048610Y-97878500D01*
X215227389Y-97878500D01*
X215227391Y-97878500D01*
X215402267Y-97841329D01*
X215565593Y-97768612D01*
X215710230Y-97663526D01*
X215829859Y-97530665D01*
X215919250Y-97375835D01*
X215974497Y-97205803D01*
X215993185Y-97028000D01*
X215993185Y-97027999D01*
X216822815Y-97027999D01*
X216841503Y-97205805D01*
X216841504Y-97205807D01*
X216896747Y-97375829D01*
X216896750Y-97375835D01*
X216986141Y-97530665D01*
X217027812Y-97576946D01*
X217105764Y-97663521D01*
X217105767Y-97663523D01*
X217105770Y-97663526D01*
X217250407Y-97768612D01*
X217413733Y-97841329D01*
X217588609Y-97878500D01*
X217588610Y-97878500D01*
X217767389Y-97878500D01*
X217767391Y-97878500D01*
X217942267Y-97841329D01*
X218105593Y-97768612D01*
X218250230Y-97663526D01*
X218369859Y-97530665D01*
X218459250Y-97375835D01*
X218514497Y-97205803D01*
X218533185Y-97028000D01*
X218514497Y-96850197D01*
X218459250Y-96680165D01*
X218369859Y-96525335D01*
X218279734Y-96425241D01*
X218250235Y-96392478D01*
X218250232Y-96392476D01*
X218250231Y-96392475D01*
X218250230Y-96392474D01*
X218105593Y-96287388D01*
X217942267Y-96214671D01*
X217942265Y-96214670D01*
X217814594Y-96187533D01*
X217767391Y-96177500D01*
X217588609Y-96177500D01*
X217557954Y-96184015D01*
X217413733Y-96214670D01*
X217413728Y-96214672D01*
X217250408Y-96287387D01*
X217105768Y-96392475D01*
X216986140Y-96525336D01*
X216896750Y-96680164D01*
X216896747Y-96680170D01*
X216841504Y-96850192D01*
X216841503Y-96850194D01*
X216822815Y-97027999D01*
X215993185Y-97027999D01*
X215974497Y-96850197D01*
X215919250Y-96680165D01*
X215829859Y-96525335D01*
X215739734Y-96425241D01*
X215710235Y-96392478D01*
X215710232Y-96392476D01*
X215710231Y-96392475D01*
X215710230Y-96392474D01*
X215565593Y-96287388D01*
X215402267Y-96214671D01*
X215402265Y-96214670D01*
X215274594Y-96187533D01*
X215227391Y-96177500D01*
X215048609Y-96177500D01*
X215017954Y-96184015D01*
X214873733Y-96214670D01*
X214873728Y-96214672D01*
X214710408Y-96287387D01*
X214565768Y-96392475D01*
X214446140Y-96525336D01*
X214356750Y-96680164D01*
X214356747Y-96680170D01*
X214301504Y-96850192D01*
X214301503Y-96850194D01*
X214282815Y-97027999D01*
X213453185Y-97027999D01*
X213434497Y-96850197D01*
X213379250Y-96680165D01*
X213289859Y-96525335D01*
X213199734Y-96425241D01*
X213170235Y-96392478D01*
X213170232Y-96392476D01*
X213170231Y-96392475D01*
X213170230Y-96392474D01*
X213025593Y-96287388D01*
X212862267Y-96214671D01*
X212862265Y-96214670D01*
X212734594Y-96187533D01*
X212687391Y-96177500D01*
X212508609Y-96177500D01*
X212477954Y-96184015D01*
X212333733Y-96214670D01*
X212333728Y-96214672D01*
X212170408Y-96287387D01*
X212025768Y-96392475D01*
X211906140Y-96525336D01*
X211816750Y-96680164D01*
X211816747Y-96680170D01*
X211761504Y-96850192D01*
X211761503Y-96850194D01*
X211742815Y-97027999D01*
X151034628Y-97027999D01*
X151048495Y-97024834D01*
X151299698Y-96926243D01*
X151533402Y-96791315D01*
X151744385Y-96623061D01*
X151927935Y-96425241D01*
X152079951Y-96202275D01*
X152197038Y-95959141D01*
X152276580Y-95701272D01*
X152316800Y-95434429D01*
X152316800Y-95164571D01*
X152316799Y-95164563D01*
X152276581Y-94897732D01*
X152276579Y-94897726D01*
X152197038Y-94639859D01*
X152123906Y-94487999D01*
X210472815Y-94487999D01*
X210491503Y-94665805D01*
X210491504Y-94665807D01*
X210546747Y-94835829D01*
X210546750Y-94835835D01*
X210636141Y-94990665D01*
X210677812Y-95036946D01*
X210755764Y-95123521D01*
X210755767Y-95123523D01*
X210755770Y-95123526D01*
X210900407Y-95228612D01*
X211063733Y-95301329D01*
X211238609Y-95338500D01*
X211238610Y-95338500D01*
X211417389Y-95338500D01*
X211417391Y-95338500D01*
X211592267Y-95301329D01*
X211755593Y-95228612D01*
X211900230Y-95123526D01*
X212019859Y-94990665D01*
X212109250Y-94835835D01*
X212164497Y-94665803D01*
X212183185Y-94488000D01*
X212183185Y-94487999D01*
X213012815Y-94487999D01*
X213031503Y-94665805D01*
X213031504Y-94665807D01*
X213086747Y-94835829D01*
X213086750Y-94835835D01*
X213176141Y-94990665D01*
X213217812Y-95036946D01*
X213295764Y-95123521D01*
X213295767Y-95123523D01*
X213295770Y-95123526D01*
X213440407Y-95228612D01*
X213603733Y-95301329D01*
X213778609Y-95338500D01*
X213778610Y-95338500D01*
X213957389Y-95338500D01*
X213957391Y-95338500D01*
X214132267Y-95301329D01*
X214295593Y-95228612D01*
X214440230Y-95123526D01*
X214559859Y-94990665D01*
X214649250Y-94835835D01*
X214704497Y-94665803D01*
X214723185Y-94488000D01*
X214723185Y-94487999D01*
X215552815Y-94487999D01*
X215571503Y-94665805D01*
X215571504Y-94665807D01*
X215626747Y-94835829D01*
X215626750Y-94835835D01*
X215716141Y-94990665D01*
X215757812Y-95036946D01*
X215835764Y-95123521D01*
X215835767Y-95123523D01*
X215835770Y-95123526D01*
X215980407Y-95228612D01*
X216143733Y-95301329D01*
X216318609Y-95338500D01*
X216318610Y-95338500D01*
X216497389Y-95338500D01*
X216497391Y-95338500D01*
X216672267Y-95301329D01*
X216835593Y-95228612D01*
X216980230Y-95123526D01*
X217099859Y-94990665D01*
X217189250Y-94835835D01*
X217244497Y-94665803D01*
X217263185Y-94488000D01*
X217263185Y-94487999D01*
X218092815Y-94487999D01*
X218111503Y-94665805D01*
X218111504Y-94665807D01*
X218166747Y-94835829D01*
X218166750Y-94835835D01*
X218256141Y-94990665D01*
X218297812Y-95036946D01*
X218375764Y-95123521D01*
X218375767Y-95123523D01*
X218375770Y-95123526D01*
X218520407Y-95228612D01*
X218683733Y-95301329D01*
X218858609Y-95338500D01*
X218858610Y-95338500D01*
X219037389Y-95338500D01*
X219037391Y-95338500D01*
X219212267Y-95301329D01*
X219375593Y-95228612D01*
X219520230Y-95123526D01*
X219639859Y-94990665D01*
X219729250Y-94835835D01*
X219784497Y-94665803D01*
X219803185Y-94488000D01*
X219784497Y-94310197D01*
X219756873Y-94225181D01*
X219729252Y-94140170D01*
X219729249Y-94140164D01*
X219639859Y-93985335D01*
X219593003Y-93933296D01*
X219520235Y-93852478D01*
X219520232Y-93852476D01*
X219520231Y-93852475D01*
X219520230Y-93852474D01*
X219375593Y-93747388D01*
X219212267Y-93674671D01*
X219212265Y-93674670D01*
X219084594Y-93647533D01*
X219037391Y-93637500D01*
X218858609Y-93637500D01*
X218827954Y-93644015D01*
X218683733Y-93674670D01*
X218683728Y-93674672D01*
X218520408Y-93747387D01*
X218375768Y-93852475D01*
X218256140Y-93985336D01*
X218166750Y-94140164D01*
X218166747Y-94140170D01*
X218111504Y-94310192D01*
X218111503Y-94310194D01*
X218092815Y-94487999D01*
X217263185Y-94487999D01*
X217244497Y-94310197D01*
X217216873Y-94225181D01*
X217189252Y-94140170D01*
X217189249Y-94140164D01*
X217099859Y-93985335D01*
X217053003Y-93933296D01*
X216980235Y-93852478D01*
X216980232Y-93852476D01*
X216980231Y-93852475D01*
X216980230Y-93852474D01*
X216835593Y-93747388D01*
X216672267Y-93674671D01*
X216672265Y-93674670D01*
X216544594Y-93647533D01*
X216497391Y-93637500D01*
X216318609Y-93637500D01*
X216287954Y-93644015D01*
X216143733Y-93674670D01*
X216143728Y-93674672D01*
X215980408Y-93747387D01*
X215835768Y-93852475D01*
X215716140Y-93985336D01*
X215626750Y-94140164D01*
X215626747Y-94140170D01*
X215571504Y-94310192D01*
X215571503Y-94310194D01*
X215552815Y-94487999D01*
X214723185Y-94487999D01*
X214704497Y-94310197D01*
X214676873Y-94225181D01*
X214649252Y-94140170D01*
X214649249Y-94140164D01*
X214559859Y-93985335D01*
X214513003Y-93933296D01*
X214440235Y-93852478D01*
X214440232Y-93852476D01*
X214440231Y-93852475D01*
X214440230Y-93852474D01*
X214295593Y-93747388D01*
X214132267Y-93674671D01*
X214132265Y-93674670D01*
X214004594Y-93647533D01*
X213957391Y-93637500D01*
X213778609Y-93637500D01*
X213747954Y-93644015D01*
X213603733Y-93674670D01*
X213603728Y-93674672D01*
X213440408Y-93747387D01*
X213295768Y-93852475D01*
X213176140Y-93985336D01*
X213086750Y-94140164D01*
X213086747Y-94140170D01*
X213031504Y-94310192D01*
X213031503Y-94310194D01*
X213012815Y-94487999D01*
X212183185Y-94487999D01*
X212164497Y-94310197D01*
X212136873Y-94225181D01*
X212109252Y-94140170D01*
X212109249Y-94140164D01*
X212019859Y-93985335D01*
X211973003Y-93933296D01*
X211900235Y-93852478D01*
X211900232Y-93852476D01*
X211900231Y-93852475D01*
X211900230Y-93852474D01*
X211755593Y-93747388D01*
X211592267Y-93674671D01*
X211592265Y-93674670D01*
X211464594Y-93647533D01*
X211417391Y-93637500D01*
X211238609Y-93637500D01*
X211207954Y-93644015D01*
X211063733Y-93674670D01*
X211063728Y-93674672D01*
X210900408Y-93747387D01*
X210755768Y-93852475D01*
X210636140Y-93985336D01*
X210546750Y-94140164D01*
X210546747Y-94140170D01*
X210491504Y-94310192D01*
X210491503Y-94310194D01*
X210472815Y-94487999D01*
X152123906Y-94487999D01*
X152079951Y-94396726D01*
X151927935Y-94173759D01*
X151896764Y-94140165D01*
X151744389Y-93975942D01*
X151589570Y-93852478D01*
X151533402Y-93807685D01*
X151303013Y-93674671D01*
X151299700Y-93672758D01*
X151299696Y-93672756D01*
X151048495Y-93574166D01*
X151048488Y-93574164D01*
X150785400Y-93514116D01*
X150583697Y-93499000D01*
X150583676Y-93499000D01*
X148348924Y-93499000D01*
X148348902Y-93499000D01*
X148147199Y-93514116D01*
X147884111Y-93574164D01*
X147884104Y-93574166D01*
X147632903Y-93672756D01*
X147632899Y-93672758D01*
X147399198Y-93807685D01*
X147188210Y-93975942D01*
X147004665Y-94173758D01*
X146852645Y-94396731D01*
X146852644Y-94396732D01*
X146735563Y-94639855D01*
X146656020Y-94897726D01*
X146656018Y-94897732D01*
X146615800Y-95164563D01*
X146615800Y-95434436D01*
X142664799Y-95434436D01*
X142664800Y-95434429D01*
X142664800Y-95164571D01*
X142664799Y-95164563D01*
X142624581Y-94897732D01*
X142624579Y-94897726D01*
X142545038Y-94639859D01*
X142427951Y-94396726D01*
X142275935Y-94173759D01*
X142244764Y-94140165D01*
X142092389Y-93975942D01*
X141937570Y-93852478D01*
X141881402Y-93807685D01*
X141651013Y-93674671D01*
X141647700Y-93672758D01*
X141647696Y-93672756D01*
X141396495Y-93574166D01*
X141396488Y-93574164D01*
X141133400Y-93514116D01*
X140931697Y-93499000D01*
X140931676Y-93499000D01*
X138696924Y-93499000D01*
X138696902Y-93499000D01*
X138495199Y-93514116D01*
X138232111Y-93574164D01*
X138232104Y-93574166D01*
X137980903Y-93672756D01*
X137980899Y-93672758D01*
X137747198Y-93807685D01*
X137536210Y-93975942D01*
X137352665Y-94173758D01*
X137200645Y-94396731D01*
X137200644Y-94396732D01*
X137083563Y-94639855D01*
X137004020Y-94897726D01*
X137004018Y-94897732D01*
X136963800Y-95164563D01*
X136963800Y-95434436D01*
X127508500Y-95434436D01*
X127508500Y-90296999D01*
X177748359Y-90296999D01*
X177768872Y-90505284D01*
X177829629Y-90705571D01*
X177928291Y-90890153D01*
X178061063Y-91051936D01*
X178222846Y-91184708D01*
X178222850Y-91184711D01*
X178407431Y-91283372D01*
X178607714Y-91344127D01*
X178816000Y-91364641D01*
X179024286Y-91344127D01*
X179224569Y-91283372D01*
X179409150Y-91184711D01*
X179570936Y-91051936D01*
X179703711Y-90890150D01*
X179802372Y-90705569D01*
X179863127Y-90505286D01*
X179883641Y-90297000D01*
X180288359Y-90297000D01*
X180308872Y-90505284D01*
X180369629Y-90705571D01*
X180468291Y-90890153D01*
X180601063Y-91051936D01*
X180762846Y-91184708D01*
X180762850Y-91184711D01*
X180947431Y-91283372D01*
X181147714Y-91344127D01*
X181356000Y-91364641D01*
X181564286Y-91344127D01*
X181764569Y-91283372D01*
X181949150Y-91184711D01*
X182110936Y-91051936D01*
X182243711Y-90890150D01*
X182342372Y-90705569D01*
X182403127Y-90505286D01*
X182423641Y-90297000D01*
X182828359Y-90297000D01*
X182848872Y-90505284D01*
X182909629Y-90705571D01*
X183008291Y-90890153D01*
X183141063Y-91051936D01*
X183302846Y-91184708D01*
X183302850Y-91184711D01*
X183487431Y-91283372D01*
X183687714Y-91344127D01*
X183896000Y-91364641D01*
X184104286Y-91344127D01*
X184304569Y-91283372D01*
X184489150Y-91184711D01*
X184650936Y-91051936D01*
X184783711Y-90890150D01*
X184882372Y-90705569D01*
X184943127Y-90505286D01*
X184963641Y-90297000D01*
X184963641Y-90296999D01*
X190448359Y-90296999D01*
X190468872Y-90505284D01*
X190529629Y-90705571D01*
X190628291Y-90890153D01*
X190761063Y-91051936D01*
X190922846Y-91184708D01*
X190922850Y-91184711D01*
X191107431Y-91283372D01*
X191307714Y-91344127D01*
X191516000Y-91364641D01*
X191724286Y-91344127D01*
X191924569Y-91283372D01*
X192109150Y-91184711D01*
X192270936Y-91051936D01*
X192403711Y-90890150D01*
X192502372Y-90705569D01*
X192563127Y-90505286D01*
X192583641Y-90297000D01*
X192583641Y-90296999D01*
X195528359Y-90296999D01*
X195548872Y-90505284D01*
X195609629Y-90705571D01*
X195708291Y-90890153D01*
X195841063Y-91051936D01*
X196002846Y-91184708D01*
X196002850Y-91184711D01*
X196187431Y-91283372D01*
X196387714Y-91344127D01*
X196596000Y-91364641D01*
X196804286Y-91344127D01*
X197004569Y-91283372D01*
X197189150Y-91184711D01*
X197350936Y-91051936D01*
X197483711Y-90890150D01*
X197582372Y-90705569D01*
X197643127Y-90505286D01*
X197663641Y-90297000D01*
X197663641Y-90296999D01*
X198068359Y-90296999D01*
X198088872Y-90505284D01*
X198149629Y-90705571D01*
X198248291Y-90890153D01*
X198381063Y-91051936D01*
X198542846Y-91184708D01*
X198542850Y-91184711D01*
X198727431Y-91283372D01*
X198927714Y-91344127D01*
X199136000Y-91364641D01*
X199344286Y-91344127D01*
X199544569Y-91283372D01*
X199729150Y-91184711D01*
X199890936Y-91051936D01*
X200023711Y-90890150D01*
X200122372Y-90705569D01*
X200183127Y-90505286D01*
X200203641Y-90297000D01*
X200183127Y-90088714D01*
X200122372Y-89888431D01*
X200023711Y-89703850D01*
X200023708Y-89703846D01*
X199890936Y-89542063D01*
X199729153Y-89409291D01*
X199729151Y-89409290D01*
X199729150Y-89409289D01*
X199544569Y-89310628D01*
X199444427Y-89280250D01*
X199344284Y-89249872D01*
X199136000Y-89229359D01*
X198927715Y-89249872D01*
X198727428Y-89310629D01*
X198542846Y-89409291D01*
X198381063Y-89542063D01*
X198248291Y-89703846D01*
X198149629Y-89888428D01*
X198088872Y-90088715D01*
X198068359Y-90296999D01*
X197663641Y-90296999D01*
X197643127Y-90088714D01*
X197582372Y-89888431D01*
X197483711Y-89703850D01*
X197483708Y-89703846D01*
X197350936Y-89542063D01*
X197189153Y-89409291D01*
X197189151Y-89409290D01*
X197189150Y-89409289D01*
X197004569Y-89310628D01*
X196904427Y-89280250D01*
X196804284Y-89249872D01*
X196596000Y-89229359D01*
X196387715Y-89249872D01*
X196187428Y-89310629D01*
X196002846Y-89409291D01*
X195841063Y-89542063D01*
X195708291Y-89703846D01*
X195609629Y-89888428D01*
X195548872Y-90088715D01*
X195528359Y-90296999D01*
X192583641Y-90296999D01*
X192563127Y-90088714D01*
X192502372Y-89888431D01*
X192403711Y-89703850D01*
X192403708Y-89703846D01*
X192270936Y-89542063D01*
X192109153Y-89409291D01*
X192109151Y-89409290D01*
X192109150Y-89409289D01*
X191924569Y-89310628D01*
X191824427Y-89280250D01*
X191724284Y-89249872D01*
X191516000Y-89229359D01*
X191307715Y-89249872D01*
X191107428Y-89310629D01*
X190922846Y-89409291D01*
X190761063Y-89542063D01*
X190628291Y-89703846D01*
X190529629Y-89888428D01*
X190468872Y-90088715D01*
X190448359Y-90296999D01*
X184963641Y-90296999D01*
X184943127Y-90088714D01*
X184882372Y-89888431D01*
X184783711Y-89703850D01*
X184783708Y-89703846D01*
X184650936Y-89542063D01*
X184489153Y-89409291D01*
X184489151Y-89409290D01*
X184489150Y-89409289D01*
X184304569Y-89310628D01*
X184204427Y-89280250D01*
X184104284Y-89249872D01*
X183896000Y-89229359D01*
X183687715Y-89249872D01*
X183487428Y-89310629D01*
X183302846Y-89409291D01*
X183141063Y-89542063D01*
X183008291Y-89703846D01*
X182909629Y-89888428D01*
X182848872Y-90088715D01*
X182828359Y-90297000D01*
X182423641Y-90297000D01*
X182403127Y-90088714D01*
X182342372Y-89888431D01*
X182243711Y-89703850D01*
X182243708Y-89703846D01*
X182110936Y-89542063D01*
X181949153Y-89409291D01*
X181949151Y-89409290D01*
X181949150Y-89409289D01*
X181764569Y-89310628D01*
X181664427Y-89280250D01*
X181564284Y-89249872D01*
X181356000Y-89229359D01*
X181147715Y-89249872D01*
X180947428Y-89310629D01*
X180762846Y-89409291D01*
X180601063Y-89542063D01*
X180468291Y-89703846D01*
X180369629Y-89888428D01*
X180308872Y-90088715D01*
X180288359Y-90297000D01*
X179883641Y-90297000D01*
X179863127Y-90088714D01*
X179802372Y-89888431D01*
X179703711Y-89703850D01*
X179703708Y-89703846D01*
X179570936Y-89542063D01*
X179409153Y-89409291D01*
X179409151Y-89409290D01*
X179409150Y-89409289D01*
X179224569Y-89310628D01*
X179124427Y-89280250D01*
X179024284Y-89249872D01*
X178816000Y-89229359D01*
X178607715Y-89249872D01*
X178407428Y-89310629D01*
X178222846Y-89409291D01*
X178061063Y-89542063D01*
X177928291Y-89703846D01*
X177829629Y-89888428D01*
X177768872Y-90088715D01*
X177748359Y-90296999D01*
X127508500Y-90296999D01*
X127508500Y-88899999D01*
X156031359Y-88899999D01*
X156051872Y-89108284D01*
X156051873Y-89108286D01*
X156107211Y-89290713D01*
X156112629Y-89308571D01*
X156211291Y-89493153D01*
X156344063Y-89654936D01*
X156482062Y-89768189D01*
X156505850Y-89787711D01*
X156690431Y-89886372D01*
X156890714Y-89947127D01*
X157099000Y-89967641D01*
X157307286Y-89947127D01*
X157507569Y-89886372D01*
X157692150Y-89787711D01*
X157853936Y-89654936D01*
X157986711Y-89493150D01*
X158085372Y-89308569D01*
X158146127Y-89108286D01*
X158166641Y-88900000D01*
X158146127Y-88691714D01*
X158085372Y-88491431D01*
X157986711Y-88306850D01*
X157986708Y-88306846D01*
X157853936Y-88145063D01*
X157845328Y-88137999D01*
X206482564Y-88137999D01*
X206502287Y-88438918D01*
X206502288Y-88438930D01*
X206561118Y-88734683D01*
X206561122Y-88734698D01*
X206658053Y-89020247D01*
X206658062Y-89020268D01*
X206791431Y-89290713D01*
X206791435Y-89290720D01*
X206958973Y-89541459D01*
X207157810Y-89768189D01*
X207384540Y-89967026D01*
X207635279Y-90134564D01*
X207635286Y-90134568D01*
X207905731Y-90267937D01*
X207905736Y-90267939D01*
X207905748Y-90267945D01*
X208191309Y-90364880D01*
X208391251Y-90404651D01*
X208487069Y-90423711D01*
X208487070Y-90423711D01*
X208487080Y-90423713D01*
X208788000Y-90443436D01*
X209088920Y-90423713D01*
X209384691Y-90364880D01*
X209670252Y-90267945D01*
X209940718Y-90134566D01*
X210191461Y-89967025D01*
X210418189Y-89768189D01*
X210617025Y-89541461D01*
X210784566Y-89290718D01*
X210917945Y-89020252D01*
X211014880Y-88734691D01*
X211073713Y-88438920D01*
X211093436Y-88138000D01*
X217912564Y-88138000D01*
X217932287Y-88438918D01*
X217932288Y-88438930D01*
X217991118Y-88734683D01*
X217991122Y-88734698D01*
X218088053Y-89020247D01*
X218088062Y-89020268D01*
X218221431Y-89290713D01*
X218221435Y-89290720D01*
X218388973Y-89541459D01*
X218587810Y-89768189D01*
X218814540Y-89967026D01*
X219065279Y-90134564D01*
X219065286Y-90134568D01*
X219335731Y-90267937D01*
X219335736Y-90267939D01*
X219335748Y-90267945D01*
X219621309Y-90364880D01*
X219821251Y-90404651D01*
X219917069Y-90423711D01*
X219917070Y-90423711D01*
X219917080Y-90423713D01*
X220218000Y-90443436D01*
X220518920Y-90423713D01*
X220814691Y-90364880D01*
X221100252Y-90267945D01*
X221370718Y-90134566D01*
X221621461Y-89967025D01*
X221848189Y-89768189D01*
X222047025Y-89541461D01*
X222214566Y-89290718D01*
X222347945Y-89020252D01*
X222444880Y-88734691D01*
X222503713Y-88438920D01*
X222523436Y-88138000D01*
X222503713Y-87837080D01*
X222444880Y-87541309D01*
X222347945Y-87255748D01*
X222214566Y-86985282D01*
X222047025Y-86734539D01*
X221848189Y-86507810D01*
X221621459Y-86308973D01*
X221370720Y-86141435D01*
X221370713Y-86141431D01*
X221100268Y-86008062D01*
X221100247Y-86008053D01*
X220814698Y-85911122D01*
X220814692Y-85911120D01*
X220814691Y-85911120D01*
X220814689Y-85911119D01*
X220814683Y-85911118D01*
X220518930Y-85852288D01*
X220518921Y-85852287D01*
X220518920Y-85852287D01*
X220218000Y-85832564D01*
X219917080Y-85852287D01*
X219917079Y-85852287D01*
X219917069Y-85852288D01*
X219621316Y-85911118D01*
X219621301Y-85911122D01*
X219335752Y-86008053D01*
X219335731Y-86008062D01*
X219065286Y-86141431D01*
X219065279Y-86141435D01*
X218814540Y-86308973D01*
X218587810Y-86507810D01*
X218388973Y-86734540D01*
X218221435Y-86985279D01*
X218221431Y-86985286D01*
X218088062Y-87255731D01*
X218088053Y-87255752D01*
X217991122Y-87541301D01*
X217991118Y-87541316D01*
X217932288Y-87837069D01*
X217932287Y-87837081D01*
X217912564Y-88138000D01*
X211093436Y-88138000D01*
X211073713Y-87837080D01*
X211014880Y-87541309D01*
X210917945Y-87255748D01*
X210784566Y-86985282D01*
X210617025Y-86734539D01*
X210418189Y-86507810D01*
X210191459Y-86308973D01*
X209940720Y-86141435D01*
X209940713Y-86141431D01*
X209670268Y-86008062D01*
X209670247Y-86008053D01*
X209384698Y-85911122D01*
X209384692Y-85911120D01*
X209384691Y-85911120D01*
X209384689Y-85911119D01*
X209384683Y-85911118D01*
X209088930Y-85852288D01*
X209088921Y-85852287D01*
X209088920Y-85852287D01*
X208885720Y-85838968D01*
X208820112Y-85814941D01*
X208777909Y-85759258D01*
X208772510Y-85689597D01*
X208805630Y-85628076D01*
X208815161Y-85619384D01*
X208888883Y-85558883D01*
X209013910Y-85406538D01*
X209106814Y-85232727D01*
X209164024Y-85044132D01*
X209183341Y-84848000D01*
X217282659Y-84848000D01*
X217284298Y-84864640D01*
X217301975Y-85044129D01*
X217301976Y-85044132D01*
X217353567Y-85214205D01*
X217359188Y-85232733D01*
X217452086Y-85406532D01*
X217452090Y-85406539D01*
X217577116Y-85558883D01*
X217729460Y-85683909D01*
X217729467Y-85683913D01*
X217903266Y-85776811D01*
X217903269Y-85776811D01*
X217903273Y-85776814D01*
X218091868Y-85834024D01*
X218288000Y-85853341D01*
X218484132Y-85834024D01*
X218672727Y-85776814D01*
X218846538Y-85683910D01*
X218998883Y-85558883D01*
X219123910Y-85406538D01*
X219216814Y-85232727D01*
X219274024Y-85044132D01*
X219293341Y-84848000D01*
X219274024Y-84651868D01*
X219216814Y-84463273D01*
X219216811Y-84463269D01*
X219216811Y-84463266D01*
X219123913Y-84289467D01*
X219123909Y-84289460D01*
X218998883Y-84137116D01*
X218846539Y-84012090D01*
X218846532Y-84012086D01*
X218672733Y-83919188D01*
X218672727Y-83919186D01*
X218484132Y-83861976D01*
X218484129Y-83861975D01*
X218288000Y-83842659D01*
X218091870Y-83861975D01*
X217903266Y-83919188D01*
X217729467Y-84012086D01*
X217729460Y-84012090D01*
X217577116Y-84137116D01*
X217452090Y-84289460D01*
X217452086Y-84289467D01*
X217359188Y-84463266D01*
X217301975Y-84651870D01*
X217289934Y-84774130D01*
X217282659Y-84848000D01*
X209183341Y-84848000D01*
X209164024Y-84651868D01*
X209106814Y-84463273D01*
X209106811Y-84463269D01*
X209106811Y-84463266D01*
X209013913Y-84289467D01*
X209013909Y-84289460D01*
X208888883Y-84137116D01*
X208736539Y-84012090D01*
X208736532Y-84012086D01*
X208562733Y-83919188D01*
X208562727Y-83919186D01*
X208374132Y-83861976D01*
X208374129Y-83861975D01*
X208178000Y-83842659D01*
X207981870Y-83861975D01*
X207793266Y-83919188D01*
X207619467Y-84012086D01*
X207619460Y-84012090D01*
X207467116Y-84137116D01*
X207342090Y-84289460D01*
X207342086Y-84289467D01*
X207249188Y-84463266D01*
X207191975Y-84651870D01*
X207179934Y-84774130D01*
X207172659Y-84848000D01*
X207174298Y-84864640D01*
X207191975Y-85044129D01*
X207191976Y-85044132D01*
X207243567Y-85214205D01*
X207249188Y-85232733D01*
X207342086Y-85406532D01*
X207342090Y-85406539D01*
X207467116Y-85558883D01*
X207619460Y-85683909D01*
X207619467Y-85683913D01*
X207760428Y-85759258D01*
X207793273Y-85776814D01*
X207825080Y-85786462D01*
X207852959Y-85794920D01*
X207911397Y-85833217D01*
X207939854Y-85897029D01*
X207929293Y-85966096D01*
X207883068Y-86018490D01*
X207871807Y-86024792D01*
X207635286Y-86141431D01*
X207635279Y-86141435D01*
X207384540Y-86308973D01*
X207157810Y-86507810D01*
X206958973Y-86734540D01*
X206791435Y-86985279D01*
X206791431Y-86985286D01*
X206658062Y-87255731D01*
X206658053Y-87255752D01*
X206561122Y-87541301D01*
X206561118Y-87541316D01*
X206502288Y-87837069D01*
X206502287Y-87837081D01*
X206482564Y-88137999D01*
X157845328Y-88137999D01*
X157692153Y-88012291D01*
X157692151Y-88012290D01*
X157692150Y-88012289D01*
X157507569Y-87913628D01*
X157407427Y-87883250D01*
X157307284Y-87852872D01*
X157099000Y-87832359D01*
X156890715Y-87852872D01*
X156690428Y-87913629D01*
X156505846Y-88012291D01*
X156344063Y-88145063D01*
X156211291Y-88306846D01*
X156112629Y-88491428D01*
X156051872Y-88691715D01*
X156031359Y-88899999D01*
X127508500Y-88899999D01*
X127508500Y-82407756D01*
X127528185Y-82340717D01*
X127580989Y-82294962D01*
X127650147Y-82285018D01*
X127713703Y-82314043D01*
X127751477Y-82372821D01*
X127751865Y-82374172D01*
X127800530Y-82547137D01*
X127800534Y-82547151D01*
X127945435Y-82916353D01*
X127945440Y-82916365D01*
X128126386Y-83269314D01*
X128126397Y-83269333D01*
X128163734Y-83327141D01*
X128341586Y-83602509D01*
X128588886Y-83912614D01*
X128588895Y-83912625D01*
X128865823Y-84196544D01*
X128865833Y-84196554D01*
X129169676Y-84451508D01*
X129497394Y-84674942D01*
X129845730Y-84864636D01*
X130211223Y-85018704D01*
X130211232Y-85018706D01*
X130211238Y-85018709D01*
X130590235Y-85135614D01*
X130590248Y-85135617D01*
X130978999Y-85214205D01*
X130979014Y-85214208D01*
X131317299Y-85248058D01*
X131373680Y-85253700D01*
X131373681Y-85253700D01*
X131671084Y-85253700D01*
X131671101Y-85253700D01*
X131968145Y-85238875D01*
X132360353Y-85179759D01*
X132744726Y-85081886D01*
X133117445Y-84946228D01*
X133474803Y-84774133D01*
X133813251Y-84567312D01*
X134129424Y-84327820D01*
X134420181Y-84058037D01*
X134630250Y-83820000D01*
X156031359Y-83820000D01*
X156051872Y-84028284D01*
X156051873Y-84028286D01*
X156112628Y-84228569D01*
X156165678Y-84327819D01*
X156211291Y-84413153D01*
X156344063Y-84574936D01*
X156465921Y-84674942D01*
X156505850Y-84707711D01*
X156690431Y-84806372D01*
X156890714Y-84867127D01*
X157099000Y-84887641D01*
X157307286Y-84867127D01*
X157507569Y-84806372D01*
X157692150Y-84707711D01*
X157853936Y-84574936D01*
X157986711Y-84413150D01*
X158085372Y-84228569D01*
X158146127Y-84028286D01*
X158166641Y-83820000D01*
X158146127Y-83611714D01*
X158085372Y-83411431D01*
X157986711Y-83226850D01*
X157986708Y-83226846D01*
X157853936Y-83065063D01*
X157692153Y-82932291D01*
X157692151Y-82932290D01*
X157692150Y-82932289D01*
X157507569Y-82833628D01*
X157407427Y-82803250D01*
X157307284Y-82772872D01*
X157099000Y-82752359D01*
X156890715Y-82772872D01*
X156690428Y-82833629D01*
X156505846Y-82932291D01*
X156344063Y-83065063D01*
X156211291Y-83226846D01*
X156112629Y-83411428D01*
X156051872Y-83611715D01*
X156031359Y-83820000D01*
X134630250Y-83820000D01*
X134682631Y-83760645D01*
X134914166Y-83438600D01*
X135112485Y-83095101D01*
X135275617Y-82733563D01*
X135401941Y-82357578D01*
X135490201Y-81970885D01*
X135529035Y-81661001D01*
X175565454Y-81661001D01*
X175585613Y-81942866D01*
X175634010Y-82165339D01*
X175645680Y-82218984D01*
X175674967Y-82297506D01*
X175744432Y-82483750D01*
X175744434Y-82483754D01*
X175879855Y-82731758D01*
X175879860Y-82731766D01*
X176049196Y-82957974D01*
X176049212Y-82957992D01*
X176249007Y-83157787D01*
X176249025Y-83157803D01*
X176475233Y-83327139D01*
X176475241Y-83327144D01*
X176723245Y-83462565D01*
X176723249Y-83462567D01*
X176723251Y-83462568D01*
X176988016Y-83561320D01*
X177126077Y-83591353D01*
X177264133Y-83621386D01*
X177264135Y-83621386D01*
X177264139Y-83621387D01*
X177475447Y-83636500D01*
X177616553Y-83636500D01*
X177827861Y-83621387D01*
X177850152Y-83616538D01*
X177872327Y-83611714D01*
X178103984Y-83561320D01*
X178368749Y-83462568D01*
X178616764Y-83327141D01*
X178842982Y-83157797D01*
X179042797Y-82957982D01*
X179212141Y-82731764D01*
X179347568Y-82483749D01*
X179446320Y-82218984D01*
X179506387Y-81942861D01*
X179526546Y-81661001D01*
X183185454Y-81661001D01*
X183205613Y-81942866D01*
X183254010Y-82165339D01*
X183265680Y-82218984D01*
X183294967Y-82297506D01*
X183364432Y-82483750D01*
X183364434Y-82483754D01*
X183499855Y-82731758D01*
X183499860Y-82731766D01*
X183669196Y-82957974D01*
X183669212Y-82957992D01*
X183869007Y-83157787D01*
X183869025Y-83157803D01*
X184095233Y-83327139D01*
X184095241Y-83327144D01*
X184343245Y-83462565D01*
X184343249Y-83462567D01*
X184343251Y-83462568D01*
X184608016Y-83561320D01*
X184746077Y-83591353D01*
X184884133Y-83621386D01*
X184884135Y-83621386D01*
X184884139Y-83621387D01*
X185095447Y-83636500D01*
X185236553Y-83636500D01*
X185447861Y-83621387D01*
X185470152Y-83616538D01*
X185492327Y-83611714D01*
X185723984Y-83561320D01*
X185988749Y-83462568D01*
X186236764Y-83327141D01*
X186462982Y-83157797D01*
X186662797Y-82957982D01*
X186832141Y-82731764D01*
X186967568Y-82483749D01*
X187066320Y-82218984D01*
X187126387Y-81942861D01*
X187146546Y-81661001D01*
X188265454Y-81661001D01*
X188285613Y-81942866D01*
X188334010Y-82165339D01*
X188345680Y-82218984D01*
X188374967Y-82297506D01*
X188444432Y-82483750D01*
X188444434Y-82483754D01*
X188579855Y-82731758D01*
X188579860Y-82731766D01*
X188749196Y-82957974D01*
X188749212Y-82957992D01*
X188949007Y-83157787D01*
X188949025Y-83157803D01*
X189175233Y-83327139D01*
X189175241Y-83327144D01*
X189423245Y-83462565D01*
X189423249Y-83462567D01*
X189423251Y-83462568D01*
X189688016Y-83561320D01*
X189826077Y-83591353D01*
X189964133Y-83621386D01*
X189964135Y-83621386D01*
X189964139Y-83621387D01*
X190175447Y-83636500D01*
X190316553Y-83636500D01*
X190527861Y-83621387D01*
X190550152Y-83616538D01*
X190572327Y-83611714D01*
X190803984Y-83561320D01*
X191068749Y-83462568D01*
X191316764Y-83327141D01*
X191542982Y-83157797D01*
X191742797Y-82957982D01*
X191912141Y-82731764D01*
X192047568Y-82483749D01*
X192146320Y-82218984D01*
X192206387Y-81942861D01*
X192226546Y-81661001D01*
X198425453Y-81661001D01*
X198445613Y-81942866D01*
X198494010Y-82165339D01*
X198505680Y-82218984D01*
X198534967Y-82297506D01*
X198604432Y-82483750D01*
X198604434Y-82483754D01*
X198739855Y-82731758D01*
X198739860Y-82731766D01*
X198909196Y-82957974D01*
X198909212Y-82957992D01*
X199109007Y-83157787D01*
X199109025Y-83157803D01*
X199335233Y-83327139D01*
X199335241Y-83327144D01*
X199583245Y-83462565D01*
X199583249Y-83462567D01*
X199583251Y-83462568D01*
X199848016Y-83561320D01*
X199986077Y-83591353D01*
X200124133Y-83621386D01*
X200124135Y-83621386D01*
X200124139Y-83621387D01*
X200335447Y-83636500D01*
X200476553Y-83636500D01*
X200687861Y-83621387D01*
X200710152Y-83616538D01*
X200732327Y-83611714D01*
X200963984Y-83561320D01*
X201228749Y-83462568D01*
X201476764Y-83327141D01*
X201702982Y-83157797D01*
X201802780Y-83057999D01*
X209712659Y-83057999D01*
X209731975Y-83254129D01*
X209731976Y-83254132D01*
X209779692Y-83411431D01*
X209789188Y-83442733D01*
X209882086Y-83616532D01*
X209882090Y-83616539D01*
X210007116Y-83768883D01*
X210159460Y-83893909D01*
X210159467Y-83893913D01*
X210333266Y-83986811D01*
X210333269Y-83986811D01*
X210333273Y-83986814D01*
X210521868Y-84044024D01*
X210718000Y-84063341D01*
X210914132Y-84044024D01*
X211102727Y-83986814D01*
X211276538Y-83893910D01*
X211428883Y-83768883D01*
X211553910Y-83616538D01*
X211636209Y-83462567D01*
X211646811Y-83442733D01*
X211646811Y-83442732D01*
X211646814Y-83442727D01*
X211704024Y-83254132D01*
X211723341Y-83058000D01*
X211704024Y-82861868D01*
X211646814Y-82673273D01*
X211646811Y-82673269D01*
X211646811Y-82673266D01*
X211553913Y-82499467D01*
X211553909Y-82499460D01*
X211428883Y-82347116D01*
X211276539Y-82222090D01*
X211276532Y-82222086D01*
X211102733Y-82129188D01*
X211102727Y-82129186D01*
X210914132Y-82071976D01*
X210914129Y-82071975D01*
X210718000Y-82052659D01*
X210521870Y-82071975D01*
X210333266Y-82129188D01*
X210159467Y-82222086D01*
X210159460Y-82222090D01*
X210007116Y-82347116D01*
X209882090Y-82499460D01*
X209882086Y-82499467D01*
X209789188Y-82673266D01*
X209731975Y-82861870D01*
X209712659Y-83057999D01*
X201802780Y-83057999D01*
X201902797Y-82957982D01*
X202072141Y-82731764D01*
X202207568Y-82483749D01*
X202306320Y-82218984D01*
X202366387Y-81942861D01*
X202386546Y-81661000D01*
X202366387Y-81379139D01*
X202306320Y-81103016D01*
X202207568Y-80838251D01*
X202141831Y-80717864D01*
X202072144Y-80590241D01*
X202072139Y-80590233D01*
X201902803Y-80364025D01*
X201902787Y-80364007D01*
X201702992Y-80164212D01*
X201702974Y-80164196D01*
X201476766Y-79994860D01*
X201476758Y-79994855D01*
X201228754Y-79859434D01*
X201228750Y-79859432D01*
X201128372Y-79821993D01*
X200963984Y-79760680D01*
X200963980Y-79760679D01*
X200963977Y-79760678D01*
X200687866Y-79700613D01*
X200476555Y-79685500D01*
X200476553Y-79685500D01*
X200335447Y-79685500D01*
X200335444Y-79685500D01*
X200124133Y-79700613D01*
X199848022Y-79760678D01*
X199848017Y-79760679D01*
X199848016Y-79760680D01*
X199784003Y-79784555D01*
X199583249Y-79859432D01*
X199583245Y-79859434D01*
X199335241Y-79994855D01*
X199335233Y-79994860D01*
X199109025Y-80164196D01*
X199109007Y-80164212D01*
X198909212Y-80364007D01*
X198909196Y-80364025D01*
X198739860Y-80590233D01*
X198739855Y-80590241D01*
X198604434Y-80838245D01*
X198604432Y-80838249D01*
X198505678Y-81103022D01*
X198445613Y-81379133D01*
X198425453Y-81660998D01*
X198425453Y-81661001D01*
X192226546Y-81661001D01*
X192226546Y-81661000D01*
X192206387Y-81379139D01*
X192146320Y-81103016D01*
X192047568Y-80838251D01*
X191981831Y-80717864D01*
X191912144Y-80590241D01*
X191912139Y-80590233D01*
X191742803Y-80364025D01*
X191742787Y-80364007D01*
X191542992Y-80164212D01*
X191542974Y-80164196D01*
X191316766Y-79994860D01*
X191316758Y-79994855D01*
X191068754Y-79859434D01*
X191068750Y-79859432D01*
X190968372Y-79821993D01*
X190803984Y-79760680D01*
X190803980Y-79760679D01*
X190803977Y-79760678D01*
X190527866Y-79700613D01*
X190316555Y-79685500D01*
X190316553Y-79685500D01*
X190175447Y-79685500D01*
X190175444Y-79685500D01*
X189964133Y-79700613D01*
X189688022Y-79760678D01*
X189688017Y-79760679D01*
X189688016Y-79760680D01*
X189624003Y-79784555D01*
X189423249Y-79859432D01*
X189423245Y-79859434D01*
X189175241Y-79994855D01*
X189175233Y-79994860D01*
X188949025Y-80164196D01*
X188949007Y-80164212D01*
X188749212Y-80364007D01*
X188749196Y-80364025D01*
X188579860Y-80590233D01*
X188579855Y-80590241D01*
X188444434Y-80838245D01*
X188444432Y-80838249D01*
X188345678Y-81103022D01*
X188285613Y-81379133D01*
X188265454Y-81660998D01*
X188265454Y-81661001D01*
X187146546Y-81661001D01*
X187146546Y-81661000D01*
X187126387Y-81379139D01*
X187066320Y-81103016D01*
X186967568Y-80838251D01*
X186901831Y-80717864D01*
X186832144Y-80590241D01*
X186832139Y-80590233D01*
X186662803Y-80364025D01*
X186662787Y-80364007D01*
X186462992Y-80164212D01*
X186462974Y-80164196D01*
X186236766Y-79994860D01*
X186236758Y-79994855D01*
X185988754Y-79859434D01*
X185988750Y-79859432D01*
X185888372Y-79821993D01*
X185723984Y-79760680D01*
X185723980Y-79760679D01*
X185723977Y-79760678D01*
X185447866Y-79700613D01*
X185236555Y-79685500D01*
X185236553Y-79685500D01*
X185095447Y-79685500D01*
X185095444Y-79685500D01*
X184884133Y-79700613D01*
X184608022Y-79760678D01*
X184608017Y-79760679D01*
X184608016Y-79760680D01*
X184544003Y-79784555D01*
X184343249Y-79859432D01*
X184343245Y-79859434D01*
X184095241Y-79994855D01*
X184095233Y-79994860D01*
X183869025Y-80164196D01*
X183869007Y-80164212D01*
X183669212Y-80364007D01*
X183669196Y-80364025D01*
X183499860Y-80590233D01*
X183499855Y-80590241D01*
X183364434Y-80838245D01*
X183364432Y-80838249D01*
X183265678Y-81103022D01*
X183205613Y-81379133D01*
X183185454Y-81660998D01*
X183185454Y-81661001D01*
X179526546Y-81661001D01*
X179526546Y-81661000D01*
X179506387Y-81379139D01*
X179446320Y-81103016D01*
X179347568Y-80838251D01*
X179281831Y-80717864D01*
X179212144Y-80590241D01*
X179212139Y-80590233D01*
X179042803Y-80364025D01*
X179042787Y-80364007D01*
X178842992Y-80164212D01*
X178842974Y-80164196D01*
X178616766Y-79994860D01*
X178616758Y-79994855D01*
X178368754Y-79859434D01*
X178368750Y-79859432D01*
X178268372Y-79821993D01*
X178103984Y-79760680D01*
X178103980Y-79760679D01*
X178103977Y-79760678D01*
X177827866Y-79700613D01*
X177616555Y-79685500D01*
X177616553Y-79685500D01*
X177475447Y-79685500D01*
X177475444Y-79685500D01*
X177264133Y-79700613D01*
X176988022Y-79760678D01*
X176988017Y-79760679D01*
X176988016Y-79760680D01*
X176924003Y-79784555D01*
X176723249Y-79859432D01*
X176723245Y-79859434D01*
X176475241Y-79994855D01*
X176475233Y-79994860D01*
X176249025Y-80164196D01*
X176249007Y-80164212D01*
X176049212Y-80364007D01*
X176049196Y-80364025D01*
X175879860Y-80590233D01*
X175879855Y-80590241D01*
X175744434Y-80838245D01*
X175744432Y-80838249D01*
X175645678Y-81103022D01*
X175585613Y-81379133D01*
X175565454Y-81660998D01*
X175565454Y-81661001D01*
X135529035Y-81661001D01*
X135539521Y-81577325D01*
X135546923Y-81280500D01*
X135549409Y-81180826D01*
X135549409Y-81180810D01*
X135542760Y-81092087D01*
X135519769Y-80785280D01*
X135450893Y-80394668D01*
X135442271Y-80364025D01*
X135343469Y-80012862D01*
X135343465Y-80012848D01*
X135198564Y-79643646D01*
X135198559Y-79643634D01*
X135017613Y-79290685D01*
X135017609Y-79290677D01*
X134802414Y-78957491D01*
X134555114Y-78647386D01*
X134555111Y-78647383D01*
X134555104Y-78647374D01*
X134278176Y-78363455D01*
X134278173Y-78363452D01*
X134278172Y-78363451D01*
X134278167Y-78363446D01*
X133974324Y-78108492D01*
X133869841Y-78037257D01*
X133646605Y-77885057D01*
X133530493Y-77821826D01*
X133298270Y-77695364D01*
X133298262Y-77695360D01*
X133298259Y-77695359D01*
X132932777Y-77541296D01*
X132932761Y-77541290D01*
X132665952Y-77458991D01*
X132607693Y-77420421D01*
X132579536Y-77356476D01*
X132590419Y-77287459D01*
X132636887Y-77235283D01*
X132702502Y-77216500D01*
X225687199Y-77216500D01*
X225754238Y-77236185D01*
G37*
G04 #@! TD.AperFunction*
M02*
