G04 #@! TF.GenerationSoftware,KiCad,Pcbnew,7.0.5*
G04 #@! TF.CreationDate,2023-11-15T14:25:37-06:00*
G04 #@! TF.ProjectId,RotatingSignalStack_board,526f7461-7469-46e6-9753-69676e616c53,rev?*
G04 #@! TF.SameCoordinates,Original*
G04 #@! TF.FileFunction,Legend,Top*
G04 #@! TF.FilePolarity,Positive*
%FSLAX46Y46*%
G04 Gerber Fmt 4.6, Leading zero omitted, Abs format (unit mm)*
G04 Created by KiCad (PCBNEW 7.0.5) date 2023-11-15 14:25:37*
%MOMM*%
%LPD*%
G01*
G04 APERTURE LIST*
%ADD10C,0.150000*%
%ADD11C,0.330200*%
%ADD12C,0.120000*%
%ADD13C,0.010000*%
%ADD14C,0.127000*%
%ADD15C,0.200000*%
G04 APERTURE END LIST*
D10*
X134710776Y-97171220D02*
X134106014Y-97594554D01*
X134710776Y-97896935D02*
X133440776Y-97896935D01*
X133440776Y-97896935D02*
X133440776Y-97413125D01*
X133440776Y-97413125D02*
X133501252Y-97292173D01*
X133501252Y-97292173D02*
X133561728Y-97231696D01*
X133561728Y-97231696D02*
X133682680Y-97171220D01*
X133682680Y-97171220D02*
X133864109Y-97171220D01*
X133864109Y-97171220D02*
X133985061Y-97231696D01*
X133985061Y-97231696D02*
X134045538Y-97292173D01*
X134045538Y-97292173D02*
X134106014Y-97413125D01*
X134106014Y-97413125D02*
X134106014Y-97896935D01*
X133440776Y-96808363D02*
X134710776Y-96385030D01*
X134710776Y-96385030D02*
X133440776Y-95961696D01*
X134650300Y-95598840D02*
X134710776Y-95417411D01*
X134710776Y-95417411D02*
X134710776Y-95115030D01*
X134710776Y-95115030D02*
X134650300Y-94994078D01*
X134650300Y-94994078D02*
X134589823Y-94933602D01*
X134589823Y-94933602D02*
X134468871Y-94873125D01*
X134468871Y-94873125D02*
X134347919Y-94873125D01*
X134347919Y-94873125D02*
X134226966Y-94933602D01*
X134226966Y-94933602D02*
X134166490Y-94994078D01*
X134166490Y-94994078D02*
X134106014Y-95115030D01*
X134106014Y-95115030D02*
X134045538Y-95356935D01*
X134045538Y-95356935D02*
X133985061Y-95477887D01*
X133985061Y-95477887D02*
X133924585Y-95538364D01*
X133924585Y-95538364D02*
X133803633Y-95598840D01*
X133803633Y-95598840D02*
X133682680Y-95598840D01*
X133682680Y-95598840D02*
X133561728Y-95538364D01*
X133561728Y-95538364D02*
X133501252Y-95477887D01*
X133501252Y-95477887D02*
X133440776Y-95356935D01*
X133440776Y-95356935D02*
X133440776Y-95054554D01*
X133440776Y-95054554D02*
X133501252Y-94873125D01*
X130900776Y-98017887D02*
X130900776Y-97231696D01*
X130900776Y-97231696D02*
X131384585Y-97655030D01*
X131384585Y-97655030D02*
X131384585Y-97473601D01*
X131384585Y-97473601D02*
X131445061Y-97352649D01*
X131445061Y-97352649D02*
X131505538Y-97292173D01*
X131505538Y-97292173D02*
X131626490Y-97231696D01*
X131626490Y-97231696D02*
X131928871Y-97231696D01*
X131928871Y-97231696D02*
X132049823Y-97292173D01*
X132049823Y-97292173D02*
X132110300Y-97352649D01*
X132110300Y-97352649D02*
X132170776Y-97473601D01*
X132170776Y-97473601D02*
X132170776Y-97836458D01*
X132170776Y-97836458D02*
X132110300Y-97957411D01*
X132110300Y-97957411D02*
X132049823Y-98017887D01*
X130900776Y-96868839D02*
X132170776Y-96445506D01*
X132170776Y-96445506D02*
X130900776Y-96022172D01*
X130900776Y-95719792D02*
X130900776Y-94933601D01*
X130900776Y-94933601D02*
X131384585Y-95356935D01*
X131384585Y-95356935D02*
X131384585Y-95175506D01*
X131384585Y-95175506D02*
X131445061Y-95054554D01*
X131445061Y-95054554D02*
X131505538Y-94994078D01*
X131505538Y-94994078D02*
X131626490Y-94933601D01*
X131626490Y-94933601D02*
X131928871Y-94933601D01*
X131928871Y-94933601D02*
X132049823Y-94994078D01*
X132049823Y-94994078D02*
X132110300Y-95054554D01*
X132110300Y-95054554D02*
X132170776Y-95175506D01*
X132170776Y-95175506D02*
X132170776Y-95538363D01*
X132170776Y-95538363D02*
X132110300Y-95659316D01*
X132110300Y-95659316D02*
X132049823Y-95719792D01*
X151160300Y-97957411D02*
X151220776Y-97775982D01*
X151220776Y-97775982D02*
X151220776Y-97473601D01*
X151220776Y-97473601D02*
X151160300Y-97352649D01*
X151160300Y-97352649D02*
X151099823Y-97292173D01*
X151099823Y-97292173D02*
X150978871Y-97231696D01*
X150978871Y-97231696D02*
X150857919Y-97231696D01*
X150857919Y-97231696D02*
X150736966Y-97292173D01*
X150736966Y-97292173D02*
X150676490Y-97352649D01*
X150676490Y-97352649D02*
X150616014Y-97473601D01*
X150616014Y-97473601D02*
X150555538Y-97715506D01*
X150555538Y-97715506D02*
X150495061Y-97836458D01*
X150495061Y-97836458D02*
X150434585Y-97896935D01*
X150434585Y-97896935D02*
X150313633Y-97957411D01*
X150313633Y-97957411D02*
X150192680Y-97957411D01*
X150192680Y-97957411D02*
X150071728Y-97896935D01*
X150071728Y-97896935D02*
X150011252Y-97836458D01*
X150011252Y-97836458D02*
X149950776Y-97715506D01*
X149950776Y-97715506D02*
X149950776Y-97413125D01*
X149950776Y-97413125D02*
X150011252Y-97231696D01*
X151099823Y-95961696D02*
X151160300Y-96022172D01*
X151160300Y-96022172D02*
X151220776Y-96203601D01*
X151220776Y-96203601D02*
X151220776Y-96324553D01*
X151220776Y-96324553D02*
X151160300Y-96505982D01*
X151160300Y-96505982D02*
X151039347Y-96626934D01*
X151039347Y-96626934D02*
X150918395Y-96687411D01*
X150918395Y-96687411D02*
X150676490Y-96747887D01*
X150676490Y-96747887D02*
X150495061Y-96747887D01*
X150495061Y-96747887D02*
X150253157Y-96687411D01*
X150253157Y-96687411D02*
X150132204Y-96626934D01*
X150132204Y-96626934D02*
X150011252Y-96505982D01*
X150011252Y-96505982D02*
X149950776Y-96324553D01*
X149950776Y-96324553D02*
X149950776Y-96203601D01*
X149950776Y-96203601D02*
X150011252Y-96022172D01*
X150011252Y-96022172D02*
X150071728Y-95961696D01*
X151220776Y-94812649D02*
X151220776Y-95417411D01*
X151220776Y-95417411D02*
X149950776Y-95417411D01*
X183648048Y-90768776D02*
X183224714Y-90164014D01*
X182922333Y-90768776D02*
X182922333Y-89498776D01*
X182922333Y-89498776D02*
X183406143Y-89498776D01*
X183406143Y-89498776D02*
X183527095Y-89559252D01*
X183527095Y-89559252D02*
X183587572Y-89619728D01*
X183587572Y-89619728D02*
X183648048Y-89740680D01*
X183648048Y-89740680D02*
X183648048Y-89922109D01*
X183648048Y-89922109D02*
X183587572Y-90043061D01*
X183587572Y-90043061D02*
X183527095Y-90103538D01*
X183527095Y-90103538D02*
X183406143Y-90164014D01*
X183406143Y-90164014D02*
X182922333Y-90164014D01*
X184010905Y-89498776D02*
X184434238Y-90768776D01*
X184434238Y-90768776D02*
X184857572Y-89498776D01*
X185220428Y-90708300D02*
X185401857Y-90768776D01*
X185401857Y-90768776D02*
X185704238Y-90768776D01*
X185704238Y-90768776D02*
X185825190Y-90708300D01*
X185825190Y-90708300D02*
X185885666Y-90647823D01*
X185885666Y-90647823D02*
X185946143Y-90526871D01*
X185946143Y-90526871D02*
X185946143Y-90405919D01*
X185946143Y-90405919D02*
X185885666Y-90284966D01*
X185885666Y-90284966D02*
X185825190Y-90224490D01*
X185825190Y-90224490D02*
X185704238Y-90164014D01*
X185704238Y-90164014D02*
X185462333Y-90103538D01*
X185462333Y-90103538D02*
X185341381Y-90043061D01*
X185341381Y-90043061D02*
X185280904Y-89982585D01*
X185280904Y-89982585D02*
X185220428Y-89861633D01*
X185220428Y-89861633D02*
X185220428Y-89740680D01*
X185220428Y-89740680D02*
X185280904Y-89619728D01*
X185280904Y-89619728D02*
X185341381Y-89559252D01*
X185341381Y-89559252D02*
X185462333Y-89498776D01*
X185462333Y-89498776D02*
X185764714Y-89498776D01*
X185764714Y-89498776D02*
X185946143Y-89559252D01*
D11*
X146455190Y-93857540D02*
X146376571Y-93936160D01*
X146376571Y-93936160D02*
X146140714Y-94014779D01*
X146140714Y-94014779D02*
X145983476Y-94014779D01*
X145983476Y-94014779D02*
X145747619Y-93936160D01*
X145747619Y-93936160D02*
X145590381Y-93778921D01*
X145590381Y-93778921D02*
X145511762Y-93621683D01*
X145511762Y-93621683D02*
X145433143Y-93307207D01*
X145433143Y-93307207D02*
X145433143Y-93071350D01*
X145433143Y-93071350D02*
X145511762Y-92756874D01*
X145511762Y-92756874D02*
X145590381Y-92599636D01*
X145590381Y-92599636D02*
X145747619Y-92442398D01*
X145747619Y-92442398D02*
X145983476Y-92363779D01*
X145983476Y-92363779D02*
X146140714Y-92363779D01*
X146140714Y-92363779D02*
X146376571Y-92442398D01*
X146376571Y-92442398D02*
X146455190Y-92521017D01*
X147398619Y-94014779D02*
X147241381Y-93936160D01*
X147241381Y-93936160D02*
X147162762Y-93857540D01*
X147162762Y-93857540D02*
X147084143Y-93700302D01*
X147084143Y-93700302D02*
X147084143Y-93228588D01*
X147084143Y-93228588D02*
X147162762Y-93071350D01*
X147162762Y-93071350D02*
X147241381Y-92992731D01*
X147241381Y-92992731D02*
X147398619Y-92914112D01*
X147398619Y-92914112D02*
X147634476Y-92914112D01*
X147634476Y-92914112D02*
X147791714Y-92992731D01*
X147791714Y-92992731D02*
X147870333Y-93071350D01*
X147870333Y-93071350D02*
X147948952Y-93228588D01*
X147948952Y-93228588D02*
X147948952Y-93700302D01*
X147948952Y-93700302D02*
X147870333Y-93857540D01*
X147870333Y-93857540D02*
X147791714Y-93936160D01*
X147791714Y-93936160D02*
X147634476Y-94014779D01*
X147634476Y-94014779D02*
X147398619Y-94014779D01*
X148656524Y-94014779D02*
X148656524Y-92914112D01*
X148656524Y-93071350D02*
X148735143Y-92992731D01*
X148735143Y-92992731D02*
X148892381Y-92914112D01*
X148892381Y-92914112D02*
X149128238Y-92914112D01*
X149128238Y-92914112D02*
X149285476Y-92992731D01*
X149285476Y-92992731D02*
X149364095Y-93149969D01*
X149364095Y-93149969D02*
X149364095Y-94014779D01*
X149364095Y-93149969D02*
X149442714Y-92992731D01*
X149442714Y-92992731D02*
X149599952Y-92914112D01*
X149599952Y-92914112D02*
X149835809Y-92914112D01*
X149835809Y-92914112D02*
X149993048Y-92992731D01*
X149993048Y-92992731D02*
X150071667Y-93149969D01*
X150071667Y-93149969D02*
X150071667Y-94014779D01*
X150857857Y-92914112D02*
X150857857Y-94565112D01*
X150857857Y-92992731D02*
X151015095Y-92914112D01*
X151015095Y-92914112D02*
X151329571Y-92914112D01*
X151329571Y-92914112D02*
X151486809Y-92992731D01*
X151486809Y-92992731D02*
X151565428Y-93071350D01*
X151565428Y-93071350D02*
X151644047Y-93228588D01*
X151644047Y-93228588D02*
X151644047Y-93700302D01*
X151644047Y-93700302D02*
X151565428Y-93857540D01*
X151565428Y-93857540D02*
X151486809Y-93936160D01*
X151486809Y-93936160D02*
X151329571Y-94014779D01*
X151329571Y-94014779D02*
X151015095Y-94014779D01*
X151015095Y-94014779D02*
X150857857Y-93936160D01*
X153059190Y-94014779D02*
X153059190Y-93149969D01*
X153059190Y-93149969D02*
X152980571Y-92992731D01*
X152980571Y-92992731D02*
X152823333Y-92914112D01*
X152823333Y-92914112D02*
X152508857Y-92914112D01*
X152508857Y-92914112D02*
X152351619Y-92992731D01*
X153059190Y-93936160D02*
X152901952Y-94014779D01*
X152901952Y-94014779D02*
X152508857Y-94014779D01*
X152508857Y-94014779D02*
X152351619Y-93936160D01*
X152351619Y-93936160D02*
X152273000Y-93778921D01*
X152273000Y-93778921D02*
X152273000Y-93621683D01*
X152273000Y-93621683D02*
X152351619Y-93464445D01*
X152351619Y-93464445D02*
X152508857Y-93385826D01*
X152508857Y-93385826D02*
X152901952Y-93385826D01*
X152901952Y-93385826D02*
X153059190Y-93307207D01*
X153766762Y-93936160D02*
X153924000Y-94014779D01*
X153924000Y-94014779D02*
X154238476Y-94014779D01*
X154238476Y-94014779D02*
X154395714Y-93936160D01*
X154395714Y-93936160D02*
X154474333Y-93778921D01*
X154474333Y-93778921D02*
X154474333Y-93700302D01*
X154474333Y-93700302D02*
X154395714Y-93543064D01*
X154395714Y-93543064D02*
X154238476Y-93464445D01*
X154238476Y-93464445D02*
X154002619Y-93464445D01*
X154002619Y-93464445D02*
X153845381Y-93385826D01*
X153845381Y-93385826D02*
X153766762Y-93228588D01*
X153766762Y-93228588D02*
X153766762Y-93149969D01*
X153766762Y-93149969D02*
X153845381Y-92992731D01*
X153845381Y-92992731D02*
X154002619Y-92914112D01*
X154002619Y-92914112D02*
X154238476Y-92914112D01*
X154238476Y-92914112D02*
X154395714Y-92992731D01*
X155103286Y-93936160D02*
X155260524Y-94014779D01*
X155260524Y-94014779D02*
X155575000Y-94014779D01*
X155575000Y-94014779D02*
X155732238Y-93936160D01*
X155732238Y-93936160D02*
X155810857Y-93778921D01*
X155810857Y-93778921D02*
X155810857Y-93700302D01*
X155810857Y-93700302D02*
X155732238Y-93543064D01*
X155732238Y-93543064D02*
X155575000Y-93464445D01*
X155575000Y-93464445D02*
X155339143Y-93464445D01*
X155339143Y-93464445D02*
X155181905Y-93385826D01*
X155181905Y-93385826D02*
X155103286Y-93228588D01*
X155103286Y-93228588D02*
X155103286Y-93149969D01*
X155103286Y-93149969D02*
X155181905Y-92992731D01*
X155181905Y-92992731D02*
X155339143Y-92914112D01*
X155339143Y-92914112D02*
X155575000Y-92914112D01*
X155575000Y-92914112D02*
X155732238Y-92992731D01*
D10*
X153700300Y-97957411D02*
X153760776Y-97775982D01*
X153760776Y-97775982D02*
X153760776Y-97473601D01*
X153760776Y-97473601D02*
X153700300Y-97352649D01*
X153700300Y-97352649D02*
X153639823Y-97292173D01*
X153639823Y-97292173D02*
X153518871Y-97231696D01*
X153518871Y-97231696D02*
X153397919Y-97231696D01*
X153397919Y-97231696D02*
X153276966Y-97292173D01*
X153276966Y-97292173D02*
X153216490Y-97352649D01*
X153216490Y-97352649D02*
X153156014Y-97473601D01*
X153156014Y-97473601D02*
X153095538Y-97715506D01*
X153095538Y-97715506D02*
X153035061Y-97836458D01*
X153035061Y-97836458D02*
X152974585Y-97896935D01*
X152974585Y-97896935D02*
X152853633Y-97957411D01*
X152853633Y-97957411D02*
X152732680Y-97957411D01*
X152732680Y-97957411D02*
X152611728Y-97896935D01*
X152611728Y-97896935D02*
X152551252Y-97836458D01*
X152551252Y-97836458D02*
X152490776Y-97715506D01*
X152490776Y-97715506D02*
X152490776Y-97413125D01*
X152490776Y-97413125D02*
X152551252Y-97231696D01*
X153760776Y-96687411D02*
X152490776Y-96687411D01*
X152490776Y-96687411D02*
X152490776Y-96385030D01*
X152490776Y-96385030D02*
X152551252Y-96203601D01*
X152551252Y-96203601D02*
X152672204Y-96082649D01*
X152672204Y-96082649D02*
X152793157Y-96022172D01*
X152793157Y-96022172D02*
X153035061Y-95961696D01*
X153035061Y-95961696D02*
X153216490Y-95961696D01*
X153216490Y-95961696D02*
X153458395Y-96022172D01*
X153458395Y-96022172D02*
X153579347Y-96082649D01*
X153579347Y-96082649D02*
X153700300Y-96203601D01*
X153700300Y-96203601D02*
X153760776Y-96385030D01*
X153760776Y-96385030D02*
X153760776Y-96687411D01*
X153397919Y-95477887D02*
X153397919Y-94873125D01*
X153760776Y-95598839D02*
X152490776Y-95175506D01*
X152490776Y-95175506D02*
X153760776Y-94752172D01*
X100918541Y-82975150D02*
X101940588Y-82975150D01*
X101940588Y-82975150D02*
X101390255Y-83604102D01*
X101390255Y-83604102D02*
X101626112Y-83604102D01*
X101626112Y-83604102D02*
X101783350Y-83682721D01*
X101783350Y-83682721D02*
X101861969Y-83761340D01*
X101861969Y-83761340D02*
X101940588Y-83918578D01*
X101940588Y-83918578D02*
X101940588Y-84311673D01*
X101940588Y-84311673D02*
X101861969Y-84468911D01*
X101861969Y-84468911D02*
X101783350Y-84547531D01*
X101783350Y-84547531D02*
X101626112Y-84626150D01*
X101626112Y-84626150D02*
X101154398Y-84626150D01*
X101154398Y-84626150D02*
X100997160Y-84547531D01*
X100997160Y-84547531D02*
X100918541Y-84468911D01*
X102412303Y-82975150D02*
X102962636Y-84626150D01*
X102962636Y-84626150D02*
X103512969Y-82975150D01*
X103906065Y-82975150D02*
X104928112Y-82975150D01*
X104928112Y-82975150D02*
X104377779Y-83604102D01*
X104377779Y-83604102D02*
X104613636Y-83604102D01*
X104613636Y-83604102D02*
X104770874Y-83682721D01*
X104770874Y-83682721D02*
X104849493Y-83761340D01*
X104849493Y-83761340D02*
X104928112Y-83918578D01*
X104928112Y-83918578D02*
X104928112Y-84311673D01*
X104928112Y-84311673D02*
X104849493Y-84468911D01*
X104849493Y-84468911D02*
X104770874Y-84547531D01*
X104770874Y-84547531D02*
X104613636Y-84626150D01*
X104613636Y-84626150D02*
X104141922Y-84626150D01*
X104141922Y-84626150D02*
X103984684Y-84547531D01*
X103984684Y-84547531D02*
X103906065Y-84468911D01*
D11*
X128687286Y-93760779D02*
X128687286Y-92109779D01*
X128687286Y-92895969D02*
X129630714Y-92895969D01*
X129630714Y-93760779D02*
X129630714Y-92109779D01*
X130416905Y-93131826D02*
X131674810Y-93131826D01*
X133011333Y-92895969D02*
X133247190Y-92974588D01*
X133247190Y-92974588D02*
X133325809Y-93053207D01*
X133325809Y-93053207D02*
X133404428Y-93210445D01*
X133404428Y-93210445D02*
X133404428Y-93446302D01*
X133404428Y-93446302D02*
X133325809Y-93603540D01*
X133325809Y-93603540D02*
X133247190Y-93682160D01*
X133247190Y-93682160D02*
X133089952Y-93760779D01*
X133089952Y-93760779D02*
X132461000Y-93760779D01*
X132461000Y-93760779D02*
X132461000Y-92109779D01*
X132461000Y-92109779D02*
X133011333Y-92109779D01*
X133011333Y-92109779D02*
X133168571Y-92188398D01*
X133168571Y-92188398D02*
X133247190Y-92267017D01*
X133247190Y-92267017D02*
X133325809Y-92424255D01*
X133325809Y-92424255D02*
X133325809Y-92581493D01*
X133325809Y-92581493D02*
X133247190Y-92738731D01*
X133247190Y-92738731D02*
X133168571Y-92817350D01*
X133168571Y-92817350D02*
X133011333Y-92895969D01*
X133011333Y-92895969D02*
X132461000Y-92895969D01*
X134112000Y-93760779D02*
X134112000Y-92660112D01*
X134112000Y-92974588D02*
X134190619Y-92817350D01*
X134190619Y-92817350D02*
X134269238Y-92738731D01*
X134269238Y-92738731D02*
X134426476Y-92660112D01*
X134426476Y-92660112D02*
X134583714Y-92660112D01*
X135134048Y-93760779D02*
X135134048Y-92660112D01*
X135134048Y-92109779D02*
X135055429Y-92188398D01*
X135055429Y-92188398D02*
X135134048Y-92267017D01*
X135134048Y-92267017D02*
X135212667Y-92188398D01*
X135212667Y-92188398D02*
X135134048Y-92109779D01*
X135134048Y-92109779D02*
X135134048Y-92267017D01*
X136627809Y-93760779D02*
X136627809Y-92109779D01*
X136627809Y-93682160D02*
X136470571Y-93760779D01*
X136470571Y-93760779D02*
X136156095Y-93760779D01*
X136156095Y-93760779D02*
X135998857Y-93682160D01*
X135998857Y-93682160D02*
X135920238Y-93603540D01*
X135920238Y-93603540D02*
X135841619Y-93446302D01*
X135841619Y-93446302D02*
X135841619Y-92974588D01*
X135841619Y-92974588D02*
X135920238Y-92817350D01*
X135920238Y-92817350D02*
X135998857Y-92738731D01*
X135998857Y-92738731D02*
X136156095Y-92660112D01*
X136156095Y-92660112D02*
X136470571Y-92660112D01*
X136470571Y-92660112D02*
X136627809Y-92738731D01*
X138121571Y-92660112D02*
X138121571Y-93996636D01*
X138121571Y-93996636D02*
X138042952Y-94153874D01*
X138042952Y-94153874D02*
X137964333Y-94232493D01*
X137964333Y-94232493D02*
X137807095Y-94311112D01*
X137807095Y-94311112D02*
X137571238Y-94311112D01*
X137571238Y-94311112D02*
X137414000Y-94232493D01*
X138121571Y-93682160D02*
X137964333Y-93760779D01*
X137964333Y-93760779D02*
X137649857Y-93760779D01*
X137649857Y-93760779D02*
X137492619Y-93682160D01*
X137492619Y-93682160D02*
X137414000Y-93603540D01*
X137414000Y-93603540D02*
X137335381Y-93446302D01*
X137335381Y-93446302D02*
X137335381Y-92974588D01*
X137335381Y-92974588D02*
X137414000Y-92817350D01*
X137414000Y-92817350D02*
X137492619Y-92738731D01*
X137492619Y-92738731D02*
X137649857Y-92660112D01*
X137649857Y-92660112D02*
X137964333Y-92660112D01*
X137964333Y-92660112D02*
X138121571Y-92738731D01*
X139536714Y-93682160D02*
X139379476Y-93760779D01*
X139379476Y-93760779D02*
X139065000Y-93760779D01*
X139065000Y-93760779D02*
X138907762Y-93682160D01*
X138907762Y-93682160D02*
X138829143Y-93524921D01*
X138829143Y-93524921D02*
X138829143Y-92895969D01*
X138829143Y-92895969D02*
X138907762Y-92738731D01*
X138907762Y-92738731D02*
X139065000Y-92660112D01*
X139065000Y-92660112D02*
X139379476Y-92660112D01*
X139379476Y-92660112D02*
X139536714Y-92738731D01*
X139536714Y-92738731D02*
X139615333Y-92895969D01*
X139615333Y-92895969D02*
X139615333Y-93053207D01*
X139615333Y-93053207D02*
X138829143Y-93210445D01*
D10*
X101940588Y-101898150D02*
X100997160Y-101898150D01*
X101468874Y-101898150D02*
X101468874Y-100247150D01*
X101468874Y-100247150D02*
X101311636Y-100483007D01*
X101311636Y-100483007D02*
X101154398Y-100640245D01*
X101154398Y-100640245D02*
X100997160Y-100718864D01*
X102569541Y-100404388D02*
X102648160Y-100325769D01*
X102648160Y-100325769D02*
X102805398Y-100247150D01*
X102805398Y-100247150D02*
X103198493Y-100247150D01*
X103198493Y-100247150D02*
X103355731Y-100325769D01*
X103355731Y-100325769D02*
X103434350Y-100404388D01*
X103434350Y-100404388D02*
X103512969Y-100561626D01*
X103512969Y-100561626D02*
X103512969Y-100718864D01*
X103512969Y-100718864D02*
X103434350Y-100954721D01*
X103434350Y-100954721D02*
X102490922Y-101898150D01*
X102490922Y-101898150D02*
X103512969Y-101898150D01*
X103984684Y-100247150D02*
X104535017Y-101898150D01*
X104535017Y-101898150D02*
X105085350Y-100247150D01*
X155635538Y-97896935D02*
X155635538Y-97473601D01*
X156300776Y-97292173D02*
X156300776Y-97896935D01*
X156300776Y-97896935D02*
X155030776Y-97896935D01*
X155030776Y-97896935D02*
X155030776Y-97292173D01*
X156300776Y-96747887D02*
X155030776Y-96747887D01*
X155030776Y-96747887D02*
X156300776Y-96022172D01*
X156300776Y-96022172D02*
X155030776Y-96022172D01*
X155635538Y-94994077D02*
X155696014Y-94812649D01*
X155696014Y-94812649D02*
X155756490Y-94752172D01*
X155756490Y-94752172D02*
X155877442Y-94691696D01*
X155877442Y-94691696D02*
X156058871Y-94691696D01*
X156058871Y-94691696D02*
X156179823Y-94752172D01*
X156179823Y-94752172D02*
X156240300Y-94812649D01*
X156240300Y-94812649D02*
X156300776Y-94933601D01*
X156300776Y-94933601D02*
X156300776Y-95417411D01*
X156300776Y-95417411D02*
X155030776Y-95417411D01*
X155030776Y-95417411D02*
X155030776Y-94994077D01*
X155030776Y-94994077D02*
X155091252Y-94873125D01*
X155091252Y-94873125D02*
X155151728Y-94812649D01*
X155151728Y-94812649D02*
X155272680Y-94752172D01*
X155272680Y-94752172D02*
X155393633Y-94752172D01*
X155393633Y-94752172D02*
X155514585Y-94812649D01*
X155514585Y-94812649D02*
X155575061Y-94873125D01*
X155575061Y-94873125D02*
X155635538Y-94994077D01*
X155635538Y-94994077D02*
X155635538Y-95417411D01*
X183224714Y-112201538D02*
X182801380Y-112201538D01*
X182801380Y-112866776D02*
X182801380Y-111596776D01*
X182801380Y-111596776D02*
X183406142Y-111596776D01*
X183768999Y-111596776D02*
X184071380Y-112866776D01*
X184071380Y-112866776D02*
X184313285Y-111959633D01*
X184313285Y-111959633D02*
X184555190Y-112866776D01*
X184555190Y-112866776D02*
X184857571Y-111596776D01*
X185341380Y-112866776D02*
X185341380Y-111596776D01*
X185341380Y-111596776D02*
X185643761Y-111596776D01*
X185643761Y-111596776D02*
X185825190Y-111657252D01*
X185825190Y-111657252D02*
X185946142Y-111778204D01*
X185946142Y-111778204D02*
X186006619Y-111899157D01*
X186006619Y-111899157D02*
X186067095Y-112141061D01*
X186067095Y-112141061D02*
X186067095Y-112322490D01*
X186067095Y-112322490D02*
X186006619Y-112564395D01*
X186006619Y-112564395D02*
X185946142Y-112685347D01*
X185946142Y-112685347D02*
X185825190Y-112806300D01*
X185825190Y-112806300D02*
X185643761Y-112866776D01*
X185643761Y-112866776D02*
X185341380Y-112866776D01*
X136585538Y-97473601D02*
X136585538Y-97896935D01*
X137250776Y-97896935D02*
X135980776Y-97896935D01*
X135980776Y-97896935D02*
X135980776Y-97292173D01*
X135980776Y-96929316D02*
X137250776Y-96626935D01*
X137250776Y-96626935D02*
X136343633Y-96385030D01*
X136343633Y-96385030D02*
X137250776Y-96143125D01*
X137250776Y-96143125D02*
X135980776Y-95840745D01*
X137250776Y-95356935D02*
X135980776Y-95356935D01*
X135980776Y-95356935D02*
X135980776Y-95054554D01*
X135980776Y-95054554D02*
X136041252Y-94873125D01*
X136041252Y-94873125D02*
X136162204Y-94752173D01*
X136162204Y-94752173D02*
X136283157Y-94691696D01*
X136283157Y-94691696D02*
X136525061Y-94631220D01*
X136525061Y-94631220D02*
X136706490Y-94631220D01*
X136706490Y-94631220D02*
X136948395Y-94691696D01*
X136948395Y-94691696D02*
X137069347Y-94752173D01*
X137069347Y-94752173D02*
X137190300Y-94873125D01*
X137190300Y-94873125D02*
X137250776Y-95054554D01*
X137250776Y-95054554D02*
X137250776Y-95356935D01*
X147471252Y-97485696D02*
X147410776Y-97606649D01*
X147410776Y-97606649D02*
X147410776Y-97788077D01*
X147410776Y-97788077D02*
X147471252Y-97969506D01*
X147471252Y-97969506D02*
X147592204Y-98090458D01*
X147592204Y-98090458D02*
X147713157Y-98150935D01*
X147713157Y-98150935D02*
X147955061Y-98211411D01*
X147955061Y-98211411D02*
X148136490Y-98211411D01*
X148136490Y-98211411D02*
X148378395Y-98150935D01*
X148378395Y-98150935D02*
X148499347Y-98090458D01*
X148499347Y-98090458D02*
X148620300Y-97969506D01*
X148620300Y-97969506D02*
X148680776Y-97788077D01*
X148680776Y-97788077D02*
X148680776Y-97667125D01*
X148680776Y-97667125D02*
X148620300Y-97485696D01*
X148620300Y-97485696D02*
X148559823Y-97425220D01*
X148559823Y-97425220D02*
X148136490Y-97425220D01*
X148136490Y-97425220D02*
X148136490Y-97667125D01*
X148680776Y-96880935D02*
X147410776Y-96880935D01*
X147410776Y-96880935D02*
X148680776Y-96155220D01*
X148680776Y-96155220D02*
X147410776Y-96155220D01*
X148680776Y-95550459D02*
X147410776Y-95550459D01*
X147410776Y-95550459D02*
X147410776Y-95248078D01*
X147410776Y-95248078D02*
X147471252Y-95066649D01*
X147471252Y-95066649D02*
X147592204Y-94945697D01*
X147592204Y-94945697D02*
X147713157Y-94885220D01*
X147713157Y-94885220D02*
X147955061Y-94824744D01*
X147955061Y-94824744D02*
X148136490Y-94824744D01*
X148136490Y-94824744D02*
X148378395Y-94885220D01*
X148378395Y-94885220D02*
X148499347Y-94945697D01*
X148499347Y-94945697D02*
X148620300Y-95066649D01*
X148620300Y-95066649D02*
X148680776Y-95248078D01*
X148680776Y-95248078D02*
X148680776Y-95550459D01*
X144870776Y-98017887D02*
X144870776Y-97231696D01*
X144870776Y-97231696D02*
X145354585Y-97655030D01*
X145354585Y-97655030D02*
X145354585Y-97473601D01*
X145354585Y-97473601D02*
X145415061Y-97352649D01*
X145415061Y-97352649D02*
X145475538Y-97292173D01*
X145475538Y-97292173D02*
X145596490Y-97231696D01*
X145596490Y-97231696D02*
X145898871Y-97231696D01*
X145898871Y-97231696D02*
X146019823Y-97292173D01*
X146019823Y-97292173D02*
X146080300Y-97352649D01*
X146080300Y-97352649D02*
X146140776Y-97473601D01*
X146140776Y-97473601D02*
X146140776Y-97836458D01*
X146140776Y-97836458D02*
X146080300Y-97957411D01*
X146080300Y-97957411D02*
X146019823Y-98017887D01*
X144870776Y-96868839D02*
X146140776Y-96445506D01*
X146140776Y-96445506D02*
X144870776Y-96022172D01*
X144870776Y-95719792D02*
X144870776Y-94933601D01*
X144870776Y-94933601D02*
X145354585Y-95356935D01*
X145354585Y-95356935D02*
X145354585Y-95175506D01*
X145354585Y-95175506D02*
X145415061Y-95054554D01*
X145415061Y-95054554D02*
X145475538Y-94994078D01*
X145475538Y-94994078D02*
X145596490Y-94933601D01*
X145596490Y-94933601D02*
X145898871Y-94933601D01*
X145898871Y-94933601D02*
X146019823Y-94994078D01*
X146019823Y-94994078D02*
X146080300Y-95054554D01*
X146080300Y-95054554D02*
X146140776Y-95175506D01*
X146140776Y-95175506D02*
X146140776Y-95538363D01*
X146140776Y-95538363D02*
X146080300Y-95659316D01*
X146080300Y-95659316D02*
X146019823Y-95719792D01*
G04 #@! TO.C,J1*
X160998819Y-109045333D02*
X161713104Y-109045333D01*
X161713104Y-109045333D02*
X161855961Y-109092952D01*
X161855961Y-109092952D02*
X161951200Y-109188190D01*
X161951200Y-109188190D02*
X161998819Y-109331047D01*
X161998819Y-109331047D02*
X161998819Y-109426285D01*
X161998819Y-108045333D02*
X161998819Y-108616761D01*
X161998819Y-108331047D02*
X160998819Y-108331047D01*
X160998819Y-108331047D02*
X161141676Y-108426285D01*
X161141676Y-108426285D02*
X161236914Y-108521523D01*
X161236914Y-108521523D02*
X161284533Y-108616761D01*
G04 #@! TO.C,R7*
X190954819Y-98869166D02*
X190478628Y-99202499D01*
X190954819Y-99440594D02*
X189954819Y-99440594D01*
X189954819Y-99440594D02*
X189954819Y-99059642D01*
X189954819Y-99059642D02*
X190002438Y-98964404D01*
X190002438Y-98964404D02*
X190050057Y-98916785D01*
X190050057Y-98916785D02*
X190145295Y-98869166D01*
X190145295Y-98869166D02*
X190288152Y-98869166D01*
X190288152Y-98869166D02*
X190383390Y-98916785D01*
X190383390Y-98916785D02*
X190431009Y-98964404D01*
X190431009Y-98964404D02*
X190478628Y-99059642D01*
X190478628Y-99059642D02*
X190478628Y-99440594D01*
X189954819Y-98535832D02*
X189954819Y-97869166D01*
X189954819Y-97869166D02*
X190954819Y-98297737D01*
G04 #@! TO.C,C5*
X111339333Y-69701580D02*
X111291714Y-69749200D01*
X111291714Y-69749200D02*
X111148857Y-69796819D01*
X111148857Y-69796819D02*
X111053619Y-69796819D01*
X111053619Y-69796819D02*
X110910762Y-69749200D01*
X110910762Y-69749200D02*
X110815524Y-69653961D01*
X110815524Y-69653961D02*
X110767905Y-69558723D01*
X110767905Y-69558723D02*
X110720286Y-69368247D01*
X110720286Y-69368247D02*
X110720286Y-69225390D01*
X110720286Y-69225390D02*
X110767905Y-69034914D01*
X110767905Y-69034914D02*
X110815524Y-68939676D01*
X110815524Y-68939676D02*
X110910762Y-68844438D01*
X110910762Y-68844438D02*
X111053619Y-68796819D01*
X111053619Y-68796819D02*
X111148857Y-68796819D01*
X111148857Y-68796819D02*
X111291714Y-68844438D01*
X111291714Y-68844438D02*
X111339333Y-68892057D01*
X112244095Y-68796819D02*
X111767905Y-68796819D01*
X111767905Y-68796819D02*
X111720286Y-69273009D01*
X111720286Y-69273009D02*
X111767905Y-69225390D01*
X111767905Y-69225390D02*
X111863143Y-69177771D01*
X111863143Y-69177771D02*
X112101238Y-69177771D01*
X112101238Y-69177771D02*
X112196476Y-69225390D01*
X112196476Y-69225390D02*
X112244095Y-69273009D01*
X112244095Y-69273009D02*
X112291714Y-69368247D01*
X112291714Y-69368247D02*
X112291714Y-69606342D01*
X112291714Y-69606342D02*
X112244095Y-69701580D01*
X112244095Y-69701580D02*
X112196476Y-69749200D01*
X112196476Y-69749200D02*
X112101238Y-69796819D01*
X112101238Y-69796819D02*
X111863143Y-69796819D01*
X111863143Y-69796819D02*
X111767905Y-69749200D01*
X111767905Y-69749200D02*
X111720286Y-69701580D01*
G04 #@! TO.C,SW1*
X181611200Y-108013332D02*
X181658819Y-107870475D01*
X181658819Y-107870475D02*
X181658819Y-107632380D01*
X181658819Y-107632380D02*
X181611200Y-107537142D01*
X181611200Y-107537142D02*
X181563580Y-107489523D01*
X181563580Y-107489523D02*
X181468342Y-107441904D01*
X181468342Y-107441904D02*
X181373104Y-107441904D01*
X181373104Y-107441904D02*
X181277866Y-107489523D01*
X181277866Y-107489523D02*
X181230247Y-107537142D01*
X181230247Y-107537142D02*
X181182628Y-107632380D01*
X181182628Y-107632380D02*
X181135009Y-107822856D01*
X181135009Y-107822856D02*
X181087390Y-107918094D01*
X181087390Y-107918094D02*
X181039771Y-107965713D01*
X181039771Y-107965713D02*
X180944533Y-108013332D01*
X180944533Y-108013332D02*
X180849295Y-108013332D01*
X180849295Y-108013332D02*
X180754057Y-107965713D01*
X180754057Y-107965713D02*
X180706438Y-107918094D01*
X180706438Y-107918094D02*
X180658819Y-107822856D01*
X180658819Y-107822856D02*
X180658819Y-107584761D01*
X180658819Y-107584761D02*
X180706438Y-107441904D01*
X180658819Y-107108570D02*
X181658819Y-106870475D01*
X181658819Y-106870475D02*
X180944533Y-106679999D01*
X180944533Y-106679999D02*
X181658819Y-106489523D01*
X181658819Y-106489523D02*
X180658819Y-106251428D01*
X181658819Y-105346666D02*
X181658819Y-105918094D01*
X181658819Y-105632380D02*
X180658819Y-105632380D01*
X180658819Y-105632380D02*
X180801676Y-105727618D01*
X180801676Y-105727618D02*
X180896914Y-105822856D01*
X180896914Y-105822856D02*
X180944533Y-105918094D01*
G04 #@! TO.C,C3*
X100671333Y-93069580D02*
X100623714Y-93117200D01*
X100623714Y-93117200D02*
X100480857Y-93164819D01*
X100480857Y-93164819D02*
X100385619Y-93164819D01*
X100385619Y-93164819D02*
X100242762Y-93117200D01*
X100242762Y-93117200D02*
X100147524Y-93021961D01*
X100147524Y-93021961D02*
X100099905Y-92926723D01*
X100099905Y-92926723D02*
X100052286Y-92736247D01*
X100052286Y-92736247D02*
X100052286Y-92593390D01*
X100052286Y-92593390D02*
X100099905Y-92402914D01*
X100099905Y-92402914D02*
X100147524Y-92307676D01*
X100147524Y-92307676D02*
X100242762Y-92212438D01*
X100242762Y-92212438D02*
X100385619Y-92164819D01*
X100385619Y-92164819D02*
X100480857Y-92164819D01*
X100480857Y-92164819D02*
X100623714Y-92212438D01*
X100623714Y-92212438D02*
X100671333Y-92260057D01*
X101004667Y-92164819D02*
X101623714Y-92164819D01*
X101623714Y-92164819D02*
X101290381Y-92545771D01*
X101290381Y-92545771D02*
X101433238Y-92545771D01*
X101433238Y-92545771D02*
X101528476Y-92593390D01*
X101528476Y-92593390D02*
X101576095Y-92641009D01*
X101576095Y-92641009D02*
X101623714Y-92736247D01*
X101623714Y-92736247D02*
X101623714Y-92974342D01*
X101623714Y-92974342D02*
X101576095Y-93069580D01*
X101576095Y-93069580D02*
X101528476Y-93117200D01*
X101528476Y-93117200D02*
X101433238Y-93164819D01*
X101433238Y-93164819D02*
X101147524Y-93164819D01*
X101147524Y-93164819D02*
X101052286Y-93117200D01*
X101052286Y-93117200D02*
X101004667Y-93069580D01*
G04 #@! TO.C,Conn2*
X125237280Y-102320309D02*
X125284900Y-102367928D01*
X125284900Y-102367928D02*
X125332519Y-102510785D01*
X125332519Y-102510785D02*
X125332519Y-102606023D01*
X125332519Y-102606023D02*
X125284900Y-102748880D01*
X125284900Y-102748880D02*
X125189661Y-102844118D01*
X125189661Y-102844118D02*
X125094423Y-102891737D01*
X125094423Y-102891737D02*
X124903947Y-102939356D01*
X124903947Y-102939356D02*
X124761090Y-102939356D01*
X124761090Y-102939356D02*
X124570614Y-102891737D01*
X124570614Y-102891737D02*
X124475376Y-102844118D01*
X124475376Y-102844118D02*
X124380138Y-102748880D01*
X124380138Y-102748880D02*
X124332519Y-102606023D01*
X124332519Y-102606023D02*
X124332519Y-102510785D01*
X124332519Y-102510785D02*
X124380138Y-102367928D01*
X124380138Y-102367928D02*
X124427757Y-102320309D01*
X125332519Y-101748880D02*
X125284900Y-101844118D01*
X125284900Y-101844118D02*
X125237280Y-101891737D01*
X125237280Y-101891737D02*
X125142042Y-101939356D01*
X125142042Y-101939356D02*
X124856328Y-101939356D01*
X124856328Y-101939356D02*
X124761090Y-101891737D01*
X124761090Y-101891737D02*
X124713471Y-101844118D01*
X124713471Y-101844118D02*
X124665852Y-101748880D01*
X124665852Y-101748880D02*
X124665852Y-101606023D01*
X124665852Y-101606023D02*
X124713471Y-101510785D01*
X124713471Y-101510785D02*
X124761090Y-101463166D01*
X124761090Y-101463166D02*
X124856328Y-101415547D01*
X124856328Y-101415547D02*
X125142042Y-101415547D01*
X125142042Y-101415547D02*
X125237280Y-101463166D01*
X125237280Y-101463166D02*
X125284900Y-101510785D01*
X125284900Y-101510785D02*
X125332519Y-101606023D01*
X125332519Y-101606023D02*
X125332519Y-101748880D01*
X124665852Y-100986975D02*
X125332519Y-100986975D01*
X124761090Y-100986975D02*
X124713471Y-100939356D01*
X124713471Y-100939356D02*
X124665852Y-100844118D01*
X124665852Y-100844118D02*
X124665852Y-100701261D01*
X124665852Y-100701261D02*
X124713471Y-100606023D01*
X124713471Y-100606023D02*
X124808709Y-100558404D01*
X124808709Y-100558404D02*
X125332519Y-100558404D01*
X124665852Y-100082213D02*
X125332519Y-100082213D01*
X124761090Y-100082213D02*
X124713471Y-100034594D01*
X124713471Y-100034594D02*
X124665852Y-99939356D01*
X124665852Y-99939356D02*
X124665852Y-99796499D01*
X124665852Y-99796499D02*
X124713471Y-99701261D01*
X124713471Y-99701261D02*
X124808709Y-99653642D01*
X124808709Y-99653642D02*
X125332519Y-99653642D01*
X124427757Y-99225070D02*
X124380138Y-99177451D01*
X124380138Y-99177451D02*
X124332519Y-99082213D01*
X124332519Y-99082213D02*
X124332519Y-98844118D01*
X124332519Y-98844118D02*
X124380138Y-98748880D01*
X124380138Y-98748880D02*
X124427757Y-98701261D01*
X124427757Y-98701261D02*
X124522995Y-98653642D01*
X124522995Y-98653642D02*
X124618233Y-98653642D01*
X124618233Y-98653642D02*
X124761090Y-98701261D01*
X124761090Y-98701261D02*
X125332519Y-99272689D01*
X125332519Y-99272689D02*
X125332519Y-98653642D01*
G04 #@! TO.C,R5*
X149185333Y-91132819D02*
X148852000Y-90656628D01*
X148613905Y-91132819D02*
X148613905Y-90132819D01*
X148613905Y-90132819D02*
X148994857Y-90132819D01*
X148994857Y-90132819D02*
X149090095Y-90180438D01*
X149090095Y-90180438D02*
X149137714Y-90228057D01*
X149137714Y-90228057D02*
X149185333Y-90323295D01*
X149185333Y-90323295D02*
X149185333Y-90466152D01*
X149185333Y-90466152D02*
X149137714Y-90561390D01*
X149137714Y-90561390D02*
X149090095Y-90609009D01*
X149090095Y-90609009D02*
X148994857Y-90656628D01*
X148994857Y-90656628D02*
X148613905Y-90656628D01*
X150090095Y-90132819D02*
X149613905Y-90132819D01*
X149613905Y-90132819D02*
X149566286Y-90609009D01*
X149566286Y-90609009D02*
X149613905Y-90561390D01*
X149613905Y-90561390D02*
X149709143Y-90513771D01*
X149709143Y-90513771D02*
X149947238Y-90513771D01*
X149947238Y-90513771D02*
X150042476Y-90561390D01*
X150042476Y-90561390D02*
X150090095Y-90609009D01*
X150090095Y-90609009D02*
X150137714Y-90704247D01*
X150137714Y-90704247D02*
X150137714Y-90942342D01*
X150137714Y-90942342D02*
X150090095Y-91037580D01*
X150090095Y-91037580D02*
X150042476Y-91085200D01*
X150042476Y-91085200D02*
X149947238Y-91132819D01*
X149947238Y-91132819D02*
X149709143Y-91132819D01*
X149709143Y-91132819D02*
X149613905Y-91085200D01*
X149613905Y-91085200D02*
X149566286Y-91037580D01*
G04 #@! TO.C,SW2*
X181611200Y-97345332D02*
X181658819Y-97202475D01*
X181658819Y-97202475D02*
X181658819Y-96964380D01*
X181658819Y-96964380D02*
X181611200Y-96869142D01*
X181611200Y-96869142D02*
X181563580Y-96821523D01*
X181563580Y-96821523D02*
X181468342Y-96773904D01*
X181468342Y-96773904D02*
X181373104Y-96773904D01*
X181373104Y-96773904D02*
X181277866Y-96821523D01*
X181277866Y-96821523D02*
X181230247Y-96869142D01*
X181230247Y-96869142D02*
X181182628Y-96964380D01*
X181182628Y-96964380D02*
X181135009Y-97154856D01*
X181135009Y-97154856D02*
X181087390Y-97250094D01*
X181087390Y-97250094D02*
X181039771Y-97297713D01*
X181039771Y-97297713D02*
X180944533Y-97345332D01*
X180944533Y-97345332D02*
X180849295Y-97345332D01*
X180849295Y-97345332D02*
X180754057Y-97297713D01*
X180754057Y-97297713D02*
X180706438Y-97250094D01*
X180706438Y-97250094D02*
X180658819Y-97154856D01*
X180658819Y-97154856D02*
X180658819Y-96916761D01*
X180658819Y-96916761D02*
X180706438Y-96773904D01*
X180658819Y-96440570D02*
X181658819Y-96202475D01*
X181658819Y-96202475D02*
X180944533Y-96011999D01*
X180944533Y-96011999D02*
X181658819Y-95821523D01*
X181658819Y-95821523D02*
X180658819Y-95583428D01*
X180754057Y-95250094D02*
X180706438Y-95202475D01*
X180706438Y-95202475D02*
X180658819Y-95107237D01*
X180658819Y-95107237D02*
X180658819Y-94869142D01*
X180658819Y-94869142D02*
X180706438Y-94773904D01*
X180706438Y-94773904D02*
X180754057Y-94726285D01*
X180754057Y-94726285D02*
X180849295Y-94678666D01*
X180849295Y-94678666D02*
X180944533Y-94678666D01*
X180944533Y-94678666D02*
X181087390Y-94726285D01*
X181087390Y-94726285D02*
X181658819Y-95297713D01*
X181658819Y-95297713D02*
X181658819Y-94678666D01*
G04 #@! TO.C,R3*
X158583333Y-95450819D02*
X158250000Y-94974628D01*
X158011905Y-95450819D02*
X158011905Y-94450819D01*
X158011905Y-94450819D02*
X158392857Y-94450819D01*
X158392857Y-94450819D02*
X158488095Y-94498438D01*
X158488095Y-94498438D02*
X158535714Y-94546057D01*
X158535714Y-94546057D02*
X158583333Y-94641295D01*
X158583333Y-94641295D02*
X158583333Y-94784152D01*
X158583333Y-94784152D02*
X158535714Y-94879390D01*
X158535714Y-94879390D02*
X158488095Y-94927009D01*
X158488095Y-94927009D02*
X158392857Y-94974628D01*
X158392857Y-94974628D02*
X158011905Y-94974628D01*
X158916667Y-94450819D02*
X159535714Y-94450819D01*
X159535714Y-94450819D02*
X159202381Y-94831771D01*
X159202381Y-94831771D02*
X159345238Y-94831771D01*
X159345238Y-94831771D02*
X159440476Y-94879390D01*
X159440476Y-94879390D02*
X159488095Y-94927009D01*
X159488095Y-94927009D02*
X159535714Y-95022247D01*
X159535714Y-95022247D02*
X159535714Y-95260342D01*
X159535714Y-95260342D02*
X159488095Y-95355580D01*
X159488095Y-95355580D02*
X159440476Y-95403200D01*
X159440476Y-95403200D02*
X159345238Y-95450819D01*
X159345238Y-95450819D02*
X159059524Y-95450819D01*
X159059524Y-95450819D02*
X158964286Y-95403200D01*
X158964286Y-95403200D02*
X158916667Y-95355580D01*
G04 #@! TO.C,U2*
X182245095Y-86965819D02*
X182245095Y-87775342D01*
X182245095Y-87775342D02*
X182292714Y-87870580D01*
X182292714Y-87870580D02*
X182340333Y-87918200D01*
X182340333Y-87918200D02*
X182435571Y-87965819D01*
X182435571Y-87965819D02*
X182626047Y-87965819D01*
X182626047Y-87965819D02*
X182721285Y-87918200D01*
X182721285Y-87918200D02*
X182768904Y-87870580D01*
X182768904Y-87870580D02*
X182816523Y-87775342D01*
X182816523Y-87775342D02*
X182816523Y-86965819D01*
X183245095Y-87061057D02*
X183292714Y-87013438D01*
X183292714Y-87013438D02*
X183387952Y-86965819D01*
X183387952Y-86965819D02*
X183626047Y-86965819D01*
X183626047Y-86965819D02*
X183721285Y-87013438D01*
X183721285Y-87013438D02*
X183768904Y-87061057D01*
X183768904Y-87061057D02*
X183816523Y-87156295D01*
X183816523Y-87156295D02*
X183816523Y-87251533D01*
X183816523Y-87251533D02*
X183768904Y-87394390D01*
X183768904Y-87394390D02*
X183197476Y-87965819D01*
X183197476Y-87965819D02*
X183816523Y-87965819D01*
G04 #@! TO.C,C4*
X100671333Y-90783580D02*
X100623714Y-90831200D01*
X100623714Y-90831200D02*
X100480857Y-90878819D01*
X100480857Y-90878819D02*
X100385619Y-90878819D01*
X100385619Y-90878819D02*
X100242762Y-90831200D01*
X100242762Y-90831200D02*
X100147524Y-90735961D01*
X100147524Y-90735961D02*
X100099905Y-90640723D01*
X100099905Y-90640723D02*
X100052286Y-90450247D01*
X100052286Y-90450247D02*
X100052286Y-90307390D01*
X100052286Y-90307390D02*
X100099905Y-90116914D01*
X100099905Y-90116914D02*
X100147524Y-90021676D01*
X100147524Y-90021676D02*
X100242762Y-89926438D01*
X100242762Y-89926438D02*
X100385619Y-89878819D01*
X100385619Y-89878819D02*
X100480857Y-89878819D01*
X100480857Y-89878819D02*
X100623714Y-89926438D01*
X100623714Y-89926438D02*
X100671333Y-89974057D01*
X101528476Y-90212152D02*
X101528476Y-90878819D01*
X101290381Y-89831200D02*
X101052286Y-90545485D01*
X101052286Y-90545485D02*
X101671333Y-90545485D01*
G04 #@! TO.C,R1*
X100671333Y-97482819D02*
X100338000Y-97006628D01*
X100099905Y-97482819D02*
X100099905Y-96482819D01*
X100099905Y-96482819D02*
X100480857Y-96482819D01*
X100480857Y-96482819D02*
X100576095Y-96530438D01*
X100576095Y-96530438D02*
X100623714Y-96578057D01*
X100623714Y-96578057D02*
X100671333Y-96673295D01*
X100671333Y-96673295D02*
X100671333Y-96816152D01*
X100671333Y-96816152D02*
X100623714Y-96911390D01*
X100623714Y-96911390D02*
X100576095Y-96959009D01*
X100576095Y-96959009D02*
X100480857Y-97006628D01*
X100480857Y-97006628D02*
X100099905Y-97006628D01*
X101623714Y-97482819D02*
X101052286Y-97482819D01*
X101338000Y-97482819D02*
X101338000Y-96482819D01*
X101338000Y-96482819D02*
X101242762Y-96625676D01*
X101242762Y-96625676D02*
X101147524Y-96720914D01*
X101147524Y-96720914D02*
X101052286Y-96768533D01*
G04 #@! TO.C,D2*
X100099905Y-86306819D02*
X100099905Y-85306819D01*
X100099905Y-85306819D02*
X100338000Y-85306819D01*
X100338000Y-85306819D02*
X100480857Y-85354438D01*
X100480857Y-85354438D02*
X100576095Y-85449676D01*
X100576095Y-85449676D02*
X100623714Y-85544914D01*
X100623714Y-85544914D02*
X100671333Y-85735390D01*
X100671333Y-85735390D02*
X100671333Y-85878247D01*
X100671333Y-85878247D02*
X100623714Y-86068723D01*
X100623714Y-86068723D02*
X100576095Y-86163961D01*
X100576095Y-86163961D02*
X100480857Y-86259200D01*
X100480857Y-86259200D02*
X100338000Y-86306819D01*
X100338000Y-86306819D02*
X100099905Y-86306819D01*
X101052286Y-85402057D02*
X101099905Y-85354438D01*
X101099905Y-85354438D02*
X101195143Y-85306819D01*
X101195143Y-85306819D02*
X101433238Y-85306819D01*
X101433238Y-85306819D02*
X101528476Y-85354438D01*
X101528476Y-85354438D02*
X101576095Y-85402057D01*
X101576095Y-85402057D02*
X101623714Y-85497295D01*
X101623714Y-85497295D02*
X101623714Y-85592533D01*
X101623714Y-85592533D02*
X101576095Y-85735390D01*
X101576095Y-85735390D02*
X101004667Y-86306819D01*
X101004667Y-86306819D02*
X101623714Y-86306819D01*
G04 #@! TO.C,D3*
X190954819Y-104878094D02*
X189954819Y-104878094D01*
X189954819Y-104878094D02*
X189954819Y-104639999D01*
X189954819Y-104639999D02*
X190002438Y-104497142D01*
X190002438Y-104497142D02*
X190097676Y-104401904D01*
X190097676Y-104401904D02*
X190192914Y-104354285D01*
X190192914Y-104354285D02*
X190383390Y-104306666D01*
X190383390Y-104306666D02*
X190526247Y-104306666D01*
X190526247Y-104306666D02*
X190716723Y-104354285D01*
X190716723Y-104354285D02*
X190811961Y-104401904D01*
X190811961Y-104401904D02*
X190907200Y-104497142D01*
X190907200Y-104497142D02*
X190954819Y-104639999D01*
X190954819Y-104639999D02*
X190954819Y-104878094D01*
X189954819Y-103973332D02*
X189954819Y-103354285D01*
X189954819Y-103354285D02*
X190335771Y-103687618D01*
X190335771Y-103687618D02*
X190335771Y-103544761D01*
X190335771Y-103544761D02*
X190383390Y-103449523D01*
X190383390Y-103449523D02*
X190431009Y-103401904D01*
X190431009Y-103401904D02*
X190526247Y-103354285D01*
X190526247Y-103354285D02*
X190764342Y-103354285D01*
X190764342Y-103354285D02*
X190859580Y-103401904D01*
X190859580Y-103401904D02*
X190907200Y-103449523D01*
X190907200Y-103449523D02*
X190954819Y-103544761D01*
X190954819Y-103544761D02*
X190954819Y-103830475D01*
X190954819Y-103830475D02*
X190907200Y-103925713D01*
X190907200Y-103925713D02*
X190859580Y-103973332D01*
G04 #@! TO.C,D4*
X190954819Y-94210094D02*
X189954819Y-94210094D01*
X189954819Y-94210094D02*
X189954819Y-93971999D01*
X189954819Y-93971999D02*
X190002438Y-93829142D01*
X190002438Y-93829142D02*
X190097676Y-93733904D01*
X190097676Y-93733904D02*
X190192914Y-93686285D01*
X190192914Y-93686285D02*
X190383390Y-93638666D01*
X190383390Y-93638666D02*
X190526247Y-93638666D01*
X190526247Y-93638666D02*
X190716723Y-93686285D01*
X190716723Y-93686285D02*
X190811961Y-93733904D01*
X190811961Y-93733904D02*
X190907200Y-93829142D01*
X190907200Y-93829142D02*
X190954819Y-93971999D01*
X190954819Y-93971999D02*
X190954819Y-94210094D01*
X190288152Y-92781523D02*
X190954819Y-92781523D01*
X189907200Y-93019618D02*
X190621485Y-93257713D01*
X190621485Y-93257713D02*
X190621485Y-92638666D01*
G04 #@! TO.C,Conn1*
X115077280Y-102320309D02*
X115124900Y-102367928D01*
X115124900Y-102367928D02*
X115172519Y-102510785D01*
X115172519Y-102510785D02*
X115172519Y-102606023D01*
X115172519Y-102606023D02*
X115124900Y-102748880D01*
X115124900Y-102748880D02*
X115029661Y-102844118D01*
X115029661Y-102844118D02*
X114934423Y-102891737D01*
X114934423Y-102891737D02*
X114743947Y-102939356D01*
X114743947Y-102939356D02*
X114601090Y-102939356D01*
X114601090Y-102939356D02*
X114410614Y-102891737D01*
X114410614Y-102891737D02*
X114315376Y-102844118D01*
X114315376Y-102844118D02*
X114220138Y-102748880D01*
X114220138Y-102748880D02*
X114172519Y-102606023D01*
X114172519Y-102606023D02*
X114172519Y-102510785D01*
X114172519Y-102510785D02*
X114220138Y-102367928D01*
X114220138Y-102367928D02*
X114267757Y-102320309D01*
X115172519Y-101748880D02*
X115124900Y-101844118D01*
X115124900Y-101844118D02*
X115077280Y-101891737D01*
X115077280Y-101891737D02*
X114982042Y-101939356D01*
X114982042Y-101939356D02*
X114696328Y-101939356D01*
X114696328Y-101939356D02*
X114601090Y-101891737D01*
X114601090Y-101891737D02*
X114553471Y-101844118D01*
X114553471Y-101844118D02*
X114505852Y-101748880D01*
X114505852Y-101748880D02*
X114505852Y-101606023D01*
X114505852Y-101606023D02*
X114553471Y-101510785D01*
X114553471Y-101510785D02*
X114601090Y-101463166D01*
X114601090Y-101463166D02*
X114696328Y-101415547D01*
X114696328Y-101415547D02*
X114982042Y-101415547D01*
X114982042Y-101415547D02*
X115077280Y-101463166D01*
X115077280Y-101463166D02*
X115124900Y-101510785D01*
X115124900Y-101510785D02*
X115172519Y-101606023D01*
X115172519Y-101606023D02*
X115172519Y-101748880D01*
X114505852Y-100986975D02*
X115172519Y-100986975D01*
X114601090Y-100986975D02*
X114553471Y-100939356D01*
X114553471Y-100939356D02*
X114505852Y-100844118D01*
X114505852Y-100844118D02*
X114505852Y-100701261D01*
X114505852Y-100701261D02*
X114553471Y-100606023D01*
X114553471Y-100606023D02*
X114648709Y-100558404D01*
X114648709Y-100558404D02*
X115172519Y-100558404D01*
X114505852Y-100082213D02*
X115172519Y-100082213D01*
X114601090Y-100082213D02*
X114553471Y-100034594D01*
X114553471Y-100034594D02*
X114505852Y-99939356D01*
X114505852Y-99939356D02*
X114505852Y-99796499D01*
X114505852Y-99796499D02*
X114553471Y-99701261D01*
X114553471Y-99701261D02*
X114648709Y-99653642D01*
X114648709Y-99653642D02*
X115172519Y-99653642D01*
X115172519Y-98653642D02*
X115172519Y-99225070D01*
X115172519Y-98939356D02*
X114172519Y-98939356D01*
X114172519Y-98939356D02*
X114315376Y-99034594D01*
X114315376Y-99034594D02*
X114410614Y-99129832D01*
X114410614Y-99129832D02*
X114458233Y-99225070D01*
G04 #@! TO.C,U1*
X105118819Y-76525332D02*
X105118819Y-76334856D01*
X105118819Y-76334856D02*
X105166438Y-76239618D01*
X105166438Y-76239618D02*
X105261676Y-76144380D01*
X105261676Y-76144380D02*
X105452152Y-76096761D01*
X105452152Y-76096761D02*
X105785485Y-76096761D01*
X105785485Y-76096761D02*
X105975961Y-76144380D01*
X105975961Y-76144380D02*
X106071200Y-76239618D01*
X106071200Y-76239618D02*
X106118819Y-76334856D01*
X106118819Y-76334856D02*
X106118819Y-76525332D01*
X106118819Y-76525332D02*
X106071200Y-76620570D01*
X106071200Y-76620570D02*
X105975961Y-76715808D01*
X105975961Y-76715808D02*
X105785485Y-76763427D01*
X105785485Y-76763427D02*
X105452152Y-76763427D01*
X105452152Y-76763427D02*
X105261676Y-76715808D01*
X105261676Y-76715808D02*
X105166438Y-76620570D01*
X105166438Y-76620570D02*
X105118819Y-76525332D01*
X106118819Y-75668189D02*
X105118819Y-75668189D01*
X106118819Y-75096761D02*
X105547390Y-75525332D01*
X105118819Y-75096761D02*
X105690247Y-75668189D01*
X106118819Y-74668189D02*
X105118819Y-74668189D01*
G04 #@! TO.C,R2*
X100671333Y-88592819D02*
X100338000Y-88116628D01*
X100099905Y-88592819D02*
X100099905Y-87592819D01*
X100099905Y-87592819D02*
X100480857Y-87592819D01*
X100480857Y-87592819D02*
X100576095Y-87640438D01*
X100576095Y-87640438D02*
X100623714Y-87688057D01*
X100623714Y-87688057D02*
X100671333Y-87783295D01*
X100671333Y-87783295D02*
X100671333Y-87926152D01*
X100671333Y-87926152D02*
X100623714Y-88021390D01*
X100623714Y-88021390D02*
X100576095Y-88069009D01*
X100576095Y-88069009D02*
X100480857Y-88116628D01*
X100480857Y-88116628D02*
X100099905Y-88116628D01*
X101052286Y-87688057D02*
X101099905Y-87640438D01*
X101099905Y-87640438D02*
X101195143Y-87592819D01*
X101195143Y-87592819D02*
X101433238Y-87592819D01*
X101433238Y-87592819D02*
X101528476Y-87640438D01*
X101528476Y-87640438D02*
X101576095Y-87688057D01*
X101576095Y-87688057D02*
X101623714Y-87783295D01*
X101623714Y-87783295D02*
X101623714Y-87878533D01*
X101623714Y-87878533D02*
X101576095Y-88021390D01*
X101576095Y-88021390D02*
X101004667Y-88592819D01*
X101004667Y-88592819D02*
X101623714Y-88592819D01*
G04 #@! TO.C,C2*
X103831580Y-79314166D02*
X103879200Y-79361785D01*
X103879200Y-79361785D02*
X103926819Y-79504642D01*
X103926819Y-79504642D02*
X103926819Y-79599880D01*
X103926819Y-79599880D02*
X103879200Y-79742737D01*
X103879200Y-79742737D02*
X103783961Y-79837975D01*
X103783961Y-79837975D02*
X103688723Y-79885594D01*
X103688723Y-79885594D02*
X103498247Y-79933213D01*
X103498247Y-79933213D02*
X103355390Y-79933213D01*
X103355390Y-79933213D02*
X103164914Y-79885594D01*
X103164914Y-79885594D02*
X103069676Y-79837975D01*
X103069676Y-79837975D02*
X102974438Y-79742737D01*
X102974438Y-79742737D02*
X102926819Y-79599880D01*
X102926819Y-79599880D02*
X102926819Y-79504642D01*
X102926819Y-79504642D02*
X102974438Y-79361785D01*
X102974438Y-79361785D02*
X103022057Y-79314166D01*
X103022057Y-78933213D02*
X102974438Y-78885594D01*
X102974438Y-78885594D02*
X102926819Y-78790356D01*
X102926819Y-78790356D02*
X102926819Y-78552261D01*
X102926819Y-78552261D02*
X102974438Y-78457023D01*
X102974438Y-78457023D02*
X103022057Y-78409404D01*
X103022057Y-78409404D02*
X103117295Y-78361785D01*
X103117295Y-78361785D02*
X103212533Y-78361785D01*
X103212533Y-78361785D02*
X103355390Y-78409404D01*
X103355390Y-78409404D02*
X103926819Y-78980832D01*
X103926819Y-78980832D02*
X103926819Y-78361785D01*
G04 #@! TO.C,C1*
X100671333Y-95355580D02*
X100623714Y-95403200D01*
X100623714Y-95403200D02*
X100480857Y-95450819D01*
X100480857Y-95450819D02*
X100385619Y-95450819D01*
X100385619Y-95450819D02*
X100242762Y-95403200D01*
X100242762Y-95403200D02*
X100147524Y-95307961D01*
X100147524Y-95307961D02*
X100099905Y-95212723D01*
X100099905Y-95212723D02*
X100052286Y-95022247D01*
X100052286Y-95022247D02*
X100052286Y-94879390D01*
X100052286Y-94879390D02*
X100099905Y-94688914D01*
X100099905Y-94688914D02*
X100147524Y-94593676D01*
X100147524Y-94593676D02*
X100242762Y-94498438D01*
X100242762Y-94498438D02*
X100385619Y-94450819D01*
X100385619Y-94450819D02*
X100480857Y-94450819D01*
X100480857Y-94450819D02*
X100623714Y-94498438D01*
X100623714Y-94498438D02*
X100671333Y-94546057D01*
X101623714Y-95450819D02*
X101052286Y-95450819D01*
X101338000Y-95450819D02*
X101338000Y-94450819D01*
X101338000Y-94450819D02*
X101242762Y-94593676D01*
X101242762Y-94593676D02*
X101147524Y-94688914D01*
X101147524Y-94688914D02*
X101052286Y-94736533D01*
G04 #@! TO.C,R4*
X149185333Y-88846819D02*
X148852000Y-88370628D01*
X148613905Y-88846819D02*
X148613905Y-87846819D01*
X148613905Y-87846819D02*
X148994857Y-87846819D01*
X148994857Y-87846819D02*
X149090095Y-87894438D01*
X149090095Y-87894438D02*
X149137714Y-87942057D01*
X149137714Y-87942057D02*
X149185333Y-88037295D01*
X149185333Y-88037295D02*
X149185333Y-88180152D01*
X149185333Y-88180152D02*
X149137714Y-88275390D01*
X149137714Y-88275390D02*
X149090095Y-88323009D01*
X149090095Y-88323009D02*
X148994857Y-88370628D01*
X148994857Y-88370628D02*
X148613905Y-88370628D01*
X150042476Y-88180152D02*
X150042476Y-88846819D01*
X149804381Y-87799200D02*
X149566286Y-88513485D01*
X149566286Y-88513485D02*
X150185333Y-88513485D01*
G04 #@! TO.C,R6*
X190700819Y-109640666D02*
X190224628Y-109973999D01*
X190700819Y-110212094D02*
X189700819Y-110212094D01*
X189700819Y-110212094D02*
X189700819Y-109831142D01*
X189700819Y-109831142D02*
X189748438Y-109735904D01*
X189748438Y-109735904D02*
X189796057Y-109688285D01*
X189796057Y-109688285D02*
X189891295Y-109640666D01*
X189891295Y-109640666D02*
X190034152Y-109640666D01*
X190034152Y-109640666D02*
X190129390Y-109688285D01*
X190129390Y-109688285D02*
X190177009Y-109735904D01*
X190177009Y-109735904D02*
X190224628Y-109831142D01*
X190224628Y-109831142D02*
X190224628Y-110212094D01*
X189700819Y-108783523D02*
X189700819Y-108973999D01*
X189700819Y-108973999D02*
X189748438Y-109069237D01*
X189748438Y-109069237D02*
X189796057Y-109116856D01*
X189796057Y-109116856D02*
X189938914Y-109212094D01*
X189938914Y-109212094D02*
X190129390Y-109259713D01*
X190129390Y-109259713D02*
X190510342Y-109259713D01*
X190510342Y-109259713D02*
X190605580Y-109212094D01*
X190605580Y-109212094D02*
X190653200Y-109164475D01*
X190653200Y-109164475D02*
X190700819Y-109069237D01*
X190700819Y-109069237D02*
X190700819Y-108878761D01*
X190700819Y-108878761D02*
X190653200Y-108783523D01*
X190653200Y-108783523D02*
X190605580Y-108735904D01*
X190605580Y-108735904D02*
X190510342Y-108688285D01*
X190510342Y-108688285D02*
X190272247Y-108688285D01*
X190272247Y-108688285D02*
X190177009Y-108735904D01*
X190177009Y-108735904D02*
X190129390Y-108783523D01*
X190129390Y-108783523D02*
X190081771Y-108878761D01*
X190081771Y-108878761D02*
X190081771Y-109069237D01*
X190081771Y-109069237D02*
X190129390Y-109164475D01*
X190129390Y-109164475D02*
X190177009Y-109212094D01*
X190177009Y-109212094D02*
X190272247Y-109259713D01*
G04 #@! TO.C,D1*
X100099905Y-99514819D02*
X100099905Y-98514819D01*
X100099905Y-98514819D02*
X100338000Y-98514819D01*
X100338000Y-98514819D02*
X100480857Y-98562438D01*
X100480857Y-98562438D02*
X100576095Y-98657676D01*
X100576095Y-98657676D02*
X100623714Y-98752914D01*
X100623714Y-98752914D02*
X100671333Y-98943390D01*
X100671333Y-98943390D02*
X100671333Y-99086247D01*
X100671333Y-99086247D02*
X100623714Y-99276723D01*
X100623714Y-99276723D02*
X100576095Y-99371961D01*
X100576095Y-99371961D02*
X100480857Y-99467200D01*
X100480857Y-99467200D02*
X100338000Y-99514819D01*
X100338000Y-99514819D02*
X100099905Y-99514819D01*
X101623714Y-99514819D02*
X101052286Y-99514819D01*
X101338000Y-99514819D02*
X101338000Y-98514819D01*
X101338000Y-98514819D02*
X101242762Y-98657676D01*
X101242762Y-98657676D02*
X101147524Y-98752914D01*
X101147524Y-98752914D02*
X101052286Y-98800533D01*
G04 #@! TO.C,C6*
X168235333Y-89099580D02*
X168187714Y-89147200D01*
X168187714Y-89147200D02*
X168044857Y-89194819D01*
X168044857Y-89194819D02*
X167949619Y-89194819D01*
X167949619Y-89194819D02*
X167806762Y-89147200D01*
X167806762Y-89147200D02*
X167711524Y-89051961D01*
X167711524Y-89051961D02*
X167663905Y-88956723D01*
X167663905Y-88956723D02*
X167616286Y-88766247D01*
X167616286Y-88766247D02*
X167616286Y-88623390D01*
X167616286Y-88623390D02*
X167663905Y-88432914D01*
X167663905Y-88432914D02*
X167711524Y-88337676D01*
X167711524Y-88337676D02*
X167806762Y-88242438D01*
X167806762Y-88242438D02*
X167949619Y-88194819D01*
X167949619Y-88194819D02*
X168044857Y-88194819D01*
X168044857Y-88194819D02*
X168187714Y-88242438D01*
X168187714Y-88242438D02*
X168235333Y-88290057D01*
X169092476Y-88194819D02*
X168902000Y-88194819D01*
X168902000Y-88194819D02*
X168806762Y-88242438D01*
X168806762Y-88242438D02*
X168759143Y-88290057D01*
X168759143Y-88290057D02*
X168663905Y-88432914D01*
X168663905Y-88432914D02*
X168616286Y-88623390D01*
X168616286Y-88623390D02*
X168616286Y-89004342D01*
X168616286Y-89004342D02*
X168663905Y-89099580D01*
X168663905Y-89099580D02*
X168711524Y-89147200D01*
X168711524Y-89147200D02*
X168806762Y-89194819D01*
X168806762Y-89194819D02*
X168997238Y-89194819D01*
X168997238Y-89194819D02*
X169092476Y-89147200D01*
X169092476Y-89147200D02*
X169140095Y-89099580D01*
X169140095Y-89099580D02*
X169187714Y-89004342D01*
X169187714Y-89004342D02*
X169187714Y-88766247D01*
X169187714Y-88766247D02*
X169140095Y-88671009D01*
X169140095Y-88671009D02*
X169092476Y-88623390D01*
X169092476Y-88623390D02*
X168997238Y-88575771D01*
X168997238Y-88575771D02*
X168806762Y-88575771D01*
X168806762Y-88575771D02*
X168711524Y-88623390D01*
X168711524Y-88623390D02*
X168663905Y-88671009D01*
X168663905Y-88671009D02*
X168616286Y-88766247D01*
G04 #@! TO.C,V3*
X105105200Y-71120000D02*
G75*
G03*
X105105200Y-71120000I-4013200J0D01*
G01*
G04 #@! TO.C,V1*
X199085200Y-109220000D02*
G75*
G03*
X199085200Y-109220000I-4013200J0D01*
G01*
D12*
G04 #@! TO.C,J1*
X162563000Y-91609500D02*
X178813000Y-91609500D01*
X162563000Y-113159500D02*
X162563000Y-91609500D01*
X162563000Y-113159500D02*
X178813000Y-113159500D01*
X178813000Y-113159500D02*
X178813000Y-91609500D01*
G04 #@! TO.C,R7*
X188199500Y-98957224D02*
X188199500Y-98447776D01*
X189244500Y-98957224D02*
X189244500Y-98447776D01*
G04 #@! TO.C,C5*
X108565733Y-68832000D02*
X108858267Y-68832000D01*
X108565733Y-69852000D02*
X108858267Y-69852000D01*
G04 #@! TO.C,SW1*
X182034000Y-109050000D02*
X182434000Y-109050000D01*
X182034000Y-109050000D02*
X182034000Y-104310000D01*
X185434000Y-109050000D02*
X183374000Y-109050000D01*
X186774000Y-109050000D02*
X186374000Y-109050000D01*
X186774000Y-109050000D02*
X186774000Y-104310000D01*
X182034000Y-104310000D02*
X182434000Y-104310000D01*
X185434000Y-104310000D02*
X183374000Y-104310000D01*
X186774000Y-104310000D02*
X186374000Y-104310000D01*
G04 #@! TO.C,C3*
X103778267Y-93220000D02*
X103485733Y-93220000D01*
X103778267Y-92200000D02*
X103485733Y-92200000D01*
D10*
G04 #@! TO.C,Conn2*
X116192300Y-123140500D02*
X116192300Y-114250500D01*
X116217700Y-123140500D02*
X124091700Y-123140500D01*
X124091700Y-115418900D02*
X124091700Y-114250500D01*
X124091700Y-115393500D02*
X124091700Y-123140500D01*
X118503700Y-113107500D02*
X117360700Y-113107500D01*
X118503700Y-113107500D02*
X121805700Y-113107500D01*
X121780300Y-113107500D02*
X122948700Y-113107500D01*
X116217700Y-110821500D02*
X116217700Y-111964500D01*
X116217700Y-110821500D02*
X116217700Y-98527900D01*
X124091700Y-110821500D02*
X124091700Y-98527900D01*
X124091700Y-110796100D02*
X124091700Y-111989900D01*
X124091700Y-98502500D02*
X116217700Y-98502500D01*
X122974100Y-113107500D02*
G75*
G03*
X124091700Y-114225100I1117598J-2D01*
G01*
X116217700Y-114250500D02*
G75*
G03*
X117360700Y-113107500I0J1143000D01*
G01*
X124091700Y-111989900D02*
G75*
G03*
X122974100Y-113107500I-2J-1117598D01*
G01*
X117360700Y-113107500D02*
G75*
G03*
X116217700Y-111964500I-1143000J0D01*
G01*
D12*
G04 #@! TO.C,R5*
X146303276Y-90155500D02*
X146812724Y-90155500D01*
X146303276Y-91200500D02*
X146812724Y-91200500D01*
G04 #@! TO.C,G\u002A\u002A\u002A*
D13*
X193916451Y-81625360D02*
X193911431Y-81630380D01*
X193906411Y-81625360D01*
X193911431Y-81620340D01*
X193916451Y-81625360D01*
G36*
X193916451Y-81625360D02*
G01*
X193911431Y-81630380D01*
X193906411Y-81625360D01*
X193911431Y-81620340D01*
X193916451Y-81625360D01*
G37*
X198148611Y-77028769D02*
X198214325Y-77038247D01*
X198267830Y-77053802D01*
X198275991Y-77057335D01*
X198308743Y-77072513D01*
X198278625Y-77067418D01*
X198173801Y-77055662D01*
X198075617Y-77056445D01*
X197988532Y-77069718D01*
X197984937Y-77070611D01*
X197883457Y-77103983D01*
X197777707Y-77153990D01*
X197667329Y-77220926D01*
X197551959Y-77305084D01*
X197431239Y-77406758D01*
X197304807Y-77526241D01*
X197172302Y-77663827D01*
X197033364Y-77819810D01*
X196964131Y-77901484D01*
X196899990Y-77978949D01*
X196838712Y-78054490D01*
X196779339Y-78129494D01*
X196720908Y-78205349D01*
X196662460Y-78283443D01*
X196603035Y-78365164D01*
X196541672Y-78451901D01*
X196477412Y-78545042D01*
X196409293Y-78645974D01*
X196336356Y-78756086D01*
X196257640Y-78876766D01*
X196172185Y-79009402D01*
X196079032Y-79155382D01*
X195977218Y-79316094D01*
X195891657Y-79451803D01*
X195696545Y-79766436D01*
X195508882Y-80078350D01*
X195331685Y-80382508D01*
X195287089Y-80460775D01*
X195246787Y-80531489D01*
X195200095Y-80612819D01*
X195150858Y-80698107D01*
X195102919Y-80780695D01*
X195060857Y-80852674D01*
X195018962Y-80924491D01*
X194973005Y-81004024D01*
X194926534Y-81085086D01*
X194883095Y-81161487D01*
X194846235Y-81227041D01*
X194845056Y-81229156D01*
X194813267Y-81286093D01*
X194783110Y-81339926D01*
X194756591Y-81387088D01*
X194735717Y-81424012D01*
X194722493Y-81447129D01*
X194722077Y-81447844D01*
X194696822Y-81491198D01*
X194657847Y-81387607D01*
X194637404Y-81336375D01*
X194611989Y-81277534D01*
X194582877Y-81213588D01*
X194551341Y-81147037D01*
X194518658Y-81080382D01*
X194486103Y-81016126D01*
X194454949Y-80956768D01*
X194426473Y-80904811D01*
X194401950Y-80862756D01*
X194382654Y-80833104D01*
X194369860Y-80818357D01*
X194367081Y-80817178D01*
X194360335Y-80825572D01*
X194345854Y-80848847D01*
X194325309Y-80884146D01*
X194300370Y-80928609D01*
X194277609Y-80970281D01*
X194240856Y-81038074D01*
X194201446Y-81110307D01*
X194160579Y-81184820D01*
X194119455Y-81259458D01*
X194079274Y-81332062D01*
X194041236Y-81400475D01*
X194006542Y-81462539D01*
X193976392Y-81516098D01*
X193951986Y-81558993D01*
X193934524Y-81589067D01*
X193925207Y-81604163D01*
X193924350Y-81605281D01*
X193923653Y-81600874D01*
X193928990Y-81581080D01*
X193939345Y-81549314D01*
X193949701Y-81519945D01*
X193974852Y-81450839D01*
X194002809Y-81374605D01*
X194032773Y-81293372D01*
X194063946Y-81209267D01*
X194095528Y-81124420D01*
X194126720Y-81040958D01*
X194156723Y-80961010D01*
X194184739Y-80886705D01*
X194209966Y-80820170D01*
X194231608Y-80763535D01*
X194248864Y-80718927D01*
X194260936Y-80688475D01*
X194267024Y-80674307D01*
X194267455Y-80673613D01*
X194275923Y-80677539D01*
X194291805Y-80695113D01*
X194312061Y-80722842D01*
X194317705Y-80731340D01*
X194338646Y-80762290D01*
X194355714Y-80785329D01*
X194365855Y-80796390D01*
X194366899Y-80796812D01*
X194373255Y-80788266D01*
X194387546Y-80764483D01*
X194408341Y-80727993D01*
X194434212Y-80681322D01*
X194463730Y-80626996D01*
X194478664Y-80599148D01*
X194513835Y-80533663D01*
X194555945Y-80455853D01*
X194602151Y-80370931D01*
X194649615Y-80284110D01*
X194695494Y-80200602D01*
X194723343Y-80150166D01*
X194763768Y-80077007D01*
X194811255Y-79990862D01*
X194863250Y-79896376D01*
X194917202Y-79798191D01*
X194970558Y-79700949D01*
X195020766Y-79609295D01*
X195038269Y-79577297D01*
X195119620Y-79429700D01*
X195199524Y-79287022D01*
X195277118Y-79150716D01*
X195351536Y-79022233D01*
X195421911Y-78903026D01*
X195487379Y-78794547D01*
X195547074Y-78698248D01*
X195600131Y-78615581D01*
X195645683Y-78547998D01*
X195680089Y-78500561D01*
X195728284Y-78442448D01*
X195771268Y-78400666D01*
X195808327Y-78375611D01*
X195838750Y-78367683D01*
X195861825Y-78377278D01*
X195872547Y-78393105D01*
X195882486Y-78419923D01*
X195884196Y-78435690D01*
X195878540Y-78437795D01*
X195866379Y-78423630D01*
X195863813Y-78419557D01*
X195844440Y-78396026D01*
X195826440Y-78389450D01*
X195826202Y-78389492D01*
X195807334Y-78401535D01*
X195781203Y-78431608D01*
X195748126Y-78479147D01*
X195708420Y-78543588D01*
X195662404Y-78624369D01*
X195610393Y-78720925D01*
X195552707Y-78832694D01*
X195489662Y-78959113D01*
X195421576Y-79099616D01*
X195397278Y-79150617D01*
X195373348Y-79201608D01*
X195344141Y-79264769D01*
X195310391Y-79338448D01*
X195272833Y-79420993D01*
X195232202Y-79510752D01*
X195189233Y-79606073D01*
X195144660Y-79705302D01*
X195099220Y-79806789D01*
X195053646Y-79908880D01*
X195008674Y-80009923D01*
X194965038Y-80108266D01*
X194923474Y-80202257D01*
X194884715Y-80290244D01*
X194849499Y-80370573D01*
X194818558Y-80441594D01*
X194792628Y-80501653D01*
X194772444Y-80549099D01*
X194758741Y-80582279D01*
X194752254Y-80599541D01*
X194751874Y-80601666D01*
X194758020Y-80594482D01*
X194773760Y-80572835D01*
X194797536Y-80538958D01*
X194827791Y-80495087D01*
X194862968Y-80443456D01*
X194890285Y-80403006D01*
X194935822Y-80335757D01*
X194989733Y-80256848D01*
X195050643Y-80168245D01*
X195117175Y-80071915D01*
X195187953Y-79969824D01*
X195261602Y-79863937D01*
X195336745Y-79756222D01*
X195412006Y-79648642D01*
X195486009Y-79543166D01*
X195557378Y-79441758D01*
X195624736Y-79346385D01*
X195686709Y-79259013D01*
X195741919Y-79181608D01*
X195788991Y-79116135D01*
X195826548Y-79064562D01*
X195837143Y-79050222D01*
X196020410Y-78806530D01*
X196195183Y-78580455D01*
X196361843Y-78371603D01*
X196520766Y-78179578D01*
X196672334Y-78003985D01*
X196816924Y-77844429D01*
X196954915Y-77700515D01*
X197086686Y-77571847D01*
X197212617Y-77458031D01*
X197333087Y-77358671D01*
X197448473Y-77273373D01*
X197559156Y-77201741D01*
X197665514Y-77143379D01*
X197666214Y-77143032D01*
X197745495Y-77105195D01*
X197812971Y-77076791D01*
X197873587Y-77056175D01*
X197932283Y-77041703D01*
X197994003Y-77031731D01*
X198004606Y-77030429D01*
X198076700Y-77025964D01*
X198148611Y-77028769D01*
G36*
X198148611Y-77028769D02*
G01*
X198214325Y-77038247D01*
X198267830Y-77053802D01*
X198275991Y-77057335D01*
X198308743Y-77072513D01*
X198278625Y-77067418D01*
X198173801Y-77055662D01*
X198075617Y-77056445D01*
X197988532Y-77069718D01*
X197984937Y-77070611D01*
X197883457Y-77103983D01*
X197777707Y-77153990D01*
X197667329Y-77220926D01*
X197551959Y-77305084D01*
X197431239Y-77406758D01*
X197304807Y-77526241D01*
X197172302Y-77663827D01*
X197033364Y-77819810D01*
X196964131Y-77901484D01*
X196899990Y-77978949D01*
X196838712Y-78054490D01*
X196779339Y-78129494D01*
X196720908Y-78205349D01*
X196662460Y-78283443D01*
X196603035Y-78365164D01*
X196541672Y-78451901D01*
X196477412Y-78545042D01*
X196409293Y-78645974D01*
X196336356Y-78756086D01*
X196257640Y-78876766D01*
X196172185Y-79009402D01*
X196079032Y-79155382D01*
X195977218Y-79316094D01*
X195891657Y-79451803D01*
X195696545Y-79766436D01*
X195508882Y-80078350D01*
X195331685Y-80382508D01*
X195287089Y-80460775D01*
X195246787Y-80531489D01*
X195200095Y-80612819D01*
X195150858Y-80698107D01*
X195102919Y-80780695D01*
X195060857Y-80852674D01*
X195018962Y-80924491D01*
X194973005Y-81004024D01*
X194926534Y-81085086D01*
X194883095Y-81161487D01*
X194846235Y-81227041D01*
X194845056Y-81229156D01*
X194813267Y-81286093D01*
X194783110Y-81339926D01*
X194756591Y-81387088D01*
X194735717Y-81424012D01*
X194722493Y-81447129D01*
X194722077Y-81447844D01*
X194696822Y-81491198D01*
X194657847Y-81387607D01*
X194637404Y-81336375D01*
X194611989Y-81277534D01*
X194582877Y-81213588D01*
X194551341Y-81147037D01*
X194518658Y-81080382D01*
X194486103Y-81016126D01*
X194454949Y-80956768D01*
X194426473Y-80904811D01*
X194401950Y-80862756D01*
X194382654Y-80833104D01*
X194369860Y-80818357D01*
X194367081Y-80817178D01*
X194360335Y-80825572D01*
X194345854Y-80848847D01*
X194325309Y-80884146D01*
X194300370Y-80928609D01*
X194277609Y-80970281D01*
X194240856Y-81038074D01*
X194201446Y-81110307D01*
X194160579Y-81184820D01*
X194119455Y-81259458D01*
X194079274Y-81332062D01*
X194041236Y-81400475D01*
X194006542Y-81462539D01*
X193976392Y-81516098D01*
X193951986Y-81558993D01*
X193934524Y-81589067D01*
X193925207Y-81604163D01*
X193924350Y-81605281D01*
X193923653Y-81600874D01*
X193928990Y-81581080D01*
X193939345Y-81549314D01*
X193949701Y-81519945D01*
X193974852Y-81450839D01*
X194002809Y-81374605D01*
X194032773Y-81293372D01*
X194063946Y-81209267D01*
X194095528Y-81124420D01*
X194126720Y-81040958D01*
X194156723Y-80961010D01*
X194184739Y-80886705D01*
X194209966Y-80820170D01*
X194231608Y-80763535D01*
X194248864Y-80718927D01*
X194260936Y-80688475D01*
X194267024Y-80674307D01*
X194267455Y-80673613D01*
X194275923Y-80677539D01*
X194291805Y-80695113D01*
X194312061Y-80722842D01*
X194317705Y-80731340D01*
X194338646Y-80762290D01*
X194355714Y-80785329D01*
X194365855Y-80796390D01*
X194366899Y-80796812D01*
X194373255Y-80788266D01*
X194387546Y-80764483D01*
X194408341Y-80727993D01*
X194434212Y-80681322D01*
X194463730Y-80626996D01*
X194478664Y-80599148D01*
X194513835Y-80533663D01*
X194555945Y-80455853D01*
X194602151Y-80370931D01*
X194649615Y-80284110D01*
X194695494Y-80200602D01*
X194723343Y-80150166D01*
X194763768Y-80077007D01*
X194811255Y-79990862D01*
X194863250Y-79896376D01*
X194917202Y-79798191D01*
X194970558Y-79700949D01*
X195020766Y-79609295D01*
X195038269Y-79577297D01*
X195119620Y-79429700D01*
X195199524Y-79287022D01*
X195277118Y-79150716D01*
X195351536Y-79022233D01*
X195421911Y-78903026D01*
X195487379Y-78794547D01*
X195547074Y-78698248D01*
X195600131Y-78615581D01*
X195645683Y-78547998D01*
X195680089Y-78500561D01*
X195728284Y-78442448D01*
X195771268Y-78400666D01*
X195808327Y-78375611D01*
X195838750Y-78367683D01*
X195861825Y-78377278D01*
X195872547Y-78393105D01*
X195882486Y-78419923D01*
X195884196Y-78435690D01*
X195878540Y-78437795D01*
X195866379Y-78423630D01*
X195863813Y-78419557D01*
X195844440Y-78396026D01*
X195826440Y-78389450D01*
X195826202Y-78389492D01*
X195807334Y-78401535D01*
X195781203Y-78431608D01*
X195748126Y-78479147D01*
X195708420Y-78543588D01*
X195662404Y-78624369D01*
X195610393Y-78720925D01*
X195552707Y-78832694D01*
X195489662Y-78959113D01*
X195421576Y-79099616D01*
X195397278Y-79150617D01*
X195373348Y-79201608D01*
X195344141Y-79264769D01*
X195310391Y-79338448D01*
X195272833Y-79420993D01*
X195232202Y-79510752D01*
X195189233Y-79606073D01*
X195144660Y-79705302D01*
X195099220Y-79806789D01*
X195053646Y-79908880D01*
X195008674Y-80009923D01*
X194965038Y-80108266D01*
X194923474Y-80202257D01*
X194884715Y-80290244D01*
X194849499Y-80370573D01*
X194818558Y-80441594D01*
X194792628Y-80501653D01*
X194772444Y-80549099D01*
X194758741Y-80582279D01*
X194752254Y-80599541D01*
X194751874Y-80601666D01*
X194758020Y-80594482D01*
X194773760Y-80572835D01*
X194797536Y-80538958D01*
X194827791Y-80495087D01*
X194862968Y-80443456D01*
X194890285Y-80403006D01*
X194935822Y-80335757D01*
X194989733Y-80256848D01*
X195050643Y-80168245D01*
X195117175Y-80071915D01*
X195187953Y-79969824D01*
X195261602Y-79863937D01*
X195336745Y-79756222D01*
X195412006Y-79648642D01*
X195486009Y-79543166D01*
X195557378Y-79441758D01*
X195624736Y-79346385D01*
X195686709Y-79259013D01*
X195741919Y-79181608D01*
X195788991Y-79116135D01*
X195826548Y-79064562D01*
X195837143Y-79050222D01*
X196020410Y-78806530D01*
X196195183Y-78580455D01*
X196361843Y-78371603D01*
X196520766Y-78179578D01*
X196672334Y-78003985D01*
X196816924Y-77844429D01*
X196954915Y-77700515D01*
X197086686Y-77571847D01*
X197212617Y-77458031D01*
X197333087Y-77358671D01*
X197448473Y-77273373D01*
X197559156Y-77201741D01*
X197665514Y-77143379D01*
X197666214Y-77143032D01*
X197745495Y-77105195D01*
X197812971Y-77076791D01*
X197873587Y-77056175D01*
X197932283Y-77041703D01*
X197994003Y-77031731D01*
X198004606Y-77030429D01*
X198076700Y-77025964D01*
X198148611Y-77028769D01*
G37*
X194858354Y-79267025D02*
X194853097Y-79279126D01*
X194836000Y-79304867D01*
X194826190Y-79318756D01*
X194807840Y-79345842D01*
X194789861Y-79375573D01*
X194771125Y-79410325D01*
X194750503Y-79452477D01*
X194726868Y-79504406D01*
X194699091Y-79568489D01*
X194666043Y-79647105D01*
X194636622Y-79718244D01*
X194611600Y-79779670D01*
X194580740Y-79856444D01*
X194545379Y-79945161D01*
X194506855Y-80042415D01*
X194466506Y-80144801D01*
X194425670Y-80248915D01*
X194385686Y-80351352D01*
X194347891Y-80448706D01*
X194313623Y-80537572D01*
X194284220Y-80614545D01*
X194278369Y-80629988D01*
X194267532Y-80658648D01*
X194211220Y-80581539D01*
X194186322Y-80549301D01*
X194165298Y-80525500D01*
X194151057Y-80513255D01*
X194147006Y-80512721D01*
X194141388Y-80522970D01*
X194127808Y-80549788D01*
X194107013Y-80591649D01*
X194079749Y-80647028D01*
X194046761Y-80714401D01*
X194008796Y-80792243D01*
X193966599Y-80879029D01*
X193920917Y-80973233D01*
X193872495Y-81073332D01*
X193853172Y-81113344D01*
X193741921Y-81343675D01*
X193638687Y-81557119D01*
X193542860Y-81754925D01*
X193453831Y-81938337D01*
X193370990Y-82108603D01*
X193293727Y-82266968D01*
X193221434Y-82414678D01*
X193153500Y-82552980D01*
X193089316Y-82683120D01*
X193028273Y-82806344D01*
X192969761Y-82923899D01*
X192913170Y-83037030D01*
X192880958Y-83101170D01*
X192837299Y-83188492D01*
X192800018Y-83263559D01*
X192767790Y-83328093D01*
X192739287Y-83383820D01*
X192713185Y-83432462D01*
X192688158Y-83475744D01*
X192662879Y-83515388D01*
X192636022Y-83553118D01*
X192606263Y-83590659D01*
X192572274Y-83629733D01*
X192532730Y-83672065D01*
X192486305Y-83719378D01*
X192431674Y-83773396D01*
X192367510Y-83835842D01*
X192292487Y-83908440D01*
X192205280Y-83992913D01*
X192164554Y-84032491D01*
X192091095Y-84104369D01*
X192019228Y-84175443D01*
X191950826Y-84243806D01*
X191887766Y-84307553D01*
X191831923Y-84364777D01*
X191785171Y-84413572D01*
X191749386Y-84452031D01*
X191728557Y-84475693D01*
X191671906Y-84542302D01*
X191603212Y-84621063D01*
X191524482Y-84709789D01*
X191437725Y-84806292D01*
X191344952Y-84908383D01*
X191248170Y-85013873D01*
X191149390Y-85120576D01*
X191050620Y-85226303D01*
X190953869Y-85328865D01*
X190861146Y-85426074D01*
X190774461Y-85515743D01*
X190760277Y-85530276D01*
X190712303Y-85579495D01*
X190669468Y-85623708D01*
X190633624Y-85660984D01*
X190606621Y-85689390D01*
X190590311Y-85706992D01*
X190586216Y-85712010D01*
X190598556Y-85716406D01*
X190626514Y-85724450D01*
X190666177Y-85735143D01*
X190713627Y-85747487D01*
X190764951Y-85760484D01*
X190816232Y-85773137D01*
X190863556Y-85784446D01*
X190903007Y-85793415D01*
X190918248Y-85796646D01*
X190982725Y-85808804D01*
X191029584Y-85815207D01*
X191060406Y-85815973D01*
X191076773Y-85811219D01*
X191079197Y-85808583D01*
X191088789Y-85799119D01*
X191110492Y-85780312D01*
X191140665Y-85755264D01*
X191162616Y-85737490D01*
X191240917Y-85674677D01*
X191082457Y-85824133D01*
X191116509Y-85830227D01*
X191176866Y-85838957D01*
X191249208Y-85846029D01*
X191330794Y-85851462D01*
X191418882Y-85855277D01*
X191510733Y-85857494D01*
X191603604Y-85858133D01*
X191694756Y-85857214D01*
X191781446Y-85854757D01*
X191860934Y-85850782D01*
X191930479Y-85845310D01*
X191987339Y-85838359D01*
X192028774Y-85829951D01*
X192046727Y-85823418D01*
X192058207Y-85811573D01*
X192078525Y-85784044D01*
X192106600Y-85742607D01*
X192141347Y-85689034D01*
X192181685Y-85625098D01*
X192226531Y-85552575D01*
X192274802Y-85473236D01*
X192325416Y-85388857D01*
X192377290Y-85301210D01*
X192429340Y-85212069D01*
X192480486Y-85123208D01*
X192529643Y-85036401D01*
X192556313Y-84988601D01*
X192598634Y-84913587D01*
X192644086Y-84835270D01*
X192690021Y-84758062D01*
X192733788Y-84686374D01*
X192772738Y-84624618D01*
X192797502Y-84587020D01*
X192834553Y-84530446D01*
X192877582Y-84461712D01*
X192923202Y-84386417D01*
X192968025Y-84310161D01*
X193008663Y-84238546D01*
X193012729Y-84231199D01*
X193062622Y-84143052D01*
X193111686Y-84061585D01*
X193163448Y-83981318D01*
X193221438Y-83896778D01*
X193287701Y-83804519D01*
X193429597Y-83606263D01*
X193563685Y-83410387D01*
X193693082Y-83212061D01*
X193820904Y-83006452D01*
X193950269Y-82788732D01*
X194010383Y-82684530D01*
X194046454Y-82622546D01*
X194079279Y-82569042D01*
X194111815Y-82519826D01*
X194147021Y-82470706D01*
X194187857Y-82417488D01*
X194237280Y-82355981D01*
X194272523Y-82313068D01*
X194321164Y-82254066D01*
X194369546Y-82195214D01*
X194414927Y-82139860D01*
X194454562Y-82091355D01*
X194485709Y-82053046D01*
X194498674Y-82036981D01*
X194529876Y-81998543D01*
X194569381Y-81950481D01*
X194612496Y-81898473D01*
X194654528Y-81848201D01*
X194661477Y-81839940D01*
X194695700Y-81798501D01*
X194724739Y-81761815D01*
X194746326Y-81732870D01*
X194758192Y-81714651D01*
X194759771Y-81710508D01*
X194757093Y-81695432D01*
X194750201Y-81668033D01*
X194740810Y-81634213D01*
X194730635Y-81599871D01*
X194721392Y-81570911D01*
X194714794Y-81553231D01*
X194713329Y-81550690D01*
X194704563Y-81554755D01*
X194685725Y-81569674D01*
X194662364Y-81590848D01*
X194639194Y-81611726D01*
X194628348Y-81618645D01*
X194630451Y-81611214D01*
X194631004Y-81610301D01*
X194645041Y-81585895D01*
X194662309Y-81553840D01*
X194669121Y-81540666D01*
X194682822Y-81514914D01*
X194691224Y-81504914D01*
X194697840Y-81508376D01*
X194703604Y-81518170D01*
X194709007Y-81526384D01*
X194715831Y-81529199D01*
X194726657Y-81525001D01*
X194744065Y-81512177D01*
X194770635Y-81489111D01*
X194808950Y-81454192D01*
X194815391Y-81448271D01*
X194929022Y-81344673D01*
X195030253Y-81254322D01*
X195120579Y-81175970D01*
X195201496Y-81108370D01*
X195274500Y-81050275D01*
X195341087Y-81000437D01*
X195402751Y-80957609D01*
X195407321Y-80954577D01*
X195489052Y-80903970D01*
X195558989Y-80867945D01*
X195616784Y-80846626D01*
X195662090Y-80840137D01*
X195694559Y-80848601D01*
X195698467Y-80851296D01*
X195709184Y-80860683D01*
X195707189Y-80865267D01*
X195689573Y-80866836D01*
X195672824Y-80867057D01*
X195628065Y-80873695D01*
X195583657Y-80894938D01*
X195581679Y-80896182D01*
X195546515Y-80921027D01*
X195500972Y-80956953D01*
X195448749Y-81000724D01*
X195393548Y-81049107D01*
X195339067Y-81098865D01*
X195289009Y-81146764D01*
X195251708Y-81184646D01*
X195220729Y-81217668D01*
X195181486Y-81260004D01*
X195136037Y-81309385D01*
X195086444Y-81363541D01*
X195034765Y-81420203D01*
X194983062Y-81477101D01*
X194933394Y-81531966D01*
X194887821Y-81582528D01*
X194848403Y-81626518D01*
X194817200Y-81661666D01*
X194796272Y-81685702D01*
X194789407Y-81693970D01*
X194767279Y-81722101D01*
X194794433Y-81844403D01*
X194816739Y-81950631D01*
X194834083Y-82047850D01*
X194847121Y-82141735D01*
X194856510Y-82237962D01*
X194862907Y-82342207D01*
X194866967Y-82460146D01*
X194867309Y-82474675D01*
X194868568Y-82637888D01*
X194864193Y-82786876D01*
X194853664Y-82926830D01*
X194836461Y-83062942D01*
X194812064Y-83200404D01*
X194780284Y-83343041D01*
X194710789Y-83587762D01*
X194622933Y-83825227D01*
X194517423Y-84054470D01*
X194394968Y-84274526D01*
X194256273Y-84484433D01*
X194102045Y-84683224D01*
X193932992Y-84869935D01*
X193749821Y-85043601D01*
X193553239Y-85203259D01*
X193343953Y-85347943D01*
X193282905Y-85385801D01*
X193074556Y-85501464D01*
X192856609Y-85602640D01*
X192632404Y-85688073D01*
X192405279Y-85756505D01*
X192178575Y-85806676D01*
X192154514Y-85810905D01*
X192101739Y-85821648D01*
X192067687Y-85832727D01*
X192051262Y-85844210D01*
X192042155Y-85857197D01*
X192023393Y-85884248D01*
X191996693Y-85922878D01*
X191963771Y-85970602D01*
X191926344Y-86024934D01*
X191896813Y-86067850D01*
X191786638Y-86224266D01*
X191682994Y-86363379D01*
X191584751Y-86486447D01*
X191490779Y-86594726D01*
X191399947Y-86689474D01*
X191311125Y-86771947D01*
X191223182Y-86843404D01*
X191156812Y-86890730D01*
X191098318Y-86926445D01*
X191030978Y-86961842D01*
X190961181Y-86993965D01*
X190895315Y-87019856D01*
X190843843Y-87035591D01*
X190761512Y-87050208D01*
X190672421Y-87056709D01*
X190585323Y-87054792D01*
X190521152Y-87046657D01*
X190402179Y-87013910D01*
X190288155Y-86961740D01*
X190179234Y-86890223D01*
X190141530Y-86859949D01*
X190112427Y-86837286D01*
X190088738Y-86825522D01*
X190061805Y-86821231D01*
X190042662Y-86820815D01*
X189908121Y-86812929D01*
X189771604Y-86790158D01*
X189739137Y-86781346D01*
X190481084Y-86781346D01*
X190494983Y-86790064D01*
X190508032Y-86794139D01*
X190527074Y-86796330D01*
X190560010Y-86797403D01*
X190600677Y-86797200D01*
X190613447Y-86796867D01*
X190672011Y-86792639D01*
X190720335Y-86782911D01*
X190761819Y-86768401D01*
X190829682Y-86737416D01*
X190890414Y-86701932D01*
X190949431Y-86658231D01*
X191012146Y-86602593D01*
X191034380Y-86581172D01*
X191067191Y-86548486D01*
X191091578Y-86523051D01*
X191105736Y-86506852D01*
X191107856Y-86501874D01*
X191105384Y-86503173D01*
X191001616Y-86567621D01*
X190911955Y-86619015D01*
X190835637Y-86657793D01*
X190831984Y-86659489D01*
X190778107Y-86682581D01*
X190716402Y-86706180D01*
X190652451Y-86728408D01*
X190591835Y-86747389D01*
X190540136Y-86761245D01*
X190512927Y-86766782D01*
X190487102Y-86773379D01*
X190481084Y-86781346D01*
X189739137Y-86781346D01*
X189637737Y-86753825D01*
X189511144Y-86705258D01*
X189396453Y-86645782D01*
X189366563Y-86627001D01*
X189331991Y-86606886D01*
X189298010Y-86591252D01*
X189278190Y-86584995D01*
X189252049Y-86577229D01*
X189215308Y-86563201D01*
X189175274Y-86545733D01*
X189169435Y-86542989D01*
X189089123Y-86493914D01*
X189088993Y-86493792D01*
X190066669Y-86493792D01*
X190069999Y-86501751D01*
X190079384Y-86512513D01*
X190081598Y-86514871D01*
X190094158Y-86527256D01*
X190106640Y-86534914D01*
X190122927Y-86537960D01*
X190146900Y-86536512D01*
X190182443Y-86530688D01*
X190233438Y-86520604D01*
X190238370Y-86519603D01*
X190279396Y-86510455D01*
X190326398Y-86498687D01*
X190375741Y-86485374D01*
X190423793Y-86471590D01*
X190466919Y-86458410D01*
X190501485Y-86446909D01*
X190523859Y-86438161D01*
X190530406Y-86433241D01*
X190530398Y-86433234D01*
X190519540Y-86433192D01*
X190493731Y-86436240D01*
X190457757Y-86441770D01*
X190442435Y-86444392D01*
X190398636Y-86451056D01*
X190342173Y-86458162D01*
X190280417Y-86464848D01*
X190222253Y-86470133D01*
X190160417Y-86475179D01*
X190116267Y-86479329D01*
X190087477Y-86483320D01*
X190071719Y-86487895D01*
X190066669Y-86493792D01*
X189088993Y-86493792D01*
X189019487Y-86428567D01*
X188961197Y-86348088D01*
X188914928Y-86253614D01*
X188881349Y-86146284D01*
X188861134Y-86027236D01*
X188860317Y-86019307D01*
X188853253Y-85976136D01*
X188840847Y-85924945D01*
X188825660Y-85876170D01*
X188824179Y-85872079D01*
X188784882Y-85751128D01*
X188779826Y-85731526D01*
X188975464Y-85731526D01*
X188979844Y-85803336D01*
X188984281Y-85847065D01*
X188993317Y-85882917D01*
X189009842Y-85920429D01*
X189022426Y-85943889D01*
X189107855Y-86082070D01*
X189200609Y-86202106D01*
X189301325Y-86304786D01*
X189343447Y-86340741D01*
X189403684Y-86389540D01*
X189468941Y-86383318D01*
X189502933Y-86379561D01*
X189528013Y-86375824D01*
X189538381Y-86373065D01*
X189540532Y-86370362D01*
X189538616Y-86366798D01*
X189529476Y-86360137D01*
X189509958Y-86348146D01*
X189476903Y-86328588D01*
X189468941Y-86323897D01*
X189359216Y-86249962D01*
X189260691Y-86163508D01*
X189171763Y-86062746D01*
X189090828Y-85945886D01*
X189025366Y-85829142D01*
X188975464Y-85731526D01*
X188779826Y-85731526D01*
X188749168Y-85612671D01*
X188717519Y-85459038D01*
X188690418Y-85292562D01*
X188669271Y-85124135D01*
X188664658Y-85071569D01*
X188660788Y-85007612D01*
X188657681Y-84935310D01*
X188655360Y-84857708D01*
X188653845Y-84777852D01*
X188653158Y-84698788D01*
X188653320Y-84623562D01*
X188654352Y-84555219D01*
X188656276Y-84496806D01*
X188659113Y-84451367D01*
X188662885Y-84421949D01*
X188664314Y-84416348D01*
X188669848Y-84401161D01*
X188672923Y-84400391D01*
X188674402Y-84416069D01*
X188675013Y-84441447D01*
X188678272Y-84521211D01*
X188685297Y-84615932D01*
X188695494Y-84720968D01*
X188708270Y-84831675D01*
X188723030Y-84943411D01*
X188739181Y-85051534D01*
X188756129Y-85151399D01*
X188773281Y-85238365D01*
X188781585Y-85274886D01*
X188796925Y-85336030D01*
X188813183Y-85396333D01*
X188829431Y-85452813D01*
X188844742Y-85502483D01*
X188858185Y-85542360D01*
X188868833Y-85569459D01*
X188875756Y-85580795D01*
X188876778Y-85580829D01*
X188885999Y-85564577D01*
X188890609Y-85532652D01*
X188890614Y-85488920D01*
X188886021Y-85437250D01*
X188876838Y-85381507D01*
X188876392Y-85379326D01*
X188861849Y-85304500D01*
X188850032Y-85232880D01*
X188840660Y-85161058D01*
X188833455Y-85085627D01*
X188828137Y-85003177D01*
X188824426Y-84910301D01*
X188822042Y-84803588D01*
X188820875Y-84702475D01*
X188819310Y-84506956D01*
X188877100Y-84506956D01*
X188878065Y-84545967D01*
X188880056Y-84594540D01*
X188882900Y-84649191D01*
X188886423Y-84706434D01*
X188890448Y-84762784D01*
X188894802Y-84814755D01*
X188897567Y-84843028D01*
X188903144Y-84890152D01*
X188910554Y-84944187D01*
X188919138Y-85001193D01*
X188928237Y-85057228D01*
X188937191Y-85108349D01*
X188945341Y-85150616D01*
X188952029Y-85180086D01*
X188955894Y-85191820D01*
X188961315Y-85187742D01*
X188971257Y-85167633D01*
X188984364Y-85134660D01*
X188999276Y-85091990D01*
X189001110Y-85086405D01*
X189023697Y-85019050D01*
X189043895Y-84962489D01*
X189060941Y-84918646D01*
X189074070Y-84889443D01*
X189082519Y-84876805D01*
X189084386Y-84876786D01*
X189084048Y-84887656D01*
X189080049Y-84914247D01*
X189073051Y-84952672D01*
X189063717Y-84999042D01*
X189062777Y-85003514D01*
X189049958Y-85066810D01*
X189036305Y-85138433D01*
X189023804Y-85207785D01*
X189017372Y-85245791D01*
X188997827Y-85365591D01*
X189028335Y-85453183D01*
X189053863Y-85520352D01*
X189085430Y-85594006D01*
X189120376Y-85668616D01*
X189156045Y-85738649D01*
X189189777Y-85798572D01*
X189208609Y-85828304D01*
X189256483Y-85891710D01*
X189314581Y-85957028D01*
X189376813Y-86017937D01*
X189437094Y-86068117D01*
X189445446Y-86074224D01*
X189475831Y-86094204D01*
X189513249Y-86116218D01*
X189553690Y-86138237D01*
X189593144Y-86158235D01*
X189627603Y-86174183D01*
X189653055Y-86184054D01*
X189665493Y-86185821D01*
X189665737Y-86185626D01*
X189663889Y-86175188D01*
X189655208Y-86151359D01*
X189641460Y-86118890D01*
X189638405Y-86112103D01*
X189608765Y-86043892D01*
X189575422Y-85962243D01*
X189540559Y-85872917D01*
X189506359Y-85781672D01*
X189475006Y-85694268D01*
X189448680Y-85616465D01*
X189439005Y-85585953D01*
X189422274Y-85530029D01*
X189404222Y-85466822D01*
X189385662Y-85399489D01*
X189367406Y-85331185D01*
X189350266Y-85265066D01*
X189335055Y-85204286D01*
X189322585Y-85152002D01*
X189313669Y-85111370D01*
X189309118Y-85085544D01*
X189308705Y-85079821D01*
X189312366Y-85083668D01*
X189322576Y-85104189D01*
X189338474Y-85139399D01*
X189359196Y-85187311D01*
X189383879Y-85245941D01*
X189411659Y-85313301D01*
X189432688Y-85365083D01*
X189476776Y-85473436D01*
X189515540Y-85566463D01*
X189550616Y-85647671D01*
X189583643Y-85720567D01*
X189616257Y-85788659D01*
X189650096Y-85855454D01*
X189686797Y-85924459D01*
X189727999Y-85999181D01*
X189732450Y-86007140D01*
X189772493Y-86078135D01*
X189804433Y-86133301D01*
X189829597Y-86174534D01*
X189849313Y-86203731D01*
X189864908Y-86222788D01*
X189877710Y-86233604D01*
X189889047Y-86238074D01*
X189894397Y-86238522D01*
X189912593Y-86233174D01*
X189942575Y-86218741D01*
X189979669Y-86197636D01*
X190007551Y-86180063D01*
X190048474Y-86151906D01*
X190099156Y-86115100D01*
X190153935Y-86073858D01*
X190207148Y-86032393D01*
X190221989Y-86020516D01*
X190231612Y-86012633D01*
X190814238Y-86012633D01*
X190819257Y-86017653D01*
X190824277Y-86012633D01*
X190819257Y-86007613D01*
X190814238Y-86012633D01*
X190231612Y-86012633D01*
X190241974Y-86004145D01*
X190834317Y-86004145D01*
X190841991Y-86002243D01*
X190864931Y-85987534D01*
X190903011Y-85960106D01*
X190956107Y-85920046D01*
X190983033Y-85899337D01*
X191016843Y-85872481D01*
X191043148Y-85850167D01*
X191058858Y-85835107D01*
X191061794Y-85830163D01*
X191052951Y-85834416D01*
X191031924Y-85848606D01*
X191002177Y-85870082D01*
X190967171Y-85896196D01*
X190930370Y-85924300D01*
X190895236Y-85951746D01*
X190865232Y-85975885D01*
X190843822Y-85994068D01*
X190834467Y-86003647D01*
X190834317Y-86004145D01*
X190241974Y-86004145D01*
X190265201Y-85985119D01*
X190312645Y-85945302D01*
X190362022Y-85903099D01*
X190411033Y-85860547D01*
X190457379Y-85819681D01*
X190498763Y-85782537D01*
X190532884Y-85751151D01*
X190557444Y-85727558D01*
X190570145Y-85713794D01*
X190571293Y-85711191D01*
X190561251Y-85706791D01*
X190536082Y-85696955D01*
X190499530Y-85683119D01*
X190455337Y-85666716D01*
X190453079Y-85665885D01*
X190219246Y-85569659D01*
X189993522Y-85456228D01*
X189777262Y-85326596D01*
X189571822Y-85181764D01*
X189378558Y-85022735D01*
X189198825Y-84850509D01*
X189033979Y-84666090D01*
X188942310Y-84549372D01*
X188916959Y-84516100D01*
X188896050Y-84489929D01*
X188882436Y-84474361D01*
X188878952Y-84471566D01*
X188877338Y-84480994D01*
X188877100Y-84506956D01*
X188819310Y-84506956D01*
X188818263Y-84376190D01*
X188751137Y-84265755D01*
X188628614Y-84045020D01*
X188524006Y-83815400D01*
X188437274Y-83576785D01*
X188368383Y-83329064D01*
X188317295Y-83072124D01*
X188293074Y-82895360D01*
X188288394Y-82839450D01*
X188284923Y-82768085D01*
X188282662Y-82685853D01*
X188281611Y-82597343D01*
X188281770Y-82507142D01*
X188283139Y-82419838D01*
X188285718Y-82340019D01*
X188289507Y-82272274D01*
X188293074Y-82232751D01*
X188332469Y-81969095D01*
X188389930Y-81714193D01*
X188465476Y-81468003D01*
X188559126Y-81230476D01*
X188670897Y-81001568D01*
X188800810Y-80781234D01*
X188948882Y-80569427D01*
X189006111Y-80495913D01*
X189057221Y-80435023D01*
X189119479Y-80365573D01*
X189188662Y-80291922D01*
X189260548Y-80218432D01*
X189330915Y-80149463D01*
X189395540Y-80089376D01*
X189423763Y-80064556D01*
X189625679Y-79904277D01*
X189837979Y-79761032D01*
X190059903Y-79635151D01*
X190290689Y-79526966D01*
X190529575Y-79436810D01*
X190775800Y-79365014D01*
X191028602Y-79311910D01*
X191210799Y-79285835D01*
X191285512Y-79279075D01*
X191374570Y-79274082D01*
X191472761Y-79270896D01*
X191574874Y-79269557D01*
X191675697Y-79270107D01*
X191770019Y-79272584D01*
X191852628Y-79277030D01*
X191893487Y-79280564D01*
X192153481Y-79316969D01*
X192405394Y-79371731D01*
X192649439Y-79444937D01*
X192885830Y-79536676D01*
X193114782Y-79647037D01*
X193336508Y-79776107D01*
X193551222Y-79923976D01*
X193665463Y-80012589D01*
X193709285Y-80049702D01*
X193761555Y-80096734D01*
X193819226Y-80150680D01*
X193879251Y-80208536D01*
X193938584Y-80267294D01*
X193994179Y-80323951D01*
X194042989Y-80375500D01*
X194081968Y-80418936D01*
X194102182Y-80443431D01*
X194123422Y-80469891D01*
X194139755Y-80488627D01*
X194147360Y-80495399D01*
X194152913Y-80486841D01*
X194166348Y-80462423D01*
X194186570Y-80424244D01*
X194212484Y-80374406D01*
X194242997Y-80315006D01*
X194277011Y-80248147D01*
X194300248Y-80202146D01*
X194372294Y-80060593D01*
X194441583Y-79927358D01*
X194507514Y-79803480D01*
X194569487Y-79689997D01*
X194626901Y-79587948D01*
X194679157Y-79498372D01*
X194725654Y-79422308D01*
X194765791Y-79360795D01*
X194798969Y-79314872D01*
X194824586Y-79285578D01*
X194834668Y-79277296D01*
X194852102Y-79266953D01*
X194858354Y-79267025D01*
G36*
X194858354Y-79267025D02*
G01*
X194853097Y-79279126D01*
X194836000Y-79304867D01*
X194826190Y-79318756D01*
X194807840Y-79345842D01*
X194789861Y-79375573D01*
X194771125Y-79410325D01*
X194750503Y-79452477D01*
X194726868Y-79504406D01*
X194699091Y-79568489D01*
X194666043Y-79647105D01*
X194636622Y-79718244D01*
X194611600Y-79779670D01*
X194580740Y-79856444D01*
X194545379Y-79945161D01*
X194506855Y-80042415D01*
X194466506Y-80144801D01*
X194425670Y-80248915D01*
X194385686Y-80351352D01*
X194347891Y-80448706D01*
X194313623Y-80537572D01*
X194284220Y-80614545D01*
X194278369Y-80629988D01*
X194267532Y-80658648D01*
X194211220Y-80581539D01*
X194186322Y-80549301D01*
X194165298Y-80525500D01*
X194151057Y-80513255D01*
X194147006Y-80512721D01*
X194141388Y-80522970D01*
X194127808Y-80549788D01*
X194107013Y-80591649D01*
X194079749Y-80647028D01*
X194046761Y-80714401D01*
X194008796Y-80792243D01*
X193966599Y-80879029D01*
X193920917Y-80973233D01*
X193872495Y-81073332D01*
X193853172Y-81113344D01*
X193741921Y-81343675D01*
X193638687Y-81557119D01*
X193542860Y-81754925D01*
X193453831Y-81938337D01*
X193370990Y-82108603D01*
X193293727Y-82266968D01*
X193221434Y-82414678D01*
X193153500Y-82552980D01*
X193089316Y-82683120D01*
X193028273Y-82806344D01*
X192969761Y-82923899D01*
X192913170Y-83037030D01*
X192880958Y-83101170D01*
X192837299Y-83188492D01*
X192800018Y-83263559D01*
X192767790Y-83328093D01*
X192739287Y-83383820D01*
X192713185Y-83432462D01*
X192688158Y-83475744D01*
X192662879Y-83515388D01*
X192636022Y-83553118D01*
X192606263Y-83590659D01*
X192572274Y-83629733D01*
X192532730Y-83672065D01*
X192486305Y-83719378D01*
X192431674Y-83773396D01*
X192367510Y-83835842D01*
X192292487Y-83908440D01*
X192205280Y-83992913D01*
X192164554Y-84032491D01*
X192091095Y-84104369D01*
X192019228Y-84175443D01*
X191950826Y-84243806D01*
X191887766Y-84307553D01*
X191831923Y-84364777D01*
X191785171Y-84413572D01*
X191749386Y-84452031D01*
X191728557Y-84475693D01*
X191671906Y-84542302D01*
X191603212Y-84621063D01*
X191524482Y-84709789D01*
X191437725Y-84806292D01*
X191344952Y-84908383D01*
X191248170Y-85013873D01*
X191149390Y-85120576D01*
X191050620Y-85226303D01*
X190953869Y-85328865D01*
X190861146Y-85426074D01*
X190774461Y-85515743D01*
X190760277Y-85530276D01*
X190712303Y-85579495D01*
X190669468Y-85623708D01*
X190633624Y-85660984D01*
X190606621Y-85689390D01*
X190590311Y-85706992D01*
X190586216Y-85712010D01*
X190598556Y-85716406D01*
X190626514Y-85724450D01*
X190666177Y-85735143D01*
X190713627Y-85747487D01*
X190764951Y-85760484D01*
X190816232Y-85773137D01*
X190863556Y-85784446D01*
X190903007Y-85793415D01*
X190918248Y-85796646D01*
X190982725Y-85808804D01*
X191029584Y-85815207D01*
X191060406Y-85815973D01*
X191076773Y-85811219D01*
X191079197Y-85808583D01*
X191088789Y-85799119D01*
X191110492Y-85780312D01*
X191140665Y-85755264D01*
X191162616Y-85737490D01*
X191240917Y-85674677D01*
X191082457Y-85824133D01*
X191116509Y-85830227D01*
X191176866Y-85838957D01*
X191249208Y-85846029D01*
X191330794Y-85851462D01*
X191418882Y-85855277D01*
X191510733Y-85857494D01*
X191603604Y-85858133D01*
X191694756Y-85857214D01*
X191781446Y-85854757D01*
X191860934Y-85850782D01*
X191930479Y-85845310D01*
X191987339Y-85838359D01*
X192028774Y-85829951D01*
X192046727Y-85823418D01*
X192058207Y-85811573D01*
X192078525Y-85784044D01*
X192106600Y-85742607D01*
X192141347Y-85689034D01*
X192181685Y-85625098D01*
X192226531Y-85552575D01*
X192274802Y-85473236D01*
X192325416Y-85388857D01*
X192377290Y-85301210D01*
X192429340Y-85212069D01*
X192480486Y-85123208D01*
X192529643Y-85036401D01*
X192556313Y-84988601D01*
X192598634Y-84913587D01*
X192644086Y-84835270D01*
X192690021Y-84758062D01*
X192733788Y-84686374D01*
X192772738Y-84624618D01*
X192797502Y-84587020D01*
X192834553Y-84530446D01*
X192877582Y-84461712D01*
X192923202Y-84386417D01*
X192968025Y-84310161D01*
X193008663Y-84238546D01*
X193012729Y-84231199D01*
X193062622Y-84143052D01*
X193111686Y-84061585D01*
X193163448Y-83981318D01*
X193221438Y-83896778D01*
X193287701Y-83804519D01*
X193429597Y-83606263D01*
X193563685Y-83410387D01*
X193693082Y-83212061D01*
X193820904Y-83006452D01*
X193950269Y-82788732D01*
X194010383Y-82684530D01*
X194046454Y-82622546D01*
X194079279Y-82569042D01*
X194111815Y-82519826D01*
X194147021Y-82470706D01*
X194187857Y-82417488D01*
X194237280Y-82355981D01*
X194272523Y-82313068D01*
X194321164Y-82254066D01*
X194369546Y-82195214D01*
X194414927Y-82139860D01*
X194454562Y-82091355D01*
X194485709Y-82053046D01*
X194498674Y-82036981D01*
X194529876Y-81998543D01*
X194569381Y-81950481D01*
X194612496Y-81898473D01*
X194654528Y-81848201D01*
X194661477Y-81839940D01*
X194695700Y-81798501D01*
X194724739Y-81761815D01*
X194746326Y-81732870D01*
X194758192Y-81714651D01*
X194759771Y-81710508D01*
X194757093Y-81695432D01*
X194750201Y-81668033D01*
X194740810Y-81634213D01*
X194730635Y-81599871D01*
X194721392Y-81570911D01*
X194714794Y-81553231D01*
X194713329Y-81550690D01*
X194704563Y-81554755D01*
X194685725Y-81569674D01*
X194662364Y-81590848D01*
X194639194Y-81611726D01*
X194628348Y-81618645D01*
X194630451Y-81611214D01*
X194631004Y-81610301D01*
X194645041Y-81585895D01*
X194662309Y-81553840D01*
X194669121Y-81540666D01*
X194682822Y-81514914D01*
X194691224Y-81504914D01*
X194697840Y-81508376D01*
X194703604Y-81518170D01*
X194709007Y-81526384D01*
X194715831Y-81529199D01*
X194726657Y-81525001D01*
X194744065Y-81512177D01*
X194770635Y-81489111D01*
X194808950Y-81454192D01*
X194815391Y-81448271D01*
X194929022Y-81344673D01*
X195030253Y-81254322D01*
X195120579Y-81175970D01*
X195201496Y-81108370D01*
X195274500Y-81050275D01*
X195341087Y-81000437D01*
X195402751Y-80957609D01*
X195407321Y-80954577D01*
X195489052Y-80903970D01*
X195558989Y-80867945D01*
X195616784Y-80846626D01*
X195662090Y-80840137D01*
X195694559Y-80848601D01*
X195698467Y-80851296D01*
X195709184Y-80860683D01*
X195707189Y-80865267D01*
X195689573Y-80866836D01*
X195672824Y-80867057D01*
X195628065Y-80873695D01*
X195583657Y-80894938D01*
X195581679Y-80896182D01*
X195546515Y-80921027D01*
X195500972Y-80956953D01*
X195448749Y-81000724D01*
X195393548Y-81049107D01*
X195339067Y-81098865D01*
X195289009Y-81146764D01*
X195251708Y-81184646D01*
X195220729Y-81217668D01*
X195181486Y-81260004D01*
X195136037Y-81309385D01*
X195086444Y-81363541D01*
X195034765Y-81420203D01*
X194983062Y-81477101D01*
X194933394Y-81531966D01*
X194887821Y-81582528D01*
X194848403Y-81626518D01*
X194817200Y-81661666D01*
X194796272Y-81685702D01*
X194789407Y-81693970D01*
X194767279Y-81722101D01*
X194794433Y-81844403D01*
X194816739Y-81950631D01*
X194834083Y-82047850D01*
X194847121Y-82141735D01*
X194856510Y-82237962D01*
X194862907Y-82342207D01*
X194866967Y-82460146D01*
X194867309Y-82474675D01*
X194868568Y-82637888D01*
X194864193Y-82786876D01*
X194853664Y-82926830D01*
X194836461Y-83062942D01*
X194812064Y-83200404D01*
X194780284Y-83343041D01*
X194710789Y-83587762D01*
X194622933Y-83825227D01*
X194517423Y-84054470D01*
X194394968Y-84274526D01*
X194256273Y-84484433D01*
X194102045Y-84683224D01*
X193932992Y-84869935D01*
X193749821Y-85043601D01*
X193553239Y-85203259D01*
X193343953Y-85347943D01*
X193282905Y-85385801D01*
X193074556Y-85501464D01*
X192856609Y-85602640D01*
X192632404Y-85688073D01*
X192405279Y-85756505D01*
X192178575Y-85806676D01*
X192154514Y-85810905D01*
X192101739Y-85821648D01*
X192067687Y-85832727D01*
X192051262Y-85844210D01*
X192042155Y-85857197D01*
X192023393Y-85884248D01*
X191996693Y-85922878D01*
X191963771Y-85970602D01*
X191926344Y-86024934D01*
X191896813Y-86067850D01*
X191786638Y-86224266D01*
X191682994Y-86363379D01*
X191584751Y-86486447D01*
X191490779Y-86594726D01*
X191399947Y-86689474D01*
X191311125Y-86771947D01*
X191223182Y-86843404D01*
X191156812Y-86890730D01*
X191098318Y-86926445D01*
X191030978Y-86961842D01*
X190961181Y-86993965D01*
X190895315Y-87019856D01*
X190843843Y-87035591D01*
X190761512Y-87050208D01*
X190672421Y-87056709D01*
X190585323Y-87054792D01*
X190521152Y-87046657D01*
X190402179Y-87013910D01*
X190288155Y-86961740D01*
X190179234Y-86890223D01*
X190141530Y-86859949D01*
X190112427Y-86837286D01*
X190088738Y-86825522D01*
X190061805Y-86821231D01*
X190042662Y-86820815D01*
X189908121Y-86812929D01*
X189771604Y-86790158D01*
X189739137Y-86781346D01*
X190481084Y-86781346D01*
X190494983Y-86790064D01*
X190508032Y-86794139D01*
X190527074Y-86796330D01*
X190560010Y-86797403D01*
X190600677Y-86797200D01*
X190613447Y-86796867D01*
X190672011Y-86792639D01*
X190720335Y-86782911D01*
X190761819Y-86768401D01*
X190829682Y-86737416D01*
X190890414Y-86701932D01*
X190949431Y-86658231D01*
X191012146Y-86602593D01*
X191034380Y-86581172D01*
X191067191Y-86548486D01*
X191091578Y-86523051D01*
X191105736Y-86506852D01*
X191107856Y-86501874D01*
X191105384Y-86503173D01*
X191001616Y-86567621D01*
X190911955Y-86619015D01*
X190835637Y-86657793D01*
X190831984Y-86659489D01*
X190778107Y-86682581D01*
X190716402Y-86706180D01*
X190652451Y-86728408D01*
X190591835Y-86747389D01*
X190540136Y-86761245D01*
X190512927Y-86766782D01*
X190487102Y-86773379D01*
X190481084Y-86781346D01*
X189739137Y-86781346D01*
X189637737Y-86753825D01*
X189511144Y-86705258D01*
X189396453Y-86645782D01*
X189366563Y-86627001D01*
X189331991Y-86606886D01*
X189298010Y-86591252D01*
X189278190Y-86584995D01*
X189252049Y-86577229D01*
X189215308Y-86563201D01*
X189175274Y-86545733D01*
X189169435Y-86542989D01*
X189089123Y-86493914D01*
X189088993Y-86493792D01*
X190066669Y-86493792D01*
X190069999Y-86501751D01*
X190079384Y-86512513D01*
X190081598Y-86514871D01*
X190094158Y-86527256D01*
X190106640Y-86534914D01*
X190122927Y-86537960D01*
X190146900Y-86536512D01*
X190182443Y-86530688D01*
X190233438Y-86520604D01*
X190238370Y-86519603D01*
X190279396Y-86510455D01*
X190326398Y-86498687D01*
X190375741Y-86485374D01*
X190423793Y-86471590D01*
X190466919Y-86458410D01*
X190501485Y-86446909D01*
X190523859Y-86438161D01*
X190530406Y-86433241D01*
X190530398Y-86433234D01*
X190519540Y-86433192D01*
X190493731Y-86436240D01*
X190457757Y-86441770D01*
X190442435Y-86444392D01*
X190398636Y-86451056D01*
X190342173Y-86458162D01*
X190280417Y-86464848D01*
X190222253Y-86470133D01*
X190160417Y-86475179D01*
X190116267Y-86479329D01*
X190087477Y-86483320D01*
X190071719Y-86487895D01*
X190066669Y-86493792D01*
X189088993Y-86493792D01*
X189019487Y-86428567D01*
X188961197Y-86348088D01*
X188914928Y-86253614D01*
X188881349Y-86146284D01*
X188861134Y-86027236D01*
X188860317Y-86019307D01*
X188853253Y-85976136D01*
X188840847Y-85924945D01*
X188825660Y-85876170D01*
X188824179Y-85872079D01*
X188784882Y-85751128D01*
X188779826Y-85731526D01*
X188975464Y-85731526D01*
X188979844Y-85803336D01*
X188984281Y-85847065D01*
X188993317Y-85882917D01*
X189009842Y-85920429D01*
X189022426Y-85943889D01*
X189107855Y-86082070D01*
X189200609Y-86202106D01*
X189301325Y-86304786D01*
X189343447Y-86340741D01*
X189403684Y-86389540D01*
X189468941Y-86383318D01*
X189502933Y-86379561D01*
X189528013Y-86375824D01*
X189538381Y-86373065D01*
X189540532Y-86370362D01*
X189538616Y-86366798D01*
X189529476Y-86360137D01*
X189509958Y-86348146D01*
X189476903Y-86328588D01*
X189468941Y-86323897D01*
X189359216Y-86249962D01*
X189260691Y-86163508D01*
X189171763Y-86062746D01*
X189090828Y-85945886D01*
X189025366Y-85829142D01*
X188975464Y-85731526D01*
X188779826Y-85731526D01*
X188749168Y-85612671D01*
X188717519Y-85459038D01*
X188690418Y-85292562D01*
X188669271Y-85124135D01*
X188664658Y-85071569D01*
X188660788Y-85007612D01*
X188657681Y-84935310D01*
X188655360Y-84857708D01*
X188653845Y-84777852D01*
X188653158Y-84698788D01*
X188653320Y-84623562D01*
X188654352Y-84555219D01*
X188656276Y-84496806D01*
X188659113Y-84451367D01*
X188662885Y-84421949D01*
X188664314Y-84416348D01*
X188669848Y-84401161D01*
X188672923Y-84400391D01*
X188674402Y-84416069D01*
X188675013Y-84441447D01*
X188678272Y-84521211D01*
X188685297Y-84615932D01*
X188695494Y-84720968D01*
X188708270Y-84831675D01*
X188723030Y-84943411D01*
X188739181Y-85051534D01*
X188756129Y-85151399D01*
X188773281Y-85238365D01*
X188781585Y-85274886D01*
X188796925Y-85336030D01*
X188813183Y-85396333D01*
X188829431Y-85452813D01*
X188844742Y-85502483D01*
X188858185Y-85542360D01*
X188868833Y-85569459D01*
X188875756Y-85580795D01*
X188876778Y-85580829D01*
X188885999Y-85564577D01*
X188890609Y-85532652D01*
X188890614Y-85488920D01*
X188886021Y-85437250D01*
X188876838Y-85381507D01*
X188876392Y-85379326D01*
X188861849Y-85304500D01*
X188850032Y-85232880D01*
X188840660Y-85161058D01*
X188833455Y-85085627D01*
X188828137Y-85003177D01*
X188824426Y-84910301D01*
X188822042Y-84803588D01*
X188820875Y-84702475D01*
X188819310Y-84506956D01*
X188877100Y-84506956D01*
X188878065Y-84545967D01*
X188880056Y-84594540D01*
X188882900Y-84649191D01*
X188886423Y-84706434D01*
X188890448Y-84762784D01*
X188894802Y-84814755D01*
X188897567Y-84843028D01*
X188903144Y-84890152D01*
X188910554Y-84944187D01*
X188919138Y-85001193D01*
X188928237Y-85057228D01*
X188937191Y-85108349D01*
X188945341Y-85150616D01*
X188952029Y-85180086D01*
X188955894Y-85191820D01*
X188961315Y-85187742D01*
X188971257Y-85167633D01*
X188984364Y-85134660D01*
X188999276Y-85091990D01*
X189001110Y-85086405D01*
X189023697Y-85019050D01*
X189043895Y-84962489D01*
X189060941Y-84918646D01*
X189074070Y-84889443D01*
X189082519Y-84876805D01*
X189084386Y-84876786D01*
X189084048Y-84887656D01*
X189080049Y-84914247D01*
X189073051Y-84952672D01*
X189063717Y-84999042D01*
X189062777Y-85003514D01*
X189049958Y-85066810D01*
X189036305Y-85138433D01*
X189023804Y-85207785D01*
X189017372Y-85245791D01*
X188997827Y-85365591D01*
X189028335Y-85453183D01*
X189053863Y-85520352D01*
X189085430Y-85594006D01*
X189120376Y-85668616D01*
X189156045Y-85738649D01*
X189189777Y-85798572D01*
X189208609Y-85828304D01*
X189256483Y-85891710D01*
X189314581Y-85957028D01*
X189376813Y-86017937D01*
X189437094Y-86068117D01*
X189445446Y-86074224D01*
X189475831Y-86094204D01*
X189513249Y-86116218D01*
X189553690Y-86138237D01*
X189593144Y-86158235D01*
X189627603Y-86174183D01*
X189653055Y-86184054D01*
X189665493Y-86185821D01*
X189665737Y-86185626D01*
X189663889Y-86175188D01*
X189655208Y-86151359D01*
X189641460Y-86118890D01*
X189638405Y-86112103D01*
X189608765Y-86043892D01*
X189575422Y-85962243D01*
X189540559Y-85872917D01*
X189506359Y-85781672D01*
X189475006Y-85694268D01*
X189448680Y-85616465D01*
X189439005Y-85585953D01*
X189422274Y-85530029D01*
X189404222Y-85466822D01*
X189385662Y-85399489D01*
X189367406Y-85331185D01*
X189350266Y-85265066D01*
X189335055Y-85204286D01*
X189322585Y-85152002D01*
X189313669Y-85111370D01*
X189309118Y-85085544D01*
X189308705Y-85079821D01*
X189312366Y-85083668D01*
X189322576Y-85104189D01*
X189338474Y-85139399D01*
X189359196Y-85187311D01*
X189383879Y-85245941D01*
X189411659Y-85313301D01*
X189432688Y-85365083D01*
X189476776Y-85473436D01*
X189515540Y-85566463D01*
X189550616Y-85647671D01*
X189583643Y-85720567D01*
X189616257Y-85788659D01*
X189650096Y-85855454D01*
X189686797Y-85924459D01*
X189727999Y-85999181D01*
X189732450Y-86007140D01*
X189772493Y-86078135D01*
X189804433Y-86133301D01*
X189829597Y-86174534D01*
X189849313Y-86203731D01*
X189864908Y-86222788D01*
X189877710Y-86233604D01*
X189889047Y-86238074D01*
X189894397Y-86238522D01*
X189912593Y-86233174D01*
X189942575Y-86218741D01*
X189979669Y-86197636D01*
X190007551Y-86180063D01*
X190048474Y-86151906D01*
X190099156Y-86115100D01*
X190153935Y-86073858D01*
X190207148Y-86032393D01*
X190221989Y-86020516D01*
X190231612Y-86012633D01*
X190814238Y-86012633D01*
X190819257Y-86017653D01*
X190824277Y-86012633D01*
X190819257Y-86007613D01*
X190814238Y-86012633D01*
X190231612Y-86012633D01*
X190241974Y-86004145D01*
X190834317Y-86004145D01*
X190841991Y-86002243D01*
X190864931Y-85987534D01*
X190903011Y-85960106D01*
X190956107Y-85920046D01*
X190983033Y-85899337D01*
X191016843Y-85872481D01*
X191043148Y-85850167D01*
X191058858Y-85835107D01*
X191061794Y-85830163D01*
X191052951Y-85834416D01*
X191031924Y-85848606D01*
X191002177Y-85870082D01*
X190967171Y-85896196D01*
X190930370Y-85924300D01*
X190895236Y-85951746D01*
X190865232Y-85975885D01*
X190843822Y-85994068D01*
X190834467Y-86003647D01*
X190834317Y-86004145D01*
X190241974Y-86004145D01*
X190265201Y-85985119D01*
X190312645Y-85945302D01*
X190362022Y-85903099D01*
X190411033Y-85860547D01*
X190457379Y-85819681D01*
X190498763Y-85782537D01*
X190532884Y-85751151D01*
X190557444Y-85727558D01*
X190570145Y-85713794D01*
X190571293Y-85711191D01*
X190561251Y-85706791D01*
X190536082Y-85696955D01*
X190499530Y-85683119D01*
X190455337Y-85666716D01*
X190453079Y-85665885D01*
X190219246Y-85569659D01*
X189993522Y-85456228D01*
X189777262Y-85326596D01*
X189571822Y-85181764D01*
X189378558Y-85022735D01*
X189198825Y-84850509D01*
X189033979Y-84666090D01*
X188942310Y-84549372D01*
X188916959Y-84516100D01*
X188896050Y-84489929D01*
X188882436Y-84474361D01*
X188878952Y-84471566D01*
X188877338Y-84480994D01*
X188877100Y-84506956D01*
X188819310Y-84506956D01*
X188818263Y-84376190D01*
X188751137Y-84265755D01*
X188628614Y-84045020D01*
X188524006Y-83815400D01*
X188437274Y-83576785D01*
X188368383Y-83329064D01*
X188317295Y-83072124D01*
X188293074Y-82895360D01*
X188288394Y-82839450D01*
X188284923Y-82768085D01*
X188282662Y-82685853D01*
X188281611Y-82597343D01*
X188281770Y-82507142D01*
X188283139Y-82419838D01*
X188285718Y-82340019D01*
X188289507Y-82272274D01*
X188293074Y-82232751D01*
X188332469Y-81969095D01*
X188389930Y-81714193D01*
X188465476Y-81468003D01*
X188559126Y-81230476D01*
X188670897Y-81001568D01*
X188800810Y-80781234D01*
X188948882Y-80569427D01*
X189006111Y-80495913D01*
X189057221Y-80435023D01*
X189119479Y-80365573D01*
X189188662Y-80291922D01*
X189260548Y-80218432D01*
X189330915Y-80149463D01*
X189395540Y-80089376D01*
X189423763Y-80064556D01*
X189625679Y-79904277D01*
X189837979Y-79761032D01*
X190059903Y-79635151D01*
X190290689Y-79526966D01*
X190529575Y-79436810D01*
X190775800Y-79365014D01*
X191028602Y-79311910D01*
X191210799Y-79285835D01*
X191285512Y-79279075D01*
X191374570Y-79274082D01*
X191472761Y-79270896D01*
X191574874Y-79269557D01*
X191675697Y-79270107D01*
X191770019Y-79272584D01*
X191852628Y-79277030D01*
X191893487Y-79280564D01*
X192153481Y-79316969D01*
X192405394Y-79371731D01*
X192649439Y-79444937D01*
X192885830Y-79536676D01*
X193114782Y-79647037D01*
X193336508Y-79776107D01*
X193551222Y-79923976D01*
X193665463Y-80012589D01*
X193709285Y-80049702D01*
X193761555Y-80096734D01*
X193819226Y-80150680D01*
X193879251Y-80208536D01*
X193938584Y-80267294D01*
X193994179Y-80323951D01*
X194042989Y-80375500D01*
X194081968Y-80418936D01*
X194102182Y-80443431D01*
X194123422Y-80469891D01*
X194139755Y-80488627D01*
X194147360Y-80495399D01*
X194152913Y-80486841D01*
X194166348Y-80462423D01*
X194186570Y-80424244D01*
X194212484Y-80374406D01*
X194242997Y-80315006D01*
X194277011Y-80248147D01*
X194300248Y-80202146D01*
X194372294Y-80060593D01*
X194441583Y-79927358D01*
X194507514Y-79803480D01*
X194569487Y-79689997D01*
X194626901Y-79587948D01*
X194679157Y-79498372D01*
X194725654Y-79422308D01*
X194765791Y-79360795D01*
X194798969Y-79314872D01*
X194824586Y-79285578D01*
X194834668Y-79277296D01*
X194852102Y-79266953D01*
X194858354Y-79267025D01*
G37*
D12*
G04 #@! TO.C,SW2*
X182034000Y-98382000D02*
X182434000Y-98382000D01*
X182034000Y-98382000D02*
X182034000Y-93642000D01*
X185434000Y-98382000D02*
X183374000Y-98382000D01*
X186774000Y-98382000D02*
X186374000Y-98382000D01*
X186774000Y-98382000D02*
X186774000Y-93642000D01*
X182034000Y-93642000D02*
X182434000Y-93642000D01*
X185434000Y-93642000D02*
X183374000Y-93642000D01*
X186774000Y-93642000D02*
X186374000Y-93642000D01*
D10*
G04 #@! TO.C,V4*
X105022780Y-109302420D02*
G75*
G03*
X105022780Y-109302420I-4013200J0D01*
G01*
D12*
G04 #@! TO.C,R3*
X159004724Y-97042500D02*
X158495276Y-97042500D01*
X159004724Y-95997500D02*
X158495276Y-95997500D01*
D14*
G04 #@! TO.C,U2*
X186882000Y-73186000D02*
X186882000Y-81246000D01*
X186182000Y-86106000D02*
X186182000Y-81246000D01*
X186182000Y-86106000D02*
X125222000Y-86106000D01*
X186182000Y-81246000D02*
X186882000Y-81246000D01*
X186182000Y-73186000D02*
X186882000Y-73186000D01*
X186182000Y-68326000D02*
X186182000Y-73186000D01*
X125222000Y-86106000D02*
X125222000Y-68326000D01*
X125222000Y-68326000D02*
X186182000Y-68326000D01*
D15*
X179932000Y-67716000D02*
G75*
G03*
X179932000Y-67716000I-100000J0D01*
G01*
D12*
G04 #@! TO.C,C4*
X103778267Y-90934000D02*
X103485733Y-90934000D01*
X103778267Y-89914000D02*
X103485733Y-89914000D01*
G04 #@! TO.C,R1*
X103377276Y-96505500D02*
X103886724Y-96505500D01*
X103377276Y-97550500D02*
X103886724Y-97550500D01*
G04 #@! TO.C,D2*
X105179000Y-86587000D02*
X105179000Y-85117000D01*
X105179000Y-85117000D02*
X102719000Y-85117000D01*
X102719000Y-86587000D02*
X105179000Y-86587000D01*
D10*
G04 #@! TO.C,Conn4*
X139827000Y-101219000D02*
X139827000Y-113157000D01*
X137922000Y-101219000D02*
X139827000Y-101219000D01*
X137922000Y-98679000D02*
X137922000Y-101219000D01*
X135382000Y-113157000D02*
X135382000Y-112649000D01*
X135382000Y-108839000D02*
X135382000Y-112649000D01*
X135382000Y-108839000D02*
X135382000Y-107569000D01*
X132842000Y-113157000D02*
X132842000Y-107569000D01*
X132842000Y-107569000D02*
X135382000Y-107569000D01*
X130302000Y-101219000D02*
X130302000Y-98679000D01*
X130302000Y-98679000D02*
X137922000Y-98679000D01*
X128397000Y-113157000D02*
X139827000Y-113157000D01*
X128397000Y-101219000D02*
X137922000Y-101219000D01*
X128397000Y-101219000D02*
X128397000Y-113157000D01*
D12*
G04 #@! TO.C,D3*
X189457000Y-102480000D02*
X187987000Y-102480000D01*
X187987000Y-102480000D02*
X187987000Y-104940000D01*
X189457000Y-104940000D02*
X189457000Y-102480000D01*
D10*
G04 #@! TO.C,Conn3*
X158877000Y-113157000D02*
X142367000Y-113157000D01*
X158877000Y-101219000D02*
X158877000Y-113157000D01*
X156972000Y-101219000D02*
X158877000Y-101219000D01*
X156972000Y-101219000D02*
X144272000Y-101219000D01*
X156972000Y-98679000D02*
X156972000Y-101219000D01*
X154432000Y-113157000D02*
X154432000Y-112649000D01*
X154432000Y-108839000D02*
X154432000Y-112649000D01*
X154432000Y-108839000D02*
X154432000Y-107569000D01*
X154432000Y-107569000D02*
X146812000Y-107569000D01*
X151892000Y-107569000D02*
X151892000Y-105029000D01*
X151892000Y-105029000D02*
X149352000Y-105029000D01*
X149352000Y-105029000D02*
X149352000Y-107569000D01*
X146812000Y-112649000D02*
X146812000Y-113157000D01*
X146812000Y-108839000D02*
X146812000Y-112649000D01*
X146812000Y-107569000D02*
X146812000Y-108839000D01*
X144272000Y-101219000D02*
X144272000Y-98679000D01*
X144272000Y-101219000D02*
X142367000Y-101219000D01*
X144272000Y-98679000D02*
X156972000Y-98679000D01*
X142367000Y-101219000D02*
X142367000Y-113157000D01*
D12*
G04 #@! TO.C,D4*
X189457000Y-91812000D02*
X187987000Y-91812000D01*
X187987000Y-91812000D02*
X187987000Y-94272000D01*
X189457000Y-94272000D02*
X189457000Y-91812000D01*
D10*
G04 #@! TO.C,Conn1*
X106032300Y-123140500D02*
X106032300Y-114250500D01*
X106057700Y-123140500D02*
X113931700Y-123140500D01*
X113931700Y-115418900D02*
X113931700Y-114250500D01*
X113931700Y-115393500D02*
X113931700Y-123140500D01*
X108343700Y-113107500D02*
X107200700Y-113107500D01*
X108343700Y-113107500D02*
X111645700Y-113107500D01*
X111620300Y-113107500D02*
X112788700Y-113107500D01*
X106057700Y-110821500D02*
X106057700Y-111964500D01*
X106057700Y-110821500D02*
X106057700Y-98527900D01*
X113931700Y-110821500D02*
X113931700Y-98527900D01*
X113931700Y-110796100D02*
X113931700Y-111989900D01*
X113931700Y-98502500D02*
X106057700Y-98502500D01*
X112814100Y-113107500D02*
G75*
G03*
X113931700Y-114225100I1117598J-2D01*
G01*
X106057700Y-114250500D02*
G75*
G03*
X107200700Y-113107500I0J1143000D01*
G01*
X113931700Y-111989900D02*
G75*
G03*
X112814100Y-113107500I-2J-1117598D01*
G01*
X107200700Y-113107500D02*
G75*
G03*
X106057700Y-111964500I-1143000J0D01*
G01*
G04 #@! TO.C,U1*
X106553000Y-80772000D02*
X106553000Y-70612000D01*
X112903000Y-80772000D02*
X110363000Y-78232000D01*
X117983000Y-80772000D02*
X112903000Y-80772000D01*
X123063000Y-80772000D02*
X106553000Y-80772000D01*
X123063000Y-80772000D02*
X123063000Y-70612000D01*
X110363000Y-78232000D02*
X110363000Y-73152000D01*
X120523000Y-78232000D02*
X117983000Y-80772000D01*
X110363000Y-73152000D02*
X112903000Y-70612000D01*
X120523000Y-73152000D02*
X120523000Y-78232000D01*
X106553000Y-70612000D02*
X123063000Y-70612000D01*
X112903000Y-70612000D02*
X117983000Y-70612000D01*
X117983000Y-70612000D02*
X120523000Y-73152000D01*
G04 #@! TO.C,V2*
X199085200Y-71120000D02*
G75*
G03*
X199085200Y-71120000I-4013200J0D01*
G01*
D12*
G04 #@! TO.C,R2*
X103886724Y-88660500D02*
X103377276Y-88660500D01*
X103886724Y-87615500D02*
X103377276Y-87615500D01*
G04 #@! TO.C,C2*
X104392000Y-79293767D02*
X104392000Y-79001233D01*
X105412000Y-79293767D02*
X105412000Y-79001233D01*
G04 #@! TO.C,C1*
X103778267Y-95506000D02*
X103485733Y-95506000D01*
X103778267Y-94486000D02*
X103485733Y-94486000D01*
G04 #@! TO.C,R4*
X146303276Y-87869500D02*
X146812724Y-87869500D01*
X146303276Y-88914500D02*
X146812724Y-88914500D01*
G04 #@! TO.C,R6*
X188199500Y-109625224D02*
X188199500Y-109115776D01*
X189244500Y-109625224D02*
X189244500Y-109115776D01*
G04 #@! TO.C,D1*
X105292000Y-99795000D02*
X105292000Y-98325000D01*
X105292000Y-98325000D02*
X102832000Y-98325000D01*
X102832000Y-99795000D02*
X105292000Y-99795000D01*
G04 #@! TO.C,C6*
X168255733Y-89660000D02*
X168548267Y-89660000D01*
X168255733Y-90680000D02*
X168548267Y-90680000D01*
G04 #@! TD*
M02*
