G04 #@! TF.GenerationSoftware,KiCad,Pcbnew,(6.0.8)*
G04 #@! TF.CreationDate,2022-10-20T16:34:10-05:00*
G04 #@! TF.ProjectId,SignalStack_Board,5369676e-616c-4537-9461-636b5f426f61,rev?*
G04 #@! TF.SameCoordinates,Original*
G04 #@! TF.FileFunction,Soldermask,Bot*
G04 #@! TF.FilePolarity,Negative*
%FSLAX46Y46*%
G04 Gerber Fmt 4.6, Leading zero omitted, Abs format (unit mm)*
G04 Created by KiCad (PCBNEW (6.0.8)) date 2022-10-20 16:34:10*
%MOMM*%
%LPD*%
G01*
G04 APERTURE LIST*
%ADD10C,1.308000*%
%ADD11C,1.258000*%
%ADD12C,1.208000*%
%ADD13C,2.946400*%
%ADD14O,3.000000X5.100000*%
%ADD15C,1.100000*%
%ADD16C,1.400000*%
%ADD17C,4.000000*%
%ADD18C,2.000000*%
%ADD19C,1.270000*%
%ADD20R,1.530000X1.530000*%
%ADD21C,1.530000*%
%ADD22R,1.350000X1.350000*%
%ADD23O,1.350000X1.350000*%
%ADD24R,1.358000X1.358000*%
%ADD25C,1.358000*%
%ADD26C,1.524000*%
%ADD27O,5.100000X3.000000*%
G04 APERTURE END LIST*
D10*
X111252000Y-125476000D03*
X113792000Y-125476000D03*
X116332000Y-125476000D03*
X118872000Y-125476000D03*
X144272000Y-125476000D03*
X113792000Y-110236000D03*
X154432000Y-120396000D03*
X121412000Y-125476000D03*
X123952000Y-125476000D03*
D11*
X115062000Y-122426000D03*
D10*
X126492000Y-125476000D03*
X129032000Y-125476000D03*
X131572000Y-125476000D03*
X134112000Y-125476000D03*
X136652000Y-125476000D03*
X139192000Y-125476000D03*
X141732000Y-125476000D03*
X141732000Y-110236000D03*
X139192000Y-110236000D03*
X136652000Y-110236000D03*
X134112000Y-110236000D03*
X131572000Y-110236000D03*
X129032000Y-110236000D03*
X126492000Y-110236000D03*
X123952000Y-110236000D03*
X121412000Y-110236000D03*
X118872000Y-110236000D03*
X116332000Y-110236000D03*
X146812000Y-125476000D03*
X149352000Y-125476000D03*
X151892000Y-125476000D03*
X154432000Y-125476000D03*
X156972000Y-125476000D03*
X159512000Y-125476000D03*
X162052000Y-125476000D03*
X164592000Y-125476000D03*
X167132000Y-125476000D03*
X167132000Y-110236000D03*
X164592000Y-110236000D03*
X162052000Y-110236000D03*
X159512000Y-110236000D03*
X156972000Y-110236000D03*
X154432000Y-110236000D03*
X151892000Y-110236000D03*
X149352000Y-110236000D03*
X146812000Y-110236000D03*
D11*
X120142000Y-122426000D03*
X117602000Y-122426000D03*
D10*
X108712000Y-125476000D03*
X144272000Y-110236000D03*
X111252000Y-110236000D03*
X154432000Y-117856000D03*
D12*
X123682000Y-114686000D03*
X121682000Y-114686000D03*
D10*
X154432000Y-112776000D03*
X154432000Y-115316000D03*
D12*
X121682000Y-112686000D03*
X123682000Y-112686000D03*
X123682000Y-116686000D03*
X121682000Y-116686000D03*
D11*
X122682000Y-122426000D03*
X125222000Y-122426000D03*
D10*
X154432000Y-122936000D03*
X108712000Y-110236000D03*
X111252000Y-112776000D03*
D13*
X100209220Y-135248764D03*
X193681220Y-135256620D03*
D14*
X179978000Y-83397000D03*
X179978000Y-75523000D03*
X179978000Y-101177000D03*
X179978000Y-93303000D03*
D13*
X100203000Y-67183000D03*
D15*
X114867500Y-93023500D03*
X117407500Y-94293500D03*
X114867500Y-95563500D03*
X117407500Y-96833500D03*
X114867500Y-98103500D03*
X117407500Y-99373500D03*
X114867500Y-100643500D03*
X117407500Y-101913500D03*
D16*
X103437500Y-91143500D03*
X105227500Y-93683500D03*
X103437500Y-101253500D03*
X105227500Y-103793500D03*
D17*
X108517500Y-91753500D03*
X108517500Y-103183500D03*
D18*
X111567500Y-89593500D03*
X111567500Y-105343500D03*
D19*
X193634000Y-117166000D03*
X172634000Y-117166000D03*
D20*
X175634000Y-119126000D03*
D21*
X178634000Y-119126000D03*
X181634000Y-119126000D03*
X184634000Y-119126000D03*
X187634000Y-119126000D03*
X190634000Y-119126000D03*
D22*
X120523000Y-91658500D03*
D23*
X122523000Y-91658500D03*
X120523000Y-93658500D03*
X122523000Y-93658500D03*
X120523000Y-95658500D03*
X122523000Y-95658500D03*
D13*
X193757420Y-67100580D03*
D24*
X107950000Y-74958000D03*
D25*
X105410000Y-74958000D03*
X102870000Y-74958000D03*
D26*
X120650000Y-79375000D03*
X118110000Y-79375000D03*
X115570000Y-79375000D03*
D27*
X129455000Y-80905400D03*
X137329000Y-80905400D03*
M02*
