M48
; DRILL file {KiCad (6.0.10)} date Sat Apr 22 01:23:29 2023
; FORMAT={-:-/ absolute / metric / decimal}
; #@! TF.CreationDate,2023-04-22T01:23:29-05:00
; #@! TF.GenerationSoftware,Kicad,Pcbnew,(6.0.10)
; #@! TF.FileFunction,Plated,1,2,PTH
FMAT,2
METRIC
; #@! TA.AperFunction,Plated,PTH,ViaDrill
T1C0.400
; #@! TA.AperFunction,Plated,PTH,ComponentDrill
T2C0.800
; #@! TA.AperFunction,Plated,PTH,ComponentDrill
T3C0.850
; #@! TA.AperFunction,Plated,PTH,ComponentDrill
T4C0.889
; #@! TA.AperFunction,Plated,PTH,ComponentDrill
T5C0.900
; #@! TA.AperFunction,Plated,PTH,ComponentDrill
T6C1.000
; #@! TA.AperFunction,Plated,PTH,ComponentDrill
T7C2.000
%
G90
G05
T1
X129.54Y-47.752
X135.255Y-74.986
X135.424Y-67.352
X136.652Y-71.684
X136.652Y-83.622
X137.922Y-83.622
X138.239Y-76.319
X139.192Y-71.684
X139.192Y-83.622
X139.219Y-65.305
X140.081Y-67.352
X140.462Y-83.622
X141.637Y-72.605
X141.986Y-67.352
X142.113Y-86.289
X142.113Y-94.925
X143.129Y-75.113
X143.383Y-66.294
X143.51Y-59.563
X144.399Y-71.162
X144.526Y-59.69
X144.526Y-83.622
X145.796Y-83.622
X146.431Y-76.129
X146.812Y-47.752
X147.066Y-71.684
X147.066Y-83.622
X147.701Y-67.352
X148.082Y-45.339
X148.336Y-83.622
X149.479Y-72.7
X149.606Y-67.352
X152.146Y-75.24
X153.543Y-71.684
X153.543Y-83.622
X154.813Y-83.622
X155.448Y-76.129
X156.083Y-71.811
X156.083Y-83.622
X156.337Y-65.024
X156.972Y-67.189
X157.353Y-83.622
X157.988Y-39.624
X158.496Y-72.7
X158.877Y-67.183
X159.004Y-86.162
X159.004Y-94.925
X160.06Y-65.04
X160.147Y-75.367
X160.274Y-66.294
X161.417Y-59.055
X161.417Y-71.684
X161.417Y-83.622
X162.687Y-83.622
X163.195Y-76.129
X163.83Y-71.684
X163.957Y-83.622
X164.592Y-67.183
X165.227Y-83.622
X166.306Y-72.763
X198.12Y-46.99
X214.757Y-45.72
X216.916Y-55.626
X216.916Y-58.42
X232.029Y-45.72
T2
X176.022Y-90.376
X176.022Y-92.876
X194.31Y-90.21
X194.31Y-92.71
X204.47Y-90.21
X204.47Y-92.71
T3
X143.99Y-48.26
X143.99Y-50.8
X143.99Y-53.34
T4
X129.54Y-55.626
X132.08Y-55.626
X134.62Y-55.626
T5
X187.96Y-39.624
X187.96Y-42.164
X190.5Y-39.624
X190.5Y-42.164
X193.04Y-39.624
X193.04Y-42.164
X195.58Y-39.624
X195.58Y-42.164
X198.12Y-39.624
X198.12Y-42.164
X200.66Y-39.624
X200.66Y-42.164
X203.2Y-39.624
X203.2Y-42.164
X205.74Y-39.624
X205.74Y-42.164
X208.28Y-39.624
X208.28Y-42.164
X210.82Y-39.624
X210.82Y-42.164
X213.36Y-39.624
X213.36Y-42.164
X215.9Y-39.624
X215.9Y-42.164
X218.44Y-39.624
X218.44Y-42.164
X220.98Y-39.624
X220.98Y-42.164
X223.52Y-39.624
X223.52Y-42.164
X226.06Y-39.624
X226.06Y-42.164
X228.6Y-39.624
X228.6Y-42.164
X231.14Y-39.624
X231.14Y-42.164
X233.68Y-39.624
X233.68Y-42.164
X236.22Y-39.624
X236.22Y-42.164
T6
X194.06Y-82.55
X196.6Y-82.55
X199.14Y-82.55
X201.68Y-82.55
X203.2Y-34.29
X204.22Y-82.55
X205.74Y-34.29
X206.76Y-82.55
X208.28Y-34.29
X209.3Y-82.55
X210.82Y-34.29
X211.84Y-82.55
X213.36Y-34.29
X214.38Y-82.55
X215.9Y-34.29
X216.92Y-82.55
X218.44Y-34.29
X220.98Y-34.29
X220.98Y-82.55
X223.52Y-82.55
X226.06Y-34.29
X226.06Y-82.55
X228.6Y-34.29
X228.6Y-82.55
X231.14Y-34.29
X231.14Y-82.55
X233.68Y-34.29
X233.68Y-82.55
X236.22Y-34.29
X236.22Y-82.55
X238.76Y-34.29
X238.76Y-82.55
T7
G00X137.253Y-89.854
M15
G01X139.353Y-89.854
M16
G05
G00X145.127Y-89.854
M15
G01X147.227Y-89.854
M16
G05
G00X154.017Y-89.854
M15
G01X156.117Y-89.854
M16
G05
G00X161.891Y-89.854
M15
G01X163.991Y-89.854
M16
G05
G00X222.343Y-89.534
M15
G01X224.443Y-89.534
M16
G05
G00X230.217Y-89.534
M15
G01X232.317Y-89.534
M16
G05
T0
M30
