G04 #@! TF.GenerationSoftware,KiCad,Pcbnew,(6.0.10)*
G04 #@! TF.CreationDate,2023-04-22T01:24:50-05:00*
G04 #@! TF.ProjectId,SignalStack_Board,5369676e-616c-4537-9461-636b5f426f61,rev?*
G04 #@! TF.SameCoordinates,Original*
G04 #@! TF.FileFunction,Paste,Top*
G04 #@! TF.FilePolarity,Positive*
%FSLAX46Y46*%
G04 Gerber Fmt 4.6, Leading zero omitted, Abs format (unit mm)*
G04 Created by KiCad (PCBNEW (6.0.10)) date 2023-04-22 01:24:50*
%MOMM*%
%LPD*%
G01*
G04 APERTURE LIST*
G04 Aperture macros list*
%AMRoundRect*
0 Rectangle with rounded corners*
0 $1 Rounding radius*
0 $2 $3 $4 $5 $6 $7 $8 $9 X,Y pos of 4 corners*
0 Add a 4 corners polygon primitive as box body*
4,1,4,$2,$3,$4,$5,$6,$7,$8,$9,$2,$3,0*
0 Add four circle primitives for the rounded corners*
1,1,$1+$1,$2,$3*
1,1,$1+$1,$4,$5*
1,1,$1+$1,$6,$7*
1,1,$1+$1,$8,$9*
0 Add four rect primitives between the rounded corners*
20,1,$1+$1,$2,$3,$4,$5,0*
20,1,$1+$1,$4,$5,$6,$7,0*
20,1,$1+$1,$6,$7,$8,$9,0*
20,1,$1+$1,$8,$9,$2,$3,0*%
G04 Aperture macros list end*
%ADD10RoundRect,0.237500X0.237500X-0.287500X0.237500X0.287500X-0.237500X0.287500X-0.237500X-0.287500X0*%
%ADD11RoundRect,0.237500X-0.237500X0.300000X-0.237500X-0.300000X0.237500X-0.300000X0.237500X0.300000X0*%
%ADD12RoundRect,0.237500X-0.237500X0.250000X-0.237500X-0.250000X0.237500X-0.250000X0.237500X0.250000X0*%
%ADD13RoundRect,0.237500X-0.250000X-0.237500X0.250000X-0.237500X0.250000X0.237500X-0.250000X0.237500X0*%
%ADD14RoundRect,0.237500X-0.300000X-0.237500X0.300000X-0.237500X0.300000X0.237500X-0.300000X0.237500X0*%
%ADD15RoundRect,0.237500X0.287500X0.237500X-0.287500X0.237500X-0.287500X-0.237500X0.287500X-0.237500X0*%
%ADD16R,1.600000X1.400000*%
%ADD17RoundRect,0.150000X-0.150000X0.825000X-0.150000X-0.825000X0.150000X-0.825000X0.150000X0.825000X0*%
%ADD18R,0.650000X1.560000*%
%ADD19RoundRect,0.150000X-0.512500X-0.150000X0.512500X-0.150000X0.512500X0.150000X-0.512500X0.150000X0*%
%ADD20RoundRect,0.237500X0.250000X0.237500X-0.250000X0.237500X-0.250000X-0.237500X0.250000X-0.237500X0*%
%ADD21R,3.050000X2.750000*%
%ADD22R,2.200000X1.200000*%
%ADD23RoundRect,0.237500X0.300000X0.237500X-0.300000X0.237500X-0.300000X-0.237500X0.300000X-0.237500X0*%
G04 APERTURE END LIST*
D10*
X150368000Y-70512800D03*
X150368000Y-68762800D03*
D11*
X157353000Y-76790300D03*
X157353000Y-78515300D03*
D12*
X142748000Y-76716800D03*
X142748000Y-78541800D03*
D11*
X148336000Y-76790300D03*
X148336000Y-78515300D03*
D13*
X149051000Y-40132000D03*
X150876000Y-40132000D03*
D12*
X144526000Y-76740300D03*
X144526000Y-78565300D03*
X134747000Y-76740300D03*
X134747000Y-78565300D03*
D14*
X134646500Y-59309000D03*
X136371500Y-59309000D03*
D10*
X167132000Y-70526800D03*
X167132000Y-68776800D03*
D15*
X153877250Y-47752000D03*
X152127250Y-47752000D03*
D16*
X138132000Y-34822000D03*
X145332000Y-34822000D03*
X145332000Y-37822000D03*
X138132000Y-37822000D03*
D12*
X161417000Y-76763800D03*
X161417000Y-78588800D03*
D17*
X148336000Y-81091000D03*
X147066000Y-81091000D03*
X145796000Y-81091000D03*
X144526000Y-81091000D03*
X144526000Y-86041000D03*
X145796000Y-86041000D03*
X147066000Y-86041000D03*
X148336000Y-86041000D03*
X157353000Y-81091000D03*
X156083000Y-81091000D03*
X154813000Y-81091000D03*
X153543000Y-81091000D03*
X153543000Y-86041000D03*
X154813000Y-86041000D03*
X156083000Y-86041000D03*
X157353000Y-86041000D03*
X148336000Y-95569000D03*
X147066000Y-95569000D03*
X145796000Y-95569000D03*
X144526000Y-95569000D03*
X144526000Y-100519000D03*
X145796000Y-100519000D03*
X147066000Y-100519000D03*
X148336000Y-100519000D03*
D15*
X153891250Y-50546000D03*
X152141250Y-50546000D03*
D17*
X157353000Y-69208800D03*
X156083000Y-69208800D03*
X154813000Y-69208800D03*
X153543000Y-69208800D03*
X153543000Y-74158800D03*
X154813000Y-74158800D03*
X156083000Y-74158800D03*
X157353000Y-74158800D03*
D15*
X156210000Y-40132000D03*
X154460000Y-40132000D03*
D12*
X153543000Y-76740300D03*
X153543000Y-78565300D03*
X139471750Y-61117300D03*
X139471750Y-62942300D03*
D11*
X159131000Y-89871300D03*
X159131000Y-91596300D03*
X165227000Y-76790300D03*
X165227000Y-78515300D03*
D18*
X145476000Y-61338300D03*
X144526000Y-61338300D03*
X143576000Y-61338300D03*
X143576000Y-64038300D03*
X144526000Y-64038300D03*
X145476000Y-64038300D03*
D13*
X148293750Y-47752000D03*
X150118750Y-47752000D03*
D12*
X156337000Y-60673000D03*
X156337000Y-62498000D03*
D17*
X165227000Y-95569000D03*
X163957000Y-95569000D03*
X162687000Y-95569000D03*
X161417000Y-95569000D03*
X161417000Y-100519000D03*
X162687000Y-100519000D03*
X163957000Y-100519000D03*
X165227000Y-100519000D03*
D12*
X136652000Y-76740300D03*
X136652000Y-78565300D03*
D18*
X162367000Y-60753000D03*
X161417000Y-60753000D03*
X160467000Y-60753000D03*
X160467000Y-63453000D03*
X161417000Y-63453000D03*
X162367000Y-63453000D03*
D17*
X165227000Y-69208800D03*
X163957000Y-69208800D03*
X162687000Y-69208800D03*
X161417000Y-69208800D03*
X161417000Y-74158800D03*
X162687000Y-74158800D03*
X163957000Y-74158800D03*
X165227000Y-74158800D03*
D11*
X140462000Y-76790300D03*
X140462000Y-78515300D03*
D16*
X149054000Y-34822000D03*
X156254000Y-34822000D03*
X149054000Y-37822000D03*
X156254000Y-37822000D03*
D19*
X211460500Y-94808000D03*
X211460500Y-96708000D03*
X213735500Y-95758000D03*
D20*
X150118750Y-53340000D03*
X148293750Y-53340000D03*
D12*
X159639000Y-76740300D03*
X159639000Y-78565300D03*
D15*
X145401000Y-40132000D03*
X143651000Y-40132000D03*
D11*
X142240000Y-89871300D03*
X142240000Y-91596300D03*
D10*
X142494000Y-70512800D03*
X142494000Y-68762800D03*
D17*
X157353000Y-95569000D03*
X156083000Y-95569000D03*
X154813000Y-95569000D03*
X153543000Y-95569000D03*
X153543000Y-100519000D03*
X154813000Y-100519000D03*
X156083000Y-100519000D03*
X157353000Y-100519000D03*
D21*
X225092000Y-94995000D03*
X221742000Y-94995000D03*
X225092000Y-98045000D03*
X221742000Y-98045000D03*
D22*
X217117000Y-94240000D03*
X217117000Y-96520000D03*
X217117000Y-98800000D03*
D10*
X141503750Y-62890800D03*
X141503750Y-61140800D03*
D12*
X167005000Y-60555500D03*
X167005000Y-62380500D03*
D13*
X212043000Y-91948000D03*
X213868000Y-91948000D03*
D17*
X140462000Y-81091000D03*
X139192000Y-81091000D03*
X137922000Y-81091000D03*
X136652000Y-81091000D03*
X136652000Y-86041000D03*
X137922000Y-86041000D03*
X139192000Y-86041000D03*
X140462000Y-86041000D03*
X140462000Y-69208800D03*
X139192000Y-69208800D03*
X137922000Y-69208800D03*
X136652000Y-69208800D03*
X136652000Y-74158800D03*
X137922000Y-74158800D03*
X139192000Y-74158800D03*
X140462000Y-74158800D03*
D15*
X153891250Y-53340000D03*
X152141250Y-53340000D03*
D12*
X150368000Y-61063500D03*
X150368000Y-62888500D03*
D10*
X148336000Y-62801300D03*
X148336000Y-61051300D03*
D13*
X138152500Y-40117500D03*
X139977500Y-40117500D03*
D12*
X151384000Y-76763800D03*
X151384000Y-78588800D03*
D10*
X165100000Y-62343000D03*
X165100000Y-60593000D03*
D23*
X129513500Y-59309000D03*
X127788500Y-59309000D03*
D10*
X158369000Y-62470000D03*
X158369000Y-60720000D03*
D17*
X148336000Y-69208800D03*
X147066000Y-69208800D03*
X145796000Y-69208800D03*
X144526000Y-69208800D03*
X144526000Y-74158800D03*
X145796000Y-74158800D03*
X147066000Y-74158800D03*
X148336000Y-74158800D03*
D10*
X159385000Y-70526800D03*
X159385000Y-68776800D03*
D17*
X140462000Y-95569000D03*
X139192000Y-95569000D03*
X137922000Y-95569000D03*
X136652000Y-95569000D03*
X136652000Y-100519000D03*
X137922000Y-100519000D03*
X139192000Y-100519000D03*
X140462000Y-100519000D03*
D13*
X148293750Y-50546000D03*
X150118750Y-50546000D03*
D17*
X165227000Y-81091000D03*
X163957000Y-81091000D03*
X162687000Y-81091000D03*
X161417000Y-81091000D03*
X161417000Y-86041000D03*
X162687000Y-86041000D03*
X163957000Y-86041000D03*
X165227000Y-86041000D03*
M02*
