M48
; DRILL file {KiCad (6.0.8)} date Thu Oct 20 16:34:59 2022
; FORMAT={-:-/ absolute / metric / decimal}
; #@! TF.CreationDate,2022-10-20T16:34:59-05:00
; #@! TF.GenerationSoftware,Kicad,Pcbnew,(6.0.8)
; #@! TF.FileFunction,Plated,1,2,PTH
FMAT,2
METRIC
; #@! TA.AperFunction,Plated,PTH,ViaDrill
T1C0.400
; #@! TA.AperFunction,Plated,PTH,ViaDrill
T2C0.400
; #@! TA.AperFunction,Plated,PTH,ViaDrill
T3C0.500
; #@! TA.AperFunction,Plated,PTH,ComponentDrill
T4C0.700
; #@! TA.AperFunction,Plated,PTH,ComponentDrill
T5C0.750
; #@! TA.AperFunction,Plated,PTH,ComponentDrill
T6C0.800
; #@! TA.AperFunction,Plated,PTH,ComponentDrill
T7C0.850
; #@! TA.AperFunction,Plated,PTH,ComponentDrill
T8C0.889
; #@! TA.AperFunction,Plated,PTH,ComponentDrill
T9C0.900
; #@! TA.AperFunction,Plated,PTH,ComponentDrill
T10C1.020
; #@! TA.AperFunction,Plated,PTH,ComponentDrill
T11C1.600
; #@! TA.AperFunction,Plated,PTH,ComponentDrill
T12C2.000
; #@! TA.AperFunction,Plated,PTH,ComponentDrill
T13C3.250
%
G90
G05
T1
X99.822Y-87.63
X100.33Y-107.188
X109.855Y-127.762
X112.649Y-127.762
X112.649Y-130.683
X112.903Y-94.96
X113.665Y-96.992
X114.046Y-87.63
X115.57Y-82.804
X117.475Y-92.42
X120.128Y-107.677
X120.396Y-101.854
X121.666Y-89.662
X122.682Y-107.696
X126.492Y-107.696
X134.112Y-107.696
X135.382Y-66.802
X135.382Y-69.342
X135.382Y-71.882
X136.652Y-120.396
X136.652Y-122.936
X137.414Y-64.77
X138.303Y-108.077
X138.43Y-69.342
X138.43Y-71.882
X140.462Y-67.31
X141.478Y-74.549
X141.478Y-75.692
X142.494Y-100.838
X142.621Y-74.549
X142.621Y-77.851
X142.621Y-83.439
X142.621Y-88.519
X142.621Y-89.789
X142.621Y-95.25
X144.272Y-100.838
X144.272Y-120.396
X144.272Y-122.936
X144.399Y-95.25
X144.526Y-82.55
X144.653Y-88.519
X144.653Y-89.789
X146.05Y-95.25
X146.558Y-77.47
X146.812Y-85.217
X146.812Y-104.267
X146.812Y-106.172
X146.812Y-107.95
X148.082Y-66.548
X149.352Y-107.95
X151.384Y-66.548
X151.624Y-107.933
X151.638Y-112.776
X151.638Y-116.332
X151.892Y-120.396
X151.892Y-122.936
X155.321Y-71.628
X156.21Y-91.44
X156.337Y-74.803
X156.464Y-112.776
X156.464Y-116.586
X156.464Y-120.396
X156.464Y-122.936
X156.591Y-82.804
X156.591Y-100.838
X157.226Y-71.628
X158.115Y-78.613
X159.131Y-106.172
X160.02Y-66.548
X162.052Y-68.707
X162.052Y-71.755
X162.052Y-88.138
X163.068Y-64.389
X164.973Y-66.548
X165.227Y-86.741
X165.227Y-88.138
X166.116Y-68.707
X166.116Y-71.755
X167.64Y-68.707
X167.64Y-71.755
X168.656Y-112.776
X168.656Y-120.396
X168.656Y-122.936
X169.799Y-68.707
X169.799Y-71.755
X173.228Y-78.613
X175.768Y-86.106
X175.768Y-88.646
X179.832Y-122.936
X183.134Y-122.936
T2
X97.79Y-81.026
X97.79Y-117.602
X127.762Y-119.126
X130.81Y-119.126
X130.81Y-124.206
X141.732Y-80.264
X141.732Y-86.868
X142.494Y-76.073
X142.748Y-107.407
X143.51Y-75.184
X143.51Y-86.868
X145.034Y-105.918
X145.161Y-70.231
X145.288Y-94.488
X145.288Y-98.552
X145.288Y-102.87
X146.812Y-72.644
X146.812Y-93.218
X146.812Y-102.87
X148.844Y-114.046
X152.273Y-107.061
X153.162Y-111.506
X155.321Y-88.773
X155.448Y-68.072
X155.575Y-100.838
X155.702Y-81.534
X155.702Y-92.71
X155.702Y-95.25
X155.829Y-77.343
X155.829Y-85.217
X155.829Y-99.568
X156.464Y-78.994
X156.464Y-103.378
X157.226Y-96.774
X160.147Y-105.537
X164.973Y-71.755
X165.1Y-106.426
X173.609Y-108.077
X173.99Y-86.106
X174.117Y-88.646
X175.133Y-110.49
X186.182Y-121.666
X186.182Y-123.19
T3
X158.496Y-71.882
X158.496Y-79.883
X158.496Y-89.916
X158.496Y-98.044
X171.831Y-71.882
X171.831Y-79.883
X171.831Y-89.916
X171.831Y-97.917
T4
X121.682Y-112.686
X121.682Y-114.686
X121.682Y-116.686
X123.682Y-112.686
X123.682Y-114.686
X123.682Y-116.686
T5
X115.062Y-122.426
X117.602Y-122.426
X120.142Y-122.426
X122.682Y-122.426
X125.222Y-122.426
T6
X108.712Y-110.236
X108.712Y-125.476
X111.252Y-110.236
X111.252Y-112.776
X111.252Y-125.476
X113.792Y-110.236
X113.792Y-125.476
X116.332Y-110.236
X116.332Y-125.476
X118.872Y-110.236
X118.872Y-125.476
X120.523Y-91.658
X120.523Y-93.658
X120.523Y-95.658
X121.412Y-110.236
X121.412Y-125.476
X122.523Y-91.658
X122.523Y-93.658
X122.523Y-95.658
X123.952Y-110.236
X123.952Y-125.476
X126.492Y-110.236
X126.492Y-125.476
X129.032Y-110.236
X129.032Y-125.476
X131.572Y-110.236
X131.572Y-125.476
X134.112Y-110.236
X134.112Y-125.476
X136.652Y-110.236
X136.652Y-125.476
X139.192Y-110.236
X139.192Y-125.476
X141.732Y-110.236
X141.732Y-125.476
X144.272Y-110.236
X144.272Y-125.476
X146.812Y-110.236
X146.812Y-125.476
X149.352Y-110.236
X149.352Y-125.476
X151.892Y-110.236
X151.892Y-125.476
X154.432Y-110.236
X154.432Y-112.776
X154.432Y-115.316
X154.432Y-117.856
X154.432Y-120.396
X154.432Y-122.936
X154.432Y-125.476
X156.972Y-110.236
X156.972Y-125.476
X159.512Y-110.236
X159.512Y-125.476
X162.052Y-110.236
X162.052Y-125.476
X164.592Y-110.236
X164.592Y-125.476
X167.132Y-110.236
X167.132Y-125.476
T7
X102.87Y-74.958
X105.41Y-74.958
X107.95Y-74.958
T8
X115.57Y-79.375
X118.11Y-79.375
X120.65Y-79.375
T9
X114.867Y-93.023
X114.867Y-95.563
X114.867Y-98.103
X114.867Y-100.643
X117.407Y-94.293
X117.407Y-96.834
X117.407Y-99.373
X117.407Y-101.913
T10
X103.438Y-91.143
X103.438Y-101.254
X105.227Y-93.683
X105.227Y-103.793
X175.634Y-119.126
X178.634Y-119.126
X181.634Y-119.126
X184.634Y-119.126
X187.634Y-119.126
X190.634Y-119.126
T11
X111.567Y-89.593
X111.567Y-105.343
T13
X108.517Y-91.754
X108.517Y-103.183
T12
X130.505Y-80.905G85X128.405Y-80.905
G05
X138.379Y-80.905G85X136.279Y-80.905
G05
X179.978Y-76.573G85X179.978Y-74.473
G05
X179.978Y-84.447G85X179.978Y-82.347
G05
X179.978Y-94.353G85X179.978Y-92.253
G05
X179.978Y-102.227G85X179.978Y-100.127
G05
T0
M30
