G04 #@! TF.GenerationSoftware,KiCad,Pcbnew,(6.0.8)*
G04 #@! TF.CreationDate,2022-10-20T16:34:10-05:00*
G04 #@! TF.ProjectId,SignalStack_Board,5369676e-616c-4537-9461-636b5f426f61,rev?*
G04 #@! TF.SameCoordinates,Original*
G04 #@! TF.FileFunction,Legend,Top*
G04 #@! TF.FilePolarity,Positive*
%FSLAX46Y46*%
G04 Gerber Fmt 4.6, Leading zero omitted, Abs format (unit mm)*
G04 Created by KiCad (PCBNEW (6.0.8)) date 2022-10-20 16:34:10*
%MOMM*%
%LPD*%
G01*
G04 APERTURE LIST*
G04 Aperture macros list*
%AMRoundRect*
0 Rectangle with rounded corners*
0 $1 Rounding radius*
0 $2 $3 $4 $5 $6 $7 $8 $9 X,Y pos of 4 corners*
0 Add a 4 corners polygon primitive as box body*
4,1,4,$2,$3,$4,$5,$6,$7,$8,$9,$2,$3,0*
0 Add four circle primitives for the rounded corners*
1,1,$1+$1,$2,$3*
1,1,$1+$1,$4,$5*
1,1,$1+$1,$6,$7*
1,1,$1+$1,$8,$9*
0 Add four rect primitives between the rounded corners*
20,1,$1+$1,$2,$3,$4,$5,0*
20,1,$1+$1,$4,$5,$6,$7,0*
20,1,$1+$1,$6,$7,$8,$9,0*
20,1,$1+$1,$8,$9,$2,$3,0*%
G04 Aperture macros list end*
%ADD10C,0.300000*%
%ADD11C,0.150000*%
%ADD12C,0.120000*%
%ADD13C,0.127000*%
%ADD14C,0.200000*%
%ADD15C,0.010000*%
%ADD16C,0.203200*%
%ADD17RoundRect,0.237500X0.300000X0.237500X-0.300000X0.237500X-0.300000X-0.237500X0.300000X-0.237500X0*%
%ADD18C,1.308000*%
%ADD19C,1.258000*%
%ADD20C,1.208000*%
%ADD21RoundRect,0.237500X0.250000X0.237500X-0.250000X0.237500X-0.250000X-0.237500X0.250000X-0.237500X0*%
%ADD22C,2.946400*%
%ADD23RoundRect,0.237500X0.237500X-0.300000X0.237500X0.300000X-0.237500X0.300000X-0.237500X-0.300000X0*%
%ADD24RoundRect,0.237500X-0.300000X-0.237500X0.300000X-0.237500X0.300000X0.237500X-0.300000X0.237500X0*%
%ADD25RoundRect,0.150000X-0.825000X-0.150000X0.825000X-0.150000X0.825000X0.150000X-0.825000X0.150000X0*%
%ADD26RoundRect,0.237500X0.287500X0.237500X-0.287500X0.237500X-0.287500X-0.237500X0.287500X-0.237500X0*%
%ADD27O,3.000000X5.100000*%
%ADD28C,1.100000*%
%ADD29C,1.400000*%
%ADD30C,4.000000*%
%ADD31C,2.000000*%
%ADD32RoundRect,0.237500X-0.250000X-0.237500X0.250000X-0.237500X0.250000X0.237500X-0.250000X0.237500X0*%
%ADD33R,1.800000X2.400000*%
%ADD34C,1.270000*%
%ADD35R,1.530000X1.530000*%
%ADD36C,1.530000*%
%ADD37RoundRect,0.237500X-0.287500X-0.237500X0.287500X-0.237500X0.287500X0.237500X-0.287500X0.237500X0*%
%ADD38R,1.350000X1.350000*%
%ADD39O,1.350000X1.350000*%
%ADD40RoundRect,0.237500X0.237500X-0.287500X0.237500X0.287500X-0.237500X0.287500X-0.237500X-0.287500X0*%
%ADD41R,1.358000X1.358000*%
%ADD42C,1.358000*%
%ADD43C,1.524000*%
%ADD44O,5.100000X3.000000*%
G04 APERTURE END LIST*
D10*
X183769000Y-108077000D02*
X183684333Y-108161666D01*
X183430333Y-108246333D01*
X183261000Y-108246333D01*
X183007000Y-108161666D01*
X182837666Y-107992333D01*
X182753000Y-107823000D01*
X182668333Y-107484333D01*
X182668333Y-107230333D01*
X182753000Y-106891666D01*
X182837666Y-106722333D01*
X183007000Y-106553000D01*
X183261000Y-106468333D01*
X183430333Y-106468333D01*
X183684333Y-106553000D01*
X183769000Y-106637666D01*
X184785000Y-108246333D02*
X184615666Y-108161666D01*
X184531000Y-108077000D01*
X184446333Y-107907666D01*
X184446333Y-107399666D01*
X184531000Y-107230333D01*
X184615666Y-107145666D01*
X184785000Y-107061000D01*
X185039000Y-107061000D01*
X185208333Y-107145666D01*
X185293000Y-107230333D01*
X185377666Y-107399666D01*
X185377666Y-107907666D01*
X185293000Y-108077000D01*
X185208333Y-108161666D01*
X185039000Y-108246333D01*
X184785000Y-108246333D01*
X186139666Y-108246333D02*
X186139666Y-107061000D01*
X186139666Y-106468333D02*
X186055000Y-106553000D01*
X186139666Y-106637666D01*
X186224333Y-106553000D01*
X186139666Y-106468333D01*
X186139666Y-106637666D01*
X187240333Y-108246333D02*
X187071000Y-108161666D01*
X186986333Y-107992333D01*
X186986333Y-106468333D01*
X190203666Y-108246333D02*
X189187666Y-108246333D01*
X189695666Y-108246333D02*
X189695666Y-106468333D01*
X189526333Y-106722333D01*
X189357000Y-106891666D01*
X189187666Y-106976333D01*
X181864000Y-113792000D02*
X181694666Y-113707333D01*
X181440666Y-113707333D01*
X181186666Y-113792000D01*
X181017333Y-113961333D01*
X180932666Y-114130666D01*
X180848000Y-114469333D01*
X180848000Y-114723333D01*
X180932666Y-115062000D01*
X181017333Y-115231333D01*
X181186666Y-115400666D01*
X181440666Y-115485333D01*
X181610000Y-115485333D01*
X181864000Y-115400666D01*
X181948666Y-115316000D01*
X181948666Y-114723333D01*
X181610000Y-114723333D01*
X182710666Y-115485333D02*
X182710666Y-113707333D01*
X183388000Y-113707333D01*
X183557333Y-113792000D01*
X183642000Y-113876666D01*
X183726666Y-114046000D01*
X183726666Y-114300000D01*
X183642000Y-114469333D01*
X183557333Y-114554000D01*
X183388000Y-114638666D01*
X182710666Y-114638666D01*
X184404000Y-115400666D02*
X184658000Y-115485333D01*
X185081333Y-115485333D01*
X185250666Y-115400666D01*
X185335333Y-115316000D01*
X185420000Y-115146666D01*
X185420000Y-114977333D01*
X185335333Y-114808000D01*
X185250666Y-114723333D01*
X185081333Y-114638666D01*
X184742666Y-114554000D01*
X184573333Y-114469333D01*
X184488666Y-114384666D01*
X184404000Y-114215333D01*
X184404000Y-114046000D01*
X184488666Y-113876666D01*
X184573333Y-113792000D01*
X184742666Y-113707333D01*
X185166000Y-113707333D01*
X185420000Y-113792000D01*
D11*
X108797404Y-133089347D02*
X108978833Y-133149823D01*
X109281214Y-133149823D01*
X109402166Y-133089347D01*
X109462642Y-133028871D01*
X109523119Y-132907919D01*
X109523119Y-132786966D01*
X109462642Y-132666014D01*
X109402166Y-132605538D01*
X109281214Y-132545061D01*
X109039309Y-132484585D01*
X108918357Y-132424109D01*
X108857880Y-132363633D01*
X108797404Y-132242680D01*
X108797404Y-132121728D01*
X108857880Y-132000776D01*
X108918357Y-131940300D01*
X109039309Y-131879823D01*
X109341690Y-131879823D01*
X109523119Y-131940300D01*
X110067404Y-133149823D02*
X110067404Y-132303157D01*
X110067404Y-131879823D02*
X110006928Y-131940300D01*
X110067404Y-132000776D01*
X110127880Y-131940300D01*
X110067404Y-131879823D01*
X110067404Y-132000776D01*
X111216452Y-132303157D02*
X111216452Y-133331252D01*
X111155976Y-133452204D01*
X111095500Y-133512680D01*
X110974547Y-133573157D01*
X110793119Y-133573157D01*
X110672166Y-133512680D01*
X111216452Y-133089347D02*
X111095500Y-133149823D01*
X110853595Y-133149823D01*
X110732642Y-133089347D01*
X110672166Y-133028871D01*
X110611690Y-132907919D01*
X110611690Y-132545061D01*
X110672166Y-132424109D01*
X110732642Y-132363633D01*
X110853595Y-132303157D01*
X111095500Y-132303157D01*
X111216452Y-132363633D01*
X111821214Y-132303157D02*
X111821214Y-133149823D01*
X111821214Y-132424109D02*
X111881690Y-132363633D01*
X112002642Y-132303157D01*
X112184071Y-132303157D01*
X112305023Y-132363633D01*
X112365500Y-132484585D01*
X112365500Y-133149823D01*
X113514547Y-133149823D02*
X113514547Y-132484585D01*
X113454071Y-132363633D01*
X113333119Y-132303157D01*
X113091214Y-132303157D01*
X112970261Y-132363633D01*
X113514547Y-133089347D02*
X113393595Y-133149823D01*
X113091214Y-133149823D01*
X112970261Y-133089347D01*
X112909785Y-132968395D01*
X112909785Y-132847442D01*
X112970261Y-132726490D01*
X113091214Y-132666014D01*
X113393595Y-132666014D01*
X113514547Y-132605538D01*
X114300738Y-133149823D02*
X114179785Y-133089347D01*
X114119309Y-132968395D01*
X114119309Y-131879823D01*
X115691690Y-133089347D02*
X115873119Y-133149823D01*
X116175500Y-133149823D01*
X116296452Y-133089347D01*
X116356928Y-133028871D01*
X116417404Y-132907919D01*
X116417404Y-132786966D01*
X116356928Y-132666014D01*
X116296452Y-132605538D01*
X116175500Y-132545061D01*
X115933595Y-132484585D01*
X115812642Y-132424109D01*
X115752166Y-132363633D01*
X115691690Y-132242680D01*
X115691690Y-132121728D01*
X115752166Y-132000776D01*
X115812642Y-131940300D01*
X115933595Y-131879823D01*
X116235976Y-131879823D01*
X116417404Y-131940300D01*
X116780261Y-132303157D02*
X117264071Y-132303157D01*
X116961690Y-131879823D02*
X116961690Y-132968395D01*
X117022166Y-133089347D01*
X117143119Y-133149823D01*
X117264071Y-133149823D01*
X118231690Y-133149823D02*
X118231690Y-132484585D01*
X118171214Y-132363633D01*
X118050261Y-132303157D01*
X117808357Y-132303157D01*
X117687404Y-132363633D01*
X118231690Y-133089347D02*
X118110738Y-133149823D01*
X117808357Y-133149823D01*
X117687404Y-133089347D01*
X117626928Y-132968395D01*
X117626928Y-132847442D01*
X117687404Y-132726490D01*
X117808357Y-132666014D01*
X118110738Y-132666014D01*
X118231690Y-132605538D01*
X119380738Y-133089347D02*
X119259785Y-133149823D01*
X119017880Y-133149823D01*
X118896928Y-133089347D01*
X118836452Y-133028871D01*
X118775976Y-132907919D01*
X118775976Y-132545061D01*
X118836452Y-132424109D01*
X118896928Y-132363633D01*
X119017880Y-132303157D01*
X119259785Y-132303157D01*
X119380738Y-132363633D01*
X119925023Y-133149823D02*
X119925023Y-131879823D01*
X120045976Y-132666014D02*
X120408833Y-133149823D01*
X120408833Y-132303157D02*
X119925023Y-132786966D01*
X122344071Y-132484585D02*
X122525500Y-132545061D01*
X122585976Y-132605538D01*
X122646452Y-132726490D01*
X122646452Y-132907919D01*
X122585976Y-133028871D01*
X122525500Y-133089347D01*
X122404547Y-133149823D01*
X121920738Y-133149823D01*
X121920738Y-131879823D01*
X122344071Y-131879823D01*
X122465023Y-131940300D01*
X122525500Y-132000776D01*
X122585976Y-132121728D01*
X122585976Y-132242680D01*
X122525500Y-132363633D01*
X122465023Y-132424109D01*
X122344071Y-132484585D01*
X121920738Y-132484585D01*
X123372166Y-133149823D02*
X123251214Y-133089347D01*
X123190738Y-133028871D01*
X123130261Y-132907919D01*
X123130261Y-132545061D01*
X123190738Y-132424109D01*
X123251214Y-132363633D01*
X123372166Y-132303157D01*
X123553595Y-132303157D01*
X123674547Y-132363633D01*
X123735023Y-132424109D01*
X123795500Y-132545061D01*
X123795500Y-132907919D01*
X123735023Y-133028871D01*
X123674547Y-133089347D01*
X123553595Y-133149823D01*
X123372166Y-133149823D01*
X124884071Y-133149823D02*
X124884071Y-132484585D01*
X124823595Y-132363633D01*
X124702642Y-132303157D01*
X124460738Y-132303157D01*
X124339785Y-132363633D01*
X124884071Y-133089347D02*
X124763119Y-133149823D01*
X124460738Y-133149823D01*
X124339785Y-133089347D01*
X124279309Y-132968395D01*
X124279309Y-132847442D01*
X124339785Y-132726490D01*
X124460738Y-132666014D01*
X124763119Y-132666014D01*
X124884071Y-132605538D01*
X125488833Y-133149823D02*
X125488833Y-132303157D01*
X125488833Y-132545061D02*
X125549309Y-132424109D01*
X125609785Y-132363633D01*
X125730738Y-132303157D01*
X125851690Y-132303157D01*
X126819309Y-133149823D02*
X126819309Y-131879823D01*
X126819309Y-133089347D02*
X126698357Y-133149823D01*
X126456452Y-133149823D01*
X126335500Y-133089347D01*
X126275023Y-133028871D01*
X126214547Y-132907919D01*
X126214547Y-132545061D01*
X126275023Y-132424109D01*
X126335500Y-132363633D01*
X126456452Y-132303157D01*
X126698357Y-132303157D01*
X126819309Y-132363633D01*
X127484547Y-133089347D02*
X127484547Y-133149823D01*
X127424071Y-133270776D01*
X127363595Y-133331252D01*
X128935976Y-132000776D02*
X128996452Y-131940300D01*
X129117404Y-131879823D01*
X129419785Y-131879823D01*
X129540738Y-131940300D01*
X129601214Y-132000776D01*
X129661690Y-132121728D01*
X129661690Y-132242680D01*
X129601214Y-132424109D01*
X128875500Y-133149823D01*
X129661690Y-133149823D01*
X130447880Y-131879823D02*
X130568833Y-131879823D01*
X130689785Y-131940300D01*
X130750261Y-132000776D01*
X130810738Y-132121728D01*
X130871214Y-132363633D01*
X130871214Y-132666014D01*
X130810738Y-132907919D01*
X130750261Y-133028871D01*
X130689785Y-133089347D01*
X130568833Y-133149823D01*
X130447880Y-133149823D01*
X130326928Y-133089347D01*
X130266452Y-133028871D01*
X130205976Y-132907919D01*
X130145500Y-132666014D01*
X130145500Y-132363633D01*
X130205976Y-132121728D01*
X130266452Y-132000776D01*
X130326928Y-131940300D01*
X130447880Y-131879823D01*
X131355023Y-132000776D02*
X131415500Y-131940300D01*
X131536452Y-131879823D01*
X131838833Y-131879823D01*
X131959785Y-131940300D01*
X132020261Y-132000776D01*
X132080738Y-132121728D01*
X132080738Y-132242680D01*
X132020261Y-132424109D01*
X131294547Y-133149823D01*
X132080738Y-133149823D01*
X132504071Y-131879823D02*
X133290261Y-131879823D01*
X132866928Y-132363633D01*
X133048357Y-132363633D01*
X133169309Y-132424109D01*
X133229785Y-132484585D01*
X133290261Y-132605538D01*
X133290261Y-132907919D01*
X133229785Y-133028871D01*
X133169309Y-133089347D01*
X133048357Y-133149823D01*
X132685500Y-133149823D01*
X132564547Y-133089347D01*
X132504071Y-133028871D01*
X135527880Y-133149823D02*
X135104547Y-132545061D01*
X134802166Y-133149823D02*
X134802166Y-131879823D01*
X135285976Y-131879823D01*
X135406928Y-131940300D01*
X135467404Y-132000776D01*
X135527880Y-132121728D01*
X135527880Y-132303157D01*
X135467404Y-132424109D01*
X135406928Y-132484585D01*
X135285976Y-132545061D01*
X134802166Y-132545061D01*
X136555976Y-133089347D02*
X136435023Y-133149823D01*
X136193119Y-133149823D01*
X136072166Y-133089347D01*
X136011690Y-132968395D01*
X136011690Y-132484585D01*
X136072166Y-132363633D01*
X136193119Y-132303157D01*
X136435023Y-132303157D01*
X136555976Y-132363633D01*
X136616452Y-132484585D01*
X136616452Y-132605538D01*
X136011690Y-132726490D01*
X137039785Y-132303157D02*
X137342166Y-133149823D01*
X137644547Y-132303157D01*
X139761214Y-133149823D02*
X139035500Y-133149823D01*
X139398357Y-133149823D02*
X139398357Y-131879823D01*
X139277404Y-132061252D01*
X139156452Y-132182204D01*
X139035500Y-132242680D01*
X108857880Y-135194523D02*
X108857880Y-133924523D01*
X109281214Y-134831666D01*
X109704547Y-133924523D01*
X109704547Y-135194523D01*
X110853595Y-135194523D02*
X110853595Y-134529285D01*
X110793119Y-134408333D01*
X110672166Y-134347857D01*
X110430261Y-134347857D01*
X110309309Y-134408333D01*
X110853595Y-135134047D02*
X110732642Y-135194523D01*
X110430261Y-135194523D01*
X110309309Y-135134047D01*
X110248833Y-135013095D01*
X110248833Y-134892142D01*
X110309309Y-134771190D01*
X110430261Y-134710714D01*
X110732642Y-134710714D01*
X110853595Y-134650238D01*
X111458357Y-135194523D02*
X111458357Y-134347857D01*
X111458357Y-134589761D02*
X111518833Y-134468809D01*
X111579309Y-134408333D01*
X111700261Y-134347857D01*
X111821214Y-134347857D01*
X112184071Y-135134047D02*
X112305023Y-135194523D01*
X112546928Y-135194523D01*
X112667880Y-135134047D01*
X112728357Y-135013095D01*
X112728357Y-134952619D01*
X112667880Y-134831666D01*
X112546928Y-134771190D01*
X112365500Y-134771190D01*
X112244547Y-134710714D01*
X112184071Y-134589761D01*
X112184071Y-134529285D01*
X112244547Y-134408333D01*
X112365500Y-134347857D01*
X112546928Y-134347857D01*
X112667880Y-134408333D01*
X114965976Y-135194523D02*
X114542642Y-134589761D01*
X114240261Y-135194523D02*
X114240261Y-133924523D01*
X114724071Y-133924523D01*
X114845023Y-133985000D01*
X114905500Y-134045476D01*
X114965976Y-134166428D01*
X114965976Y-134347857D01*
X114905500Y-134468809D01*
X114845023Y-134529285D01*
X114724071Y-134589761D01*
X114240261Y-134589761D01*
X115691690Y-135194523D02*
X115570738Y-135134047D01*
X115510261Y-135073571D01*
X115449785Y-134952619D01*
X115449785Y-134589761D01*
X115510261Y-134468809D01*
X115570738Y-134408333D01*
X115691690Y-134347857D01*
X115873119Y-134347857D01*
X115994071Y-134408333D01*
X116054547Y-134468809D01*
X116115023Y-134589761D01*
X116115023Y-134952619D01*
X116054547Y-135073571D01*
X115994071Y-135134047D01*
X115873119Y-135194523D01*
X115691690Y-135194523D01*
X116538357Y-134347857D02*
X116840738Y-135194523D01*
X117143119Y-134347857D01*
X118110738Y-135134047D02*
X117989785Y-135194523D01*
X117747880Y-135194523D01*
X117626928Y-135134047D01*
X117566452Y-135013095D01*
X117566452Y-134529285D01*
X117626928Y-134408333D01*
X117747880Y-134347857D01*
X117989785Y-134347857D01*
X118110738Y-134408333D01*
X118171214Y-134529285D01*
X118171214Y-134650238D01*
X117566452Y-134771190D01*
X118715500Y-135194523D02*
X118715500Y-134347857D01*
X118715500Y-134589761D02*
X118775976Y-134468809D01*
X118836452Y-134408333D01*
X118957404Y-134347857D01*
X119078357Y-134347857D01*
X120469309Y-135194523D02*
X120469309Y-133924523D01*
X120771690Y-133924523D01*
X120953119Y-133985000D01*
X121074071Y-134105952D01*
X121134547Y-134226904D01*
X121195023Y-134468809D01*
X121195023Y-134650238D01*
X121134547Y-134892142D01*
X121074071Y-135013095D01*
X120953119Y-135134047D01*
X120771690Y-135194523D01*
X120469309Y-135194523D01*
X122223119Y-135134047D02*
X122102166Y-135194523D01*
X121860261Y-135194523D01*
X121739309Y-135134047D01*
X121678833Y-135013095D01*
X121678833Y-134529285D01*
X121739309Y-134408333D01*
X121860261Y-134347857D01*
X122102166Y-134347857D01*
X122223119Y-134408333D01*
X122283595Y-134529285D01*
X122283595Y-134650238D01*
X121678833Y-134771190D01*
X122767404Y-135134047D02*
X122888357Y-135194523D01*
X123130261Y-135194523D01*
X123251214Y-135134047D01*
X123311690Y-135013095D01*
X123311690Y-134952619D01*
X123251214Y-134831666D01*
X123130261Y-134771190D01*
X122948833Y-134771190D01*
X122827880Y-134710714D01*
X122767404Y-134589761D01*
X122767404Y-134529285D01*
X122827880Y-134408333D01*
X122948833Y-134347857D01*
X123130261Y-134347857D01*
X123251214Y-134408333D01*
X123855976Y-135194523D02*
X123855976Y-134347857D01*
X123855976Y-133924523D02*
X123795500Y-133985000D01*
X123855976Y-134045476D01*
X123916452Y-133985000D01*
X123855976Y-133924523D01*
X123855976Y-134045476D01*
X125005023Y-134347857D02*
X125005023Y-135375952D01*
X124944547Y-135496904D01*
X124884071Y-135557380D01*
X124763119Y-135617857D01*
X124581690Y-135617857D01*
X124460738Y-135557380D01*
X125005023Y-135134047D02*
X124884071Y-135194523D01*
X124642166Y-135194523D01*
X124521214Y-135134047D01*
X124460738Y-135073571D01*
X124400261Y-134952619D01*
X124400261Y-134589761D01*
X124460738Y-134468809D01*
X124521214Y-134408333D01*
X124642166Y-134347857D01*
X124884071Y-134347857D01*
X125005023Y-134408333D01*
X125609785Y-134347857D02*
X125609785Y-135194523D01*
X125609785Y-134468809D02*
X125670261Y-134408333D01*
X125791214Y-134347857D01*
X125972642Y-134347857D01*
X126093595Y-134408333D01*
X126154071Y-134529285D01*
X126154071Y-135194523D01*
X127545023Y-133924523D02*
X128270738Y-133924523D01*
X127907880Y-135194523D02*
X127907880Y-133924523D01*
X129177880Y-135134047D02*
X129056928Y-135194523D01*
X128815023Y-135194523D01*
X128694071Y-135134047D01*
X128633595Y-135013095D01*
X128633595Y-134529285D01*
X128694071Y-134408333D01*
X128815023Y-134347857D01*
X129056928Y-134347857D01*
X129177880Y-134408333D01*
X129238357Y-134529285D01*
X129238357Y-134650238D01*
X128633595Y-134771190D01*
X130326928Y-135194523D02*
X130326928Y-134529285D01*
X130266452Y-134408333D01*
X130145500Y-134347857D01*
X129903595Y-134347857D01*
X129782642Y-134408333D01*
X130326928Y-135134047D02*
X130205976Y-135194523D01*
X129903595Y-135194523D01*
X129782642Y-135134047D01*
X129722166Y-135013095D01*
X129722166Y-134892142D01*
X129782642Y-134771190D01*
X129903595Y-134710714D01*
X130205976Y-134710714D01*
X130326928Y-134650238D01*
X130931690Y-135194523D02*
X130931690Y-134347857D01*
X130931690Y-134468809D02*
X130992166Y-134408333D01*
X131113119Y-134347857D01*
X131294547Y-134347857D01*
X131415500Y-134408333D01*
X131475976Y-134529285D01*
X131475976Y-135194523D01*
X131475976Y-134529285D02*
X131536452Y-134408333D01*
X131657404Y-134347857D01*
X131838833Y-134347857D01*
X131959785Y-134408333D01*
X132020261Y-134529285D01*
X132020261Y-135194523D01*
X109523119Y-136029700D02*
X109402166Y-135969223D01*
X109220738Y-135969223D01*
X109039309Y-136029700D01*
X108918357Y-136150652D01*
X108857880Y-136271604D01*
X108797404Y-136513509D01*
X108797404Y-136694938D01*
X108857880Y-136936842D01*
X108918357Y-137057795D01*
X109039309Y-137178747D01*
X109220738Y-137239223D01*
X109341690Y-137239223D01*
X109523119Y-137178747D01*
X109583595Y-137118271D01*
X109583595Y-136694938D01*
X109341690Y-136694938D01*
X110127880Y-137239223D02*
X110127880Y-136392557D01*
X110127880Y-136634461D02*
X110188357Y-136513509D01*
X110248833Y-136453033D01*
X110369785Y-136392557D01*
X110490738Y-136392557D01*
X111458357Y-137239223D02*
X111458357Y-136573985D01*
X111397880Y-136453033D01*
X111276928Y-136392557D01*
X111035023Y-136392557D01*
X110914071Y-136453033D01*
X111458357Y-137178747D02*
X111337404Y-137239223D01*
X111035023Y-137239223D01*
X110914071Y-137178747D01*
X110853595Y-137057795D01*
X110853595Y-136936842D01*
X110914071Y-136815890D01*
X111035023Y-136755414D01*
X111337404Y-136755414D01*
X111458357Y-136694938D01*
X112063119Y-136392557D02*
X112063119Y-137239223D01*
X112063119Y-136513509D02*
X112123595Y-136453033D01*
X112244547Y-136392557D01*
X112425976Y-136392557D01*
X112546928Y-136453033D01*
X112607404Y-136573985D01*
X112607404Y-137239223D01*
X113030738Y-136392557D02*
X113514547Y-136392557D01*
X113212166Y-135969223D02*
X113212166Y-137057795D01*
X113272642Y-137178747D01*
X113393595Y-137239223D01*
X113514547Y-137239223D01*
X115328833Y-136573985D02*
X115510261Y-136634461D01*
X115570738Y-136694938D01*
X115631214Y-136815890D01*
X115631214Y-136997319D01*
X115570738Y-137118271D01*
X115510261Y-137178747D01*
X115389309Y-137239223D01*
X114905500Y-137239223D01*
X114905500Y-135969223D01*
X115328833Y-135969223D01*
X115449785Y-136029700D01*
X115510261Y-136090176D01*
X115570738Y-136211128D01*
X115570738Y-136332080D01*
X115510261Y-136453033D01*
X115449785Y-136513509D01*
X115328833Y-136573985D01*
X114905500Y-136573985D01*
X116175500Y-137239223D02*
X116175500Y-136392557D01*
X116175500Y-136634461D02*
X116235976Y-136513509D01*
X116296452Y-136453033D01*
X116417404Y-136392557D01*
X116538357Y-136392557D01*
X116961690Y-137239223D02*
X116961690Y-136392557D01*
X116961690Y-135969223D02*
X116901214Y-136029700D01*
X116961690Y-136090176D01*
X117022166Y-136029700D01*
X116961690Y-135969223D01*
X116961690Y-136090176D01*
X117566452Y-136392557D02*
X117566452Y-137239223D01*
X117566452Y-136513509D02*
X117626928Y-136453033D01*
X117747880Y-136392557D01*
X117929309Y-136392557D01*
X118050261Y-136453033D01*
X118110738Y-136573985D01*
X118110738Y-137239223D01*
X118715500Y-137239223D02*
X118715500Y-135969223D01*
X118836452Y-136755414D02*
X119199309Y-137239223D01*
X119199309Y-136392557D02*
X118715500Y-136876366D01*
X120227404Y-137178747D02*
X120106452Y-137239223D01*
X119864547Y-137239223D01*
X119743595Y-137178747D01*
X119683119Y-137057795D01*
X119683119Y-136573985D01*
X119743595Y-136453033D01*
X119864547Y-136392557D01*
X120106452Y-136392557D01*
X120227404Y-136453033D01*
X120287880Y-136573985D01*
X120287880Y-136694938D01*
X119683119Y-136815890D01*
X120832166Y-137239223D02*
X120832166Y-136392557D01*
X120832166Y-136634461D02*
X120892642Y-136513509D01*
X120953119Y-136453033D01*
X121074071Y-136392557D01*
X121195023Y-136392557D01*
D10*
X183769000Y-71247000D02*
X183684333Y-71331666D01*
X183430333Y-71416333D01*
X183261000Y-71416333D01*
X183007000Y-71331666D01*
X182837666Y-71162333D01*
X182753000Y-70993000D01*
X182668333Y-70654333D01*
X182668333Y-70400333D01*
X182753000Y-70061666D01*
X182837666Y-69892333D01*
X183007000Y-69723000D01*
X183261000Y-69638333D01*
X183430333Y-69638333D01*
X183684333Y-69723000D01*
X183769000Y-69807666D01*
X184785000Y-71416333D02*
X184615666Y-71331666D01*
X184531000Y-71247000D01*
X184446333Y-71077666D01*
X184446333Y-70569666D01*
X184531000Y-70400333D01*
X184615666Y-70315666D01*
X184785000Y-70231000D01*
X185039000Y-70231000D01*
X185208333Y-70315666D01*
X185293000Y-70400333D01*
X185377666Y-70569666D01*
X185377666Y-71077666D01*
X185293000Y-71247000D01*
X185208333Y-71331666D01*
X185039000Y-71416333D01*
X184785000Y-71416333D01*
X186139666Y-71416333D02*
X186139666Y-70231000D01*
X186139666Y-69638333D02*
X186055000Y-69723000D01*
X186139666Y-69807666D01*
X186224333Y-69723000D01*
X186139666Y-69638333D01*
X186139666Y-69807666D01*
X187240333Y-71416333D02*
X187071000Y-71331666D01*
X186986333Y-71162333D01*
X186986333Y-69638333D01*
X189187666Y-69807666D02*
X189272333Y-69723000D01*
X189441666Y-69638333D01*
X189865000Y-69638333D01*
X190034333Y-69723000D01*
X190119000Y-69807666D01*
X190203666Y-69977000D01*
X190203666Y-70146333D01*
X190119000Y-70400333D01*
X189103000Y-71416333D01*
X190203666Y-71416333D01*
D11*
X129653833Y-89003142D02*
X129606214Y-89050761D01*
X129463357Y-89098380D01*
X129368119Y-89098380D01*
X129225261Y-89050761D01*
X129130023Y-88955523D01*
X129082404Y-88860285D01*
X129034785Y-88669809D01*
X129034785Y-88526952D01*
X129082404Y-88336476D01*
X129130023Y-88241238D01*
X129225261Y-88146000D01*
X129368119Y-88098380D01*
X129463357Y-88098380D01*
X129606214Y-88146000D01*
X129653833Y-88193619D01*
X130558595Y-88098380D02*
X130082404Y-88098380D01*
X130034785Y-88574571D01*
X130082404Y-88526952D01*
X130177642Y-88479333D01*
X130415738Y-88479333D01*
X130510976Y-88526952D01*
X130558595Y-88574571D01*
X130606214Y-88669809D01*
X130606214Y-88907904D01*
X130558595Y-89003142D01*
X130510976Y-89050761D01*
X130415738Y-89098380D01*
X130177642Y-89098380D01*
X130082404Y-89050761D01*
X130034785Y-89003142D01*
X137160095Y-111720380D02*
X137160095Y-112529904D01*
X137207714Y-112625142D01*
X137255333Y-112672761D01*
X137350571Y-112720380D01*
X137541047Y-112720380D01*
X137636285Y-112672761D01*
X137683904Y-112625142D01*
X137731523Y-112529904D01*
X137731523Y-111720380D01*
X138112476Y-111720380D02*
X138731523Y-111720380D01*
X138398190Y-112101333D01*
X138541047Y-112101333D01*
X138636285Y-112148952D01*
X138683904Y-112196571D01*
X138731523Y-112291809D01*
X138731523Y-112529904D01*
X138683904Y-112625142D01*
X138636285Y-112672761D01*
X138541047Y-112720380D01*
X138255333Y-112720380D01*
X138160095Y-112672761D01*
X138112476Y-112625142D01*
X156297333Y-79700380D02*
X155964000Y-79224190D01*
X155725904Y-79700380D02*
X155725904Y-78700380D01*
X156106857Y-78700380D01*
X156202095Y-78748000D01*
X156249714Y-78795619D01*
X156297333Y-78890857D01*
X156297333Y-79033714D01*
X156249714Y-79128952D01*
X156202095Y-79176571D01*
X156106857Y-79224190D01*
X155725904Y-79224190D01*
X157154476Y-79033714D02*
X157154476Y-79700380D01*
X156916380Y-78652761D02*
X156678285Y-79367047D01*
X157297333Y-79367047D01*
X129653833Y-93067142D02*
X129606214Y-93114761D01*
X129463357Y-93162380D01*
X129368119Y-93162380D01*
X129225261Y-93114761D01*
X129130023Y-93019523D01*
X129082404Y-92924285D01*
X129034785Y-92733809D01*
X129034785Y-92590952D01*
X129082404Y-92400476D01*
X129130023Y-92305238D01*
X129225261Y-92210000D01*
X129368119Y-92162380D01*
X129463357Y-92162380D01*
X129606214Y-92210000D01*
X129653833Y-92257619D01*
X129987166Y-92162380D02*
X130606214Y-92162380D01*
X130272880Y-92543333D01*
X130415738Y-92543333D01*
X130510976Y-92590952D01*
X130558595Y-92638571D01*
X130606214Y-92733809D01*
X130606214Y-92971904D01*
X130558595Y-93067142D01*
X130510976Y-93114761D01*
X130415738Y-93162380D01*
X130130023Y-93162380D01*
X130034785Y-93114761D01*
X129987166Y-93067142D01*
X146645333Y-68556142D02*
X146597714Y-68603761D01*
X146454857Y-68651380D01*
X146359619Y-68651380D01*
X146216761Y-68603761D01*
X146121523Y-68508523D01*
X146073904Y-68413285D01*
X146026285Y-68222809D01*
X146026285Y-68079952D01*
X146073904Y-67889476D01*
X146121523Y-67794238D01*
X146216761Y-67699000D01*
X146359619Y-67651380D01*
X146454857Y-67651380D01*
X146597714Y-67699000D01*
X146645333Y-67746619D01*
X146978666Y-67651380D02*
X147645333Y-67651380D01*
X147216761Y-68651380D01*
X164906833Y-107672142D02*
X164859214Y-107719761D01*
X164716357Y-107767380D01*
X164621119Y-107767380D01*
X164478261Y-107719761D01*
X164383023Y-107624523D01*
X164335404Y-107529285D01*
X164287785Y-107338809D01*
X164287785Y-107195952D01*
X164335404Y-107005476D01*
X164383023Y-106910238D01*
X164478261Y-106815000D01*
X164621119Y-106767380D01*
X164716357Y-106767380D01*
X164859214Y-106815000D01*
X164906833Y-106862619D01*
X165478261Y-107195952D02*
X165383023Y-107148333D01*
X165335404Y-107100714D01*
X165287785Y-107005476D01*
X165287785Y-106957857D01*
X165335404Y-106862619D01*
X165383023Y-106815000D01*
X165478261Y-106767380D01*
X165668738Y-106767380D01*
X165763976Y-106815000D01*
X165811595Y-106862619D01*
X165859214Y-106957857D01*
X165859214Y-107005476D01*
X165811595Y-107100714D01*
X165763976Y-107148333D01*
X165668738Y-107195952D01*
X165478261Y-107195952D01*
X165383023Y-107243571D01*
X165335404Y-107291190D01*
X165287785Y-107386428D01*
X165287785Y-107576904D01*
X165335404Y-107672142D01*
X165383023Y-107719761D01*
X165478261Y-107767380D01*
X165668738Y-107767380D01*
X165763976Y-107719761D01*
X165811595Y-107672142D01*
X165859214Y-107576904D01*
X165859214Y-107386428D01*
X165811595Y-107291190D01*
X165763976Y-107243571D01*
X165668738Y-107195952D01*
X169322761Y-102020619D02*
X169227523Y-101973000D01*
X169132285Y-101877761D01*
X168989428Y-101734904D01*
X168894190Y-101687285D01*
X168798952Y-101687285D01*
X168846571Y-101925380D02*
X168751333Y-101877761D01*
X168656095Y-101782523D01*
X168608476Y-101592047D01*
X168608476Y-101258714D01*
X168656095Y-101068238D01*
X168751333Y-100973000D01*
X168846571Y-100925380D01*
X169037047Y-100925380D01*
X169132285Y-100973000D01*
X169227523Y-101068238D01*
X169275142Y-101258714D01*
X169275142Y-101592047D01*
X169227523Y-101782523D01*
X169132285Y-101877761D01*
X169037047Y-101925380D01*
X168846571Y-101925380D01*
X170132285Y-101258714D02*
X170132285Y-101925380D01*
X169894190Y-100877761D02*
X169656095Y-101592047D01*
X170275142Y-101592047D01*
X114387333Y-86304380D02*
X114054000Y-85828190D01*
X113815904Y-86304380D02*
X113815904Y-85304380D01*
X114196857Y-85304380D01*
X114292095Y-85352000D01*
X114339714Y-85399619D01*
X114387333Y-85494857D01*
X114387333Y-85637714D01*
X114339714Y-85732952D01*
X114292095Y-85780571D01*
X114196857Y-85828190D01*
X113815904Y-85828190D01*
X115339714Y-86304380D02*
X114768285Y-86304380D01*
X115054000Y-86304380D02*
X115054000Y-85304380D01*
X114958761Y-85447238D01*
X114863523Y-85542476D01*
X114768285Y-85590095D01*
X145946904Y-87701380D02*
X145946904Y-86701380D01*
X146185000Y-86701380D01*
X146327857Y-86749000D01*
X146423095Y-86844238D01*
X146470714Y-86939476D01*
X146518333Y-87129952D01*
X146518333Y-87272809D01*
X146470714Y-87463285D01*
X146423095Y-87558523D01*
X146327857Y-87653761D01*
X146185000Y-87701380D01*
X145946904Y-87701380D01*
X147375476Y-86701380D02*
X147185000Y-86701380D01*
X147089761Y-86749000D01*
X147042142Y-86796619D01*
X146946904Y-86939476D01*
X146899285Y-87129952D01*
X146899285Y-87510904D01*
X146946904Y-87606142D01*
X146994523Y-87653761D01*
X147089761Y-87701380D01*
X147280238Y-87701380D01*
X147375476Y-87653761D01*
X147423095Y-87606142D01*
X147470714Y-87510904D01*
X147470714Y-87272809D01*
X147423095Y-87177571D01*
X147375476Y-87129952D01*
X147280238Y-87082333D01*
X147089761Y-87082333D01*
X146994523Y-87129952D01*
X146946904Y-87177571D01*
X146899285Y-87272809D01*
X182983142Y-80898809D02*
X183030761Y-80946428D01*
X183078380Y-81089285D01*
X183078380Y-81184523D01*
X183030761Y-81327380D01*
X182935523Y-81422619D01*
X182840285Y-81470238D01*
X182649809Y-81517857D01*
X182506952Y-81517857D01*
X182316476Y-81470238D01*
X182221238Y-81422619D01*
X182126000Y-81327380D01*
X182078380Y-81184523D01*
X182078380Y-81089285D01*
X182126000Y-80946428D01*
X182173619Y-80898809D01*
X183078380Y-80327380D02*
X183030761Y-80422619D01*
X182983142Y-80470238D01*
X182887904Y-80517857D01*
X182602190Y-80517857D01*
X182506952Y-80470238D01*
X182459333Y-80422619D01*
X182411714Y-80327380D01*
X182411714Y-80184523D01*
X182459333Y-80089285D01*
X182506952Y-80041666D01*
X182602190Y-79994047D01*
X182887904Y-79994047D01*
X182983142Y-80041666D01*
X183030761Y-80089285D01*
X183078380Y-80184523D01*
X183078380Y-80327380D01*
X182411714Y-79565476D02*
X183078380Y-79565476D01*
X182506952Y-79565476D02*
X182459333Y-79517857D01*
X182411714Y-79422619D01*
X182411714Y-79279761D01*
X182459333Y-79184523D01*
X182554571Y-79136904D01*
X183078380Y-79136904D01*
X182411714Y-78660714D02*
X183078380Y-78660714D01*
X182506952Y-78660714D02*
X182459333Y-78613095D01*
X182411714Y-78517857D01*
X182411714Y-78375000D01*
X182459333Y-78279761D01*
X182554571Y-78232142D01*
X183078380Y-78232142D01*
X182173619Y-77803571D02*
X182126000Y-77755952D01*
X182078380Y-77660714D01*
X182078380Y-77422619D01*
X182126000Y-77327380D01*
X182173619Y-77279761D01*
X182268857Y-77232142D01*
X182364095Y-77232142D01*
X182506952Y-77279761D01*
X183078380Y-77851190D01*
X183078380Y-77232142D01*
X150622095Y-82764380D02*
X150622095Y-83573904D01*
X150669714Y-83669142D01*
X150717333Y-83716761D01*
X150812571Y-83764380D01*
X151003047Y-83764380D01*
X151098285Y-83716761D01*
X151145904Y-83669142D01*
X151193523Y-83573904D01*
X151193523Y-82764380D01*
X152145904Y-82764380D02*
X151669714Y-82764380D01*
X151622095Y-83240571D01*
X151669714Y-83192952D01*
X151764952Y-83145333D01*
X152003047Y-83145333D01*
X152098285Y-83192952D01*
X152145904Y-83240571D01*
X152193523Y-83335809D01*
X152193523Y-83573904D01*
X152145904Y-83669142D01*
X152098285Y-83716761D01*
X152003047Y-83764380D01*
X151764952Y-83764380D01*
X151669714Y-83716761D01*
X151622095Y-83669142D01*
X150622095Y-100925380D02*
X150622095Y-101734904D01*
X150669714Y-101830142D01*
X150717333Y-101877761D01*
X150812571Y-101925380D01*
X151003047Y-101925380D01*
X151098285Y-101877761D01*
X151145904Y-101830142D01*
X151193523Y-101734904D01*
X151193523Y-100925380D01*
X152098285Y-100925380D02*
X151907809Y-100925380D01*
X151812571Y-100973000D01*
X151764952Y-101020619D01*
X151669714Y-101163476D01*
X151622095Y-101353952D01*
X151622095Y-101734904D01*
X151669714Y-101830142D01*
X151717333Y-101877761D01*
X151812571Y-101925380D01*
X152003047Y-101925380D01*
X152098285Y-101877761D01*
X152145904Y-101830142D01*
X152193523Y-101734904D01*
X152193523Y-101496809D01*
X152145904Y-101401571D01*
X152098285Y-101353952D01*
X152003047Y-101306333D01*
X151812571Y-101306333D01*
X151717333Y-101353952D01*
X151669714Y-101401571D01*
X151622095Y-101496809D01*
X153281142Y-68556142D02*
X153233523Y-68603761D01*
X153090666Y-68651380D01*
X152995428Y-68651380D01*
X152852571Y-68603761D01*
X152757333Y-68508523D01*
X152709714Y-68413285D01*
X152662095Y-68222809D01*
X152662095Y-68079952D01*
X152709714Y-67889476D01*
X152757333Y-67794238D01*
X152852571Y-67699000D01*
X152995428Y-67651380D01*
X153090666Y-67651380D01*
X153233523Y-67699000D01*
X153281142Y-67746619D01*
X154233523Y-68651380D02*
X153662095Y-68651380D01*
X153947809Y-68651380D02*
X153947809Y-67651380D01*
X153852571Y-67794238D01*
X153757333Y-67889476D01*
X153662095Y-67937095D01*
X154614476Y-67746619D02*
X154662095Y-67699000D01*
X154757333Y-67651380D01*
X154995428Y-67651380D01*
X155090666Y-67699000D01*
X155138285Y-67746619D01*
X155185904Y-67841857D01*
X155185904Y-67937095D01*
X155138285Y-68079952D01*
X154566857Y-68651380D01*
X155185904Y-68651380D01*
X182983142Y-98678809D02*
X183030761Y-98726428D01*
X183078380Y-98869285D01*
X183078380Y-98964523D01*
X183030761Y-99107380D01*
X182935523Y-99202619D01*
X182840285Y-99250238D01*
X182649809Y-99297857D01*
X182506952Y-99297857D01*
X182316476Y-99250238D01*
X182221238Y-99202619D01*
X182126000Y-99107380D01*
X182078380Y-98964523D01*
X182078380Y-98869285D01*
X182126000Y-98726428D01*
X182173619Y-98678809D01*
X183078380Y-98107380D02*
X183030761Y-98202619D01*
X182983142Y-98250238D01*
X182887904Y-98297857D01*
X182602190Y-98297857D01*
X182506952Y-98250238D01*
X182459333Y-98202619D01*
X182411714Y-98107380D01*
X182411714Y-97964523D01*
X182459333Y-97869285D01*
X182506952Y-97821666D01*
X182602190Y-97774047D01*
X182887904Y-97774047D01*
X182983142Y-97821666D01*
X183030761Y-97869285D01*
X183078380Y-97964523D01*
X183078380Y-98107380D01*
X182411714Y-97345476D02*
X183078380Y-97345476D01*
X182506952Y-97345476D02*
X182459333Y-97297857D01*
X182411714Y-97202619D01*
X182411714Y-97059761D01*
X182459333Y-96964523D01*
X182554571Y-96916904D01*
X183078380Y-96916904D01*
X182411714Y-96440714D02*
X183078380Y-96440714D01*
X182506952Y-96440714D02*
X182459333Y-96393095D01*
X182411714Y-96297857D01*
X182411714Y-96155000D01*
X182459333Y-96059761D01*
X182554571Y-96012142D01*
X183078380Y-96012142D01*
X182078380Y-95631190D02*
X182078380Y-95012142D01*
X182459333Y-95345476D01*
X182459333Y-95202619D01*
X182506952Y-95107380D01*
X182554571Y-95059761D01*
X182649809Y-95012142D01*
X182887904Y-95012142D01*
X182983142Y-95059761D01*
X183030761Y-95107380D01*
X183078380Y-95202619D01*
X183078380Y-95488333D01*
X183030761Y-95583571D01*
X182983142Y-95631190D01*
X148613904Y-107386380D02*
X148613904Y-106386380D01*
X148852000Y-106386380D01*
X148994857Y-106434000D01*
X149090095Y-106529238D01*
X149137714Y-106624476D01*
X149185333Y-106814952D01*
X149185333Y-106957809D01*
X149137714Y-107148285D01*
X149090095Y-107243523D01*
X148994857Y-107338761D01*
X148852000Y-107386380D01*
X148613904Y-107386380D01*
X149518666Y-106386380D02*
X150185333Y-106386380D01*
X149756761Y-107386380D01*
X160813761Y-93892619D02*
X160718523Y-93845000D01*
X160623285Y-93749761D01*
X160480428Y-93606904D01*
X160385190Y-93559285D01*
X160289952Y-93559285D01*
X160337571Y-93797380D02*
X160242333Y-93749761D01*
X160147095Y-93654523D01*
X160099476Y-93464047D01*
X160099476Y-93130714D01*
X160147095Y-92940238D01*
X160242333Y-92845000D01*
X160337571Y-92797380D01*
X160528047Y-92797380D01*
X160623285Y-92845000D01*
X160718523Y-92940238D01*
X160766142Y-93130714D01*
X160766142Y-93464047D01*
X160718523Y-93654523D01*
X160623285Y-93749761D01*
X160528047Y-93797380D01*
X160337571Y-93797380D01*
X161099476Y-92797380D02*
X161766142Y-92797380D01*
X161337571Y-93797380D01*
X150622095Y-74890380D02*
X150622095Y-75699904D01*
X150669714Y-75795142D01*
X150717333Y-75842761D01*
X150812571Y-75890380D01*
X151003047Y-75890380D01*
X151098285Y-75842761D01*
X151145904Y-75795142D01*
X151193523Y-75699904D01*
X151193523Y-74890380D01*
X151812571Y-75318952D02*
X151717333Y-75271333D01*
X151669714Y-75223714D01*
X151622095Y-75128476D01*
X151622095Y-75080857D01*
X151669714Y-74985619D01*
X151717333Y-74938000D01*
X151812571Y-74890380D01*
X152003047Y-74890380D01*
X152098285Y-74938000D01*
X152145904Y-74985619D01*
X152193523Y-75080857D01*
X152193523Y-75128476D01*
X152145904Y-75223714D01*
X152098285Y-75271333D01*
X152003047Y-75318952D01*
X151812571Y-75318952D01*
X151717333Y-75366571D01*
X151669714Y-75414190D01*
X151622095Y-75509428D01*
X151622095Y-75699904D01*
X151669714Y-75795142D01*
X151717333Y-75842761D01*
X151812571Y-75890380D01*
X152003047Y-75890380D01*
X152098285Y-75842761D01*
X152145904Y-75795142D01*
X152193523Y-75699904D01*
X152193523Y-75509428D01*
X152145904Y-75414190D01*
X152098285Y-75366571D01*
X152003047Y-75318952D01*
X169322761Y-83859619D02*
X169227523Y-83812000D01*
X169132285Y-83716761D01*
X168989428Y-83573904D01*
X168894190Y-83526285D01*
X168798952Y-83526285D01*
X168846571Y-83764380D02*
X168751333Y-83716761D01*
X168656095Y-83621523D01*
X168608476Y-83431047D01*
X168608476Y-83097714D01*
X168656095Y-82907238D01*
X168751333Y-82812000D01*
X168846571Y-82764380D01*
X169037047Y-82764380D01*
X169132285Y-82812000D01*
X169227523Y-82907238D01*
X169275142Y-83097714D01*
X169275142Y-83431047D01*
X169227523Y-83621523D01*
X169132285Y-83716761D01*
X169037047Y-83764380D01*
X168846571Y-83764380D01*
X169656095Y-82859619D02*
X169703714Y-82812000D01*
X169798952Y-82764380D01*
X170037047Y-82764380D01*
X170132285Y-82812000D01*
X170179904Y-82859619D01*
X170227523Y-82954857D01*
X170227523Y-83050095D01*
X170179904Y-83192952D01*
X169608476Y-83764380D01*
X170227523Y-83764380D01*
X169322761Y-93892619D02*
X169227523Y-93845000D01*
X169132285Y-93749761D01*
X168989428Y-93606904D01*
X168894190Y-93559285D01*
X168798952Y-93559285D01*
X168846571Y-93797380D02*
X168751333Y-93749761D01*
X168656095Y-93654523D01*
X168608476Y-93464047D01*
X168608476Y-93130714D01*
X168656095Y-92940238D01*
X168751333Y-92845000D01*
X168846571Y-92797380D01*
X169037047Y-92797380D01*
X169132285Y-92845000D01*
X169227523Y-92940238D01*
X169275142Y-93130714D01*
X169275142Y-93464047D01*
X169227523Y-93654523D01*
X169132285Y-93749761D01*
X169037047Y-93797380D01*
X168846571Y-93797380D01*
X169846571Y-93225952D02*
X169751333Y-93178333D01*
X169703714Y-93130714D01*
X169656095Y-93035476D01*
X169656095Y-92987857D01*
X169703714Y-92892619D01*
X169751333Y-92845000D01*
X169846571Y-92797380D01*
X170037047Y-92797380D01*
X170132285Y-92845000D01*
X170179904Y-92892619D01*
X170227523Y-92987857D01*
X170227523Y-93035476D01*
X170179904Y-93130714D01*
X170132285Y-93178333D01*
X170037047Y-93225952D01*
X169846571Y-93225952D01*
X169751333Y-93273571D01*
X169703714Y-93321190D01*
X169656095Y-93416428D01*
X169656095Y-93606904D01*
X169703714Y-93702142D01*
X169751333Y-93749761D01*
X169846571Y-93797380D01*
X170037047Y-93797380D01*
X170132285Y-93749761D01*
X170179904Y-93702142D01*
X170227523Y-93606904D01*
X170227523Y-93416428D01*
X170179904Y-93321190D01*
X170132285Y-93273571D01*
X170037047Y-93225952D01*
X121382833Y-105351642D02*
X121335214Y-105399261D01*
X121192357Y-105446880D01*
X121097119Y-105446880D01*
X120954261Y-105399261D01*
X120859023Y-105304023D01*
X120811404Y-105208785D01*
X120763785Y-105018309D01*
X120763785Y-104875452D01*
X120811404Y-104684976D01*
X120859023Y-104589738D01*
X120954261Y-104494500D01*
X121097119Y-104446880D01*
X121192357Y-104446880D01*
X121335214Y-104494500D01*
X121382833Y-104542119D01*
X122239976Y-104446880D02*
X122049500Y-104446880D01*
X121954261Y-104494500D01*
X121906642Y-104542119D01*
X121811404Y-104684976D01*
X121763785Y-104875452D01*
X121763785Y-105256404D01*
X121811404Y-105351642D01*
X121859023Y-105399261D01*
X121954261Y-105446880D01*
X122144738Y-105446880D01*
X122239976Y-105399261D01*
X122287595Y-105351642D01*
X122335214Y-105256404D01*
X122335214Y-105018309D01*
X122287595Y-104923071D01*
X122239976Y-104875452D01*
X122144738Y-104827833D01*
X121954261Y-104827833D01*
X121859023Y-104875452D01*
X121811404Y-104923071D01*
X121763785Y-105018309D01*
X155789333Y-105735380D02*
X155456000Y-105259190D01*
X155217904Y-105735380D02*
X155217904Y-104735380D01*
X155598857Y-104735380D01*
X155694095Y-104783000D01*
X155741714Y-104830619D01*
X155789333Y-104925857D01*
X155789333Y-105068714D01*
X155741714Y-105163952D01*
X155694095Y-105211571D01*
X155598857Y-105259190D01*
X155217904Y-105259190D01*
X156122666Y-104735380D02*
X156789333Y-104735380D01*
X156360761Y-105735380D01*
X121205666Y-98222880D02*
X121205666Y-98937166D01*
X121158047Y-99080023D01*
X121062809Y-99175261D01*
X120919952Y-99222880D01*
X120824714Y-99222880D01*
X121634238Y-98318119D02*
X121681857Y-98270500D01*
X121777095Y-98222880D01*
X122015190Y-98222880D01*
X122110428Y-98270500D01*
X122158047Y-98318119D01*
X122205666Y-98413357D01*
X122205666Y-98508595D01*
X122158047Y-98651452D01*
X121586619Y-99222880D01*
X122205666Y-99222880D01*
X160813761Y-83859619D02*
X160718523Y-83812000D01*
X160623285Y-83716761D01*
X160480428Y-83573904D01*
X160385190Y-83526285D01*
X160289952Y-83526285D01*
X160337571Y-83764380D02*
X160242333Y-83716761D01*
X160147095Y-83621523D01*
X160099476Y-83431047D01*
X160099476Y-83097714D01*
X160147095Y-82907238D01*
X160242333Y-82812000D01*
X160337571Y-82764380D01*
X160528047Y-82764380D01*
X160623285Y-82812000D01*
X160718523Y-82907238D01*
X160766142Y-83097714D01*
X160766142Y-83431047D01*
X160718523Y-83621523D01*
X160623285Y-83716761D01*
X160528047Y-83764380D01*
X160337571Y-83764380D01*
X161718523Y-83764380D02*
X161147095Y-83764380D01*
X161432809Y-83764380D02*
X161432809Y-82764380D01*
X161337571Y-82907238D01*
X161242333Y-83002476D01*
X161147095Y-83050095D01*
X157599142Y-107894380D02*
X157265809Y-107418190D01*
X157027714Y-107894380D02*
X157027714Y-106894380D01*
X157408666Y-106894380D01*
X157503904Y-106942000D01*
X157551523Y-106989619D01*
X157599142Y-107084857D01*
X157599142Y-107227714D01*
X157551523Y-107322952D01*
X157503904Y-107370571D01*
X157408666Y-107418190D01*
X157027714Y-107418190D01*
X158551523Y-107894380D02*
X157980095Y-107894380D01*
X158265809Y-107894380D02*
X158265809Y-106894380D01*
X158170571Y-107037238D01*
X158075333Y-107132476D01*
X157980095Y-107180095D01*
X159503904Y-107894380D02*
X158932476Y-107894380D01*
X159218190Y-107894380D02*
X159218190Y-106894380D01*
X159122952Y-107037238D01*
X159027714Y-107132476D01*
X158932476Y-107180095D01*
X128051074Y-94818803D02*
X128051074Y-95456224D01*
X128088570Y-95531215D01*
X128126065Y-95568710D01*
X128201056Y-95606205D01*
X128351037Y-95606205D01*
X128426028Y-95568710D01*
X128463523Y-95531215D01*
X128501018Y-95456224D01*
X128501018Y-94818803D01*
X128838476Y-94893794D02*
X128875972Y-94856299D01*
X128950962Y-94818803D01*
X129138439Y-94818803D01*
X129213430Y-94856299D01*
X129250925Y-94893794D01*
X129288420Y-94968785D01*
X129288420Y-95043775D01*
X129250925Y-95156261D01*
X128800981Y-95606205D01*
X129288420Y-95606205D01*
X161377333Y-87574380D02*
X161044000Y-87098190D01*
X160805904Y-87574380D02*
X160805904Y-86574380D01*
X161186857Y-86574380D01*
X161282095Y-86622000D01*
X161329714Y-86669619D01*
X161377333Y-86764857D01*
X161377333Y-86907714D01*
X161329714Y-87002952D01*
X161282095Y-87050571D01*
X161186857Y-87098190D01*
X160805904Y-87098190D01*
X161853523Y-87574380D02*
X162044000Y-87574380D01*
X162139238Y-87526761D01*
X162186857Y-87479142D01*
X162282095Y-87336285D01*
X162329714Y-87145809D01*
X162329714Y-86764857D01*
X162282095Y-86669619D01*
X162234476Y-86622000D01*
X162139238Y-86574380D01*
X161948761Y-86574380D01*
X161853523Y-86622000D01*
X161805904Y-86669619D01*
X161758285Y-86764857D01*
X161758285Y-87002952D01*
X161805904Y-87098190D01*
X161853523Y-87145809D01*
X161948761Y-87193428D01*
X162139238Y-87193428D01*
X162234476Y-87145809D01*
X162282095Y-87098190D01*
X162329714Y-87002952D01*
X145946904Y-79700380D02*
X145946904Y-78700380D01*
X146185000Y-78700380D01*
X146327857Y-78748000D01*
X146423095Y-78843238D01*
X146470714Y-78938476D01*
X146518333Y-79128952D01*
X146518333Y-79271809D01*
X146470714Y-79462285D01*
X146423095Y-79557523D01*
X146327857Y-79652761D01*
X146185000Y-79700380D01*
X145946904Y-79700380D01*
X147375476Y-79033714D02*
X147375476Y-79700380D01*
X147137380Y-78652761D02*
X146899285Y-79367047D01*
X147518333Y-79367047D01*
X160813761Y-102020619D02*
X160718523Y-101973000D01*
X160623285Y-101877761D01*
X160480428Y-101734904D01*
X160385190Y-101687285D01*
X160289952Y-101687285D01*
X160337571Y-101925380D02*
X160242333Y-101877761D01*
X160147095Y-101782523D01*
X160099476Y-101592047D01*
X160099476Y-101258714D01*
X160147095Y-101068238D01*
X160242333Y-100973000D01*
X160337571Y-100925380D01*
X160528047Y-100925380D01*
X160623285Y-100973000D01*
X160718523Y-101068238D01*
X160766142Y-101258714D01*
X160766142Y-101592047D01*
X160718523Y-101782523D01*
X160623285Y-101877761D01*
X160528047Y-101925380D01*
X160337571Y-101925380D01*
X161099476Y-100925380D02*
X161718523Y-100925380D01*
X161385190Y-101306333D01*
X161528047Y-101306333D01*
X161623285Y-101353952D01*
X161670904Y-101401571D01*
X161718523Y-101496809D01*
X161718523Y-101734904D01*
X161670904Y-101830142D01*
X161623285Y-101877761D01*
X161528047Y-101925380D01*
X161242333Y-101925380D01*
X161147095Y-101877761D01*
X161099476Y-101830142D01*
X178505814Y-115345718D02*
X178505814Y-115803637D01*
X178475286Y-115895221D01*
X178414230Y-115956277D01*
X178322646Y-115986805D01*
X178261590Y-115986805D01*
X178750037Y-115345718D02*
X179146901Y-115345718D01*
X178933205Y-115589942D01*
X179024789Y-115589942D01*
X179085845Y-115620470D01*
X179116373Y-115650998D01*
X179146901Y-115712053D01*
X179146901Y-115864693D01*
X179116373Y-115925749D01*
X179085845Y-115956277D01*
X179024789Y-115986805D01*
X178841621Y-115986805D01*
X178780565Y-115956277D01*
X178750037Y-115925749D01*
X98575904Y-86304380D02*
X98575904Y-85304380D01*
X98814000Y-85304380D01*
X98956857Y-85352000D01*
X99052095Y-85447238D01*
X99099714Y-85542476D01*
X99147333Y-85732952D01*
X99147333Y-85875809D01*
X99099714Y-86066285D01*
X99052095Y-86161523D01*
X98956857Y-86256761D01*
X98814000Y-86304380D01*
X98575904Y-86304380D01*
X99480666Y-85304380D02*
X100099714Y-85304380D01*
X99766380Y-85685333D01*
X99909238Y-85685333D01*
X100004476Y-85732952D01*
X100052095Y-85780571D01*
X100099714Y-85875809D01*
X100099714Y-86113904D01*
X100052095Y-86209142D01*
X100004476Y-86256761D01*
X99909238Y-86304380D01*
X99623523Y-86304380D01*
X99528285Y-86256761D01*
X99480666Y-86209142D01*
X167632142Y-87574380D02*
X167298809Y-87098190D01*
X167060714Y-87574380D02*
X167060714Y-86574380D01*
X167441666Y-86574380D01*
X167536904Y-86622000D01*
X167584523Y-86669619D01*
X167632142Y-86764857D01*
X167632142Y-86907714D01*
X167584523Y-87002952D01*
X167536904Y-87050571D01*
X167441666Y-87098190D01*
X167060714Y-87098190D01*
X168584523Y-87574380D02*
X168013095Y-87574380D01*
X168298809Y-87574380D02*
X168298809Y-86574380D01*
X168203571Y-86717238D01*
X168108333Y-86812476D01*
X168013095Y-86860095D01*
X169203571Y-86574380D02*
X169298809Y-86574380D01*
X169394047Y-86622000D01*
X169441666Y-86669619D01*
X169489285Y-86764857D01*
X169536904Y-86955333D01*
X169536904Y-87193428D01*
X169489285Y-87383904D01*
X169441666Y-87479142D01*
X169394047Y-87526761D01*
X169298809Y-87574380D01*
X169203571Y-87574380D01*
X169108333Y-87526761D01*
X169060714Y-87479142D01*
X169013095Y-87383904D01*
X168965476Y-87193428D01*
X168965476Y-86955333D01*
X169013095Y-86764857D01*
X169060714Y-86669619D01*
X169108333Y-86622000D01*
X169203571Y-86574380D01*
X176395142Y-98120642D02*
X176347523Y-98168261D01*
X176204666Y-98215880D01*
X176109428Y-98215880D01*
X175966571Y-98168261D01*
X175871333Y-98073023D01*
X175823714Y-97977785D01*
X175776095Y-97787309D01*
X175776095Y-97644452D01*
X175823714Y-97453976D01*
X175871333Y-97358738D01*
X175966571Y-97263500D01*
X176109428Y-97215880D01*
X176204666Y-97215880D01*
X176347523Y-97263500D01*
X176395142Y-97311119D01*
X177347523Y-98215880D02*
X176776095Y-98215880D01*
X177061809Y-98215880D02*
X177061809Y-97215880D01*
X176966571Y-97358738D01*
X176871333Y-97453976D01*
X176776095Y-97501595D01*
X178299904Y-98215880D02*
X177728476Y-98215880D01*
X178014190Y-98215880D02*
X178014190Y-97215880D01*
X177918952Y-97358738D01*
X177823714Y-97453976D01*
X177728476Y-97501595D01*
X176522142Y-80494142D02*
X176474523Y-80541761D01*
X176331666Y-80589380D01*
X176236428Y-80589380D01*
X176093571Y-80541761D01*
X175998333Y-80446523D01*
X175950714Y-80351285D01*
X175903095Y-80160809D01*
X175903095Y-80017952D01*
X175950714Y-79827476D01*
X175998333Y-79732238D01*
X176093571Y-79637000D01*
X176236428Y-79589380D01*
X176331666Y-79589380D01*
X176474523Y-79637000D01*
X176522142Y-79684619D01*
X177474523Y-80589380D02*
X176903095Y-80589380D01*
X177188809Y-80589380D02*
X177188809Y-79589380D01*
X177093571Y-79732238D01*
X176998333Y-79827476D01*
X176903095Y-79875095D01*
X178093571Y-79589380D02*
X178188809Y-79589380D01*
X178284047Y-79637000D01*
X178331666Y-79684619D01*
X178379285Y-79779857D01*
X178426904Y-79970333D01*
X178426904Y-80208428D01*
X178379285Y-80398904D01*
X178331666Y-80494142D01*
X178284047Y-80541761D01*
X178188809Y-80589380D01*
X178093571Y-80589380D01*
X177998333Y-80541761D01*
X177950714Y-80494142D01*
X177903095Y-80398904D01*
X177855476Y-80208428D01*
X177855476Y-79970333D01*
X177903095Y-79779857D01*
X177950714Y-79684619D01*
X177998333Y-79637000D01*
X178093571Y-79589380D01*
X129653833Y-91035142D02*
X129606214Y-91082761D01*
X129463357Y-91130380D01*
X129368119Y-91130380D01*
X129225261Y-91082761D01*
X129130023Y-90987523D01*
X129082404Y-90892285D01*
X129034785Y-90701809D01*
X129034785Y-90558952D01*
X129082404Y-90368476D01*
X129130023Y-90273238D01*
X129225261Y-90178000D01*
X129368119Y-90130380D01*
X129463357Y-90130380D01*
X129606214Y-90178000D01*
X129653833Y-90225619D01*
X130510976Y-90463714D02*
X130510976Y-91130380D01*
X130272880Y-90082761D02*
X130034785Y-90797047D01*
X130653833Y-90797047D01*
X121189666Y-89050880D02*
X121189666Y-89765166D01*
X121142047Y-89908023D01*
X121046809Y-90003261D01*
X120903952Y-90050880D01*
X120808714Y-90050880D01*
X122189666Y-90050880D02*
X121618238Y-90050880D01*
X121903952Y-90050880D02*
X121903952Y-89050880D01*
X121808714Y-89193738D01*
X121713476Y-89288976D01*
X121618238Y-89336595D01*
X175125142Y-110180380D02*
X174791809Y-109704190D01*
X174553714Y-110180380D02*
X174553714Y-109180380D01*
X174934666Y-109180380D01*
X175029904Y-109228000D01*
X175077523Y-109275619D01*
X175125142Y-109370857D01*
X175125142Y-109513714D01*
X175077523Y-109608952D01*
X175029904Y-109656571D01*
X174934666Y-109704190D01*
X174553714Y-109704190D01*
X176077523Y-110180380D02*
X175506095Y-110180380D01*
X175791809Y-110180380D02*
X175791809Y-109180380D01*
X175696571Y-109323238D01*
X175601333Y-109418476D01*
X175506095Y-109466095D01*
X176934666Y-109180380D02*
X176744190Y-109180380D01*
X176648952Y-109228000D01*
X176601333Y-109275619D01*
X176506095Y-109418476D01*
X176458476Y-109608952D01*
X176458476Y-109989904D01*
X176506095Y-110085142D01*
X176553714Y-110132761D01*
X176648952Y-110180380D01*
X176839428Y-110180380D01*
X176934666Y-110132761D01*
X176982285Y-110085142D01*
X177029904Y-109989904D01*
X177029904Y-109751809D01*
X176982285Y-109656571D01*
X176934666Y-109608952D01*
X176839428Y-109561333D01*
X176648952Y-109561333D01*
X176553714Y-109608952D01*
X176506095Y-109656571D01*
X176458476Y-109751809D01*
X156583142Y-68618380D02*
X156249809Y-68142190D01*
X156011714Y-68618380D02*
X156011714Y-67618380D01*
X156392666Y-67618380D01*
X156487904Y-67666000D01*
X156535523Y-67713619D01*
X156583142Y-67808857D01*
X156583142Y-67951714D01*
X156535523Y-68046952D01*
X156487904Y-68094571D01*
X156392666Y-68142190D01*
X156011714Y-68142190D01*
X157535523Y-68618380D02*
X156964095Y-68618380D01*
X157249809Y-68618380D02*
X157249809Y-67618380D01*
X157154571Y-67761238D01*
X157059333Y-67856476D01*
X156964095Y-67904095D01*
X158392666Y-67951714D02*
X158392666Y-68618380D01*
X158154571Y-67570761D02*
X157916476Y-68285047D01*
X158535523Y-68285047D01*
X117689333Y-83923142D02*
X117641714Y-83970761D01*
X117498857Y-84018380D01*
X117403619Y-84018380D01*
X117260761Y-83970761D01*
X117165523Y-83875523D01*
X117117904Y-83780285D01*
X117070285Y-83589809D01*
X117070285Y-83446952D01*
X117117904Y-83256476D01*
X117165523Y-83161238D01*
X117260761Y-83066000D01*
X117403619Y-83018380D01*
X117498857Y-83018380D01*
X117641714Y-83066000D01*
X117689333Y-83113619D01*
X118641714Y-84018380D02*
X118070285Y-84018380D01*
X118356000Y-84018380D02*
X118356000Y-83018380D01*
X118260761Y-83161238D01*
X118165523Y-83256476D01*
X118070285Y-83304095D01*
X155789333Y-87574380D02*
X155456000Y-87098190D01*
X155217904Y-87574380D02*
X155217904Y-86574380D01*
X155598857Y-86574380D01*
X155694095Y-86622000D01*
X155741714Y-86669619D01*
X155789333Y-86764857D01*
X155789333Y-86907714D01*
X155741714Y-87002952D01*
X155694095Y-87050571D01*
X155598857Y-87098190D01*
X155217904Y-87098190D01*
X156646476Y-86574380D02*
X156456000Y-86574380D01*
X156360761Y-86622000D01*
X156313142Y-86669619D01*
X156217904Y-86812476D01*
X156170285Y-87002952D01*
X156170285Y-87383904D01*
X156217904Y-87479142D01*
X156265523Y-87526761D01*
X156360761Y-87574380D01*
X156551238Y-87574380D01*
X156646476Y-87526761D01*
X156694095Y-87479142D01*
X156741714Y-87383904D01*
X156741714Y-87145809D01*
X156694095Y-87050571D01*
X156646476Y-87002952D01*
X156551238Y-86955333D01*
X156360761Y-86955333D01*
X156265523Y-87002952D01*
X156217904Y-87050571D01*
X156170285Y-87145809D01*
X156043333Y-97607380D02*
X155710000Y-97131190D01*
X155471904Y-97607380D02*
X155471904Y-96607380D01*
X155852857Y-96607380D01*
X155948095Y-96655000D01*
X155995714Y-96702619D01*
X156043333Y-96797857D01*
X156043333Y-96940714D01*
X155995714Y-97035952D01*
X155948095Y-97083571D01*
X155852857Y-97131190D01*
X155471904Y-97131190D01*
X156948095Y-96607380D02*
X156471904Y-96607380D01*
X156424285Y-97083571D01*
X156471904Y-97035952D01*
X156567142Y-96988333D01*
X156805238Y-96988333D01*
X156900476Y-97035952D01*
X156948095Y-97083571D01*
X156995714Y-97178809D01*
X156995714Y-97416904D01*
X156948095Y-97512142D01*
X156900476Y-97559761D01*
X156805238Y-97607380D01*
X156567142Y-97607380D01*
X156471904Y-97559761D01*
X156424285Y-97512142D01*
X160813761Y-75858619D02*
X160718523Y-75811000D01*
X160623285Y-75715761D01*
X160480428Y-75572904D01*
X160385190Y-75525285D01*
X160289952Y-75525285D01*
X160337571Y-75763380D02*
X160242333Y-75715761D01*
X160147095Y-75620523D01*
X160099476Y-75430047D01*
X160099476Y-75096714D01*
X160147095Y-74906238D01*
X160242333Y-74811000D01*
X160337571Y-74763380D01*
X160528047Y-74763380D01*
X160623285Y-74811000D01*
X160718523Y-74906238D01*
X160766142Y-75096714D01*
X160766142Y-75430047D01*
X160718523Y-75620523D01*
X160623285Y-75715761D01*
X160528047Y-75763380D01*
X160337571Y-75763380D01*
X161670904Y-74763380D02*
X161194714Y-74763380D01*
X161147095Y-75239571D01*
X161194714Y-75191952D01*
X161289952Y-75144333D01*
X161528047Y-75144333D01*
X161623285Y-75191952D01*
X161670904Y-75239571D01*
X161718523Y-75334809D01*
X161718523Y-75572904D01*
X161670904Y-75668142D01*
X161623285Y-75715761D01*
X161528047Y-75763380D01*
X161289952Y-75763380D01*
X161194714Y-75715761D01*
X161147095Y-75668142D01*
X149915714Y-68651380D02*
X149915714Y-67651380D01*
X150153809Y-67651380D01*
X150296666Y-67699000D01*
X150391904Y-67794238D01*
X150439523Y-67889476D01*
X150487142Y-68079952D01*
X150487142Y-68222809D01*
X150439523Y-68413285D01*
X150391904Y-68508523D01*
X150296666Y-68603761D01*
X150153809Y-68651380D01*
X149915714Y-68651380D01*
X151439523Y-68651380D02*
X150868095Y-68651380D01*
X151153809Y-68651380D02*
X151153809Y-67651380D01*
X151058571Y-67794238D01*
X150963333Y-67889476D01*
X150868095Y-67937095D01*
X152058571Y-67651380D02*
X152153809Y-67651380D01*
X152249047Y-67699000D01*
X152296666Y-67746619D01*
X152344285Y-67841857D01*
X152391904Y-68032333D01*
X152391904Y-68270428D01*
X152344285Y-68460904D01*
X152296666Y-68556142D01*
X152249047Y-68603761D01*
X152153809Y-68651380D01*
X152058571Y-68651380D01*
X151963333Y-68603761D01*
X151915714Y-68556142D01*
X151868095Y-68460904D01*
X151820476Y-68270428D01*
X151820476Y-68032333D01*
X151868095Y-67841857D01*
X151915714Y-67746619D01*
X151963333Y-67699000D01*
X152058571Y-67651380D01*
X104648095Y-81075380D02*
X104648095Y-81884904D01*
X104695714Y-81980142D01*
X104743333Y-82027761D01*
X104838571Y-82075380D01*
X105029047Y-82075380D01*
X105124285Y-82027761D01*
X105171904Y-81980142D01*
X105219523Y-81884904D01*
X105219523Y-81075380D01*
X106124285Y-81408714D02*
X106124285Y-82075380D01*
X105886190Y-81027761D02*
X105648095Y-81742047D01*
X106267142Y-81742047D01*
X104671904Y-86304380D02*
X104671904Y-85304380D01*
X104910000Y-85304380D01*
X105052857Y-85352000D01*
X105148095Y-85447238D01*
X105195714Y-85542476D01*
X105243333Y-85732952D01*
X105243333Y-85875809D01*
X105195714Y-86066285D01*
X105148095Y-86161523D01*
X105052857Y-86256761D01*
X104910000Y-86304380D01*
X104671904Y-86304380D01*
X106195714Y-86304380D02*
X105624285Y-86304380D01*
X105910000Y-86304380D02*
X105910000Y-85304380D01*
X105814761Y-85447238D01*
X105719523Y-85542476D01*
X105624285Y-85590095D01*
X99147333Y-84018380D02*
X98814000Y-83542190D01*
X98575904Y-84018380D02*
X98575904Y-83018380D01*
X98956857Y-83018380D01*
X99052095Y-83066000D01*
X99099714Y-83113619D01*
X99147333Y-83208857D01*
X99147333Y-83351714D01*
X99099714Y-83446952D01*
X99052095Y-83494571D01*
X98956857Y-83542190D01*
X98575904Y-83542190D01*
X99480666Y-83018380D02*
X100099714Y-83018380D01*
X99766380Y-83399333D01*
X99909238Y-83399333D01*
X100004476Y-83446952D01*
X100052095Y-83494571D01*
X100099714Y-83589809D01*
X100099714Y-83827904D01*
X100052095Y-83923142D01*
X100004476Y-83970761D01*
X99909238Y-84018380D01*
X99623523Y-84018380D01*
X99528285Y-83970761D01*
X99480666Y-83923142D01*
X167274642Y-66459380D02*
X166941309Y-65983190D01*
X166703214Y-66459380D02*
X166703214Y-65459380D01*
X167084166Y-65459380D01*
X167179404Y-65507000D01*
X167227023Y-65554619D01*
X167274642Y-65649857D01*
X167274642Y-65792714D01*
X167227023Y-65887952D01*
X167179404Y-65935571D01*
X167084166Y-65983190D01*
X166703214Y-65983190D01*
X168227023Y-66459380D02*
X167655595Y-66459380D01*
X167941309Y-66459380D02*
X167941309Y-65459380D01*
X167846071Y-65602238D01*
X167750833Y-65697476D01*
X167655595Y-65745095D01*
X169131785Y-65459380D02*
X168655595Y-65459380D01*
X168607976Y-65935571D01*
X168655595Y-65887952D01*
X168750833Y-65840333D01*
X168988928Y-65840333D01*
X169084166Y-65887952D01*
X169131785Y-65935571D01*
X169179404Y-66030809D01*
X169179404Y-66268904D01*
X169131785Y-66364142D01*
X169084166Y-66411761D01*
X168988928Y-66459380D01*
X168750833Y-66459380D01*
X168655595Y-66411761D01*
X168607976Y-66364142D01*
X164234904Y-105989380D02*
X164234904Y-104989380D01*
X164473000Y-104989380D01*
X164615857Y-105037000D01*
X164711095Y-105132238D01*
X164758714Y-105227476D01*
X164806333Y-105417952D01*
X164806333Y-105560809D01*
X164758714Y-105751285D01*
X164711095Y-105846523D01*
X164615857Y-105941761D01*
X164473000Y-105989380D01*
X164234904Y-105989380D01*
X165282523Y-105989380D02*
X165473000Y-105989380D01*
X165568238Y-105941761D01*
X165615857Y-105894142D01*
X165711095Y-105751285D01*
X165758714Y-105560809D01*
X165758714Y-105179857D01*
X165711095Y-105084619D01*
X165663476Y-105037000D01*
X165568238Y-104989380D01*
X165377761Y-104989380D01*
X165282523Y-105037000D01*
X165234904Y-105084619D01*
X165187285Y-105179857D01*
X165187285Y-105417952D01*
X165234904Y-105513190D01*
X165282523Y-105560809D01*
X165377761Y-105608428D01*
X165568238Y-105608428D01*
X165663476Y-105560809D01*
X165711095Y-105513190D01*
X165758714Y-105417952D01*
X145819904Y-97734380D02*
X145819904Y-96734380D01*
X146058000Y-96734380D01*
X146200857Y-96782000D01*
X146296095Y-96877238D01*
X146343714Y-96972476D01*
X146391333Y-97162952D01*
X146391333Y-97305809D01*
X146343714Y-97496285D01*
X146296095Y-97591523D01*
X146200857Y-97686761D01*
X146058000Y-97734380D01*
X145819904Y-97734380D01*
X147296095Y-96734380D02*
X146819904Y-96734380D01*
X146772285Y-97210571D01*
X146819904Y-97162952D01*
X146915142Y-97115333D01*
X147153238Y-97115333D01*
X147248476Y-97162952D01*
X147296095Y-97210571D01*
X147343714Y-97305809D01*
X147343714Y-97543904D01*
X147296095Y-97639142D01*
X147248476Y-97686761D01*
X147153238Y-97734380D01*
X146915142Y-97734380D01*
X146819904Y-97686761D01*
X146772285Y-97639142D01*
X145089714Y-89860380D02*
X145089714Y-88860380D01*
X145327809Y-88860380D01*
X145470666Y-88908000D01*
X145565904Y-89003238D01*
X145613523Y-89098476D01*
X145661142Y-89288952D01*
X145661142Y-89431809D01*
X145613523Y-89622285D01*
X145565904Y-89717523D01*
X145470666Y-89812761D01*
X145327809Y-89860380D01*
X145089714Y-89860380D01*
X146613523Y-89860380D02*
X146042095Y-89860380D01*
X146327809Y-89860380D02*
X146327809Y-88860380D01*
X146232571Y-89003238D01*
X146137333Y-89098476D01*
X146042095Y-89146095D01*
X147565904Y-89860380D02*
X146994476Y-89860380D01*
X147280190Y-89860380D02*
X147280190Y-88860380D01*
X147184952Y-89003238D01*
X147089714Y-89098476D01*
X146994476Y-89146095D01*
X175125142Y-112466380D02*
X174791809Y-111990190D01*
X174553714Y-112466380D02*
X174553714Y-111466380D01*
X174934666Y-111466380D01*
X175029904Y-111514000D01*
X175077523Y-111561619D01*
X175125142Y-111656857D01*
X175125142Y-111799714D01*
X175077523Y-111894952D01*
X175029904Y-111942571D01*
X174934666Y-111990190D01*
X174553714Y-111990190D01*
X176077523Y-112466380D02*
X175506095Y-112466380D01*
X175791809Y-112466380D02*
X175791809Y-111466380D01*
X175696571Y-111609238D01*
X175601333Y-111704476D01*
X175506095Y-111752095D01*
X176410857Y-111466380D02*
X177077523Y-111466380D01*
X176648952Y-112466380D01*
X150622095Y-92797380D02*
X150622095Y-93606904D01*
X150669714Y-93702142D01*
X150717333Y-93749761D01*
X150812571Y-93797380D01*
X151003047Y-93797380D01*
X151098285Y-93749761D01*
X151145904Y-93702142D01*
X151193523Y-93606904D01*
X151193523Y-92797380D01*
X151717333Y-93797380D02*
X151907809Y-93797380D01*
X152003047Y-93749761D01*
X152050666Y-93702142D01*
X152145904Y-93559285D01*
X152193523Y-93368809D01*
X152193523Y-92987857D01*
X152145904Y-92892619D01*
X152098285Y-92845000D01*
X152003047Y-92797380D01*
X151812571Y-92797380D01*
X151717333Y-92845000D01*
X151669714Y-92892619D01*
X151622095Y-92987857D01*
X151622095Y-93225952D01*
X151669714Y-93321190D01*
X151717333Y-93368809D01*
X151812571Y-93416428D01*
X152003047Y-93416428D01*
X152098285Y-93368809D01*
X152145904Y-93321190D01*
X152193523Y-93225952D01*
X170172142Y-105989380D02*
X169838809Y-105513190D01*
X169600714Y-105989380D02*
X169600714Y-104989380D01*
X169981666Y-104989380D01*
X170076904Y-105037000D01*
X170124523Y-105084619D01*
X170172142Y-105179857D01*
X170172142Y-105322714D01*
X170124523Y-105417952D01*
X170076904Y-105465571D01*
X169981666Y-105513190D01*
X169600714Y-105513190D01*
X171124523Y-105989380D02*
X170553095Y-105989380D01*
X170838809Y-105989380D02*
X170838809Y-104989380D01*
X170743571Y-105132238D01*
X170648333Y-105227476D01*
X170553095Y-105275095D01*
X171505476Y-105084619D02*
X171553095Y-105037000D01*
X171648333Y-104989380D01*
X171886428Y-104989380D01*
X171981666Y-105037000D01*
X172029285Y-105084619D01*
X172076904Y-105179857D01*
X172076904Y-105275095D01*
X172029285Y-105417952D01*
X171457857Y-105989380D01*
X172076904Y-105989380D01*
X169322761Y-75858619D02*
X169227523Y-75811000D01*
X169132285Y-75715761D01*
X168989428Y-75572904D01*
X168894190Y-75525285D01*
X168798952Y-75525285D01*
X168846571Y-75763380D02*
X168751333Y-75715761D01*
X168656095Y-75620523D01*
X168608476Y-75430047D01*
X168608476Y-75096714D01*
X168656095Y-74906238D01*
X168751333Y-74811000D01*
X168846571Y-74763380D01*
X169037047Y-74763380D01*
X169132285Y-74811000D01*
X169227523Y-74906238D01*
X169275142Y-75096714D01*
X169275142Y-75430047D01*
X169227523Y-75620523D01*
X169132285Y-75715761D01*
X169037047Y-75763380D01*
X168846571Y-75763380D01*
X170132285Y-74763380D02*
X169941809Y-74763380D01*
X169846571Y-74811000D01*
X169798952Y-74858619D01*
X169703714Y-75001476D01*
X169656095Y-75191952D01*
X169656095Y-75572904D01*
X169703714Y-75668142D01*
X169751333Y-75715761D01*
X169846571Y-75763380D01*
X170037047Y-75763380D01*
X170132285Y-75715761D01*
X170179904Y-75668142D01*
X170227523Y-75572904D01*
X170227523Y-75334809D01*
X170179904Y-75239571D01*
X170132285Y-75191952D01*
X170037047Y-75144333D01*
X169846571Y-75144333D01*
X169751333Y-75191952D01*
X169703714Y-75239571D01*
X169656095Y-75334809D01*
X155567142Y-89765142D02*
X155519523Y-89812761D01*
X155376666Y-89860380D01*
X155281428Y-89860380D01*
X155138571Y-89812761D01*
X155043333Y-89717523D01*
X154995714Y-89622285D01*
X154948095Y-89431809D01*
X154948095Y-89288952D01*
X154995714Y-89098476D01*
X155043333Y-89003238D01*
X155138571Y-88908000D01*
X155281428Y-88860380D01*
X155376666Y-88860380D01*
X155519523Y-88908000D01*
X155567142Y-88955619D01*
X156519523Y-89860380D02*
X155948095Y-89860380D01*
X156233809Y-89860380D02*
X156233809Y-88860380D01*
X156138571Y-89003238D01*
X156043333Y-89098476D01*
X155948095Y-89146095D01*
X156852857Y-88860380D02*
X157471904Y-88860380D01*
X157138571Y-89241333D01*
X157281428Y-89241333D01*
X157376666Y-89288952D01*
X157424285Y-89336571D01*
X157471904Y-89431809D01*
X157471904Y-89669904D01*
X157424285Y-89765142D01*
X157376666Y-89812761D01*
X157281428Y-89860380D01*
X156995714Y-89860380D01*
X156900476Y-89812761D01*
X156852857Y-89765142D01*
X129055904Y-87320380D02*
X129055904Y-86320380D01*
X129294000Y-86320380D01*
X129436857Y-86368000D01*
X129532095Y-86463238D01*
X129579714Y-86558476D01*
X129627333Y-86748952D01*
X129627333Y-86891809D01*
X129579714Y-87082285D01*
X129532095Y-87177523D01*
X129436857Y-87272761D01*
X129294000Y-87320380D01*
X129055904Y-87320380D01*
X130008285Y-86415619D02*
X130055904Y-86368000D01*
X130151142Y-86320380D01*
X130389238Y-86320380D01*
X130484476Y-86368000D01*
X130532095Y-86415619D01*
X130579714Y-86510857D01*
X130579714Y-86606095D01*
X130532095Y-86748952D01*
X129960666Y-87320380D01*
X130579714Y-87320380D01*
X117276666Y-71334380D02*
X117467142Y-71334380D01*
X117562380Y-71382000D01*
X117657619Y-71477238D01*
X117705238Y-71667714D01*
X117705238Y-72001047D01*
X117657619Y-72191523D01*
X117562380Y-72286761D01*
X117467142Y-72334380D01*
X117276666Y-72334380D01*
X117181428Y-72286761D01*
X117086190Y-72191523D01*
X117038571Y-72001047D01*
X117038571Y-71667714D01*
X117086190Y-71477238D01*
X117181428Y-71382000D01*
X117276666Y-71334380D01*
X118133809Y-72334380D02*
X118133809Y-71334380D01*
X118705238Y-72334380D02*
X118276666Y-71762952D01*
X118705238Y-71334380D02*
X118133809Y-71905809D01*
X119133809Y-72334380D02*
X119133809Y-71334380D01*
X131659333Y-87320380D02*
X131326000Y-86844190D01*
X131087904Y-87320380D02*
X131087904Y-86320380D01*
X131468857Y-86320380D01*
X131564095Y-86368000D01*
X131611714Y-86415619D01*
X131659333Y-86510857D01*
X131659333Y-86653714D01*
X131611714Y-86748952D01*
X131564095Y-86796571D01*
X131468857Y-86844190D01*
X131087904Y-86844190D01*
X132040285Y-86415619D02*
X132087904Y-86368000D01*
X132183142Y-86320380D01*
X132421238Y-86320380D01*
X132516476Y-86368000D01*
X132564095Y-86415619D01*
X132611714Y-86510857D01*
X132611714Y-86606095D01*
X132564095Y-86748952D01*
X131992666Y-87320380D01*
X132611714Y-87320380D01*
X147978904Y-68651380D02*
X147978904Y-67651380D01*
X148217000Y-67651380D01*
X148359857Y-67699000D01*
X148455095Y-67794238D01*
X148502714Y-67889476D01*
X148550333Y-68079952D01*
X148550333Y-68222809D01*
X148502714Y-68413285D01*
X148455095Y-68508523D01*
X148359857Y-68603761D01*
X148217000Y-68651380D01*
X147978904Y-68651380D01*
X149121761Y-68079952D02*
X149026523Y-68032333D01*
X148978904Y-67984714D01*
X148931285Y-67889476D01*
X148931285Y-67841857D01*
X148978904Y-67746619D01*
X149026523Y-67699000D01*
X149121761Y-67651380D01*
X149312238Y-67651380D01*
X149407476Y-67699000D01*
X149455095Y-67746619D01*
X149502714Y-67841857D01*
X149502714Y-67889476D01*
X149455095Y-67984714D01*
X149407476Y-68032333D01*
X149312238Y-68079952D01*
X149121761Y-68079952D01*
X149026523Y-68127571D01*
X148978904Y-68175190D01*
X148931285Y-68270428D01*
X148931285Y-68460904D01*
X148978904Y-68556142D01*
X149026523Y-68603761D01*
X149121761Y-68651380D01*
X149312238Y-68651380D01*
X149407476Y-68603761D01*
X149455095Y-68556142D01*
X149502714Y-68460904D01*
X149502714Y-68270428D01*
X149455095Y-68175190D01*
X149407476Y-68127571D01*
X149312238Y-68079952D01*
X112964933Y-83923142D02*
X112917314Y-83970761D01*
X112774457Y-84018380D01*
X112679219Y-84018380D01*
X112536361Y-83970761D01*
X112441123Y-83875523D01*
X112393504Y-83780285D01*
X112345885Y-83589809D01*
X112345885Y-83446952D01*
X112393504Y-83256476D01*
X112441123Y-83161238D01*
X112536361Y-83066000D01*
X112679219Y-83018380D01*
X112774457Y-83018380D01*
X112917314Y-83066000D01*
X112964933Y-83113619D01*
X113345885Y-83113619D02*
X113393504Y-83066000D01*
X113488742Y-83018380D01*
X113726838Y-83018380D01*
X113822076Y-83066000D01*
X113869695Y-83113619D01*
X113917314Y-83208857D01*
X113917314Y-83304095D01*
X113869695Y-83446952D01*
X113298266Y-84018380D01*
X113917314Y-84018380D01*
D12*
X132887767Y-89156000D02*
X132595233Y-89156000D01*
X132887767Y-88136000D02*
X132595233Y-88136000D01*
D13*
X107442000Y-126746000D02*
X107442000Y-121886000D01*
X107442000Y-121886000D02*
X106742000Y-121886000D01*
X107442000Y-108966000D02*
X168402000Y-108966000D01*
X106742000Y-121886000D02*
X106742000Y-113826000D01*
X168402000Y-126746000D02*
X107442000Y-126746000D01*
X107442000Y-108966000D02*
X107442000Y-113826000D01*
X168402000Y-108966000D02*
X168402000Y-126746000D01*
X107442000Y-113826000D02*
X106742000Y-113826000D01*
D14*
X113892000Y-127356000D02*
G75*
G03*
X113892000Y-127356000I-100000J0D01*
G01*
D12*
X153694224Y-79770500D02*
X153184776Y-79770500D01*
X153694224Y-78725500D02*
X153184776Y-78725500D01*
D11*
X104222420Y-135248764D02*
G75*
G03*
X104222420Y-135248764I-4013200J0D01*
G01*
D12*
X132861267Y-92200000D02*
X132568733Y-92200000D01*
X132861267Y-93220000D02*
X132568733Y-93220000D01*
D11*
X197694420Y-135256620D02*
G75*
G03*
X197694420Y-135256620I-4013200J0D01*
G01*
D12*
X146302000Y-70604767D02*
X146302000Y-70312233D01*
X147322000Y-70604767D02*
X147322000Y-70312233D01*
X162286733Y-106805000D02*
X162579267Y-106805000D01*
X162286733Y-107825000D02*
X162579267Y-107825000D01*
X169418000Y-98913000D02*
X171368000Y-98913000D01*
X169418000Y-104033000D02*
X171368000Y-104033000D01*
X169418000Y-104033000D02*
X167468000Y-104033000D01*
X169418000Y-98913000D02*
X165968000Y-98913000D01*
X112165224Y-85329500D02*
X111655776Y-85329500D01*
X112165224Y-86374500D02*
X111655776Y-86374500D01*
X150998000Y-87857000D02*
X150998000Y-86387000D01*
X150998000Y-86387000D02*
X148538000Y-86387000D01*
X148538000Y-87857000D02*
X150998000Y-87857000D01*
D11*
X195878400Y-87334000D02*
X196970600Y-87334000D01*
X195827600Y-71586000D02*
X197021400Y-71586000D01*
X200425000Y-71586000D02*
X208172000Y-71586000D01*
X183559400Y-87334000D02*
X183559400Y-71586000D01*
X195853000Y-87334000D02*
X183559400Y-87334000D01*
X198139000Y-86191000D02*
X198139000Y-85022600D01*
X208172000Y-79485400D02*
X199282000Y-79485400D01*
X200450400Y-71586000D02*
X199282000Y-71586000D01*
X195853000Y-79460000D02*
X196996000Y-79460000D01*
X198139000Y-81746000D02*
X198139000Y-80603000D01*
X198139000Y-77174000D02*
X198139000Y-73872000D01*
X195853000Y-71586000D02*
X183559400Y-71586000D01*
X198139000Y-77174000D02*
X198139000Y-78317000D01*
X195853000Y-79460000D02*
X183559400Y-79460000D01*
X198139000Y-73897400D02*
X198139000Y-72729000D01*
X198139000Y-81746000D02*
X198139000Y-85022600D01*
X208197400Y-87334000D02*
X208197400Y-71586000D01*
X199282000Y-87334000D02*
X200501200Y-87334000D01*
X208172000Y-87334000D02*
X200425000Y-87334000D01*
X198139000Y-72703600D02*
G75*
G03*
X199256600Y-71586000I2J1117598D01*
G01*
X199282000Y-87334000D02*
G75*
G03*
X198139000Y-86191000I-1143000J0D01*
G01*
X198139000Y-86191000D02*
G75*
G03*
X196996000Y-87334000I0J-1143000D01*
G01*
X197021400Y-71586000D02*
G75*
G03*
X198139000Y-72703600I1117598J-2D01*
G01*
X199282000Y-79460000D02*
G75*
G03*
X199282000Y-79460000I-1143000J0D01*
G01*
D12*
X151384000Y-80752000D02*
X153334000Y-80752000D01*
X151384000Y-85872000D02*
X153334000Y-85872000D01*
X151384000Y-80752000D02*
X147934000Y-80752000D01*
X151384000Y-85872000D02*
X149434000Y-85872000D01*
X151384000Y-98913000D02*
X153334000Y-98913000D01*
X151384000Y-104033000D02*
X149434000Y-104033000D01*
X151384000Y-98913000D02*
X147934000Y-98913000D01*
X151384000Y-104033000D02*
X153334000Y-104033000D01*
X154434000Y-70657767D02*
X154434000Y-70365233D01*
X153414000Y-70657767D02*
X153414000Y-70365233D01*
D11*
X195853000Y-97240000D02*
X196996000Y-97240000D01*
X200450400Y-89366000D02*
X199282000Y-89366000D01*
X198139000Y-94954000D02*
X198139000Y-91652000D01*
X198139000Y-103971000D02*
X198139000Y-102802600D01*
X195827600Y-89366000D02*
X197021400Y-89366000D01*
X195853000Y-97240000D02*
X183559400Y-97240000D01*
X200425000Y-89366000D02*
X208172000Y-89366000D01*
X199282000Y-105114000D02*
X200501200Y-105114000D01*
X208197400Y-105114000D02*
X208197400Y-89366000D01*
X208172000Y-105114000D02*
X200425000Y-105114000D01*
X183559400Y-105114000D02*
X183559400Y-89366000D01*
X198139000Y-91677400D02*
X198139000Y-90509000D01*
X195878400Y-105114000D02*
X196970600Y-105114000D01*
X198139000Y-94954000D02*
X198139000Y-96097000D01*
X195853000Y-105114000D02*
X183559400Y-105114000D01*
X195853000Y-89366000D02*
X183559400Y-89366000D01*
X208172000Y-97265400D02*
X199282000Y-97265400D01*
X198139000Y-99526000D02*
X198139000Y-102802600D01*
X198139000Y-99526000D02*
X198139000Y-98383000D01*
X199282000Y-105114000D02*
G75*
G03*
X198139000Y-103971000I-1143000J0D01*
G01*
X197021400Y-89366000D02*
G75*
G03*
X198139000Y-90483600I1117598J-2D01*
G01*
X198139000Y-90483600D02*
G75*
G03*
X199256600Y-89366000I2J1117598D01*
G01*
X198139000Y-103971000D02*
G75*
G03*
X196996000Y-105114000I0J-1143000D01*
G01*
X199282000Y-97240000D02*
G75*
G03*
X199282000Y-97240000I-1143000J0D01*
G01*
D12*
X151012000Y-104548000D02*
X148552000Y-104548000D01*
X148552000Y-106018000D02*
X151012000Y-106018000D01*
X151012000Y-106018000D02*
X151012000Y-104548000D01*
X160909000Y-95905000D02*
X162859000Y-95905000D01*
X160909000Y-90785000D02*
X157459000Y-90785000D01*
X160909000Y-95905000D02*
X158959000Y-95905000D01*
X160909000Y-90785000D02*
X162859000Y-90785000D01*
X151384000Y-72878000D02*
X153334000Y-72878000D01*
X151384000Y-77998000D02*
X149434000Y-77998000D01*
X151384000Y-72878000D02*
X147934000Y-72878000D01*
X151384000Y-77998000D02*
X153334000Y-77998000D01*
G36*
X149212451Y-132679360D02*
G01*
X149207431Y-132684380D01*
X149202411Y-132679360D01*
X149207431Y-132674340D01*
X149212451Y-132679360D01*
G37*
D15*
X149212451Y-132679360D02*
X149207431Y-132684380D01*
X149202411Y-132679360D01*
X149207431Y-132674340D01*
X149212451Y-132679360D01*
G36*
X144807144Y-137759258D02*
G01*
X144692453Y-137699782D01*
X144662563Y-137681001D01*
X144627991Y-137660886D01*
X144594010Y-137645252D01*
X144574190Y-137638995D01*
X144548049Y-137631229D01*
X144511308Y-137617201D01*
X144471274Y-137599733D01*
X144465435Y-137596989D01*
X144385123Y-137547914D01*
X144384993Y-137547792D01*
X145362669Y-137547792D01*
X145365999Y-137555751D01*
X145375384Y-137566513D01*
X145377598Y-137568871D01*
X145390158Y-137581256D01*
X145402640Y-137588914D01*
X145418927Y-137591960D01*
X145442900Y-137590512D01*
X145478443Y-137584688D01*
X145529438Y-137574604D01*
X145534370Y-137573603D01*
X145575396Y-137564455D01*
X145622398Y-137552687D01*
X145671741Y-137539374D01*
X145719793Y-137525590D01*
X145762919Y-137512410D01*
X145797485Y-137500909D01*
X145819859Y-137492161D01*
X145826406Y-137487241D01*
X145826398Y-137487234D01*
X145815540Y-137487192D01*
X145789731Y-137490240D01*
X145753757Y-137495770D01*
X145738435Y-137498392D01*
X145694636Y-137505056D01*
X145638173Y-137512162D01*
X145576417Y-137518848D01*
X145518253Y-137524133D01*
X145456417Y-137529179D01*
X145412267Y-137533329D01*
X145383477Y-137537320D01*
X145367719Y-137541895D01*
X145362669Y-137547792D01*
X144384993Y-137547792D01*
X144315487Y-137482567D01*
X144257197Y-137402088D01*
X144210928Y-137307614D01*
X144177349Y-137200284D01*
X144157134Y-137081236D01*
X144156317Y-137073307D01*
X144149253Y-137030136D01*
X144136847Y-136978945D01*
X144121660Y-136930170D01*
X144120179Y-136926079D01*
X144080882Y-136805128D01*
X144075826Y-136785526D01*
X144271464Y-136785526D01*
X144275844Y-136857336D01*
X144280281Y-136901065D01*
X144289317Y-136936917D01*
X144305842Y-136974429D01*
X144318426Y-136997889D01*
X144403855Y-137136070D01*
X144496609Y-137256106D01*
X144597325Y-137358786D01*
X144639447Y-137394741D01*
X144699684Y-137443540D01*
X144764941Y-137437318D01*
X144798933Y-137433561D01*
X144824013Y-137429824D01*
X144834381Y-137427065D01*
X144836532Y-137424362D01*
X144834616Y-137420798D01*
X144825476Y-137414137D01*
X144805958Y-137402146D01*
X144772903Y-137382588D01*
X144764941Y-137377897D01*
X144655216Y-137303962D01*
X144556691Y-137217508D01*
X144467763Y-137116746D01*
X144386828Y-136999886D01*
X144321366Y-136883142D01*
X144271464Y-136785526D01*
X144075826Y-136785526D01*
X144045168Y-136666671D01*
X144013519Y-136513038D01*
X143986418Y-136346562D01*
X143965271Y-136178135D01*
X143960658Y-136125569D01*
X143956788Y-136061612D01*
X143953681Y-135989310D01*
X143951360Y-135911708D01*
X143949845Y-135831852D01*
X143949158Y-135752788D01*
X143949320Y-135677562D01*
X143950352Y-135609219D01*
X143952276Y-135550806D01*
X143955113Y-135505367D01*
X143958885Y-135475949D01*
X143960314Y-135470348D01*
X143965848Y-135455161D01*
X143968923Y-135454391D01*
X143970402Y-135470069D01*
X143971013Y-135495447D01*
X143974272Y-135575211D01*
X143981297Y-135669932D01*
X143991494Y-135774968D01*
X144004270Y-135885675D01*
X144019030Y-135997411D01*
X144035181Y-136105534D01*
X144052129Y-136205399D01*
X144069281Y-136292365D01*
X144077585Y-136328886D01*
X144092925Y-136390030D01*
X144109183Y-136450333D01*
X144125431Y-136506813D01*
X144140742Y-136556483D01*
X144154185Y-136596360D01*
X144164833Y-136623459D01*
X144171756Y-136634795D01*
X144172778Y-136634829D01*
X144181999Y-136618577D01*
X144186609Y-136586652D01*
X144186614Y-136542920D01*
X144182021Y-136491250D01*
X144172838Y-136435507D01*
X144172392Y-136433326D01*
X144157849Y-136358500D01*
X144146032Y-136286880D01*
X144136660Y-136215058D01*
X144129455Y-136139627D01*
X144124137Y-136057177D01*
X144120426Y-135964301D01*
X144118042Y-135857588D01*
X144116875Y-135756475D01*
X144115310Y-135560956D01*
X144173100Y-135560956D01*
X144174065Y-135599967D01*
X144176056Y-135648540D01*
X144178900Y-135703191D01*
X144182423Y-135760434D01*
X144186448Y-135816784D01*
X144190802Y-135868755D01*
X144193567Y-135897028D01*
X144199144Y-135944152D01*
X144206554Y-135998187D01*
X144215138Y-136055193D01*
X144224237Y-136111228D01*
X144233191Y-136162349D01*
X144241341Y-136204616D01*
X144248029Y-136234086D01*
X144251894Y-136245820D01*
X144257315Y-136241742D01*
X144267257Y-136221633D01*
X144280364Y-136188660D01*
X144295276Y-136145990D01*
X144297110Y-136140405D01*
X144319697Y-136073050D01*
X144339895Y-136016489D01*
X144356941Y-135972646D01*
X144370070Y-135943443D01*
X144378519Y-135930805D01*
X144380386Y-135930786D01*
X144380048Y-135941656D01*
X144376049Y-135968247D01*
X144369051Y-136006672D01*
X144359717Y-136053042D01*
X144358777Y-136057514D01*
X144345958Y-136120810D01*
X144332305Y-136192433D01*
X144319804Y-136261785D01*
X144313372Y-136299791D01*
X144293827Y-136419591D01*
X144324335Y-136507183D01*
X144349863Y-136574352D01*
X144381430Y-136648006D01*
X144416376Y-136722616D01*
X144452045Y-136792649D01*
X144485777Y-136852572D01*
X144504609Y-136882304D01*
X144552483Y-136945710D01*
X144610581Y-137011028D01*
X144672813Y-137071937D01*
X144733094Y-137122117D01*
X144741446Y-137128224D01*
X144771831Y-137148204D01*
X144809249Y-137170218D01*
X144849690Y-137192237D01*
X144889144Y-137212235D01*
X144923603Y-137228183D01*
X144949055Y-137238054D01*
X144961493Y-137239821D01*
X144961737Y-137239626D01*
X144959889Y-137229188D01*
X144951208Y-137205359D01*
X144937460Y-137172890D01*
X144934405Y-137166103D01*
X144904765Y-137097892D01*
X144871422Y-137016243D01*
X144836559Y-136926917D01*
X144802359Y-136835672D01*
X144771006Y-136748268D01*
X144744680Y-136670465D01*
X144735005Y-136639953D01*
X144718274Y-136584029D01*
X144700222Y-136520822D01*
X144681662Y-136453489D01*
X144663406Y-136385185D01*
X144646266Y-136319066D01*
X144631055Y-136258286D01*
X144618585Y-136206002D01*
X144609669Y-136165370D01*
X144605118Y-136139544D01*
X144604705Y-136133821D01*
X144608366Y-136137668D01*
X144618576Y-136158189D01*
X144634474Y-136193399D01*
X144655196Y-136241311D01*
X144679879Y-136299941D01*
X144707659Y-136367301D01*
X144728688Y-136419083D01*
X144772776Y-136527436D01*
X144811540Y-136620463D01*
X144846616Y-136701671D01*
X144879643Y-136774567D01*
X144912257Y-136842659D01*
X144946096Y-136909454D01*
X144982797Y-136978459D01*
X145023999Y-137053181D01*
X145028450Y-137061140D01*
X145068493Y-137132135D01*
X145100433Y-137187301D01*
X145125597Y-137228534D01*
X145145313Y-137257731D01*
X145160908Y-137276788D01*
X145173710Y-137287604D01*
X145185047Y-137292074D01*
X145190397Y-137292522D01*
X145208593Y-137287174D01*
X145238575Y-137272741D01*
X145275669Y-137251636D01*
X145303551Y-137234063D01*
X145344474Y-137205906D01*
X145395156Y-137169100D01*
X145449935Y-137127858D01*
X145503148Y-137086393D01*
X145517989Y-137074516D01*
X145527612Y-137066633D01*
X146110238Y-137066633D01*
X146115257Y-137071653D01*
X146120277Y-137066633D01*
X146115257Y-137061613D01*
X146110238Y-137066633D01*
X145527612Y-137066633D01*
X145537974Y-137058145D01*
X146130317Y-137058145D01*
X146137991Y-137056243D01*
X146160931Y-137041534D01*
X146199011Y-137014106D01*
X146252107Y-136974046D01*
X146279033Y-136953337D01*
X146312843Y-136926481D01*
X146339148Y-136904167D01*
X146354858Y-136889107D01*
X146357794Y-136884163D01*
X146348951Y-136888416D01*
X146327924Y-136902606D01*
X146298177Y-136924082D01*
X146263171Y-136950196D01*
X146226370Y-136978300D01*
X146191236Y-137005746D01*
X146161232Y-137029885D01*
X146139822Y-137048068D01*
X146130467Y-137057647D01*
X146130317Y-137058145D01*
X145537974Y-137058145D01*
X145561201Y-137039119D01*
X145608645Y-136999302D01*
X145658022Y-136957099D01*
X145707033Y-136914547D01*
X145753379Y-136873681D01*
X145794763Y-136836537D01*
X145828884Y-136805151D01*
X145853444Y-136781558D01*
X145866145Y-136767794D01*
X145867293Y-136765191D01*
X145857251Y-136760791D01*
X145832082Y-136750955D01*
X145795530Y-136737119D01*
X145751337Y-136720716D01*
X145749079Y-136719885D01*
X145515246Y-136623659D01*
X145289522Y-136510228D01*
X145073262Y-136380596D01*
X144867822Y-136235764D01*
X144674558Y-136076735D01*
X144494825Y-135904509D01*
X144329979Y-135720090D01*
X144238310Y-135603372D01*
X144212959Y-135570100D01*
X144192050Y-135543929D01*
X144178436Y-135528361D01*
X144174952Y-135525566D01*
X144173338Y-135534994D01*
X144173100Y-135560956D01*
X144115310Y-135560956D01*
X144114263Y-135430190D01*
X144047137Y-135319755D01*
X143924614Y-135099020D01*
X143820006Y-134869400D01*
X143733274Y-134630785D01*
X143664383Y-134383064D01*
X143613295Y-134126124D01*
X143589074Y-133949360D01*
X143584394Y-133893450D01*
X143580923Y-133822085D01*
X143578662Y-133739853D01*
X143577611Y-133651343D01*
X143577770Y-133561142D01*
X143579139Y-133473838D01*
X143581718Y-133394019D01*
X143585507Y-133326274D01*
X143589074Y-133286751D01*
X143628469Y-133023095D01*
X143685930Y-132768193D01*
X143761476Y-132522003D01*
X143855126Y-132284476D01*
X143966897Y-132055568D01*
X144096810Y-131835234D01*
X144244882Y-131623427D01*
X144302111Y-131549913D01*
X144353221Y-131489023D01*
X144415479Y-131419573D01*
X144484662Y-131345922D01*
X144556548Y-131272432D01*
X144626915Y-131203463D01*
X144691540Y-131143376D01*
X144719763Y-131118556D01*
X144921679Y-130958277D01*
X145133979Y-130815032D01*
X145355903Y-130689151D01*
X145586689Y-130580966D01*
X145825575Y-130490810D01*
X146071800Y-130419014D01*
X146324602Y-130365910D01*
X146506799Y-130339835D01*
X146581512Y-130333075D01*
X146670570Y-130328082D01*
X146768761Y-130324896D01*
X146870874Y-130323557D01*
X146971697Y-130324107D01*
X147066019Y-130326584D01*
X147148628Y-130331030D01*
X147189487Y-130334564D01*
X147449481Y-130370969D01*
X147701394Y-130425731D01*
X147945439Y-130498937D01*
X148181830Y-130590676D01*
X148410782Y-130701037D01*
X148632508Y-130830107D01*
X148847222Y-130977976D01*
X148961463Y-131066589D01*
X149005285Y-131103702D01*
X149057555Y-131150734D01*
X149115226Y-131204680D01*
X149175251Y-131262536D01*
X149234584Y-131321294D01*
X149290179Y-131377951D01*
X149338989Y-131429500D01*
X149377968Y-131472936D01*
X149398182Y-131497431D01*
X149419422Y-131523891D01*
X149435755Y-131542627D01*
X149443360Y-131549399D01*
X149448913Y-131540841D01*
X149462348Y-131516423D01*
X149482570Y-131478244D01*
X149508484Y-131428406D01*
X149538997Y-131369006D01*
X149573011Y-131302147D01*
X149596248Y-131256146D01*
X149668294Y-131114593D01*
X149737583Y-130981358D01*
X149803514Y-130857480D01*
X149865487Y-130743997D01*
X149922901Y-130641948D01*
X149975157Y-130552372D01*
X150021654Y-130476308D01*
X150061791Y-130414795D01*
X150094969Y-130368872D01*
X150120586Y-130339578D01*
X150130668Y-130331296D01*
X150148102Y-130320953D01*
X150154354Y-130321025D01*
X150149097Y-130333126D01*
X150132000Y-130358867D01*
X150122190Y-130372756D01*
X150103840Y-130399842D01*
X150085861Y-130429573D01*
X150067125Y-130464325D01*
X150046503Y-130506477D01*
X150022868Y-130558406D01*
X149995091Y-130622489D01*
X149962043Y-130701105D01*
X149932622Y-130772244D01*
X149907600Y-130833670D01*
X149876740Y-130910444D01*
X149841379Y-130999161D01*
X149802855Y-131096415D01*
X149762506Y-131198801D01*
X149721670Y-131302915D01*
X149681686Y-131405352D01*
X149643891Y-131502706D01*
X149609623Y-131591572D01*
X149580220Y-131668545D01*
X149574369Y-131683988D01*
X149563532Y-131712648D01*
X149507220Y-131635539D01*
X149482322Y-131603301D01*
X149461298Y-131579500D01*
X149447057Y-131567255D01*
X149443006Y-131566721D01*
X149437388Y-131576970D01*
X149423808Y-131603788D01*
X149403013Y-131645649D01*
X149375749Y-131701028D01*
X149342761Y-131768401D01*
X149304796Y-131846243D01*
X149262599Y-131933029D01*
X149216917Y-132027233D01*
X149168495Y-132127332D01*
X149149172Y-132167344D01*
X149037921Y-132397675D01*
X148934687Y-132611119D01*
X148838860Y-132808925D01*
X148749831Y-132992337D01*
X148666990Y-133162603D01*
X148589727Y-133320968D01*
X148517434Y-133468678D01*
X148449500Y-133606980D01*
X148385316Y-133737120D01*
X148324273Y-133860344D01*
X148265761Y-133977899D01*
X148209170Y-134091030D01*
X148176958Y-134155170D01*
X148133299Y-134242492D01*
X148096018Y-134317559D01*
X148063790Y-134382093D01*
X148035287Y-134437820D01*
X148009185Y-134486462D01*
X147984158Y-134529744D01*
X147958879Y-134569388D01*
X147932022Y-134607118D01*
X147902263Y-134644659D01*
X147868274Y-134683733D01*
X147828730Y-134726065D01*
X147782305Y-134773378D01*
X147727674Y-134827396D01*
X147663510Y-134889842D01*
X147588487Y-134962440D01*
X147501280Y-135046913D01*
X147460554Y-135086491D01*
X147387095Y-135158369D01*
X147315228Y-135229443D01*
X147246826Y-135297806D01*
X147183766Y-135361553D01*
X147127923Y-135418777D01*
X147081171Y-135467572D01*
X147045386Y-135506031D01*
X147024557Y-135529693D01*
X146967906Y-135596302D01*
X146899212Y-135675063D01*
X146820482Y-135763789D01*
X146733725Y-135860292D01*
X146640952Y-135962383D01*
X146544170Y-136067873D01*
X146445390Y-136174576D01*
X146346620Y-136280303D01*
X146249869Y-136382865D01*
X146157146Y-136480074D01*
X146070461Y-136569743D01*
X146056277Y-136584276D01*
X146008303Y-136633495D01*
X145965468Y-136677708D01*
X145929624Y-136714984D01*
X145902621Y-136743390D01*
X145886311Y-136760992D01*
X145882216Y-136766010D01*
X145894556Y-136770406D01*
X145922514Y-136778450D01*
X145962177Y-136789143D01*
X146009627Y-136801487D01*
X146060951Y-136814484D01*
X146112232Y-136827137D01*
X146159556Y-136838446D01*
X146199007Y-136847415D01*
X146214248Y-136850646D01*
X146278725Y-136862804D01*
X146325584Y-136869207D01*
X146356406Y-136869973D01*
X146372773Y-136865219D01*
X146375197Y-136862583D01*
X146384789Y-136853119D01*
X146406492Y-136834312D01*
X146436665Y-136809264D01*
X146458616Y-136791490D01*
X146536917Y-136728677D01*
X146378457Y-136878133D01*
X146412509Y-136884227D01*
X146472866Y-136892957D01*
X146545208Y-136900029D01*
X146626794Y-136905462D01*
X146714882Y-136909277D01*
X146806733Y-136911494D01*
X146899604Y-136912133D01*
X146990756Y-136911214D01*
X147077446Y-136908757D01*
X147156934Y-136904782D01*
X147226479Y-136899310D01*
X147283339Y-136892359D01*
X147324774Y-136883951D01*
X147342727Y-136877418D01*
X147354207Y-136865573D01*
X147374525Y-136838044D01*
X147402600Y-136796607D01*
X147437347Y-136743034D01*
X147477685Y-136679098D01*
X147522531Y-136606575D01*
X147570802Y-136527236D01*
X147621416Y-136442857D01*
X147673290Y-136355210D01*
X147725340Y-136266069D01*
X147776486Y-136177208D01*
X147825643Y-136090401D01*
X147852313Y-136042601D01*
X147894634Y-135967587D01*
X147940086Y-135889270D01*
X147986021Y-135812062D01*
X148029788Y-135740374D01*
X148068738Y-135678618D01*
X148093502Y-135641020D01*
X148130553Y-135584446D01*
X148173582Y-135515712D01*
X148219202Y-135440417D01*
X148264025Y-135364161D01*
X148304663Y-135292546D01*
X148308729Y-135285199D01*
X148358622Y-135197052D01*
X148407686Y-135115585D01*
X148459448Y-135035318D01*
X148517438Y-134950778D01*
X148583701Y-134858519D01*
X148725597Y-134660263D01*
X148859685Y-134464387D01*
X148989082Y-134266061D01*
X149116904Y-134060452D01*
X149246269Y-133842732D01*
X149306383Y-133738530D01*
X149342454Y-133676546D01*
X149375279Y-133623042D01*
X149407815Y-133573826D01*
X149443021Y-133524706D01*
X149483857Y-133471488D01*
X149533280Y-133409981D01*
X149568523Y-133367068D01*
X149617164Y-133308066D01*
X149665546Y-133249214D01*
X149710927Y-133193860D01*
X149750562Y-133145355D01*
X149781709Y-133107046D01*
X149794674Y-133090981D01*
X149825876Y-133052543D01*
X149865381Y-133004481D01*
X149908496Y-132952473D01*
X149950528Y-132902201D01*
X149957477Y-132893940D01*
X149991700Y-132852501D01*
X150020739Y-132815815D01*
X150042326Y-132786870D01*
X150054192Y-132768651D01*
X150055771Y-132764508D01*
X150053093Y-132749432D01*
X150046201Y-132722033D01*
X150036810Y-132688213D01*
X150026635Y-132653871D01*
X150017392Y-132624911D01*
X150010794Y-132607231D01*
X150009329Y-132604690D01*
X150000563Y-132608755D01*
X149981725Y-132623674D01*
X149958364Y-132644848D01*
X149935194Y-132665726D01*
X149924348Y-132672645D01*
X149926451Y-132665214D01*
X149927004Y-132664301D01*
X149941041Y-132639895D01*
X149958309Y-132607840D01*
X149965121Y-132594666D01*
X149978822Y-132568914D01*
X149987224Y-132558914D01*
X149993840Y-132562376D01*
X149999604Y-132572170D01*
X150005007Y-132580384D01*
X150011831Y-132583199D01*
X150022657Y-132579001D01*
X150040065Y-132566177D01*
X150066635Y-132543111D01*
X150104950Y-132508192D01*
X150111391Y-132502271D01*
X150225022Y-132398673D01*
X150326253Y-132308322D01*
X150416579Y-132229970D01*
X150497496Y-132162370D01*
X150570500Y-132104275D01*
X150637087Y-132054437D01*
X150698751Y-132011609D01*
X150703321Y-132008577D01*
X150785052Y-131957970D01*
X150854989Y-131921945D01*
X150912784Y-131900626D01*
X150958090Y-131894137D01*
X150990559Y-131902601D01*
X150994467Y-131905296D01*
X151005184Y-131914683D01*
X151003189Y-131919267D01*
X150985573Y-131920836D01*
X150968824Y-131921057D01*
X150924065Y-131927695D01*
X150879657Y-131948938D01*
X150877679Y-131950182D01*
X150842515Y-131975027D01*
X150796972Y-132010953D01*
X150744749Y-132054724D01*
X150689548Y-132103107D01*
X150635067Y-132152865D01*
X150585009Y-132200764D01*
X150547708Y-132238646D01*
X150516729Y-132271668D01*
X150477486Y-132314004D01*
X150432037Y-132363385D01*
X150382444Y-132417541D01*
X150330765Y-132474203D01*
X150279062Y-132531101D01*
X150229394Y-132585966D01*
X150183821Y-132636528D01*
X150144403Y-132680518D01*
X150113200Y-132715666D01*
X150092272Y-132739702D01*
X150085407Y-132747970D01*
X150063279Y-132776101D01*
X150090433Y-132898403D01*
X150112739Y-133004631D01*
X150130083Y-133101850D01*
X150143121Y-133195735D01*
X150152510Y-133291962D01*
X150158907Y-133396207D01*
X150162967Y-133514146D01*
X150163309Y-133528675D01*
X150164568Y-133691888D01*
X150160193Y-133840876D01*
X150149664Y-133980830D01*
X150132461Y-134116942D01*
X150108064Y-134254404D01*
X150076284Y-134397041D01*
X150006789Y-134641762D01*
X149918933Y-134879227D01*
X149813423Y-135108470D01*
X149690968Y-135328526D01*
X149552273Y-135538433D01*
X149398045Y-135737224D01*
X149228992Y-135923935D01*
X149045821Y-136097601D01*
X148849239Y-136257259D01*
X148639953Y-136401943D01*
X148578905Y-136439801D01*
X148370556Y-136555464D01*
X148152609Y-136656640D01*
X147928404Y-136742073D01*
X147701279Y-136810505D01*
X147474575Y-136860676D01*
X147450514Y-136864905D01*
X147397739Y-136875648D01*
X147363687Y-136886727D01*
X147347262Y-136898210D01*
X147338155Y-136911197D01*
X147319393Y-136938248D01*
X147292693Y-136976878D01*
X147259771Y-137024602D01*
X147222344Y-137078934D01*
X147192813Y-137121850D01*
X147082638Y-137278266D01*
X146978994Y-137417379D01*
X146880751Y-137540447D01*
X146786779Y-137648726D01*
X146695947Y-137743474D01*
X146607125Y-137825947D01*
X146519182Y-137897404D01*
X146452812Y-137944730D01*
X146394318Y-137980445D01*
X146326978Y-138015842D01*
X146257181Y-138047965D01*
X146191315Y-138073856D01*
X146139843Y-138089591D01*
X146057512Y-138104208D01*
X145968421Y-138110709D01*
X145881323Y-138108792D01*
X145817152Y-138100657D01*
X145698179Y-138067910D01*
X145584155Y-138015740D01*
X145475234Y-137944223D01*
X145437530Y-137913949D01*
X145408427Y-137891286D01*
X145384738Y-137879522D01*
X145357805Y-137875231D01*
X145338662Y-137874815D01*
X145204121Y-137866929D01*
X145067604Y-137844158D01*
X145035137Y-137835346D01*
X145777084Y-137835346D01*
X145790983Y-137844064D01*
X145804032Y-137848139D01*
X145823074Y-137850330D01*
X145856010Y-137851403D01*
X145896677Y-137851200D01*
X145909447Y-137850867D01*
X145968011Y-137846639D01*
X146016335Y-137836911D01*
X146057819Y-137822401D01*
X146125682Y-137791416D01*
X146186414Y-137755932D01*
X146245431Y-137712231D01*
X146308146Y-137656593D01*
X146330380Y-137635172D01*
X146363191Y-137602486D01*
X146387578Y-137577051D01*
X146401736Y-137560852D01*
X146403856Y-137555874D01*
X146401384Y-137557173D01*
X146297616Y-137621621D01*
X146207955Y-137673015D01*
X146131637Y-137711793D01*
X146127984Y-137713489D01*
X146074107Y-137736581D01*
X146012402Y-137760180D01*
X145948451Y-137782408D01*
X145887835Y-137801389D01*
X145836136Y-137815245D01*
X145808927Y-137820782D01*
X145783102Y-137827379D01*
X145777084Y-137835346D01*
X145035137Y-137835346D01*
X144933737Y-137807825D01*
X144807144Y-137759258D01*
G37*
X144807144Y-137759258D02*
X144692453Y-137699782D01*
X144662563Y-137681001D01*
X144627991Y-137660886D01*
X144594010Y-137645252D01*
X144574190Y-137638995D01*
X144548049Y-137631229D01*
X144511308Y-137617201D01*
X144471274Y-137599733D01*
X144465435Y-137596989D01*
X144385123Y-137547914D01*
X144384993Y-137547792D01*
X145362669Y-137547792D01*
X145365999Y-137555751D01*
X145375384Y-137566513D01*
X145377598Y-137568871D01*
X145390158Y-137581256D01*
X145402640Y-137588914D01*
X145418927Y-137591960D01*
X145442900Y-137590512D01*
X145478443Y-137584688D01*
X145529438Y-137574604D01*
X145534370Y-137573603D01*
X145575396Y-137564455D01*
X145622398Y-137552687D01*
X145671741Y-137539374D01*
X145719793Y-137525590D01*
X145762919Y-137512410D01*
X145797485Y-137500909D01*
X145819859Y-137492161D01*
X145826406Y-137487241D01*
X145826398Y-137487234D01*
X145815540Y-137487192D01*
X145789731Y-137490240D01*
X145753757Y-137495770D01*
X145738435Y-137498392D01*
X145694636Y-137505056D01*
X145638173Y-137512162D01*
X145576417Y-137518848D01*
X145518253Y-137524133D01*
X145456417Y-137529179D01*
X145412267Y-137533329D01*
X145383477Y-137537320D01*
X145367719Y-137541895D01*
X145362669Y-137547792D01*
X144384993Y-137547792D01*
X144315487Y-137482567D01*
X144257197Y-137402088D01*
X144210928Y-137307614D01*
X144177349Y-137200284D01*
X144157134Y-137081236D01*
X144156317Y-137073307D01*
X144149253Y-137030136D01*
X144136847Y-136978945D01*
X144121660Y-136930170D01*
X144120179Y-136926079D01*
X144080882Y-136805128D01*
X144075826Y-136785526D01*
X144271464Y-136785526D01*
X144275844Y-136857336D01*
X144280281Y-136901065D01*
X144289317Y-136936917D01*
X144305842Y-136974429D01*
X144318426Y-136997889D01*
X144403855Y-137136070D01*
X144496609Y-137256106D01*
X144597325Y-137358786D01*
X144639447Y-137394741D01*
X144699684Y-137443540D01*
X144764941Y-137437318D01*
X144798933Y-137433561D01*
X144824013Y-137429824D01*
X144834381Y-137427065D01*
X144836532Y-137424362D01*
X144834616Y-137420798D01*
X144825476Y-137414137D01*
X144805958Y-137402146D01*
X144772903Y-137382588D01*
X144764941Y-137377897D01*
X144655216Y-137303962D01*
X144556691Y-137217508D01*
X144467763Y-137116746D01*
X144386828Y-136999886D01*
X144321366Y-136883142D01*
X144271464Y-136785526D01*
X144075826Y-136785526D01*
X144045168Y-136666671D01*
X144013519Y-136513038D01*
X143986418Y-136346562D01*
X143965271Y-136178135D01*
X143960658Y-136125569D01*
X143956788Y-136061612D01*
X143953681Y-135989310D01*
X143951360Y-135911708D01*
X143949845Y-135831852D01*
X143949158Y-135752788D01*
X143949320Y-135677562D01*
X143950352Y-135609219D01*
X143952276Y-135550806D01*
X143955113Y-135505367D01*
X143958885Y-135475949D01*
X143960314Y-135470348D01*
X143965848Y-135455161D01*
X143968923Y-135454391D01*
X143970402Y-135470069D01*
X143971013Y-135495447D01*
X143974272Y-135575211D01*
X143981297Y-135669932D01*
X143991494Y-135774968D01*
X144004270Y-135885675D01*
X144019030Y-135997411D01*
X144035181Y-136105534D01*
X144052129Y-136205399D01*
X144069281Y-136292365D01*
X144077585Y-136328886D01*
X144092925Y-136390030D01*
X144109183Y-136450333D01*
X144125431Y-136506813D01*
X144140742Y-136556483D01*
X144154185Y-136596360D01*
X144164833Y-136623459D01*
X144171756Y-136634795D01*
X144172778Y-136634829D01*
X144181999Y-136618577D01*
X144186609Y-136586652D01*
X144186614Y-136542920D01*
X144182021Y-136491250D01*
X144172838Y-136435507D01*
X144172392Y-136433326D01*
X144157849Y-136358500D01*
X144146032Y-136286880D01*
X144136660Y-136215058D01*
X144129455Y-136139627D01*
X144124137Y-136057177D01*
X144120426Y-135964301D01*
X144118042Y-135857588D01*
X144116875Y-135756475D01*
X144115310Y-135560956D01*
X144173100Y-135560956D01*
X144174065Y-135599967D01*
X144176056Y-135648540D01*
X144178900Y-135703191D01*
X144182423Y-135760434D01*
X144186448Y-135816784D01*
X144190802Y-135868755D01*
X144193567Y-135897028D01*
X144199144Y-135944152D01*
X144206554Y-135998187D01*
X144215138Y-136055193D01*
X144224237Y-136111228D01*
X144233191Y-136162349D01*
X144241341Y-136204616D01*
X144248029Y-136234086D01*
X144251894Y-136245820D01*
X144257315Y-136241742D01*
X144267257Y-136221633D01*
X144280364Y-136188660D01*
X144295276Y-136145990D01*
X144297110Y-136140405D01*
X144319697Y-136073050D01*
X144339895Y-136016489D01*
X144356941Y-135972646D01*
X144370070Y-135943443D01*
X144378519Y-135930805D01*
X144380386Y-135930786D01*
X144380048Y-135941656D01*
X144376049Y-135968247D01*
X144369051Y-136006672D01*
X144359717Y-136053042D01*
X144358777Y-136057514D01*
X144345958Y-136120810D01*
X144332305Y-136192433D01*
X144319804Y-136261785D01*
X144313372Y-136299791D01*
X144293827Y-136419591D01*
X144324335Y-136507183D01*
X144349863Y-136574352D01*
X144381430Y-136648006D01*
X144416376Y-136722616D01*
X144452045Y-136792649D01*
X144485777Y-136852572D01*
X144504609Y-136882304D01*
X144552483Y-136945710D01*
X144610581Y-137011028D01*
X144672813Y-137071937D01*
X144733094Y-137122117D01*
X144741446Y-137128224D01*
X144771831Y-137148204D01*
X144809249Y-137170218D01*
X144849690Y-137192237D01*
X144889144Y-137212235D01*
X144923603Y-137228183D01*
X144949055Y-137238054D01*
X144961493Y-137239821D01*
X144961737Y-137239626D01*
X144959889Y-137229188D01*
X144951208Y-137205359D01*
X144937460Y-137172890D01*
X144934405Y-137166103D01*
X144904765Y-137097892D01*
X144871422Y-137016243D01*
X144836559Y-136926917D01*
X144802359Y-136835672D01*
X144771006Y-136748268D01*
X144744680Y-136670465D01*
X144735005Y-136639953D01*
X144718274Y-136584029D01*
X144700222Y-136520822D01*
X144681662Y-136453489D01*
X144663406Y-136385185D01*
X144646266Y-136319066D01*
X144631055Y-136258286D01*
X144618585Y-136206002D01*
X144609669Y-136165370D01*
X144605118Y-136139544D01*
X144604705Y-136133821D01*
X144608366Y-136137668D01*
X144618576Y-136158189D01*
X144634474Y-136193399D01*
X144655196Y-136241311D01*
X144679879Y-136299941D01*
X144707659Y-136367301D01*
X144728688Y-136419083D01*
X144772776Y-136527436D01*
X144811540Y-136620463D01*
X144846616Y-136701671D01*
X144879643Y-136774567D01*
X144912257Y-136842659D01*
X144946096Y-136909454D01*
X144982797Y-136978459D01*
X145023999Y-137053181D01*
X145028450Y-137061140D01*
X145068493Y-137132135D01*
X145100433Y-137187301D01*
X145125597Y-137228534D01*
X145145313Y-137257731D01*
X145160908Y-137276788D01*
X145173710Y-137287604D01*
X145185047Y-137292074D01*
X145190397Y-137292522D01*
X145208593Y-137287174D01*
X145238575Y-137272741D01*
X145275669Y-137251636D01*
X145303551Y-137234063D01*
X145344474Y-137205906D01*
X145395156Y-137169100D01*
X145449935Y-137127858D01*
X145503148Y-137086393D01*
X145517989Y-137074516D01*
X145527612Y-137066633D01*
X146110238Y-137066633D01*
X146115257Y-137071653D01*
X146120277Y-137066633D01*
X146115257Y-137061613D01*
X146110238Y-137066633D01*
X145527612Y-137066633D01*
X145537974Y-137058145D01*
X146130317Y-137058145D01*
X146137991Y-137056243D01*
X146160931Y-137041534D01*
X146199011Y-137014106D01*
X146252107Y-136974046D01*
X146279033Y-136953337D01*
X146312843Y-136926481D01*
X146339148Y-136904167D01*
X146354858Y-136889107D01*
X146357794Y-136884163D01*
X146348951Y-136888416D01*
X146327924Y-136902606D01*
X146298177Y-136924082D01*
X146263171Y-136950196D01*
X146226370Y-136978300D01*
X146191236Y-137005746D01*
X146161232Y-137029885D01*
X146139822Y-137048068D01*
X146130467Y-137057647D01*
X146130317Y-137058145D01*
X145537974Y-137058145D01*
X145561201Y-137039119D01*
X145608645Y-136999302D01*
X145658022Y-136957099D01*
X145707033Y-136914547D01*
X145753379Y-136873681D01*
X145794763Y-136836537D01*
X145828884Y-136805151D01*
X145853444Y-136781558D01*
X145866145Y-136767794D01*
X145867293Y-136765191D01*
X145857251Y-136760791D01*
X145832082Y-136750955D01*
X145795530Y-136737119D01*
X145751337Y-136720716D01*
X145749079Y-136719885D01*
X145515246Y-136623659D01*
X145289522Y-136510228D01*
X145073262Y-136380596D01*
X144867822Y-136235764D01*
X144674558Y-136076735D01*
X144494825Y-135904509D01*
X144329979Y-135720090D01*
X144238310Y-135603372D01*
X144212959Y-135570100D01*
X144192050Y-135543929D01*
X144178436Y-135528361D01*
X144174952Y-135525566D01*
X144173338Y-135534994D01*
X144173100Y-135560956D01*
X144115310Y-135560956D01*
X144114263Y-135430190D01*
X144047137Y-135319755D01*
X143924614Y-135099020D01*
X143820006Y-134869400D01*
X143733274Y-134630785D01*
X143664383Y-134383064D01*
X143613295Y-134126124D01*
X143589074Y-133949360D01*
X143584394Y-133893450D01*
X143580923Y-133822085D01*
X143578662Y-133739853D01*
X143577611Y-133651343D01*
X143577770Y-133561142D01*
X143579139Y-133473838D01*
X143581718Y-133394019D01*
X143585507Y-133326274D01*
X143589074Y-133286751D01*
X143628469Y-133023095D01*
X143685930Y-132768193D01*
X143761476Y-132522003D01*
X143855126Y-132284476D01*
X143966897Y-132055568D01*
X144096810Y-131835234D01*
X144244882Y-131623427D01*
X144302111Y-131549913D01*
X144353221Y-131489023D01*
X144415479Y-131419573D01*
X144484662Y-131345922D01*
X144556548Y-131272432D01*
X144626915Y-131203463D01*
X144691540Y-131143376D01*
X144719763Y-131118556D01*
X144921679Y-130958277D01*
X145133979Y-130815032D01*
X145355903Y-130689151D01*
X145586689Y-130580966D01*
X145825575Y-130490810D01*
X146071800Y-130419014D01*
X146324602Y-130365910D01*
X146506799Y-130339835D01*
X146581512Y-130333075D01*
X146670570Y-130328082D01*
X146768761Y-130324896D01*
X146870874Y-130323557D01*
X146971697Y-130324107D01*
X147066019Y-130326584D01*
X147148628Y-130331030D01*
X147189487Y-130334564D01*
X147449481Y-130370969D01*
X147701394Y-130425731D01*
X147945439Y-130498937D01*
X148181830Y-130590676D01*
X148410782Y-130701037D01*
X148632508Y-130830107D01*
X148847222Y-130977976D01*
X148961463Y-131066589D01*
X149005285Y-131103702D01*
X149057555Y-131150734D01*
X149115226Y-131204680D01*
X149175251Y-131262536D01*
X149234584Y-131321294D01*
X149290179Y-131377951D01*
X149338989Y-131429500D01*
X149377968Y-131472936D01*
X149398182Y-131497431D01*
X149419422Y-131523891D01*
X149435755Y-131542627D01*
X149443360Y-131549399D01*
X149448913Y-131540841D01*
X149462348Y-131516423D01*
X149482570Y-131478244D01*
X149508484Y-131428406D01*
X149538997Y-131369006D01*
X149573011Y-131302147D01*
X149596248Y-131256146D01*
X149668294Y-131114593D01*
X149737583Y-130981358D01*
X149803514Y-130857480D01*
X149865487Y-130743997D01*
X149922901Y-130641948D01*
X149975157Y-130552372D01*
X150021654Y-130476308D01*
X150061791Y-130414795D01*
X150094969Y-130368872D01*
X150120586Y-130339578D01*
X150130668Y-130331296D01*
X150148102Y-130320953D01*
X150154354Y-130321025D01*
X150149097Y-130333126D01*
X150132000Y-130358867D01*
X150122190Y-130372756D01*
X150103840Y-130399842D01*
X150085861Y-130429573D01*
X150067125Y-130464325D01*
X150046503Y-130506477D01*
X150022868Y-130558406D01*
X149995091Y-130622489D01*
X149962043Y-130701105D01*
X149932622Y-130772244D01*
X149907600Y-130833670D01*
X149876740Y-130910444D01*
X149841379Y-130999161D01*
X149802855Y-131096415D01*
X149762506Y-131198801D01*
X149721670Y-131302915D01*
X149681686Y-131405352D01*
X149643891Y-131502706D01*
X149609623Y-131591572D01*
X149580220Y-131668545D01*
X149574369Y-131683988D01*
X149563532Y-131712648D01*
X149507220Y-131635539D01*
X149482322Y-131603301D01*
X149461298Y-131579500D01*
X149447057Y-131567255D01*
X149443006Y-131566721D01*
X149437388Y-131576970D01*
X149423808Y-131603788D01*
X149403013Y-131645649D01*
X149375749Y-131701028D01*
X149342761Y-131768401D01*
X149304796Y-131846243D01*
X149262599Y-131933029D01*
X149216917Y-132027233D01*
X149168495Y-132127332D01*
X149149172Y-132167344D01*
X149037921Y-132397675D01*
X148934687Y-132611119D01*
X148838860Y-132808925D01*
X148749831Y-132992337D01*
X148666990Y-133162603D01*
X148589727Y-133320968D01*
X148517434Y-133468678D01*
X148449500Y-133606980D01*
X148385316Y-133737120D01*
X148324273Y-133860344D01*
X148265761Y-133977899D01*
X148209170Y-134091030D01*
X148176958Y-134155170D01*
X148133299Y-134242492D01*
X148096018Y-134317559D01*
X148063790Y-134382093D01*
X148035287Y-134437820D01*
X148009185Y-134486462D01*
X147984158Y-134529744D01*
X147958879Y-134569388D01*
X147932022Y-134607118D01*
X147902263Y-134644659D01*
X147868274Y-134683733D01*
X147828730Y-134726065D01*
X147782305Y-134773378D01*
X147727674Y-134827396D01*
X147663510Y-134889842D01*
X147588487Y-134962440D01*
X147501280Y-135046913D01*
X147460554Y-135086491D01*
X147387095Y-135158369D01*
X147315228Y-135229443D01*
X147246826Y-135297806D01*
X147183766Y-135361553D01*
X147127923Y-135418777D01*
X147081171Y-135467572D01*
X147045386Y-135506031D01*
X147024557Y-135529693D01*
X146967906Y-135596302D01*
X146899212Y-135675063D01*
X146820482Y-135763789D01*
X146733725Y-135860292D01*
X146640952Y-135962383D01*
X146544170Y-136067873D01*
X146445390Y-136174576D01*
X146346620Y-136280303D01*
X146249869Y-136382865D01*
X146157146Y-136480074D01*
X146070461Y-136569743D01*
X146056277Y-136584276D01*
X146008303Y-136633495D01*
X145965468Y-136677708D01*
X145929624Y-136714984D01*
X145902621Y-136743390D01*
X145886311Y-136760992D01*
X145882216Y-136766010D01*
X145894556Y-136770406D01*
X145922514Y-136778450D01*
X145962177Y-136789143D01*
X146009627Y-136801487D01*
X146060951Y-136814484D01*
X146112232Y-136827137D01*
X146159556Y-136838446D01*
X146199007Y-136847415D01*
X146214248Y-136850646D01*
X146278725Y-136862804D01*
X146325584Y-136869207D01*
X146356406Y-136869973D01*
X146372773Y-136865219D01*
X146375197Y-136862583D01*
X146384789Y-136853119D01*
X146406492Y-136834312D01*
X146436665Y-136809264D01*
X146458616Y-136791490D01*
X146536917Y-136728677D01*
X146378457Y-136878133D01*
X146412509Y-136884227D01*
X146472866Y-136892957D01*
X146545208Y-136900029D01*
X146626794Y-136905462D01*
X146714882Y-136909277D01*
X146806733Y-136911494D01*
X146899604Y-136912133D01*
X146990756Y-136911214D01*
X147077446Y-136908757D01*
X147156934Y-136904782D01*
X147226479Y-136899310D01*
X147283339Y-136892359D01*
X147324774Y-136883951D01*
X147342727Y-136877418D01*
X147354207Y-136865573D01*
X147374525Y-136838044D01*
X147402600Y-136796607D01*
X147437347Y-136743034D01*
X147477685Y-136679098D01*
X147522531Y-136606575D01*
X147570802Y-136527236D01*
X147621416Y-136442857D01*
X147673290Y-136355210D01*
X147725340Y-136266069D01*
X147776486Y-136177208D01*
X147825643Y-136090401D01*
X147852313Y-136042601D01*
X147894634Y-135967587D01*
X147940086Y-135889270D01*
X147986021Y-135812062D01*
X148029788Y-135740374D01*
X148068738Y-135678618D01*
X148093502Y-135641020D01*
X148130553Y-135584446D01*
X148173582Y-135515712D01*
X148219202Y-135440417D01*
X148264025Y-135364161D01*
X148304663Y-135292546D01*
X148308729Y-135285199D01*
X148358622Y-135197052D01*
X148407686Y-135115585D01*
X148459448Y-135035318D01*
X148517438Y-134950778D01*
X148583701Y-134858519D01*
X148725597Y-134660263D01*
X148859685Y-134464387D01*
X148989082Y-134266061D01*
X149116904Y-134060452D01*
X149246269Y-133842732D01*
X149306383Y-133738530D01*
X149342454Y-133676546D01*
X149375279Y-133623042D01*
X149407815Y-133573826D01*
X149443021Y-133524706D01*
X149483857Y-133471488D01*
X149533280Y-133409981D01*
X149568523Y-133367068D01*
X149617164Y-133308066D01*
X149665546Y-133249214D01*
X149710927Y-133193860D01*
X149750562Y-133145355D01*
X149781709Y-133107046D01*
X149794674Y-133090981D01*
X149825876Y-133052543D01*
X149865381Y-133004481D01*
X149908496Y-132952473D01*
X149950528Y-132902201D01*
X149957477Y-132893940D01*
X149991700Y-132852501D01*
X150020739Y-132815815D01*
X150042326Y-132786870D01*
X150054192Y-132768651D01*
X150055771Y-132764508D01*
X150053093Y-132749432D01*
X150046201Y-132722033D01*
X150036810Y-132688213D01*
X150026635Y-132653871D01*
X150017392Y-132624911D01*
X150010794Y-132607231D01*
X150009329Y-132604690D01*
X150000563Y-132608755D01*
X149981725Y-132623674D01*
X149958364Y-132644848D01*
X149935194Y-132665726D01*
X149924348Y-132672645D01*
X149926451Y-132665214D01*
X149927004Y-132664301D01*
X149941041Y-132639895D01*
X149958309Y-132607840D01*
X149965121Y-132594666D01*
X149978822Y-132568914D01*
X149987224Y-132558914D01*
X149993840Y-132562376D01*
X149999604Y-132572170D01*
X150005007Y-132580384D01*
X150011831Y-132583199D01*
X150022657Y-132579001D01*
X150040065Y-132566177D01*
X150066635Y-132543111D01*
X150104950Y-132508192D01*
X150111391Y-132502271D01*
X150225022Y-132398673D01*
X150326253Y-132308322D01*
X150416579Y-132229970D01*
X150497496Y-132162370D01*
X150570500Y-132104275D01*
X150637087Y-132054437D01*
X150698751Y-132011609D01*
X150703321Y-132008577D01*
X150785052Y-131957970D01*
X150854989Y-131921945D01*
X150912784Y-131900626D01*
X150958090Y-131894137D01*
X150990559Y-131902601D01*
X150994467Y-131905296D01*
X151005184Y-131914683D01*
X151003189Y-131919267D01*
X150985573Y-131920836D01*
X150968824Y-131921057D01*
X150924065Y-131927695D01*
X150879657Y-131948938D01*
X150877679Y-131950182D01*
X150842515Y-131975027D01*
X150796972Y-132010953D01*
X150744749Y-132054724D01*
X150689548Y-132103107D01*
X150635067Y-132152865D01*
X150585009Y-132200764D01*
X150547708Y-132238646D01*
X150516729Y-132271668D01*
X150477486Y-132314004D01*
X150432037Y-132363385D01*
X150382444Y-132417541D01*
X150330765Y-132474203D01*
X150279062Y-132531101D01*
X150229394Y-132585966D01*
X150183821Y-132636528D01*
X150144403Y-132680518D01*
X150113200Y-132715666D01*
X150092272Y-132739702D01*
X150085407Y-132747970D01*
X150063279Y-132776101D01*
X150090433Y-132898403D01*
X150112739Y-133004631D01*
X150130083Y-133101850D01*
X150143121Y-133195735D01*
X150152510Y-133291962D01*
X150158907Y-133396207D01*
X150162967Y-133514146D01*
X150163309Y-133528675D01*
X150164568Y-133691888D01*
X150160193Y-133840876D01*
X150149664Y-133980830D01*
X150132461Y-134116942D01*
X150108064Y-134254404D01*
X150076284Y-134397041D01*
X150006789Y-134641762D01*
X149918933Y-134879227D01*
X149813423Y-135108470D01*
X149690968Y-135328526D01*
X149552273Y-135538433D01*
X149398045Y-135737224D01*
X149228992Y-135923935D01*
X149045821Y-136097601D01*
X148849239Y-136257259D01*
X148639953Y-136401943D01*
X148578905Y-136439801D01*
X148370556Y-136555464D01*
X148152609Y-136656640D01*
X147928404Y-136742073D01*
X147701279Y-136810505D01*
X147474575Y-136860676D01*
X147450514Y-136864905D01*
X147397739Y-136875648D01*
X147363687Y-136886727D01*
X147347262Y-136898210D01*
X147338155Y-136911197D01*
X147319393Y-136938248D01*
X147292693Y-136976878D01*
X147259771Y-137024602D01*
X147222344Y-137078934D01*
X147192813Y-137121850D01*
X147082638Y-137278266D01*
X146978994Y-137417379D01*
X146880751Y-137540447D01*
X146786779Y-137648726D01*
X146695947Y-137743474D01*
X146607125Y-137825947D01*
X146519182Y-137897404D01*
X146452812Y-137944730D01*
X146394318Y-137980445D01*
X146326978Y-138015842D01*
X146257181Y-138047965D01*
X146191315Y-138073856D01*
X146139843Y-138089591D01*
X146057512Y-138104208D01*
X145968421Y-138110709D01*
X145881323Y-138108792D01*
X145817152Y-138100657D01*
X145698179Y-138067910D01*
X145584155Y-138015740D01*
X145475234Y-137944223D01*
X145437530Y-137913949D01*
X145408427Y-137891286D01*
X145384738Y-137879522D01*
X145357805Y-137875231D01*
X145338662Y-137874815D01*
X145204121Y-137866929D01*
X145067604Y-137844158D01*
X145035137Y-137835346D01*
X145777084Y-137835346D01*
X145790983Y-137844064D01*
X145804032Y-137848139D01*
X145823074Y-137850330D01*
X145856010Y-137851403D01*
X145896677Y-137851200D01*
X145909447Y-137850867D01*
X145968011Y-137846639D01*
X146016335Y-137836911D01*
X146057819Y-137822401D01*
X146125682Y-137791416D01*
X146186414Y-137755932D01*
X146245431Y-137712231D01*
X146308146Y-137656593D01*
X146330380Y-137635172D01*
X146363191Y-137602486D01*
X146387578Y-137577051D01*
X146401736Y-137560852D01*
X146403856Y-137555874D01*
X146401384Y-137557173D01*
X146297616Y-137621621D01*
X146207955Y-137673015D01*
X146131637Y-137711793D01*
X146127984Y-137713489D01*
X146074107Y-137736581D01*
X146012402Y-137760180D01*
X145948451Y-137782408D01*
X145887835Y-137801389D01*
X145836136Y-137815245D01*
X145808927Y-137820782D01*
X145783102Y-137827379D01*
X145777084Y-137835346D01*
X145035137Y-137835346D01*
X144933737Y-137807825D01*
X144807144Y-137759258D01*
G36*
X153444611Y-128082769D02*
G01*
X153510325Y-128092247D01*
X153563830Y-128107802D01*
X153571991Y-128111335D01*
X153604743Y-128126513D01*
X153574625Y-128121418D01*
X153469801Y-128109662D01*
X153371617Y-128110445D01*
X153284532Y-128123718D01*
X153280937Y-128124611D01*
X153179457Y-128157983D01*
X153073707Y-128207990D01*
X152963329Y-128274926D01*
X152847959Y-128359084D01*
X152727239Y-128460758D01*
X152600807Y-128580241D01*
X152468302Y-128717827D01*
X152329364Y-128873810D01*
X152260131Y-128955484D01*
X152195990Y-129032949D01*
X152134712Y-129108490D01*
X152075339Y-129183494D01*
X152016908Y-129259349D01*
X151958460Y-129337443D01*
X151899035Y-129419164D01*
X151837672Y-129505901D01*
X151773412Y-129599042D01*
X151705293Y-129699974D01*
X151632356Y-129810086D01*
X151553640Y-129930766D01*
X151468185Y-130063402D01*
X151375032Y-130209382D01*
X151273218Y-130370094D01*
X151187657Y-130505803D01*
X150992545Y-130820436D01*
X150804882Y-131132350D01*
X150627685Y-131436508D01*
X150583089Y-131514775D01*
X150542787Y-131585489D01*
X150496095Y-131666819D01*
X150446858Y-131752107D01*
X150398919Y-131834695D01*
X150356857Y-131906674D01*
X150314962Y-131978491D01*
X150269005Y-132058024D01*
X150222534Y-132139086D01*
X150179095Y-132215487D01*
X150142235Y-132281041D01*
X150141056Y-132283156D01*
X150109267Y-132340093D01*
X150079110Y-132393926D01*
X150052591Y-132441088D01*
X150031717Y-132478012D01*
X150018493Y-132501129D01*
X150018077Y-132501844D01*
X149992822Y-132545198D01*
X149953847Y-132441607D01*
X149933404Y-132390375D01*
X149907989Y-132331534D01*
X149878877Y-132267588D01*
X149847341Y-132201037D01*
X149814658Y-132134382D01*
X149782103Y-132070126D01*
X149750949Y-132010768D01*
X149722473Y-131958811D01*
X149697950Y-131916756D01*
X149678654Y-131887104D01*
X149665860Y-131872357D01*
X149663081Y-131871178D01*
X149656335Y-131879572D01*
X149641854Y-131902847D01*
X149621309Y-131938146D01*
X149596370Y-131982609D01*
X149573609Y-132024281D01*
X149536856Y-132092074D01*
X149497446Y-132164307D01*
X149456579Y-132238820D01*
X149415455Y-132313458D01*
X149375274Y-132386062D01*
X149337236Y-132454475D01*
X149302542Y-132516539D01*
X149272392Y-132570098D01*
X149247986Y-132612993D01*
X149230524Y-132643067D01*
X149221207Y-132658163D01*
X149220350Y-132659281D01*
X149219653Y-132654874D01*
X149224990Y-132635080D01*
X149235345Y-132603314D01*
X149245701Y-132573945D01*
X149270852Y-132504839D01*
X149298809Y-132428605D01*
X149328773Y-132347372D01*
X149359946Y-132263267D01*
X149391528Y-132178420D01*
X149422720Y-132094958D01*
X149452723Y-132015010D01*
X149480739Y-131940705D01*
X149505966Y-131874170D01*
X149527608Y-131817535D01*
X149544864Y-131772927D01*
X149556936Y-131742475D01*
X149563024Y-131728307D01*
X149563455Y-131727613D01*
X149571923Y-131731539D01*
X149587805Y-131749113D01*
X149608061Y-131776842D01*
X149613705Y-131785340D01*
X149634646Y-131816290D01*
X149651714Y-131839329D01*
X149661855Y-131850390D01*
X149662899Y-131850812D01*
X149669255Y-131842266D01*
X149683546Y-131818483D01*
X149704341Y-131781993D01*
X149730212Y-131735322D01*
X149759730Y-131680996D01*
X149774664Y-131653148D01*
X149809835Y-131587663D01*
X149851945Y-131509853D01*
X149898151Y-131424931D01*
X149945615Y-131338110D01*
X149991494Y-131254602D01*
X150019343Y-131204166D01*
X150059768Y-131131007D01*
X150107255Y-131044862D01*
X150159250Y-130950376D01*
X150213202Y-130852191D01*
X150266558Y-130754949D01*
X150316766Y-130663295D01*
X150334269Y-130631297D01*
X150415620Y-130483700D01*
X150495524Y-130341022D01*
X150573118Y-130204716D01*
X150647536Y-130076233D01*
X150717911Y-129957026D01*
X150783379Y-129848547D01*
X150843074Y-129752248D01*
X150896131Y-129669581D01*
X150941683Y-129601998D01*
X150976089Y-129554561D01*
X151024284Y-129496448D01*
X151067268Y-129454666D01*
X151104327Y-129429611D01*
X151134750Y-129421683D01*
X151157825Y-129431278D01*
X151168547Y-129447105D01*
X151178486Y-129473923D01*
X151180196Y-129489690D01*
X151174540Y-129491795D01*
X151162379Y-129477630D01*
X151159813Y-129473557D01*
X151140440Y-129450026D01*
X151122440Y-129443450D01*
X151122202Y-129443492D01*
X151103334Y-129455535D01*
X151077203Y-129485608D01*
X151044126Y-129533147D01*
X151004420Y-129597588D01*
X150958404Y-129678369D01*
X150906393Y-129774925D01*
X150848707Y-129886694D01*
X150785662Y-130013113D01*
X150717576Y-130153616D01*
X150693278Y-130204617D01*
X150669348Y-130255608D01*
X150640141Y-130318769D01*
X150606391Y-130392448D01*
X150568833Y-130474993D01*
X150528202Y-130564752D01*
X150485233Y-130660073D01*
X150440660Y-130759302D01*
X150395220Y-130860789D01*
X150349646Y-130962880D01*
X150304674Y-131063923D01*
X150261038Y-131162266D01*
X150219474Y-131256257D01*
X150180715Y-131344244D01*
X150145499Y-131424573D01*
X150114558Y-131495594D01*
X150088628Y-131555653D01*
X150068444Y-131603099D01*
X150054741Y-131636279D01*
X150048254Y-131653541D01*
X150047874Y-131655666D01*
X150054020Y-131648482D01*
X150069760Y-131626835D01*
X150093536Y-131592958D01*
X150123791Y-131549087D01*
X150158968Y-131497456D01*
X150186285Y-131457006D01*
X150231822Y-131389757D01*
X150285733Y-131310848D01*
X150346643Y-131222245D01*
X150413175Y-131125915D01*
X150483953Y-131023824D01*
X150557602Y-130917937D01*
X150632745Y-130810222D01*
X150708006Y-130702642D01*
X150782009Y-130597166D01*
X150853378Y-130495758D01*
X150920736Y-130400385D01*
X150982709Y-130313013D01*
X151037919Y-130235608D01*
X151084991Y-130170135D01*
X151122548Y-130118562D01*
X151133143Y-130104222D01*
X151316410Y-129860530D01*
X151491183Y-129634455D01*
X151657843Y-129425603D01*
X151816766Y-129233578D01*
X151968334Y-129057985D01*
X152112924Y-128898429D01*
X152250915Y-128754515D01*
X152382686Y-128625847D01*
X152508617Y-128512031D01*
X152629087Y-128412671D01*
X152744473Y-128327373D01*
X152855156Y-128255741D01*
X152961514Y-128197379D01*
X152962214Y-128197032D01*
X153041495Y-128159195D01*
X153108971Y-128130791D01*
X153169587Y-128110175D01*
X153228283Y-128095703D01*
X153290003Y-128085731D01*
X153300606Y-128084429D01*
X153372700Y-128079964D01*
X153444611Y-128082769D01*
G37*
X153444611Y-128082769D02*
X153510325Y-128092247D01*
X153563830Y-128107802D01*
X153571991Y-128111335D01*
X153604743Y-128126513D01*
X153574625Y-128121418D01*
X153469801Y-128109662D01*
X153371617Y-128110445D01*
X153284532Y-128123718D01*
X153280937Y-128124611D01*
X153179457Y-128157983D01*
X153073707Y-128207990D01*
X152963329Y-128274926D01*
X152847959Y-128359084D01*
X152727239Y-128460758D01*
X152600807Y-128580241D01*
X152468302Y-128717827D01*
X152329364Y-128873810D01*
X152260131Y-128955484D01*
X152195990Y-129032949D01*
X152134712Y-129108490D01*
X152075339Y-129183494D01*
X152016908Y-129259349D01*
X151958460Y-129337443D01*
X151899035Y-129419164D01*
X151837672Y-129505901D01*
X151773412Y-129599042D01*
X151705293Y-129699974D01*
X151632356Y-129810086D01*
X151553640Y-129930766D01*
X151468185Y-130063402D01*
X151375032Y-130209382D01*
X151273218Y-130370094D01*
X151187657Y-130505803D01*
X150992545Y-130820436D01*
X150804882Y-131132350D01*
X150627685Y-131436508D01*
X150583089Y-131514775D01*
X150542787Y-131585489D01*
X150496095Y-131666819D01*
X150446858Y-131752107D01*
X150398919Y-131834695D01*
X150356857Y-131906674D01*
X150314962Y-131978491D01*
X150269005Y-132058024D01*
X150222534Y-132139086D01*
X150179095Y-132215487D01*
X150142235Y-132281041D01*
X150141056Y-132283156D01*
X150109267Y-132340093D01*
X150079110Y-132393926D01*
X150052591Y-132441088D01*
X150031717Y-132478012D01*
X150018493Y-132501129D01*
X150018077Y-132501844D01*
X149992822Y-132545198D01*
X149953847Y-132441607D01*
X149933404Y-132390375D01*
X149907989Y-132331534D01*
X149878877Y-132267588D01*
X149847341Y-132201037D01*
X149814658Y-132134382D01*
X149782103Y-132070126D01*
X149750949Y-132010768D01*
X149722473Y-131958811D01*
X149697950Y-131916756D01*
X149678654Y-131887104D01*
X149665860Y-131872357D01*
X149663081Y-131871178D01*
X149656335Y-131879572D01*
X149641854Y-131902847D01*
X149621309Y-131938146D01*
X149596370Y-131982609D01*
X149573609Y-132024281D01*
X149536856Y-132092074D01*
X149497446Y-132164307D01*
X149456579Y-132238820D01*
X149415455Y-132313458D01*
X149375274Y-132386062D01*
X149337236Y-132454475D01*
X149302542Y-132516539D01*
X149272392Y-132570098D01*
X149247986Y-132612993D01*
X149230524Y-132643067D01*
X149221207Y-132658163D01*
X149220350Y-132659281D01*
X149219653Y-132654874D01*
X149224990Y-132635080D01*
X149235345Y-132603314D01*
X149245701Y-132573945D01*
X149270852Y-132504839D01*
X149298809Y-132428605D01*
X149328773Y-132347372D01*
X149359946Y-132263267D01*
X149391528Y-132178420D01*
X149422720Y-132094958D01*
X149452723Y-132015010D01*
X149480739Y-131940705D01*
X149505966Y-131874170D01*
X149527608Y-131817535D01*
X149544864Y-131772927D01*
X149556936Y-131742475D01*
X149563024Y-131728307D01*
X149563455Y-131727613D01*
X149571923Y-131731539D01*
X149587805Y-131749113D01*
X149608061Y-131776842D01*
X149613705Y-131785340D01*
X149634646Y-131816290D01*
X149651714Y-131839329D01*
X149661855Y-131850390D01*
X149662899Y-131850812D01*
X149669255Y-131842266D01*
X149683546Y-131818483D01*
X149704341Y-131781993D01*
X149730212Y-131735322D01*
X149759730Y-131680996D01*
X149774664Y-131653148D01*
X149809835Y-131587663D01*
X149851945Y-131509853D01*
X149898151Y-131424931D01*
X149945615Y-131338110D01*
X149991494Y-131254602D01*
X150019343Y-131204166D01*
X150059768Y-131131007D01*
X150107255Y-131044862D01*
X150159250Y-130950376D01*
X150213202Y-130852191D01*
X150266558Y-130754949D01*
X150316766Y-130663295D01*
X150334269Y-130631297D01*
X150415620Y-130483700D01*
X150495524Y-130341022D01*
X150573118Y-130204716D01*
X150647536Y-130076233D01*
X150717911Y-129957026D01*
X150783379Y-129848547D01*
X150843074Y-129752248D01*
X150896131Y-129669581D01*
X150941683Y-129601998D01*
X150976089Y-129554561D01*
X151024284Y-129496448D01*
X151067268Y-129454666D01*
X151104327Y-129429611D01*
X151134750Y-129421683D01*
X151157825Y-129431278D01*
X151168547Y-129447105D01*
X151178486Y-129473923D01*
X151180196Y-129489690D01*
X151174540Y-129491795D01*
X151162379Y-129477630D01*
X151159813Y-129473557D01*
X151140440Y-129450026D01*
X151122440Y-129443450D01*
X151122202Y-129443492D01*
X151103334Y-129455535D01*
X151077203Y-129485608D01*
X151044126Y-129533147D01*
X151004420Y-129597588D01*
X150958404Y-129678369D01*
X150906393Y-129774925D01*
X150848707Y-129886694D01*
X150785662Y-130013113D01*
X150717576Y-130153616D01*
X150693278Y-130204617D01*
X150669348Y-130255608D01*
X150640141Y-130318769D01*
X150606391Y-130392448D01*
X150568833Y-130474993D01*
X150528202Y-130564752D01*
X150485233Y-130660073D01*
X150440660Y-130759302D01*
X150395220Y-130860789D01*
X150349646Y-130962880D01*
X150304674Y-131063923D01*
X150261038Y-131162266D01*
X150219474Y-131256257D01*
X150180715Y-131344244D01*
X150145499Y-131424573D01*
X150114558Y-131495594D01*
X150088628Y-131555653D01*
X150068444Y-131603099D01*
X150054741Y-131636279D01*
X150048254Y-131653541D01*
X150047874Y-131655666D01*
X150054020Y-131648482D01*
X150069760Y-131626835D01*
X150093536Y-131592958D01*
X150123791Y-131549087D01*
X150158968Y-131497456D01*
X150186285Y-131457006D01*
X150231822Y-131389757D01*
X150285733Y-131310848D01*
X150346643Y-131222245D01*
X150413175Y-131125915D01*
X150483953Y-131023824D01*
X150557602Y-130917937D01*
X150632745Y-130810222D01*
X150708006Y-130702642D01*
X150782009Y-130597166D01*
X150853378Y-130495758D01*
X150920736Y-130400385D01*
X150982709Y-130313013D01*
X151037919Y-130235608D01*
X151084991Y-130170135D01*
X151122548Y-130118562D01*
X151133143Y-130104222D01*
X151316410Y-129860530D01*
X151491183Y-129634455D01*
X151657843Y-129425603D01*
X151816766Y-129233578D01*
X151968334Y-129057985D01*
X152112924Y-128898429D01*
X152250915Y-128754515D01*
X152382686Y-128625847D01*
X152508617Y-128512031D01*
X152629087Y-128412671D01*
X152744473Y-128327373D01*
X152855156Y-128255741D01*
X152961514Y-128197379D01*
X152962214Y-128197032D01*
X153041495Y-128159195D01*
X153108971Y-128130791D01*
X153169587Y-128110175D01*
X153228283Y-128095703D01*
X153290003Y-128085731D01*
X153300606Y-128084429D01*
X153372700Y-128079964D01*
X153444611Y-128082769D01*
D11*
X104216200Y-67183000D02*
G75*
G03*
X104216200Y-67183000I-4013200J0D01*
G01*
D12*
X169418000Y-85872000D02*
X167468000Y-85872000D01*
X169418000Y-80752000D02*
X165968000Y-80752000D01*
X169418000Y-80752000D02*
X171368000Y-80752000D01*
X169418000Y-85872000D02*
X171368000Y-85872000D01*
X169418000Y-95905000D02*
X167468000Y-95905000D01*
X169418000Y-90785000D02*
X165968000Y-90785000D01*
X169418000Y-90785000D02*
X171368000Y-90785000D01*
X169418000Y-95905000D02*
X171368000Y-95905000D01*
X121695767Y-103054500D02*
X121403233Y-103054500D01*
X121695767Y-104074500D02*
X121403233Y-104074500D01*
X153670724Y-104760500D02*
X153161276Y-104760500D01*
X153670724Y-105805500D02*
X153161276Y-105805500D01*
X97517500Y-89343500D02*
X97517500Y-105593500D01*
X97517500Y-105593500D02*
X119067500Y-105593500D01*
X119067500Y-89343500D02*
X119067500Y-105593500D01*
X97517500Y-89343500D02*
X119067500Y-89343500D01*
X160909000Y-85872000D02*
X158959000Y-85872000D01*
X160909000Y-80752000D02*
X157459000Y-80752000D01*
X160909000Y-80752000D02*
X162859000Y-80752000D01*
X160909000Y-85872000D02*
X162859000Y-85872000D01*
X154812276Y-107837500D02*
X155321724Y-107837500D01*
X154812276Y-106792500D02*
X155321724Y-106792500D01*
D16*
X133743000Y-96804000D02*
X131683000Y-96804000D01*
X131683000Y-94204000D02*
X133743000Y-94204000D01*
G36*
X133773000Y-96729000D02*
G01*
X133098000Y-96729000D01*
X133098000Y-94279000D01*
X133773000Y-94279000D01*
X133773000Y-96729000D01*
G37*
D15*
X133773000Y-96729000D02*
X133098000Y-96729000D01*
X133098000Y-94279000D01*
X133773000Y-94279000D01*
X133773000Y-96729000D01*
G36*
X126318477Y-100699454D02*
G01*
X126326515Y-101969454D01*
X127588818Y-101969454D01*
X127596969Y-101036528D01*
X127605120Y-100103601D01*
X127766302Y-100112891D01*
X127927485Y-100122182D01*
X127935635Y-101054381D01*
X127943784Y-101986580D01*
X128789546Y-101969454D01*
X128797836Y-101282836D01*
X128806126Y-100596217D01*
X128967169Y-100605502D01*
X129128212Y-100614788D01*
X129136500Y-101300683D01*
X129144789Y-101986578D01*
X129990273Y-101969454D01*
X129998563Y-101282836D01*
X130006853Y-100596217D01*
X130167896Y-100605502D01*
X130328939Y-100614788D01*
X130337228Y-101300683D01*
X130345516Y-101986578D01*
X131191000Y-101969454D01*
X131199290Y-101282836D01*
X131207581Y-100596217D01*
X131368624Y-100605502D01*
X131529667Y-100614788D01*
X131546243Y-101986578D01*
X132391727Y-101969454D01*
X132400018Y-101282836D01*
X132408308Y-100596217D01*
X132569351Y-100605502D01*
X132730394Y-100614788D01*
X132738682Y-101300683D01*
X132746971Y-101986578D01*
X133592455Y-101969454D01*
X133600745Y-101282836D01*
X133609035Y-100596217D01*
X133770078Y-100605502D01*
X133931121Y-100614788D01*
X133939410Y-101300683D01*
X133947698Y-101986578D01*
X134793182Y-101969454D01*
X134801472Y-101282836D01*
X134809762Y-100596217D01*
X134970805Y-100605502D01*
X135131849Y-100614788D01*
X135148425Y-101986578D01*
X135993909Y-101969454D01*
X136002199Y-101282836D01*
X136010490Y-100596217D01*
X136171533Y-100605502D01*
X136332576Y-100614788D01*
X136349152Y-101986578D01*
X137194636Y-101969454D01*
X137202927Y-101282836D01*
X137211217Y-100596217D01*
X137366437Y-100605502D01*
X137521656Y-100614788D01*
X137527480Y-101292121D01*
X137533303Y-101969454D01*
X138395364Y-101969454D01*
X138411936Y-100599394D01*
X138717458Y-100599394D01*
X138734030Y-101969454D01*
X139596091Y-101969454D01*
X139612663Y-100599394D01*
X139918186Y-100599394D01*
X139934758Y-101969454D01*
X140796818Y-101969454D01*
X140813390Y-100599394D01*
X141118913Y-100599394D01*
X141135485Y-101969454D01*
X143182879Y-101985678D01*
X143182879Y-102385091D01*
X141120091Y-102385091D01*
X141120091Y-103739757D01*
X140812212Y-103739757D01*
X140812212Y-102385091D01*
X139919364Y-102385091D01*
X139919364Y-103739757D01*
X139611485Y-103739757D01*
X139611485Y-102385091D01*
X138718636Y-102385091D01*
X138718636Y-103739757D01*
X138410758Y-103739757D01*
X138410758Y-102385091D01*
X137515619Y-102385091D01*
X137533303Y-103739813D01*
X137371667Y-103739785D01*
X137210030Y-103739757D01*
X137210030Y-102385091D01*
X136347970Y-102385091D01*
X136347970Y-103739757D01*
X136009303Y-103739757D01*
X136009303Y-102385091D01*
X135147243Y-102385091D01*
X135147243Y-103739757D01*
X134808576Y-103739757D01*
X134808576Y-102385091D01*
X133946515Y-102385091D01*
X133946515Y-103739757D01*
X133607849Y-103739757D01*
X133607849Y-102385091D01*
X132745788Y-102385091D01*
X132745788Y-103739757D01*
X132407121Y-103739757D01*
X132407121Y-102385091D01*
X131545061Y-102385091D01*
X131545061Y-103739757D01*
X131206394Y-103739757D01*
X131206394Y-102385091D01*
X130344333Y-102385091D01*
X130344333Y-103739757D01*
X130005667Y-103739757D01*
X130005667Y-102385091D01*
X129143606Y-102385091D01*
X129143606Y-103739757D01*
X128804939Y-103739757D01*
X128804939Y-102385091D01*
X127942879Y-102385091D01*
X127942879Y-104232363D01*
X127604212Y-104232363D01*
X127604212Y-102385091D01*
X126311121Y-102385091D01*
X126311121Y-104940485D01*
X124186758Y-104940485D01*
X124186758Y-99429454D01*
X126310438Y-99429454D01*
X126318477Y-100699454D01*
G37*
D12*
X158622276Y-86599500D02*
X159131724Y-86599500D01*
X158622276Y-87644500D02*
X159131724Y-87644500D01*
X148552000Y-79983000D02*
X151012000Y-79983000D01*
X151012000Y-79983000D02*
X151012000Y-78513000D01*
X151012000Y-78513000D02*
X148552000Y-78513000D01*
X160909000Y-104033000D02*
X162859000Y-104033000D01*
X160909000Y-104033000D02*
X158959000Y-104033000D01*
X160909000Y-98913000D02*
X157459000Y-98913000D01*
X160909000Y-98913000D02*
X162859000Y-98913000D01*
D14*
X173634000Y-116656000D02*
X192634000Y-116656000D01*
X193954000Y-121026000D02*
X193954000Y-118326000D01*
X172314000Y-121026000D02*
X172314000Y-118326000D01*
X172314000Y-121026000D02*
X193954000Y-121026000D01*
D10*
X175834000Y-115732000D02*
G75*
G03*
X175834000Y-115732000I-200000J0D01*
G01*
D12*
X100448000Y-86587000D02*
X102908000Y-86587000D01*
X100448000Y-85117000D02*
X100448000Y-86587000D01*
X102908000Y-85117000D02*
X100448000Y-85117000D01*
X171728224Y-87644500D02*
X171218776Y-87644500D01*
X171728224Y-86599500D02*
X171218776Y-86599500D01*
X175262000Y-97909767D02*
X175262000Y-97617233D01*
X174242000Y-97909767D02*
X174242000Y-97617233D01*
X174369000Y-80410267D02*
X174369000Y-80117733D01*
X175389000Y-80410267D02*
X175389000Y-80117733D01*
X132861267Y-90168000D02*
X132568733Y-90168000D01*
X132861267Y-91188000D02*
X132568733Y-91188000D01*
X119463000Y-90598500D02*
X120523000Y-90598500D01*
X119463000Y-91658500D02*
X119463000Y-90598500D01*
X121523000Y-90598500D02*
X123583000Y-90598500D01*
X123583000Y-90598500D02*
X123583000Y-96718500D01*
X119463000Y-92658500D02*
X121523000Y-92658500D01*
X119463000Y-92658500D02*
X119463000Y-96718500D01*
X119463000Y-96718500D02*
X123583000Y-96718500D01*
X121523000Y-92658500D02*
X121523000Y-90598500D01*
X172871224Y-110123500D02*
X172361776Y-110123500D01*
X172871224Y-109078500D02*
X172361776Y-109078500D01*
X156971276Y-70118500D02*
X157480724Y-70118500D01*
X156971276Y-69073500D02*
X157480724Y-69073500D01*
X118002267Y-82552000D02*
X117709733Y-82552000D01*
X118002267Y-81532000D02*
X117709733Y-81532000D01*
X153647224Y-86599500D02*
X153137776Y-86599500D01*
X153647224Y-87644500D02*
X153137776Y-87644500D01*
X153670724Y-97677500D02*
X153161276Y-97677500D01*
X153670724Y-96632500D02*
X153161276Y-96632500D01*
D11*
X197770620Y-67100580D02*
G75*
G03*
X197770620Y-67100580I-4013200J0D01*
G01*
D12*
X160909000Y-77871000D02*
X158959000Y-77871000D01*
X160909000Y-72751000D02*
X162859000Y-72751000D01*
X160909000Y-77871000D02*
X162859000Y-77871000D01*
X160909000Y-72751000D02*
X157459000Y-72751000D01*
X150395000Y-69685000D02*
X150395000Y-72145000D01*
X150395000Y-72145000D02*
X151865000Y-72145000D01*
X151865000Y-72145000D02*
X151865000Y-69685000D01*
G36*
X172040121Y-132141940D02*
G01*
X172309901Y-132070752D01*
X172505723Y-132048398D01*
X172670445Y-132073080D01*
X172775460Y-132111094D01*
X172946050Y-132239600D01*
X173016296Y-132431102D01*
X172989277Y-132674342D01*
X172868071Y-132958061D01*
X172655756Y-133271001D01*
X172372385Y-133585192D01*
X172175856Y-133784175D01*
X172053979Y-133926497D01*
X171988709Y-134042779D01*
X171962004Y-134163640D01*
X171956170Y-134291538D01*
X171949617Y-134508376D01*
X171936618Y-134791411D01*
X171919968Y-135079859D01*
X171919736Y-135083438D01*
X171909233Y-135315506D01*
X171910099Y-135488917D01*
X171921927Y-135573211D01*
X171926353Y-135576797D01*
X172055329Y-135529556D01*
X172234920Y-135403797D01*
X172440169Y-135223466D01*
X172646120Y-135012507D01*
X172827814Y-134794865D01*
X172960294Y-134594485D01*
X172970588Y-134574921D01*
X173099987Y-134321279D01*
X172925245Y-134153866D01*
X172675474Y-134000693D01*
X172452480Y-133945604D01*
X172263005Y-133904867D01*
X172196144Y-133859074D01*
X172248210Y-133819225D01*
X172415514Y-133796320D01*
X172503191Y-133794340D01*
X172721725Y-133817490D01*
X172900586Y-133905137D01*
X173008708Y-133991912D01*
X173171540Y-134174014D01*
X173228249Y-134359713D01*
X173183283Y-134580680D01*
X173113202Y-134735849D01*
X172972601Y-134941855D01*
X172757336Y-135178411D01*
X172502528Y-135411593D01*
X172243298Y-135607477D01*
X172151524Y-135664737D01*
X172000918Y-135759416D01*
X171902898Y-135834540D01*
X171891268Y-135847519D01*
X171829787Y-135853103D01*
X171794026Y-135818532D01*
X171776826Y-135782724D01*
X171763237Y-135719909D01*
X171753078Y-135617998D01*
X171746168Y-135464898D01*
X171742325Y-135248520D01*
X171741366Y-134956773D01*
X171743112Y-134577565D01*
X171747379Y-134098806D01*
X171753986Y-133508406D01*
X171756357Y-133311059D01*
X171763630Y-132712084D01*
X171962072Y-132712084D01*
X171967350Y-132962883D01*
X171979675Y-133299385D01*
X172002344Y-133515728D01*
X172046268Y-133619066D01*
X172122354Y-133616558D01*
X172241510Y-133515359D01*
X172414647Y-133322627D01*
X172451111Y-133280252D01*
X172648112Y-133013754D01*
X172778171Y-132759949D01*
X172832739Y-132541965D01*
X172803266Y-132382929D01*
X172789792Y-132364030D01*
X172657756Y-132291117D01*
X172456440Y-132269703D01*
X172233678Y-132301342D01*
X172118723Y-132342206D01*
X172038553Y-132384630D01*
X171990390Y-132441278D01*
X171967230Y-132540859D01*
X171962072Y-132712084D01*
X171763630Y-132712084D01*
X171769569Y-132223015D01*
X172040121Y-132141940D01*
G37*
G36*
X176162051Y-133253238D02*
G01*
X176130221Y-133285067D01*
X176098391Y-133253238D01*
X176130221Y-133221408D01*
X176162051Y-133253238D01*
G37*
G36*
X167911926Y-132159819D02*
G01*
X167967649Y-132216177D01*
X167989969Y-132346247D01*
X167985354Y-132553154D01*
X167974276Y-132736402D01*
X167984323Y-132841739D01*
X168039911Y-132881795D01*
X168165458Y-132869205D01*
X168385381Y-132816601D01*
X168459294Y-132798354D01*
X168688019Y-132753291D01*
X168902617Y-132729197D01*
X169069434Y-132727820D01*
X169154814Y-132750910D01*
X169159544Y-132761963D01*
X169106482Y-132817781D01*
X168987199Y-132856752D01*
X168861550Y-132867134D01*
X168789389Y-132837182D01*
X168788389Y-132834780D01*
X168735272Y-132824518D01*
X168678247Y-132866043D01*
X168561622Y-132932141D01*
X168379207Y-132988428D01*
X168317322Y-133000589D01*
X168116323Y-133048123D01*
X168005900Y-133127731D01*
X167959620Y-133272840D01*
X167950995Y-133463851D01*
X167940224Y-133674006D01*
X167913183Y-133945343D01*
X167881625Y-134178942D01*
X167855870Y-134710730D01*
X167941150Y-135220830D01*
X168086001Y-135592711D01*
X168204250Y-135771620D01*
X168318762Y-135827517D01*
X168437410Y-135764181D01*
X168439377Y-135762227D01*
X168520236Y-135730225D01*
X168548182Y-135757095D01*
X168541614Y-135848137D01*
X168455943Y-135945975D01*
X168331256Y-136012634D01*
X168268104Y-136022411D01*
X168141642Y-135965141D01*
X168002513Y-135810512D01*
X167870434Y-135584295D01*
X167795330Y-135404474D01*
X167737886Y-135260512D01*
X167700192Y-135225339D01*
X167666771Y-135285395D01*
X167665046Y-135290330D01*
X167615771Y-135409985D01*
X167528482Y-135602447D01*
X167421869Y-135826530D01*
X167419483Y-135831433D01*
X167291488Y-136070129D01*
X167185156Y-136207475D01*
X167084291Y-136263684D01*
X167071203Y-136266019D01*
X166911564Y-136254237D01*
X166803609Y-136154868D01*
X166734993Y-135952516D01*
X166713068Y-135819311D01*
X166650844Y-135509195D01*
X166561320Y-135322276D01*
X166442067Y-135256888D01*
X166290654Y-135311363D01*
X166150981Y-135433565D01*
X166026307Y-135617303D01*
X165934900Y-135884746D01*
X165901746Y-136038327D01*
X165842245Y-136288858D01*
X165780316Y-136434910D01*
X165736419Y-136468025D01*
X165692461Y-136438061D01*
X165675165Y-136333626D01*
X165682160Y-136132905D01*
X165689696Y-136038325D01*
X165701005Y-135754624D01*
X165679510Y-135566764D01*
X165655863Y-135513137D01*
X165586441Y-135461751D01*
X165557677Y-135481308D01*
X165473050Y-135645961D01*
X165350983Y-135846179D01*
X165215950Y-136045885D01*
X165092424Y-136209003D01*
X165004879Y-136299457D01*
X165000912Y-136302026D01*
X164913738Y-136330635D01*
X164824739Y-136286659D01*
X164701368Y-136155532D01*
X164576271Y-135976876D01*
X164490409Y-135799170D01*
X164478254Y-135757107D01*
X164433316Y-135640162D01*
X164380620Y-135611414D01*
X164379928Y-135611828D01*
X164337100Y-135586029D01*
X164321449Y-135485065D01*
X164307180Y-135364805D01*
X164254981Y-135334766D01*
X164150768Y-135397875D01*
X163981934Y-135555577D01*
X163804972Y-135777580D01*
X163748517Y-135965604D01*
X163774804Y-136133046D01*
X163851674Y-136184825D01*
X163976137Y-136120781D01*
X164108672Y-135985207D01*
X164239583Y-135850850D01*
X164308049Y-135821442D01*
X164309163Y-135888360D01*
X164238019Y-136042977D01*
X164188939Y-136126300D01*
X164038928Y-136284832D01*
X163871513Y-136342121D01*
X163716668Y-136308133D01*
X163604366Y-136192832D01*
X163564584Y-136006183D01*
X163574081Y-135921897D01*
X163602737Y-135771991D01*
X163433933Y-135913115D01*
X163127188Y-136130630D01*
X162859216Y-136241199D01*
X162637184Y-136243826D01*
X162468260Y-136137518D01*
X162412048Y-136054937D01*
X162362128Y-135928296D01*
X162374636Y-135806166D01*
X162432201Y-135669105D01*
X162500245Y-135522201D01*
X162536929Y-135434801D01*
X162538993Y-135426902D01*
X162485094Y-135411933D01*
X162351233Y-135425351D01*
X162179163Y-135458191D01*
X162010635Y-135501485D01*
X161887403Y-135546266D01*
X161849993Y-135574875D01*
X161735416Y-135761172D01*
X161545276Y-135931269D01*
X161329013Y-136044804D01*
X161249895Y-136064780D01*
X161080213Y-136069388D01*
X161008621Y-136030603D01*
X161043686Y-135972467D01*
X161193973Y-135919017D01*
X161197692Y-135918265D01*
X161418380Y-135820213D01*
X161583820Y-135645857D01*
X161659818Y-135432743D01*
X161661230Y-135409241D01*
X161666606Y-135226671D01*
X162256355Y-135226671D01*
X162519386Y-135231310D01*
X162732739Y-135243743D01*
X162865439Y-135261750D01*
X162891998Y-135272278D01*
X162881024Y-135341913D01*
X162801513Y-135467732D01*
X162738442Y-135545044D01*
X162585155Y-135757045D01*
X162546242Y-135914245D01*
X162621643Y-136017659D01*
X162709302Y-136051353D01*
X162909504Y-136045483D01*
X163150483Y-135954044D01*
X163395490Y-135792462D01*
X163460684Y-135735944D01*
X163739367Y-135483111D01*
X163942357Y-135309702D01*
X164083965Y-135205090D01*
X164178502Y-135158647D01*
X164237911Y-135158789D01*
X164381044Y-135192156D01*
X164422144Y-135194842D01*
X164498827Y-135247054D01*
X164513048Y-135306245D01*
X164540510Y-135429275D01*
X164609088Y-135612169D01*
X164699395Y-135812728D01*
X164792043Y-135988751D01*
X164867644Y-136098038D01*
X164882596Y-136110616D01*
X164942159Y-136078403D01*
X165045070Y-135957864D01*
X165172772Y-135771926D01*
X165224043Y-135688717D01*
X165407207Y-135414367D01*
X165558394Y-135259974D01*
X165681627Y-135223375D01*
X165780929Y-135302405D01*
X165816620Y-135369904D01*
X165888280Y-135488536D01*
X165959206Y-135490256D01*
X166045288Y-135372534D01*
X166068086Y-135329874D01*
X166198975Y-135153705D01*
X166357244Y-135096326D01*
X166511818Y-135128950D01*
X166708147Y-135265861D01*
X166835773Y-135478353D01*
X166867815Y-135658805D01*
X166893920Y-135848745D01*
X166959411Y-136004093D01*
X167045051Y-136083086D01*
X167064612Y-136086070D01*
X167125801Y-136032816D01*
X167209293Y-135897116D01*
X167256328Y-135799604D01*
X167340090Y-135633908D01*
X167412523Y-135530466D01*
X167439469Y-135513137D01*
X167478246Y-135458124D01*
X167490722Y-135331334D01*
X167505562Y-135165854D01*
X167541193Y-135060783D01*
X167564348Y-134966583D01*
X167588190Y-134771903D01*
X167610158Y-134503541D01*
X167627697Y-134188292D01*
X167630193Y-134128449D01*
X167641730Y-133774047D01*
X167642840Y-133529584D01*
X167632513Y-133378029D01*
X167609742Y-133302353D01*
X167580223Y-133284966D01*
X167530177Y-133247255D01*
X167544699Y-133205493D01*
X167562636Y-133158087D01*
X167500712Y-133198058D01*
X167379342Y-133259442D01*
X167199937Y-133314328D01*
X167002159Y-133355372D01*
X166825673Y-133375230D01*
X166710142Y-133366561D01*
X166687415Y-133348628D01*
X166635009Y-133317217D01*
X166572460Y-133356103D01*
X166465934Y-133396827D01*
X166413956Y-133365945D01*
X166379326Y-133305329D01*
X166427921Y-133260460D01*
X166575509Y-133223855D01*
X166772326Y-133195876D01*
X167140261Y-133146238D01*
X167400563Y-133093579D01*
X167572460Y-133024092D01*
X167675181Y-132923970D01*
X167727954Y-132779404D01*
X167750006Y-132576587D01*
X167753960Y-132490960D01*
X167766095Y-132279776D01*
X167789166Y-132171019D01*
X167835046Y-132139803D01*
X167911926Y-132159819D01*
G37*
G36*
X183080101Y-134263707D02*
G01*
X183100826Y-134322837D01*
X183100898Y-134329305D01*
X183053975Y-134440079D01*
X183011237Y-134469334D01*
X182900343Y-134575274D01*
X182824737Y-134778350D01*
X182792474Y-135051322D01*
X182794850Y-135200963D01*
X182812873Y-135402971D01*
X182847064Y-135510388D01*
X182912045Y-135555932D01*
X182957665Y-135565309D01*
X183069602Y-135603590D01*
X183100898Y-135644883D01*
X183049221Y-135693226D01*
X182927287Y-135703010D01*
X182784739Y-135678494D01*
X182671221Y-135623940D01*
X182653506Y-135606484D01*
X182603530Y-135476759D01*
X182577632Y-135263102D01*
X182577754Y-135006958D01*
X182605837Y-134749776D01*
X182611845Y-134717398D01*
X182649342Y-134526421D01*
X182269034Y-134548056D01*
X182051849Y-134566161D01*
X181923227Y-134600623D01*
X181844416Y-134668495D01*
X181791176Y-134758334D01*
X181640214Y-134987806D01*
X181422014Y-135199962D01*
X181348616Y-135258501D01*
X181269889Y-135316226D01*
X181262010Y-135301779D01*
X181324119Y-135199244D01*
X181343749Y-135168508D01*
X181516638Y-134889708D01*
X181623737Y-134693093D01*
X181674460Y-134558118D01*
X181678222Y-134464236D01*
X181673946Y-134447881D01*
X181667274Y-134388555D01*
X181710353Y-134354097D01*
X181827431Y-134337988D01*
X182042754Y-134333710D01*
X182098657Y-134333699D01*
X182375853Y-134326010D01*
X182644474Y-134305358D01*
X182830346Y-134278986D01*
X183000557Y-134251064D01*
X183080101Y-134263707D01*
G37*
G36*
X178347780Y-133317570D02*
G01*
X178365072Y-132913162D01*
X178391092Y-132493068D01*
X178423972Y-132079938D01*
X178461847Y-131696423D01*
X178502850Y-131365177D01*
X178545115Y-131108848D01*
X178586775Y-130950090D01*
X178599343Y-130924121D01*
X178709666Y-130826749D01*
X178839287Y-130806227D01*
X178930816Y-130865361D01*
X178958651Y-130951231D01*
X179002705Y-131132649D01*
X179056108Y-131379956D01*
X179094534Y-131572059D01*
X179173172Y-132107435D01*
X179185060Y-132597359D01*
X179130853Y-133104391D01*
X179111702Y-133215762D01*
X179092991Y-133357573D01*
X179117878Y-133403103D01*
X179192764Y-133382638D01*
X179453753Y-133300408D01*
X179633087Y-133312843D01*
X179740839Y-133426315D01*
X179787082Y-133647197D01*
X179790622Y-133760806D01*
X179766426Y-134088839D01*
X179698114Y-134339554D01*
X179592102Y-134494017D01*
X179530665Y-134528109D01*
X179424755Y-134598085D01*
X179427949Y-134692802D01*
X179528872Y-134795839D01*
X179716146Y-134890777D01*
X179801937Y-134919638D01*
X180027225Y-134980978D01*
X180157947Y-134993313D01*
X180219177Y-134951182D01*
X180235991Y-134849126D01*
X180236236Y-134825054D01*
X180260943Y-134675450D01*
X180320595Y-134536570D01*
X180393491Y-134445784D01*
X180457929Y-134440459D01*
X180458996Y-134441495D01*
X180465891Y-134523392D01*
X180432371Y-134612272D01*
X180369444Y-134787005D01*
X180388649Y-134903768D01*
X180471019Y-134940205D01*
X180620211Y-134895389D01*
X180804049Y-134781976D01*
X180978567Y-134631522D01*
X181086510Y-134498452D01*
X181158291Y-134402886D01*
X181186219Y-134406954D01*
X181171975Y-134491393D01*
X181117241Y-134636938D01*
X181064796Y-134747285D01*
X180903901Y-134965360D01*
X180714671Y-135075833D01*
X180569786Y-135137955D01*
X180494066Y-135189415D01*
X180490873Y-135197412D01*
X180544189Y-135253305D01*
X180670574Y-135318332D01*
X180819680Y-135370348D01*
X180923567Y-135387755D01*
X180994311Y-135396587D01*
X180955364Y-135433674D01*
X180915961Y-135457158D01*
X180735715Y-135495658D01*
X180536116Y-135441470D01*
X180379120Y-135320416D01*
X180231084Y-135223263D01*
X180078855Y-135191249D01*
X179760393Y-135147919D01*
X179511822Y-135019397D01*
X179302934Y-134787559D01*
X179238684Y-134687169D01*
X179131462Y-134478813D01*
X179086861Y-134327723D01*
X179103615Y-134249072D01*
X179180459Y-134258034D01*
X179268942Y-134324216D01*
X179375803Y-134405978D01*
X179432843Y-134430932D01*
X179503378Y-134373517D01*
X179564983Y-134226244D01*
X179608041Y-134026572D01*
X179622937Y-133811960D01*
X179617095Y-133713162D01*
X179590461Y-133531709D01*
X179553041Y-133449482D01*
X179487030Y-133438583D01*
X179447952Y-133448142D01*
X179302949Y-133527086D01*
X179170547Y-133654533D01*
X179094990Y-133784850D01*
X179090023Y-133817308D01*
X179071262Y-133902373D01*
X179020217Y-134083171D01*
X178944336Y-134334476D01*
X178851067Y-134631061D01*
X178835387Y-134679914D01*
X178737682Y-135004810D01*
X178657363Y-135312491D01*
X178602494Y-135569138D01*
X178581142Y-135740937D01*
X178581098Y-135746205D01*
X178567680Y-135931276D01*
X178522385Y-136013249D01*
X178485610Y-136022411D01*
X178407198Y-135965352D01*
X178379671Y-135847348D01*
X178376719Y-135674405D01*
X178381816Y-135450090D01*
X178385519Y-135369904D01*
X178388093Y-135193785D01*
X178376365Y-135084781D01*
X178365095Y-135067523D01*
X178295095Y-135098328D01*
X178152383Y-135177934D01*
X178017996Y-135258501D01*
X177829438Y-135363805D01*
X177671848Y-135433167D01*
X177603256Y-135449478D01*
X177456873Y-135396753D01*
X177330276Y-135270199D01*
X177263297Y-135117249D01*
X177264521Y-135046092D01*
X177269746Y-134876036D01*
X177249462Y-134786059D01*
X177210758Y-134708808D01*
X177164596Y-134725410D01*
X177094784Y-134817888D01*
X177003924Y-134986516D01*
X176927410Y-135191260D01*
X176921928Y-135210756D01*
X176857696Y-135387291D01*
X176799904Y-135439933D01*
X176756579Y-135372101D01*
X176735750Y-135187210D01*
X176734983Y-135131183D01*
X176724889Y-134949596D01*
X176699082Y-134834352D01*
X176678879Y-134812887D01*
X176609077Y-134859237D01*
X176500502Y-134975638D01*
X176456115Y-135031390D01*
X176266840Y-135229555D01*
X176097176Y-135302223D01*
X175947402Y-135249310D01*
X175896122Y-135196705D01*
X175781438Y-135055076D01*
X175584917Y-135220438D01*
X175366894Y-135339897D01*
X175153861Y-135333303D01*
X174955900Y-135201370D01*
X174930918Y-135174040D01*
X174856753Y-135049495D01*
X174836225Y-134882853D01*
X174846525Y-134735144D01*
X174859548Y-134549317D01*
X174841393Y-134458352D01*
X174784704Y-134432041D01*
X174772645Y-134431801D01*
X174521071Y-134476268D01*
X174363898Y-134605341D01*
X174326159Y-134683605D01*
X174251105Y-134821036D01*
X174124615Y-134986401D01*
X173977021Y-135146889D01*
X173838651Y-135269686D01*
X173739835Y-135321981D01*
X173735920Y-135322160D01*
X173736148Y-135279577D01*
X173806125Y-135169608D01*
X173893772Y-135060059D01*
X174037242Y-134862011D01*
X174136166Y-134666460D01*
X174180391Y-134502254D01*
X174159763Y-134398241D01*
X174132928Y-134380539D01*
X174068780Y-134305037D01*
X174061299Y-134259394D01*
X174085864Y-134199306D01*
X174179962Y-134189623D01*
X174300021Y-134208655D01*
X174510328Y-134234639D01*
X174766043Y-134246544D01*
X174875467Y-134245868D01*
X175212193Y-134236552D01*
X175114189Y-134426069D01*
X175029567Y-134665512D01*
X175017688Y-134889254D01*
X175072498Y-135069047D01*
X175187945Y-135176644D01*
X175278920Y-135194842D01*
X175405134Y-135141918D01*
X175544934Y-135010205D01*
X175667647Y-134840293D01*
X175742599Y-134672770D01*
X175748956Y-134572859D01*
X175747576Y-134416489D01*
X175800289Y-134269804D01*
X175885654Y-134183143D01*
X175917876Y-134176295D01*
X175956013Y-134232665D01*
X175958708Y-134404716D01*
X175945921Y-134543970D01*
X175929690Y-134785278D01*
X175950963Y-134941900D01*
X176002030Y-135037328D01*
X176065397Y-135107324D01*
X176123506Y-135111875D01*
X176209338Y-135039935D01*
X176305956Y-134935525D01*
X176510008Y-134740067D01*
X176668670Y-134657483D01*
X176789418Y-134684821D01*
X176830656Y-134728416D01*
X176889355Y-134788426D01*
X176941160Y-134761877D01*
X177015180Y-134634033D01*
X177127670Y-134489621D01*
X177252726Y-134432254D01*
X177358917Y-134470371D01*
X177396593Y-134531627D01*
X177422055Y-134659621D01*
X177434870Y-134844738D01*
X177435234Y-134879513D01*
X177462540Y-135082508D01*
X177547683Y-135186884D01*
X177647690Y-135213237D01*
X177768749Y-135181005D01*
X177934337Y-135079485D01*
X178150998Y-134911778D01*
X178381580Y-134724202D01*
X178346841Y-133988720D01*
X178342677Y-133768177D01*
X178505659Y-133768177D01*
X178507684Y-133969403D01*
X178523873Y-134214228D01*
X178560362Y-134340277D01*
X178621592Y-134355103D01*
X178694925Y-134287699D01*
X178747155Y-134176364D01*
X178794104Y-134000242D01*
X178802658Y-133953488D01*
X178841240Y-133745717D01*
X178895368Y-133484877D01*
X178932837Y-133316897D01*
X178972738Y-133064848D01*
X178993550Y-132757362D01*
X178997017Y-132417550D01*
X178984882Y-132068520D01*
X178958887Y-131733381D01*
X178920775Y-131435244D01*
X178872290Y-131197218D01*
X178815174Y-131042411D01*
X178757602Y-130993338D01*
X178703888Y-131039364D01*
X178703686Y-131041082D01*
X178690204Y-131138127D01*
X178677740Y-131216145D01*
X178634996Y-131533792D01*
X178594905Y-131942654D01*
X178559695Y-132406626D01*
X178531598Y-132889606D01*
X178512842Y-133355491D01*
X178505659Y-133768177D01*
X178342677Y-133768177D01*
X178341081Y-133683640D01*
X178347780Y-133317570D01*
G37*
G36*
X159152057Y-135505929D02*
G01*
X159103735Y-135357676D01*
X159093534Y-135344513D01*
X159090054Y-135335020D01*
X159527891Y-135335020D01*
X159667139Y-135621636D01*
X159772269Y-135795385D01*
X159882750Y-135914382D01*
X159931337Y-135940926D01*
X160041575Y-136001403D01*
X160034681Y-136081572D01*
X159986575Y-136121640D01*
X159894216Y-136115832D01*
X159757190Y-136045829D01*
X159731939Y-136028002D01*
X159613099Y-135956314D01*
X159550071Y-135949825D01*
X159547013Y-135960007D01*
X159576273Y-136063726D01*
X159647635Y-136225008D01*
X159736471Y-136392985D01*
X159814260Y-136511985D01*
X159905393Y-136555193D01*
X160008521Y-136535666D01*
X160056286Y-136467563D01*
X160098016Y-136402618D01*
X160209841Y-136270789D01*
X160371713Y-136095104D01*
X160464592Y-135998583D01*
X160664036Y-135787757D01*
X160793999Y-135624768D01*
X160877610Y-135470086D01*
X160937999Y-135284180D01*
X160976845Y-135123083D01*
X161036406Y-134881646D01*
X161094834Y-134678485D01*
X161140004Y-134555552D01*
X161141963Y-134551764D01*
X161181456Y-134426033D01*
X161217149Y-134225985D01*
X161233603Y-134079400D01*
X161256458Y-133872336D01*
X161283165Y-133716979D01*
X161300528Y-133662349D01*
X161327087Y-133596660D01*
X161284493Y-133608912D01*
X161191901Y-133685329D01*
X161068463Y-133812136D01*
X161027847Y-133858452D01*
X160895427Y-133994737D01*
X160789703Y-134070953D01*
X160749612Y-134076527D01*
X160705993Y-134088895D01*
X160707215Y-134123819D01*
X160663945Y-134196036D01*
X160532040Y-134293846D01*
X160395183Y-134368916D01*
X160180490Y-134494832D01*
X160003214Y-134657047D01*
X159822866Y-134893684D01*
X159796774Y-134932364D01*
X159527891Y-135335020D01*
X159090054Y-135335020D01*
X159044490Y-135210714D01*
X159057630Y-135131183D01*
X159228717Y-135131183D01*
X159241555Y-135232366D01*
X159289556Y-135222196D01*
X159305108Y-135207574D01*
X159348721Y-135120947D01*
X159305108Y-135054792D01*
X159248098Y-135023456D01*
X159229182Y-135100543D01*
X159228717Y-135131183D01*
X159057630Y-135131183D01*
X159068590Y-135064849D01*
X159151963Y-134964010D01*
X159189260Y-134950507D01*
X159317284Y-134971026D01*
X159367617Y-135013515D01*
X159426089Y-135059451D01*
X159491662Y-134996694D01*
X159502564Y-134980048D01*
X159587384Y-134848939D01*
X159699683Y-134677135D01*
X159723186Y-134641375D01*
X159867529Y-134422006D01*
X159739100Y-134258736D01*
X159630574Y-134026124D01*
X159623144Y-133807430D01*
X159737990Y-133807430D01*
X159761634Y-133988574D01*
X159820192Y-134145268D01*
X159895108Y-134233420D01*
X159920029Y-134239954D01*
X159970540Y-134186694D01*
X160052862Y-134047679D01*
X160140596Y-133871016D01*
X160243332Y-133612006D01*
X160299585Y-133391513D01*
X160305985Y-133233023D01*
X160259159Y-133160023D01*
X160242989Y-133157749D01*
X160132031Y-133209257D01*
X159996859Y-133338704D01*
X159866711Y-133508474D01*
X159770827Y-133680953D01*
X159737990Y-133807430D01*
X159623144Y-133807430D01*
X159621509Y-133759295D01*
X159700619Y-133486842D01*
X159856618Y-133237357D01*
X160078218Y-133039431D01*
X160255421Y-132950752D01*
X160383171Y-132952936D01*
X160465210Y-133055394D01*
X160498976Y-133238617D01*
X160481906Y-133483095D01*
X160411438Y-133769317D01*
X160376093Y-133869437D01*
X160312139Y-134055696D01*
X160279189Y-134188706D01*
X160280345Y-134230597D01*
X160349802Y-134218210D01*
X160480774Y-134136375D01*
X160645591Y-134006505D01*
X160816583Y-133850013D01*
X160937494Y-133722038D01*
X161131367Y-133453266D01*
X161268344Y-133171077D01*
X161328348Y-132918315D01*
X161329469Y-132885495D01*
X161356387Y-132745267D01*
X161420531Y-132615538D01*
X161496985Y-132534633D01*
X161556607Y-132536098D01*
X161567244Y-132613980D01*
X161562351Y-132791702D01*
X161544405Y-133043064D01*
X161515887Y-133341869D01*
X161479275Y-133661917D01*
X161437047Y-133977010D01*
X161395378Y-134239954D01*
X161354629Y-134431315D01*
X161290054Y-134687579D01*
X161210005Y-134980397D01*
X161122833Y-135281424D01*
X161036887Y-135562312D01*
X160960519Y-135794714D01*
X160902080Y-135950282D01*
X160877939Y-135996438D01*
X160853961Y-136088905D01*
X160868493Y-136116544D01*
X160851551Y-136143544D01*
X160748038Y-136136847D01*
X160596127Y-136145837D01*
X160471807Y-136254220D01*
X160461571Y-136267830D01*
X160233273Y-136547144D01*
X160042932Y-136710502D01*
X159884319Y-136761353D01*
X159751203Y-136703146D01*
X159724518Y-136675817D01*
X159601701Y-136502350D01*
X159467103Y-136262183D01*
X159350029Y-136009124D01*
X159322025Y-135936875D01*
X159255890Y-135755850D01*
X158910906Y-136079738D01*
X158715745Y-136248260D01*
X158575338Y-136338737D01*
X158506753Y-136344456D01*
X158506225Y-136263771D01*
X158576334Y-136131928D01*
X158691356Y-135980980D01*
X158825565Y-135842983D01*
X158953235Y-135749989D01*
X158998110Y-135732214D01*
X159072290Y-135677837D01*
X159379209Y-135677837D01*
X159437938Y-135758146D01*
X159473564Y-135767774D01*
X159515343Y-135714160D01*
X159529510Y-135640456D01*
X159506193Y-135532219D01*
X159437889Y-135523230D01*
X159387865Y-135576797D01*
X159379209Y-135677837D01*
X159072290Y-135677837D01*
X159112524Y-135648344D01*
X159152057Y-135505929D01*
G37*
G36*
X181191123Y-135226671D02*
G01*
X181159294Y-135258501D01*
X181127464Y-135226671D01*
X181159294Y-135194842D01*
X181191123Y-135226671D01*
G37*
G36*
X173115676Y-135289141D02*
G01*
X173288936Y-135314677D01*
X173395904Y-135345348D01*
X173418024Y-135372003D01*
X173336737Y-135385493D01*
X173311756Y-135385819D01*
X173185506Y-135412837D01*
X173138241Y-135449478D01*
X173072264Y-135506008D01*
X172967478Y-135481029D01*
X172898180Y-135443630D01*
X172815088Y-135366645D01*
X172844994Y-135310179D01*
X172974027Y-135284083D01*
X173115676Y-135289141D01*
G37*
G36*
X181062090Y-134352169D02*
G01*
X181063805Y-134367273D01*
X181011989Y-134423141D01*
X180964559Y-134430932D01*
X180898668Y-134400070D01*
X180904657Y-134367273D01*
X180986043Y-134306042D01*
X181003903Y-134303614D01*
X181062090Y-134352169D01*
G37*
G36*
X169347931Y-132694687D02*
G01*
X169350522Y-132712135D01*
X169328802Y-132774139D01*
X169322449Y-132775794D01*
X169268099Y-132731186D01*
X169255033Y-132712135D01*
X169260080Y-132653474D01*
X169283106Y-132648476D01*
X169347931Y-132694687D01*
G37*
G36*
X181063805Y-135290330D02*
G01*
X181031975Y-135322160D01*
X181000146Y-135290330D01*
X181031975Y-135258501D01*
X181063805Y-135290330D01*
G37*
G36*
X173615685Y-135353990D02*
G01*
X173583855Y-135385819D01*
X173552026Y-135353990D01*
X173583855Y-135322160D01*
X173615685Y-135353990D01*
G37*
G36*
X171833229Y-136054240D02*
G01*
X171801399Y-136086070D01*
X171769569Y-136054240D01*
X171801399Y-136022411D01*
X171833229Y-136054240D01*
G37*
G36*
X169477840Y-132680305D02*
G01*
X169446011Y-132712135D01*
X169414181Y-132680305D01*
X169446011Y-132648476D01*
X169477840Y-132680305D01*
G37*
G36*
X180809168Y-134335443D02*
G01*
X180777339Y-134367273D01*
X180745509Y-134335443D01*
X180777339Y-134303614D01*
X180809168Y-134335443D01*
G37*
G36*
X176001902Y-133028812D02*
G01*
X176002822Y-133101192D01*
X175927131Y-133124862D01*
X175851293Y-133098748D01*
X175807628Y-133047973D01*
X175868208Y-133010240D01*
X175971576Y-133005854D01*
X176001902Y-133028812D01*
G37*
D13*
X111260000Y-72958000D02*
X111260000Y-80458000D01*
X111260000Y-72958000D02*
X99560000Y-72958000D01*
X111260000Y-80458000D02*
X99560000Y-80458000D01*
X99560000Y-80458000D02*
X99560000Y-72958000D01*
D14*
X112060000Y-74958000D02*
G75*
G03*
X112060000Y-74958000I-100000J0D01*
G01*
D12*
X109004000Y-85117000D02*
X106544000Y-85117000D01*
X106544000Y-85117000D02*
X106544000Y-86587000D01*
X106544000Y-86587000D02*
X109004000Y-86587000D01*
X101749776Y-84088500D02*
X102259224Y-84088500D01*
X101749776Y-83043500D02*
X102259224Y-83043500D01*
X167662776Y-66914500D02*
X168172224Y-66914500D01*
X167662776Y-67959500D02*
X168172224Y-67959500D01*
X160787000Y-104802000D02*
X160787000Y-106272000D01*
X160787000Y-106272000D02*
X163247000Y-106272000D01*
X163247000Y-104802000D02*
X160787000Y-104802000D01*
X150998000Y-96420000D02*
X148538000Y-96420000D01*
X148538000Y-97890000D02*
X150998000Y-97890000D01*
X150998000Y-97890000D02*
X150998000Y-96420000D01*
X151012000Y-88673000D02*
X148552000Y-88673000D01*
X151012000Y-90143000D02*
X151012000Y-88673000D01*
X148552000Y-90143000D02*
X151012000Y-90143000D01*
X172314776Y-112536500D02*
X172824224Y-112536500D01*
X172314776Y-111491500D02*
X172824224Y-111491500D01*
X151384000Y-95905000D02*
X153334000Y-95905000D01*
X151384000Y-90785000D02*
X153334000Y-90785000D01*
X151384000Y-90785000D02*
X147934000Y-90785000D01*
X151384000Y-95905000D02*
X149434000Y-95905000D01*
X167488776Y-106059500D02*
X167998224Y-106059500D01*
X167488776Y-105014500D02*
X167998224Y-105014500D01*
X169418000Y-77871000D02*
X167468000Y-77871000D01*
X169418000Y-72751000D02*
X171368000Y-72751000D01*
X169418000Y-72751000D02*
X165968000Y-72751000D01*
X169418000Y-77871000D02*
X171368000Y-77871000D01*
X152888733Y-88898000D02*
X153181267Y-88898000D01*
X152888733Y-89918000D02*
X153181267Y-89918000D01*
X127108500Y-84609000D02*
X127108500Y-86079000D01*
X127108500Y-86079000D02*
X129568500Y-86079000D01*
X129568500Y-84609000D02*
X127108500Y-84609000D01*
D11*
X123190000Y-64135000D02*
X123190000Y-80645000D01*
X113030000Y-74295000D02*
X113030000Y-69215000D01*
X120650000Y-76835000D02*
X115570000Y-76835000D01*
X113030000Y-69215000D02*
X115570000Y-66675000D01*
X123190000Y-80645000D02*
X113030000Y-80645000D01*
X123190000Y-64135000D02*
X113030000Y-64135000D01*
X123190000Y-74295000D02*
X120650000Y-76835000D01*
X115570000Y-76835000D02*
X113030000Y-74295000D01*
X115570000Y-66675000D02*
X120650000Y-66675000D01*
X123190000Y-69215000D02*
X123190000Y-74295000D01*
X120650000Y-66675000D02*
X123190000Y-69215000D01*
X113030000Y-80645000D02*
X113030000Y-64135000D01*
D12*
X132436776Y-84821500D02*
X132946224Y-84821500D01*
X132436776Y-85866500D02*
X132946224Y-85866500D01*
X149452000Y-72131000D02*
X149452000Y-69671000D01*
X147982000Y-69671000D02*
X147982000Y-72131000D01*
X147982000Y-72131000D02*
X149452000Y-72131000D01*
X113276767Y-81532000D02*
X112984233Y-81532000D01*
X113276767Y-82552000D02*
X112984233Y-82552000D01*
%LPC*%
D17*
X133604000Y-88646000D03*
X131879000Y-88646000D03*
D18*
X111252000Y-125476000D03*
X113792000Y-125476000D03*
X116332000Y-125476000D03*
X118872000Y-125476000D03*
X144272000Y-125476000D03*
X113792000Y-110236000D03*
X154432000Y-120396000D03*
X121412000Y-125476000D03*
X123952000Y-125476000D03*
D19*
X115062000Y-122426000D03*
D18*
X126492000Y-125476000D03*
X129032000Y-125476000D03*
X131572000Y-125476000D03*
X134112000Y-125476000D03*
X136652000Y-125476000D03*
X139192000Y-125476000D03*
X141732000Y-125476000D03*
X141732000Y-110236000D03*
X139192000Y-110236000D03*
X136652000Y-110236000D03*
X134112000Y-110236000D03*
X131572000Y-110236000D03*
X129032000Y-110236000D03*
X126492000Y-110236000D03*
X123952000Y-110236000D03*
X121412000Y-110236000D03*
X118872000Y-110236000D03*
X116332000Y-110236000D03*
X146812000Y-125476000D03*
X149352000Y-125476000D03*
X151892000Y-125476000D03*
X154432000Y-125476000D03*
X156972000Y-125476000D03*
X159512000Y-125476000D03*
X162052000Y-125476000D03*
X164592000Y-125476000D03*
X167132000Y-125476000D03*
X167132000Y-110236000D03*
X164592000Y-110236000D03*
X162052000Y-110236000D03*
X159512000Y-110236000D03*
X156972000Y-110236000D03*
X154432000Y-110236000D03*
X151892000Y-110236000D03*
X149352000Y-110236000D03*
X146812000Y-110236000D03*
D19*
X120142000Y-122426000D03*
X117602000Y-122426000D03*
D18*
X108712000Y-125476000D03*
X144272000Y-110236000D03*
X111252000Y-110236000D03*
X154432000Y-117856000D03*
D20*
X123682000Y-114686000D03*
X121682000Y-114686000D03*
D18*
X154432000Y-112776000D03*
X154432000Y-115316000D03*
D20*
X121682000Y-112686000D03*
X123682000Y-112686000D03*
X123682000Y-116686000D03*
X121682000Y-116686000D03*
D19*
X122682000Y-122426000D03*
X125222000Y-122426000D03*
D18*
X154432000Y-122936000D03*
X108712000Y-110236000D03*
X111252000Y-112776000D03*
D21*
X154352000Y-79248000D03*
X152527000Y-79248000D03*
D22*
X100209220Y-135248764D03*
D17*
X133577500Y-92710000D03*
X131852500Y-92710000D03*
D22*
X193681220Y-135256620D03*
D23*
X146812000Y-71321000D03*
X146812000Y-69596000D03*
D24*
X161570500Y-107315000D03*
X163295500Y-107315000D03*
D25*
X166943000Y-99568000D03*
X166943000Y-100838000D03*
X166943000Y-102108000D03*
X166943000Y-103378000D03*
X171893000Y-103378000D03*
X171893000Y-102108000D03*
X171893000Y-100838000D03*
X171893000Y-99568000D03*
D21*
X112823000Y-85852000D03*
X110998000Y-85852000D03*
D26*
X150213000Y-87122000D03*
X148463000Y-87122000D03*
D27*
X179978000Y-83397000D03*
X179978000Y-75523000D03*
D25*
X148909000Y-81407000D03*
X148909000Y-82677000D03*
X148909000Y-83947000D03*
X148909000Y-85217000D03*
X153859000Y-85217000D03*
X153859000Y-83947000D03*
X153859000Y-82677000D03*
X153859000Y-81407000D03*
X148909000Y-99568000D03*
X148909000Y-100838000D03*
X148909000Y-102108000D03*
X148909000Y-103378000D03*
X153859000Y-103378000D03*
X153859000Y-102108000D03*
X153859000Y-100838000D03*
X153859000Y-99568000D03*
D23*
X153924000Y-71374000D03*
X153924000Y-69649000D03*
D27*
X179978000Y-101177000D03*
X179978000Y-93303000D03*
D26*
X150227000Y-105283000D03*
X148477000Y-105283000D03*
D25*
X158434000Y-91440000D03*
X158434000Y-92710000D03*
X158434000Y-93980000D03*
X158434000Y-95250000D03*
X163384000Y-95250000D03*
X163384000Y-93980000D03*
X163384000Y-92710000D03*
X163384000Y-91440000D03*
X148909000Y-73533000D03*
X148909000Y-74803000D03*
X148909000Y-76073000D03*
X148909000Y-77343000D03*
X153859000Y-77343000D03*
X153859000Y-76073000D03*
X153859000Y-74803000D03*
X153859000Y-73533000D03*
D22*
X100203000Y-67183000D03*
D25*
X166943000Y-81407000D03*
X166943000Y-82677000D03*
X166943000Y-83947000D03*
X166943000Y-85217000D03*
X171893000Y-85217000D03*
X171893000Y-83947000D03*
X171893000Y-82677000D03*
X171893000Y-81407000D03*
X166943000Y-91440000D03*
X166943000Y-92710000D03*
X166943000Y-93980000D03*
X166943000Y-95250000D03*
X171893000Y-95250000D03*
X171893000Y-93980000D03*
X171893000Y-92710000D03*
X171893000Y-91440000D03*
D17*
X122412000Y-103564500D03*
X120687000Y-103564500D03*
D21*
X154328500Y-105283000D03*
X152503500Y-105283000D03*
D28*
X114867500Y-93023500D03*
X117407500Y-94293500D03*
X114867500Y-95563500D03*
X117407500Y-96833500D03*
X114867500Y-98103500D03*
X117407500Y-99373500D03*
X114867500Y-100643500D03*
X117407500Y-101913500D03*
D29*
X103437500Y-91143500D03*
X105227500Y-93683500D03*
X103437500Y-101253500D03*
X105227500Y-103793500D03*
D30*
X108517500Y-91753500D03*
X108517500Y-103183500D03*
D31*
X111567500Y-89593500D03*
X111567500Y-105343500D03*
D25*
X158434000Y-81407000D03*
X158434000Y-82677000D03*
X158434000Y-83947000D03*
X158434000Y-85217000D03*
X163384000Y-85217000D03*
X163384000Y-83947000D03*
X163384000Y-82677000D03*
X163384000Y-81407000D03*
D32*
X154154500Y-107315000D03*
X155979500Y-107315000D03*
D33*
X130683000Y-95504000D03*
X134733000Y-95504000D03*
D32*
X157964500Y-87122000D03*
X159789500Y-87122000D03*
D26*
X150227000Y-79248000D03*
X148477000Y-79248000D03*
D25*
X158434000Y-99568000D03*
X158434000Y-100838000D03*
X158434000Y-102108000D03*
X158434000Y-103378000D03*
X163384000Y-103378000D03*
X163384000Y-102108000D03*
X163384000Y-100838000D03*
X163384000Y-99568000D03*
D34*
X193634000Y-117166000D03*
X172634000Y-117166000D03*
D35*
X175634000Y-119126000D03*
D36*
X178634000Y-119126000D03*
X181634000Y-119126000D03*
X184634000Y-119126000D03*
X187634000Y-119126000D03*
X190634000Y-119126000D03*
D37*
X101233000Y-85852000D03*
X102983000Y-85852000D03*
D21*
X172386000Y-87122000D03*
X170561000Y-87122000D03*
D23*
X174752000Y-98626000D03*
X174752000Y-96901000D03*
X174879000Y-81126500D03*
X174879000Y-79401500D03*
D17*
X133577500Y-90678000D03*
X131852500Y-90678000D03*
D38*
X120523000Y-91658500D03*
D39*
X122523000Y-91658500D03*
X120523000Y-93658500D03*
X122523000Y-93658500D03*
X120523000Y-95658500D03*
X122523000Y-95658500D03*
D21*
X173529000Y-109601000D03*
X171704000Y-109601000D03*
D32*
X156313500Y-69596000D03*
X158138500Y-69596000D03*
D17*
X118718500Y-82042000D03*
X116993500Y-82042000D03*
D21*
X154305000Y-87122000D03*
X152480000Y-87122000D03*
X154328500Y-97155000D03*
X152503500Y-97155000D03*
D22*
X193757420Y-67100580D03*
D25*
X158434000Y-73406000D03*
X158434000Y-74676000D03*
X158434000Y-75946000D03*
X158434000Y-77216000D03*
X163384000Y-77216000D03*
X163384000Y-75946000D03*
X163384000Y-74676000D03*
X163384000Y-73406000D03*
D40*
X151130000Y-71360000D03*
X151130000Y-69610000D03*
D41*
X107950000Y-74958000D03*
D42*
X105410000Y-74958000D03*
X102870000Y-74958000D03*
D37*
X107329000Y-85852000D03*
X109079000Y-85852000D03*
D32*
X101092000Y-83566000D03*
X102917000Y-83566000D03*
X167005000Y-67437000D03*
X168830000Y-67437000D03*
D37*
X161572000Y-105537000D03*
X163322000Y-105537000D03*
D26*
X150213000Y-97155000D03*
X148463000Y-97155000D03*
X150227000Y-89408000D03*
X148477000Y-89408000D03*
D32*
X171657000Y-112014000D03*
X173482000Y-112014000D03*
D25*
X148909000Y-91440000D03*
X148909000Y-92710000D03*
X148909000Y-93980000D03*
X148909000Y-95250000D03*
X153859000Y-95250000D03*
X153859000Y-93980000D03*
X153859000Y-92710000D03*
X153859000Y-91440000D03*
D32*
X166831000Y-105537000D03*
X168656000Y-105537000D03*
D25*
X166943000Y-73406000D03*
X166943000Y-74676000D03*
X166943000Y-75946000D03*
X166943000Y-77216000D03*
X171893000Y-77216000D03*
X171893000Y-75946000D03*
X171893000Y-74676000D03*
X171893000Y-73406000D03*
D24*
X152172500Y-89408000D03*
X153897500Y-89408000D03*
D37*
X127893500Y-85344000D03*
X129643500Y-85344000D03*
D43*
X120650000Y-79375000D03*
X118110000Y-79375000D03*
X115570000Y-79375000D03*
D32*
X131779000Y-85344000D03*
X133604000Y-85344000D03*
D40*
X148717000Y-71346000D03*
X148717000Y-69596000D03*
D17*
X113993000Y-82042000D03*
X112268000Y-82042000D03*
D44*
X129455000Y-80905400D03*
X137329000Y-80905400D03*
M02*
