G04 #@! TF.GenerationSoftware,KiCad,Pcbnew,(6.0.7)*
G04 #@! TF.CreationDate,2023-01-03T20:18:15-06:00*
G04 #@! TF.ProjectId,SignalStack_Board,5369676e-616c-4537-9461-636b5f426f61,rev?*
G04 #@! TF.SameCoordinates,Original*
G04 #@! TF.FileFunction,Legend,Bot*
G04 #@! TF.FilePolarity,Positive*
%FSLAX46Y46*%
G04 Gerber Fmt 4.6, Leading zero omitted, Abs format (unit mm)*
G04 Created by KiCad (PCBNEW (6.0.7)) date 2023-01-03 20:18:15*
%MOMM*%
%LPD*%
G01*
G04 APERTURE LIST*
%ADD10C,0.300000*%
%ADD11C,0.150000*%
%ADD12C,1.308000*%
%ADD13C,2.946400*%
%ADD14O,5.100000X3.000000*%
%ADD15C,1.100000*%
%ADD16C,1.400000*%
%ADD17C,4.000000*%
%ADD18C,2.000000*%
%ADD19C,1.270000*%
%ADD20R,1.530000X1.530000*%
%ADD21C,1.530000*%
%ADD22R,1.350000X1.350000*%
%ADD23O,1.350000X1.350000*%
%ADD24R,1.358000X1.358000*%
%ADD25C,1.358000*%
%ADD26C,1.524000*%
G04 APERTURE END LIST*
D10*
X193478671Y-74089985D02*
X193201993Y-74198842D01*
X192718183Y-74198842D01*
X192511052Y-74089985D01*
X192400683Y-73981128D01*
X192276707Y-73763414D01*
X192249493Y-73545700D01*
X192319040Y-73327985D01*
X192402195Y-73219128D01*
X192582112Y-73110271D01*
X192955552Y-73001414D01*
X193135469Y-72892557D01*
X193218623Y-72783700D01*
X193288171Y-72565985D01*
X193260957Y-72348271D01*
X193136981Y-72130557D01*
X193026612Y-72021700D01*
X192819481Y-71912842D01*
X192335671Y-71912842D01*
X192058993Y-72021700D01*
X190398921Y-72674842D02*
X190589421Y-74198842D01*
X191269778Y-72674842D02*
X191419457Y-73872271D01*
X191349909Y-74089985D01*
X191169993Y-74198842D01*
X190879707Y-74198842D01*
X190672576Y-74089985D01*
X190562207Y-73981128D01*
X189431302Y-72674842D02*
X189717052Y-74960842D01*
X189444909Y-72783700D02*
X189237778Y-72674842D01*
X188850731Y-72674842D01*
X188670814Y-72783700D01*
X188587659Y-72892557D01*
X188518112Y-73110271D01*
X188599754Y-73763414D01*
X188723731Y-73981128D01*
X188834100Y-74089985D01*
X189041231Y-74198842D01*
X189428278Y-74198842D01*
X189608195Y-74089985D01*
X186995623Y-74089985D02*
X187202754Y-74198842D01*
X187589802Y-74198842D01*
X187769719Y-74089985D01*
X187839266Y-73872271D01*
X187730409Y-73001414D01*
X187606433Y-72783700D01*
X187399302Y-72674842D01*
X187012254Y-72674842D01*
X186832338Y-72783700D01*
X186762790Y-73001414D01*
X186790004Y-73219128D01*
X187784838Y-73436842D01*
X186041612Y-74198842D02*
X185851112Y-72674842D01*
X185905540Y-73110271D02*
X185781564Y-72892557D01*
X185671195Y-72783700D01*
X185464064Y-72674842D01*
X185270540Y-72674842D01*
X193188385Y-81450905D02*
X192911707Y-81559762D01*
X192427897Y-81559762D01*
X192220766Y-81450905D01*
X192110397Y-81342048D01*
X191986421Y-81124334D01*
X191959207Y-80906620D01*
X192028754Y-80688905D01*
X192111909Y-80580048D01*
X192291826Y-80471191D01*
X192665266Y-80362334D01*
X192845183Y-80253477D01*
X192928338Y-80144620D01*
X192997885Y-79926905D01*
X192970671Y-79709191D01*
X192846695Y-79491477D01*
X192736326Y-79382620D01*
X192529195Y-79273762D01*
X192045385Y-79273762D01*
X191768707Y-79382620D01*
X190979493Y-80035762D02*
X191265243Y-82321762D01*
X190993100Y-80144620D02*
X190785969Y-80035762D01*
X190398921Y-80035762D01*
X190219004Y-80144620D01*
X190135850Y-80253477D01*
X190066302Y-80471191D01*
X190147945Y-81124334D01*
X190271921Y-81342048D01*
X190382290Y-81450905D01*
X190589421Y-81559762D01*
X190976469Y-81559762D01*
X191156385Y-81450905D01*
X189331516Y-81559762D02*
X189141016Y-80035762D01*
X189045766Y-79273762D02*
X189156135Y-79382620D01*
X189072981Y-79491477D01*
X188962612Y-79382620D01*
X189045766Y-79273762D01*
X189072981Y-79491477D01*
X187479433Y-81450905D02*
X187686564Y-81559762D01*
X188073612Y-81559762D01*
X188253528Y-81450905D01*
X188336683Y-81342048D01*
X188406231Y-81124334D01*
X188324588Y-80471191D01*
X188200612Y-80253477D01*
X188090243Y-80144620D01*
X187883112Y-80035762D01*
X187496064Y-80035762D01*
X187316147Y-80144620D01*
X186625207Y-80035762D02*
X186331897Y-81559762D01*
X185657588Y-80035762D02*
X186331897Y-81559762D01*
X186593457Y-82104048D01*
X186703826Y-82212905D01*
X186910957Y-82321762D01*
X193914100Y-88811825D02*
X193637421Y-88920682D01*
X193153612Y-88920682D01*
X192946481Y-88811825D01*
X192836112Y-88702968D01*
X192712135Y-88485254D01*
X192684921Y-88267540D01*
X192754469Y-88049825D01*
X192837623Y-87940968D01*
X193017540Y-87832111D01*
X193390981Y-87723254D01*
X193570897Y-87614397D01*
X193654052Y-87505540D01*
X193723600Y-87287825D01*
X193696385Y-87070111D01*
X193572409Y-86852397D01*
X193462040Y-86743540D01*
X193254909Y-86634682D01*
X192771100Y-86634682D01*
X192494421Y-86743540D01*
X191895707Y-88920682D02*
X191705207Y-87396682D01*
X191609957Y-86634682D02*
X191720326Y-86743540D01*
X191637171Y-86852397D01*
X191526802Y-86743540D01*
X191609957Y-86634682D01*
X191637171Y-86852397D01*
X189866731Y-87396682D02*
X190098052Y-89247254D01*
X190222028Y-89464968D01*
X190332397Y-89573825D01*
X190539528Y-89682682D01*
X190829814Y-89682682D01*
X191009731Y-89573825D01*
X190043623Y-88811825D02*
X190250754Y-88920682D01*
X190637802Y-88920682D01*
X190817719Y-88811825D01*
X190900873Y-88702968D01*
X190970421Y-88485254D01*
X190888778Y-87832111D01*
X190764802Y-87614397D01*
X190654433Y-87505540D01*
X190447302Y-87396682D01*
X190060254Y-87396682D01*
X189880338Y-87505540D01*
X188899112Y-87396682D02*
X189089612Y-88920682D01*
X188926326Y-87614397D02*
X188815957Y-87505540D01*
X188608826Y-87396682D01*
X188318540Y-87396682D01*
X188138623Y-87505540D01*
X188069076Y-87723254D01*
X188218754Y-88920682D01*
X186380278Y-88920682D02*
X186230600Y-87723254D01*
X186300147Y-87505540D01*
X186480064Y-87396682D01*
X186867112Y-87396682D01*
X187074243Y-87505540D01*
X186366671Y-88811825D02*
X186573802Y-88920682D01*
X187057612Y-88920682D01*
X187237528Y-88811825D01*
X187307076Y-88594111D01*
X187279862Y-88376397D01*
X187155885Y-88158682D01*
X186948754Y-88049825D01*
X186464945Y-88049825D01*
X186257814Y-87940968D01*
X185122373Y-88920682D02*
X185302290Y-88811825D01*
X185371838Y-88594111D01*
X185126909Y-86634682D01*
X193333528Y-96172745D02*
X193056850Y-96281602D01*
X192573040Y-96281602D01*
X192365909Y-96172745D01*
X192255540Y-96063888D01*
X192131564Y-95846174D01*
X192104350Y-95628460D01*
X192173897Y-95410745D01*
X192257052Y-95301888D01*
X192436969Y-95193031D01*
X192810409Y-95084174D01*
X192990326Y-94975317D01*
X193073481Y-94866460D01*
X193143028Y-94648745D01*
X193115814Y-94431031D01*
X192991838Y-94213317D01*
X192881469Y-94104460D01*
X192674338Y-93995602D01*
X192190528Y-93995602D01*
X191913850Y-94104460D01*
X191414921Y-94757602D02*
X190640826Y-94757602D01*
X191029385Y-93995602D02*
X191274314Y-95955031D01*
X191204766Y-96172745D01*
X191024850Y-96281602D01*
X190831326Y-96281602D01*
X189283135Y-96281602D02*
X189133457Y-95084174D01*
X189203004Y-94866460D01*
X189382921Y-94757602D01*
X189769969Y-94757602D01*
X189977100Y-94866460D01*
X189269528Y-96172745D02*
X189476659Y-96281602D01*
X189960469Y-96281602D01*
X190140385Y-96172745D01*
X190209933Y-95955031D01*
X190182719Y-95737317D01*
X190058743Y-95519602D01*
X189851612Y-95410745D01*
X189367802Y-95410745D01*
X189160671Y-95301888D01*
X187431052Y-96172745D02*
X187638183Y-96281602D01*
X188025231Y-96281602D01*
X188205147Y-96172745D01*
X188288302Y-96063888D01*
X188357850Y-95846174D01*
X188276207Y-95193031D01*
X188152231Y-94975317D01*
X188041862Y-94866460D01*
X187834731Y-94757602D01*
X187447683Y-94757602D01*
X187267766Y-94866460D01*
X186573802Y-96281602D02*
X186288052Y-93995602D01*
X186271421Y-95410745D02*
X185799707Y-96281602D01*
X185609207Y-94757602D02*
X186492159Y-95628460D01*
X195704195Y-103533665D02*
X195427516Y-103642522D01*
X194943707Y-103642522D01*
X194736576Y-103533665D01*
X194626207Y-103424808D01*
X194502231Y-103207094D01*
X194475016Y-102989380D01*
X194544564Y-102771665D01*
X194627719Y-102662808D01*
X194807635Y-102553951D01*
X195181076Y-102445094D01*
X195360993Y-102336237D01*
X195444147Y-102227380D01*
X195513695Y-102009665D01*
X195486481Y-101791951D01*
X195362504Y-101574237D01*
X195252135Y-101465380D01*
X195045004Y-101356522D01*
X194561195Y-101356522D01*
X194284516Y-101465380D01*
X193495302Y-102118522D02*
X193781052Y-104404522D01*
X193508909Y-102227380D02*
X193301778Y-102118522D01*
X192914731Y-102118522D01*
X192734814Y-102227380D01*
X192651659Y-102336237D01*
X192582112Y-102553951D01*
X192663754Y-103207094D01*
X192787731Y-103424808D01*
X192898100Y-103533665D01*
X193105231Y-103642522D01*
X193492278Y-103642522D01*
X193672195Y-103533665D01*
X191847326Y-103642522D02*
X191656826Y-102118522D01*
X191561576Y-101356522D02*
X191671945Y-101465380D01*
X191588790Y-101574237D01*
X191478421Y-101465380D01*
X191561576Y-101356522D01*
X191588790Y-101574237D01*
X190689207Y-102118522D02*
X190879707Y-103642522D01*
X190716421Y-102336237D02*
X190606052Y-102227380D01*
X190398921Y-102118522D01*
X190108635Y-102118522D01*
X189928719Y-102227380D01*
X189859171Y-102445094D01*
X190008850Y-103642522D01*
X188850731Y-102118522D02*
X189041231Y-103642522D01*
X188877945Y-102336237D02*
X188767576Y-102227380D01*
X188560445Y-102118522D01*
X188270159Y-102118522D01*
X188090243Y-102227380D01*
X188020695Y-102445094D01*
X188170373Y-103642522D01*
X187202754Y-103642522D02*
X187012254Y-102118522D01*
X186917004Y-101356522D02*
X187027373Y-101465380D01*
X186944219Y-101574237D01*
X186833850Y-101465380D01*
X186917004Y-101356522D01*
X186944219Y-101574237D01*
X186044635Y-102118522D02*
X186235135Y-103642522D01*
X186071850Y-102336237D02*
X185961481Y-102227380D01*
X185754350Y-102118522D01*
X185464064Y-102118522D01*
X185284147Y-102227380D01*
X185214600Y-102445094D01*
X185364278Y-103642522D01*
X183335302Y-102118522D02*
X183566623Y-103969094D01*
X183690600Y-104186808D01*
X183800969Y-104295665D01*
X184008100Y-104404522D01*
X184298385Y-104404522D01*
X184478302Y-104295665D01*
X183512195Y-103533665D02*
X183719326Y-103642522D01*
X184106373Y-103642522D01*
X184286290Y-103533665D01*
X184369445Y-103424808D01*
X184438993Y-103207094D01*
X184357350Y-102553951D01*
X184233373Y-102336237D01*
X184123004Y-102227380D01*
X183915873Y-102118522D01*
X183528826Y-102118522D01*
X183348909Y-102227380D01*
X194543052Y-110894585D02*
X194266373Y-111003442D01*
X193782564Y-111003442D01*
X193575433Y-110894585D01*
X193465064Y-110785728D01*
X193341088Y-110568014D01*
X193313873Y-110350300D01*
X193383421Y-110132585D01*
X193466576Y-110023728D01*
X193646493Y-109914871D01*
X194019933Y-109806014D01*
X194199850Y-109697157D01*
X194283004Y-109588300D01*
X194352552Y-109370585D01*
X194325338Y-109152871D01*
X194201362Y-108935157D01*
X194090993Y-108826300D01*
X193883862Y-108717442D01*
X193400052Y-108717442D01*
X193123373Y-108826300D01*
X192527683Y-109479442D02*
X192234373Y-111003442D01*
X191560064Y-109479442D02*
X192234373Y-111003442D01*
X192495933Y-111547728D01*
X192606302Y-111656585D01*
X192813433Y-111765442D01*
X191059623Y-110894585D02*
X190879707Y-111003442D01*
X190492659Y-111003442D01*
X190285528Y-110894585D01*
X190161552Y-110676871D01*
X190147945Y-110568014D01*
X190217493Y-110350300D01*
X190397409Y-110241442D01*
X190687695Y-110241442D01*
X190867612Y-110132585D01*
X190937159Y-109914871D01*
X190923552Y-109806014D01*
X190799576Y-109588300D01*
X190592445Y-109479442D01*
X190302159Y-109479442D01*
X190122243Y-109588300D01*
X189431302Y-109479442D02*
X188657207Y-109479442D01*
X189045766Y-108717442D02*
X189290695Y-110676871D01*
X189221147Y-110894585D01*
X189041231Y-111003442D01*
X188847707Y-111003442D01*
X187382671Y-110894585D02*
X187589802Y-111003442D01*
X187976850Y-111003442D01*
X188156766Y-110894585D01*
X188226314Y-110676871D01*
X188117457Y-109806014D01*
X187993481Y-109588300D01*
X187786350Y-109479442D01*
X187399302Y-109479442D01*
X187219385Y-109588300D01*
X187149838Y-109806014D01*
X187177052Y-110023728D01*
X188171885Y-110241442D01*
X186428659Y-111003442D02*
X186238159Y-109479442D01*
X186265373Y-109697157D02*
X186155004Y-109588300D01*
X185947873Y-109479442D01*
X185657588Y-109479442D01*
X185477671Y-109588300D01*
X185408123Y-109806014D01*
X185557802Y-111003442D01*
X185408123Y-109806014D02*
X185284147Y-109588300D01*
X185077016Y-109479442D01*
X184786731Y-109479442D01*
X184606814Y-109588300D01*
X184537266Y-109806014D01*
X184686945Y-111003442D01*
D11*
X154558809Y-65716342D02*
X154606428Y-65763961D01*
X154749285Y-65811580D01*
X154844523Y-65811580D01*
X154987380Y-65763961D01*
X155082619Y-65668723D01*
X155130238Y-65573485D01*
X155177857Y-65383009D01*
X155177857Y-65240152D01*
X155130238Y-65049676D01*
X155082619Y-64954438D01*
X154987380Y-64859200D01*
X154844523Y-64811580D01*
X154749285Y-64811580D01*
X154606428Y-64859200D01*
X154558809Y-64906819D01*
X153987380Y-65811580D02*
X154082619Y-65763961D01*
X154130238Y-65716342D01*
X154177857Y-65621104D01*
X154177857Y-65335390D01*
X154130238Y-65240152D01*
X154082619Y-65192533D01*
X153987380Y-65144914D01*
X153844523Y-65144914D01*
X153749285Y-65192533D01*
X153701666Y-65240152D01*
X153654047Y-65335390D01*
X153654047Y-65621104D01*
X153701666Y-65716342D01*
X153749285Y-65763961D01*
X153844523Y-65811580D01*
X153987380Y-65811580D01*
X153225476Y-65144914D02*
X153225476Y-65811580D01*
X153225476Y-65240152D02*
X153177857Y-65192533D01*
X153082619Y-65144914D01*
X152939761Y-65144914D01*
X152844523Y-65192533D01*
X152796904Y-65287771D01*
X152796904Y-65811580D01*
X152320714Y-65144914D02*
X152320714Y-65811580D01*
X152320714Y-65240152D02*
X152273095Y-65192533D01*
X152177857Y-65144914D01*
X152035000Y-65144914D01*
X151939761Y-65192533D01*
X151892142Y-65287771D01*
X151892142Y-65811580D01*
X151463571Y-64906819D02*
X151415952Y-64859200D01*
X151320714Y-64811580D01*
X151082619Y-64811580D01*
X150987380Y-64859200D01*
X150939761Y-64906819D01*
X150892142Y-65002057D01*
X150892142Y-65097295D01*
X150939761Y-65240152D01*
X151511190Y-65811580D01*
X150892142Y-65811580D01*
X176741809Y-65654142D02*
X176789428Y-65701761D01*
X176932285Y-65749380D01*
X177027523Y-65749380D01*
X177170380Y-65701761D01*
X177265619Y-65606523D01*
X177313238Y-65511285D01*
X177360857Y-65320809D01*
X177360857Y-65177952D01*
X177313238Y-64987476D01*
X177265619Y-64892238D01*
X177170380Y-64797000D01*
X177027523Y-64749380D01*
X176932285Y-64749380D01*
X176789428Y-64797000D01*
X176741809Y-64844619D01*
X176170380Y-65749380D02*
X176265619Y-65701761D01*
X176313238Y-65654142D01*
X176360857Y-65558904D01*
X176360857Y-65273190D01*
X176313238Y-65177952D01*
X176265619Y-65130333D01*
X176170380Y-65082714D01*
X176027523Y-65082714D01*
X175932285Y-65130333D01*
X175884666Y-65177952D01*
X175837047Y-65273190D01*
X175837047Y-65558904D01*
X175884666Y-65654142D01*
X175932285Y-65701761D01*
X176027523Y-65749380D01*
X176170380Y-65749380D01*
X175408476Y-65082714D02*
X175408476Y-65749380D01*
X175408476Y-65177952D02*
X175360857Y-65130333D01*
X175265619Y-65082714D01*
X175122761Y-65082714D01*
X175027523Y-65130333D01*
X174979904Y-65225571D01*
X174979904Y-65749380D01*
X174503714Y-65082714D02*
X174503714Y-65749380D01*
X174503714Y-65177952D02*
X174456095Y-65130333D01*
X174360857Y-65082714D01*
X174218000Y-65082714D01*
X174122761Y-65130333D01*
X174075142Y-65225571D01*
X174075142Y-65749380D01*
X173694190Y-64749380D02*
X173075142Y-64749380D01*
X173408476Y-65130333D01*
X173265619Y-65130333D01*
X173170380Y-65177952D01*
X173122761Y-65225571D01*
X173075142Y-65320809D01*
X173075142Y-65558904D01*
X173122761Y-65654142D01*
X173170380Y-65701761D01*
X173265619Y-65749380D01*
X173551333Y-65749380D01*
X173646571Y-65701761D01*
X173694190Y-65654142D01*
X134873809Y-65762142D02*
X134921428Y-65809761D01*
X135064285Y-65857380D01*
X135159523Y-65857380D01*
X135302380Y-65809761D01*
X135397619Y-65714523D01*
X135445238Y-65619285D01*
X135492857Y-65428809D01*
X135492857Y-65285952D01*
X135445238Y-65095476D01*
X135397619Y-65000238D01*
X135302380Y-64905000D01*
X135159523Y-64857380D01*
X135064285Y-64857380D01*
X134921428Y-64905000D01*
X134873809Y-64952619D01*
X134302380Y-65857380D02*
X134397619Y-65809761D01*
X134445238Y-65762142D01*
X134492857Y-65666904D01*
X134492857Y-65381190D01*
X134445238Y-65285952D01*
X134397619Y-65238333D01*
X134302380Y-65190714D01*
X134159523Y-65190714D01*
X134064285Y-65238333D01*
X134016666Y-65285952D01*
X133969047Y-65381190D01*
X133969047Y-65666904D01*
X134016666Y-65762142D01*
X134064285Y-65809761D01*
X134159523Y-65857380D01*
X134302380Y-65857380D01*
X133540476Y-65190714D02*
X133540476Y-65857380D01*
X133540476Y-65285952D02*
X133492857Y-65238333D01*
X133397619Y-65190714D01*
X133254761Y-65190714D01*
X133159523Y-65238333D01*
X133111904Y-65333571D01*
X133111904Y-65857380D01*
X132635714Y-65190714D02*
X132635714Y-65857380D01*
X132635714Y-65285952D02*
X132588095Y-65238333D01*
X132492857Y-65190714D01*
X132350000Y-65190714D01*
X132254761Y-65238333D01*
X132207142Y-65333571D01*
X132207142Y-65857380D01*
X131207142Y-65857380D02*
X131778571Y-65857380D01*
X131492857Y-65857380D02*
X131492857Y-64857380D01*
X131588095Y-65000238D01*
X131683333Y-65095476D01*
X131778571Y-65143095D01*
X145161000Y-65333800D02*
X145161000Y-64241600D01*
X160909000Y-65384600D02*
X160909000Y-64190800D01*
X160909000Y-60787200D02*
X160909000Y-53040200D01*
X145161000Y-77652800D02*
X160909000Y-77652800D01*
X145161000Y-65359200D02*
X145161000Y-77652800D01*
X146304000Y-63073200D02*
X147472400Y-63073200D01*
X153009600Y-53040200D02*
X153009600Y-61930200D01*
X160909000Y-60761800D02*
X160909000Y-61930200D01*
X153035000Y-65359200D02*
X153035000Y-64216200D01*
X150749000Y-63073200D02*
X151892000Y-63073200D01*
X155321000Y-63073200D02*
X158623000Y-63073200D01*
X160909000Y-65359200D02*
X160909000Y-77652800D01*
X155321000Y-63073200D02*
X154178000Y-63073200D01*
X153035000Y-65359200D02*
X153035000Y-77652800D01*
X158597600Y-63073200D02*
X159766000Y-63073200D01*
X150749000Y-63073200D02*
X147472400Y-63073200D01*
X145161000Y-53014800D02*
X160909000Y-53014800D01*
X145161000Y-61930200D02*
X145161000Y-60711000D01*
X145161000Y-53040200D02*
X145161000Y-60787200D01*
X160909000Y-61955600D02*
G75*
G03*
X159791400Y-63073200I-2J-1117598D01*
G01*
X146304000Y-63073200D02*
G75*
G03*
X145161000Y-61930200I-1143000J0D01*
G01*
X145161000Y-64216200D02*
G75*
G03*
X146304000Y-63073200I0J1143000D01*
G01*
X159791400Y-63073200D02*
G75*
G03*
X160909000Y-64190800I1117598J-2D01*
G01*
X154178000Y-63073200D02*
G75*
G03*
X154178000Y-63073200I-1143000J0D01*
G01*
X175133000Y-65557400D02*
X175133000Y-64414400D01*
X183007000Y-60960000D02*
X183007000Y-62128400D01*
X177419000Y-63271400D02*
X180721000Y-63271400D01*
X168402000Y-63271400D02*
X169570400Y-63271400D01*
X183007000Y-65582800D02*
X183007000Y-64389000D01*
X175133000Y-65557400D02*
X175133000Y-77851000D01*
X183007000Y-60985400D02*
X183007000Y-53238400D01*
X167259000Y-62128400D02*
X167259000Y-60909200D01*
X167259000Y-53213000D02*
X183007000Y-53213000D01*
X167259000Y-53238400D02*
X167259000Y-60985400D01*
X167259000Y-77851000D02*
X183007000Y-77851000D01*
X180695600Y-63271400D02*
X181864000Y-63271400D01*
X167259000Y-65532000D02*
X167259000Y-64439800D01*
X177419000Y-63271400D02*
X176276000Y-63271400D01*
X167259000Y-65557400D02*
X167259000Y-77851000D01*
X183007000Y-65557400D02*
X183007000Y-77851000D01*
X175107600Y-53238400D02*
X175107600Y-62128400D01*
X172847000Y-63271400D02*
X169570400Y-63271400D01*
X172847000Y-63271400D02*
X173990000Y-63271400D01*
X168402000Y-63271400D02*
G75*
G03*
X167259000Y-62128400I-1143000J0D01*
G01*
X181889400Y-63271400D02*
G75*
G03*
X183007000Y-64389000I1117598J-2D01*
G01*
X183007000Y-62153800D02*
G75*
G03*
X181889400Y-63271400I-2J-1117598D01*
G01*
X167259000Y-64414400D02*
G75*
G03*
X168402000Y-63271400I0J1143000D01*
G01*
X176276000Y-63271400D02*
G75*
G03*
X176276000Y-63271400I-1143000J0D01*
G01*
X141224000Y-52959000D02*
X125476000Y-52959000D01*
X140081000Y-63017400D02*
X138912600Y-63017400D01*
X133350000Y-65303400D02*
X133350000Y-64160400D01*
X135636000Y-63017400D02*
X138912600Y-63017400D01*
X133375400Y-52984400D02*
X133375400Y-61874400D01*
X141224000Y-65303400D02*
X141224000Y-77597000D01*
X141224000Y-52984400D02*
X141224000Y-60731400D01*
X131064000Y-63017400D02*
X127762000Y-63017400D01*
X125476000Y-65303400D02*
X125476000Y-77597000D01*
X125476000Y-60706000D02*
X125476000Y-61874400D01*
X127787400Y-63017400D02*
X126619000Y-63017400D01*
X141224000Y-77597000D02*
X125476000Y-77597000D01*
X125476000Y-65328800D02*
X125476000Y-64135000D01*
X131064000Y-63017400D02*
X132207000Y-63017400D01*
X133350000Y-65303400D02*
X133350000Y-77597000D01*
X141224000Y-61874400D02*
X141224000Y-60655200D01*
X125476000Y-60731400D02*
X125476000Y-52984400D01*
X141224000Y-65278000D02*
X141224000Y-64185800D01*
X135636000Y-63017400D02*
X134493000Y-63017400D01*
X141224000Y-61874400D02*
G75*
G03*
X140081000Y-63017400I0J-1143000D01*
G01*
X140081000Y-63017400D02*
G75*
G03*
X141224000Y-64160400I1143000J0D01*
G01*
X126593600Y-63017400D02*
G75*
G03*
X125476000Y-61899800I-1117598J2D01*
G01*
X125476000Y-64135000D02*
G75*
G03*
X126593600Y-63017400I2J1117598D01*
G01*
X134493000Y-63017400D02*
G75*
G03*
X134493000Y-63017400I-1143000J0D01*
G01*
%LPC*%
D12*
X111221000Y-125589500D03*
X113761000Y-125589500D03*
X116301000Y-125589500D03*
X118841000Y-125589500D03*
X144241000Y-125589500D03*
X113761000Y-110349500D03*
X121381000Y-125589500D03*
X123921000Y-125589500D03*
X126461000Y-125589500D03*
X129001000Y-125589500D03*
X131541000Y-125589500D03*
X134081000Y-125589500D03*
X136621000Y-125589500D03*
X139161000Y-125589500D03*
X141701000Y-125589500D03*
X141701000Y-110349500D03*
X139161000Y-110349500D03*
X136621000Y-110349500D03*
X134081000Y-110349500D03*
X131541000Y-110349500D03*
X129001000Y-110349500D03*
X126461000Y-110349500D03*
X123921000Y-110349500D03*
X121381000Y-110349500D03*
X118841000Y-110349500D03*
X116301000Y-110349500D03*
X146781000Y-125589500D03*
X149321000Y-125589500D03*
X151861000Y-125589500D03*
X154401000Y-125589500D03*
X156941000Y-125589500D03*
X159481000Y-125589500D03*
X162021000Y-125589500D03*
X164561000Y-125589500D03*
X167101000Y-125589500D03*
X167101000Y-110349500D03*
X164561000Y-110349500D03*
X162021000Y-110349500D03*
X159481000Y-110349500D03*
X156941000Y-110349500D03*
X154401000Y-110349500D03*
X151861000Y-110349500D03*
X149321000Y-110349500D03*
X146781000Y-110349500D03*
X108681000Y-125589500D03*
X144241000Y-110349500D03*
X111221000Y-110349500D03*
X108681000Y-110349500D03*
D13*
X100209220Y-135248764D03*
X193681220Y-135256620D03*
D14*
X156930000Y-81215200D03*
X149056000Y-81215200D03*
X179028000Y-81413400D03*
X171154000Y-81413400D03*
D13*
X100203000Y-67183000D03*
D15*
X114867500Y-93023500D03*
X117407500Y-94293500D03*
X114867500Y-95563500D03*
X117407500Y-96833500D03*
X114867500Y-98103500D03*
X117407500Y-99373500D03*
X114867500Y-100643500D03*
X117407500Y-101913500D03*
D16*
X103437500Y-91143500D03*
X105227500Y-93683500D03*
X103437500Y-101253500D03*
X105227500Y-103793500D03*
D17*
X108517500Y-91753500D03*
X108517500Y-103183500D03*
D18*
X111567500Y-89593500D03*
X111567500Y-105343500D03*
D19*
X193634000Y-117166000D03*
X172634000Y-117166000D03*
D20*
X175634000Y-119126000D03*
D21*
X178634000Y-119126000D03*
X181634000Y-119126000D03*
X184634000Y-119126000D03*
X187634000Y-119126000D03*
X190634000Y-119126000D03*
D22*
X120523000Y-91658500D03*
D23*
X122523000Y-91658500D03*
X120523000Y-93658500D03*
X122523000Y-93658500D03*
X120523000Y-95658500D03*
X122523000Y-95658500D03*
D13*
X193757420Y-67100580D03*
D24*
X107950000Y-74958000D03*
D25*
X105410000Y-74958000D03*
X102870000Y-74958000D03*
D26*
X120650000Y-79375000D03*
X118110000Y-79375000D03*
X115570000Y-79375000D03*
D14*
X129455000Y-81159400D03*
X137329000Y-81159400D03*
M02*
