G04 #@! TF.GenerationSoftware,KiCad,Pcbnew,(6.0.7)*
G04 #@! TF.CreationDate,2023-01-03T20:18:15-06:00*
G04 #@! TF.ProjectId,SignalStack_Board,5369676e-616c-4537-9461-636b5f426f61,rev?*
G04 #@! TF.SameCoordinates,Original*
G04 #@! TF.FileFunction,Soldermask,Top*
G04 #@! TF.FilePolarity,Negative*
%FSLAX46Y46*%
G04 Gerber Fmt 4.6, Leading zero omitted, Abs format (unit mm)*
G04 Created by KiCad (PCBNEW (6.0.7)) date 2023-01-03 20:18:15*
%MOMM*%
%LPD*%
G01*
G04 APERTURE LIST*
G04 Aperture macros list*
%AMRoundRect*
0 Rectangle with rounded corners*
0 $1 Rounding radius*
0 $2 $3 $4 $5 $6 $7 $8 $9 X,Y pos of 4 corners*
0 Add a 4 corners polygon primitive as box body*
4,1,4,$2,$3,$4,$5,$6,$7,$8,$9,$2,$3,0*
0 Add four circle primitives for the rounded corners*
1,1,$1+$1,$2,$3*
1,1,$1+$1,$4,$5*
1,1,$1+$1,$6,$7*
1,1,$1+$1,$8,$9*
0 Add four rect primitives between the rounded corners*
20,1,$1+$1,$2,$3,$4,$5,0*
20,1,$1+$1,$4,$5,$6,$7,0*
20,1,$1+$1,$6,$7,$8,$9,0*
20,1,$1+$1,$8,$9,$2,$3,0*%
G04 Aperture macros list end*
%ADD10RoundRect,0.237500X0.300000X0.237500X-0.300000X0.237500X-0.300000X-0.237500X0.300000X-0.237500X0*%
%ADD11C,1.308000*%
%ADD12C,2.946400*%
%ADD13RoundRect,0.237500X0.287500X0.237500X-0.287500X0.237500X-0.287500X-0.237500X0.287500X-0.237500X0*%
%ADD14RoundRect,0.237500X-0.250000X-0.237500X0.250000X-0.237500X0.250000X0.237500X-0.250000X0.237500X0*%
%ADD15RoundRect,0.237500X0.237500X-0.300000X0.237500X0.300000X-0.237500X0.300000X-0.237500X-0.300000X0*%
%ADD16O,5.100000X3.000000*%
%ADD17RoundRect,0.237500X0.237500X-0.250000X0.237500X0.250000X-0.237500X0.250000X-0.237500X-0.250000X0*%
%ADD18R,1.560000X0.650000*%
%ADD19RoundRect,0.150000X0.150000X-0.825000X0.150000X0.825000X-0.150000X0.825000X-0.150000X-0.825000X0*%
%ADD20RoundRect,0.237500X-0.287500X-0.237500X0.287500X-0.237500X0.287500X0.237500X-0.287500X0.237500X0*%
%ADD21RoundRect,0.150000X-0.150000X0.825000X-0.150000X-0.825000X0.150000X-0.825000X0.150000X0.825000X0*%
%ADD22RoundRect,0.237500X0.250000X0.237500X-0.250000X0.237500X-0.250000X-0.237500X0.250000X-0.237500X0*%
%ADD23RoundRect,0.237500X0.237500X-0.287500X0.237500X0.287500X-0.237500X0.287500X-0.237500X-0.287500X0*%
%ADD24RoundRect,0.237500X-0.237500X0.287500X-0.237500X-0.287500X0.237500X-0.287500X0.237500X0.287500X0*%
%ADD25C,1.100000*%
%ADD26C,1.400000*%
%ADD27C,4.000000*%
%ADD28C,2.000000*%
%ADD29R,1.800000X2.400000*%
%ADD30C,1.270000*%
%ADD31R,1.530000X1.530000*%
%ADD32C,1.530000*%
%ADD33R,1.350000X1.350000*%
%ADD34O,1.350000X1.350000*%
%ADD35R,1.358000X1.358000*%
%ADD36C,1.358000*%
%ADD37C,1.524000*%
G04 APERTURE END LIST*
D10*
X133604000Y-88646000D03*
X131879000Y-88646000D03*
D11*
X111221000Y-125589500D03*
X113761000Y-125589500D03*
X116301000Y-125589500D03*
X118841000Y-125589500D03*
X144241000Y-125589500D03*
X113761000Y-110349500D03*
X121381000Y-125589500D03*
X123921000Y-125589500D03*
X126461000Y-125589500D03*
X129001000Y-125589500D03*
X131541000Y-125589500D03*
X134081000Y-125589500D03*
X136621000Y-125589500D03*
X139161000Y-125589500D03*
X141701000Y-125589500D03*
X141701000Y-110349500D03*
X139161000Y-110349500D03*
X136621000Y-110349500D03*
X134081000Y-110349500D03*
X131541000Y-110349500D03*
X129001000Y-110349500D03*
X126461000Y-110349500D03*
X123921000Y-110349500D03*
X121381000Y-110349500D03*
X118841000Y-110349500D03*
X116301000Y-110349500D03*
X146781000Y-125589500D03*
X149321000Y-125589500D03*
X151861000Y-125589500D03*
X154401000Y-125589500D03*
X156941000Y-125589500D03*
X159481000Y-125589500D03*
X162021000Y-125589500D03*
X164561000Y-125589500D03*
X167101000Y-125589500D03*
X167101000Y-110349500D03*
X164561000Y-110349500D03*
X162021000Y-110349500D03*
X159481000Y-110349500D03*
X156941000Y-110349500D03*
X154401000Y-110349500D03*
X151861000Y-110349500D03*
X149321000Y-110349500D03*
X146781000Y-110349500D03*
X108681000Y-125589500D03*
X144241000Y-110349500D03*
X111221000Y-110349500D03*
X108681000Y-110349500D03*
D12*
X100209220Y-135248764D03*
D10*
X175995500Y-78740000D03*
X174270500Y-78740000D03*
X133577500Y-92710000D03*
X131852500Y-92710000D03*
D12*
X193681220Y-135256620D03*
D13*
X162659000Y-100203000D03*
X160909000Y-100203000D03*
D14*
X116943500Y-85344000D03*
X118768500Y-85344000D03*
D15*
X153035000Y-94816000D03*
X153035000Y-93091000D03*
D16*
X156930000Y-81215200D03*
X149056000Y-81215200D03*
D17*
X167132000Y-86891500D03*
X167132000Y-85066500D03*
X175133000Y-86915000D03*
X175133000Y-85090000D03*
D18*
X136572000Y-114620000D03*
X136572000Y-115570000D03*
X136572000Y-116520000D03*
X139272000Y-116520000D03*
X139272000Y-115570000D03*
X139272000Y-114620000D03*
D19*
X147193000Y-99757000D03*
X148463000Y-99757000D03*
X149733000Y-99757000D03*
X151003000Y-99757000D03*
X151003000Y-94807000D03*
X149733000Y-94807000D03*
X148463000Y-94807000D03*
X147193000Y-94807000D03*
D20*
X143397000Y-100203000D03*
X145147000Y-100203000D03*
D21*
X173101000Y-85028000D03*
X171831000Y-85028000D03*
X170561000Y-85028000D03*
X169291000Y-85028000D03*
X169291000Y-89978000D03*
X170561000Y-89978000D03*
X171831000Y-89978000D03*
X173101000Y-89978000D03*
D20*
X165509000Y-100203000D03*
X167259000Y-100203000D03*
D15*
X145161000Y-94842500D03*
X145161000Y-93117500D03*
D17*
X145161000Y-72691000D03*
X145161000Y-70866000D03*
D16*
X179028000Y-81413400D03*
X171154000Y-81413400D03*
D19*
X169291000Y-99757000D03*
X170561000Y-99757000D03*
X171831000Y-99757000D03*
X173101000Y-99757000D03*
X173101000Y-94807000D03*
X171831000Y-94807000D03*
X170561000Y-94807000D03*
X169291000Y-94807000D03*
D14*
X160885500Y-98171000D03*
X162710500Y-98171000D03*
D12*
X100203000Y-67183000D03*
D22*
X167282500Y-98171000D03*
X165457500Y-98171000D03*
D15*
X175133000Y-94842500D03*
X175133000Y-93117500D03*
D21*
X151003000Y-70869000D03*
X149733000Y-70869000D03*
X148463000Y-70869000D03*
X147193000Y-70869000D03*
X147193000Y-75819000D03*
X148463000Y-75819000D03*
X149733000Y-75819000D03*
X151003000Y-75819000D03*
D17*
X153035000Y-72818000D03*
X153035000Y-70993000D03*
D10*
X122412000Y-103564500D03*
X120687000Y-103564500D03*
D21*
X158877000Y-85028000D03*
X157607000Y-85028000D03*
X156337000Y-85028000D03*
X155067000Y-85028000D03*
X155067000Y-89978000D03*
X156337000Y-89978000D03*
X157607000Y-89978000D03*
X158877000Y-89978000D03*
D19*
X177165000Y-99757000D03*
X178435000Y-99757000D03*
X179705000Y-99757000D03*
X180975000Y-99757000D03*
X180975000Y-94807000D03*
X179705000Y-94807000D03*
X178435000Y-94807000D03*
X177165000Y-94807000D03*
D23*
X142367000Y-94855000D03*
X142367000Y-93105000D03*
D24*
X153035000Y-98072000D03*
X153035000Y-99822000D03*
D25*
X114867500Y-93023500D03*
X117407500Y-94293500D03*
X114867500Y-95563500D03*
X117407500Y-96833500D03*
X114867500Y-98103500D03*
X117407500Y-99373500D03*
X114867500Y-100643500D03*
X117407500Y-101913500D03*
D26*
X103437500Y-91143500D03*
X105227500Y-93683500D03*
X103437500Y-101253500D03*
X105227500Y-103793500D03*
D27*
X108517500Y-91753500D03*
X108517500Y-103183500D03*
D28*
X111567500Y-89593500D03*
X111567500Y-105343500D03*
D13*
X184771000Y-100203000D03*
X183021000Y-100203000D03*
D21*
X173101000Y-70996000D03*
X171831000Y-70996000D03*
X170561000Y-70996000D03*
X169291000Y-70996000D03*
X169291000Y-75946000D03*
X170561000Y-75946000D03*
X171831000Y-75946000D03*
X173101000Y-75946000D03*
D19*
X155067000Y-99757000D03*
X156337000Y-99757000D03*
X157607000Y-99757000D03*
X158877000Y-99757000D03*
X158877000Y-94807000D03*
X157607000Y-94807000D03*
X156337000Y-94807000D03*
X155067000Y-94807000D03*
D29*
X130683000Y-95504000D03*
X134733000Y-95504000D03*
D30*
X193634000Y-117166000D03*
X172634000Y-117166000D03*
D31*
X175634000Y-119126000D03*
D32*
X178634000Y-119126000D03*
X181634000Y-119126000D03*
X184634000Y-119126000D03*
X187634000Y-119126000D03*
X190634000Y-119126000D03*
D13*
X111506000Y-85344000D03*
X109756000Y-85344000D03*
D23*
X164592000Y-94855000D03*
X164592000Y-93105000D03*
D24*
X175133000Y-98058000D03*
X175133000Y-99808000D03*
D10*
X133577500Y-90678000D03*
X131852500Y-90678000D03*
D33*
X120523000Y-91658500D03*
D34*
X122523000Y-91658500D03*
X120523000Y-93658500D03*
X122523000Y-93658500D03*
X120523000Y-95658500D03*
X122523000Y-95658500D03*
D21*
X151003000Y-85028000D03*
X149733000Y-85028000D03*
X148463000Y-85028000D03*
X147193000Y-85028000D03*
X147193000Y-89978000D03*
X148463000Y-89978000D03*
X149733000Y-89978000D03*
X151003000Y-89978000D03*
D10*
X153897500Y-78613000D03*
X152172500Y-78613000D03*
X118718500Y-82042000D03*
X116993500Y-82042000D03*
D12*
X193757420Y-67100580D03*
D35*
X107950000Y-74958000D03*
D36*
X105410000Y-74958000D03*
X102870000Y-74958000D03*
D14*
X182960000Y-98171000D03*
X184785000Y-98171000D03*
D13*
X122541000Y-85344000D03*
X120791000Y-85344000D03*
D14*
X105805000Y-85344000D03*
X107630000Y-85344000D03*
D17*
X175133000Y-72921500D03*
X175133000Y-71096500D03*
X145034000Y-86891500D03*
X145034000Y-85066500D03*
X167259000Y-72794500D03*
X167259000Y-70969500D03*
D21*
X180975000Y-71058000D03*
X179705000Y-71058000D03*
X178435000Y-71058000D03*
X177165000Y-71058000D03*
X177165000Y-76008000D03*
X178435000Y-76008000D03*
X179705000Y-76008000D03*
X180975000Y-76008000D03*
D22*
X145208000Y-98171000D03*
X143383000Y-98171000D03*
D20*
X127893500Y-85344000D03*
X129643500Y-85344000D03*
D37*
X120650000Y-79375000D03*
X118110000Y-79375000D03*
X115570000Y-79375000D03*
D21*
X158877000Y-70931000D03*
X157607000Y-70931000D03*
X156337000Y-70931000D03*
X155067000Y-70931000D03*
X155067000Y-75881000D03*
X156337000Y-75881000D03*
X157607000Y-75881000D03*
X158877000Y-75881000D03*
D18*
X147400000Y-116520000D03*
X147400000Y-115570000D03*
X147400000Y-114620000D03*
X144700000Y-114620000D03*
X144700000Y-115570000D03*
X144700000Y-116520000D03*
D17*
X153035000Y-86915000D03*
X153035000Y-85090000D03*
D21*
X180975000Y-85028000D03*
X179705000Y-85028000D03*
X178435000Y-85028000D03*
X177165000Y-85028000D03*
X177165000Y-89978000D03*
X178435000Y-89978000D03*
X179705000Y-89978000D03*
X180975000Y-89978000D03*
D15*
X167259000Y-94842500D03*
X167259000Y-93117500D03*
D14*
X131779000Y-85344000D03*
X133604000Y-85344000D03*
D10*
X113993000Y-82042000D03*
X112268000Y-82042000D03*
D16*
X129455000Y-81159400D03*
X137329000Y-81159400D03*
M02*
