M48
; DRILL file {KiCad (6.0.7)} date Tue Jan  3 20:18:47 2023
; FORMAT={-:-/ absolute / metric / decimal}
; #@! TF.CreationDate,2023-01-03T20:18:47-06:00
; #@! TF.GenerationSoftware,Kicad,Pcbnew,(6.0.7)
; #@! TF.FileFunction,Plated,1,2,PTH
FMAT,2
METRIC
; #@! TA.AperFunction,Plated,PTH,ViaDrill
T1C0.400
; #@! TA.AperFunction,Plated,PTH,ViaDrill
T2C0.400
; #@! TA.AperFunction,Plated,PTH,ComponentDrill
T3C0.800
; #@! TA.AperFunction,Plated,PTH,ComponentDrill
T4C0.850
; #@! TA.AperFunction,Plated,PTH,ComponentDrill
T5C0.889
; #@! TA.AperFunction,Plated,PTH,ComponentDrill
T6C0.900
; #@! TA.AperFunction,Plated,PTH,ComponentDrill
T7C1.020
; #@! TA.AperFunction,Plated,PTH,ComponentDrill
T8C1.600
; #@! TA.AperFunction,Plated,PTH,ComponentDrill
T9C2.000
; #@! TA.AperFunction,Plated,PTH,ComponentDrill
T10C3.250
%
G90
G05
T1
X107.696Y-86.614
X109.855Y-127.762
X112.649Y-127.762
X112.649Y-130.683
X112.903Y-94.96
X113.538Y-86.614
X113.665Y-96.992
X116.84Y-86.614
X117.475Y-92.42
X120.015Y-101.854
X120.142Y-108.077
X121.285Y-74.93
X121.666Y-89.662
X122.555Y-74.93
X123.797Y-74.958
X125.222Y-103.759
X127.762Y-111.633
X129.032Y-120.396
X130.048Y-115.57
X130.048Y-117.221
X130.048Y-119.126
X130.302Y-103.759
X130.302Y-106.68
X134.366Y-113.03
X134.366Y-115.57
X134.366Y-117.221
X135.382Y-103.759
X135.382Y-106.68
X136.652Y-120.396
X136.652Y-122.936
X138.049Y-103.759
X140.97Y-114.554
X140.97Y-116.586
X141.351Y-91.694
X143.764Y-93.091
X143.891Y-91.821
X144.145Y-81.28
X144.272Y-83.439
X144.272Y-118.11
X144.272Y-120.396
X144.272Y-122.936
X144.78Y-113.157
X145.034Y-88.265
X145.161Y-75.819
X146.05Y-113.157
X147.193Y-73.279
X147.193Y-92.964
X147.193Y-97.282
X147.447Y-103.759
X148.463Y-73.279
X148.463Y-92.964
X149.479Y-113.157
X149.479Y-115.57
X149.479Y-117.475
X149.479Y-120.396
X149.479Y-122.936
X149.733Y-73.279
X149.733Y-101.6
X150.622Y-103.759
X150.988Y-97.282
X151.003Y-73.279
X151.003Y-92.964
X151.892Y-113.157
X151.892Y-115.57
X151.892Y-117.475
X151.892Y-120.396
X151.892Y-122.936
X152.181Y-82.804
X152.273Y-91.44
X153.035Y-75.819
X153.035Y-88.392
X153.162Y-111.506
X155.067Y-73.406
X155.067Y-92.837
X155.067Y-97.282
X155.448Y-103.759
X156.337Y-73.406
X156.337Y-92.964
X156.464Y-112.776
X156.464Y-115.316
X156.464Y-117.856
X156.464Y-120.396
X156.464Y-122.936
X157.607Y-73.406
X157.607Y-101.6
X158.496Y-103.759
X158.496Y-106.807
X158.877Y-73.406
X158.877Y-86.995
X158.877Y-92.964
X158.877Y-97.282
X161.798Y-106.807
X162.941Y-91.694
X164.084Y-98.171
X164.084Y-100.33
X165.862Y-81.407
X165.862Y-92.964
X165.989Y-91.694
X166.116Y-83.439
X167.132Y-88.392
X167.259Y-75.946
X168.656Y-112.776
X168.656Y-115.316
X168.656Y-117.856
X168.656Y-120.396
X168.656Y-122.936
X169.291Y-73.406
X169.291Y-92.964
X169.291Y-97.282
X169.291Y-103.759
X169.291Y-106.807
X170.561Y-73.406
X170.561Y-92.964
X170.815Y-114.046
X171.831Y-73.406
X171.831Y-101.6
X172.72Y-103.759
X172.72Y-106.807
X172.847Y-114.046
X173.101Y-73.406
X173.101Y-92.964
X173.101Y-97.282
X174.244Y-83.058
X174.371Y-91.44
X175.133Y-75.946
X175.133Y-88.392
X177.163Y-92.959
X177.165Y-73.533
X177.165Y-97.282
X177.546Y-103.759
X177.546Y-106.807
X178.435Y-73.533
X178.435Y-92.964
X179.705Y-73.533
X179.705Y-101.6
X179.832Y-122.936
X180.594Y-103.759
X180.975Y-73.533
X180.975Y-87.122
X180.975Y-92.964
X180.975Y-97.282
X183.134Y-122.936
X183.896Y-103.759
T2
X130.81Y-124.206
X144.653Y-106.807
X145.161Y-101.6
X147.955Y-106.807
X148.463Y-101.6
X155.829Y-107.823
X156.337Y-101.6
X160.401Y-107.823
X160.909Y-101.6
X166.878Y-104.648
X167.259Y-101.6
X170.18Y-104.648
X170.561Y-101.6
X178.054Y-105.791
X178.435Y-101.6
X182.626Y-105.791
X183.007Y-101.6
T3
X108.681Y-110.349
X108.681Y-125.59
X111.221Y-110.349
X111.221Y-125.59
X113.761Y-110.349
X113.761Y-125.59
X116.301Y-110.349
X116.301Y-125.59
X118.841Y-110.349
X118.841Y-125.59
X120.523Y-91.658
X120.523Y-93.658
X120.523Y-95.658
X121.381Y-110.349
X121.381Y-125.59
X122.523Y-91.658
X122.523Y-93.658
X122.523Y-95.658
X123.921Y-110.349
X123.921Y-125.59
X126.461Y-110.349
X126.461Y-125.59
X129.001Y-110.349
X129.001Y-125.59
X131.541Y-110.349
X131.541Y-125.59
X134.081Y-110.349
X134.081Y-125.59
X136.621Y-110.349
X136.621Y-125.59
X139.161Y-110.349
X139.161Y-125.59
X141.701Y-110.349
X141.701Y-125.59
X144.241Y-110.349
X144.241Y-125.59
X146.781Y-110.349
X146.781Y-125.59
X149.321Y-110.349
X149.321Y-125.59
X151.861Y-110.349
X151.861Y-125.59
X154.401Y-110.349
X154.401Y-125.59
X156.941Y-110.349
X156.941Y-125.59
X159.481Y-110.349
X159.481Y-125.59
X162.021Y-110.349
X162.021Y-125.59
X164.561Y-110.349
X164.561Y-125.59
X167.101Y-110.349
X167.101Y-125.59
T4
X102.87Y-74.958
X105.41Y-74.958
X107.95Y-74.958
T5
X115.57Y-79.375
X118.11Y-79.375
X120.65Y-79.375
T6
X114.867Y-93.023
X114.867Y-95.563
X114.867Y-98.103
X114.867Y-100.643
X117.407Y-94.293
X117.407Y-96.834
X117.407Y-99.373
X117.407Y-101.913
T7
X103.438Y-91.143
X103.438Y-101.254
X105.227Y-93.683
X105.227Y-103.793
X175.634Y-119.126
X178.634Y-119.126
X181.634Y-119.126
X184.634Y-119.126
X187.634Y-119.126
X190.634Y-119.126
T8
X111.567Y-89.593
X111.567Y-105.343
T10
X108.517Y-91.754
X108.517Y-103.183
T9
X130.505Y-81.159G85X128.405Y-81.159
G05
X138.379Y-81.159G85X136.279Y-81.159
G05
X150.106Y-81.215G85X148.006Y-81.215
G05
X157.98Y-81.215G85X155.88Y-81.215
G05
X172.204Y-81.413G85X170.104Y-81.413
G05
X180.078Y-81.413G85X177.978Y-81.413
G05
T0
M30
