G04 #@! TF.GenerationSoftware,KiCad,Pcbnew,(6.0.7)*
G04 #@! TF.CreationDate,2023-01-03T20:18:15-06:00*
G04 #@! TF.ProjectId,SignalStack_Board,5369676e-616c-4537-9461-636b5f426f61,rev?*
G04 #@! TF.SameCoordinates,Original*
G04 #@! TF.FileFunction,Soldermask,Bot*
G04 #@! TF.FilePolarity,Negative*
%FSLAX46Y46*%
G04 Gerber Fmt 4.6, Leading zero omitted, Abs format (unit mm)*
G04 Created by KiCad (PCBNEW (6.0.7)) date 2023-01-03 20:18:15*
%MOMM*%
%LPD*%
G01*
G04 APERTURE LIST*
%ADD10C,1.308000*%
%ADD11C,2.946400*%
%ADD12O,5.100000X3.000000*%
%ADD13C,1.100000*%
%ADD14C,1.400000*%
%ADD15C,4.000000*%
%ADD16C,2.000000*%
%ADD17C,1.270000*%
%ADD18R,1.530000X1.530000*%
%ADD19C,1.530000*%
%ADD20R,1.350000X1.350000*%
%ADD21O,1.350000X1.350000*%
%ADD22R,1.358000X1.358000*%
%ADD23C,1.358000*%
%ADD24C,1.524000*%
G04 APERTURE END LIST*
D10*
X111221000Y-125589500D03*
X113761000Y-125589500D03*
X116301000Y-125589500D03*
X118841000Y-125589500D03*
X144241000Y-125589500D03*
X113761000Y-110349500D03*
X121381000Y-125589500D03*
X123921000Y-125589500D03*
X126461000Y-125589500D03*
X129001000Y-125589500D03*
X131541000Y-125589500D03*
X134081000Y-125589500D03*
X136621000Y-125589500D03*
X139161000Y-125589500D03*
X141701000Y-125589500D03*
X141701000Y-110349500D03*
X139161000Y-110349500D03*
X136621000Y-110349500D03*
X134081000Y-110349500D03*
X131541000Y-110349500D03*
X129001000Y-110349500D03*
X126461000Y-110349500D03*
X123921000Y-110349500D03*
X121381000Y-110349500D03*
X118841000Y-110349500D03*
X116301000Y-110349500D03*
X146781000Y-125589500D03*
X149321000Y-125589500D03*
X151861000Y-125589500D03*
X154401000Y-125589500D03*
X156941000Y-125589500D03*
X159481000Y-125589500D03*
X162021000Y-125589500D03*
X164561000Y-125589500D03*
X167101000Y-125589500D03*
X167101000Y-110349500D03*
X164561000Y-110349500D03*
X162021000Y-110349500D03*
X159481000Y-110349500D03*
X156941000Y-110349500D03*
X154401000Y-110349500D03*
X151861000Y-110349500D03*
X149321000Y-110349500D03*
X146781000Y-110349500D03*
X108681000Y-125589500D03*
X144241000Y-110349500D03*
X111221000Y-110349500D03*
X108681000Y-110349500D03*
D11*
X100209220Y-135248764D03*
X193681220Y-135256620D03*
D12*
X156930000Y-81215200D03*
X149056000Y-81215200D03*
X179028000Y-81413400D03*
X171154000Y-81413400D03*
D11*
X100203000Y-67183000D03*
D13*
X114867500Y-93023500D03*
X117407500Y-94293500D03*
X114867500Y-95563500D03*
X117407500Y-96833500D03*
X114867500Y-98103500D03*
X117407500Y-99373500D03*
X114867500Y-100643500D03*
X117407500Y-101913500D03*
D14*
X103437500Y-91143500D03*
X105227500Y-93683500D03*
X103437500Y-101253500D03*
X105227500Y-103793500D03*
D15*
X108517500Y-91753500D03*
X108517500Y-103183500D03*
D16*
X111567500Y-89593500D03*
X111567500Y-105343500D03*
D17*
X193634000Y-117166000D03*
X172634000Y-117166000D03*
D18*
X175634000Y-119126000D03*
D19*
X178634000Y-119126000D03*
X181634000Y-119126000D03*
X184634000Y-119126000D03*
X187634000Y-119126000D03*
X190634000Y-119126000D03*
D20*
X120523000Y-91658500D03*
D21*
X122523000Y-91658500D03*
X120523000Y-93658500D03*
X122523000Y-93658500D03*
X120523000Y-95658500D03*
X122523000Y-95658500D03*
D11*
X193757420Y-67100580D03*
D22*
X107950000Y-74958000D03*
D23*
X105410000Y-74958000D03*
X102870000Y-74958000D03*
D24*
X120650000Y-79375000D03*
X118110000Y-79375000D03*
X115570000Y-79375000D03*
D12*
X129455000Y-81159400D03*
X137329000Y-81159400D03*
M02*
