G04 #@! TF.GenerationSoftware,KiCad,Pcbnew,(6.0.10)*
G04 #@! TF.CreationDate,2023-04-22T01:24:50-05:00*
G04 #@! TF.ProjectId,SignalStack_Board,5369676e-616c-4537-9461-636b5f426f61,rev?*
G04 #@! TF.SameCoordinates,Original*
G04 #@! TF.FileFunction,Legend,Bot*
G04 #@! TF.FilePolarity,Positive*
%FSLAX46Y46*%
G04 Gerber Fmt 4.6, Leading zero omitted, Abs format (unit mm)*
G04 Created by KiCad (PCBNEW (6.0.10)) date 2023-04-22 01:24:50*
%MOMM*%
%LPD*%
G01*
G04 APERTURE LIST*
%ADD10C,0.150000*%
%ADD11C,3.000000*%
%ADD12C,1.700000*%
%ADD13C,2.946400*%
%ADD14R,1.600000X1.600000*%
%ADD15C,1.600000*%
%ADD16C,1.524000*%
%ADD17R,1.358000X1.358000*%
%ADD18C,1.358000*%
%ADD19O,1.600000X1.600000*%
%ADD20O,5.100000X3.000000*%
G04 APERTURE END LIST*
D10*
X133684142Y-94024190D02*
X133731761Y-93976571D01*
X133779380Y-93833714D01*
X133779380Y-93738476D01*
X133731761Y-93595619D01*
X133636523Y-93500380D01*
X133541285Y-93452761D01*
X133350809Y-93405142D01*
X133207952Y-93405142D01*
X133017476Y-93452761D01*
X132922238Y-93500380D01*
X132827000Y-93595619D01*
X132779380Y-93738476D01*
X132779380Y-93833714D01*
X132827000Y-93976571D01*
X132874619Y-94024190D01*
X133779380Y-94595619D02*
X133731761Y-94500380D01*
X133684142Y-94452761D01*
X133588904Y-94405142D01*
X133303190Y-94405142D01*
X133207952Y-94452761D01*
X133160333Y-94500380D01*
X133112714Y-94595619D01*
X133112714Y-94738476D01*
X133160333Y-94833714D01*
X133207952Y-94881333D01*
X133303190Y-94928952D01*
X133588904Y-94928952D01*
X133684142Y-94881333D01*
X133731761Y-94833714D01*
X133779380Y-94738476D01*
X133779380Y-94595619D01*
X133112714Y-95357523D02*
X133779380Y-95357523D01*
X133207952Y-95357523D02*
X133160333Y-95405142D01*
X133112714Y-95500380D01*
X133112714Y-95643238D01*
X133160333Y-95738476D01*
X133255571Y-95786095D01*
X133779380Y-95786095D01*
X133112714Y-96262285D02*
X133779380Y-96262285D01*
X133207952Y-96262285D02*
X133160333Y-96309904D01*
X133112714Y-96405142D01*
X133112714Y-96548000D01*
X133160333Y-96643238D01*
X133255571Y-96690857D01*
X133779380Y-96690857D01*
X132874619Y-97119428D02*
X132827000Y-97167047D01*
X132779380Y-97262285D01*
X132779380Y-97500380D01*
X132827000Y-97595619D01*
X132874619Y-97643238D01*
X132969857Y-97690857D01*
X133065095Y-97690857D01*
X133207952Y-97643238D01*
X133779380Y-97071809D01*
X133779380Y-97690857D01*
X218774142Y-93535590D02*
X218821761Y-93487971D01*
X218869380Y-93345114D01*
X218869380Y-93249876D01*
X218821761Y-93107019D01*
X218726523Y-93011780D01*
X218631285Y-92964161D01*
X218440809Y-92916542D01*
X218297952Y-92916542D01*
X218107476Y-92964161D01*
X218012238Y-93011780D01*
X217917000Y-93107019D01*
X217869380Y-93249876D01*
X217869380Y-93345114D01*
X217917000Y-93487971D01*
X217964619Y-93535590D01*
X218869380Y-94107019D02*
X218821761Y-94011780D01*
X218774142Y-93964161D01*
X218678904Y-93916542D01*
X218393190Y-93916542D01*
X218297952Y-93964161D01*
X218250333Y-94011780D01*
X218202714Y-94107019D01*
X218202714Y-94249876D01*
X218250333Y-94345114D01*
X218297952Y-94392733D01*
X218393190Y-94440352D01*
X218678904Y-94440352D01*
X218774142Y-94392733D01*
X218821761Y-94345114D01*
X218869380Y-94249876D01*
X218869380Y-94107019D01*
X218202714Y-94868923D02*
X218869380Y-94868923D01*
X218297952Y-94868923D02*
X218250333Y-94916542D01*
X218202714Y-95011780D01*
X218202714Y-95154638D01*
X218250333Y-95249876D01*
X218345571Y-95297495D01*
X218869380Y-95297495D01*
X218202714Y-95773685D02*
X218869380Y-95773685D01*
X218297952Y-95773685D02*
X218250333Y-95821304D01*
X218202714Y-95916542D01*
X218202714Y-96059400D01*
X218250333Y-96154638D01*
X218345571Y-96202257D01*
X218869380Y-96202257D01*
X218869380Y-97202257D02*
X218869380Y-96630828D01*
X218869380Y-96916542D02*
X217869380Y-96916542D01*
X218012238Y-96821304D01*
X218107476Y-96726066D01*
X218155095Y-96630828D01*
X150448142Y-93855390D02*
X150495761Y-93807771D01*
X150543380Y-93664914D01*
X150543380Y-93569676D01*
X150495761Y-93426819D01*
X150400523Y-93331580D01*
X150305285Y-93283961D01*
X150114809Y-93236342D01*
X149971952Y-93236342D01*
X149781476Y-93283961D01*
X149686238Y-93331580D01*
X149591000Y-93426819D01*
X149543380Y-93569676D01*
X149543380Y-93664914D01*
X149591000Y-93807771D01*
X149638619Y-93855390D01*
X150543380Y-94426819D02*
X150495761Y-94331580D01*
X150448142Y-94283961D01*
X150352904Y-94236342D01*
X150067190Y-94236342D01*
X149971952Y-94283961D01*
X149924333Y-94331580D01*
X149876714Y-94426819D01*
X149876714Y-94569676D01*
X149924333Y-94664914D01*
X149971952Y-94712533D01*
X150067190Y-94760152D01*
X150352904Y-94760152D01*
X150448142Y-94712533D01*
X150495761Y-94664914D01*
X150543380Y-94569676D01*
X150543380Y-94426819D01*
X149876714Y-95188723D02*
X150543380Y-95188723D01*
X149971952Y-95188723D02*
X149924333Y-95236342D01*
X149876714Y-95331580D01*
X149876714Y-95474438D01*
X149924333Y-95569676D01*
X150019571Y-95617295D01*
X150543380Y-95617295D01*
X149876714Y-96093485D02*
X150543380Y-96093485D01*
X149971952Y-96093485D02*
X149924333Y-96141104D01*
X149876714Y-96236342D01*
X149876714Y-96379200D01*
X149924333Y-96474438D01*
X150019571Y-96522057D01*
X150543380Y-96522057D01*
X149543380Y-96903009D02*
X149543380Y-97522057D01*
X149924333Y-97188723D01*
X149924333Y-97331580D01*
X149971952Y-97426819D01*
X150019571Y-97474438D01*
X150114809Y-97522057D01*
X150352904Y-97522057D01*
X150448142Y-97474438D01*
X150495761Y-97426819D01*
X150543380Y-97331580D01*
X150543380Y-97045866D01*
X150495761Y-96950628D01*
X150448142Y-96903009D01*
X237490000Y-38354000D02*
X186690000Y-38354000D01*
X137160000Y-43180000D02*
X137160000Y-48260000D01*
X186690000Y-38354000D02*
X186690000Y-43434000D01*
X186690000Y-43434000D02*
X237490000Y-43434000D01*
X237490000Y-43434000D02*
X237490000Y-38354000D01*
X144526000Y-108014800D02*
X147802600Y-108014800D01*
X150114000Y-109157800D02*
X150114000Y-110377000D01*
X150114000Y-105728800D02*
X150114000Y-93435200D01*
X139954000Y-108014800D02*
X141097000Y-108014800D01*
X134366000Y-105703400D02*
X134366000Y-106897200D01*
X134366000Y-105728800D02*
X134366000Y-93435200D01*
X136677400Y-108014800D02*
X135509000Y-108014800D01*
X142265400Y-118047800D02*
X142265400Y-109157800D01*
X142240000Y-105728800D02*
X142240000Y-93435200D01*
X150114000Y-118047800D02*
X150114000Y-110300800D01*
X134366000Y-110300800D02*
X134366000Y-118047800D01*
X144526000Y-108014800D02*
X143383000Y-108014800D01*
X150114000Y-93435200D02*
X134366000Y-93435200D01*
X148971000Y-108014800D02*
X147802600Y-108014800D01*
X134366000Y-110326200D02*
X134366000Y-109157800D01*
X150114000Y-105754200D02*
X150114000Y-106846400D01*
X139954000Y-108014800D02*
X136652000Y-108014800D01*
X150114000Y-118073200D02*
X134366000Y-118073200D01*
X142240000Y-105728800D02*
X142240000Y-106871800D01*
X148971000Y-108014800D02*
G75*
G03*
X150114000Y-109157800I1143000J0D01*
G01*
X135483600Y-108014800D02*
G75*
G03*
X134366000Y-106897200I-1117598J2D01*
G01*
X134366000Y-109132400D02*
G75*
G03*
X135483600Y-108014800I2J1117598D01*
G01*
X150114000Y-106871800D02*
G75*
G03*
X148971000Y-108014800I0J-1143000D01*
G01*
X143383000Y-108014800D02*
G75*
G03*
X143383000Y-108014800I-1143000J0D01*
G01*
X227330000Y-105409000D02*
X227330000Y-106552000D01*
X234061000Y-107695000D02*
X232892600Y-107695000D01*
X235204000Y-117728000D02*
X235204000Y-109981000D01*
X235204000Y-105434400D02*
X235204000Y-106526600D01*
X225044000Y-107695000D02*
X221742000Y-107695000D01*
X225044000Y-107695000D02*
X226187000Y-107695000D01*
X235204000Y-105409000D02*
X235204000Y-93115400D01*
X219456000Y-105383600D02*
X219456000Y-106577400D01*
X219456000Y-109981000D02*
X219456000Y-117728000D01*
X235204000Y-108838000D02*
X235204000Y-110057200D01*
X219456000Y-105409000D02*
X219456000Y-93115400D01*
X235204000Y-93115400D02*
X219456000Y-93115400D01*
X227355400Y-117728000D02*
X227355400Y-108838000D01*
X227330000Y-105409000D02*
X227330000Y-93115400D01*
X229616000Y-107695000D02*
X228473000Y-107695000D01*
X235204000Y-117753400D02*
X219456000Y-117753400D01*
X229616000Y-107695000D02*
X232892600Y-107695000D01*
X221767400Y-107695000D02*
X220599000Y-107695000D01*
X219456000Y-110006400D02*
X219456000Y-108838000D01*
X219456000Y-108812600D02*
G75*
G03*
X220573600Y-107695000I2J1117598D01*
G01*
X235204000Y-106552000D02*
G75*
G03*
X234061000Y-107695000I0J-1143000D01*
G01*
X234061000Y-107695000D02*
G75*
G03*
X235204000Y-108838000I1143000J0D01*
G01*
X220573600Y-107695000D02*
G75*
G03*
X219456000Y-106577400I-1117598J2D01*
G01*
X228473000Y-107695000D02*
G75*
G03*
X228473000Y-107695000I-1143000J0D01*
G01*
X166878000Y-109157800D02*
X166878000Y-110377000D01*
X151130000Y-110326200D02*
X151130000Y-109157800D01*
X161290000Y-108014800D02*
X160147000Y-108014800D01*
X161290000Y-108014800D02*
X164566600Y-108014800D01*
X159004000Y-105728800D02*
X159004000Y-93435200D01*
X159004000Y-105728800D02*
X159004000Y-106871800D01*
X166878000Y-118073200D02*
X151130000Y-118073200D01*
X151130000Y-110300800D02*
X151130000Y-118047800D01*
X153441400Y-108014800D02*
X152273000Y-108014800D01*
X165735000Y-108014800D02*
X164566600Y-108014800D01*
X151130000Y-105703400D02*
X151130000Y-106897200D01*
X166878000Y-105754200D02*
X166878000Y-106846400D01*
X156718000Y-108014800D02*
X153416000Y-108014800D01*
X156718000Y-108014800D02*
X157861000Y-108014800D01*
X151130000Y-105728800D02*
X151130000Y-93435200D01*
X166878000Y-105728800D02*
X166878000Y-93435200D01*
X166878000Y-118047800D02*
X166878000Y-110300800D01*
X166878000Y-93435200D02*
X151130000Y-93435200D01*
X159029400Y-118047800D02*
X159029400Y-109157800D01*
X165735000Y-108014800D02*
G75*
G03*
X166878000Y-109157800I1143000J0D01*
G01*
X166878000Y-106871800D02*
G75*
G03*
X165735000Y-108014800I0J-1143000D01*
G01*
X151130000Y-109132400D02*
G75*
G03*
X152247600Y-108014800I2J1117598D01*
G01*
X152247600Y-108014800D02*
G75*
G03*
X151130000Y-106897200I-1117598J2D01*
G01*
X160147000Y-108014800D02*
G75*
G03*
X160147000Y-108014800I-1143000J0D01*
G01*
%LPC*%
D11*
X241090000Y-40894000D03*
X183090000Y-89894000D03*
X241090000Y-89894000D03*
X183090000Y-40894000D03*
D12*
X187960000Y-42164000D03*
X187960000Y-39624000D03*
X190500000Y-42164000D03*
X190500000Y-39624000D03*
X193040000Y-42164000D03*
X193040000Y-39624000D03*
X195580000Y-42164000D03*
X195580000Y-39624000D03*
X198120000Y-42164000D03*
X198120000Y-39624000D03*
X200660000Y-42164000D03*
X200660000Y-39624000D03*
X203200000Y-42164000D03*
X203200000Y-39624000D03*
X205740000Y-42164000D03*
X205740000Y-39624000D03*
X208280000Y-42164000D03*
X208280000Y-39624000D03*
X210820000Y-42164000D03*
X210820000Y-39624000D03*
X213360000Y-42164000D03*
X213360000Y-39624000D03*
X215900000Y-42164000D03*
X215900000Y-39624000D03*
X218440000Y-42164000D03*
X218440000Y-39624000D03*
X220980000Y-42164000D03*
X220980000Y-39624000D03*
X223520000Y-42164000D03*
X223520000Y-39624000D03*
X226060000Y-42164000D03*
X226060000Y-39624000D03*
X228600000Y-42164000D03*
X228600000Y-39624000D03*
X231140000Y-42164000D03*
X231140000Y-39624000D03*
X233680000Y-42164000D03*
X233680000Y-39624000D03*
X236220000Y-42164000D03*
X236220000Y-39624000D03*
D13*
X129738120Y-103941880D03*
D14*
X204470000Y-92710000D03*
D15*
X204470000Y-90210000D03*
D14*
X176022000Y-92876379D03*
D15*
X176022000Y-90376379D03*
D13*
X239831880Y-103941880D03*
D14*
X194310000Y-92710000D03*
D15*
X194310000Y-90210000D03*
D16*
X134620000Y-55626000D03*
X132080000Y-55626000D03*
X129540000Y-55626000D03*
D17*
X143990000Y-53340000D03*
D18*
X143990000Y-50800000D03*
X143990000Y-48260000D03*
D14*
X203200000Y-34290000D03*
D19*
X205740000Y-34290000D03*
X208280000Y-34290000D03*
X210820000Y-34290000D03*
X213360000Y-34290000D03*
X215900000Y-34290000D03*
X218440000Y-34290000D03*
X220980000Y-34290000D03*
X226060000Y-34290000D03*
X228600000Y-34290000D03*
X231140000Y-34290000D03*
X233680000Y-34290000D03*
X236220000Y-34290000D03*
X238760000Y-34290000D03*
X238760000Y-82550000D03*
X236220000Y-82550000D03*
X233680000Y-82550000D03*
X231140000Y-82550000D03*
X228600000Y-82550000D03*
X226060000Y-82550000D03*
X223520000Y-82550000D03*
X220980000Y-82550000D03*
X216920000Y-82550000D03*
X214380000Y-82550000D03*
X211840000Y-82550000D03*
X209300000Y-82550000D03*
X206760000Y-82550000D03*
X204220000Y-82550000D03*
X201680000Y-82550000D03*
X199140000Y-82550000D03*
X196600000Y-82550000D03*
X194060000Y-82550000D03*
D13*
X129738120Y-35758120D03*
D20*
X146177000Y-89853800D03*
X138303000Y-89853800D03*
X231267000Y-89534000D03*
X223393000Y-89534000D03*
X162941000Y-89853800D03*
X155067000Y-89853800D03*
M02*
