M48
; DRILL file {KiCad 7.0.5} date Wed Nov 15 14:25:51 2023
; FORMAT={-:-/ absolute / inch / decimal}
; #@! TF.CreationDate,2023-11-15T14:25:51-06:00
; #@! TF.GenerationSoftware,Kicad,Pcbnew,7.0.5
; #@! TF.FileFunction,Plated,1,2,PTH
FMAT,2
INCH
; #@! TA.AperFunction,Plated,PTH,ViaDrill
T1C0.0157
; #@! TA.AperFunction,Plated,PTH,ComponentDrill
T2C0.0276
; #@! TA.AperFunction,Plated,PTH,ComponentDrill
T3C0.0315
; #@! TA.AperFunction,Plated,PTH,ComponentDrill
T4C0.0350
; #@! TA.AperFunction,Plated,PTH,ComponentDrill
T5C0.0354
; #@! TA.AperFunction,Plated,PTH,ComponentDrill
T6C0.0402
; #@! TA.AperFunction,Plated,PTH,ComponentDrill
T7C0.0630
; #@! TA.AperFunction,Plated,PTH,ComponentDrill
T8C0.0787
; #@! TA.AperFunction,Plated,PTH,ComponentDrill
T9C0.1280
%
G90
G05
T1
X3.97Y-3.42
X3.97Y-3.6
X3.97Y-3.69
X3.97Y-3.86
X4.18Y-3.32
X4.45Y-2.73
X5.95Y-3.61
X6.01Y-3.67
X6.74Y-3.55
X7.48Y-3.53
X7.54Y-4.06
T2
X6.6906Y-3.0861
X6.6906Y-3.1648
X6.6906Y-3.2435
X6.7694Y-3.0861
X6.7694Y-3.1648
X6.7694Y-3.2435
T3
X4.98Y-2.74
X4.98Y-3.34
X5.08Y-2.74
X5.08Y-3.34
X5.18Y-2.74
X5.18Y-3.34
X5.28Y-2.74
X5.28Y-3.34
X5.38Y-2.74
X5.38Y-3.34
X5.48Y-2.74
X5.48Y-3.34
X5.58Y-2.74
X5.58Y-3.34
X5.68Y-2.74
X5.68Y-3.34
X5.78Y-2.74
X5.78Y-3.34
X5.88Y-2.74
X5.88Y-3.34
X5.98Y-2.74
X5.98Y-3.34
X6.08Y-2.74
X6.08Y-3.34
X6.18Y-2.74
X6.18Y-3.34
X6.28Y-2.74
X6.28Y-3.34
X6.38Y-2.74
X6.38Y-3.34
X6.48Y-2.74
X6.48Y-3.34
X6.58Y-2.74
X6.58Y-3.34
X6.68Y-2.74
X6.68Y-3.34
X6.78Y-2.74
X6.78Y-3.34
X6.88Y-2.74
X6.88Y-3.34
X6.98Y-2.74
X6.98Y-3.34
X7.08Y-2.74
X7.08Y-3.34
X7.18Y-2.74
X7.18Y-3.34
X7.28Y-2.74
X7.28Y-3.34
T4
X4.245Y-2.88
X4.245Y-2.98
X4.245Y-3.08
T5
X5.18Y-3.935
X5.28Y-3.935
X5.38Y-3.935
X5.73Y-3.935
X5.83Y-3.935
X5.93Y-3.935
X6.03Y-3.935
X6.13Y-3.935
X6.545Y-3.772
X6.595Y-3.672
X6.645Y-3.772
X6.695Y-3.672
X6.745Y-3.772
X6.795Y-3.672
X6.845Y-3.772
X6.895Y-3.672
T6
X6.471Y-4.222
X6.571Y-4.1516
X6.869Y-4.222
X6.969Y-4.1516
T7
X6.41Y-3.9019
X7.03Y-3.9019
T9
X6.495Y-4.022
X6.945Y-4.022
T8
G00X4.2842Y-3.4281
M15
G01X4.3668Y-3.4281
M16
G05
G00X4.2842Y-3.7381
M15
G01X4.3668Y-3.7381
M16
G05
G00X4.6842Y-3.4281
M15
G01X4.7668Y-3.4281
M16
G05
G00X4.6842Y-3.7381
M15
G01X4.7668Y-3.7381
M16
G05
T0
M30
