G04 #@! TF.GenerationSoftware,KiCad,Pcbnew,7.0.5*
G04 #@! TF.CreationDate,2023-11-15T14:25:37-06:00*
G04 #@! TF.ProjectId,RotatingSignalStack_board,526f7461-7469-46e6-9753-69676e616c53,rev?*
G04 #@! TF.SameCoordinates,Original*
G04 #@! TF.FileFunction,Soldermask,Bot*
G04 #@! TF.FilePolarity,Negative*
%FSLAX46Y46*%
G04 Gerber Fmt 4.6, Leading zero omitted, Abs format (unit mm)*
G04 Created by KiCad (PCBNEW 7.0.5) date 2023-11-15 14:25:37*
%MOMM*%
%LPD*%
G01*
G04 APERTURE LIST*
%ADD10C,2.946400*%
%ADD11C,1.100000*%
%ADD12C,1.400000*%
%ADD13C,4.000000*%
%ADD14C,2.000000*%
%ADD15O,5.100000X3.000000*%
%ADD16C,1.308000*%
%ADD17C,1.208000*%
%ADD18C,3.450000*%
%ADD19C,1.524000*%
G04 APERTURE END LIST*
D10*
G04 #@! TO.C,V3*
X101092000Y-71120000D03*
G04 #@! TD*
G04 #@! TO.C,V1*
X195072000Y-109220000D03*
G04 #@! TD*
D11*
G04 #@! TO.C,J1*
X166243000Y-95809500D03*
X167513000Y-93269500D03*
X168783000Y-95809500D03*
X170053000Y-93269500D03*
X171323000Y-95809500D03*
X172593000Y-93269500D03*
X173863000Y-95809500D03*
X175133000Y-93269500D03*
D12*
X164363000Y-107239500D03*
X166903000Y-105449500D03*
X174473000Y-107239500D03*
X177013000Y-105449500D03*
D13*
X164973000Y-102159500D03*
X176403000Y-102159500D03*
D14*
X162813000Y-99109500D03*
X178563000Y-99109500D03*
G04 #@! TD*
D15*
G04 #@! TO.C,Conn2*
X120027700Y-87072500D03*
X120027700Y-94946500D03*
G04 #@! TD*
D10*
G04 #@! TO.C,V4*
X101009580Y-109302420D03*
G04 #@! TD*
D16*
G04 #@! TO.C,U2*
X182372000Y-69596000D03*
X179832000Y-69596000D03*
X177292000Y-69596000D03*
X174752000Y-69596000D03*
X149352000Y-69596000D03*
X179832000Y-84836000D03*
X172212000Y-69596000D03*
X169672000Y-69596000D03*
X167132000Y-69596000D03*
X164592000Y-69596000D03*
X162052000Y-69596000D03*
X159512000Y-69596000D03*
X156972000Y-69596000D03*
X154432000Y-69596000D03*
X151892000Y-69596000D03*
X151892000Y-84836000D03*
X154432000Y-84836000D03*
X156972000Y-84836000D03*
X159512000Y-84836000D03*
X162052000Y-84836000D03*
X164592000Y-84836000D03*
X167132000Y-84836000D03*
X169672000Y-84836000D03*
X172212000Y-84836000D03*
X174752000Y-84836000D03*
X177292000Y-84836000D03*
X146812000Y-69596000D03*
X144272000Y-69596000D03*
X141732000Y-69596000D03*
X139192000Y-69596000D03*
X136652000Y-69596000D03*
X134112000Y-69596000D03*
X131572000Y-69596000D03*
X129032000Y-69596000D03*
X126492000Y-69596000D03*
X126492000Y-84836000D03*
X129032000Y-84836000D03*
X131572000Y-84836000D03*
X134112000Y-84836000D03*
X136652000Y-84836000D03*
X139192000Y-84836000D03*
X141732000Y-84836000D03*
X144272000Y-84836000D03*
X146812000Y-84836000D03*
X184912000Y-69596000D03*
X149352000Y-84836000D03*
X182372000Y-84836000D03*
D17*
X169942000Y-80386000D03*
X171942000Y-80386000D03*
X171942000Y-82386000D03*
X169942000Y-82386000D03*
X169942000Y-78386000D03*
X171942000Y-78386000D03*
D16*
X184912000Y-84836000D03*
G04 #@! TD*
D18*
G04 #@! TO.C,Conn4*
X137922000Y-108585000D03*
X130302000Y-108585000D03*
D19*
X136652000Y-99949000D03*
X134112000Y-99949000D03*
X131572000Y-99949000D03*
G04 #@! TD*
D18*
G04 #@! TO.C,Conn3*
X156972000Y-108585000D03*
X144272000Y-108585000D03*
D19*
X155702000Y-99949000D03*
X153162000Y-99949000D03*
X150622000Y-99949000D03*
X148082000Y-99949000D03*
X145542000Y-99949000D03*
G04 #@! TD*
D15*
G04 #@! TO.C,Conn1*
X109867700Y-87072500D03*
X109867700Y-94946500D03*
G04 #@! TD*
D19*
G04 #@! TO.C,U1*
X107823000Y-78232000D03*
X107823000Y-75692000D03*
X107823000Y-73152000D03*
G04 #@! TD*
D10*
G04 #@! TO.C,V2*
X195072000Y-71120000D03*
G04 #@! TD*
M02*
