G04 #@! TF.GenerationSoftware,KiCad,Pcbnew,(6.0.7)*
G04 #@! TF.CreationDate,2023-03-21T01:18:23-05:00*
G04 #@! TF.ProjectId,SignalStack_Board,5369676e-616c-4537-9461-636b5f426f61,rev?*
G04 #@! TF.SameCoordinates,Original*
G04 #@! TF.FileFunction,Soldermask,Bot*
G04 #@! TF.FilePolarity,Negative*
%FSLAX46Y46*%
G04 Gerber Fmt 4.6, Leading zero omitted, Abs format (unit mm)*
G04 Created by KiCad (PCBNEW (6.0.7)) date 2023-03-21 01:18:23*
%MOMM*%
%LPD*%
G01*
G04 APERTURE LIST*
G04 Aperture macros list*
%AMRoundRect*
0 Rectangle with rounded corners*
0 $1 Rounding radius*
0 $2 $3 $4 $5 $6 $7 $8 $9 X,Y pos of 4 corners*
0 Add a 4 corners polygon primitive as box body*
4,1,4,$2,$3,$4,$5,$6,$7,$8,$9,$2,$3,0*
0 Add four circle primitives for the rounded corners*
1,1,$1+$1,$2,$3*
1,1,$1+$1,$4,$5*
1,1,$1+$1,$6,$7*
1,1,$1+$1,$8,$9*
0 Add four rect primitives between the rounded corners*
20,1,$1+$1,$2,$3,$4,$5,0*
20,1,$1+$1,$4,$5,$6,$7,0*
20,1,$1+$1,$6,$7,$8,$9,0*
20,1,$1+$1,$8,$9,$2,$3,0*%
G04 Aperture macros list end*
%ADD10RoundRect,0.250000X0.620000X0.620000X-0.620000X0.620000X-0.620000X-0.620000X0.620000X-0.620000X0*%
%ADD11C,1.740000*%
%ADD12C,2.946400*%
%ADD13C,1.100000*%
%ADD14C,1.400000*%
%ADD15C,4.000000*%
%ADD16C,2.000000*%
%ADD17C,1.308000*%
%ADD18C,1.208000*%
%ADD19R,1.358000X1.358000*%
%ADD20C,1.358000*%
%ADD21C,1.524000*%
%ADD22O,5.100000X3.000000*%
%ADD23O,3.000000X5.100000*%
G04 APERTURE END LIST*
D10*
X136906000Y-63488000D03*
D11*
X134366000Y-63488000D03*
X131826000Y-63488000D03*
X129286000Y-63488000D03*
X126746000Y-63488000D03*
X124206000Y-63488000D03*
D12*
X116414423Y-62058423D03*
D13*
X138303000Y-120350000D03*
X139573000Y-117810000D03*
X140843000Y-120350000D03*
X142113000Y-117810000D03*
X143383000Y-120350000D03*
X144653000Y-117810000D03*
X145923000Y-120350000D03*
X147193000Y-117810000D03*
D14*
X136423000Y-131780000D03*
X138963000Y-129990000D03*
X146533000Y-131780000D03*
X149073000Y-129990000D03*
D15*
X137033000Y-126700000D03*
X148463000Y-126700000D03*
D16*
X150623000Y-123650000D03*
X134873000Y-123650000D03*
D12*
X116414420Y-134239000D03*
D17*
X131572000Y-124714000D03*
X131572000Y-122174000D03*
X131572000Y-119634000D03*
X131572000Y-117094000D03*
X131572000Y-91694000D03*
X116332000Y-122174000D03*
X131572000Y-114554000D03*
X131572000Y-112014000D03*
X131572000Y-109474000D03*
X131572000Y-106934000D03*
X131572000Y-104394000D03*
X131572000Y-101854000D03*
X131572000Y-99314000D03*
X131572000Y-96774000D03*
X131572000Y-94234000D03*
X116332000Y-94234000D03*
X116332000Y-96774000D03*
X116332000Y-99314000D03*
X116332000Y-101854000D03*
X116332000Y-104394000D03*
X116332000Y-106934000D03*
X116332000Y-109474000D03*
X116332000Y-112014000D03*
X116332000Y-114554000D03*
X116332000Y-117094000D03*
X116332000Y-119634000D03*
X131572000Y-89154000D03*
X131572000Y-86614000D03*
X131572000Y-84074000D03*
X131572000Y-81534000D03*
X131572000Y-78994000D03*
X131572000Y-76454000D03*
X131572000Y-73914000D03*
X131572000Y-71374000D03*
X131572000Y-68834000D03*
X116332000Y-68834000D03*
X116332000Y-71374000D03*
X116332000Y-73914000D03*
X116332000Y-76454000D03*
X116332000Y-78994000D03*
X116332000Y-81534000D03*
X116332000Y-84074000D03*
X116332000Y-86614000D03*
X116332000Y-89154000D03*
X131572000Y-127254000D03*
X116332000Y-91694000D03*
X116332000Y-124714000D03*
D18*
X120782000Y-112284000D03*
X120782000Y-114284000D03*
X118782000Y-114284000D03*
X118782000Y-112284000D03*
X122782000Y-112284000D03*
X122782000Y-114284000D03*
D17*
X116332000Y-127254000D03*
D19*
X139799000Y-108526500D03*
D20*
X139799000Y-105986500D03*
X139799000Y-103446500D03*
D12*
X177971580Y-62058420D03*
X177971580Y-134283580D03*
D21*
X172974000Y-102235000D03*
X175514000Y-102235000D03*
X178054000Y-102235000D03*
D22*
X168783000Y-120013100D03*
X160909000Y-120013100D03*
D23*
X163894800Y-88392000D03*
X163894800Y-96266000D03*
X163894800Y-71628000D03*
X163894800Y-79502000D03*
M02*
