G04 #@! TF.GenerationSoftware,KiCad,Pcbnew,(6.0.7)*
G04 #@! TF.CreationDate,2023-03-21T01:18:23-05:00*
G04 #@! TF.ProjectId,SignalStack_Board,5369676e-616c-4537-9461-636b5f426f61,rev?*
G04 #@! TF.SameCoordinates,Original*
G04 #@! TF.FileFunction,Soldermask,Top*
G04 #@! TF.FilePolarity,Negative*
%FSLAX46Y46*%
G04 Gerber Fmt 4.6, Leading zero omitted, Abs format (unit mm)*
G04 Created by KiCad (PCBNEW (6.0.7)) date 2023-03-21 01:18:23*
%MOMM*%
%LPD*%
G01*
G04 APERTURE LIST*
G04 Aperture macros list*
%AMRoundRect*
0 Rectangle with rounded corners*
0 $1 Rounding radius*
0 $2 $3 $4 $5 $6 $7 $8 $9 X,Y pos of 4 corners*
0 Add a 4 corners polygon primitive as box body*
4,1,4,$2,$3,$4,$5,$6,$7,$8,$9,$2,$3,0*
0 Add four circle primitives for the rounded corners*
1,1,$1+$1,$2,$3*
1,1,$1+$1,$4,$5*
1,1,$1+$1,$6,$7*
1,1,$1+$1,$8,$9*
0 Add four rect primitives between the rounded corners*
20,1,$1+$1,$2,$3,$4,$5,0*
20,1,$1+$1,$4,$5,$6,$7,0*
20,1,$1+$1,$6,$7,$8,$9,0*
20,1,$1+$1,$8,$9,$2,$3,0*%
G04 Aperture macros list end*
%ADD10RoundRect,0.237500X0.287500X0.237500X-0.287500X0.237500X-0.287500X-0.237500X0.287500X-0.237500X0*%
%ADD11RoundRect,0.237500X-0.300000X-0.237500X0.300000X-0.237500X0.300000X0.237500X-0.300000X0.237500X0*%
%ADD12RoundRect,0.237500X-0.250000X-0.237500X0.250000X-0.237500X0.250000X0.237500X-0.250000X0.237500X0*%
%ADD13RoundRect,0.237500X0.300000X0.237500X-0.300000X0.237500X-0.300000X-0.237500X0.300000X-0.237500X0*%
%ADD14RoundRect,0.250000X0.620000X0.620000X-0.620000X0.620000X-0.620000X-0.620000X0.620000X-0.620000X0*%
%ADD15C,1.740000*%
%ADD16RoundRect,0.237500X0.250000X0.237500X-0.250000X0.237500X-0.250000X-0.237500X0.250000X-0.237500X0*%
%ADD17R,1.600000X1.400000*%
%ADD18RoundRect,0.150000X-0.825000X-0.150000X0.825000X-0.150000X0.825000X0.150000X-0.825000X0.150000X0*%
%ADD19C,2.946400*%
%ADD20C,1.100000*%
%ADD21C,1.400000*%
%ADD22C,4.000000*%
%ADD23C,2.000000*%
%ADD24R,1.560000X0.650000*%
%ADD25R,1.800000X2.400000*%
%ADD26C,1.308000*%
%ADD27C,1.208000*%
%ADD28R,1.358000X1.358000*%
%ADD29C,1.358000*%
%ADD30RoundRect,0.150000X0.150000X-0.512500X0.150000X0.512500X-0.150000X0.512500X-0.150000X-0.512500X0*%
%ADD31RoundRect,0.237500X-0.287500X-0.237500X0.287500X-0.237500X0.287500X0.237500X-0.287500X0.237500X0*%
%ADD32R,2.200000X1.200000*%
%ADD33R,6.400000X5.800000*%
%ADD34RoundRect,0.237500X0.237500X-0.250000X0.237500X0.250000X-0.237500X0.250000X-0.237500X-0.250000X0*%
%ADD35C,1.524000*%
%ADD36O,5.100000X3.000000*%
%ADD37O,3.000000X5.100000*%
G04 APERTURE END LIST*
D10*
X144385000Y-84201000D03*
X142635000Y-84201000D03*
D11*
X150831300Y-77216000D03*
X152556300Y-77216000D03*
D12*
X150589000Y-91821000D03*
X152414000Y-91821000D03*
D11*
X150662500Y-86233000D03*
X152387500Y-86233000D03*
D10*
X143011500Y-60833000D03*
X141261500Y-60833000D03*
D12*
X150612500Y-90043000D03*
X152437500Y-90043000D03*
X150612500Y-99822000D03*
X152437500Y-99822000D03*
D13*
X155421500Y-115189000D03*
X153696500Y-115189000D03*
D10*
X144567800Y-67437000D03*
X142817800Y-67437000D03*
D12*
X147781000Y-101877500D03*
X149606000Y-101877500D03*
D14*
X136906000Y-63488000D03*
D15*
X134366000Y-63488000D03*
X131826000Y-63488000D03*
X129286000Y-63488000D03*
X126746000Y-63488000D03*
X124206000Y-63488000D03*
D16*
X156765000Y-62827500D03*
X154940000Y-62827500D03*
D17*
X159110500Y-59803500D03*
X166310500Y-59803500D03*
X166310500Y-62803500D03*
X159110500Y-62803500D03*
D12*
X150804800Y-73152000D03*
X152629800Y-73152000D03*
D18*
X154963200Y-86233000D03*
X154963200Y-87503000D03*
X154963200Y-88773000D03*
X154963200Y-90043000D03*
X159913200Y-90043000D03*
X159913200Y-88773000D03*
X159913200Y-87503000D03*
X159913200Y-86233000D03*
X155132000Y-77216000D03*
X155132000Y-78486000D03*
X155132000Y-79756000D03*
X155132000Y-81026000D03*
X160082000Y-81026000D03*
X160082000Y-79756000D03*
X160082000Y-78486000D03*
X160082000Y-77216000D03*
X169441200Y-86233000D03*
X169441200Y-87503000D03*
X169441200Y-88773000D03*
X169441200Y-90043000D03*
X174391200Y-90043000D03*
X174391200Y-88773000D03*
X174391200Y-87503000D03*
X174391200Y-86233000D03*
X143249800Y-77216000D03*
X143249800Y-78486000D03*
X143249800Y-79756000D03*
X143249800Y-81026000D03*
X148199800Y-81026000D03*
X148199800Y-79756000D03*
X148199800Y-78486000D03*
X148199800Y-77216000D03*
D11*
X148489500Y-115062000D03*
X150214500Y-115062000D03*
D19*
X116414423Y-62058423D03*
D16*
X143049000Y-62865000D03*
X141224000Y-62865000D03*
D12*
X150781300Y-81026000D03*
X152606300Y-81026000D03*
D17*
X152594500Y-59841000D03*
X145394500Y-59841000D03*
X152594500Y-62841000D03*
X145394500Y-62841000D03*
D12*
X134989500Y-95097250D03*
X136814500Y-95097250D03*
D11*
X163912300Y-75438000D03*
X165637300Y-75438000D03*
D20*
X138303000Y-120350000D03*
X139573000Y-117810000D03*
X140843000Y-120350000D03*
X142113000Y-117810000D03*
X143383000Y-120350000D03*
X144653000Y-117810000D03*
X145923000Y-120350000D03*
X147193000Y-117810000D03*
D21*
X136423000Y-131780000D03*
X138963000Y-129990000D03*
X146533000Y-131780000D03*
X149073000Y-129990000D03*
D22*
X137033000Y-126700000D03*
X148463000Y-126700000D03*
D23*
X150623000Y-123650000D03*
X134873000Y-123650000D03*
D11*
X150831300Y-69342000D03*
X152556300Y-69342000D03*
D24*
X135210500Y-89093000D03*
X135210500Y-90043000D03*
X135210500Y-90993000D03*
X137910500Y-90993000D03*
X137910500Y-90043000D03*
X137910500Y-89093000D03*
D13*
X175868500Y-124460000D03*
X174143500Y-124460000D03*
D12*
X134714000Y-78232000D03*
X136539000Y-78232000D03*
D18*
X169610000Y-69342000D03*
X169610000Y-70612000D03*
X169610000Y-71882000D03*
X169610000Y-73152000D03*
X174560000Y-73152000D03*
X174560000Y-71882000D03*
X174560000Y-70612000D03*
X174560000Y-69342000D03*
D16*
X149606000Y-104671500D03*
X147781000Y-104671500D03*
D12*
X150612500Y-97917000D03*
X152437500Y-97917000D03*
D19*
X116414420Y-134239000D03*
D25*
X152527000Y-120142000D03*
X156577000Y-120142000D03*
D24*
X134794000Y-72202000D03*
X134794000Y-73152000D03*
X134794000Y-74102000D03*
X137494000Y-74102000D03*
X137494000Y-73152000D03*
X137494000Y-72202000D03*
D26*
X131572000Y-124714000D03*
X131572000Y-122174000D03*
X131572000Y-119634000D03*
X131572000Y-117094000D03*
X131572000Y-91694000D03*
X116332000Y-122174000D03*
X131572000Y-114554000D03*
X131572000Y-112014000D03*
X131572000Y-109474000D03*
X131572000Y-106934000D03*
X131572000Y-104394000D03*
X131572000Y-101854000D03*
X131572000Y-99314000D03*
X131572000Y-96774000D03*
X131572000Y-94234000D03*
X116332000Y-94234000D03*
X116332000Y-96774000D03*
X116332000Y-99314000D03*
X116332000Y-101854000D03*
X116332000Y-104394000D03*
X116332000Y-106934000D03*
X116332000Y-109474000D03*
X116332000Y-112014000D03*
X116332000Y-114554000D03*
X116332000Y-117094000D03*
X116332000Y-119634000D03*
X131572000Y-89154000D03*
X131572000Y-86614000D03*
X131572000Y-84074000D03*
X131572000Y-81534000D03*
X131572000Y-78994000D03*
X131572000Y-76454000D03*
X131572000Y-73914000D03*
X131572000Y-71374000D03*
X131572000Y-68834000D03*
X116332000Y-68834000D03*
X116332000Y-71374000D03*
X116332000Y-73914000D03*
X116332000Y-76454000D03*
X116332000Y-78994000D03*
X116332000Y-81534000D03*
X116332000Y-84074000D03*
X116332000Y-86614000D03*
X116332000Y-89154000D03*
X131572000Y-127254000D03*
X116332000Y-91694000D03*
X116332000Y-124714000D03*
D27*
X120782000Y-112284000D03*
X120782000Y-114284000D03*
X118782000Y-114284000D03*
X118782000Y-112284000D03*
X122782000Y-112284000D03*
X122782000Y-114284000D03*
D26*
X116332000Y-127254000D03*
D18*
X143249800Y-69342000D03*
X143249800Y-70612000D03*
X143249800Y-71882000D03*
X143249800Y-73152000D03*
X148199800Y-73152000D03*
X148199800Y-71882000D03*
X148199800Y-70612000D03*
X148199800Y-69342000D03*
D11*
X150662500Y-94107000D03*
X152387500Y-94107000D03*
D12*
X150781300Y-74930000D03*
X152606300Y-74930000D03*
D13*
X167867500Y-103632000D03*
X166142500Y-103632000D03*
X155421500Y-109601000D03*
X153696500Y-109601000D03*
D28*
X139799000Y-108526500D03*
D29*
X139799000Y-105986500D03*
X139799000Y-103446500D03*
D13*
X155421500Y-112395000D03*
X153696500Y-112395000D03*
D11*
X163743500Y-92329000D03*
X165468500Y-92329000D03*
D10*
X144385000Y-92075000D03*
X142635000Y-92075000D03*
D18*
X169610000Y-77216000D03*
X169610000Y-78486000D03*
X169610000Y-79756000D03*
X169610000Y-81026000D03*
X174560000Y-81026000D03*
X174560000Y-79756000D03*
X174560000Y-78486000D03*
X174560000Y-77216000D03*
D16*
X149606000Y-107465500D03*
X147781000Y-107465500D03*
D12*
X120499500Y-83566000D03*
X122324500Y-83566000D03*
D19*
X177971580Y-62058420D03*
D30*
X176657000Y-119004500D03*
X175707000Y-121279500D03*
X177607000Y-121279500D03*
D10*
X136763000Y-93065250D03*
X135013000Y-93065250D03*
D31*
X143895500Y-107465500D03*
X145645500Y-107465500D03*
D12*
X134596500Y-67564000D03*
X136421500Y-67564000D03*
D18*
X154963200Y-94107000D03*
X154963200Y-95377000D03*
X154963200Y-96647000D03*
X154963200Y-97917000D03*
X159913200Y-97917000D03*
X159913200Y-96647000D03*
X159913200Y-95377000D03*
X159913200Y-94107000D03*
X143081000Y-94107000D03*
X143081000Y-95377000D03*
X143081000Y-96647000D03*
X143081000Y-97917000D03*
X148031000Y-97917000D03*
X148031000Y-96647000D03*
X148031000Y-95377000D03*
X148031000Y-94107000D03*
D12*
X134900000Y-84201000D03*
X136725000Y-84201000D03*
D31*
X144008500Y-104671500D03*
X145758500Y-104671500D03*
D10*
X136673500Y-86233000D03*
X134923500Y-86233000D03*
D12*
X120499500Y-86614000D03*
X122324500Y-86614000D03*
X150804800Y-83185000D03*
X152629800Y-83185000D03*
D10*
X136384000Y-69469000D03*
X134634000Y-69469000D03*
D32*
X168582000Y-114547000D03*
D33*
X162282000Y-112267000D03*
D32*
X168582000Y-112267000D03*
X168582000Y-109987000D03*
D10*
X136511000Y-76200000D03*
X134761000Y-76200000D03*
D18*
X143081000Y-86233000D03*
X143081000Y-87503000D03*
X143081000Y-88773000D03*
X143081000Y-90043000D03*
X148031000Y-90043000D03*
X148031000Y-88773000D03*
X148031000Y-87503000D03*
X148031000Y-86233000D03*
D10*
X156727500Y-60795500D03*
X154977500Y-60795500D03*
X144567800Y-75184000D03*
X142817800Y-75184000D03*
D19*
X177971580Y-134283580D03*
D31*
X144008500Y-101877500D03*
X145758500Y-101877500D03*
D34*
X173101000Y-120673500D03*
X173101000Y-118848500D03*
D18*
X169441200Y-94107000D03*
X169441200Y-95377000D03*
X169441200Y-96647000D03*
X169441200Y-97917000D03*
X174391200Y-97917000D03*
X174391200Y-96647000D03*
X174391200Y-95377000D03*
X174391200Y-94107000D03*
D35*
X172974000Y-102235000D03*
X175514000Y-102235000D03*
X178054000Y-102235000D03*
D18*
X155132000Y-69342000D03*
X155132000Y-70612000D03*
X155132000Y-71882000D03*
X155132000Y-73152000D03*
X160082000Y-73152000D03*
X160082000Y-71882000D03*
X160082000Y-70612000D03*
X160082000Y-69342000D03*
D36*
X168783000Y-120013100D03*
X160909000Y-120013100D03*
D37*
X163894800Y-88392000D03*
X163894800Y-96266000D03*
X163894800Y-71628000D03*
X163894800Y-79502000D03*
M02*
