M48
; DRILL file {KiCad (6.0.7)} date Tue Mar 21 01:18:28 2023
; FORMAT={-:-/ absolute / metric / decimal}
; #@! TF.CreationDate,2023-03-21T01:18:28-05:00
; #@! TF.GenerationSoftware,Kicad,Pcbnew,(6.0.7)
; #@! TF.FileFunction,Plated,1,2,PTH
FMAT,2
METRIC
; #@! TA.AperFunction,Plated,PTH,ViaDrill
T1C0.400
; #@! TA.AperFunction,Plated,PTH,ComponentDrill
T2C0.700
; #@! TA.AperFunction,Plated,PTH,ComponentDrill
T3C0.800
; #@! TA.AperFunction,Plated,PTH,ComponentDrill
T4C0.850
; #@! TA.AperFunction,Plated,PTH,ComponentDrill
T5C0.889
; #@! TA.AperFunction,Plated,PTH,ComponentDrill
T6C0.900
; #@! TA.AperFunction,Plated,PTH,ComponentDrill
T7C1.020
; #@! TA.AperFunction,Plated,PTH,ComponentDrill
T8C1.090
; #@! TA.AperFunction,Plated,PTH,ComponentDrill
T9C1.600
; #@! TA.AperFunction,Plated,PTH,ComponentDrill
T10C2.000
; #@! TA.AperFunction,Plated,PTH,ComponentDrill
T11C3.250
%
G90
G05
T1
X125.476Y-82.042
X125.476Y-85.09
X128.219Y-81.534
X130.302Y-85.852
X134.493Y-70.739
X134.493Y-87.63
X134.493Y-135.89
X137.795Y-113.411
X138.049Y-92.456
X138.684Y-81.407
X138.938Y-96.139
X139.065Y-78.232
X139.081Y-74.509
X139.446Y-90.043
X139.954Y-72.39
X141.224Y-69.977
X141.224Y-75.692
X141.224Y-84.963
X141.224Y-86.868
X141.224Y-92.583
X141.224Y-94.488
X141.23Y-77.597
X144.272Y-61.468
X145.034Y-90.17
X145.556Y-87.503
X145.556Y-95.377
X145.556Y-97.917
X145.725Y-70.739
X145.725Y-73.152
X145.725Y-81.026
X145.852Y-78.486
X146.477Y-92.932
X146.572Y-85.09
X146.741Y-76.073
X146.804Y-68.263
X148.209Y-103.378
X148.858Y-99.314
X148.985Y-91.44
X149.281Y-82.423
X149.408Y-74.422
X150.001Y-88.138
X150.17Y-71.374
X150.17Y-79.121
X150.191Y-96.329
X150.876Y-110.109
X157.494Y-86.233
X157.494Y-87.503
X157.494Y-88.773
X157.494Y-90.043
X157.494Y-94.107
X157.494Y-95.377
X157.494Y-96.647
X157.494Y-97.917
X157.663Y-69.342
X157.663Y-70.612
X157.663Y-71.882
X157.663Y-73.152
X157.663Y-77.216
X157.663Y-78.486
X157.663Y-79.756
X157.663Y-81.026
X158.115Y-61.468
X160.161Y-92.456
X160.203Y-75.565
X168.797Y-92.456
X168.966Y-75.565
T2
X118.782Y-112.284
X118.782Y-114.284
X120.782Y-112.284
X120.782Y-114.284
X122.782Y-112.284
X122.782Y-114.284
T3
X116.332Y-68.834
X116.332Y-71.374
X116.332Y-73.914
X116.332Y-76.454
X116.332Y-78.994
X116.332Y-81.534
X116.332Y-84.074
X116.332Y-86.614
X116.332Y-89.154
X116.332Y-91.694
X116.332Y-94.234
X116.332Y-96.774
X116.332Y-99.314
X116.332Y-101.854
X116.332Y-104.394
X116.332Y-106.934
X116.332Y-109.474
X116.332Y-112.014
X116.332Y-114.554
X116.332Y-117.094
X116.332Y-119.634
X116.332Y-122.174
X116.332Y-124.714
X116.332Y-127.254
X131.572Y-68.834
X131.572Y-71.374
X131.572Y-73.914
X131.572Y-76.454
X131.572Y-78.994
X131.572Y-81.534
X131.572Y-84.074
X131.572Y-86.614
X131.572Y-89.154
X131.572Y-91.694
X131.572Y-94.234
X131.572Y-96.774
X131.572Y-99.314
X131.572Y-101.854
X131.572Y-104.394
X131.572Y-106.934
X131.572Y-109.474
X131.572Y-112.014
X131.572Y-114.554
X131.572Y-117.094
X131.572Y-119.634
X131.572Y-122.174
X131.572Y-124.714
X131.572Y-127.254
T4
X139.799Y-103.447
X139.799Y-105.986
X139.799Y-108.526
T5
X172.974Y-102.235
X175.514Y-102.235
X178.054Y-102.235
T6
X138.303Y-120.35
X139.573Y-117.81
X140.843Y-120.35
X142.113Y-117.81
X143.383Y-120.35
X144.653Y-117.81
X145.923Y-120.35
X147.193Y-117.81
T7
X136.423Y-131.78
X138.963Y-129.99
X146.533Y-131.78
X149.073Y-129.99
T8
X124.206Y-63.488
X126.746Y-63.488
X129.286Y-63.488
X131.826Y-63.488
X134.366Y-63.488
X136.906Y-63.488
T9
X134.873Y-123.65
X150.623Y-123.65
T11
X137.033Y-126.7
X148.463Y-126.7
T10
X159.859Y-120.013G85X161.959Y-120.013
G05
X163.895Y-72.678G85X163.895Y-70.578
G05
X163.895Y-80.552G85X163.895Y-78.452
G05
X163.895Y-89.442G85X163.895Y-87.342
G05
X163.895Y-97.316G85X163.895Y-95.216
G05
X167.733Y-120.013G85X169.833Y-120.013
G05
T0
M30
