G04 #@! TF.GenerationSoftware,KiCad,Pcbnew,(6.0.7)*
G04 #@! TF.CreationDate,2023-03-21T01:18:23-05:00*
G04 #@! TF.ProjectId,SignalStack_Board,5369676e-616c-4537-9461-636b5f426f61,rev?*
G04 #@! TF.SameCoordinates,Original*
G04 #@! TF.FileFunction,Paste,Top*
G04 #@! TF.FilePolarity,Positive*
%FSLAX46Y46*%
G04 Gerber Fmt 4.6, Leading zero omitted, Abs format (unit mm)*
G04 Created by KiCad (PCBNEW (6.0.7)) date 2023-03-21 01:18:23*
%MOMM*%
%LPD*%
G01*
G04 APERTURE LIST*
G04 Aperture macros list*
%AMRoundRect*
0 Rectangle with rounded corners*
0 $1 Rounding radius*
0 $2 $3 $4 $5 $6 $7 $8 $9 X,Y pos of 4 corners*
0 Add a 4 corners polygon primitive as box body*
4,1,4,$2,$3,$4,$5,$6,$7,$8,$9,$2,$3,0*
0 Add four circle primitives for the rounded corners*
1,1,$1+$1,$2,$3*
1,1,$1+$1,$4,$5*
1,1,$1+$1,$6,$7*
1,1,$1+$1,$8,$9*
0 Add four rect primitives between the rounded corners*
20,1,$1+$1,$2,$3,$4,$5,0*
20,1,$1+$1,$4,$5,$6,$7,0*
20,1,$1+$1,$6,$7,$8,$9,0*
20,1,$1+$1,$8,$9,$2,$3,0*%
G04 Aperture macros list end*
%ADD10RoundRect,0.237500X0.287500X0.237500X-0.287500X0.237500X-0.287500X-0.237500X0.287500X-0.237500X0*%
%ADD11RoundRect,0.237500X-0.300000X-0.237500X0.300000X-0.237500X0.300000X0.237500X-0.300000X0.237500X0*%
%ADD12RoundRect,0.237500X-0.250000X-0.237500X0.250000X-0.237500X0.250000X0.237500X-0.250000X0.237500X0*%
%ADD13RoundRect,0.237500X0.300000X0.237500X-0.300000X0.237500X-0.300000X-0.237500X0.300000X-0.237500X0*%
%ADD14RoundRect,0.237500X0.250000X0.237500X-0.250000X0.237500X-0.250000X-0.237500X0.250000X-0.237500X0*%
%ADD15R,1.600000X1.400000*%
%ADD16RoundRect,0.150000X-0.825000X-0.150000X0.825000X-0.150000X0.825000X0.150000X-0.825000X0.150000X0*%
%ADD17R,1.560000X0.650000*%
%ADD18R,1.800000X2.400000*%
%ADD19RoundRect,0.150000X0.150000X-0.512500X0.150000X0.512500X-0.150000X0.512500X-0.150000X-0.512500X0*%
%ADD20RoundRect,0.237500X-0.287500X-0.237500X0.287500X-0.237500X0.287500X0.237500X-0.287500X0.237500X0*%
%ADD21R,3.050000X2.750000*%
%ADD22R,2.200000X1.200000*%
%ADD23RoundRect,0.237500X0.237500X-0.250000X0.237500X0.250000X-0.237500X0.250000X-0.237500X-0.250000X0*%
G04 APERTURE END LIST*
D10*
X144385000Y-84201000D03*
X142635000Y-84201000D03*
D11*
X150831300Y-77216000D03*
X152556300Y-77216000D03*
D12*
X150589000Y-91821000D03*
X152414000Y-91821000D03*
D11*
X150662500Y-86233000D03*
X152387500Y-86233000D03*
D10*
X143011500Y-60833000D03*
X141261500Y-60833000D03*
D12*
X150612500Y-90043000D03*
X152437500Y-90043000D03*
X150612500Y-99822000D03*
X152437500Y-99822000D03*
D13*
X155421500Y-115189000D03*
X153696500Y-115189000D03*
D10*
X144567800Y-67437000D03*
X142817800Y-67437000D03*
D12*
X147781000Y-101877500D03*
X149606000Y-101877500D03*
D14*
X156765000Y-62827500D03*
X154940000Y-62827500D03*
D15*
X159110500Y-59803500D03*
X166310500Y-59803500D03*
X166310500Y-62803500D03*
X159110500Y-62803500D03*
D12*
X150804800Y-73152000D03*
X152629800Y-73152000D03*
D16*
X154963200Y-86233000D03*
X154963200Y-87503000D03*
X154963200Y-88773000D03*
X154963200Y-90043000D03*
X159913200Y-90043000D03*
X159913200Y-88773000D03*
X159913200Y-87503000D03*
X159913200Y-86233000D03*
X155132000Y-77216000D03*
X155132000Y-78486000D03*
X155132000Y-79756000D03*
X155132000Y-81026000D03*
X160082000Y-81026000D03*
X160082000Y-79756000D03*
X160082000Y-78486000D03*
X160082000Y-77216000D03*
X169441200Y-86233000D03*
X169441200Y-87503000D03*
X169441200Y-88773000D03*
X169441200Y-90043000D03*
X174391200Y-90043000D03*
X174391200Y-88773000D03*
X174391200Y-87503000D03*
X174391200Y-86233000D03*
X143249800Y-77216000D03*
X143249800Y-78486000D03*
X143249800Y-79756000D03*
X143249800Y-81026000D03*
X148199800Y-81026000D03*
X148199800Y-79756000D03*
X148199800Y-78486000D03*
X148199800Y-77216000D03*
D11*
X148489500Y-115062000D03*
X150214500Y-115062000D03*
D14*
X143049000Y-62865000D03*
X141224000Y-62865000D03*
D12*
X150781300Y-81026000D03*
X152606300Y-81026000D03*
D15*
X152594500Y-59841000D03*
X145394500Y-59841000D03*
X152594500Y-62841000D03*
X145394500Y-62841000D03*
D12*
X134989500Y-95097250D03*
X136814500Y-95097250D03*
D11*
X163912300Y-75438000D03*
X165637300Y-75438000D03*
X150831300Y-69342000D03*
X152556300Y-69342000D03*
D17*
X135210500Y-89093000D03*
X135210500Y-90043000D03*
X135210500Y-90993000D03*
X137910500Y-90993000D03*
X137910500Y-90043000D03*
X137910500Y-89093000D03*
D13*
X175868500Y-124460000D03*
X174143500Y-124460000D03*
D12*
X134714000Y-78232000D03*
X136539000Y-78232000D03*
D16*
X169610000Y-69342000D03*
X169610000Y-70612000D03*
X169610000Y-71882000D03*
X169610000Y-73152000D03*
X174560000Y-73152000D03*
X174560000Y-71882000D03*
X174560000Y-70612000D03*
X174560000Y-69342000D03*
D14*
X149606000Y-104671500D03*
X147781000Y-104671500D03*
D12*
X150612500Y-97917000D03*
X152437500Y-97917000D03*
D18*
X152527000Y-120142000D03*
X156577000Y-120142000D03*
D17*
X134794000Y-72202000D03*
X134794000Y-73152000D03*
X134794000Y-74102000D03*
X137494000Y-74102000D03*
X137494000Y-73152000D03*
X137494000Y-72202000D03*
D16*
X143249800Y-69342000D03*
X143249800Y-70612000D03*
X143249800Y-71882000D03*
X143249800Y-73152000D03*
X148199800Y-73152000D03*
X148199800Y-71882000D03*
X148199800Y-70612000D03*
X148199800Y-69342000D03*
D11*
X150662500Y-94107000D03*
X152387500Y-94107000D03*
D12*
X150781300Y-74930000D03*
X152606300Y-74930000D03*
D13*
X167867500Y-103632000D03*
X166142500Y-103632000D03*
X155421500Y-109601000D03*
X153696500Y-109601000D03*
X155421500Y-112395000D03*
X153696500Y-112395000D03*
D11*
X163743500Y-92329000D03*
X165468500Y-92329000D03*
D10*
X144385000Y-92075000D03*
X142635000Y-92075000D03*
D16*
X169610000Y-77216000D03*
X169610000Y-78486000D03*
X169610000Y-79756000D03*
X169610000Y-81026000D03*
X174560000Y-81026000D03*
X174560000Y-79756000D03*
X174560000Y-78486000D03*
X174560000Y-77216000D03*
D14*
X149606000Y-107465500D03*
X147781000Y-107465500D03*
D12*
X120499500Y-83566000D03*
X122324500Y-83566000D03*
D19*
X176657000Y-119004500D03*
X175707000Y-121279500D03*
X177607000Y-121279500D03*
D10*
X136763000Y-93065250D03*
X135013000Y-93065250D03*
D20*
X143895500Y-107465500D03*
X145645500Y-107465500D03*
D12*
X134596500Y-67564000D03*
X136421500Y-67564000D03*
D16*
X154963200Y-94107000D03*
X154963200Y-95377000D03*
X154963200Y-96647000D03*
X154963200Y-97917000D03*
X159913200Y-97917000D03*
X159913200Y-96647000D03*
X159913200Y-95377000D03*
X159913200Y-94107000D03*
X143081000Y-94107000D03*
X143081000Y-95377000D03*
X143081000Y-96647000D03*
X143081000Y-97917000D03*
X148031000Y-97917000D03*
X148031000Y-96647000D03*
X148031000Y-95377000D03*
X148031000Y-94107000D03*
D12*
X134900000Y-84201000D03*
X136725000Y-84201000D03*
D20*
X144008500Y-104671500D03*
X145758500Y-104671500D03*
D10*
X136673500Y-86233000D03*
X134923500Y-86233000D03*
D12*
X120499500Y-86614000D03*
X122324500Y-86614000D03*
X150804800Y-83185000D03*
X152629800Y-83185000D03*
D10*
X136384000Y-69469000D03*
X134634000Y-69469000D03*
D21*
X163957000Y-113792000D03*
X160607000Y-113792000D03*
X160607000Y-110742000D03*
X163957000Y-110742000D03*
D22*
X168582000Y-114547000D03*
X168582000Y-112267000D03*
X168582000Y-109987000D03*
D10*
X136511000Y-76200000D03*
X134761000Y-76200000D03*
D16*
X143081000Y-86233000D03*
X143081000Y-87503000D03*
X143081000Y-88773000D03*
X143081000Y-90043000D03*
X148031000Y-90043000D03*
X148031000Y-88773000D03*
X148031000Y-87503000D03*
X148031000Y-86233000D03*
D10*
X156727500Y-60795500D03*
X154977500Y-60795500D03*
X144567800Y-75184000D03*
X142817800Y-75184000D03*
D20*
X144008500Y-101877500D03*
X145758500Y-101877500D03*
D23*
X173101000Y-120673500D03*
X173101000Y-118848500D03*
D16*
X169441200Y-94107000D03*
X169441200Y-95377000D03*
X169441200Y-96647000D03*
X169441200Y-97917000D03*
X174391200Y-97917000D03*
X174391200Y-96647000D03*
X174391200Y-95377000D03*
X174391200Y-94107000D03*
X155132000Y-69342000D03*
X155132000Y-70612000D03*
X155132000Y-71882000D03*
X155132000Y-73152000D03*
X160082000Y-73152000D03*
X160082000Y-71882000D03*
X160082000Y-70612000D03*
X160082000Y-69342000D03*
M02*
