%TF.GenerationSoftware,KiCad,Pcbnew,9.0.8-9.0.8~ubuntu22.04.1*%
%TF.CreationDate,2026-03-23T13:37:14-05:00*%
%TF.ProjectId,RotatingSignalStack,526f7461-7469-46e6-9753-69676e616c53,rev?*%
%TF.SameCoordinates,Original*%
%TF.FileFunction,Soldermask,Bot*%
%TF.FilePolarity,Negative*%
%FSLAX46Y46*%
G04 Gerber Fmt 4.6, Leading zero omitted, Abs format (unit mm)*
G04 Created by KiCad (PCBNEW 9.0.8-9.0.8~ubuntu22.04.1) date 2026-03-23 13:37:14*
%MOMM*%
%LPD*%
G01*
G04 APERTURE LIST*
G04 Aperture macros list*
%AMRoundRect*
0 Rectangle with rounded corners*
0 $1 Rounding radius*
0 $2 $3 $4 $5 $6 $7 $8 $9 X,Y pos of 4 corners*
0 Add a 4 corners polygon primitive as box body*
4,1,4,$2,$3,$4,$5,$6,$7,$8,$9,$2,$3,0*
0 Add four circle primitives for the rounded corners*
1,1,$1+$1,$2,$3*
1,1,$1+$1,$4,$5*
1,1,$1+$1,$6,$7*
1,1,$1+$1,$8,$9*
0 Add four rect primitives between the rounded corners*
20,1,$1+$1,$2,$3,$4,$5,0*
20,1,$1+$1,$4,$5,$6,$7,0*
20,1,$1+$1,$6,$7,$8,$9,0*
20,1,$1+$1,$8,$9,$2,$3,0*%
%AMRotRect*
0 Rectangle, with rotation*
0 The origin of the aperture is its center*
0 $1 length*
0 $2 width*
0 $3 Rotation angle, in degrees counterclockwise*
0 Add horizontal line*
21,1,$1,$2,0,0,$3*%
G04 Aperture macros list end*
%ADD10R,1.700000X1.700000*%
%ADD11C,1.700000*%
%ADD12R,1.800000X1.800000*%
%ADD13C,1.800000*%
%ADD14C,0.800000*%
%ADD15C,6.400000*%
%ADD16C,3.250000*%
%ADD17RoundRect,0.102000X-0.694000X0.694000X-0.694000X-0.694000X0.694000X-0.694000X0.694000X0.694000X0*%
%ADD18C,1.592000*%
%ADD19C,3.024000*%
%ADD20C,1.524000*%
%ADD21RotRect,1.700000X1.700000X45.000000*%
G04 APERTURE END LIST*
D10*
%TO.C,J4*%
X146812000Y-105156000D03*
D11*
X149352000Y-105156000D03*
X151892000Y-105156000D03*
X154432000Y-105156000D03*
X156972000Y-105156000D03*
X159512000Y-105156000D03*
X162052000Y-105156000D03*
X164592000Y-105156000D03*
X167132000Y-105156000D03*
%TD*%
D12*
%TO.C,U8*%
X136398000Y-106172000D03*
D13*
X138938000Y-106172000D03*
X141478000Y-106172000D03*
%TD*%
D10*
%TO.C,J1*%
X143002000Y-58293000D03*
D11*
X145542000Y-58293000D03*
X148082000Y-58293000D03*
X150622000Y-58293000D03*
X153162000Y-58293000D03*
X155702000Y-58293000D03*
%TD*%
D14*
%TO.C,H4*%
X183528000Y-105537000D03*
X184230944Y-103839944D03*
X184230944Y-107234056D03*
X185928000Y-103137000D03*
D15*
X185928000Y-105537000D03*
D14*
X185928000Y-107937000D03*
X187625056Y-103839944D03*
X187625056Y-107234056D03*
X188328000Y-105537000D03*
%TD*%
D16*
%TO.C,J3*%
X129794000Y-85598000D03*
X129794000Y-98298000D03*
D17*
X132334000Y-95504000D03*
D18*
X134112000Y-94488000D03*
X132334000Y-93472000D03*
X134112000Y-92456000D03*
X132334000Y-91440000D03*
X134112000Y-90424000D03*
X132334000Y-89408000D03*
X134112000Y-88392000D03*
X138938000Y-85090000D03*
X138938000Y-87376000D03*
X138938000Y-96520000D03*
X138938000Y-98806000D03*
D19*
X133350000Y-83743800D03*
%TD*%
D14*
%TO.C,H2*%
X126518000Y-105537000D03*
X127220944Y-103839944D03*
X127220944Y-107234056D03*
X128918000Y-103137000D03*
D15*
X128918000Y-105537000D03*
D14*
X128918000Y-107937000D03*
X130615056Y-103839944D03*
X130615056Y-107234056D03*
X131318000Y-105537000D03*
%TD*%
D20*
%TO.C,Conn1*%
X130429000Y-76962000D03*
X130429000Y-74422000D03*
X130429000Y-71882000D03*
X130429000Y-69342000D03*
%TD*%
D10*
%TO.C,JP1*%
X149352000Y-65278000D03*
D11*
X151892000Y-65278000D03*
X154432000Y-65278000D03*
%TD*%
D14*
%TO.C,H1*%
X185928000Y-61074000D03*
X184230944Y-60371056D03*
X187625056Y-60371056D03*
X183528000Y-58674000D03*
D15*
X185928000Y-58674000D03*
D14*
X188328000Y-58674000D03*
X184230944Y-56976944D03*
X187625056Y-56976944D03*
X185928000Y-56274000D03*
%TD*%
D21*
%TO.C,J2*%
X175892672Y-58763317D03*
D11*
X177688723Y-60559368D03*
X179484774Y-62355419D03*
X181280826Y-64151471D03*
%TD*%
D14*
%TO.C,H3*%
X126505000Y-58687000D03*
X127207944Y-56989944D03*
X127207944Y-60384056D03*
X128905000Y-56287000D03*
D15*
X128905000Y-58687000D03*
D14*
X128905000Y-61087000D03*
X130602056Y-56989944D03*
X130602056Y-60384056D03*
X131305000Y-58687000D03*
%TD*%
G36*
X185928841Y-55118011D02*
G01*
X186108542Y-55120362D01*
X186119881Y-55121030D01*
X186478204Y-55158691D01*
X186491024Y-55160722D01*
X186842632Y-55235459D01*
X186855169Y-55238818D01*
X187197048Y-55349901D01*
X187209165Y-55354552D01*
X187537563Y-55500764D01*
X187549128Y-55506657D01*
X187860438Y-55686392D01*
X187871323Y-55693461D01*
X188162139Y-55904751D01*
X188172226Y-55912919D01*
X188439367Y-56153454D01*
X188448545Y-56162632D01*
X188689080Y-56429773D01*
X188697248Y-56439860D01*
X188908538Y-56730676D01*
X188915607Y-56741561D01*
X189095342Y-57052871D01*
X189101235Y-57064436D01*
X189247447Y-57392834D01*
X189252098Y-57404951D01*
X189363181Y-57746830D01*
X189366540Y-57759367D01*
X189441277Y-58110975D01*
X189443308Y-58123795D01*
X189480969Y-58482118D01*
X189481637Y-58493456D01*
X189483989Y-58673158D01*
X189484000Y-58674781D01*
X189484000Y-105536218D01*
X189483989Y-105537841D01*
X189481637Y-105717543D01*
X189480969Y-105728881D01*
X189443308Y-106087204D01*
X189441277Y-106100024D01*
X189366540Y-106451632D01*
X189363181Y-106464169D01*
X189252098Y-106806048D01*
X189247447Y-106818165D01*
X189101235Y-107146563D01*
X189095342Y-107158128D01*
X188915607Y-107469438D01*
X188908538Y-107480323D01*
X188697248Y-107771139D01*
X188689080Y-107781226D01*
X188448545Y-108048367D01*
X188439367Y-108057545D01*
X188172226Y-108298080D01*
X188162139Y-108306248D01*
X187871323Y-108517538D01*
X187860438Y-108524607D01*
X187549128Y-108704342D01*
X187537563Y-108710235D01*
X187209165Y-108856447D01*
X187197048Y-108861098D01*
X186855169Y-108972181D01*
X186842632Y-108975540D01*
X186491024Y-109050277D01*
X186478204Y-109052308D01*
X186119881Y-109089969D01*
X186108543Y-109090637D01*
X185928842Y-109092989D01*
X185927219Y-109093000D01*
X128905781Y-109093000D01*
X128904158Y-109092989D01*
X128724456Y-109090637D01*
X128713118Y-109089969D01*
X128354795Y-109052308D01*
X128341975Y-109050277D01*
X127990367Y-108975540D01*
X127977830Y-108972181D01*
X127635951Y-108861098D01*
X127623834Y-108856447D01*
X127295436Y-108710235D01*
X127283871Y-108704342D01*
X126972561Y-108524607D01*
X126961676Y-108517538D01*
X126670860Y-108306248D01*
X126660773Y-108298080D01*
X126393632Y-108057545D01*
X126384454Y-108048367D01*
X126143919Y-107781226D01*
X126135751Y-107771139D01*
X125924461Y-107480323D01*
X125917392Y-107469438D01*
X125737657Y-107158128D01*
X125731764Y-107146563D01*
X125585552Y-106818165D01*
X125580901Y-106806048D01*
X125469818Y-106464169D01*
X125466459Y-106451632D01*
X125391722Y-106100024D01*
X125389691Y-106087204D01*
X125352030Y-105728881D01*
X125351362Y-105717542D01*
X125349011Y-105537840D01*
X125349000Y-105536218D01*
X125349000Y-102146529D01*
X125368685Y-102079490D01*
X125421489Y-102033735D01*
X125490647Y-102023791D01*
X125550243Y-102049526D01*
X126597634Y-102883560D01*
X126637816Y-102940720D01*
X126644391Y-102980581D01*
X126644000Y-105648081D01*
X126644000Y-105648087D01*
X126665772Y-105869147D01*
X126709114Y-106087038D01*
X126773602Y-106299629D01*
X126858620Y-106504877D01*
X126858622Y-106504882D01*
X126963330Y-106700776D01*
X126963341Y-106700794D01*
X127086753Y-106885493D01*
X127086763Y-106885507D01*
X127227689Y-107057225D01*
X127384773Y-107214309D01*
X127556491Y-107355235D01*
X127556505Y-107355245D01*
X127741204Y-107478657D01*
X127741222Y-107478668D01*
X127937116Y-107583376D01*
X127937121Y-107583378D01*
X128142369Y-107668396D01*
X128354960Y-107732884D01*
X128572846Y-107776225D01*
X128572859Y-107776227D01*
X128793924Y-107798000D01*
X186039076Y-107798000D01*
X186260139Y-107776227D01*
X186260152Y-107776225D01*
X186478038Y-107732884D01*
X186690629Y-107668396D01*
X186895877Y-107583378D01*
X186895882Y-107583376D01*
X187091776Y-107478668D01*
X187091794Y-107478657D01*
X187276493Y-107355245D01*
X187276507Y-107355235D01*
X187448225Y-107214309D01*
X187605309Y-107057225D01*
X187746235Y-106885507D01*
X187746245Y-106885493D01*
X187869657Y-106700794D01*
X187869668Y-106700776D01*
X187974376Y-106504882D01*
X187974378Y-106504877D01*
X188059396Y-106299629D01*
X188123884Y-106087038D01*
X188167225Y-105869152D01*
X188167227Y-105869139D01*
X188189000Y-105648074D01*
X188189000Y-58562924D01*
X188167227Y-58341859D01*
X188167225Y-58341846D01*
X188123884Y-58123960D01*
X188059396Y-57911369D01*
X187974378Y-57706121D01*
X187974376Y-57706116D01*
X187869668Y-57510222D01*
X187869657Y-57510204D01*
X187746245Y-57325505D01*
X187746235Y-57325491D01*
X187605309Y-57153773D01*
X187448225Y-56996689D01*
X187276507Y-56855763D01*
X187276493Y-56855753D01*
X187091794Y-56732341D01*
X187091776Y-56732330D01*
X186895882Y-56627622D01*
X186895877Y-56627620D01*
X186690629Y-56542602D01*
X186478038Y-56478114D01*
X186260146Y-56434772D01*
X186039077Y-56413000D01*
X128793924Y-56413000D01*
X128572852Y-56434772D01*
X128354960Y-56478114D01*
X128142369Y-56542602D01*
X127937121Y-56627620D01*
X127937116Y-56627622D01*
X127741222Y-56732330D01*
X127741204Y-56732341D01*
X127556505Y-56855753D01*
X127556491Y-56855763D01*
X127384773Y-56996689D01*
X127227689Y-57153773D01*
X127086763Y-57325491D01*
X127086753Y-57325505D01*
X126963341Y-57510204D01*
X126963330Y-57510222D01*
X126858622Y-57706116D01*
X126858620Y-57706121D01*
X126773602Y-57911369D01*
X126709114Y-58123960D01*
X126665772Y-58341852D01*
X126644000Y-58562924D01*
X126644000Y-80962198D01*
X126624315Y-81029237D01*
X126592087Y-81063091D01*
X125545087Y-81811158D01*
X125479096Y-81834115D01*
X125411170Y-81817750D01*
X125362875Y-81767260D01*
X125349000Y-81710265D01*
X125349000Y-58674781D01*
X125349011Y-58673159D01*
X125351362Y-58493457D01*
X125352030Y-58482118D01*
X125389691Y-58123795D01*
X125391722Y-58110975D01*
X125466459Y-57759367D01*
X125469818Y-57746830D01*
X125580901Y-57404951D01*
X125585552Y-57392834D01*
X125731764Y-57064436D01*
X125737657Y-57052871D01*
X125917392Y-56741561D01*
X125924461Y-56730676D01*
X126135751Y-56439860D01*
X126143919Y-56429773D01*
X126384454Y-56162632D01*
X126393632Y-56153454D01*
X126660773Y-55912919D01*
X126670860Y-55904751D01*
X126961676Y-55693461D01*
X126972561Y-55686392D01*
X127283871Y-55506657D01*
X127295436Y-55500764D01*
X127623834Y-55354552D01*
X127635951Y-55349901D01*
X127977830Y-55238818D01*
X127990367Y-55235459D01*
X128341975Y-55160722D01*
X128354795Y-55158691D01*
X128713118Y-55121030D01*
X128724457Y-55120362D01*
X128904159Y-55118011D01*
X128905781Y-55118000D01*
X185927219Y-55118000D01*
X185928841Y-55118011D01*
G37*
M02*
