M48
; DRILL file {KiCad 9.0.8-9.0.8~ubuntu22.04.1} date 2026-03-23T13:37:10-0500
; FORMAT={-:-/ absolute / inch / decimal}
; #@! TF.CreationDate,2026-03-23T13:37:10-05:00
; #@! TF.GenerationSoftware,Kicad,Pcbnew,9.0.8-9.0.8~ubuntu22.04.1
; #@! TF.FileFunction,Plated,1,2,PTH
FMAT,2
INCH
; #@! TA.AperFunction,Plated,PTH,ViaDrill
T1C0.0118
; #@! TA.AperFunction,Plated,PTH,ComponentDrill
T2C0.0197
; #@! TA.AperFunction,Plated,PTH,ComponentDrill
T3C0.0346
; #@! TA.AperFunction,Plated,PTH,ComponentDrill
T4C0.0354
; #@! TA.AperFunction,Plated,PTH,ComponentDrill
T5C0.0394
; #@! TA.AperFunction,Plated,PTH,ComponentDrill
T6C0.0740
; #@! TA.AperFunction,Plated,PTH,ComponentDrill
T7C0.1260
%
G90
G05
T1
X4.96Y-2.43
X4.96Y-2.53
X4.96Y-2.63
X4.96Y-2.73
X4.96Y-2.83
X4.96Y-2.93
X4.96Y-3.03
X4.96Y-3.13
X4.96Y-3.2
X5.02Y-3.18
X5.11Y-2.545
X5.19Y-3.19
X5.2Y-2.2
X5.2Y-4.27
X5.22Y-3.19
X5.25Y-3.19
X5.255Y-4.205
X5.2741Y-3.03
X5.275Y-2.325
X5.29Y-2.595
X5.29Y-3.09
X5.3Y-2.2
X5.3Y-4.27
X5.32Y-3.19
X5.325Y-2.71
X5.3314Y-2.5647
X5.3314Y-2.6395
X5.3456Y-2.9697
X5.37Y-3.19
X5.375Y-2.75
X5.4Y-2.2
X5.4Y-3.19
X5.4Y-4.27
X5.425Y-2.71
X5.435Y-2.41
X5.485Y-2.44
X5.5Y-2.2
X5.5Y-4.27
X5.52Y-3.03
X5.545Y-4.035
X5.55Y-2.69
X5.6Y-2.2
X5.6Y-4.27
X5.61Y-3.21
X5.6274Y-2.975
X5.63Y-2.66
X5.65Y-4.205
X5.685Y-2.8879
X5.685Y-3.0
X5.7Y-2.2
X5.7Y-2.44
X5.7Y-4.27
X5.7178Y-3.98
X5.7178Y-3.25
X5.7197Y-3.92
X5.7197Y-3.32
X5.7575Y-3.0553
X5.76Y-2.48
X5.7638Y-2.9723
X5.77Y-2.825
X5.8Y-2.2
X5.8Y-4.27
X5.825Y-3.065
X5.83Y-3.925
X5.83Y-3.98
X5.83Y-4.205
X5.835Y-3.25
X5.835Y-3.32
X5.835Y-3.655
X5.855Y-2.695
X5.865Y-3.115
X5.88Y-2.44
X5.9Y-2.2
X5.9Y-4.27
X5.915Y-3.22
X5.93Y-3.085
X5.93Y-3.12
X5.94Y-4.005
X6.0Y-2.2
X6.0Y-4.27
X6.03Y-4.005
X6.0419Y-2.995
X6.06Y-3.31
X6.06Y-3.38
X6.065Y-3.46
X6.065Y-3.785
X6.07Y-3.69
X6.1Y-2.2
X6.1Y-4.27
X6.1217Y-3.0046
X6.1219Y-3.4159
X6.1219Y-3.8141
X6.1245Y-3.5673
X6.1245Y-3.6569
X6.13Y-3.035
X6.13Y-3.0924
X6.145Y-3.17
X6.1601Y-3.5651
X6.167Y-2.799
X6.1675Y-2.9625
X6.175Y-2.55
X6.18Y-3.065
X6.1993Y-3.5673
X6.1993Y-3.6569
X6.2Y-2.2
X6.2Y-4.27
X6.2019Y-3.4159
X6.2019Y-3.8141
X6.21Y-2.505
X6.215Y-3.17
X6.2351Y-3.0099
X6.24Y-2.59
X6.245Y-3.43
X6.25Y-3.755
X6.255Y-2.46
X6.255Y-4.0
X6.26Y-3.3196
X6.265Y-2.925
X6.2653Y-2.8596
X6.2658Y-2.5658
X6.275Y-2.37
X6.275Y-3.225
X6.2758Y-2.7642
X6.28Y-2.53
X6.285Y-3.5
X6.285Y-3.72
X6.295Y-4.05
X6.3Y-2.2
X6.3Y-3.18
X6.3Y-4.27
X6.31Y-2.455
X6.31Y-2.7
X6.31Y-3.835
X6.3116Y-2.3597
X6.315Y-2.795
X6.325Y-2.245
X6.335Y-2.335
X6.335Y-3.385
X6.3431Y-3.352
X6.365Y-2.835
X6.37Y-3.335
X6.37Y-3.425
X6.38Y-3.05
X6.39Y-2.7
X6.4Y-2.2
X6.4Y-4.27
X6.405Y-2.62
X6.4058Y-2.8942
X6.43Y-2.33
X6.435Y-2.745
X6.44Y-2.995
X6.4458Y-2.9342
X6.465Y-2.56
X6.48Y-2.785
X6.49Y-2.6
X6.4911Y-2.5352
X6.4927Y-3.5154
X6.5Y-2.2
X6.5Y-4.27
X6.505Y-3.7493
X6.51Y-2.51
X6.52Y-2.3025
X6.53Y-2.73
X6.53Y-3.03
X6.53Y-3.485
X6.5317Y-3.7661
X6.545Y-2.36
X6.555Y-2.865
X6.56Y-3.62
X6.56Y-3.87
X6.5625Y-3.0625
X6.58Y-2.51
X6.5835Y-2.839
X6.59Y-2.2793
X6.59Y-2.44
X6.59Y-2.68
X6.595Y-3.025
X6.6Y-2.2
X6.6Y-2.395
X6.6Y-4.27
X6.61Y-3.5254
X6.615Y-2.839
X6.62Y-2.785
X6.6223Y-3.32
X6.64Y-2.355
X6.6503Y-3.0403
X6.655Y-3.125
X6.665Y-4.155
X6.67Y-2.58
X6.6743Y-3.32
X6.6751Y-2.9828
X6.69Y-3.04
X6.695Y-3.78
X6.7Y-2.2
X6.7Y-4.27
X6.71Y-2.68
X6.715Y-3.2
X6.719Y-3.37
X6.725Y-3.52
X6.735Y-2.955
X6.74Y-2.91
X6.74Y-4.155
X6.76Y-3.62
X6.7632Y-2.64
X6.765Y-2.3
X6.78Y-2.93
X6.79Y-2.445
X6.79Y-4.2
X6.7919Y-3.6819
X6.8Y-2.2
X6.8Y-2.335
X6.8Y-4.27
X6.82Y-3.085
X6.825Y-2.495
X6.825Y-2.835
X6.835Y-2.4326
X6.84Y-3.555
X6.8484Y-2.3832
X6.85Y-2.665
X6.85Y-3.435
X6.87Y-2.445
X6.88Y-4.015
X6.89Y-2.5294
X6.9Y-2.2
X6.9Y-4.27
X6.9042Y-2.7842
X6.905Y-3.49
X6.915Y-2.445
X6.915Y-2.61
X6.915Y-2.67
X6.92Y-2.735
X6.92Y-2.89
X6.93Y-4.06
X6.935Y-3.065
X6.945Y-2.48
X6.95Y-2.86
X6.96Y-3.22
X6.96Y-4.09
X6.9625Y-2.5475
X6.965Y-3.93
X6.97Y-2.665
X6.975Y-2.51
X6.995Y-2.635
X7.0Y-2.2
X7.0Y-3.555
X7.0Y-4.27
X7.01Y-2.535
X7.015Y-3.97
X7.025Y-2.61
X7.055Y-2.58
X7.06Y-4.15
X7.065Y-2.945
X7.065Y-3.285
X7.0692Y-2.745
X7.0742Y-3.08
X7.0742Y-3.415
X7.0742Y-3.755
X7.075Y-3.615
X7.1Y-2.2
X7.1Y-4.27
X7.11Y-2.605
X7.13Y-2.33
X7.158Y-2.228
X7.19Y-3.96
X7.2Y-2.2
X7.2Y-4.27
X7.325Y-2.575
X7.3527Y-2.745
X7.3577Y-3.08
X7.3577Y-3.415
X7.3577Y-3.755
X7.43Y-2.43
X7.43Y-2.53
X7.43Y-2.63
X7.43Y-2.73
X7.43Y-2.83
X7.43Y-2.93
X7.43Y-3.03
X7.43Y-3.13
X7.43Y-3.23
X7.43Y-3.33
X7.43Y-3.43
X7.43Y-3.53
X7.43Y-3.63
X7.43Y-3.73
X7.43Y-3.83
X7.43Y-3.93
X7.43Y-4.03
T2
X4.9805Y-2.3105
X4.981Y-4.155
X5.0082Y-2.2437
X5.0082Y-2.3773
X5.0087Y-4.0882
X5.0087Y-4.2218
X5.075Y-2.216
X5.075Y-2.405
X5.0755Y-4.0605
X5.0755Y-4.2495
X5.1418Y-2.2437
X5.1418Y-2.3773
X5.1423Y-4.0882
X5.1423Y-4.2218
X5.1695Y-2.3105
X5.17Y-4.155
X7.2255Y-2.31
X7.2255Y-4.155
X7.2532Y-2.2432
X7.2532Y-2.3768
X7.2532Y-4.0882
X7.2532Y-4.2218
X7.32Y-2.2155
X7.32Y-2.4045
X7.32Y-4.0605
X7.32Y-4.2495
X7.3868Y-2.2432
X7.3868Y-2.3768
X7.3868Y-4.0882
X7.3868Y-4.2218
X7.4145Y-2.31
X7.4145Y-4.155
T3
X5.21Y-3.52
X5.21Y-3.6
X5.21Y-3.68
X5.21Y-3.76
X5.28Y-3.48
X5.28Y-3.56
X5.28Y-3.64
X5.28Y-3.72
X5.47Y-3.35
X5.47Y-3.44
X5.47Y-3.8
X5.47Y-3.89
T4
X5.135Y-2.73
X5.135Y-2.83
X5.135Y-2.93
X5.135Y-3.03
T5
X5.37Y-4.18
X5.47Y-4.18
X5.57Y-4.18
X5.63Y-2.295
X5.73Y-2.295
X5.78Y-4.14
X5.83Y-2.295
X5.88Y-2.57
X5.88Y-4.14
X5.93Y-2.295
X5.98Y-2.57
X5.98Y-4.14
X6.03Y-2.295
X6.08Y-2.57
X6.08Y-4.14
X6.13Y-2.295
X6.18Y-4.14
X6.28Y-4.14
X6.38Y-4.14
X6.48Y-4.14
X6.58Y-4.14
X6.9249Y-2.3135
X6.9956Y-2.3842
X7.0663Y-2.4549
X7.137Y-2.5256
T6
X5.25Y-3.297
X5.25Y-3.943
T7
X5.075Y-2.3105
X5.0755Y-4.155
X7.32Y-2.31
X7.32Y-4.155
M30
