%TF.GenerationSoftware,KiCad,Pcbnew,9.0.8-9.0.8~ubuntu22.04.1*%
%TF.CreationDate,2026-03-23T13:37:13-05:00*%
%TF.ProjectId,RotatingSignalStack,526f7461-7469-46e6-9753-69676e616c53,rev?*%
%TF.SameCoordinates,Original*%
%TF.FileFunction,Paste,Top*%
%TF.FilePolarity,Positive*%
%FSLAX46Y46*%
G04 Gerber Fmt 4.6, Leading zero omitted, Abs format (unit mm)*
G04 Created by KiCad (PCBNEW 9.0.8-9.0.8~ubuntu22.04.1) date 2026-03-23 13:37:13*
%MOMM*%
%LPD*%
G01*
G04 APERTURE LIST*
G04 Aperture macros list*
%AMRoundRect*
0 Rectangle with rounded corners*
0 $1 Rounding radius*
0 $2 $3 $4 $5 $6 $7 $8 $9 X,Y pos of 4 corners*
0 Add a 4 corners polygon primitive as box body*
4,1,4,$2,$3,$4,$5,$6,$7,$8,$9,$2,$3,0*
0 Add four circle primitives for the rounded corners*
1,1,$1+$1,$2,$3*
1,1,$1+$1,$4,$5*
1,1,$1+$1,$6,$7*
1,1,$1+$1,$8,$9*
0 Add four rect primitives between the rounded corners*
20,1,$1+$1,$2,$3,$4,$5,0*
20,1,$1+$1,$4,$5,$6,$7,0*
20,1,$1+$1,$6,$7,$8,$9,0*
20,1,$1+$1,$8,$9,$2,$3,0*%
%AMRotRect*
0 Rectangle, with rotation*
0 The origin of the aperture is its center*
0 $1 length*
0 $2 width*
0 $3 Rotation angle, in degrees counterclockwise*
0 Add horizontal line*
21,1,$1,$2,0,0,$3*%
G04 Aperture macros list end*
%ADD10RoundRect,0.237500X-0.300000X-0.237500X0.300000X-0.237500X0.300000X0.237500X-0.300000X0.237500X0*%
%ADD11RoundRect,0.155000X0.259862X-0.040659X-0.040659X0.259862X-0.259862X0.040659X0.040659X-0.259862X0*%
%ADD12RoundRect,0.237500X-0.287500X-0.237500X0.287500X-0.237500X0.287500X0.237500X-0.287500X0.237500X0*%
%ADD13RoundRect,0.155000X-0.259862X0.040659X0.040659X-0.259862X0.259862X-0.040659X-0.040659X0.259862X0*%
%ADD14RoundRect,0.150000X-0.150000X0.512500X-0.150000X-0.512500X0.150000X-0.512500X0.150000X0.512500X0*%
%ADD15RoundRect,0.237500X-0.237500X0.250000X-0.237500X-0.250000X0.237500X-0.250000X0.237500X0.250000X0*%
%ADD16RoundRect,0.237500X0.237500X-0.250000X0.237500X0.250000X-0.237500X0.250000X-0.237500X-0.250000X0*%
%ADD17RoundRect,0.150000X0.825000X0.150000X-0.825000X0.150000X-0.825000X-0.150000X0.825000X-0.150000X0*%
%ADD18R,0.355600X0.673100*%
%ADD19R,1.600000X1.400000*%
%ADD20RoundRect,0.237500X-0.250000X-0.237500X0.250000X-0.237500X0.250000X0.237500X-0.250000X0.237500X0*%
%ADD21RoundRect,0.155000X-0.212500X-0.155000X0.212500X-0.155000X0.212500X0.155000X-0.212500X0.155000X0*%
%ADD22RoundRect,0.155000X0.040659X0.259862X-0.259862X-0.040659X-0.040659X-0.259862X0.259862X0.040659X0*%
%ADD23RoundRect,0.237500X0.250000X0.237500X-0.250000X0.237500X-0.250000X-0.237500X0.250000X-0.237500X0*%
%ADD24R,0.901700X0.508000*%
%ADD25RoundRect,0.237500X0.344715X-0.008839X-0.008839X0.344715X-0.344715X0.008839X0.008839X-0.344715X0*%
%ADD26RoundRect,0.072500X-0.532500X-0.217500X0.532500X-0.217500X0.532500X0.217500X-0.532500X0.217500X0*%
%ADD27RoundRect,0.237500X0.287500X0.237500X-0.287500X0.237500X-0.287500X-0.237500X0.287500X-0.237500X0*%
%ADD28RoundRect,0.237500X0.237500X-0.300000X0.237500X0.300000X-0.237500X0.300000X-0.237500X-0.300000X0*%
%ADD29RoundRect,0.155000X0.212500X0.155000X-0.212500X0.155000X-0.212500X-0.155000X0.212500X-0.155000X0*%
%ADD30RoundRect,0.155000X-0.040659X-0.259862X0.259862X0.040659X0.040659X0.259862X-0.259862X-0.040659X0*%
%ADD31RoundRect,0.237500X-0.008839X-0.344715X0.344715X0.008839X0.008839X0.344715X-0.344715X-0.008839X0*%
%ADD32R,0.800000X1.000000*%
%ADD33RoundRect,0.250000X-0.728320X0.000000X0.000000X-0.728320X0.728320X0.000000X0.000000X0.728320X0*%
%ADD34RoundRect,0.050000X-0.238649X0.167938X0.167938X-0.238649X0.238649X-0.167938X-0.167938X0.238649X0*%
%ADD35RoundRect,0.100000X-0.238649X0.097227X0.097227X-0.238649X0.238649X-0.097227X-0.097227X0.238649X0*%
%ADD36RoundRect,0.062500X-0.088388X0.000000X0.000000X-0.088388X0.088388X0.000000X0.000000X0.088388X0*%
%ADD37RoundRect,0.050000X-0.238649X-0.167938X-0.167938X-0.238649X0.238649X0.167938X0.167938X0.238649X0*%
%ADD38RoundRect,0.100000X-0.238649X-0.097227X-0.097227X-0.238649X0.238649X0.097227X0.097227X0.238649X0*%
%ADD39R,2.030000X0.760000*%
%ADD40RotRect,1.000000X0.800000X225.000000*%
%ADD41RoundRect,0.237500X0.300000X0.237500X-0.300000X0.237500X-0.300000X-0.237500X0.300000X-0.237500X0*%
%ADD42RotRect,0.300000X1.475000X135.000000*%
%ADD43RotRect,0.300000X1.475000X45.000000*%
%ADD44RotRect,1.000000X0.800000X45.000000*%
%ADD45R,1.260000X1.410000*%
%ADD46RoundRect,0.150000X-0.512500X-0.150000X0.512500X-0.150000X0.512500X0.150000X-0.512500X0.150000X0*%
%ADD47RoundRect,0.237500X0.008839X0.344715X-0.344715X-0.008839X-0.008839X-0.344715X0.344715X0.008839X0*%
%ADD48RotRect,1.092200X1.219200X45.000000*%
G04 APERTURE END LIST*
D10*
%TO.C,C1*%
X146076500Y-79375000D03*
X147801500Y-79375000D03*
%TD*%
D11*
%TO.C,C15*%
X176813309Y-92086258D03*
X176010743Y-91283692D03*
%TD*%
D12*
%TO.C,D1*%
X152033000Y-71628000D03*
X153783000Y-71628000D03*
%TD*%
D13*
%TO.C,C32*%
X159618717Y-63098717D03*
X160421283Y-63901283D03*
%TD*%
D14*
%TO.C,U7*%
X157462400Y-90609900D03*
X156512400Y-90609900D03*
X155562400Y-90609900D03*
X155562400Y-92884900D03*
X156512400Y-92884900D03*
X157462400Y-92884900D03*
%TD*%
D15*
%TO.C,R1*%
X141478000Y-98655500D03*
X141478000Y-100480500D03*
%TD*%
D10*
%TO.C,C6*%
X151029500Y-98044000D03*
X152754500Y-98044000D03*
%TD*%
D16*
%TO.C,R22*%
X157528400Y-98702500D03*
X157528400Y-96877500D03*
%TD*%
D11*
%TO.C,C18*%
X174153506Y-94716059D03*
X173350940Y-93913493D03*
%TD*%
D17*
%TO.C,U3*%
X142937000Y-78105000D03*
X142937000Y-76835000D03*
X142937000Y-75565000D03*
X142937000Y-74295000D03*
X137987000Y-74295000D03*
X137987000Y-75565000D03*
X137987000Y-76835000D03*
X137987000Y-78105000D03*
%TD*%
D16*
%TO.C,R21*%
X155496400Y-98702500D03*
X155496400Y-96877500D03*
%TD*%
D18*
%TO.C,CR1*%
X134478001Y-75431650D03*
X135777999Y-75431650D03*
X135128000Y-73412350D03*
%TD*%
D19*
%TO.C,SW1*%
X186884500Y-98377000D03*
X179684500Y-98377000D03*
X186884500Y-95377000D03*
X179684500Y-95377000D03*
%TD*%
D20*
%TO.C,R7*%
X138533500Y-80772000D03*
X140358500Y-80772000D03*
%TD*%
D21*
%TO.C,C24*%
X167072500Y-84328000D03*
X168207500Y-84328000D03*
%TD*%
D22*
%TO.C,C31*%
X159405283Y-70210717D03*
X158602717Y-71013283D03*
%TD*%
D16*
%TO.C,R6*%
X133507500Y-66751500D03*
X133507500Y-64926500D03*
%TD*%
D10*
%TO.C,C28*%
X160935500Y-89136703D03*
X162660500Y-89136703D03*
%TD*%
D23*
%TO.C,R24*%
X186991000Y-91797000D03*
X185166000Y-91797000D03*
%TD*%
D10*
%TO.C,C10*%
X145281100Y-84328000D03*
X147006100Y-84328000D03*
%TD*%
%TO.C,C2*%
X149338500Y-73787000D03*
X151063500Y-73787000D03*
%TD*%
D24*
%TO.C,U2*%
X146399400Y-75496398D03*
X146399400Y-76446399D03*
X146399400Y-77396400D03*
X149002900Y-77396400D03*
X149002900Y-76446399D03*
X149002900Y-75496398D03*
%TD*%
D10*
%TO.C,C25*%
X160983900Y-94559451D03*
X162708900Y-94559451D03*
%TD*%
%TO.C,C8*%
X151029500Y-84074000D03*
X152754500Y-84074000D03*
%TD*%
D25*
%TO.C,R14*%
X161047511Y-76588591D03*
X159757041Y-75298121D03*
%TD*%
D20*
%TO.C,R4*%
X145231100Y-101092000D03*
X147056100Y-101092000D03*
%TD*%
D26*
%TO.C,U1*%
X135285000Y-68834000D03*
X135285000Y-69784000D03*
X135285000Y-70734000D03*
X137795000Y-70734000D03*
X137795000Y-69784000D03*
X137795000Y-68834000D03*
%TD*%
D21*
%TO.C,C23*%
X169526501Y-84328000D03*
X170661501Y-84328000D03*
%TD*%
D10*
%TO.C,C5*%
X151029500Y-99822000D03*
X152754500Y-99822000D03*
%TD*%
D16*
%TO.C,R2*%
X141732000Y-84478500D03*
X141732000Y-82653500D03*
%TD*%
D19*
%TO.C,SW5*%
X179684500Y-78232000D03*
X186884500Y-78232000D03*
X179684500Y-81232000D03*
X186884500Y-81232000D03*
%TD*%
D10*
%TO.C,C27*%
X160983900Y-90932000D03*
X162708900Y-90932000D03*
%TD*%
D20*
%TO.C,R11*%
X137771500Y-103124000D03*
X139596500Y-103124000D03*
%TD*%
D11*
%TO.C,C16*%
X175915283Y-92984283D03*
X175112717Y-92181717D03*
%TD*%
%TO.C,C4*%
X175153283Y-72537283D03*
X174350717Y-71734717D03*
%TD*%
D27*
%TO.C,D9*%
X181238500Y-74733000D03*
X179488500Y-74733000D03*
%TD*%
D19*
%TO.C,SW7*%
X179684500Y-86741000D03*
X186884500Y-86741000D03*
X179684500Y-89741000D03*
X186884500Y-89741000D03*
%TD*%
D28*
%TO.C,C14*%
X140970000Y-71220500D03*
X140970000Y-69495500D03*
%TD*%
D10*
%TO.C,C11*%
X145280000Y-99568000D03*
X147005000Y-99568000D03*
%TD*%
D19*
%TO.C,SW6*%
X179557500Y-69723000D03*
X186757500Y-69723000D03*
X179557500Y-72723000D03*
X186757500Y-72723000D03*
%TD*%
D29*
%TO.C,C36*%
X153983500Y-92456000D03*
X152848500Y-92456000D03*
%TD*%
D30*
%TO.C,C30*%
X171196000Y-60706000D03*
X171998566Y-59903434D03*
%TD*%
D28*
%TO.C,C9*%
X143510000Y-101192500D03*
X143510000Y-99467500D03*
%TD*%
D21*
%TO.C,C29*%
X167072500Y-85598000D03*
X168207500Y-85598000D03*
%TD*%
D13*
%TO.C,C13*%
X175366717Y-70718717D03*
X176169283Y-71521283D03*
%TD*%
D12*
%TO.C,D2*%
X144808000Y-71755000D03*
X146558000Y-71755000D03*
%TD*%
D22*
%TO.C,C34*%
X163723283Y-74528717D03*
X162920717Y-75331283D03*
%TD*%
D31*
%TO.C,R13*%
X169661765Y-94625235D03*
X170952235Y-93334765D03*
%TD*%
D15*
%TO.C,R19*%
X157528400Y-84939500D03*
X157528400Y-86764500D03*
%TD*%
D10*
%TO.C,C7*%
X151029500Y-85852000D03*
X152754500Y-85852000D03*
%TD*%
D32*
%TO.C,FB2*%
X159004000Y-84317000D03*
X159004000Y-85917000D03*
%TD*%
D33*
%TO.C,U4*%
X170815000Y-89408000D03*
D34*
X170364219Y-87684427D03*
X170081377Y-87967270D03*
D35*
X169727823Y-88320823D03*
D34*
X169374270Y-88674377D03*
X169091427Y-88957219D03*
D36*
X168941167Y-89408000D03*
D37*
X169091427Y-89858781D03*
X169374270Y-90141623D03*
D38*
X169727823Y-90495177D03*
D37*
X170081377Y-90848730D03*
X170364219Y-91131573D03*
D36*
X170815000Y-91281833D03*
D34*
X171265781Y-91131573D03*
X171548623Y-90848730D03*
D35*
X171902177Y-90495177D03*
D34*
X172255730Y-90141623D03*
X172538573Y-89858781D03*
D36*
X172688833Y-89408000D03*
D37*
X172538573Y-88957219D03*
X172255730Y-88674377D03*
D38*
X171902177Y-88320823D03*
D37*
X171548623Y-87967270D03*
X171265781Y-87684427D03*
D36*
X170815000Y-87534167D03*
%TD*%
D39*
%TO.C,T1*%
X150614000Y-96393000D03*
X150614000Y-95123000D03*
X150614000Y-93853000D03*
X150614000Y-92583000D03*
X150614000Y-91313000D03*
X150614000Y-90043000D03*
X150614000Y-88773000D03*
X150614000Y-87503000D03*
X141994000Y-87503000D03*
X141994000Y-88773000D03*
X141994000Y-90043000D03*
X141994000Y-91313000D03*
X141994000Y-92583000D03*
X141994000Y-93853000D03*
X141994000Y-95123000D03*
X141994000Y-96393000D03*
%TD*%
D11*
%TO.C,C20*%
X159151283Y-65171283D03*
X158348717Y-64368717D03*
%TD*%
D13*
%TO.C,C33*%
X171048717Y-75036717D03*
X171851283Y-75839283D03*
%TD*%
D31*
%TO.C,R15*%
X161406765Y-62875235D03*
X162697235Y-61584765D03*
%TD*%
D40*
%TO.C,FB1*%
X175317685Y-90112315D03*
X174186315Y-91243685D03*
%TD*%
D41*
%TO.C,C37*%
X153643500Y-78359000D03*
X151918500Y-78359000D03*
%TD*%
D42*
%TO.C,IC2*%
X160803971Y-69096728D03*
X161157524Y-69450282D03*
X161511078Y-69803835D03*
X161864631Y-70157388D03*
X162218184Y-70510942D03*
X162571738Y-70864495D03*
X162925291Y-71218049D03*
X163278845Y-71571602D03*
X163632398Y-71925155D03*
X163985951Y-72278709D03*
X164339505Y-72632262D03*
X164693058Y-72985816D03*
X165046612Y-73339369D03*
X165400165Y-73692922D03*
X165753718Y-74046476D03*
X166107272Y-74400029D03*
D43*
X168918728Y-74400029D03*
X169272282Y-74046476D03*
X169625835Y-73692922D03*
X169979388Y-73339369D03*
X170332942Y-72985816D03*
X170686495Y-72632262D03*
X171040049Y-72278709D03*
X171393602Y-71925155D03*
X171747155Y-71571602D03*
X172100709Y-71218049D03*
X172454262Y-70864495D03*
X172807816Y-70510942D03*
X173161369Y-70157388D03*
X173514922Y-69803835D03*
X173868476Y-69450282D03*
X174222029Y-69096728D03*
D42*
X174222029Y-66285272D03*
X173868476Y-65931718D03*
X173514922Y-65578165D03*
X173161369Y-65224612D03*
X172807816Y-64871058D03*
X172454262Y-64517505D03*
X172100709Y-64163951D03*
X171747155Y-63810398D03*
X171393602Y-63456845D03*
X171040049Y-63103291D03*
X170686495Y-62749738D03*
X170332942Y-62396184D03*
X169979388Y-62042631D03*
X169625835Y-61689078D03*
X169272282Y-61335524D03*
X168918728Y-60981971D03*
D43*
X166107272Y-60981971D03*
X165753718Y-61335524D03*
X165400165Y-61689078D03*
X165046612Y-62042631D03*
X164693058Y-62396184D03*
X164339505Y-62749738D03*
X163985951Y-63103291D03*
X163632398Y-63456845D03*
X163278845Y-63810398D03*
X162925291Y-64163951D03*
X162571738Y-64517505D03*
X162218184Y-64871058D03*
X161864631Y-65224612D03*
X161511078Y-65578165D03*
X161157524Y-65931718D03*
X160803971Y-66285272D03*
%TD*%
D15*
%TO.C,R20*%
X155496400Y-84939500D03*
X155496400Y-86764500D03*
%TD*%
D16*
%TO.C,R10*%
X139603500Y-66751500D03*
X139603500Y-64926500D03*
%TD*%
D22*
%TO.C,C35*%
X162707283Y-73512717D03*
X161904717Y-74315283D03*
%TD*%
D23*
%TO.C,R17*%
X186864000Y-74733000D03*
X185039000Y-74733000D03*
%TD*%
D27*
%TO.C,D3*%
X181224500Y-83288000D03*
X179474500Y-83288000D03*
%TD*%
D44*
%TO.C,FB4*%
X167905630Y-80379370D03*
X169037000Y-79248000D03*
%TD*%
D23*
%TO.C,R18*%
X187141500Y-83288000D03*
X185316500Y-83288000D03*
%TD*%
D45*
%TO.C,L1*%
X151003000Y-76073000D03*
X153463000Y-76073000D03*
%TD*%
D23*
%TO.C,R16*%
X146595500Y-69977000D03*
X144770500Y-69977000D03*
%TD*%
D11*
%TO.C,C17*%
X175017258Y-93882309D03*
X174214692Y-93079743D03*
%TD*%
D23*
%TO.C,R9*%
X135786500Y-76962000D03*
X133961500Y-76962000D03*
%TD*%
D20*
%TO.C,R3*%
X145233000Y-82550000D03*
X147058000Y-82550000D03*
%TD*%
D10*
%TO.C,C26*%
X160983900Y-92763400D03*
X162708900Y-92763400D03*
%TD*%
D46*
%TO.C,U6*%
X135418000Y-65143000D03*
X135418000Y-66093000D03*
X135418000Y-67043000D03*
X137693000Y-67043000D03*
X137693000Y-66093000D03*
X137693000Y-65143000D03*
%TD*%
D23*
%TO.C,R23*%
X153820500Y-69850000D03*
X151995500Y-69850000D03*
%TD*%
D47*
%TO.C,R5*%
X161296497Y-79488027D03*
X160006027Y-80778497D03*
%TD*%
D27*
%TO.C,D10*%
X181365500Y-91797000D03*
X179615500Y-91797000D03*
%TD*%
D10*
%TO.C,C12*%
X179604500Y-100584000D03*
X181329500Y-100584000D03*
%TD*%
D48*
%TO.C,U5*%
X156969356Y-77852276D03*
X158621724Y-79504644D03*
X160022644Y-78103724D03*
X158370276Y-76451356D03*
%TD*%
D41*
%TO.C,C3*%
X153643500Y-80137000D03*
X151918500Y-80137000D03*
%TD*%
D30*
%TO.C,C19*%
X170286717Y-59837283D03*
X171089283Y-59034717D03*
%TD*%
D25*
%TO.C,R8*%
X173746235Y-96530235D03*
X172455765Y-95239765D03*
%TD*%
D15*
%TO.C,R12*%
X172212000Y-83415500D03*
X172212000Y-85240500D03*
%TD*%
D21*
%TO.C,C22*%
X169526501Y-85598000D03*
X170661501Y-85598000D03*
%TD*%
M02*
