%TF.GenerationSoftware,KiCad,Pcbnew,9.0.8-9.0.8~ubuntu22.04.1*%
%TF.CreationDate,2026-03-23T13:37:14-05:00*%
%TF.ProjectId,RotatingSignalStack,526f7461-7469-46e6-9753-69676e616c53,rev?*%
%TF.SameCoordinates,Original*%
%TF.FileFunction,Soldermask,Top*%
%TF.FilePolarity,Negative*%
%FSLAX46Y46*%
G04 Gerber Fmt 4.6, Leading zero omitted, Abs format (unit mm)*
G04 Created by KiCad (PCBNEW 9.0.8-9.0.8~ubuntu22.04.1) date 2026-03-23 13:37:14*
%MOMM*%
%LPD*%
G01*
G04 APERTURE LIST*
G04 Aperture macros list*
%AMRoundRect*
0 Rectangle with rounded corners*
0 $1 Rounding radius*
0 $2 $3 $4 $5 $6 $7 $8 $9 X,Y pos of 4 corners*
0 Add a 4 corners polygon primitive as box body*
4,1,4,$2,$3,$4,$5,$6,$7,$8,$9,$2,$3,0*
0 Add four circle primitives for the rounded corners*
1,1,$1+$1,$2,$3*
1,1,$1+$1,$4,$5*
1,1,$1+$1,$6,$7*
1,1,$1+$1,$8,$9*
0 Add four rect primitives between the rounded corners*
20,1,$1+$1,$2,$3,$4,$5,0*
20,1,$1+$1,$4,$5,$6,$7,0*
20,1,$1+$1,$6,$7,$8,$9,0*
20,1,$1+$1,$8,$9,$2,$3,0*%
%AMRotRect*
0 Rectangle, with rotation*
0 The origin of the aperture is its center*
0 $1 length*
0 $2 width*
0 $3 Rotation angle, in degrees counterclockwise*
0 Add horizontal line*
21,1,$1,$2,0,0,$3*%
G04 Aperture macros list end*
%ADD10R,1.700000X1.700000*%
%ADD11C,1.700000*%
%ADD12RoundRect,0.237500X-0.300000X-0.237500X0.300000X-0.237500X0.300000X0.237500X-0.300000X0.237500X0*%
%ADD13RoundRect,0.155000X0.259862X-0.040659X-0.040659X0.259862X-0.259862X0.040659X0.040659X-0.259862X0*%
%ADD14RoundRect,0.237500X-0.287500X-0.237500X0.287500X-0.237500X0.287500X0.237500X-0.287500X0.237500X0*%
%ADD15RoundRect,0.155000X-0.259862X0.040659X0.040659X-0.259862X0.259862X-0.040659X-0.040659X0.259862X0*%
%ADD16RoundRect,0.150000X-0.150000X0.512500X-0.150000X-0.512500X0.150000X-0.512500X0.150000X0.512500X0*%
%ADD17RoundRect,0.237500X-0.237500X0.250000X-0.237500X-0.250000X0.237500X-0.250000X0.237500X0.250000X0*%
%ADD18RoundRect,0.237500X0.237500X-0.250000X0.237500X0.250000X-0.237500X0.250000X-0.237500X-0.250000X0*%
%ADD19R,1.800000X1.800000*%
%ADD20C,1.800000*%
%ADD21RoundRect,0.150000X0.825000X0.150000X-0.825000X0.150000X-0.825000X-0.150000X0.825000X-0.150000X0*%
%ADD22R,0.355600X0.673100*%
%ADD23R,1.600000X1.400000*%
%ADD24RoundRect,0.237500X-0.250000X-0.237500X0.250000X-0.237500X0.250000X0.237500X-0.250000X0.237500X0*%
%ADD25RoundRect,0.155000X-0.212500X-0.155000X0.212500X-0.155000X0.212500X0.155000X-0.212500X0.155000X0*%
%ADD26RoundRect,0.155000X0.040659X0.259862X-0.259862X-0.040659X-0.040659X-0.259862X0.259862X0.040659X0*%
%ADD27RoundRect,0.237500X0.250000X0.237500X-0.250000X0.237500X-0.250000X-0.237500X0.250000X-0.237500X0*%
%ADD28R,0.901700X0.508000*%
%ADD29RoundRect,0.237500X0.344715X-0.008839X-0.008839X0.344715X-0.344715X0.008839X0.008839X-0.344715X0*%
%ADD30RoundRect,0.098000X-0.609000X-0.294000X0.609000X-0.294000X0.609000X0.294000X-0.609000X0.294000X0*%
%ADD31C,0.800000*%
%ADD32C,6.400000*%
%ADD33C,3.250000*%
%ADD34RoundRect,0.102000X-0.694000X0.694000X-0.694000X-0.694000X0.694000X-0.694000X0.694000X0.694000X0*%
%ADD35C,1.592000*%
%ADD36C,3.024000*%
%ADD37RoundRect,0.237500X0.287500X0.237500X-0.287500X0.237500X-0.287500X-0.237500X0.287500X-0.237500X0*%
%ADD38RoundRect,0.237500X0.237500X-0.300000X0.237500X0.300000X-0.237500X0.300000X-0.237500X-0.300000X0*%
%ADD39RoundRect,0.155000X0.212500X0.155000X-0.212500X0.155000X-0.212500X-0.155000X0.212500X-0.155000X0*%
%ADD40RoundRect,0.155000X-0.040659X-0.259862X0.259862X0.040659X0.040659X0.259862X-0.259862X-0.040659X0*%
%ADD41C,1.524000*%
%ADD42RoundRect,0.237500X-0.008839X-0.344715X0.344715X0.008839X0.008839X0.344715X-0.344715X-0.008839X0*%
%ADD43RoundRect,0.102000X-0.400000X0.500000X-0.400000X-0.500000X0.400000X-0.500000X0.400000X0.500000X0*%
%ADD44RoundRect,0.050000X-0.238649X0.167938X0.167938X-0.238649X0.238649X-0.167938X-0.167938X0.238649X0*%
%ADD45RoundRect,0.100000X-0.238649X0.097227X0.097227X-0.238649X0.238649X-0.097227X-0.097227X0.238649X0*%
%ADD46RoundRect,0.062500X-0.088388X0.000000X0.000000X-0.088388X0.088388X0.000000X0.000000X0.088388X0*%
%ADD47RoundRect,0.050000X-0.238649X-0.167938X-0.167938X-0.238649X0.238649X0.167938X0.167938X0.238649X0*%
%ADD48RoundRect,0.100000X-0.238649X-0.097227X-0.097227X-0.238649X0.238649X0.097227X0.097227X0.238649X0*%
%ADD49RotRect,1.900000X1.900000X315.000000*%
%ADD50RoundRect,0.102000X1.015000X0.380000X-1.015000X0.380000X-1.015000X-0.380000X1.015000X-0.380000X0*%
%ADD51RoundRect,0.102000X0.070711X0.636396X-0.636396X-0.070711X-0.070711X-0.636396X0.636396X0.070711X0*%
%ADD52RoundRect,0.237500X0.300000X0.237500X-0.300000X0.237500X-0.300000X-0.237500X0.300000X-0.237500X0*%
%ADD53RotRect,0.300000X1.475000X135.000000*%
%ADD54RotRect,0.300000X1.475000X45.000000*%
%ADD55RoundRect,0.102000X-0.070711X-0.636396X0.636396X0.070711X0.070711X0.636396X-0.636396X-0.070711X0*%
%ADD56RoundRect,0.102000X-0.630000X-0.705000X0.630000X-0.705000X0.630000X0.705000X-0.630000X0.705000X0*%
%ADD57RoundRect,0.150000X-0.512500X-0.150000X0.512500X-0.150000X0.512500X0.150000X-0.512500X0.150000X0*%
%ADD58RoundRect,0.237500X0.008839X0.344715X-0.344715X-0.008839X-0.008839X-0.344715X0.344715X0.008839X0*%
%ADD59RotRect,1.092200X1.219200X45.000000*%
%ADD60RotRect,1.700000X1.700000X45.000000*%
G04 APERTURE END LIST*
D10*
%TO.C,J4*%
X146812000Y-105156000D03*
D11*
X149352000Y-105156000D03*
X151892000Y-105156000D03*
X154432000Y-105156000D03*
X156972000Y-105156000D03*
X159512000Y-105156000D03*
X162052000Y-105156000D03*
X164592000Y-105156000D03*
X167132000Y-105156000D03*
%TD*%
D12*
%TO.C,C1*%
X146076500Y-79375000D03*
X147801500Y-79375000D03*
%TD*%
D13*
%TO.C,C15*%
X176813309Y-92086258D03*
X176010743Y-91283692D03*
%TD*%
D14*
%TO.C,D1*%
X152033000Y-71628000D03*
X153783000Y-71628000D03*
%TD*%
D15*
%TO.C,C32*%
X159618717Y-63098717D03*
X160421283Y-63901283D03*
%TD*%
D16*
%TO.C,U7*%
X157462400Y-90609900D03*
X156512400Y-90609900D03*
X155562400Y-90609900D03*
X155562400Y-92884900D03*
X156512400Y-92884900D03*
X157462400Y-92884900D03*
%TD*%
D17*
%TO.C,R1*%
X141478000Y-98655500D03*
X141478000Y-100480500D03*
%TD*%
D12*
%TO.C,C6*%
X151029500Y-98044000D03*
X152754500Y-98044000D03*
%TD*%
D18*
%TO.C,R22*%
X157528400Y-98702500D03*
X157528400Y-96877500D03*
%TD*%
D13*
%TO.C,C18*%
X174153506Y-94716059D03*
X173350940Y-93913493D03*
%TD*%
D19*
%TO.C,U8*%
X136398000Y-106172000D03*
D20*
X138938000Y-106172000D03*
X141478000Y-106172000D03*
%TD*%
D21*
%TO.C,U3*%
X142937000Y-78105000D03*
X142937000Y-76835000D03*
X142937000Y-75565000D03*
X142937000Y-74295000D03*
X137987000Y-74295000D03*
X137987000Y-75565000D03*
X137987000Y-76835000D03*
X137987000Y-78105000D03*
%TD*%
D18*
%TO.C,R21*%
X155496400Y-98702500D03*
X155496400Y-96877500D03*
%TD*%
D22*
%TO.C,CR1*%
X134478001Y-75431650D03*
X135777999Y-75431650D03*
X135128000Y-73412350D03*
%TD*%
D23*
%TO.C,SW1*%
X186884500Y-98377000D03*
X179684500Y-98377000D03*
X186884500Y-95377000D03*
X179684500Y-95377000D03*
%TD*%
D24*
%TO.C,R7*%
X138533500Y-80772000D03*
X140358500Y-80772000D03*
%TD*%
D25*
%TO.C,C24*%
X167072500Y-84328000D03*
X168207500Y-84328000D03*
%TD*%
D26*
%TO.C,C31*%
X159405283Y-70210717D03*
X158602717Y-71013283D03*
%TD*%
D18*
%TO.C,R6*%
X133507500Y-66751500D03*
X133507500Y-64926500D03*
%TD*%
D12*
%TO.C,C28*%
X160935500Y-89136703D03*
X162660500Y-89136703D03*
%TD*%
D27*
%TO.C,R24*%
X186991000Y-91797000D03*
X185166000Y-91797000D03*
%TD*%
D12*
%TO.C,C10*%
X145281100Y-84328000D03*
X147006100Y-84328000D03*
%TD*%
%TO.C,C2*%
X149338500Y-73787000D03*
X151063500Y-73787000D03*
%TD*%
D28*
%TO.C,U2*%
X146399400Y-75496398D03*
X146399400Y-76446399D03*
X146399400Y-77396400D03*
X149002900Y-77396400D03*
X149002900Y-76446399D03*
X149002900Y-75496398D03*
%TD*%
D12*
%TO.C,C25*%
X160983900Y-94559451D03*
X162708900Y-94559451D03*
%TD*%
%TO.C,C8*%
X151029500Y-84074000D03*
X152754500Y-84074000D03*
%TD*%
D29*
%TO.C,R14*%
X161047511Y-76588591D03*
X159757041Y-75298121D03*
%TD*%
D24*
%TO.C,R4*%
X145231100Y-101092000D03*
X147056100Y-101092000D03*
%TD*%
D10*
%TO.C,J1*%
X143002000Y-58293000D03*
D11*
X145542000Y-58293000D03*
X148082000Y-58293000D03*
X150622000Y-58293000D03*
X153162000Y-58293000D03*
X155702000Y-58293000D03*
%TD*%
D30*
%TO.C,U1*%
X135285000Y-68834000D03*
X135285000Y-69784000D03*
X135285000Y-70734000D03*
X137795000Y-70734000D03*
X137795000Y-69784000D03*
X137795000Y-68834000D03*
%TD*%
D25*
%TO.C,C23*%
X169526501Y-84328000D03*
X170661501Y-84328000D03*
%TD*%
D12*
%TO.C,C5*%
X151029500Y-99822000D03*
X152754500Y-99822000D03*
%TD*%
D18*
%TO.C,R2*%
X141732000Y-84478500D03*
X141732000Y-82653500D03*
%TD*%
D23*
%TO.C,SW5*%
X179684500Y-78232000D03*
X186884500Y-78232000D03*
X179684500Y-81232000D03*
X186884500Y-81232000D03*
%TD*%
D12*
%TO.C,C27*%
X160983900Y-90932000D03*
X162708900Y-90932000D03*
%TD*%
D24*
%TO.C,R11*%
X137771500Y-103124000D03*
X139596500Y-103124000D03*
%TD*%
D31*
%TO.C,H4*%
X183528000Y-105537000D03*
X184230944Y-103839944D03*
X184230944Y-107234056D03*
X185928000Y-103137000D03*
D32*
X185928000Y-105537000D03*
D31*
X185928000Y-107937000D03*
X187625056Y-103839944D03*
X187625056Y-107234056D03*
X188328000Y-105537000D03*
%TD*%
D13*
%TO.C,C16*%
X175915283Y-92984283D03*
X175112717Y-92181717D03*
%TD*%
%TO.C,C4*%
X175153283Y-72537283D03*
X174350717Y-71734717D03*
%TD*%
D33*
%TO.C,J3*%
X129794000Y-85598000D03*
X129794000Y-98298000D03*
D34*
X132334000Y-95504000D03*
D35*
X134112000Y-94488000D03*
X132334000Y-93472000D03*
X134112000Y-92456000D03*
X132334000Y-91440000D03*
X134112000Y-90424000D03*
X132334000Y-89408000D03*
X134112000Y-88392000D03*
X138938000Y-85090000D03*
X138938000Y-87376000D03*
X138938000Y-96520000D03*
X138938000Y-98806000D03*
D36*
X133350000Y-83743800D03*
X133350000Y-100152200D03*
%TD*%
D37*
%TO.C,D9*%
X181238500Y-74733000D03*
X179488500Y-74733000D03*
%TD*%
D23*
%TO.C,SW7*%
X179684500Y-86741000D03*
X186884500Y-86741000D03*
X179684500Y-89741000D03*
X186884500Y-89741000D03*
%TD*%
D31*
%TO.C,H2*%
X126518000Y-105537000D03*
X127220944Y-103839944D03*
X127220944Y-107234056D03*
X128918000Y-103137000D03*
D32*
X128918000Y-105537000D03*
D31*
X128918000Y-107937000D03*
X130615056Y-103839944D03*
X130615056Y-107234056D03*
X131318000Y-105537000D03*
%TD*%
D38*
%TO.C,C14*%
X140970000Y-71220500D03*
X140970000Y-69495500D03*
%TD*%
D12*
%TO.C,C11*%
X145280000Y-99568000D03*
X147005000Y-99568000D03*
%TD*%
D23*
%TO.C,SW6*%
X179557500Y-69723000D03*
X186757500Y-69723000D03*
X179557500Y-72723000D03*
X186757500Y-72723000D03*
%TD*%
D39*
%TO.C,C36*%
X153983500Y-92456000D03*
X152848500Y-92456000D03*
%TD*%
D40*
%TO.C,C30*%
X171196000Y-60706000D03*
X171998566Y-59903434D03*
%TD*%
D38*
%TO.C,C9*%
X143510000Y-101192500D03*
X143510000Y-99467500D03*
%TD*%
D25*
%TO.C,C29*%
X167072500Y-85598000D03*
X168207500Y-85598000D03*
%TD*%
D15*
%TO.C,C13*%
X175366717Y-70718717D03*
X176169283Y-71521283D03*
%TD*%
D41*
%TO.C,Conn1*%
X130429000Y-76962000D03*
X130429000Y-74422000D03*
X130429000Y-71882000D03*
X130429000Y-69342000D03*
%TD*%
D14*
%TO.C,D2*%
X144808000Y-71755000D03*
X146558000Y-71755000D03*
%TD*%
D26*
%TO.C,C34*%
X163723283Y-74528717D03*
X162920717Y-75331283D03*
%TD*%
D42*
%TO.C,R13*%
X169661765Y-94625235D03*
X170952235Y-93334765D03*
%TD*%
D17*
%TO.C,R19*%
X157528400Y-84939500D03*
X157528400Y-86764500D03*
%TD*%
D12*
%TO.C,C7*%
X151029500Y-85852000D03*
X152754500Y-85852000D03*
%TD*%
D43*
%TO.C,FB2*%
X159004000Y-84317000D03*
X159004000Y-85917000D03*
%TD*%
D44*
%TO.C,U4*%
X170364219Y-87684427D03*
X170081377Y-87967270D03*
D45*
X169727823Y-88320823D03*
D44*
X169374270Y-88674377D03*
X169091427Y-88957219D03*
D46*
X168941167Y-89408000D03*
D47*
X169091427Y-89858781D03*
X169374270Y-90141623D03*
D48*
X169727823Y-90495177D03*
D47*
X170081377Y-90848730D03*
X170364219Y-91131573D03*
D46*
X170815000Y-91281833D03*
D44*
X171265781Y-91131573D03*
X171548623Y-90848730D03*
D45*
X171902177Y-90495177D03*
D44*
X172255730Y-90141623D03*
X172538573Y-89858781D03*
D46*
X172688833Y-89408000D03*
D47*
X172538573Y-88957219D03*
X172255730Y-88674377D03*
D48*
X171902177Y-88320823D03*
D47*
X171548623Y-87967270D03*
X171265781Y-87684427D03*
D46*
X170815000Y-87534167D03*
D49*
X170815000Y-89408000D03*
%TD*%
D50*
%TO.C,T1*%
X150614000Y-96393000D03*
X150614000Y-95123000D03*
X150614000Y-93853000D03*
X150614000Y-92583000D03*
X150614000Y-91313000D03*
X150614000Y-90043000D03*
X150614000Y-88773000D03*
X150614000Y-87503000D03*
X141994000Y-87503000D03*
X141994000Y-88773000D03*
X141994000Y-90043000D03*
X141994000Y-91313000D03*
X141994000Y-92583000D03*
X141994000Y-93853000D03*
X141994000Y-95123000D03*
X141994000Y-96393000D03*
%TD*%
D13*
%TO.C,C20*%
X159151283Y-65171283D03*
X158348717Y-64368717D03*
%TD*%
D15*
%TO.C,C33*%
X171048717Y-75036717D03*
X171851283Y-75839283D03*
%TD*%
D42*
%TO.C,R15*%
X161406765Y-62875235D03*
X162697235Y-61584765D03*
%TD*%
D51*
%TO.C,FB1*%
X175317685Y-90112315D03*
X174186315Y-91243685D03*
%TD*%
D52*
%TO.C,C37*%
X153643500Y-78359000D03*
X151918500Y-78359000D03*
%TD*%
D53*
%TO.C,IC2*%
X160803971Y-69096728D03*
X161157524Y-69450282D03*
X161511078Y-69803835D03*
X161864631Y-70157388D03*
X162218184Y-70510942D03*
X162571738Y-70864495D03*
X162925291Y-71218049D03*
X163278845Y-71571602D03*
X163632398Y-71925155D03*
X163985951Y-72278709D03*
X164339505Y-72632262D03*
X164693058Y-72985816D03*
X165046612Y-73339369D03*
X165400165Y-73692922D03*
X165753718Y-74046476D03*
X166107272Y-74400029D03*
D54*
X168918728Y-74400029D03*
X169272282Y-74046476D03*
X169625835Y-73692922D03*
X169979388Y-73339369D03*
X170332942Y-72985816D03*
X170686495Y-72632262D03*
X171040049Y-72278709D03*
X171393602Y-71925155D03*
X171747155Y-71571602D03*
X172100709Y-71218049D03*
X172454262Y-70864495D03*
X172807816Y-70510942D03*
X173161369Y-70157388D03*
X173514922Y-69803835D03*
X173868476Y-69450282D03*
X174222029Y-69096728D03*
D53*
X174222029Y-66285272D03*
X173868476Y-65931718D03*
X173514922Y-65578165D03*
X173161369Y-65224612D03*
X172807816Y-64871058D03*
X172454262Y-64517505D03*
X172100709Y-64163951D03*
X171747155Y-63810398D03*
X171393602Y-63456845D03*
X171040049Y-63103291D03*
X170686495Y-62749738D03*
X170332942Y-62396184D03*
X169979388Y-62042631D03*
X169625835Y-61689078D03*
X169272282Y-61335524D03*
X168918728Y-60981971D03*
D54*
X166107272Y-60981971D03*
X165753718Y-61335524D03*
X165400165Y-61689078D03*
X165046612Y-62042631D03*
X164693058Y-62396184D03*
X164339505Y-62749738D03*
X163985951Y-63103291D03*
X163632398Y-63456845D03*
X163278845Y-63810398D03*
X162925291Y-64163951D03*
X162571738Y-64517505D03*
X162218184Y-64871058D03*
X161864631Y-65224612D03*
X161511078Y-65578165D03*
X161157524Y-65931718D03*
X160803971Y-66285272D03*
%TD*%
D17*
%TO.C,R20*%
X155496400Y-84939500D03*
X155496400Y-86764500D03*
%TD*%
D18*
%TO.C,R10*%
X139603500Y-66751500D03*
X139603500Y-64926500D03*
%TD*%
D26*
%TO.C,C35*%
X162707283Y-73512717D03*
X161904717Y-74315283D03*
%TD*%
D10*
%TO.C,JP1*%
X149352000Y-65278000D03*
D11*
X151892000Y-65278000D03*
X154432000Y-65278000D03*
%TD*%
D27*
%TO.C,R17*%
X186864000Y-74733000D03*
X185039000Y-74733000D03*
%TD*%
D37*
%TO.C,D3*%
X181224500Y-83288000D03*
X179474500Y-83288000D03*
%TD*%
D55*
%TO.C,FB4*%
X167905630Y-80379370D03*
X169037000Y-79248000D03*
%TD*%
D27*
%TO.C,R18*%
X187141500Y-83288000D03*
X185316500Y-83288000D03*
%TD*%
D56*
%TO.C,L1*%
X151003000Y-76073000D03*
X153463000Y-76073000D03*
%TD*%
D27*
%TO.C,R16*%
X146595500Y-69977000D03*
X144770500Y-69977000D03*
%TD*%
D13*
%TO.C,C17*%
X175017258Y-93882309D03*
X174214692Y-93079743D03*
%TD*%
D31*
%TO.C,H1*%
X185928000Y-61074000D03*
X184230944Y-60371056D03*
X187625056Y-60371056D03*
X183528000Y-58674000D03*
D32*
X185928000Y-58674000D03*
D31*
X188328000Y-58674000D03*
X184230944Y-56976944D03*
X187625056Y-56976944D03*
X185928000Y-56274000D03*
%TD*%
D27*
%TO.C,R9*%
X135786500Y-76962000D03*
X133961500Y-76962000D03*
%TD*%
D24*
%TO.C,R3*%
X145233000Y-82550000D03*
X147058000Y-82550000D03*
%TD*%
D12*
%TO.C,C26*%
X160983900Y-92763400D03*
X162708900Y-92763400D03*
%TD*%
D57*
%TO.C,U6*%
X135418000Y-65143000D03*
X135418000Y-66093000D03*
X135418000Y-67043000D03*
X137693000Y-67043000D03*
X137693000Y-66093000D03*
X137693000Y-65143000D03*
%TD*%
D27*
%TO.C,R23*%
X153820500Y-69850000D03*
X151995500Y-69850000D03*
%TD*%
D58*
%TO.C,R5*%
X161296497Y-79488027D03*
X160006027Y-80778497D03*
%TD*%
D37*
%TO.C,D10*%
X181365500Y-91797000D03*
X179615500Y-91797000D03*
%TD*%
D12*
%TO.C,C12*%
X179604500Y-100584000D03*
X181329500Y-100584000D03*
%TD*%
D59*
%TO.C,U5*%
X156969356Y-77852276D03*
X158621724Y-79504644D03*
X160022644Y-78103724D03*
X158370276Y-76451356D03*
%TD*%
D52*
%TO.C,C3*%
X153643500Y-80137000D03*
X151918500Y-80137000D03*
%TD*%
D40*
%TO.C,C19*%
X170286717Y-59837283D03*
X171089283Y-59034717D03*
%TD*%
D29*
%TO.C,R8*%
X173746235Y-96530235D03*
X172455765Y-95239765D03*
%TD*%
D17*
%TO.C,R12*%
X172212000Y-83415500D03*
X172212000Y-85240500D03*
%TD*%
D60*
%TO.C,J2*%
X175892672Y-58763317D03*
D11*
X177688723Y-60559368D03*
X179484774Y-62355419D03*
X181280826Y-64151471D03*
%TD*%
D25*
%TO.C,C22*%
X169526501Y-85598000D03*
X170661501Y-85598000D03*
%TD*%
D31*
%TO.C,H3*%
X126505000Y-58687000D03*
X127207944Y-56989944D03*
X127207944Y-60384056D03*
X128905000Y-56287000D03*
D32*
X128905000Y-58687000D03*
D31*
X128905000Y-61087000D03*
X130602056Y-56989944D03*
X130602056Y-60384056D03*
X131305000Y-58687000D03*
%TD*%
G36*
X185928841Y-55118011D02*
G01*
X186108542Y-55120362D01*
X186119881Y-55121030D01*
X186478204Y-55158691D01*
X186491024Y-55160722D01*
X186842632Y-55235459D01*
X186855169Y-55238818D01*
X187197048Y-55349901D01*
X187209165Y-55354552D01*
X187537563Y-55500764D01*
X187549128Y-55506657D01*
X187860438Y-55686392D01*
X187871323Y-55693461D01*
X188162139Y-55904751D01*
X188172226Y-55912919D01*
X188439367Y-56153454D01*
X188448545Y-56162632D01*
X188689080Y-56429773D01*
X188697248Y-56439860D01*
X188908538Y-56730676D01*
X188915607Y-56741561D01*
X189095342Y-57052871D01*
X189101235Y-57064436D01*
X189247447Y-57392834D01*
X189252098Y-57404951D01*
X189363181Y-57746830D01*
X189366540Y-57759367D01*
X189441277Y-58110975D01*
X189443308Y-58123795D01*
X189480969Y-58482118D01*
X189481637Y-58493456D01*
X189483989Y-58673158D01*
X189484000Y-58674781D01*
X189484000Y-105536218D01*
X189483989Y-105537841D01*
X189481637Y-105717543D01*
X189480969Y-105728881D01*
X189443308Y-106087204D01*
X189441277Y-106100024D01*
X189366540Y-106451632D01*
X189363181Y-106464169D01*
X189252098Y-106806048D01*
X189247447Y-106818165D01*
X189101235Y-107146563D01*
X189095342Y-107158128D01*
X188915607Y-107469438D01*
X188908538Y-107480323D01*
X188697248Y-107771139D01*
X188689080Y-107781226D01*
X188448545Y-108048367D01*
X188439367Y-108057545D01*
X188172226Y-108298080D01*
X188162139Y-108306248D01*
X187871323Y-108517538D01*
X187860438Y-108524607D01*
X187549128Y-108704342D01*
X187537563Y-108710235D01*
X187209165Y-108856447D01*
X187197048Y-108861098D01*
X186855169Y-108972181D01*
X186842632Y-108975540D01*
X186491024Y-109050277D01*
X186478204Y-109052308D01*
X186119881Y-109089969D01*
X186108543Y-109090637D01*
X185928842Y-109092989D01*
X185927219Y-109093000D01*
X128905781Y-109093000D01*
X128904158Y-109092989D01*
X128724456Y-109090637D01*
X128713118Y-109089969D01*
X128354795Y-109052308D01*
X128341975Y-109050277D01*
X127990367Y-108975540D01*
X127977830Y-108972181D01*
X127635951Y-108861098D01*
X127623834Y-108856447D01*
X127295436Y-108710235D01*
X127283871Y-108704342D01*
X126972561Y-108524607D01*
X126961676Y-108517538D01*
X126670860Y-108306248D01*
X126660773Y-108298080D01*
X126393632Y-108057545D01*
X126384454Y-108048367D01*
X126143919Y-107781226D01*
X126135751Y-107771139D01*
X125924461Y-107480323D01*
X125917392Y-107469438D01*
X125737657Y-107158128D01*
X125731764Y-107146563D01*
X125585552Y-106818165D01*
X125580901Y-106806048D01*
X125469818Y-106464169D01*
X125466459Y-106451632D01*
X125391722Y-106100024D01*
X125389691Y-106087204D01*
X125352030Y-105728881D01*
X125351362Y-105717542D01*
X125349011Y-105537840D01*
X125349000Y-105536218D01*
X125349000Y-102146529D01*
X125368685Y-102079490D01*
X125421489Y-102033735D01*
X125490647Y-102023791D01*
X125550243Y-102049526D01*
X126597634Y-102883560D01*
X126637816Y-102940720D01*
X126644391Y-102980581D01*
X126644000Y-105648081D01*
X126644000Y-105648087D01*
X126665772Y-105869147D01*
X126709114Y-106087038D01*
X126773602Y-106299629D01*
X126858620Y-106504877D01*
X126858622Y-106504882D01*
X126963330Y-106700776D01*
X126963341Y-106700794D01*
X127086753Y-106885493D01*
X127086763Y-106885507D01*
X127227689Y-107057225D01*
X127384773Y-107214309D01*
X127556491Y-107355235D01*
X127556505Y-107355245D01*
X127741204Y-107478657D01*
X127741222Y-107478668D01*
X127937116Y-107583376D01*
X127937121Y-107583378D01*
X128142369Y-107668396D01*
X128354960Y-107732884D01*
X128572846Y-107776225D01*
X128572859Y-107776227D01*
X128793924Y-107798000D01*
X186039076Y-107798000D01*
X186260139Y-107776227D01*
X186260152Y-107776225D01*
X186478038Y-107732884D01*
X186690629Y-107668396D01*
X186895877Y-107583378D01*
X186895882Y-107583376D01*
X187091776Y-107478668D01*
X187091794Y-107478657D01*
X187276493Y-107355245D01*
X187276507Y-107355235D01*
X187448225Y-107214309D01*
X187605309Y-107057225D01*
X187746235Y-106885507D01*
X187746245Y-106885493D01*
X187869657Y-106700794D01*
X187869668Y-106700776D01*
X187974376Y-106504882D01*
X187974378Y-106504877D01*
X188059396Y-106299629D01*
X188123884Y-106087038D01*
X188167225Y-105869152D01*
X188167227Y-105869139D01*
X188189000Y-105648074D01*
X188189000Y-58562924D01*
X188167227Y-58341859D01*
X188167225Y-58341846D01*
X188123884Y-58123960D01*
X188059396Y-57911369D01*
X187974378Y-57706121D01*
X187974376Y-57706116D01*
X187869668Y-57510222D01*
X187869657Y-57510204D01*
X187746245Y-57325505D01*
X187746235Y-57325491D01*
X187605309Y-57153773D01*
X187448225Y-56996689D01*
X187276507Y-56855763D01*
X187276493Y-56855753D01*
X187091794Y-56732341D01*
X187091776Y-56732330D01*
X186895882Y-56627622D01*
X186895877Y-56627620D01*
X186690629Y-56542602D01*
X186478038Y-56478114D01*
X186260146Y-56434772D01*
X186039077Y-56413000D01*
X128793924Y-56413000D01*
X128572852Y-56434772D01*
X128354960Y-56478114D01*
X128142369Y-56542602D01*
X127937121Y-56627620D01*
X127937116Y-56627622D01*
X127741222Y-56732330D01*
X127741204Y-56732341D01*
X127556505Y-56855753D01*
X127556491Y-56855763D01*
X127384773Y-56996689D01*
X127227689Y-57153773D01*
X127086763Y-57325491D01*
X127086753Y-57325505D01*
X126963341Y-57510204D01*
X126963330Y-57510222D01*
X126858622Y-57706116D01*
X126858620Y-57706121D01*
X126773602Y-57911369D01*
X126709114Y-58123960D01*
X126665772Y-58341852D01*
X126644000Y-58562924D01*
X126644000Y-80962198D01*
X126624315Y-81029237D01*
X126592087Y-81063091D01*
X125545087Y-81811158D01*
X125479096Y-81834115D01*
X125411170Y-81817750D01*
X125362875Y-81767260D01*
X125349000Y-81710265D01*
X125349000Y-58674781D01*
X125349011Y-58673159D01*
X125351362Y-58493457D01*
X125352030Y-58482118D01*
X125389691Y-58123795D01*
X125391722Y-58110975D01*
X125466459Y-57759367D01*
X125469818Y-57746830D01*
X125580901Y-57404951D01*
X125585552Y-57392834D01*
X125731764Y-57064436D01*
X125737657Y-57052871D01*
X125917392Y-56741561D01*
X125924461Y-56730676D01*
X126135751Y-56439860D01*
X126143919Y-56429773D01*
X126384454Y-56162632D01*
X126393632Y-56153454D01*
X126660773Y-55912919D01*
X126670860Y-55904751D01*
X126961676Y-55693461D01*
X126972561Y-55686392D01*
X127283871Y-55506657D01*
X127295436Y-55500764D01*
X127623834Y-55354552D01*
X127635951Y-55349901D01*
X127977830Y-55238818D01*
X127990367Y-55235459D01*
X128341975Y-55160722D01*
X128354795Y-55158691D01*
X128713118Y-55121030D01*
X128724457Y-55120362D01*
X128904159Y-55118011D01*
X128905781Y-55118000D01*
X185927219Y-55118000D01*
X185928841Y-55118011D01*
G37*
M02*
