G04 #@! TF.GenerationSoftware,KiCad,Pcbnew,7.0.5*
G04 #@! TF.CreationDate,2024-03-22T23:59:22-05:00*
G04 #@! TF.ProjectId,RotatingSignalStack_board,526f7461-7469-46e6-9753-69676e616c53,rev?*
G04 #@! TF.SameCoordinates,Original*
G04 #@! TF.FileFunction,Soldermask,Bot*
G04 #@! TF.FilePolarity,Negative*
%FSLAX46Y46*%
G04 Gerber Fmt 4.6, Leading zero omitted, Abs format (unit mm)*
G04 Created by KiCad (PCBNEW 7.0.5) date 2024-03-22 23:59:22*
%MOMM*%
%LPD*%
G01*
G04 APERTURE LIST*
%ADD10C,1.524000*%
%ADD11C,2.946400*%
%ADD12O,5.100000X3.000000*%
%ADD13C,1.308000*%
%ADD14C,1.208000*%
%ADD15C,3.450000*%
%ADD16C,1.100000*%
%ADD17C,1.400000*%
%ADD18C,4.000000*%
%ADD19C,2.000000*%
G04 APERTURE END LIST*
D10*
X157099000Y-88900000D03*
X157099000Y-86360000D03*
X157099000Y-83820000D03*
D11*
X131572000Y-119380000D03*
D12*
X139814300Y-103173500D03*
X139814300Y-95299500D03*
D13*
X218186000Y-102616000D03*
X215646000Y-102616000D03*
X213106000Y-102616000D03*
X210566000Y-102616000D03*
X185166000Y-102616000D03*
X215646000Y-117856000D03*
X208026000Y-102616000D03*
X205486000Y-102616000D03*
X202946000Y-102616000D03*
X200406000Y-102616000D03*
X197866000Y-102616000D03*
X195326000Y-102616000D03*
X192786000Y-102616000D03*
X190246000Y-102616000D03*
X187706000Y-102616000D03*
X187706000Y-117856000D03*
X190246000Y-117856000D03*
X192786000Y-117856000D03*
X195326000Y-117856000D03*
X197866000Y-117856000D03*
X200406000Y-117856000D03*
X202946000Y-117856000D03*
X205486000Y-117856000D03*
X208026000Y-117856000D03*
X210566000Y-117856000D03*
X213106000Y-117856000D03*
X182626000Y-102616000D03*
X180086000Y-102616000D03*
X177546000Y-102616000D03*
X175006000Y-102616000D03*
X172466000Y-102616000D03*
X169926000Y-102616000D03*
X167386000Y-102616000D03*
X164846000Y-102616000D03*
X162306000Y-102616000D03*
X162306000Y-117856000D03*
X164846000Y-117856000D03*
X167386000Y-117856000D03*
X169926000Y-117856000D03*
X172466000Y-117856000D03*
X175006000Y-117856000D03*
X177546000Y-117856000D03*
X180086000Y-117856000D03*
X182626000Y-117856000D03*
X220726000Y-102616000D03*
X185166000Y-117856000D03*
X218186000Y-117856000D03*
D14*
X205756000Y-113406000D03*
X207756000Y-113406000D03*
X207756000Y-115406000D03*
X205756000Y-115406000D03*
X205756000Y-111406000D03*
X207756000Y-111406000D03*
D13*
X220726000Y-117856000D03*
D11*
X226822000Y-81280000D03*
X226822000Y-119380000D03*
D12*
X149466300Y-103173500D03*
X149466300Y-95299500D03*
D11*
X131572000Y-81280000D03*
D15*
X190246000Y-81661000D03*
X200406000Y-81661000D03*
D10*
X191516000Y-90297000D03*
X194056000Y-90297000D03*
X196596000Y-90297000D03*
X199136000Y-90297000D03*
D16*
X218948000Y-94488000D03*
X217678000Y-97028000D03*
X216408000Y-94488000D03*
X215138000Y-97028000D03*
X213868000Y-94488000D03*
X212598000Y-97028000D03*
X211328000Y-94488000D03*
X210058000Y-97028000D03*
D17*
X220828000Y-83058000D03*
X218288000Y-84848000D03*
X210718000Y-83058000D03*
X208178000Y-84848000D03*
D18*
X220218000Y-88138000D03*
X208788000Y-88138000D03*
D19*
X222378000Y-91188000D03*
X206628000Y-91188000D03*
D15*
X177546000Y-81661000D03*
X185166000Y-81661000D03*
D10*
X178816000Y-90297000D03*
X181356000Y-90297000D03*
X183896000Y-90297000D03*
M02*
