G04 #@! TF.GenerationSoftware,KiCad,Pcbnew,7.0.5*
G04 #@! TF.CreationDate,2024-03-26T19:12:46-05:00*
G04 #@! TF.ProjectId,RotatingSignalStack_board,526f7461-7469-46e6-9753-69676e616c53,rev?*
G04 #@! TF.SameCoordinates,Original*
G04 #@! TF.FileFunction,Paste,Top*
G04 #@! TF.FilePolarity,Positive*
%FSLAX46Y46*%
G04 Gerber Fmt 4.6, Leading zero omitted, Abs format (unit mm)*
G04 Created by KiCad (PCBNEW 7.0.5) date 2024-03-26 19:12:46*
%MOMM*%
%LPD*%
G01*
G04 APERTURE LIST*
G04 Aperture macros list*
%AMRoundRect*
0 Rectangle with rounded corners*
0 $1 Rounding radius*
0 $2 $3 $4 $5 $6 $7 $8 $9 X,Y pos of 4 corners*
0 Add a 4 corners polygon primitive as box body*
4,1,4,$2,$3,$4,$5,$6,$7,$8,$9,$2,$3,0*
0 Add four circle primitives for the rounded corners*
1,1,$1+$1,$2,$3*
1,1,$1+$1,$4,$5*
1,1,$1+$1,$6,$7*
1,1,$1+$1,$8,$9*
0 Add four rect primitives between the rounded corners*
20,1,$1+$1,$2,$3,$4,$5,0*
20,1,$1+$1,$4,$5,$6,$7,0*
20,1,$1+$1,$6,$7,$8,$9,0*
20,1,$1+$1,$8,$9,$2,$3,0*%
G04 Aperture macros list end*
%ADD10RoundRect,0.237500X-0.237500X0.300000X-0.237500X-0.300000X0.237500X-0.300000X0.237500X0.300000X0*%
%ADD11RoundRect,0.237500X0.250000X0.237500X-0.250000X0.237500X-0.250000X-0.237500X0.250000X-0.237500X0*%
%ADD12O,5.100000X3.000000*%
%ADD13RoundRect,0.237500X0.237500X-0.250000X0.237500X0.250000X-0.237500X0.250000X-0.237500X-0.250000X0*%
%ADD14RoundRect,0.237500X0.287500X0.237500X-0.287500X0.237500X-0.287500X-0.237500X0.287500X-0.237500X0*%
%ADD15RoundRect,0.237500X0.300000X0.237500X-0.300000X0.237500X-0.300000X-0.237500X0.300000X-0.237500X0*%
%ADD16RoundRect,0.237500X-0.300000X-0.237500X0.300000X-0.237500X0.300000X0.237500X-0.300000X0.237500X0*%
%ADD17RoundRect,0.237500X-0.250000X-0.237500X0.250000X-0.237500X0.250000X0.237500X-0.250000X0.237500X0*%
%ADD18R,1.600000X1.400000*%
G04 APERTURE END LIST*
D10*
X224536000Y-97181500D03*
X224536000Y-98906500D03*
D11*
X134667000Y-88900000D03*
X132842000Y-88900000D03*
D12*
X139814300Y-103173500D03*
X139814300Y-95299500D03*
D13*
X201168000Y-98448500D03*
X201168000Y-96623500D03*
D14*
X157226000Y-120650000D03*
X155476000Y-120650000D03*
D13*
X194564000Y-98448500D03*
X194564000Y-96623500D03*
D14*
X132842000Y-99060000D03*
X134592000Y-99060000D03*
D12*
X149466300Y-103173500D03*
X149466300Y-95299500D03*
D15*
X132895000Y-92964000D03*
X134620000Y-92964000D03*
D14*
X134592000Y-90932000D03*
X132842000Y-90932000D03*
D16*
X157125500Y-80010000D03*
X158850500Y-80010000D03*
D17*
X139803500Y-120650000D03*
X141628500Y-120650000D03*
D15*
X132895000Y-94996000D03*
X134620000Y-94996000D03*
D18*
X139148000Y-115340000D03*
X146348000Y-115340000D03*
X139148000Y-118340000D03*
X146348000Y-118340000D03*
D17*
X134620000Y-97028000D03*
X132795000Y-97028000D03*
D14*
X145655000Y-120650000D03*
X143905000Y-120650000D03*
D18*
X150719000Y-115340000D03*
X157919000Y-115340000D03*
X150719000Y-118340000D03*
X157919000Y-118340000D03*
D17*
X151374500Y-120650000D03*
X153199500Y-120650000D03*
D16*
X157125500Y-92710000D03*
X158850500Y-92710000D03*
M02*
