G04 #@! TF.GenerationSoftware,KiCad,Pcbnew,7.0.5*
G04 #@! TF.CreationDate,2024-03-22T23:59:22-05:00*
G04 #@! TF.ProjectId,RotatingSignalStack_board,526f7461-7469-46e6-9753-69676e616c53,rev?*
G04 #@! TF.SameCoordinates,Original*
G04 #@! TF.FileFunction,Legend,Top*
G04 #@! TF.FilePolarity,Positive*
%FSLAX46Y46*%
G04 Gerber Fmt 4.6, Leading zero omitted, Abs format (unit mm)*
G04 Created by KiCad (PCBNEW 7.0.5) date 2024-03-22 23:59:22*
%MOMM*%
%LPD*%
G01*
G04 APERTURE LIST*
G04 Aperture macros list*
%AMRoundRect*
0 Rectangle with rounded corners*
0 $1 Rounding radius*
0 $2 $3 $4 $5 $6 $7 $8 $9 X,Y pos of 4 corners*
0 Add a 4 corners polygon primitive as box body*
4,1,4,$2,$3,$4,$5,$6,$7,$8,$9,$2,$3,0*
0 Add four circle primitives for the rounded corners*
1,1,$1+$1,$2,$3*
1,1,$1+$1,$4,$5*
1,1,$1+$1,$6,$7*
1,1,$1+$1,$8,$9*
0 Add four rect primitives between the rounded corners*
20,1,$1+$1,$2,$3,$4,$5,0*
20,1,$1+$1,$4,$5,$6,$7,0*
20,1,$1+$1,$6,$7,$8,$9,0*
20,1,$1+$1,$8,$9,$2,$3,0*%
G04 Aperture macros list end*
%ADD10C,0.150000*%
%ADD11C,0.120000*%
%ADD12C,0.127000*%
%ADD13C,0.200000*%
%ADD14C,0.010000*%
%ADD15RoundRect,0.237500X-0.237500X0.300000X-0.237500X-0.300000X0.237500X-0.300000X0.237500X0.300000X0*%
%ADD16C,1.524000*%
%ADD17RoundRect,0.237500X0.250000X0.237500X-0.250000X0.237500X-0.250000X-0.237500X0.250000X-0.237500X0*%
%ADD18C,2.946400*%
%ADD19O,5.100000X3.000000*%
%ADD20C,1.308000*%
%ADD21C,1.208000*%
%ADD22RoundRect,0.237500X0.300000X0.237500X-0.300000X0.237500X-0.300000X-0.237500X0.300000X-0.237500X0*%
%ADD23RoundRect,0.237500X0.237500X-0.250000X0.237500X0.250000X-0.237500X0.250000X-0.237500X-0.250000X0*%
%ADD24RoundRect,0.237500X0.287500X0.237500X-0.287500X0.237500X-0.287500X-0.237500X0.287500X-0.237500X0*%
%ADD25RoundRect,0.237500X-0.300000X-0.237500X0.300000X-0.237500X0.300000X0.237500X-0.300000X0.237500X0*%
%ADD26RoundRect,0.237500X-0.250000X-0.237500X0.250000X-0.237500X0.250000X0.237500X-0.250000X0.237500X0*%
%ADD27R,1.600000X1.400000*%
%ADD28C,3.450000*%
%ADD29C,1.100000*%
%ADD30C,1.400000*%
%ADD31C,4.000000*%
%ADD32C,2.000000*%
G04 APERTURE END LIST*
D10*
X199543200Y-94198839D02*
X199590819Y-94055982D01*
X199590819Y-94055982D02*
X199590819Y-93817887D01*
X199590819Y-93817887D02*
X199543200Y-93722649D01*
X199543200Y-93722649D02*
X199495580Y-93675030D01*
X199495580Y-93675030D02*
X199400342Y-93627411D01*
X199400342Y-93627411D02*
X199305104Y-93627411D01*
X199305104Y-93627411D02*
X199209866Y-93675030D01*
X199209866Y-93675030D02*
X199162247Y-93722649D01*
X199162247Y-93722649D02*
X199114628Y-93817887D01*
X199114628Y-93817887D02*
X199067009Y-94008363D01*
X199067009Y-94008363D02*
X199019390Y-94103601D01*
X199019390Y-94103601D02*
X198971771Y-94151220D01*
X198971771Y-94151220D02*
X198876533Y-94198839D01*
X198876533Y-94198839D02*
X198781295Y-94198839D01*
X198781295Y-94198839D02*
X198686057Y-94151220D01*
X198686057Y-94151220D02*
X198638438Y-94103601D01*
X198638438Y-94103601D02*
X198590819Y-94008363D01*
X198590819Y-94008363D02*
X198590819Y-93770268D01*
X198590819Y-93770268D02*
X198638438Y-93627411D01*
X199590819Y-93198839D02*
X198590819Y-93198839D01*
X198590819Y-93198839D02*
X198590819Y-92960744D01*
X198590819Y-92960744D02*
X198638438Y-92817887D01*
X198638438Y-92817887D02*
X198733676Y-92722649D01*
X198733676Y-92722649D02*
X198828914Y-92675030D01*
X198828914Y-92675030D02*
X199019390Y-92627411D01*
X199019390Y-92627411D02*
X199162247Y-92627411D01*
X199162247Y-92627411D02*
X199352723Y-92675030D01*
X199352723Y-92675030D02*
X199447961Y-92722649D01*
X199447961Y-92722649D02*
X199543200Y-92817887D01*
X199543200Y-92817887D02*
X199590819Y-92960744D01*
X199590819Y-92960744D02*
X199590819Y-93198839D01*
X199305104Y-92246458D02*
X199305104Y-91770268D01*
X199590819Y-92341696D02*
X198590819Y-92008363D01*
X198590819Y-92008363D02*
X199590819Y-91675030D01*
X197003200Y-94198839D02*
X197050819Y-94055982D01*
X197050819Y-94055982D02*
X197050819Y-93817887D01*
X197050819Y-93817887D02*
X197003200Y-93722649D01*
X197003200Y-93722649D02*
X196955580Y-93675030D01*
X196955580Y-93675030D02*
X196860342Y-93627411D01*
X196860342Y-93627411D02*
X196765104Y-93627411D01*
X196765104Y-93627411D02*
X196669866Y-93675030D01*
X196669866Y-93675030D02*
X196622247Y-93722649D01*
X196622247Y-93722649D02*
X196574628Y-93817887D01*
X196574628Y-93817887D02*
X196527009Y-94008363D01*
X196527009Y-94008363D02*
X196479390Y-94103601D01*
X196479390Y-94103601D02*
X196431771Y-94151220D01*
X196431771Y-94151220D02*
X196336533Y-94198839D01*
X196336533Y-94198839D02*
X196241295Y-94198839D01*
X196241295Y-94198839D02*
X196146057Y-94151220D01*
X196146057Y-94151220D02*
X196098438Y-94103601D01*
X196098438Y-94103601D02*
X196050819Y-94008363D01*
X196050819Y-94008363D02*
X196050819Y-93770268D01*
X196050819Y-93770268D02*
X196098438Y-93627411D01*
X196955580Y-92627411D02*
X197003200Y-92675030D01*
X197003200Y-92675030D02*
X197050819Y-92817887D01*
X197050819Y-92817887D02*
X197050819Y-92913125D01*
X197050819Y-92913125D02*
X197003200Y-93055982D01*
X197003200Y-93055982D02*
X196907961Y-93151220D01*
X196907961Y-93151220D02*
X196812723Y-93198839D01*
X196812723Y-93198839D02*
X196622247Y-93246458D01*
X196622247Y-93246458D02*
X196479390Y-93246458D01*
X196479390Y-93246458D02*
X196288914Y-93198839D01*
X196288914Y-93198839D02*
X196193676Y-93151220D01*
X196193676Y-93151220D02*
X196098438Y-93055982D01*
X196098438Y-93055982D02*
X196050819Y-92913125D01*
X196050819Y-92913125D02*
X196050819Y-92817887D01*
X196050819Y-92817887D02*
X196098438Y-92675030D01*
X196098438Y-92675030D02*
X196146057Y-92627411D01*
X197050819Y-91722649D02*
X197050819Y-92198839D01*
X197050819Y-92198839D02*
X196050819Y-92198839D01*
X193558438Y-93881411D02*
X193510819Y-93976649D01*
X193510819Y-93976649D02*
X193510819Y-94119506D01*
X193510819Y-94119506D02*
X193558438Y-94262363D01*
X193558438Y-94262363D02*
X193653676Y-94357601D01*
X193653676Y-94357601D02*
X193748914Y-94405220D01*
X193748914Y-94405220D02*
X193939390Y-94452839D01*
X193939390Y-94452839D02*
X194082247Y-94452839D01*
X194082247Y-94452839D02*
X194272723Y-94405220D01*
X194272723Y-94405220D02*
X194367961Y-94357601D01*
X194367961Y-94357601D02*
X194463200Y-94262363D01*
X194463200Y-94262363D02*
X194510819Y-94119506D01*
X194510819Y-94119506D02*
X194510819Y-94024268D01*
X194510819Y-94024268D02*
X194463200Y-93881411D01*
X194463200Y-93881411D02*
X194415580Y-93833792D01*
X194415580Y-93833792D02*
X194082247Y-93833792D01*
X194082247Y-93833792D02*
X194082247Y-94024268D01*
X194510819Y-93405220D02*
X193510819Y-93405220D01*
X193510819Y-93405220D02*
X194510819Y-92833792D01*
X194510819Y-92833792D02*
X193510819Y-92833792D01*
X194510819Y-92357601D02*
X193510819Y-92357601D01*
X193510819Y-92357601D02*
X193510819Y-92119506D01*
X193510819Y-92119506D02*
X193558438Y-91976649D01*
X193558438Y-91976649D02*
X193653676Y-91881411D01*
X193653676Y-91881411D02*
X193748914Y-91833792D01*
X193748914Y-91833792D02*
X193939390Y-91786173D01*
X193939390Y-91786173D02*
X194082247Y-91786173D01*
X194082247Y-91786173D02*
X194272723Y-91833792D01*
X194272723Y-91833792D02*
X194367961Y-91881411D01*
X194367961Y-91881411D02*
X194463200Y-91976649D01*
X194463200Y-91976649D02*
X194510819Y-92119506D01*
X194510819Y-92119506D02*
X194510819Y-92357601D01*
X190970819Y-94246458D02*
X190970819Y-93627411D01*
X190970819Y-93627411D02*
X191351771Y-93960744D01*
X191351771Y-93960744D02*
X191351771Y-93817887D01*
X191351771Y-93817887D02*
X191399390Y-93722649D01*
X191399390Y-93722649D02*
X191447009Y-93675030D01*
X191447009Y-93675030D02*
X191542247Y-93627411D01*
X191542247Y-93627411D02*
X191780342Y-93627411D01*
X191780342Y-93627411D02*
X191875580Y-93675030D01*
X191875580Y-93675030D02*
X191923200Y-93722649D01*
X191923200Y-93722649D02*
X191970819Y-93817887D01*
X191970819Y-93817887D02*
X191970819Y-94103601D01*
X191970819Y-94103601D02*
X191923200Y-94198839D01*
X191923200Y-94198839D02*
X191875580Y-94246458D01*
X190970819Y-93341696D02*
X191970819Y-93008363D01*
X191970819Y-93008363D02*
X190970819Y-92675030D01*
X190970819Y-92436934D02*
X190970819Y-91817887D01*
X190970819Y-91817887D02*
X191351771Y-92151220D01*
X191351771Y-92151220D02*
X191351771Y-92008363D01*
X191351771Y-92008363D02*
X191399390Y-91913125D01*
X191399390Y-91913125D02*
X191447009Y-91865506D01*
X191447009Y-91865506D02*
X191542247Y-91817887D01*
X191542247Y-91817887D02*
X191780342Y-91817887D01*
X191780342Y-91817887D02*
X191875580Y-91865506D01*
X191875580Y-91865506D02*
X191923200Y-91913125D01*
X191923200Y-91913125D02*
X191970819Y-92008363D01*
X191970819Y-92008363D02*
X191970819Y-92294077D01*
X191970819Y-92294077D02*
X191923200Y-92389315D01*
X191923200Y-92389315D02*
X191875580Y-92436934D01*
X183350819Y-94246458D02*
X183350819Y-93627411D01*
X183350819Y-93627411D02*
X183731771Y-93960744D01*
X183731771Y-93960744D02*
X183731771Y-93817887D01*
X183731771Y-93817887D02*
X183779390Y-93722649D01*
X183779390Y-93722649D02*
X183827009Y-93675030D01*
X183827009Y-93675030D02*
X183922247Y-93627411D01*
X183922247Y-93627411D02*
X184160342Y-93627411D01*
X184160342Y-93627411D02*
X184255580Y-93675030D01*
X184255580Y-93675030D02*
X184303200Y-93722649D01*
X184303200Y-93722649D02*
X184350819Y-93817887D01*
X184350819Y-93817887D02*
X184350819Y-94103601D01*
X184350819Y-94103601D02*
X184303200Y-94198839D01*
X184303200Y-94198839D02*
X184255580Y-94246458D01*
X183350819Y-93341696D02*
X184350819Y-93008363D01*
X184350819Y-93008363D02*
X183350819Y-92675030D01*
X183350819Y-92436934D02*
X183350819Y-91817887D01*
X183350819Y-91817887D02*
X183731771Y-92151220D01*
X183731771Y-92151220D02*
X183731771Y-92008363D01*
X183731771Y-92008363D02*
X183779390Y-91913125D01*
X183779390Y-91913125D02*
X183827009Y-91865506D01*
X183827009Y-91865506D02*
X183922247Y-91817887D01*
X183922247Y-91817887D02*
X184160342Y-91817887D01*
X184160342Y-91817887D02*
X184255580Y-91865506D01*
X184255580Y-91865506D02*
X184303200Y-91913125D01*
X184303200Y-91913125D02*
X184350819Y-92008363D01*
X184350819Y-92008363D02*
X184350819Y-92294077D01*
X184350819Y-92294077D02*
X184303200Y-92389315D01*
X184303200Y-92389315D02*
X184255580Y-92436934D01*
X181287009Y-94071887D02*
X181287009Y-94405220D01*
X181810819Y-94405220D02*
X180810819Y-94405220D01*
X180810819Y-94405220D02*
X180810819Y-93929030D01*
X180810819Y-93643315D02*
X181810819Y-93405220D01*
X181810819Y-93405220D02*
X181096533Y-93214744D01*
X181096533Y-93214744D02*
X181810819Y-93024268D01*
X181810819Y-93024268D02*
X180810819Y-92786173D01*
X181810819Y-92405220D02*
X180810819Y-92405220D01*
X180810819Y-92405220D02*
X180810819Y-92167125D01*
X180810819Y-92167125D02*
X180858438Y-92024268D01*
X180858438Y-92024268D02*
X180953676Y-91929030D01*
X180953676Y-91929030D02*
X181048914Y-91881411D01*
X181048914Y-91881411D02*
X181239390Y-91833792D01*
X181239390Y-91833792D02*
X181382247Y-91833792D01*
X181382247Y-91833792D02*
X181572723Y-91881411D01*
X181572723Y-91881411D02*
X181667961Y-91929030D01*
X181667961Y-91929030D02*
X181763200Y-92024268D01*
X181763200Y-92024268D02*
X181810819Y-92167125D01*
X181810819Y-92167125D02*
X181810819Y-92405220D01*
X179270819Y-93833792D02*
X178794628Y-94167125D01*
X179270819Y-94405220D02*
X178270819Y-94405220D01*
X178270819Y-94405220D02*
X178270819Y-94024268D01*
X178270819Y-94024268D02*
X178318438Y-93929030D01*
X178318438Y-93929030D02*
X178366057Y-93881411D01*
X178366057Y-93881411D02*
X178461295Y-93833792D01*
X178461295Y-93833792D02*
X178604152Y-93833792D01*
X178604152Y-93833792D02*
X178699390Y-93881411D01*
X178699390Y-93881411D02*
X178747009Y-93929030D01*
X178747009Y-93929030D02*
X178794628Y-94024268D01*
X178794628Y-94024268D02*
X178794628Y-94405220D01*
X178270819Y-93548077D02*
X179270819Y-93214744D01*
X179270819Y-93214744D02*
X178270819Y-92881411D01*
X179223200Y-92595696D02*
X179270819Y-92452839D01*
X179270819Y-92452839D02*
X179270819Y-92214744D01*
X179270819Y-92214744D02*
X179223200Y-92119506D01*
X179223200Y-92119506D02*
X179175580Y-92071887D01*
X179175580Y-92071887D02*
X179080342Y-92024268D01*
X179080342Y-92024268D02*
X178985104Y-92024268D01*
X178985104Y-92024268D02*
X178889866Y-92071887D01*
X178889866Y-92071887D02*
X178842247Y-92119506D01*
X178842247Y-92119506D02*
X178794628Y-92214744D01*
X178794628Y-92214744D02*
X178747009Y-92405220D01*
X178747009Y-92405220D02*
X178699390Y-92500458D01*
X178699390Y-92500458D02*
X178651771Y-92548077D01*
X178651771Y-92548077D02*
X178556533Y-92595696D01*
X178556533Y-92595696D02*
X178461295Y-92595696D01*
X178461295Y-92595696D02*
X178366057Y-92548077D01*
X178366057Y-92548077D02*
X178318438Y-92500458D01*
X178318438Y-92500458D02*
X178270819Y-92405220D01*
X178270819Y-92405220D02*
X178270819Y-92167125D01*
X178270819Y-92167125D02*
X178318438Y-92024268D01*
X226325580Y-98210666D02*
X226373200Y-98258285D01*
X226373200Y-98258285D02*
X226420819Y-98401142D01*
X226420819Y-98401142D02*
X226420819Y-98496380D01*
X226420819Y-98496380D02*
X226373200Y-98639237D01*
X226373200Y-98639237D02*
X226277961Y-98734475D01*
X226277961Y-98734475D02*
X226182723Y-98782094D01*
X226182723Y-98782094D02*
X225992247Y-98829713D01*
X225992247Y-98829713D02*
X225849390Y-98829713D01*
X225849390Y-98829713D02*
X225658914Y-98782094D01*
X225658914Y-98782094D02*
X225563676Y-98734475D01*
X225563676Y-98734475D02*
X225468438Y-98639237D01*
X225468438Y-98639237D02*
X225420819Y-98496380D01*
X225420819Y-98496380D02*
X225420819Y-98401142D01*
X225420819Y-98401142D02*
X225468438Y-98258285D01*
X225468438Y-98258285D02*
X225516057Y-98210666D01*
X225420819Y-97353523D02*
X225420819Y-97543999D01*
X225420819Y-97543999D02*
X225468438Y-97639237D01*
X225468438Y-97639237D02*
X225516057Y-97686856D01*
X225516057Y-97686856D02*
X225658914Y-97782094D01*
X225658914Y-97782094D02*
X225849390Y-97829713D01*
X225849390Y-97829713D02*
X226230342Y-97829713D01*
X226230342Y-97829713D02*
X226325580Y-97782094D01*
X226325580Y-97782094D02*
X226373200Y-97734475D01*
X226373200Y-97734475D02*
X226420819Y-97639237D01*
X226420819Y-97639237D02*
X226420819Y-97448761D01*
X226420819Y-97448761D02*
X226373200Y-97353523D01*
X226373200Y-97353523D02*
X226325580Y-97305904D01*
X226325580Y-97305904D02*
X226230342Y-97258285D01*
X226230342Y-97258285D02*
X225992247Y-97258285D01*
X225992247Y-97258285D02*
X225897009Y-97305904D01*
X225897009Y-97305904D02*
X225849390Y-97353523D01*
X225849390Y-97353523D02*
X225801771Y-97448761D01*
X225801771Y-97448761D02*
X225801771Y-97639237D01*
X225801771Y-97639237D02*
X225849390Y-97734475D01*
X225849390Y-97734475D02*
X225897009Y-97782094D01*
X225897009Y-97782094D02*
X225992247Y-97829713D01*
X130793833Y-88338819D02*
X130460500Y-87862628D01*
X130222405Y-88338819D02*
X130222405Y-87338819D01*
X130222405Y-87338819D02*
X130603357Y-87338819D01*
X130603357Y-87338819D02*
X130698595Y-87386438D01*
X130698595Y-87386438D02*
X130746214Y-87434057D01*
X130746214Y-87434057D02*
X130793833Y-87529295D01*
X130793833Y-87529295D02*
X130793833Y-87672152D01*
X130793833Y-87672152D02*
X130746214Y-87767390D01*
X130746214Y-87767390D02*
X130698595Y-87815009D01*
X130698595Y-87815009D02*
X130603357Y-87862628D01*
X130603357Y-87862628D02*
X130222405Y-87862628D01*
X131174786Y-87434057D02*
X131222405Y-87386438D01*
X131222405Y-87386438D02*
X131317643Y-87338819D01*
X131317643Y-87338819D02*
X131555738Y-87338819D01*
X131555738Y-87338819D02*
X131650976Y-87386438D01*
X131650976Y-87386438D02*
X131698595Y-87434057D01*
X131698595Y-87434057D02*
X131746214Y-87529295D01*
X131746214Y-87529295D02*
X131746214Y-87624533D01*
X131746214Y-87624533D02*
X131698595Y-87767390D01*
X131698595Y-87767390D02*
X131127167Y-88338819D01*
X131127167Y-88338819D02*
X131746214Y-88338819D01*
X144885580Y-90973309D02*
X144933200Y-91020928D01*
X144933200Y-91020928D02*
X144980819Y-91163785D01*
X144980819Y-91163785D02*
X144980819Y-91259023D01*
X144980819Y-91259023D02*
X144933200Y-91401880D01*
X144933200Y-91401880D02*
X144837961Y-91497118D01*
X144837961Y-91497118D02*
X144742723Y-91544737D01*
X144742723Y-91544737D02*
X144552247Y-91592356D01*
X144552247Y-91592356D02*
X144409390Y-91592356D01*
X144409390Y-91592356D02*
X144218914Y-91544737D01*
X144218914Y-91544737D02*
X144123676Y-91497118D01*
X144123676Y-91497118D02*
X144028438Y-91401880D01*
X144028438Y-91401880D02*
X143980819Y-91259023D01*
X143980819Y-91259023D02*
X143980819Y-91163785D01*
X143980819Y-91163785D02*
X144028438Y-91020928D01*
X144028438Y-91020928D02*
X144076057Y-90973309D01*
X144980819Y-90401880D02*
X144933200Y-90497118D01*
X144933200Y-90497118D02*
X144885580Y-90544737D01*
X144885580Y-90544737D02*
X144790342Y-90592356D01*
X144790342Y-90592356D02*
X144504628Y-90592356D01*
X144504628Y-90592356D02*
X144409390Y-90544737D01*
X144409390Y-90544737D02*
X144361771Y-90497118D01*
X144361771Y-90497118D02*
X144314152Y-90401880D01*
X144314152Y-90401880D02*
X144314152Y-90259023D01*
X144314152Y-90259023D02*
X144361771Y-90163785D01*
X144361771Y-90163785D02*
X144409390Y-90116166D01*
X144409390Y-90116166D02*
X144504628Y-90068547D01*
X144504628Y-90068547D02*
X144790342Y-90068547D01*
X144790342Y-90068547D02*
X144885580Y-90116166D01*
X144885580Y-90116166D02*
X144933200Y-90163785D01*
X144933200Y-90163785D02*
X144980819Y-90259023D01*
X144980819Y-90259023D02*
X144980819Y-90401880D01*
X144314152Y-89639975D02*
X144980819Y-89639975D01*
X144409390Y-89639975D02*
X144361771Y-89592356D01*
X144361771Y-89592356D02*
X144314152Y-89497118D01*
X144314152Y-89497118D02*
X144314152Y-89354261D01*
X144314152Y-89354261D02*
X144361771Y-89259023D01*
X144361771Y-89259023D02*
X144457009Y-89211404D01*
X144457009Y-89211404D02*
X144980819Y-89211404D01*
X144314152Y-88735213D02*
X144980819Y-88735213D01*
X144409390Y-88735213D02*
X144361771Y-88687594D01*
X144361771Y-88687594D02*
X144314152Y-88592356D01*
X144314152Y-88592356D02*
X144314152Y-88449499D01*
X144314152Y-88449499D02*
X144361771Y-88354261D01*
X144361771Y-88354261D02*
X144457009Y-88306642D01*
X144457009Y-88306642D02*
X144980819Y-88306642D01*
X144980819Y-87306642D02*
X144980819Y-87878070D01*
X144980819Y-87592356D02*
X143980819Y-87592356D01*
X143980819Y-87592356D02*
X144123676Y-87687594D01*
X144123676Y-87687594D02*
X144218914Y-87782832D01*
X144218914Y-87782832D02*
X144266533Y-87878070D01*
X218059095Y-119985819D02*
X218059095Y-120795342D01*
X218059095Y-120795342D02*
X218106714Y-120890580D01*
X218106714Y-120890580D02*
X218154333Y-120938200D01*
X218154333Y-120938200D02*
X218249571Y-120985819D01*
X218249571Y-120985819D02*
X218440047Y-120985819D01*
X218440047Y-120985819D02*
X218535285Y-120938200D01*
X218535285Y-120938200D02*
X218582904Y-120890580D01*
X218582904Y-120890580D02*
X218630523Y-120795342D01*
X218630523Y-120795342D02*
X218630523Y-119985819D01*
X219059095Y-120081057D02*
X219106714Y-120033438D01*
X219106714Y-120033438D02*
X219201952Y-119985819D01*
X219201952Y-119985819D02*
X219440047Y-119985819D01*
X219440047Y-119985819D02*
X219535285Y-120033438D01*
X219535285Y-120033438D02*
X219582904Y-120081057D01*
X219582904Y-120081057D02*
X219630523Y-120176295D01*
X219630523Y-120176295D02*
X219630523Y-120271533D01*
X219630523Y-120271533D02*
X219582904Y-120414390D01*
X219582904Y-120414390D02*
X219011476Y-120985819D01*
X219011476Y-120985819D02*
X219630523Y-120985819D01*
X130897333Y-92307580D02*
X130849714Y-92355200D01*
X130849714Y-92355200D02*
X130706857Y-92402819D01*
X130706857Y-92402819D02*
X130611619Y-92402819D01*
X130611619Y-92402819D02*
X130468762Y-92355200D01*
X130468762Y-92355200D02*
X130373524Y-92259961D01*
X130373524Y-92259961D02*
X130325905Y-92164723D01*
X130325905Y-92164723D02*
X130278286Y-91974247D01*
X130278286Y-91974247D02*
X130278286Y-91831390D01*
X130278286Y-91831390D02*
X130325905Y-91640914D01*
X130325905Y-91640914D02*
X130373524Y-91545676D01*
X130373524Y-91545676D02*
X130468762Y-91450438D01*
X130468762Y-91450438D02*
X130611619Y-91402819D01*
X130611619Y-91402819D02*
X130706857Y-91402819D01*
X130706857Y-91402819D02*
X130849714Y-91450438D01*
X130849714Y-91450438D02*
X130897333Y-91498057D01*
X131754476Y-91736152D02*
X131754476Y-92402819D01*
X131516381Y-91355200D02*
X131278286Y-92069485D01*
X131278286Y-92069485D02*
X131897333Y-92069485D01*
X203146819Y-97702666D02*
X202670628Y-98035999D01*
X203146819Y-98274094D02*
X202146819Y-98274094D01*
X202146819Y-98274094D02*
X202146819Y-97893142D01*
X202146819Y-97893142D02*
X202194438Y-97797904D01*
X202194438Y-97797904D02*
X202242057Y-97750285D01*
X202242057Y-97750285D02*
X202337295Y-97702666D01*
X202337295Y-97702666D02*
X202480152Y-97702666D01*
X202480152Y-97702666D02*
X202575390Y-97750285D01*
X202575390Y-97750285D02*
X202623009Y-97797904D01*
X202623009Y-97797904D02*
X202670628Y-97893142D01*
X202670628Y-97893142D02*
X202670628Y-98274094D01*
X202146819Y-96797904D02*
X202146819Y-97274094D01*
X202146819Y-97274094D02*
X202623009Y-97321713D01*
X202623009Y-97321713D02*
X202575390Y-97274094D01*
X202575390Y-97274094D02*
X202527771Y-97178856D01*
X202527771Y-97178856D02*
X202527771Y-96940761D01*
X202527771Y-96940761D02*
X202575390Y-96845523D01*
X202575390Y-96845523D02*
X202623009Y-96797904D01*
X202623009Y-96797904D02*
X202718247Y-96750285D01*
X202718247Y-96750285D02*
X202956342Y-96750285D01*
X202956342Y-96750285D02*
X203051580Y-96797904D01*
X203051580Y-96797904D02*
X203099200Y-96845523D01*
X203099200Y-96845523D02*
X203146819Y-96940761D01*
X203146819Y-96940761D02*
X203146819Y-97178856D01*
X203146819Y-97178856D02*
X203099200Y-97274094D01*
X203099200Y-97274094D02*
X203051580Y-97321713D01*
X158406905Y-121104819D02*
X158406905Y-120104819D01*
X158406905Y-120104819D02*
X158645000Y-120104819D01*
X158645000Y-120104819D02*
X158787857Y-120152438D01*
X158787857Y-120152438D02*
X158883095Y-120247676D01*
X158883095Y-120247676D02*
X158930714Y-120342914D01*
X158930714Y-120342914D02*
X158978333Y-120533390D01*
X158978333Y-120533390D02*
X158978333Y-120676247D01*
X158978333Y-120676247D02*
X158930714Y-120866723D01*
X158930714Y-120866723D02*
X158883095Y-120961961D01*
X158883095Y-120961961D02*
X158787857Y-121057200D01*
X158787857Y-121057200D02*
X158645000Y-121104819D01*
X158645000Y-121104819D02*
X158406905Y-121104819D01*
X159311667Y-120104819D02*
X159930714Y-120104819D01*
X159930714Y-120104819D02*
X159597381Y-120485771D01*
X159597381Y-120485771D02*
X159740238Y-120485771D01*
X159740238Y-120485771D02*
X159835476Y-120533390D01*
X159835476Y-120533390D02*
X159883095Y-120581009D01*
X159883095Y-120581009D02*
X159930714Y-120676247D01*
X159930714Y-120676247D02*
X159930714Y-120914342D01*
X159930714Y-120914342D02*
X159883095Y-121009580D01*
X159883095Y-121009580D02*
X159835476Y-121057200D01*
X159835476Y-121057200D02*
X159740238Y-121104819D01*
X159740238Y-121104819D02*
X159454524Y-121104819D01*
X159454524Y-121104819D02*
X159359286Y-121057200D01*
X159359286Y-121057200D02*
X159311667Y-121009580D01*
X193494819Y-97702666D02*
X193018628Y-98035999D01*
X193494819Y-98274094D02*
X192494819Y-98274094D01*
X192494819Y-98274094D02*
X192494819Y-97893142D01*
X192494819Y-97893142D02*
X192542438Y-97797904D01*
X192542438Y-97797904D02*
X192590057Y-97750285D01*
X192590057Y-97750285D02*
X192685295Y-97702666D01*
X192685295Y-97702666D02*
X192828152Y-97702666D01*
X192828152Y-97702666D02*
X192923390Y-97750285D01*
X192923390Y-97750285D02*
X192971009Y-97797904D01*
X192971009Y-97797904D02*
X193018628Y-97893142D01*
X193018628Y-97893142D02*
X193018628Y-98274094D01*
X192828152Y-96845523D02*
X193494819Y-96845523D01*
X192447200Y-97083618D02*
X193161485Y-97321713D01*
X193161485Y-97321713D02*
X193161485Y-96702666D01*
X130325905Y-100530819D02*
X130325905Y-99530819D01*
X130325905Y-99530819D02*
X130564000Y-99530819D01*
X130564000Y-99530819D02*
X130706857Y-99578438D01*
X130706857Y-99578438D02*
X130802095Y-99673676D01*
X130802095Y-99673676D02*
X130849714Y-99768914D01*
X130849714Y-99768914D02*
X130897333Y-99959390D01*
X130897333Y-99959390D02*
X130897333Y-100102247D01*
X130897333Y-100102247D02*
X130849714Y-100292723D01*
X130849714Y-100292723D02*
X130802095Y-100387961D01*
X130802095Y-100387961D02*
X130706857Y-100483200D01*
X130706857Y-100483200D02*
X130564000Y-100530819D01*
X130564000Y-100530819D02*
X130325905Y-100530819D01*
X131849714Y-100530819D02*
X131278286Y-100530819D01*
X131564000Y-100530819D02*
X131564000Y-99530819D01*
X131564000Y-99530819D02*
X131468762Y-99673676D01*
X131468762Y-99673676D02*
X131373524Y-99768914D01*
X131373524Y-99768914D02*
X131278286Y-99816533D01*
X154537580Y-90973309D02*
X154585200Y-91020928D01*
X154585200Y-91020928D02*
X154632819Y-91163785D01*
X154632819Y-91163785D02*
X154632819Y-91259023D01*
X154632819Y-91259023D02*
X154585200Y-91401880D01*
X154585200Y-91401880D02*
X154489961Y-91497118D01*
X154489961Y-91497118D02*
X154394723Y-91544737D01*
X154394723Y-91544737D02*
X154204247Y-91592356D01*
X154204247Y-91592356D02*
X154061390Y-91592356D01*
X154061390Y-91592356D02*
X153870914Y-91544737D01*
X153870914Y-91544737D02*
X153775676Y-91497118D01*
X153775676Y-91497118D02*
X153680438Y-91401880D01*
X153680438Y-91401880D02*
X153632819Y-91259023D01*
X153632819Y-91259023D02*
X153632819Y-91163785D01*
X153632819Y-91163785D02*
X153680438Y-91020928D01*
X153680438Y-91020928D02*
X153728057Y-90973309D01*
X154632819Y-90401880D02*
X154585200Y-90497118D01*
X154585200Y-90497118D02*
X154537580Y-90544737D01*
X154537580Y-90544737D02*
X154442342Y-90592356D01*
X154442342Y-90592356D02*
X154156628Y-90592356D01*
X154156628Y-90592356D02*
X154061390Y-90544737D01*
X154061390Y-90544737D02*
X154013771Y-90497118D01*
X154013771Y-90497118D02*
X153966152Y-90401880D01*
X153966152Y-90401880D02*
X153966152Y-90259023D01*
X153966152Y-90259023D02*
X154013771Y-90163785D01*
X154013771Y-90163785D02*
X154061390Y-90116166D01*
X154061390Y-90116166D02*
X154156628Y-90068547D01*
X154156628Y-90068547D02*
X154442342Y-90068547D01*
X154442342Y-90068547D02*
X154537580Y-90116166D01*
X154537580Y-90116166D02*
X154585200Y-90163785D01*
X154585200Y-90163785D02*
X154632819Y-90259023D01*
X154632819Y-90259023D02*
X154632819Y-90401880D01*
X153966152Y-89639975D02*
X154632819Y-89639975D01*
X154061390Y-89639975D02*
X154013771Y-89592356D01*
X154013771Y-89592356D02*
X153966152Y-89497118D01*
X153966152Y-89497118D02*
X153966152Y-89354261D01*
X153966152Y-89354261D02*
X154013771Y-89259023D01*
X154013771Y-89259023D02*
X154109009Y-89211404D01*
X154109009Y-89211404D02*
X154632819Y-89211404D01*
X153966152Y-88735213D02*
X154632819Y-88735213D01*
X154061390Y-88735213D02*
X154013771Y-88687594D01*
X154013771Y-88687594D02*
X153966152Y-88592356D01*
X153966152Y-88592356D02*
X153966152Y-88449499D01*
X153966152Y-88449499D02*
X154013771Y-88354261D01*
X154013771Y-88354261D02*
X154109009Y-88306642D01*
X154109009Y-88306642D02*
X154632819Y-88306642D01*
X153728057Y-87878070D02*
X153680438Y-87830451D01*
X153680438Y-87830451D02*
X153632819Y-87735213D01*
X153632819Y-87735213D02*
X153632819Y-87497118D01*
X153632819Y-87497118D02*
X153680438Y-87401880D01*
X153680438Y-87401880D02*
X153728057Y-87354261D01*
X153728057Y-87354261D02*
X153823295Y-87306642D01*
X153823295Y-87306642D02*
X153918533Y-87306642D01*
X153918533Y-87306642D02*
X154061390Y-87354261D01*
X154061390Y-87354261D02*
X154632819Y-87925689D01*
X154632819Y-87925689D02*
X154632819Y-87306642D01*
X130897333Y-94339580D02*
X130849714Y-94387200D01*
X130849714Y-94387200D02*
X130706857Y-94434819D01*
X130706857Y-94434819D02*
X130611619Y-94434819D01*
X130611619Y-94434819D02*
X130468762Y-94387200D01*
X130468762Y-94387200D02*
X130373524Y-94291961D01*
X130373524Y-94291961D02*
X130325905Y-94196723D01*
X130325905Y-94196723D02*
X130278286Y-94006247D01*
X130278286Y-94006247D02*
X130278286Y-93863390D01*
X130278286Y-93863390D02*
X130325905Y-93672914D01*
X130325905Y-93672914D02*
X130373524Y-93577676D01*
X130373524Y-93577676D02*
X130468762Y-93482438D01*
X130468762Y-93482438D02*
X130611619Y-93434819D01*
X130611619Y-93434819D02*
X130706857Y-93434819D01*
X130706857Y-93434819D02*
X130849714Y-93482438D01*
X130849714Y-93482438D02*
X130897333Y-93530057D01*
X131230667Y-93434819D02*
X131849714Y-93434819D01*
X131849714Y-93434819D02*
X131516381Y-93815771D01*
X131516381Y-93815771D02*
X131659238Y-93815771D01*
X131659238Y-93815771D02*
X131754476Y-93863390D01*
X131754476Y-93863390D02*
X131802095Y-93911009D01*
X131802095Y-93911009D02*
X131849714Y-94006247D01*
X131849714Y-94006247D02*
X131849714Y-94244342D01*
X131849714Y-94244342D02*
X131802095Y-94339580D01*
X131802095Y-94339580D02*
X131754476Y-94387200D01*
X131754476Y-94387200D02*
X131659238Y-94434819D01*
X131659238Y-94434819D02*
X131373524Y-94434819D01*
X131373524Y-94434819D02*
X131278286Y-94387200D01*
X131278286Y-94387200D02*
X131230667Y-94339580D01*
X130325905Y-90370819D02*
X130325905Y-89370819D01*
X130325905Y-89370819D02*
X130564000Y-89370819D01*
X130564000Y-89370819D02*
X130706857Y-89418438D01*
X130706857Y-89418438D02*
X130802095Y-89513676D01*
X130802095Y-89513676D02*
X130849714Y-89608914D01*
X130849714Y-89608914D02*
X130897333Y-89799390D01*
X130897333Y-89799390D02*
X130897333Y-89942247D01*
X130897333Y-89942247D02*
X130849714Y-90132723D01*
X130849714Y-90132723D02*
X130802095Y-90227961D01*
X130802095Y-90227961D02*
X130706857Y-90323200D01*
X130706857Y-90323200D02*
X130564000Y-90370819D01*
X130564000Y-90370819D02*
X130325905Y-90370819D01*
X131278286Y-89466057D02*
X131325905Y-89418438D01*
X131325905Y-89418438D02*
X131421143Y-89370819D01*
X131421143Y-89370819D02*
X131659238Y-89370819D01*
X131659238Y-89370819D02*
X131754476Y-89418438D01*
X131754476Y-89418438D02*
X131802095Y-89466057D01*
X131802095Y-89466057D02*
X131849714Y-89561295D01*
X131849714Y-89561295D02*
X131849714Y-89656533D01*
X131849714Y-89656533D02*
X131802095Y-89799390D01*
X131802095Y-89799390D02*
X131230667Y-90370819D01*
X131230667Y-90370819D02*
X131849714Y-90370819D01*
X160615333Y-80369580D02*
X160567714Y-80417200D01*
X160567714Y-80417200D02*
X160424857Y-80464819D01*
X160424857Y-80464819D02*
X160329619Y-80464819D01*
X160329619Y-80464819D02*
X160186762Y-80417200D01*
X160186762Y-80417200D02*
X160091524Y-80321961D01*
X160091524Y-80321961D02*
X160043905Y-80226723D01*
X160043905Y-80226723D02*
X159996286Y-80036247D01*
X159996286Y-80036247D02*
X159996286Y-79893390D01*
X159996286Y-79893390D02*
X160043905Y-79702914D01*
X160043905Y-79702914D02*
X160091524Y-79607676D01*
X160091524Y-79607676D02*
X160186762Y-79512438D01*
X160186762Y-79512438D02*
X160329619Y-79464819D01*
X160329619Y-79464819D02*
X160424857Y-79464819D01*
X160424857Y-79464819D02*
X160567714Y-79512438D01*
X160567714Y-79512438D02*
X160615333Y-79560057D01*
X161520095Y-79464819D02*
X161043905Y-79464819D01*
X161043905Y-79464819D02*
X160996286Y-79941009D01*
X160996286Y-79941009D02*
X161043905Y-79893390D01*
X161043905Y-79893390D02*
X161139143Y-79845771D01*
X161139143Y-79845771D02*
X161377238Y-79845771D01*
X161377238Y-79845771D02*
X161472476Y-79893390D01*
X161472476Y-79893390D02*
X161520095Y-79941009D01*
X161520095Y-79941009D02*
X161567714Y-80036247D01*
X161567714Y-80036247D02*
X161567714Y-80274342D01*
X161567714Y-80274342D02*
X161520095Y-80369580D01*
X161520095Y-80369580D02*
X161472476Y-80417200D01*
X161472476Y-80417200D02*
X161377238Y-80464819D01*
X161377238Y-80464819D02*
X161139143Y-80464819D01*
X161139143Y-80464819D02*
X161043905Y-80417200D01*
X161043905Y-80417200D02*
X160996286Y-80369580D01*
X138009333Y-121104819D02*
X137676000Y-120628628D01*
X137437905Y-121104819D02*
X137437905Y-120104819D01*
X137437905Y-120104819D02*
X137818857Y-120104819D01*
X137818857Y-120104819D02*
X137914095Y-120152438D01*
X137914095Y-120152438D02*
X137961714Y-120200057D01*
X137961714Y-120200057D02*
X138009333Y-120295295D01*
X138009333Y-120295295D02*
X138009333Y-120438152D01*
X138009333Y-120438152D02*
X137961714Y-120533390D01*
X137961714Y-120533390D02*
X137914095Y-120581009D01*
X137914095Y-120581009D02*
X137818857Y-120628628D01*
X137818857Y-120628628D02*
X137437905Y-120628628D01*
X138342667Y-120104819D02*
X139009333Y-120104819D01*
X139009333Y-120104819D02*
X138580762Y-121104819D01*
X130897333Y-96371580D02*
X130849714Y-96419200D01*
X130849714Y-96419200D02*
X130706857Y-96466819D01*
X130706857Y-96466819D02*
X130611619Y-96466819D01*
X130611619Y-96466819D02*
X130468762Y-96419200D01*
X130468762Y-96419200D02*
X130373524Y-96323961D01*
X130373524Y-96323961D02*
X130325905Y-96228723D01*
X130325905Y-96228723D02*
X130278286Y-96038247D01*
X130278286Y-96038247D02*
X130278286Y-95895390D01*
X130278286Y-95895390D02*
X130325905Y-95704914D01*
X130325905Y-95704914D02*
X130373524Y-95609676D01*
X130373524Y-95609676D02*
X130468762Y-95514438D01*
X130468762Y-95514438D02*
X130611619Y-95466819D01*
X130611619Y-95466819D02*
X130706857Y-95466819D01*
X130706857Y-95466819D02*
X130849714Y-95514438D01*
X130849714Y-95514438D02*
X130897333Y-95562057D01*
X131849714Y-96466819D02*
X131278286Y-96466819D01*
X131564000Y-96466819D02*
X131564000Y-95466819D01*
X131564000Y-95466819D02*
X131468762Y-95609676D01*
X131468762Y-95609676D02*
X131373524Y-95704914D01*
X131373524Y-95704914D02*
X131278286Y-95752533D01*
X141414667Y-114047200D02*
X141557524Y-114094819D01*
X141557524Y-114094819D02*
X141795619Y-114094819D01*
X141795619Y-114094819D02*
X141890857Y-114047200D01*
X141890857Y-114047200D02*
X141938476Y-113999580D01*
X141938476Y-113999580D02*
X141986095Y-113904342D01*
X141986095Y-113904342D02*
X141986095Y-113809104D01*
X141986095Y-113809104D02*
X141938476Y-113713866D01*
X141938476Y-113713866D02*
X141890857Y-113666247D01*
X141890857Y-113666247D02*
X141795619Y-113618628D01*
X141795619Y-113618628D02*
X141605143Y-113571009D01*
X141605143Y-113571009D02*
X141509905Y-113523390D01*
X141509905Y-113523390D02*
X141462286Y-113475771D01*
X141462286Y-113475771D02*
X141414667Y-113380533D01*
X141414667Y-113380533D02*
X141414667Y-113285295D01*
X141414667Y-113285295D02*
X141462286Y-113190057D01*
X141462286Y-113190057D02*
X141509905Y-113142438D01*
X141509905Y-113142438D02*
X141605143Y-113094819D01*
X141605143Y-113094819D02*
X141843238Y-113094819D01*
X141843238Y-113094819D02*
X141986095Y-113142438D01*
X142319429Y-113094819D02*
X142557524Y-114094819D01*
X142557524Y-114094819D02*
X142748000Y-113380533D01*
X142748000Y-113380533D02*
X142938476Y-114094819D01*
X142938476Y-114094819D02*
X143176572Y-113094819D01*
X143509905Y-113190057D02*
X143557524Y-113142438D01*
X143557524Y-113142438D02*
X143652762Y-113094819D01*
X143652762Y-113094819D02*
X143890857Y-113094819D01*
X143890857Y-113094819D02*
X143986095Y-113142438D01*
X143986095Y-113142438D02*
X144033714Y-113190057D01*
X144033714Y-113190057D02*
X144081333Y-113285295D01*
X144081333Y-113285295D02*
X144081333Y-113380533D01*
X144081333Y-113380533D02*
X144033714Y-113523390D01*
X144033714Y-113523390D02*
X143462286Y-114094819D01*
X143462286Y-114094819D02*
X144081333Y-114094819D01*
X130897333Y-98498819D02*
X130564000Y-98022628D01*
X130325905Y-98498819D02*
X130325905Y-97498819D01*
X130325905Y-97498819D02*
X130706857Y-97498819D01*
X130706857Y-97498819D02*
X130802095Y-97546438D01*
X130802095Y-97546438D02*
X130849714Y-97594057D01*
X130849714Y-97594057D02*
X130897333Y-97689295D01*
X130897333Y-97689295D02*
X130897333Y-97832152D01*
X130897333Y-97832152D02*
X130849714Y-97927390D01*
X130849714Y-97927390D02*
X130802095Y-97975009D01*
X130802095Y-97975009D02*
X130706857Y-98022628D01*
X130706857Y-98022628D02*
X130325905Y-98022628D01*
X131849714Y-98498819D02*
X131278286Y-98498819D01*
X131564000Y-98498819D02*
X131564000Y-97498819D01*
X131564000Y-97498819D02*
X131468762Y-97641676D01*
X131468762Y-97641676D02*
X131373524Y-97736914D01*
X131373524Y-97736914D02*
X131278286Y-97784533D01*
X146835905Y-121104819D02*
X146835905Y-120104819D01*
X146835905Y-120104819D02*
X147074000Y-120104819D01*
X147074000Y-120104819D02*
X147216857Y-120152438D01*
X147216857Y-120152438D02*
X147312095Y-120247676D01*
X147312095Y-120247676D02*
X147359714Y-120342914D01*
X147359714Y-120342914D02*
X147407333Y-120533390D01*
X147407333Y-120533390D02*
X147407333Y-120676247D01*
X147407333Y-120676247D02*
X147359714Y-120866723D01*
X147359714Y-120866723D02*
X147312095Y-120961961D01*
X147312095Y-120961961D02*
X147216857Y-121057200D01*
X147216857Y-121057200D02*
X147074000Y-121104819D01*
X147074000Y-121104819D02*
X146835905Y-121104819D01*
X148264476Y-120438152D02*
X148264476Y-121104819D01*
X148026381Y-120057200D02*
X147788286Y-120771485D01*
X147788286Y-120771485D02*
X148407333Y-120771485D01*
X152985667Y-114047200D02*
X153128524Y-114094819D01*
X153128524Y-114094819D02*
X153366619Y-114094819D01*
X153366619Y-114094819D02*
X153461857Y-114047200D01*
X153461857Y-114047200D02*
X153509476Y-113999580D01*
X153509476Y-113999580D02*
X153557095Y-113904342D01*
X153557095Y-113904342D02*
X153557095Y-113809104D01*
X153557095Y-113809104D02*
X153509476Y-113713866D01*
X153509476Y-113713866D02*
X153461857Y-113666247D01*
X153461857Y-113666247D02*
X153366619Y-113618628D01*
X153366619Y-113618628D02*
X153176143Y-113571009D01*
X153176143Y-113571009D02*
X153080905Y-113523390D01*
X153080905Y-113523390D02*
X153033286Y-113475771D01*
X153033286Y-113475771D02*
X152985667Y-113380533D01*
X152985667Y-113380533D02*
X152985667Y-113285295D01*
X152985667Y-113285295D02*
X153033286Y-113190057D01*
X153033286Y-113190057D02*
X153080905Y-113142438D01*
X153080905Y-113142438D02*
X153176143Y-113094819D01*
X153176143Y-113094819D02*
X153414238Y-113094819D01*
X153414238Y-113094819D02*
X153557095Y-113142438D01*
X153890429Y-113094819D02*
X154128524Y-114094819D01*
X154128524Y-114094819D02*
X154319000Y-113380533D01*
X154319000Y-113380533D02*
X154509476Y-114094819D01*
X154509476Y-114094819D02*
X154747572Y-113094819D01*
X155652333Y-114094819D02*
X155080905Y-114094819D01*
X155366619Y-114094819D02*
X155366619Y-113094819D01*
X155366619Y-113094819D02*
X155271381Y-113237676D01*
X155271381Y-113237676D02*
X155176143Y-113332914D01*
X155176143Y-113332914D02*
X155080905Y-113380533D01*
X149326333Y-121104819D02*
X148993000Y-120628628D01*
X148754905Y-121104819D02*
X148754905Y-120104819D01*
X148754905Y-120104819D02*
X149135857Y-120104819D01*
X149135857Y-120104819D02*
X149231095Y-120152438D01*
X149231095Y-120152438D02*
X149278714Y-120200057D01*
X149278714Y-120200057D02*
X149326333Y-120295295D01*
X149326333Y-120295295D02*
X149326333Y-120438152D01*
X149326333Y-120438152D02*
X149278714Y-120533390D01*
X149278714Y-120533390D02*
X149231095Y-120581009D01*
X149231095Y-120581009D02*
X149135857Y-120628628D01*
X149135857Y-120628628D02*
X148754905Y-120628628D01*
X150183476Y-120104819D02*
X149993000Y-120104819D01*
X149993000Y-120104819D02*
X149897762Y-120152438D01*
X149897762Y-120152438D02*
X149850143Y-120200057D01*
X149850143Y-120200057D02*
X149754905Y-120342914D01*
X149754905Y-120342914D02*
X149707286Y-120533390D01*
X149707286Y-120533390D02*
X149707286Y-120914342D01*
X149707286Y-120914342D02*
X149754905Y-121009580D01*
X149754905Y-121009580D02*
X149802524Y-121057200D01*
X149802524Y-121057200D02*
X149897762Y-121104819D01*
X149897762Y-121104819D02*
X150088238Y-121104819D01*
X150088238Y-121104819D02*
X150183476Y-121057200D01*
X150183476Y-121057200D02*
X150231095Y-121009580D01*
X150231095Y-121009580D02*
X150278714Y-120914342D01*
X150278714Y-120914342D02*
X150278714Y-120676247D01*
X150278714Y-120676247D02*
X150231095Y-120581009D01*
X150231095Y-120581009D02*
X150183476Y-120533390D01*
X150183476Y-120533390D02*
X150088238Y-120485771D01*
X150088238Y-120485771D02*
X149897762Y-120485771D01*
X149897762Y-120485771D02*
X149802524Y-120533390D01*
X149802524Y-120533390D02*
X149754905Y-120581009D01*
X149754905Y-120581009D02*
X149707286Y-120676247D01*
X213536666Y-99484819D02*
X213536666Y-100199104D01*
X213536666Y-100199104D02*
X213489047Y-100341961D01*
X213489047Y-100341961D02*
X213393809Y-100437200D01*
X213393809Y-100437200D02*
X213250952Y-100484819D01*
X213250952Y-100484819D02*
X213155714Y-100484819D01*
X214536666Y-100484819D02*
X213965238Y-100484819D01*
X214250952Y-100484819D02*
X214250952Y-99484819D01*
X214250952Y-99484819D02*
X214155714Y-99627676D01*
X214155714Y-99627676D02*
X214060476Y-99722914D01*
X214060476Y-99722914D02*
X213965238Y-99770533D01*
X160615333Y-93069580D02*
X160567714Y-93117200D01*
X160567714Y-93117200D02*
X160424857Y-93164819D01*
X160424857Y-93164819D02*
X160329619Y-93164819D01*
X160329619Y-93164819D02*
X160186762Y-93117200D01*
X160186762Y-93117200D02*
X160091524Y-93021961D01*
X160091524Y-93021961D02*
X160043905Y-92926723D01*
X160043905Y-92926723D02*
X159996286Y-92736247D01*
X159996286Y-92736247D02*
X159996286Y-92593390D01*
X159996286Y-92593390D02*
X160043905Y-92402914D01*
X160043905Y-92402914D02*
X160091524Y-92307676D01*
X160091524Y-92307676D02*
X160186762Y-92212438D01*
X160186762Y-92212438D02*
X160329619Y-92164819D01*
X160329619Y-92164819D02*
X160424857Y-92164819D01*
X160424857Y-92164819D02*
X160567714Y-92212438D01*
X160567714Y-92212438D02*
X160615333Y-92260057D01*
X160996286Y-92260057D02*
X161043905Y-92212438D01*
X161043905Y-92212438D02*
X161139143Y-92164819D01*
X161139143Y-92164819D02*
X161377238Y-92164819D01*
X161377238Y-92164819D02*
X161472476Y-92212438D01*
X161472476Y-92212438D02*
X161520095Y-92260057D01*
X161520095Y-92260057D02*
X161567714Y-92355295D01*
X161567714Y-92355295D02*
X161567714Y-92450533D01*
X161567714Y-92450533D02*
X161520095Y-92593390D01*
X161520095Y-92593390D02*
X160948667Y-93164819D01*
X160948667Y-93164819D02*
X161567714Y-93164819D01*
G36*
X136410607Y-107390098D02*
G01*
X136421244Y-107467980D01*
X136416351Y-107645702D01*
X136398405Y-107897064D01*
X136369887Y-108195869D01*
X136333275Y-108515917D01*
X136291047Y-108831010D01*
X136249378Y-109093954D01*
X136208629Y-109285315D01*
X136144054Y-109541579D01*
X136064005Y-109834397D01*
X135976833Y-110135424D01*
X135890887Y-110416312D01*
X135814519Y-110648714D01*
X135756080Y-110804282D01*
X135731939Y-110850438D01*
X135707961Y-110942905D01*
X135722493Y-110970544D01*
X135705551Y-110997544D01*
X135602038Y-110990847D01*
X135450127Y-110999837D01*
X135325807Y-111108220D01*
X135315571Y-111121830D01*
X135087273Y-111401144D01*
X134896932Y-111564502D01*
X134738319Y-111615353D01*
X134605203Y-111557146D01*
X134578518Y-111529817D01*
X134455701Y-111356350D01*
X134321103Y-111116183D01*
X134204029Y-110863124D01*
X134176025Y-110790875D01*
X134109890Y-110609850D01*
X133764906Y-110933738D01*
X133569745Y-111102260D01*
X133429338Y-111192737D01*
X133360753Y-111198456D01*
X133360225Y-111117771D01*
X133430334Y-110985928D01*
X133545356Y-110834980D01*
X133679565Y-110696983D01*
X133807235Y-110603989D01*
X133852110Y-110586214D01*
X133926290Y-110531837D01*
X134233209Y-110531837D01*
X134291938Y-110612146D01*
X134327564Y-110621774D01*
X134369343Y-110568160D01*
X134383510Y-110494456D01*
X134360193Y-110386219D01*
X134291889Y-110377230D01*
X134241865Y-110430797D01*
X134233209Y-110531837D01*
X133926290Y-110531837D01*
X133966524Y-110502344D01*
X134006057Y-110359929D01*
X133957735Y-110211676D01*
X133947534Y-110198513D01*
X133944054Y-110189020D01*
X134381891Y-110189020D01*
X134521139Y-110475636D01*
X134626269Y-110649385D01*
X134736750Y-110768382D01*
X134785337Y-110794926D01*
X134895575Y-110855403D01*
X134888681Y-110935572D01*
X134840575Y-110975640D01*
X134748216Y-110969832D01*
X134611190Y-110899829D01*
X134585939Y-110882002D01*
X134467099Y-110810314D01*
X134404071Y-110803825D01*
X134401013Y-110814007D01*
X134430273Y-110917726D01*
X134501635Y-111079008D01*
X134590471Y-111246985D01*
X134668260Y-111365985D01*
X134759393Y-111409193D01*
X134862521Y-111389666D01*
X134910286Y-111321563D01*
X134952016Y-111256618D01*
X135063841Y-111124789D01*
X135225713Y-110949104D01*
X135318592Y-110852583D01*
X135518036Y-110641757D01*
X135647999Y-110478768D01*
X135731610Y-110324086D01*
X135791999Y-110138180D01*
X135830845Y-109977083D01*
X135890406Y-109735646D01*
X135948834Y-109532485D01*
X135994004Y-109409552D01*
X135995963Y-109405764D01*
X136035456Y-109280033D01*
X136071149Y-109079985D01*
X136087603Y-108933400D01*
X136110458Y-108726336D01*
X136137165Y-108570979D01*
X136154528Y-108516349D01*
X136181087Y-108450660D01*
X136138493Y-108462912D01*
X136045901Y-108539329D01*
X135922463Y-108666136D01*
X135881847Y-108712452D01*
X135749427Y-108848737D01*
X135643703Y-108924953D01*
X135603612Y-108930527D01*
X135559993Y-108942895D01*
X135561215Y-108977819D01*
X135517945Y-109050036D01*
X135386040Y-109147846D01*
X135249183Y-109222916D01*
X135034490Y-109348832D01*
X134857214Y-109511047D01*
X134676866Y-109747684D01*
X134650774Y-109786364D01*
X134381891Y-110189020D01*
X133944054Y-110189020D01*
X133898490Y-110064714D01*
X133911630Y-109985183D01*
X134082717Y-109985183D01*
X134095555Y-110086366D01*
X134143556Y-110076196D01*
X134159108Y-110061574D01*
X134202721Y-109974947D01*
X134159108Y-109908792D01*
X134102098Y-109877456D01*
X134083182Y-109954543D01*
X134082717Y-109985183D01*
X133911630Y-109985183D01*
X133922590Y-109918849D01*
X134005963Y-109818010D01*
X134043260Y-109804507D01*
X134171284Y-109825026D01*
X134221617Y-109867515D01*
X134280089Y-109913451D01*
X134345662Y-109850694D01*
X134356564Y-109834048D01*
X134441384Y-109702939D01*
X134553683Y-109531135D01*
X134577186Y-109495375D01*
X134721529Y-109276006D01*
X134593100Y-109112736D01*
X134484574Y-108880124D01*
X134477144Y-108661430D01*
X134591990Y-108661430D01*
X134615634Y-108842574D01*
X134674192Y-108999268D01*
X134749108Y-109087420D01*
X134774029Y-109093954D01*
X134824540Y-109040694D01*
X134906862Y-108901679D01*
X134994596Y-108725016D01*
X135097332Y-108466006D01*
X135153585Y-108245513D01*
X135159985Y-108087023D01*
X135113159Y-108014023D01*
X135096989Y-108011749D01*
X134986031Y-108063257D01*
X134850859Y-108192704D01*
X134720711Y-108362474D01*
X134624827Y-108534953D01*
X134591990Y-108661430D01*
X134477144Y-108661430D01*
X134475509Y-108613295D01*
X134554619Y-108340842D01*
X134710618Y-108091357D01*
X134932218Y-107893431D01*
X135109421Y-107804752D01*
X135237171Y-107806936D01*
X135319210Y-107909394D01*
X135352976Y-108092617D01*
X135335906Y-108337095D01*
X135265438Y-108623317D01*
X135230093Y-108723437D01*
X135166139Y-108909696D01*
X135133189Y-109042706D01*
X135134345Y-109084597D01*
X135203802Y-109072210D01*
X135334774Y-108990375D01*
X135499591Y-108860505D01*
X135670583Y-108704013D01*
X135791494Y-108576038D01*
X135985367Y-108307266D01*
X136122344Y-108025077D01*
X136182348Y-107772315D01*
X136183469Y-107739495D01*
X136210387Y-107599267D01*
X136274531Y-107469538D01*
X136350985Y-107388633D01*
X136410607Y-107390098D01*
G37*
G36*
X142765926Y-107013819D02*
G01*
X142821649Y-107070177D01*
X142843969Y-107200247D01*
X142839354Y-107407154D01*
X142828276Y-107590402D01*
X142838323Y-107695739D01*
X142893911Y-107735795D01*
X143019458Y-107723205D01*
X143239381Y-107670601D01*
X143313294Y-107652354D01*
X143542019Y-107607291D01*
X143756617Y-107583197D01*
X143923434Y-107581820D01*
X144008814Y-107604910D01*
X144013544Y-107615963D01*
X143960482Y-107671781D01*
X143841199Y-107710752D01*
X143715550Y-107721134D01*
X143643389Y-107691182D01*
X143642389Y-107688780D01*
X143589272Y-107678518D01*
X143532247Y-107720043D01*
X143415622Y-107786141D01*
X143233207Y-107842428D01*
X143171322Y-107854589D01*
X142970323Y-107902123D01*
X142859900Y-107981731D01*
X142813620Y-108126840D01*
X142804995Y-108317851D01*
X142794224Y-108528006D01*
X142767183Y-108799343D01*
X142735625Y-109032942D01*
X142709870Y-109564730D01*
X142795150Y-110074830D01*
X142940001Y-110446711D01*
X143058250Y-110625620D01*
X143172762Y-110681517D01*
X143291410Y-110618181D01*
X143293377Y-110616227D01*
X143374236Y-110584225D01*
X143402182Y-110611095D01*
X143395614Y-110702137D01*
X143309943Y-110799975D01*
X143185256Y-110866634D01*
X143122104Y-110876411D01*
X142995642Y-110819141D01*
X142856513Y-110664512D01*
X142724434Y-110438295D01*
X142649330Y-110258474D01*
X142591886Y-110114512D01*
X142554192Y-110079339D01*
X142520771Y-110139395D01*
X142519046Y-110144330D01*
X142469771Y-110263985D01*
X142382482Y-110456447D01*
X142275869Y-110680530D01*
X142273483Y-110685433D01*
X142145488Y-110924129D01*
X142039156Y-111061475D01*
X141938291Y-111117684D01*
X141925203Y-111120019D01*
X141765564Y-111108237D01*
X141657609Y-111008868D01*
X141588993Y-110806516D01*
X141567068Y-110673311D01*
X141504844Y-110363195D01*
X141415320Y-110176276D01*
X141296067Y-110110888D01*
X141144654Y-110165363D01*
X141004981Y-110287565D01*
X140880307Y-110471303D01*
X140788900Y-110738746D01*
X140755746Y-110892327D01*
X140696245Y-111142858D01*
X140634316Y-111288910D01*
X140590419Y-111322025D01*
X140546461Y-111292061D01*
X140529165Y-111187626D01*
X140536160Y-110986905D01*
X140543696Y-110892325D01*
X140555005Y-110608624D01*
X140533510Y-110420764D01*
X140509863Y-110367137D01*
X140440441Y-110315751D01*
X140411677Y-110335308D01*
X140327050Y-110499961D01*
X140204983Y-110700179D01*
X140069950Y-110899885D01*
X139946424Y-111063003D01*
X139858879Y-111153457D01*
X139854912Y-111156026D01*
X139767738Y-111184635D01*
X139678739Y-111140659D01*
X139555368Y-111009532D01*
X139430271Y-110830876D01*
X139344409Y-110653170D01*
X139332254Y-110611107D01*
X139287316Y-110494162D01*
X139234620Y-110465414D01*
X139233928Y-110465828D01*
X139191100Y-110440029D01*
X139175449Y-110339065D01*
X139161180Y-110218805D01*
X139108981Y-110188766D01*
X139004768Y-110251875D01*
X138835934Y-110409577D01*
X138658972Y-110631580D01*
X138602517Y-110819604D01*
X138628804Y-110987046D01*
X138705674Y-111038825D01*
X138830137Y-110974781D01*
X138962672Y-110839207D01*
X139093583Y-110704850D01*
X139162049Y-110675442D01*
X139163163Y-110742360D01*
X139092019Y-110896977D01*
X139042939Y-110980300D01*
X138892928Y-111138832D01*
X138725513Y-111196121D01*
X138570668Y-111162133D01*
X138458366Y-111046832D01*
X138418584Y-110860183D01*
X138428081Y-110775897D01*
X138456737Y-110625991D01*
X138287933Y-110767115D01*
X137981188Y-110984630D01*
X137713216Y-111095199D01*
X137491184Y-111097826D01*
X137322260Y-110991518D01*
X137266048Y-110908937D01*
X137216128Y-110782296D01*
X137228636Y-110660166D01*
X137286201Y-110523105D01*
X137354245Y-110376201D01*
X137390929Y-110288801D01*
X137392993Y-110280902D01*
X137339094Y-110265933D01*
X137205233Y-110279351D01*
X137033163Y-110312191D01*
X136864635Y-110355485D01*
X136741403Y-110400266D01*
X136703993Y-110428875D01*
X136589416Y-110615172D01*
X136399276Y-110785269D01*
X136183013Y-110898804D01*
X136103895Y-110918780D01*
X135934213Y-110923388D01*
X135862621Y-110884603D01*
X135897686Y-110826467D01*
X136047973Y-110773017D01*
X136051692Y-110772265D01*
X136272380Y-110674213D01*
X136437820Y-110499857D01*
X136513818Y-110286743D01*
X136515230Y-110263241D01*
X136520606Y-110080671D01*
X137110355Y-110080671D01*
X137373386Y-110085310D01*
X137586739Y-110097743D01*
X137719439Y-110115750D01*
X137745998Y-110126278D01*
X137735024Y-110195913D01*
X137655513Y-110321732D01*
X137592442Y-110399044D01*
X137439155Y-110611045D01*
X137400242Y-110768245D01*
X137475643Y-110871659D01*
X137563302Y-110905353D01*
X137763504Y-110899483D01*
X138004483Y-110808044D01*
X138249490Y-110646462D01*
X138314684Y-110589944D01*
X138593367Y-110337111D01*
X138796357Y-110163702D01*
X138937965Y-110059090D01*
X139032502Y-110012647D01*
X139091911Y-110012789D01*
X139235044Y-110046156D01*
X139276144Y-110048842D01*
X139352827Y-110101054D01*
X139367048Y-110160245D01*
X139394510Y-110283275D01*
X139463088Y-110466169D01*
X139553395Y-110666728D01*
X139646043Y-110842751D01*
X139721644Y-110952038D01*
X139736596Y-110964616D01*
X139796159Y-110932403D01*
X139899070Y-110811864D01*
X140026772Y-110625926D01*
X140078043Y-110542717D01*
X140261207Y-110268367D01*
X140412394Y-110113974D01*
X140535627Y-110077375D01*
X140634929Y-110156405D01*
X140670620Y-110223904D01*
X140742280Y-110342536D01*
X140813206Y-110344256D01*
X140899288Y-110226534D01*
X140922086Y-110183874D01*
X141052975Y-110007705D01*
X141211244Y-109950326D01*
X141365818Y-109982950D01*
X141562147Y-110119861D01*
X141689773Y-110332353D01*
X141721815Y-110512805D01*
X141747920Y-110702745D01*
X141813411Y-110858093D01*
X141899051Y-110937086D01*
X141918612Y-110940070D01*
X141979801Y-110886816D01*
X142063293Y-110751116D01*
X142110328Y-110653604D01*
X142194090Y-110487908D01*
X142266523Y-110384466D01*
X142293469Y-110367137D01*
X142332246Y-110312124D01*
X142344722Y-110185334D01*
X142359562Y-110019854D01*
X142395193Y-109914783D01*
X142418348Y-109820583D01*
X142442190Y-109625903D01*
X142464158Y-109357541D01*
X142481697Y-109042292D01*
X142484193Y-108982449D01*
X142495730Y-108628047D01*
X142496840Y-108383584D01*
X142486513Y-108232029D01*
X142463742Y-108156353D01*
X142434223Y-108138966D01*
X142384177Y-108101255D01*
X142398699Y-108059493D01*
X142416636Y-108012087D01*
X142354712Y-108052058D01*
X142233342Y-108113442D01*
X142053937Y-108168328D01*
X141856159Y-108209372D01*
X141679673Y-108229230D01*
X141564142Y-108220561D01*
X141541415Y-108202628D01*
X141489009Y-108171217D01*
X141426460Y-108210103D01*
X141319934Y-108250827D01*
X141267956Y-108219945D01*
X141233326Y-108159329D01*
X141281921Y-108114460D01*
X141429509Y-108077855D01*
X141626326Y-108049876D01*
X141994261Y-108000238D01*
X142254563Y-107947579D01*
X142426460Y-107878092D01*
X142529181Y-107777970D01*
X142581954Y-107633404D01*
X142604006Y-107430587D01*
X142607960Y-107344960D01*
X142620095Y-107133776D01*
X142643166Y-107025019D01*
X142689046Y-106993803D01*
X142765926Y-107013819D01*
G37*
G36*
X146687229Y-110908240D02*
G01*
X146655399Y-110940070D01*
X146623569Y-110908240D01*
X146655399Y-110876411D01*
X146687229Y-110908240D01*
G37*
G36*
X153784816Y-105719361D02*
G01*
X153812651Y-105805231D01*
X153856705Y-105986649D01*
X153910108Y-106233956D01*
X153948534Y-106426059D01*
X154027172Y-106961435D01*
X154039060Y-107451359D01*
X153984853Y-107958391D01*
X153965702Y-108069762D01*
X153946991Y-108211573D01*
X153971878Y-108257103D01*
X154046764Y-108236638D01*
X154307753Y-108154408D01*
X154487087Y-108166843D01*
X154594839Y-108280315D01*
X154641082Y-108501197D01*
X154644622Y-108614806D01*
X154620426Y-108942839D01*
X154552114Y-109193554D01*
X154446102Y-109348017D01*
X154384665Y-109382109D01*
X154278755Y-109452085D01*
X154281949Y-109546802D01*
X154382872Y-109649839D01*
X154570146Y-109744777D01*
X154655937Y-109773638D01*
X154881225Y-109834978D01*
X155011947Y-109847313D01*
X155073177Y-109805182D01*
X155089991Y-109703126D01*
X155090236Y-109679054D01*
X155114943Y-109529450D01*
X155174595Y-109390570D01*
X155247491Y-109299784D01*
X155311929Y-109294459D01*
X155312996Y-109295495D01*
X155319891Y-109377392D01*
X155286371Y-109466272D01*
X155223444Y-109641005D01*
X155242649Y-109757768D01*
X155325019Y-109794205D01*
X155474211Y-109749389D01*
X155658049Y-109635976D01*
X155832567Y-109485522D01*
X155940510Y-109352452D01*
X156012291Y-109256886D01*
X156040219Y-109260954D01*
X156025975Y-109345393D01*
X155971241Y-109490938D01*
X155918796Y-109601285D01*
X155757901Y-109819360D01*
X155568671Y-109929833D01*
X155423786Y-109991955D01*
X155348066Y-110043415D01*
X155344873Y-110051412D01*
X155398189Y-110107305D01*
X155524574Y-110172332D01*
X155673680Y-110224348D01*
X155777567Y-110241755D01*
X155848311Y-110250587D01*
X155809364Y-110287674D01*
X155769961Y-110311158D01*
X155589715Y-110349658D01*
X155390116Y-110295470D01*
X155233120Y-110174416D01*
X155085084Y-110077263D01*
X154932855Y-110045249D01*
X154614393Y-110001919D01*
X154365822Y-109873397D01*
X154156934Y-109641559D01*
X154092684Y-109541169D01*
X153985462Y-109332813D01*
X153940861Y-109181723D01*
X153957615Y-109103072D01*
X154034459Y-109112034D01*
X154122942Y-109178216D01*
X154229803Y-109259978D01*
X154286843Y-109284932D01*
X154357378Y-109227517D01*
X154418983Y-109080244D01*
X154462041Y-108880572D01*
X154476937Y-108665960D01*
X154471095Y-108567162D01*
X154444461Y-108385709D01*
X154407041Y-108303482D01*
X154341030Y-108292583D01*
X154301952Y-108302142D01*
X154156949Y-108381086D01*
X154024547Y-108508533D01*
X153948990Y-108638850D01*
X153944023Y-108671308D01*
X153925262Y-108756373D01*
X153874217Y-108937171D01*
X153798336Y-109188476D01*
X153705067Y-109485061D01*
X153689387Y-109533914D01*
X153591682Y-109858810D01*
X153511363Y-110166491D01*
X153456494Y-110423138D01*
X153435142Y-110594937D01*
X153435098Y-110600205D01*
X153421680Y-110785276D01*
X153376385Y-110867249D01*
X153339610Y-110876411D01*
X153261198Y-110819352D01*
X153233671Y-110701348D01*
X153230719Y-110528405D01*
X153235816Y-110304090D01*
X153239519Y-110223904D01*
X153242093Y-110047785D01*
X153230365Y-109938781D01*
X153219095Y-109921523D01*
X153149095Y-109952328D01*
X153006383Y-110031934D01*
X152871996Y-110112501D01*
X152683438Y-110217805D01*
X152525848Y-110287167D01*
X152457256Y-110303478D01*
X152310873Y-110250753D01*
X152184276Y-110124199D01*
X152117297Y-109971249D01*
X152118521Y-109900092D01*
X152123746Y-109730036D01*
X152103462Y-109640059D01*
X152064758Y-109562808D01*
X152018596Y-109579410D01*
X151948784Y-109671888D01*
X151857924Y-109840516D01*
X151781410Y-110045260D01*
X151775928Y-110064756D01*
X151711696Y-110241291D01*
X151653904Y-110293933D01*
X151610579Y-110226101D01*
X151589750Y-110041210D01*
X151588983Y-109985183D01*
X151578889Y-109803596D01*
X151553082Y-109688352D01*
X151532879Y-109666887D01*
X151463077Y-109713237D01*
X151354502Y-109829638D01*
X151310115Y-109885390D01*
X151120840Y-110083555D01*
X150951176Y-110156223D01*
X150801402Y-110103310D01*
X150750122Y-110050705D01*
X150635438Y-109909076D01*
X150438917Y-110074438D01*
X150220894Y-110193897D01*
X150007861Y-110187303D01*
X149809900Y-110055370D01*
X149784918Y-110028040D01*
X149710753Y-109903495D01*
X149690225Y-109736853D01*
X149700525Y-109589144D01*
X149713548Y-109403317D01*
X149695393Y-109312352D01*
X149638704Y-109286041D01*
X149626645Y-109285801D01*
X149375071Y-109330268D01*
X149217898Y-109459341D01*
X149180159Y-109537605D01*
X149105105Y-109675036D01*
X148978615Y-109840401D01*
X148831021Y-110000889D01*
X148692651Y-110123686D01*
X148593835Y-110175981D01*
X148589920Y-110176160D01*
X148590148Y-110133577D01*
X148660125Y-110023608D01*
X148747772Y-109914059D01*
X148891242Y-109716011D01*
X148990166Y-109520460D01*
X149034391Y-109356254D01*
X149013763Y-109252241D01*
X148986928Y-109234539D01*
X148922780Y-109159037D01*
X148915299Y-109113394D01*
X148939864Y-109053306D01*
X149033962Y-109043623D01*
X149154021Y-109062655D01*
X149364328Y-109088639D01*
X149620043Y-109100544D01*
X149729467Y-109099868D01*
X150066193Y-109090552D01*
X149968189Y-109280069D01*
X149883567Y-109519512D01*
X149871688Y-109743254D01*
X149926498Y-109923047D01*
X150041945Y-110030644D01*
X150132920Y-110048842D01*
X150259134Y-109995918D01*
X150398934Y-109864205D01*
X150521647Y-109694293D01*
X150596599Y-109526770D01*
X150602956Y-109426859D01*
X150601576Y-109270489D01*
X150654289Y-109123804D01*
X150739654Y-109037143D01*
X150771876Y-109030295D01*
X150810013Y-109086665D01*
X150812708Y-109258716D01*
X150799921Y-109397970D01*
X150783690Y-109639278D01*
X150804963Y-109795900D01*
X150856030Y-109891328D01*
X150919397Y-109961324D01*
X150977506Y-109965875D01*
X151063338Y-109893935D01*
X151159956Y-109789525D01*
X151364008Y-109594067D01*
X151522670Y-109511483D01*
X151643418Y-109538821D01*
X151684656Y-109582416D01*
X151743355Y-109642426D01*
X151795160Y-109615877D01*
X151869180Y-109488033D01*
X151981670Y-109343621D01*
X152106726Y-109286254D01*
X152212917Y-109324371D01*
X152250593Y-109385627D01*
X152276055Y-109513621D01*
X152288870Y-109698738D01*
X152289234Y-109733513D01*
X152316540Y-109936508D01*
X152401683Y-110040884D01*
X152501690Y-110067237D01*
X152622749Y-110035005D01*
X152788337Y-109933485D01*
X153004998Y-109765778D01*
X153235580Y-109578202D01*
X153200841Y-108842720D01*
X153196677Y-108622177D01*
X153359659Y-108622177D01*
X153361684Y-108823403D01*
X153377873Y-109068228D01*
X153414362Y-109194277D01*
X153475592Y-109209103D01*
X153548925Y-109141699D01*
X153601155Y-109030364D01*
X153648104Y-108854242D01*
X153656658Y-108807488D01*
X153695240Y-108599717D01*
X153749368Y-108338877D01*
X153786837Y-108170897D01*
X153826738Y-107918848D01*
X153847550Y-107611362D01*
X153851017Y-107271550D01*
X153838882Y-106922520D01*
X153812887Y-106587381D01*
X153774775Y-106289244D01*
X153726290Y-106051218D01*
X153669174Y-105896411D01*
X153611602Y-105847338D01*
X153557888Y-105893364D01*
X153557686Y-105895082D01*
X153544204Y-105992127D01*
X153531740Y-106070145D01*
X153488996Y-106387792D01*
X153448905Y-106796654D01*
X153413695Y-107260626D01*
X153385598Y-107743606D01*
X153366842Y-108209491D01*
X153359659Y-108622177D01*
X153196677Y-108622177D01*
X153195081Y-108537640D01*
X153201780Y-108171570D01*
X153219072Y-107767162D01*
X153245092Y-107347068D01*
X153277972Y-106933938D01*
X153315847Y-106550423D01*
X153356850Y-106219177D01*
X153399115Y-105962848D01*
X153440775Y-105804090D01*
X153453343Y-105778121D01*
X153563666Y-105680749D01*
X153693287Y-105660227D01*
X153784816Y-105719361D01*
G37*
G36*
X147524445Y-106927080D02*
G01*
X147629460Y-106965094D01*
X147800050Y-107093600D01*
X147870296Y-107285102D01*
X147843277Y-107528342D01*
X147722071Y-107812061D01*
X147509756Y-108125001D01*
X147226385Y-108439192D01*
X147029856Y-108638175D01*
X146907979Y-108780497D01*
X146842709Y-108896779D01*
X146816004Y-109017640D01*
X146810170Y-109145538D01*
X146803617Y-109362376D01*
X146790618Y-109645411D01*
X146773968Y-109933859D01*
X146773736Y-109937438D01*
X146763233Y-110169506D01*
X146764099Y-110342917D01*
X146775927Y-110427211D01*
X146780353Y-110430797D01*
X146909329Y-110383556D01*
X147088920Y-110257797D01*
X147294169Y-110077466D01*
X147500120Y-109866507D01*
X147681814Y-109648865D01*
X147814294Y-109448485D01*
X147824588Y-109428921D01*
X147953987Y-109175279D01*
X147779245Y-109007866D01*
X147529474Y-108854693D01*
X147306480Y-108799604D01*
X147117005Y-108758867D01*
X147050144Y-108713074D01*
X147102210Y-108673225D01*
X147269514Y-108650320D01*
X147357191Y-108648340D01*
X147575725Y-108671490D01*
X147754586Y-108759137D01*
X147862708Y-108845912D01*
X148025540Y-109028014D01*
X148082249Y-109213713D01*
X148037283Y-109434680D01*
X147967202Y-109589849D01*
X147826601Y-109795855D01*
X147611336Y-110032411D01*
X147356528Y-110265593D01*
X147097298Y-110461477D01*
X147005524Y-110518737D01*
X146854918Y-110613416D01*
X146756898Y-110688540D01*
X146745268Y-110701519D01*
X146683787Y-110707103D01*
X146648026Y-110672532D01*
X146630826Y-110636724D01*
X146617237Y-110573909D01*
X146607078Y-110471998D01*
X146600168Y-110318898D01*
X146596325Y-110102520D01*
X146595366Y-109810773D01*
X146597112Y-109431565D01*
X146601379Y-108952806D01*
X146607986Y-108362406D01*
X146610357Y-108165059D01*
X146617630Y-107566084D01*
X146816072Y-107566084D01*
X146821350Y-107816883D01*
X146833675Y-108153385D01*
X146856344Y-108369728D01*
X146900268Y-108473066D01*
X146976354Y-108470558D01*
X147095510Y-108369359D01*
X147268647Y-108176627D01*
X147305111Y-108134252D01*
X147502112Y-107867754D01*
X147632171Y-107613949D01*
X147686739Y-107395965D01*
X147657266Y-107236929D01*
X147643792Y-107218030D01*
X147511756Y-107145117D01*
X147310440Y-107123703D01*
X147087678Y-107155342D01*
X146972723Y-107196206D01*
X146892553Y-107238630D01*
X146844390Y-107295278D01*
X146821230Y-107394859D01*
X146816072Y-107566084D01*
X146617630Y-107566084D01*
X146623569Y-107077015D01*
X146894121Y-106995940D01*
X147163901Y-106924752D01*
X147359723Y-106902398D01*
X147524445Y-106927080D01*
G37*
G36*
X157934101Y-109117707D02*
G01*
X157954826Y-109176837D01*
X157954898Y-109183305D01*
X157907975Y-109294079D01*
X157865237Y-109323334D01*
X157754343Y-109429274D01*
X157678737Y-109632350D01*
X157646474Y-109905322D01*
X157648850Y-110054963D01*
X157666873Y-110256971D01*
X157701064Y-110364388D01*
X157766045Y-110409932D01*
X157811665Y-110419309D01*
X157923602Y-110457590D01*
X157954898Y-110498883D01*
X157903221Y-110547226D01*
X157781287Y-110557010D01*
X157638739Y-110532494D01*
X157525221Y-110477940D01*
X157507506Y-110460484D01*
X157457530Y-110330759D01*
X157431632Y-110117102D01*
X157431754Y-109860958D01*
X157459837Y-109603776D01*
X157465845Y-109571398D01*
X157503342Y-109380421D01*
X157123034Y-109402056D01*
X156905849Y-109420161D01*
X156777227Y-109454623D01*
X156698416Y-109522495D01*
X156645176Y-109612334D01*
X156494214Y-109841806D01*
X156276014Y-110053962D01*
X156202616Y-110112501D01*
X156123889Y-110170226D01*
X156116010Y-110155779D01*
X156178119Y-110053244D01*
X156197749Y-110022508D01*
X156370638Y-109743708D01*
X156477737Y-109547093D01*
X156528460Y-109412118D01*
X156532222Y-109318236D01*
X156527946Y-109301881D01*
X156521274Y-109242555D01*
X156564353Y-109208097D01*
X156681431Y-109191988D01*
X156896754Y-109187710D01*
X156952657Y-109187699D01*
X157229853Y-109180010D01*
X157498474Y-109159358D01*
X157684346Y-109132986D01*
X157854557Y-109105064D01*
X157934101Y-109117707D01*
G37*
G36*
X147969676Y-110143141D02*
G01*
X148142936Y-110168677D01*
X148249904Y-110199348D01*
X148272024Y-110226003D01*
X148190737Y-110239493D01*
X148165756Y-110239819D01*
X148039506Y-110266837D01*
X147992241Y-110303478D01*
X147926264Y-110360008D01*
X147821478Y-110335029D01*
X147752180Y-110297630D01*
X147669088Y-110220645D01*
X147698994Y-110164179D01*
X147828027Y-110138083D01*
X147969676Y-110143141D01*
G37*
G36*
X148469685Y-110207990D02*
G01*
X148437855Y-110239819D01*
X148406026Y-110207990D01*
X148437855Y-110176160D01*
X148469685Y-110207990D01*
G37*
G36*
X155917805Y-110144330D02*
G01*
X155885975Y-110176160D01*
X155854146Y-110144330D01*
X155885975Y-110112501D01*
X155917805Y-110144330D01*
G37*
G36*
X156045123Y-110080671D02*
G01*
X156013294Y-110112501D01*
X155981464Y-110080671D01*
X156013294Y-110048842D01*
X156045123Y-110080671D01*
G37*
G36*
X155916090Y-109206169D02*
G01*
X155917805Y-109221273D01*
X155865989Y-109277141D01*
X155818559Y-109284932D01*
X155752668Y-109254070D01*
X155758657Y-109221273D01*
X155840043Y-109160042D01*
X155857903Y-109157614D01*
X155916090Y-109206169D01*
G37*
G36*
X155663168Y-109189443D02*
G01*
X155631339Y-109221273D01*
X155599509Y-109189443D01*
X155631339Y-109157614D01*
X155663168Y-109189443D01*
G37*
G36*
X151016051Y-108107238D02*
G01*
X150984221Y-108139067D01*
X150952391Y-108107238D01*
X150984221Y-108075408D01*
X151016051Y-108107238D01*
G37*
G36*
X150855902Y-107882812D02*
G01*
X150856822Y-107955192D01*
X150781131Y-107978862D01*
X150705293Y-107952748D01*
X150661628Y-107901973D01*
X150722208Y-107864240D01*
X150825576Y-107859854D01*
X150855902Y-107882812D01*
G37*
G36*
X144201931Y-107548687D02*
G01*
X144204522Y-107566135D01*
X144182802Y-107628139D01*
X144176449Y-107629794D01*
X144122099Y-107585186D01*
X144109033Y-107566135D01*
X144114080Y-107507474D01*
X144137106Y-107502476D01*
X144201931Y-107548687D01*
G37*
G36*
X144331840Y-107534305D02*
G01*
X144300011Y-107566135D01*
X144268181Y-107534305D01*
X144300011Y-107502476D01*
X144331840Y-107534305D01*
G37*
D11*
X225046000Y-97897733D02*
X225046000Y-98190267D01*
X224026000Y-97897733D02*
X224026000Y-98190267D01*
D10*
X155829000Y-91440000D02*
X155829000Y-81280000D01*
X162179000Y-91440000D02*
X159639000Y-88900000D01*
X167259000Y-91440000D02*
X162179000Y-91440000D01*
X172339000Y-91440000D02*
X155829000Y-91440000D01*
X172339000Y-91440000D02*
X172339000Y-81280000D01*
X159639000Y-88900000D02*
X159639000Y-83820000D01*
X169799000Y-88900000D02*
X167259000Y-91440000D01*
X159639000Y-83820000D02*
X162179000Y-81280000D01*
X169799000Y-83820000D02*
X169799000Y-88900000D01*
X155829000Y-81280000D02*
X172339000Y-81280000D01*
X162179000Y-81280000D02*
X167259000Y-81280000D01*
X167259000Y-81280000D02*
X169799000Y-83820000D01*
D11*
X134009224Y-88406500D02*
X133499776Y-88406500D01*
X134009224Y-87361500D02*
X133499776Y-87361500D01*
D10*
X135590283Y-119380000D02*
G75*
G03*
X135590283Y-119380000I-4018283J0D01*
G01*
X143649700Y-67105500D02*
X143649700Y-75995500D01*
X143624300Y-67105500D02*
X135750300Y-67105500D01*
X135750300Y-74827100D02*
X135750300Y-75995500D01*
X135750300Y-74852500D02*
X135750300Y-67105500D01*
X141338300Y-77138500D02*
X142481300Y-77138500D01*
X141338300Y-77138500D02*
X138036300Y-77138500D01*
X138061700Y-77138500D02*
X136893300Y-77138500D01*
X143624300Y-79424500D02*
X143624300Y-78281500D01*
X143624300Y-79424500D02*
X143624300Y-91718100D01*
X135750300Y-79424500D02*
X135750300Y-91718100D01*
X135750300Y-79449900D02*
X135750300Y-78256100D01*
X135750300Y-91743500D02*
X143624300Y-91743500D01*
X136867900Y-77138500D02*
G75*
G03*
X135750300Y-76020900I-1117598J2D01*
G01*
X143624300Y-75995500D02*
G75*
G03*
X142481300Y-77138500I0J-1143000D01*
G01*
X135750300Y-78256100D02*
G75*
G03*
X136867900Y-77138500I2J1117598D01*
G01*
X142481300Y-77138500D02*
G75*
G03*
X143624300Y-78281500I1143000J0D01*
G01*
D12*
X222696000Y-106206000D02*
X222696000Y-114266000D01*
X221996000Y-119126000D02*
X221996000Y-114266000D01*
X221996000Y-119126000D02*
X161036000Y-119126000D01*
X221996000Y-114266000D02*
X222696000Y-114266000D01*
X221996000Y-106206000D02*
X222696000Y-106206000D01*
X221996000Y-101346000D02*
X221996000Y-106206000D01*
X161036000Y-119126000D02*
X161036000Y-101346000D01*
X161036000Y-101346000D02*
X221996000Y-101346000D01*
D13*
X215746000Y-100736000D02*
G75*
G03*
X215746000Y-100736000I-100000J0D01*
G01*
D11*
X133903767Y-92458000D02*
X133611233Y-92458000D01*
X133903767Y-91438000D02*
X133611233Y-91438000D01*
D14*
X187407176Y-96463970D02*
X187403441Y-96467706D01*
X187399706Y-96463970D01*
X187403441Y-96460235D01*
X187407176Y-96463970D01*
G36*
X187407176Y-96463970D02*
G01*
X187403441Y-96467706D01*
X187399706Y-96463970D01*
X187403441Y-96460235D01*
X187407176Y-96463970D01*
G37*
X190556401Y-93043566D02*
X190605300Y-93050618D01*
X190645114Y-93062193D01*
X190651187Y-93064822D01*
X190675558Y-93076116D01*
X190653147Y-93072325D01*
X190575145Y-93063577D01*
X190502085Y-93064160D01*
X190437284Y-93074037D01*
X190434608Y-93074701D01*
X190359095Y-93099534D01*
X190280405Y-93136745D01*
X190198270Y-93186553D01*
X190112422Y-93249177D01*
X190022592Y-93324834D01*
X189928511Y-93413743D01*
X189829912Y-93516124D01*
X189726526Y-93632193D01*
X189675008Y-93692968D01*
X189627280Y-93750612D01*
X189581682Y-93806823D01*
X189537501Y-93862634D01*
X189494022Y-93919079D01*
X189450530Y-93977191D01*
X189406311Y-94038001D01*
X189360650Y-94102543D01*
X189312832Y-94171851D01*
X189262144Y-94246956D01*
X189207870Y-94328893D01*
X189149296Y-94418693D01*
X189085708Y-94517389D01*
X189016391Y-94626016D01*
X188940629Y-94745605D01*
X188876962Y-94846588D01*
X188731775Y-95080712D01*
X188592132Y-95312812D01*
X188460277Y-95539142D01*
X188427092Y-95597382D01*
X188397103Y-95650001D01*
X188362358Y-95710520D01*
X188325720Y-95773985D01*
X188290048Y-95835440D01*
X188258748Y-95889001D01*
X188227574Y-95942441D01*
X188193377Y-96001623D01*
X188158797Y-96061942D01*
X188126473Y-96118794D01*
X188099045Y-96167574D01*
X188098168Y-96169148D01*
X188074513Y-96211515D01*
X188052072Y-96251574D01*
X188032339Y-96286668D01*
X188016806Y-96314143D01*
X188006966Y-96331345D01*
X188006657Y-96331878D01*
X187987864Y-96364138D01*
X187958862Y-96287054D01*
X187943650Y-96248931D01*
X187924739Y-96205147D01*
X187903075Y-96157564D01*
X187879609Y-96108042D01*
X187855289Y-96058443D01*
X187831064Y-96010628D01*
X187807882Y-95966459D01*
X187786693Y-95927797D01*
X187768444Y-95896503D01*
X187754086Y-95874439D01*
X187744566Y-95863465D01*
X187742498Y-95862588D01*
X187737478Y-95868834D01*
X187726703Y-95886153D01*
X187711415Y-95912420D01*
X187692857Y-95945506D01*
X187675920Y-95976514D01*
X187648572Y-96026961D01*
X187619246Y-96080710D01*
X187588836Y-96136157D01*
X187558235Y-96191696D01*
X187528335Y-96245722D01*
X187500031Y-96296629D01*
X187474214Y-96342812D01*
X187451779Y-96382666D01*
X187433618Y-96414585D01*
X187420625Y-96436964D01*
X187413692Y-96448197D01*
X187413054Y-96449029D01*
X187412536Y-96445750D01*
X187416507Y-96431021D01*
X187424212Y-96407383D01*
X187431918Y-96385529D01*
X187450633Y-96334106D01*
X187471437Y-96277379D01*
X187493734Y-96216932D01*
X187516930Y-96154348D01*
X187540431Y-96091212D01*
X187563641Y-96029106D01*
X187585967Y-95969616D01*
X187606814Y-95914324D01*
X187625586Y-95864814D01*
X187641690Y-95822671D01*
X187654531Y-95789477D01*
X187663513Y-95766817D01*
X187668044Y-95756275D01*
X187668364Y-95755759D01*
X187674665Y-95758680D01*
X187686484Y-95771757D01*
X187701556Y-95792391D01*
X187705756Y-95798714D01*
X187721339Y-95821745D01*
X187734039Y-95838888D01*
X187741585Y-95847119D01*
X187742362Y-95847433D01*
X187747092Y-95841073D01*
X187757726Y-95823377D01*
X187773200Y-95796224D01*
X187792451Y-95761494D01*
X187814416Y-95721070D01*
X187825529Y-95700348D01*
X187851700Y-95651619D01*
X187883035Y-95593720D01*
X187917418Y-95530528D01*
X187952736Y-95465923D01*
X187986876Y-95403783D01*
X188007599Y-95366253D01*
X188037680Y-95311813D01*
X188073015Y-95247712D01*
X188111706Y-95177403D01*
X188151853Y-95104341D01*
X188191556Y-95031982D01*
X188228916Y-94963780D01*
X188241941Y-94939970D01*
X188302475Y-94830141D01*
X188361934Y-94723971D01*
X188419673Y-94622544D01*
X188475048Y-94526937D01*
X188527416Y-94438234D01*
X188576132Y-94357512D01*
X188620552Y-94285854D01*
X188660032Y-94224340D01*
X188693928Y-94174051D01*
X188719531Y-94138752D01*
X188755393Y-94095509D01*
X188787378Y-94064418D01*
X188814954Y-94045775D01*
X188837593Y-94039875D01*
X188854763Y-94047015D01*
X188862742Y-94058792D01*
X188870137Y-94078748D01*
X188871410Y-94090480D01*
X188867201Y-94092047D01*
X188858152Y-94081506D01*
X188856242Y-94078476D01*
X188841827Y-94060966D01*
X188828433Y-94056072D01*
X188828256Y-94056104D01*
X188814216Y-94065065D01*
X188794771Y-94087443D01*
X188770158Y-94122817D01*
X188740612Y-94170769D01*
X188706370Y-94230880D01*
X188667669Y-94302729D01*
X188624743Y-94385898D01*
X188577830Y-94479968D01*
X188527167Y-94584520D01*
X188509086Y-94622470D01*
X188491279Y-94660413D01*
X188469545Y-94707413D01*
X188444431Y-94762239D01*
X188416484Y-94823662D01*
X188386249Y-94890453D01*
X188354275Y-94961383D01*
X188321108Y-95035221D01*
X188287295Y-95110739D01*
X188253383Y-95186707D01*
X188219918Y-95261895D01*
X188187448Y-95335074D01*
X188156519Y-95405014D01*
X188127679Y-95470487D01*
X188101473Y-95530261D01*
X188078450Y-95583109D01*
X188059155Y-95627800D01*
X188044136Y-95663106D01*
X188033939Y-95687795D01*
X188029112Y-95700640D01*
X188028829Y-95702221D01*
X188033402Y-95696876D01*
X188045115Y-95680767D01*
X188062807Y-95655559D01*
X188085320Y-95622914D01*
X188111497Y-95584494D01*
X188131823Y-95554395D01*
X188165708Y-95504354D01*
X188205824Y-95445636D01*
X188251148Y-95379705D01*
X188300656Y-95308024D01*
X188353323Y-95232057D01*
X188408127Y-95153265D01*
X188464042Y-95073111D01*
X188520045Y-94993060D01*
X188575112Y-94914573D01*
X188628219Y-94839114D01*
X188678341Y-94768145D01*
X188724456Y-94703130D01*
X188765539Y-94645531D01*
X188800566Y-94596812D01*
X188828513Y-94558435D01*
X188836397Y-94547764D01*
X188972769Y-94366429D01*
X189102821Y-94198203D01*
X189226835Y-94042792D01*
X189345093Y-93899903D01*
X189457877Y-93769241D01*
X189565469Y-93650513D01*
X189668151Y-93543424D01*
X189766204Y-93447680D01*
X189859912Y-93362987D01*
X189949555Y-93289052D01*
X190035416Y-93225580D01*
X190117777Y-93172277D01*
X190196920Y-93128849D01*
X190197441Y-93128590D01*
X190256435Y-93100435D01*
X190306646Y-93079299D01*
X190351750Y-93063959D01*
X190395427Y-93053190D01*
X190441354Y-93045769D01*
X190449245Y-93044801D01*
X190502891Y-93041478D01*
X190556401Y-93043566D01*
G36*
X190556401Y-93043566D02*
G01*
X190605300Y-93050618D01*
X190645114Y-93062193D01*
X190651187Y-93064822D01*
X190675558Y-93076116D01*
X190653147Y-93072325D01*
X190575145Y-93063577D01*
X190502085Y-93064160D01*
X190437284Y-93074037D01*
X190434608Y-93074701D01*
X190359095Y-93099534D01*
X190280405Y-93136745D01*
X190198270Y-93186553D01*
X190112422Y-93249177D01*
X190022592Y-93324834D01*
X189928511Y-93413743D01*
X189829912Y-93516124D01*
X189726526Y-93632193D01*
X189675008Y-93692968D01*
X189627280Y-93750612D01*
X189581682Y-93806823D01*
X189537501Y-93862634D01*
X189494022Y-93919079D01*
X189450530Y-93977191D01*
X189406311Y-94038001D01*
X189360650Y-94102543D01*
X189312832Y-94171851D01*
X189262144Y-94246956D01*
X189207870Y-94328893D01*
X189149296Y-94418693D01*
X189085708Y-94517389D01*
X189016391Y-94626016D01*
X188940629Y-94745605D01*
X188876962Y-94846588D01*
X188731775Y-95080712D01*
X188592132Y-95312812D01*
X188460277Y-95539142D01*
X188427092Y-95597382D01*
X188397103Y-95650001D01*
X188362358Y-95710520D01*
X188325720Y-95773985D01*
X188290048Y-95835440D01*
X188258748Y-95889001D01*
X188227574Y-95942441D01*
X188193377Y-96001623D01*
X188158797Y-96061942D01*
X188126473Y-96118794D01*
X188099045Y-96167574D01*
X188098168Y-96169148D01*
X188074513Y-96211515D01*
X188052072Y-96251574D01*
X188032339Y-96286668D01*
X188016806Y-96314143D01*
X188006966Y-96331345D01*
X188006657Y-96331878D01*
X187987864Y-96364138D01*
X187958862Y-96287054D01*
X187943650Y-96248931D01*
X187924739Y-96205147D01*
X187903075Y-96157564D01*
X187879609Y-96108042D01*
X187855289Y-96058443D01*
X187831064Y-96010628D01*
X187807882Y-95966459D01*
X187786693Y-95927797D01*
X187768444Y-95896503D01*
X187754086Y-95874439D01*
X187744566Y-95863465D01*
X187742498Y-95862588D01*
X187737478Y-95868834D01*
X187726703Y-95886153D01*
X187711415Y-95912420D01*
X187692857Y-95945506D01*
X187675920Y-95976514D01*
X187648572Y-96026961D01*
X187619246Y-96080710D01*
X187588836Y-96136157D01*
X187558235Y-96191696D01*
X187528335Y-96245722D01*
X187500031Y-96296629D01*
X187474214Y-96342812D01*
X187451779Y-96382666D01*
X187433618Y-96414585D01*
X187420625Y-96436964D01*
X187413692Y-96448197D01*
X187413054Y-96449029D01*
X187412536Y-96445750D01*
X187416507Y-96431021D01*
X187424212Y-96407383D01*
X187431918Y-96385529D01*
X187450633Y-96334106D01*
X187471437Y-96277379D01*
X187493734Y-96216932D01*
X187516930Y-96154348D01*
X187540431Y-96091212D01*
X187563641Y-96029106D01*
X187585967Y-95969616D01*
X187606814Y-95914324D01*
X187625586Y-95864814D01*
X187641690Y-95822671D01*
X187654531Y-95789477D01*
X187663513Y-95766817D01*
X187668044Y-95756275D01*
X187668364Y-95755759D01*
X187674665Y-95758680D01*
X187686484Y-95771757D01*
X187701556Y-95792391D01*
X187705756Y-95798714D01*
X187721339Y-95821745D01*
X187734039Y-95838888D01*
X187741585Y-95847119D01*
X187742362Y-95847433D01*
X187747092Y-95841073D01*
X187757726Y-95823377D01*
X187773200Y-95796224D01*
X187792451Y-95761494D01*
X187814416Y-95721070D01*
X187825529Y-95700348D01*
X187851700Y-95651619D01*
X187883035Y-95593720D01*
X187917418Y-95530528D01*
X187952736Y-95465923D01*
X187986876Y-95403783D01*
X188007599Y-95366253D01*
X188037680Y-95311813D01*
X188073015Y-95247712D01*
X188111706Y-95177403D01*
X188151853Y-95104341D01*
X188191556Y-95031982D01*
X188228916Y-94963780D01*
X188241941Y-94939970D01*
X188302475Y-94830141D01*
X188361934Y-94723971D01*
X188419673Y-94622544D01*
X188475048Y-94526937D01*
X188527416Y-94438234D01*
X188576132Y-94357512D01*
X188620552Y-94285854D01*
X188660032Y-94224340D01*
X188693928Y-94174051D01*
X188719531Y-94138752D01*
X188755393Y-94095509D01*
X188787378Y-94064418D01*
X188814954Y-94045775D01*
X188837593Y-94039875D01*
X188854763Y-94047015D01*
X188862742Y-94058792D01*
X188870137Y-94078748D01*
X188871410Y-94090480D01*
X188867201Y-94092047D01*
X188858152Y-94081506D01*
X188856242Y-94078476D01*
X188841827Y-94060966D01*
X188828433Y-94056072D01*
X188828256Y-94056104D01*
X188814216Y-94065065D01*
X188794771Y-94087443D01*
X188770158Y-94122817D01*
X188740612Y-94170769D01*
X188706370Y-94230880D01*
X188667669Y-94302729D01*
X188624743Y-94385898D01*
X188577830Y-94479968D01*
X188527167Y-94584520D01*
X188509086Y-94622470D01*
X188491279Y-94660413D01*
X188469545Y-94707413D01*
X188444431Y-94762239D01*
X188416484Y-94823662D01*
X188386249Y-94890453D01*
X188354275Y-94961383D01*
X188321108Y-95035221D01*
X188287295Y-95110739D01*
X188253383Y-95186707D01*
X188219918Y-95261895D01*
X188187448Y-95335074D01*
X188156519Y-95405014D01*
X188127679Y-95470487D01*
X188101473Y-95530261D01*
X188078450Y-95583109D01*
X188059155Y-95627800D01*
X188044136Y-95663106D01*
X188033939Y-95687795D01*
X188029112Y-95700640D01*
X188028829Y-95702221D01*
X188033402Y-95696876D01*
X188045115Y-95680767D01*
X188062807Y-95655559D01*
X188085320Y-95622914D01*
X188111497Y-95584494D01*
X188131823Y-95554395D01*
X188165708Y-95504354D01*
X188205824Y-95445636D01*
X188251148Y-95379705D01*
X188300656Y-95308024D01*
X188353323Y-95232057D01*
X188408127Y-95153265D01*
X188464042Y-95073111D01*
X188520045Y-94993060D01*
X188575112Y-94914573D01*
X188628219Y-94839114D01*
X188678341Y-94768145D01*
X188724456Y-94703130D01*
X188765539Y-94645531D01*
X188800566Y-94596812D01*
X188828513Y-94558435D01*
X188836397Y-94547764D01*
X188972769Y-94366429D01*
X189102821Y-94198203D01*
X189226835Y-94042792D01*
X189345093Y-93899903D01*
X189457877Y-93769241D01*
X189565469Y-93650513D01*
X189668151Y-93543424D01*
X189766204Y-93447680D01*
X189859912Y-93362987D01*
X189949555Y-93289052D01*
X190035416Y-93225580D01*
X190117777Y-93172277D01*
X190196920Y-93128849D01*
X190197441Y-93128590D01*
X190256435Y-93100435D01*
X190306646Y-93079299D01*
X190351750Y-93063959D01*
X190395427Y-93053190D01*
X190441354Y-93045769D01*
X190449245Y-93044801D01*
X190502891Y-93041478D01*
X190556401Y-93043566D01*
G37*
X188108063Y-94709092D02*
X188104151Y-94718096D01*
X188091428Y-94737250D01*
X188084129Y-94747585D01*
X188070475Y-94767741D01*
X188057096Y-94789864D01*
X188043154Y-94815724D01*
X188027809Y-94847090D01*
X188010222Y-94885731D01*
X187989552Y-94933416D01*
X187964961Y-94991915D01*
X187943068Y-95044852D01*
X187924449Y-95090560D01*
X187901485Y-95147689D01*
X187875172Y-95213704D01*
X187846506Y-95286073D01*
X187816482Y-95362260D01*
X187786095Y-95439733D01*
X187756342Y-95515958D01*
X187728218Y-95588401D01*
X187702719Y-95654528D01*
X187680839Y-95711805D01*
X187676486Y-95723296D01*
X187668422Y-95744623D01*
X187626519Y-95687244D01*
X187607992Y-95663255D01*
X187592348Y-95645545D01*
X187581751Y-95636433D01*
X187578736Y-95636036D01*
X187574556Y-95643663D01*
X187564451Y-95663618D01*
X187548977Y-95694768D01*
X187528689Y-95735976D01*
X187504142Y-95786110D01*
X187475892Y-95844033D01*
X187444492Y-95908612D01*
X187410499Y-95978711D01*
X187374468Y-96053197D01*
X187360089Y-96082970D01*
X187277305Y-96254363D01*
X187200487Y-96413191D01*
X187129181Y-96560382D01*
X187062932Y-96696862D01*
X187001289Y-96823560D01*
X186943796Y-96941402D01*
X186890002Y-97051316D01*
X186839451Y-97154229D01*
X186791690Y-97251068D01*
X186746267Y-97342761D01*
X186702727Y-97430236D01*
X186660617Y-97514418D01*
X186636647Y-97562147D01*
X186604160Y-97627124D01*
X186576419Y-97682983D01*
X186552437Y-97731004D01*
X186531228Y-97772471D01*
X186511805Y-97808667D01*
X186493181Y-97840873D01*
X186474371Y-97870373D01*
X186454387Y-97898449D01*
X186432242Y-97926384D01*
X186406950Y-97955460D01*
X186377525Y-97986960D01*
X186342979Y-98022166D01*
X186302327Y-98062362D01*
X186254582Y-98108829D01*
X186198756Y-98162850D01*
X186133863Y-98225708D01*
X186103558Y-98255159D01*
X186048897Y-98308645D01*
X185995419Y-98361532D01*
X185944520Y-98412402D01*
X185897596Y-98459837D01*
X185856042Y-98502419D01*
X185821253Y-98538728D01*
X185794625Y-98567346D01*
X185779125Y-98584953D01*
X185736971Y-98634518D01*
X185685854Y-98693126D01*
X185627270Y-98759148D01*
X185562713Y-98830958D01*
X185493678Y-98906925D01*
X185421662Y-98985423D01*
X185348157Y-99064822D01*
X185274661Y-99143495D01*
X185202666Y-99219813D01*
X185133670Y-99292149D01*
X185069166Y-99358873D01*
X185058611Y-99369687D01*
X185022913Y-99406312D01*
X184991039Y-99439212D01*
X184964367Y-99466949D01*
X184944273Y-99488087D01*
X184932137Y-99501185D01*
X184929089Y-99504919D01*
X184938272Y-99508190D01*
X184959076Y-99514175D01*
X184988590Y-99522132D01*
X185023899Y-99531318D01*
X185062089Y-99540989D01*
X185100249Y-99550404D01*
X185135463Y-99558820D01*
X185164819Y-99565493D01*
X185176160Y-99567898D01*
X185224139Y-99576945D01*
X185259007Y-99581709D01*
X185281942Y-99582279D01*
X185294122Y-99578742D01*
X185295925Y-99576780D01*
X185303063Y-99569738D01*
X185319213Y-99555743D01*
X185341665Y-99537105D01*
X185357999Y-99523879D01*
X185416264Y-99477139D01*
X185357308Y-99532745D01*
X185298351Y-99588351D01*
X185323690Y-99592886D01*
X185368603Y-99599382D01*
X185422433Y-99604644D01*
X185483143Y-99608687D01*
X185548691Y-99611526D01*
X185617039Y-99613176D01*
X185686146Y-99613651D01*
X185753974Y-99612967D01*
X185818481Y-99611139D01*
X185877630Y-99608181D01*
X185929379Y-99604109D01*
X185971690Y-99598937D01*
X186002522Y-99592680D01*
X186015882Y-99587819D01*
X186024424Y-99579005D01*
X186039543Y-99558521D01*
X186060434Y-99527686D01*
X186086290Y-99487822D01*
X186116306Y-99440246D01*
X186149677Y-99386280D01*
X186185597Y-99327243D01*
X186223259Y-99264455D01*
X186261859Y-99199235D01*
X186300591Y-99132904D01*
X186338649Y-99066781D01*
X186375228Y-99002186D01*
X186395073Y-98966617D01*
X186426565Y-98910798D01*
X186460387Y-98852521D01*
X186494568Y-98795069D01*
X186527136Y-98741725D01*
X186556119Y-98695771D01*
X186574547Y-98667794D01*
X186602117Y-98625696D01*
X186634136Y-98574549D01*
X186668082Y-98518521D01*
X186701435Y-98461778D01*
X186731675Y-98408488D01*
X186734701Y-98403021D01*
X186771827Y-98337430D01*
X186808336Y-98276808D01*
X186846853Y-98217080D01*
X186890005Y-98154172D01*
X186939312Y-98085521D01*
X187044900Y-97937995D01*
X187144677Y-97792240D01*
X187240963Y-97644662D01*
X187336078Y-97491665D01*
X187432341Y-97329656D01*
X187477072Y-97252117D01*
X187503914Y-97205994D01*
X187528339Y-97166181D01*
X187552550Y-97129558D01*
X187578748Y-97093007D01*
X187609134Y-97053407D01*
X187645911Y-97007639D01*
X187672136Y-96975706D01*
X187708330Y-96931801D01*
X187744332Y-96888009D01*
X187778101Y-96846819D01*
X187807594Y-96810725D01*
X187830771Y-96782219D01*
X187840418Y-96770264D01*
X187863636Y-96741663D01*
X187893033Y-96705898D01*
X187925115Y-96667199D01*
X187956392Y-96629790D01*
X187961563Y-96623643D01*
X187987029Y-96592808D01*
X188008637Y-96565509D01*
X188024700Y-96543970D01*
X188033530Y-96530414D01*
X188034706Y-96527330D01*
X188032712Y-96516112D01*
X188027584Y-96495724D01*
X188020596Y-96470558D01*
X188013025Y-96445004D01*
X188006147Y-96423453D01*
X188001237Y-96410298D01*
X188000147Y-96408407D01*
X187993624Y-96411432D01*
X187979607Y-96422533D01*
X187962223Y-96438289D01*
X187944982Y-96453825D01*
X187936912Y-96458973D01*
X187938476Y-96453444D01*
X187938888Y-96452764D01*
X187949333Y-96434603D01*
X187962182Y-96410751D01*
X187967251Y-96400948D01*
X187977446Y-96381785D01*
X187983699Y-96374344D01*
X187988622Y-96376920D01*
X187992910Y-96384208D01*
X187996931Y-96390321D01*
X188002009Y-96392415D01*
X188010065Y-96389291D01*
X188023018Y-96379748D01*
X188042790Y-96362585D01*
X188071300Y-96336601D01*
X188076094Y-96332195D01*
X188160648Y-96255106D01*
X188235976Y-96187874D01*
X188303189Y-96129571D01*
X188363401Y-96079269D01*
X188417725Y-96036039D01*
X188467273Y-95998954D01*
X188513158Y-95967085D01*
X188516558Y-95964829D01*
X188577376Y-95927171D01*
X188629417Y-95900364D01*
X188672424Y-95884501D01*
X188706137Y-95879672D01*
X188730297Y-95885970D01*
X188733206Y-95887975D01*
X188741181Y-95894961D01*
X188739696Y-95898372D01*
X188726588Y-95899539D01*
X188714124Y-95899703D01*
X188680819Y-95904643D01*
X188647773Y-95920450D01*
X188646302Y-95921376D01*
X188620136Y-95939864D01*
X188586246Y-95966597D01*
X188547386Y-95999168D01*
X188506310Y-96035170D01*
X188465770Y-96072196D01*
X188428521Y-96107839D01*
X188400764Y-96136027D01*
X188377713Y-96160599D01*
X188348511Y-96192102D01*
X188314692Y-96228847D01*
X188277788Y-96269146D01*
X188239334Y-96311309D01*
X188200860Y-96353648D01*
X188163901Y-96394474D01*
X188129990Y-96432098D01*
X188100658Y-96464832D01*
X188077439Y-96490986D01*
X188061866Y-96508872D01*
X188056758Y-96515024D01*
X188040292Y-96535957D01*
X188060498Y-96626964D01*
X188077096Y-96706010D01*
X188090002Y-96778352D01*
X188099704Y-96848214D01*
X188106691Y-96919818D01*
X188111451Y-96997389D01*
X188114472Y-97085149D01*
X188114727Y-97095961D01*
X188115663Y-97217410D01*
X188112408Y-97328275D01*
X188104573Y-97432417D01*
X188091772Y-97533700D01*
X188073618Y-97635988D01*
X188049969Y-97742127D01*
X187998257Y-97924228D01*
X187932882Y-98100930D01*
X187854370Y-98271514D01*
X187763249Y-98435262D01*
X187660043Y-98591457D01*
X187545280Y-98739380D01*
X187419485Y-98878315D01*
X187283184Y-99007544D01*
X187136904Y-99126348D01*
X186981170Y-99234010D01*
X186935743Y-99262181D01*
X186780707Y-99348247D01*
X186618529Y-99423535D01*
X186451694Y-99487107D01*
X186282687Y-99538028D01*
X186113992Y-99575361D01*
X186096088Y-99578508D01*
X186056817Y-99586502D01*
X186031478Y-99594746D01*
X186019256Y-99603291D01*
X186012479Y-99612955D01*
X185998518Y-99633084D01*
X185978650Y-99661829D01*
X185954153Y-99697341D01*
X185926302Y-99737771D01*
X185904328Y-99769706D01*
X185822344Y-99886097D01*
X185745221Y-99989614D01*
X185672117Y-100081191D01*
X185602191Y-100161763D01*
X185534601Y-100232267D01*
X185468507Y-100293637D01*
X185403067Y-100346809D01*
X185353680Y-100382025D01*
X185310153Y-100408601D01*
X185260045Y-100434941D01*
X185208108Y-100458844D01*
X185159095Y-100478110D01*
X185120795Y-100489818D01*
X185059530Y-100500696D01*
X184993236Y-100505533D01*
X184928425Y-100504106D01*
X184880674Y-100498053D01*
X184792144Y-100473685D01*
X184707297Y-100434865D01*
X184626247Y-100381648D01*
X184598191Y-100359120D01*
X184576535Y-100342256D01*
X184558907Y-100333502D01*
X184538866Y-100330309D01*
X184524621Y-100330000D01*
X184424507Y-100324132D01*
X184322922Y-100307187D01*
X184298763Y-100300630D01*
X184850859Y-100300630D01*
X184861201Y-100307117D01*
X184870911Y-100310150D01*
X184885081Y-100311780D01*
X184909589Y-100312579D01*
X184939850Y-100312428D01*
X184949353Y-100312180D01*
X184992931Y-100309033D01*
X185028890Y-100301795D01*
X185059759Y-100290998D01*
X185110257Y-100267941D01*
X185155449Y-100241537D01*
X185199364Y-100209018D01*
X185246032Y-100167617D01*
X185262576Y-100151677D01*
X185286991Y-100127355D01*
X185305139Y-100108429D01*
X185315673Y-100096375D01*
X185317251Y-100092670D01*
X185315411Y-100093637D01*
X185238196Y-100141594D01*
X185171478Y-100179837D01*
X185114688Y-100208692D01*
X185111970Y-100209954D01*
X185071879Y-100227138D01*
X185025963Y-100244698D01*
X184978376Y-100261239D01*
X184933271Y-100275362D01*
X184894801Y-100285673D01*
X184874554Y-100289793D01*
X184855337Y-100294702D01*
X184850859Y-100300630D01*
X184298763Y-100300630D01*
X184223309Y-100280152D01*
X184129110Y-100244012D01*
X184043766Y-100199755D01*
X184021524Y-100185780D01*
X183995799Y-100170812D01*
X183970513Y-100159178D01*
X183955764Y-100154522D01*
X183936312Y-100148744D01*
X183908973Y-100138305D01*
X183879183Y-100125306D01*
X183874838Y-100123265D01*
X183815076Y-100086747D01*
X183814980Y-100086656D01*
X184542486Y-100086656D01*
X184544964Y-100092579D01*
X184551947Y-100100587D01*
X184553595Y-100102342D01*
X184562941Y-100111558D01*
X184572229Y-100117256D01*
X184584348Y-100119522D01*
X184602187Y-100118445D01*
X184628635Y-100114111D01*
X184666581Y-100106608D01*
X184670251Y-100105863D01*
X184700779Y-100099056D01*
X184735754Y-100090299D01*
X184772472Y-100080392D01*
X184808228Y-100070135D01*
X184840318Y-100060328D01*
X184866040Y-100051770D01*
X184882688Y-100045260D01*
X184887560Y-100041600D01*
X184887555Y-100041594D01*
X184879474Y-100041563D01*
X184860269Y-100043831D01*
X184833501Y-100047946D01*
X184822099Y-100049897D01*
X184789508Y-100054856D01*
X184747493Y-100060143D01*
X184701539Y-100065119D01*
X184658258Y-100069051D01*
X184612245Y-100072806D01*
X184579392Y-100075894D01*
X184557969Y-100078864D01*
X184546244Y-100082268D01*
X184542486Y-100086656D01*
X183814980Y-100086656D01*
X183763258Y-100038122D01*
X183719884Y-99978235D01*
X183685454Y-99907936D01*
X183660468Y-99828069D01*
X183645426Y-99739484D01*
X183644818Y-99733584D01*
X183639561Y-99701459D01*
X183630330Y-99663367D01*
X183619029Y-99627073D01*
X183617927Y-99624029D01*
X183588685Y-99534027D01*
X183584923Y-99519441D01*
X183730501Y-99519441D01*
X183733759Y-99572876D01*
X183737061Y-99605415D01*
X183743785Y-99632094D01*
X183756081Y-99660007D01*
X183765446Y-99677464D01*
X183829015Y-99780287D01*
X183898035Y-99869608D01*
X183972979Y-99946014D01*
X184004323Y-99972769D01*
X184049147Y-100009081D01*
X184097706Y-100004450D01*
X184123000Y-100001655D01*
X184141662Y-99998874D01*
X184149377Y-99996822D01*
X184150978Y-99994810D01*
X184149552Y-99992158D01*
X184142751Y-99987202D01*
X184128227Y-99978278D01*
X184103630Y-99963725D01*
X184097706Y-99960234D01*
X184016057Y-99905218D01*
X183942743Y-99840886D01*
X183876570Y-99765907D01*
X183816345Y-99678950D01*
X183767634Y-99592079D01*
X183730501Y-99519441D01*
X183584923Y-99519441D01*
X183562110Y-99430998D01*
X183538559Y-99316678D01*
X183518393Y-99192800D01*
X183502657Y-99067470D01*
X183499224Y-99028355D01*
X183496344Y-98980763D01*
X183494033Y-98926962D01*
X183492306Y-98869217D01*
X183491178Y-98809795D01*
X183490667Y-98750962D01*
X183490787Y-98694985D01*
X183491555Y-98644130D01*
X183492987Y-98600663D01*
X183495098Y-98566852D01*
X183497905Y-98544962D01*
X183498969Y-98540794D01*
X183503086Y-98529493D01*
X183505374Y-98528920D01*
X183506475Y-98540586D01*
X183506929Y-98559470D01*
X183509355Y-98618824D01*
X183514582Y-98689308D01*
X183522170Y-98767466D01*
X183531677Y-98849846D01*
X183542660Y-98932991D01*
X183554678Y-99013446D01*
X183567289Y-99087758D01*
X183580052Y-99152471D01*
X183586232Y-99179647D01*
X183597646Y-99225145D01*
X183609744Y-99270018D01*
X183621835Y-99312045D01*
X183633228Y-99349006D01*
X183643231Y-99378679D01*
X183651154Y-99398844D01*
X183656306Y-99407279D01*
X183657066Y-99407304D01*
X183663928Y-99395211D01*
X183667358Y-99371455D01*
X183667362Y-99338914D01*
X183663944Y-99300465D01*
X183657111Y-99258985D01*
X183656779Y-99257363D01*
X183645958Y-99201683D01*
X183637164Y-99148389D01*
X183630191Y-99094946D01*
X183624829Y-99038816D01*
X183620872Y-98977464D01*
X183618110Y-98908352D01*
X183616337Y-98828946D01*
X183615468Y-98753706D01*
X183614304Y-98608217D01*
X183657306Y-98608217D01*
X183658024Y-98637245D01*
X183659506Y-98673390D01*
X183661622Y-98714056D01*
X183664243Y-98756652D01*
X183667239Y-98798583D01*
X183670479Y-98837256D01*
X183672536Y-98858294D01*
X183676686Y-98893359D01*
X183682200Y-98933568D01*
X183688588Y-98975987D01*
X183695358Y-99017684D01*
X183702021Y-99055724D01*
X183708086Y-99087175D01*
X183713062Y-99109104D01*
X183715938Y-99117836D01*
X183719972Y-99114802D01*
X183727370Y-99099838D01*
X183737123Y-99075302D01*
X183748219Y-99043551D01*
X183749584Y-99039395D01*
X183766391Y-98989275D01*
X183781421Y-98947187D01*
X183794105Y-98914562D01*
X183803875Y-98892832D01*
X183810162Y-98883428D01*
X183811551Y-98883414D01*
X183811300Y-98891503D01*
X183808324Y-98911289D01*
X183803117Y-98939881D01*
X183796171Y-98974386D01*
X183795471Y-98977714D01*
X183785933Y-99024814D01*
X183775773Y-99078110D01*
X183766471Y-99129716D01*
X183761685Y-99157997D01*
X183747142Y-99247142D01*
X183769843Y-99312321D01*
X183788838Y-99362302D01*
X183812328Y-99417110D01*
X183838332Y-99472628D01*
X183864874Y-99524741D01*
X183889975Y-99569331D01*
X183903987Y-99591455D01*
X183939612Y-99638636D01*
X183982843Y-99687240D01*
X184029152Y-99732564D01*
X184074008Y-99769904D01*
X184080222Y-99774448D01*
X184102833Y-99789316D01*
X184130676Y-99805697D01*
X184160769Y-99822082D01*
X184190127Y-99836962D01*
X184215768Y-99848830D01*
X184234708Y-99856175D01*
X184243963Y-99857490D01*
X184244145Y-99857344D01*
X184242770Y-99849578D01*
X184236310Y-99831846D01*
X184226080Y-99807685D01*
X184223807Y-99802635D01*
X184201751Y-99751878D01*
X184176940Y-99691121D01*
X184150998Y-99624652D01*
X184125549Y-99556755D01*
X184102218Y-99491716D01*
X184082629Y-99433822D01*
X184075429Y-99411117D01*
X184062979Y-99369503D01*
X184049547Y-99322470D01*
X184035736Y-99272366D01*
X184022151Y-99221540D01*
X184009398Y-99172339D01*
X183998079Y-99127112D01*
X183988800Y-99088207D01*
X183982165Y-99057972D01*
X183978779Y-99038754D01*
X183978471Y-99034496D01*
X183981195Y-99037358D01*
X183988793Y-99052628D01*
X184000623Y-99078828D01*
X184016042Y-99114481D01*
X184034409Y-99158108D01*
X184055081Y-99208232D01*
X184070729Y-99246764D01*
X184103536Y-99327392D01*
X184132381Y-99396615D01*
X184158481Y-99457043D01*
X184183057Y-99511286D01*
X184207326Y-99561955D01*
X184232506Y-99611658D01*
X184259816Y-99663005D01*
X184290475Y-99718607D01*
X184293787Y-99724530D01*
X184323584Y-99777359D01*
X184347351Y-99818408D01*
X184366076Y-99849091D01*
X184380747Y-99870817D01*
X184392351Y-99884998D01*
X184401878Y-99893046D01*
X184410314Y-99896372D01*
X184414295Y-99896706D01*
X184427835Y-99892726D01*
X184450145Y-99881986D01*
X184477747Y-99866281D01*
X184498494Y-99853205D01*
X184528946Y-99832253D01*
X184566660Y-99804865D01*
X184607421Y-99774176D01*
X184647018Y-99743321D01*
X184658062Y-99734483D01*
X184665223Y-99728617D01*
X185098764Y-99728617D01*
X185102500Y-99732353D01*
X185106235Y-99728617D01*
X185102500Y-99724882D01*
X185098764Y-99728617D01*
X184665223Y-99728617D01*
X184672933Y-99722301D01*
X185113706Y-99722301D01*
X185119416Y-99720886D01*
X185136486Y-99709941D01*
X185164822Y-99689531D01*
X185204332Y-99659722D01*
X185224368Y-99644312D01*
X185249527Y-99624328D01*
X185269100Y-99607723D01*
X185280791Y-99596517D01*
X185282975Y-99592838D01*
X185276395Y-99596003D01*
X185260749Y-99606562D01*
X185238613Y-99622543D01*
X185212565Y-99641975D01*
X185185180Y-99662888D01*
X185159037Y-99683311D01*
X185136711Y-99701273D01*
X185120779Y-99714803D01*
X185113818Y-99721931D01*
X185113706Y-99722301D01*
X184672933Y-99722301D01*
X184690217Y-99708144D01*
X184725520Y-99678515D01*
X184762263Y-99647111D01*
X184798733Y-99615447D01*
X184833220Y-99585038D01*
X184864014Y-99557399D01*
X184889404Y-99534044D01*
X184907680Y-99516488D01*
X184917131Y-99506246D01*
X184917985Y-99504309D01*
X184910512Y-99501035D01*
X184891784Y-99493716D01*
X184864585Y-99483420D01*
X184831700Y-99471214D01*
X184830020Y-99470596D01*
X184656021Y-99398993D01*
X184488056Y-99314587D01*
X184327133Y-99218125D01*
X184174261Y-99110353D01*
X184030450Y-98992017D01*
X183896707Y-98863861D01*
X183774042Y-98726631D01*
X183705830Y-98639779D01*
X183686966Y-98615021D01*
X183671407Y-98595547D01*
X183661276Y-98583962D01*
X183658684Y-98581882D01*
X183657483Y-98588898D01*
X183657306Y-98608217D01*
X183614304Y-98608217D01*
X183613525Y-98510911D01*
X183563575Y-98428735D01*
X183472403Y-98264482D01*
X183394562Y-98093618D01*
X183330024Y-97916060D01*
X183278761Y-97731726D01*
X183240745Y-97540533D01*
X183222722Y-97409000D01*
X183219239Y-97367396D01*
X183216657Y-97314292D01*
X183214974Y-97253102D01*
X183214192Y-97187240D01*
X183214311Y-97120120D01*
X183215330Y-97055155D01*
X183217249Y-96995761D01*
X183220068Y-96945350D01*
X183222722Y-96915941D01*
X183252037Y-96719749D01*
X183294795Y-96530073D01*
X183351010Y-96346878D01*
X183420696Y-96170130D01*
X183503867Y-95999796D01*
X183600537Y-95835841D01*
X183710720Y-95678232D01*
X183753305Y-95623529D01*
X183791338Y-95578220D01*
X183837665Y-95526540D01*
X183889145Y-95471736D01*
X183942636Y-95417050D01*
X183994998Y-95365729D01*
X184043087Y-95321017D01*
X184064088Y-95302548D01*
X184214337Y-95183282D01*
X184372313Y-95076691D01*
X184537451Y-94983020D01*
X184709183Y-94902518D01*
X184886942Y-94835431D01*
X185070162Y-94782007D01*
X185258277Y-94742491D01*
X185393853Y-94723089D01*
X185449448Y-94718058D01*
X185515718Y-94714343D01*
X185588783Y-94711972D01*
X185664767Y-94710976D01*
X185739791Y-94711385D01*
X185809978Y-94713228D01*
X185871449Y-94716537D01*
X185901853Y-94719166D01*
X186095319Y-94746256D01*
X186282772Y-94787005D01*
X186464370Y-94841479D01*
X186640273Y-94909743D01*
X186810640Y-94991865D01*
X186975630Y-95087909D01*
X187135403Y-95197941D01*
X187220411Y-95263879D01*
X187253020Y-95291495D01*
X187291915Y-95326493D01*
X187334829Y-95366635D01*
X187379495Y-95409686D01*
X187423646Y-95453410D01*
X187465015Y-95495569D01*
X187501335Y-95533927D01*
X187530340Y-95566249D01*
X187545382Y-95584476D01*
X187561187Y-95604165D01*
X187573341Y-95618107D01*
X187579000Y-95623147D01*
X187583132Y-95616778D01*
X187593129Y-95598608D01*
X187608176Y-95570199D01*
X187627460Y-95533113D01*
X187650164Y-95488913D01*
X187675475Y-95439162D01*
X187692766Y-95404931D01*
X187746377Y-95299600D01*
X187797936Y-95200457D01*
X187846996Y-95108277D01*
X187893112Y-95023832D01*
X187935835Y-94947896D01*
X187974719Y-94881241D01*
X188009318Y-94824640D01*
X188039185Y-94778868D01*
X188063873Y-94744696D01*
X188082935Y-94722897D01*
X188090438Y-94716734D01*
X188103410Y-94709038D01*
X188108063Y-94709092D01*
G36*
X188108063Y-94709092D02*
G01*
X188104151Y-94718096D01*
X188091428Y-94737250D01*
X188084129Y-94747585D01*
X188070475Y-94767741D01*
X188057096Y-94789864D01*
X188043154Y-94815724D01*
X188027809Y-94847090D01*
X188010222Y-94885731D01*
X187989552Y-94933416D01*
X187964961Y-94991915D01*
X187943068Y-95044852D01*
X187924449Y-95090560D01*
X187901485Y-95147689D01*
X187875172Y-95213704D01*
X187846506Y-95286073D01*
X187816482Y-95362260D01*
X187786095Y-95439733D01*
X187756342Y-95515958D01*
X187728218Y-95588401D01*
X187702719Y-95654528D01*
X187680839Y-95711805D01*
X187676486Y-95723296D01*
X187668422Y-95744623D01*
X187626519Y-95687244D01*
X187607992Y-95663255D01*
X187592348Y-95645545D01*
X187581751Y-95636433D01*
X187578736Y-95636036D01*
X187574556Y-95643663D01*
X187564451Y-95663618D01*
X187548977Y-95694768D01*
X187528689Y-95735976D01*
X187504142Y-95786110D01*
X187475892Y-95844033D01*
X187444492Y-95908612D01*
X187410499Y-95978711D01*
X187374468Y-96053197D01*
X187360089Y-96082970D01*
X187277305Y-96254363D01*
X187200487Y-96413191D01*
X187129181Y-96560382D01*
X187062932Y-96696862D01*
X187001289Y-96823560D01*
X186943796Y-96941402D01*
X186890002Y-97051316D01*
X186839451Y-97154229D01*
X186791690Y-97251068D01*
X186746267Y-97342761D01*
X186702727Y-97430236D01*
X186660617Y-97514418D01*
X186636647Y-97562147D01*
X186604160Y-97627124D01*
X186576419Y-97682983D01*
X186552437Y-97731004D01*
X186531228Y-97772471D01*
X186511805Y-97808667D01*
X186493181Y-97840873D01*
X186474371Y-97870373D01*
X186454387Y-97898449D01*
X186432242Y-97926384D01*
X186406950Y-97955460D01*
X186377525Y-97986960D01*
X186342979Y-98022166D01*
X186302327Y-98062362D01*
X186254582Y-98108829D01*
X186198756Y-98162850D01*
X186133863Y-98225708D01*
X186103558Y-98255159D01*
X186048897Y-98308645D01*
X185995419Y-98361532D01*
X185944520Y-98412402D01*
X185897596Y-98459837D01*
X185856042Y-98502419D01*
X185821253Y-98538728D01*
X185794625Y-98567346D01*
X185779125Y-98584953D01*
X185736971Y-98634518D01*
X185685854Y-98693126D01*
X185627270Y-98759148D01*
X185562713Y-98830958D01*
X185493678Y-98906925D01*
X185421662Y-98985423D01*
X185348157Y-99064822D01*
X185274661Y-99143495D01*
X185202666Y-99219813D01*
X185133670Y-99292149D01*
X185069166Y-99358873D01*
X185058611Y-99369687D01*
X185022913Y-99406312D01*
X184991039Y-99439212D01*
X184964367Y-99466949D01*
X184944273Y-99488087D01*
X184932137Y-99501185D01*
X184929089Y-99504919D01*
X184938272Y-99508190D01*
X184959076Y-99514175D01*
X184988590Y-99522132D01*
X185023899Y-99531318D01*
X185062089Y-99540989D01*
X185100249Y-99550404D01*
X185135463Y-99558820D01*
X185164819Y-99565493D01*
X185176160Y-99567898D01*
X185224139Y-99576945D01*
X185259007Y-99581709D01*
X185281942Y-99582279D01*
X185294122Y-99578742D01*
X185295925Y-99576780D01*
X185303063Y-99569738D01*
X185319213Y-99555743D01*
X185341665Y-99537105D01*
X185357999Y-99523879D01*
X185416264Y-99477139D01*
X185357308Y-99532745D01*
X185298351Y-99588351D01*
X185323690Y-99592886D01*
X185368603Y-99599382D01*
X185422433Y-99604644D01*
X185483143Y-99608687D01*
X185548691Y-99611526D01*
X185617039Y-99613176D01*
X185686146Y-99613651D01*
X185753974Y-99612967D01*
X185818481Y-99611139D01*
X185877630Y-99608181D01*
X185929379Y-99604109D01*
X185971690Y-99598937D01*
X186002522Y-99592680D01*
X186015882Y-99587819D01*
X186024424Y-99579005D01*
X186039543Y-99558521D01*
X186060434Y-99527686D01*
X186086290Y-99487822D01*
X186116306Y-99440246D01*
X186149677Y-99386280D01*
X186185597Y-99327243D01*
X186223259Y-99264455D01*
X186261859Y-99199235D01*
X186300591Y-99132904D01*
X186338649Y-99066781D01*
X186375228Y-99002186D01*
X186395073Y-98966617D01*
X186426565Y-98910798D01*
X186460387Y-98852521D01*
X186494568Y-98795069D01*
X186527136Y-98741725D01*
X186556119Y-98695771D01*
X186574547Y-98667794D01*
X186602117Y-98625696D01*
X186634136Y-98574549D01*
X186668082Y-98518521D01*
X186701435Y-98461778D01*
X186731675Y-98408488D01*
X186734701Y-98403021D01*
X186771827Y-98337430D01*
X186808336Y-98276808D01*
X186846853Y-98217080D01*
X186890005Y-98154172D01*
X186939312Y-98085521D01*
X187044900Y-97937995D01*
X187144677Y-97792240D01*
X187240963Y-97644662D01*
X187336078Y-97491665D01*
X187432341Y-97329656D01*
X187477072Y-97252117D01*
X187503914Y-97205994D01*
X187528339Y-97166181D01*
X187552550Y-97129558D01*
X187578748Y-97093007D01*
X187609134Y-97053407D01*
X187645911Y-97007639D01*
X187672136Y-96975706D01*
X187708330Y-96931801D01*
X187744332Y-96888009D01*
X187778101Y-96846819D01*
X187807594Y-96810725D01*
X187830771Y-96782219D01*
X187840418Y-96770264D01*
X187863636Y-96741663D01*
X187893033Y-96705898D01*
X187925115Y-96667199D01*
X187956392Y-96629790D01*
X187961563Y-96623643D01*
X187987029Y-96592808D01*
X188008637Y-96565509D01*
X188024700Y-96543970D01*
X188033530Y-96530414D01*
X188034706Y-96527330D01*
X188032712Y-96516112D01*
X188027584Y-96495724D01*
X188020596Y-96470558D01*
X188013025Y-96445004D01*
X188006147Y-96423453D01*
X188001237Y-96410298D01*
X188000147Y-96408407D01*
X187993624Y-96411432D01*
X187979607Y-96422533D01*
X187962223Y-96438289D01*
X187944982Y-96453825D01*
X187936912Y-96458973D01*
X187938476Y-96453444D01*
X187938888Y-96452764D01*
X187949333Y-96434603D01*
X187962182Y-96410751D01*
X187967251Y-96400948D01*
X187977446Y-96381785D01*
X187983699Y-96374344D01*
X187988622Y-96376920D01*
X187992910Y-96384208D01*
X187996931Y-96390321D01*
X188002009Y-96392415D01*
X188010065Y-96389291D01*
X188023018Y-96379748D01*
X188042790Y-96362585D01*
X188071300Y-96336601D01*
X188076094Y-96332195D01*
X188160648Y-96255106D01*
X188235976Y-96187874D01*
X188303189Y-96129571D01*
X188363401Y-96079269D01*
X188417725Y-96036039D01*
X188467273Y-95998954D01*
X188513158Y-95967085D01*
X188516558Y-95964829D01*
X188577376Y-95927171D01*
X188629417Y-95900364D01*
X188672424Y-95884501D01*
X188706137Y-95879672D01*
X188730297Y-95885970D01*
X188733206Y-95887975D01*
X188741181Y-95894961D01*
X188739696Y-95898372D01*
X188726588Y-95899539D01*
X188714124Y-95899703D01*
X188680819Y-95904643D01*
X188647773Y-95920450D01*
X188646302Y-95921376D01*
X188620136Y-95939864D01*
X188586246Y-95966597D01*
X188547386Y-95999168D01*
X188506310Y-96035170D01*
X188465770Y-96072196D01*
X188428521Y-96107839D01*
X188400764Y-96136027D01*
X188377713Y-96160599D01*
X188348511Y-96192102D01*
X188314692Y-96228847D01*
X188277788Y-96269146D01*
X188239334Y-96311309D01*
X188200860Y-96353648D01*
X188163901Y-96394474D01*
X188129990Y-96432098D01*
X188100658Y-96464832D01*
X188077439Y-96490986D01*
X188061866Y-96508872D01*
X188056758Y-96515024D01*
X188040292Y-96535957D01*
X188060498Y-96626964D01*
X188077096Y-96706010D01*
X188090002Y-96778352D01*
X188099704Y-96848214D01*
X188106691Y-96919818D01*
X188111451Y-96997389D01*
X188114472Y-97085149D01*
X188114727Y-97095961D01*
X188115663Y-97217410D01*
X188112408Y-97328275D01*
X188104573Y-97432417D01*
X188091772Y-97533700D01*
X188073618Y-97635988D01*
X188049969Y-97742127D01*
X187998257Y-97924228D01*
X187932882Y-98100930D01*
X187854370Y-98271514D01*
X187763249Y-98435262D01*
X187660043Y-98591457D01*
X187545280Y-98739380D01*
X187419485Y-98878315D01*
X187283184Y-99007544D01*
X187136904Y-99126348D01*
X186981170Y-99234010D01*
X186935743Y-99262181D01*
X186780707Y-99348247D01*
X186618529Y-99423535D01*
X186451694Y-99487107D01*
X186282687Y-99538028D01*
X186113992Y-99575361D01*
X186096088Y-99578508D01*
X186056817Y-99586502D01*
X186031478Y-99594746D01*
X186019256Y-99603291D01*
X186012479Y-99612955D01*
X185998518Y-99633084D01*
X185978650Y-99661829D01*
X185954153Y-99697341D01*
X185926302Y-99737771D01*
X185904328Y-99769706D01*
X185822344Y-99886097D01*
X185745221Y-99989614D01*
X185672117Y-100081191D01*
X185602191Y-100161763D01*
X185534601Y-100232267D01*
X185468507Y-100293637D01*
X185403067Y-100346809D01*
X185353680Y-100382025D01*
X185310153Y-100408601D01*
X185260045Y-100434941D01*
X185208108Y-100458844D01*
X185159095Y-100478110D01*
X185120795Y-100489818D01*
X185059530Y-100500696D01*
X184993236Y-100505533D01*
X184928425Y-100504106D01*
X184880674Y-100498053D01*
X184792144Y-100473685D01*
X184707297Y-100434865D01*
X184626247Y-100381648D01*
X184598191Y-100359120D01*
X184576535Y-100342256D01*
X184558907Y-100333502D01*
X184538866Y-100330309D01*
X184524621Y-100330000D01*
X184424507Y-100324132D01*
X184322922Y-100307187D01*
X184298763Y-100300630D01*
X184850859Y-100300630D01*
X184861201Y-100307117D01*
X184870911Y-100310150D01*
X184885081Y-100311780D01*
X184909589Y-100312579D01*
X184939850Y-100312428D01*
X184949353Y-100312180D01*
X184992931Y-100309033D01*
X185028890Y-100301795D01*
X185059759Y-100290998D01*
X185110257Y-100267941D01*
X185155449Y-100241537D01*
X185199364Y-100209018D01*
X185246032Y-100167617D01*
X185262576Y-100151677D01*
X185286991Y-100127355D01*
X185305139Y-100108429D01*
X185315673Y-100096375D01*
X185317251Y-100092670D01*
X185315411Y-100093637D01*
X185238196Y-100141594D01*
X185171478Y-100179837D01*
X185114688Y-100208692D01*
X185111970Y-100209954D01*
X185071879Y-100227138D01*
X185025963Y-100244698D01*
X184978376Y-100261239D01*
X184933271Y-100275362D01*
X184894801Y-100285673D01*
X184874554Y-100289793D01*
X184855337Y-100294702D01*
X184850859Y-100300630D01*
X184298763Y-100300630D01*
X184223309Y-100280152D01*
X184129110Y-100244012D01*
X184043766Y-100199755D01*
X184021524Y-100185780D01*
X183995799Y-100170812D01*
X183970513Y-100159178D01*
X183955764Y-100154522D01*
X183936312Y-100148744D01*
X183908973Y-100138305D01*
X183879183Y-100125306D01*
X183874838Y-100123265D01*
X183815076Y-100086747D01*
X183814980Y-100086656D01*
X184542486Y-100086656D01*
X184544964Y-100092579D01*
X184551947Y-100100587D01*
X184553595Y-100102342D01*
X184562941Y-100111558D01*
X184572229Y-100117256D01*
X184584348Y-100119522D01*
X184602187Y-100118445D01*
X184628635Y-100114111D01*
X184666581Y-100106608D01*
X184670251Y-100105863D01*
X184700779Y-100099056D01*
X184735754Y-100090299D01*
X184772472Y-100080392D01*
X184808228Y-100070135D01*
X184840318Y-100060328D01*
X184866040Y-100051770D01*
X184882688Y-100045260D01*
X184887560Y-100041600D01*
X184887555Y-100041594D01*
X184879474Y-100041563D01*
X184860269Y-100043831D01*
X184833501Y-100047946D01*
X184822099Y-100049897D01*
X184789508Y-100054856D01*
X184747493Y-100060143D01*
X184701539Y-100065119D01*
X184658258Y-100069051D01*
X184612245Y-100072806D01*
X184579392Y-100075894D01*
X184557969Y-100078864D01*
X184546244Y-100082268D01*
X184542486Y-100086656D01*
X183814980Y-100086656D01*
X183763258Y-100038122D01*
X183719884Y-99978235D01*
X183685454Y-99907936D01*
X183660468Y-99828069D01*
X183645426Y-99739484D01*
X183644818Y-99733584D01*
X183639561Y-99701459D01*
X183630330Y-99663367D01*
X183619029Y-99627073D01*
X183617927Y-99624029D01*
X183588685Y-99534027D01*
X183584923Y-99519441D01*
X183730501Y-99519441D01*
X183733759Y-99572876D01*
X183737061Y-99605415D01*
X183743785Y-99632094D01*
X183756081Y-99660007D01*
X183765446Y-99677464D01*
X183829015Y-99780287D01*
X183898035Y-99869608D01*
X183972979Y-99946014D01*
X184004323Y-99972769D01*
X184049147Y-100009081D01*
X184097706Y-100004450D01*
X184123000Y-100001655D01*
X184141662Y-99998874D01*
X184149377Y-99996822D01*
X184150978Y-99994810D01*
X184149552Y-99992158D01*
X184142751Y-99987202D01*
X184128227Y-99978278D01*
X184103630Y-99963725D01*
X184097706Y-99960234D01*
X184016057Y-99905218D01*
X183942743Y-99840886D01*
X183876570Y-99765907D01*
X183816345Y-99678950D01*
X183767634Y-99592079D01*
X183730501Y-99519441D01*
X183584923Y-99519441D01*
X183562110Y-99430998D01*
X183538559Y-99316678D01*
X183518393Y-99192800D01*
X183502657Y-99067470D01*
X183499224Y-99028355D01*
X183496344Y-98980763D01*
X183494033Y-98926962D01*
X183492306Y-98869217D01*
X183491178Y-98809795D01*
X183490667Y-98750962D01*
X183490787Y-98694985D01*
X183491555Y-98644130D01*
X183492987Y-98600663D01*
X183495098Y-98566852D01*
X183497905Y-98544962D01*
X183498969Y-98540794D01*
X183503086Y-98529493D01*
X183505374Y-98528920D01*
X183506475Y-98540586D01*
X183506929Y-98559470D01*
X183509355Y-98618824D01*
X183514582Y-98689308D01*
X183522170Y-98767466D01*
X183531677Y-98849846D01*
X183542660Y-98932991D01*
X183554678Y-99013446D01*
X183567289Y-99087758D01*
X183580052Y-99152471D01*
X183586232Y-99179647D01*
X183597646Y-99225145D01*
X183609744Y-99270018D01*
X183621835Y-99312045D01*
X183633228Y-99349006D01*
X183643231Y-99378679D01*
X183651154Y-99398844D01*
X183656306Y-99407279D01*
X183657066Y-99407304D01*
X183663928Y-99395211D01*
X183667358Y-99371455D01*
X183667362Y-99338914D01*
X183663944Y-99300465D01*
X183657111Y-99258985D01*
X183656779Y-99257363D01*
X183645958Y-99201683D01*
X183637164Y-99148389D01*
X183630191Y-99094946D01*
X183624829Y-99038816D01*
X183620872Y-98977464D01*
X183618110Y-98908352D01*
X183616337Y-98828946D01*
X183615468Y-98753706D01*
X183614304Y-98608217D01*
X183657306Y-98608217D01*
X183658024Y-98637245D01*
X183659506Y-98673390D01*
X183661622Y-98714056D01*
X183664243Y-98756652D01*
X183667239Y-98798583D01*
X183670479Y-98837256D01*
X183672536Y-98858294D01*
X183676686Y-98893359D01*
X183682200Y-98933568D01*
X183688588Y-98975987D01*
X183695358Y-99017684D01*
X183702021Y-99055724D01*
X183708086Y-99087175D01*
X183713062Y-99109104D01*
X183715938Y-99117836D01*
X183719972Y-99114802D01*
X183727370Y-99099838D01*
X183737123Y-99075302D01*
X183748219Y-99043551D01*
X183749584Y-99039395D01*
X183766391Y-98989275D01*
X183781421Y-98947187D01*
X183794105Y-98914562D01*
X183803875Y-98892832D01*
X183810162Y-98883428D01*
X183811551Y-98883414D01*
X183811300Y-98891503D01*
X183808324Y-98911289D01*
X183803117Y-98939881D01*
X183796171Y-98974386D01*
X183795471Y-98977714D01*
X183785933Y-99024814D01*
X183775773Y-99078110D01*
X183766471Y-99129716D01*
X183761685Y-99157997D01*
X183747142Y-99247142D01*
X183769843Y-99312321D01*
X183788838Y-99362302D01*
X183812328Y-99417110D01*
X183838332Y-99472628D01*
X183864874Y-99524741D01*
X183889975Y-99569331D01*
X183903987Y-99591455D01*
X183939612Y-99638636D01*
X183982843Y-99687240D01*
X184029152Y-99732564D01*
X184074008Y-99769904D01*
X184080222Y-99774448D01*
X184102833Y-99789316D01*
X184130676Y-99805697D01*
X184160769Y-99822082D01*
X184190127Y-99836962D01*
X184215768Y-99848830D01*
X184234708Y-99856175D01*
X184243963Y-99857490D01*
X184244145Y-99857344D01*
X184242770Y-99849578D01*
X184236310Y-99831846D01*
X184226080Y-99807685D01*
X184223807Y-99802635D01*
X184201751Y-99751878D01*
X184176940Y-99691121D01*
X184150998Y-99624652D01*
X184125549Y-99556755D01*
X184102218Y-99491716D01*
X184082629Y-99433822D01*
X184075429Y-99411117D01*
X184062979Y-99369503D01*
X184049547Y-99322470D01*
X184035736Y-99272366D01*
X184022151Y-99221540D01*
X184009398Y-99172339D01*
X183998079Y-99127112D01*
X183988800Y-99088207D01*
X183982165Y-99057972D01*
X183978779Y-99038754D01*
X183978471Y-99034496D01*
X183981195Y-99037358D01*
X183988793Y-99052628D01*
X184000623Y-99078828D01*
X184016042Y-99114481D01*
X184034409Y-99158108D01*
X184055081Y-99208232D01*
X184070729Y-99246764D01*
X184103536Y-99327392D01*
X184132381Y-99396615D01*
X184158481Y-99457043D01*
X184183057Y-99511286D01*
X184207326Y-99561955D01*
X184232506Y-99611658D01*
X184259816Y-99663005D01*
X184290475Y-99718607D01*
X184293787Y-99724530D01*
X184323584Y-99777359D01*
X184347351Y-99818408D01*
X184366076Y-99849091D01*
X184380747Y-99870817D01*
X184392351Y-99884998D01*
X184401878Y-99893046D01*
X184410314Y-99896372D01*
X184414295Y-99896706D01*
X184427835Y-99892726D01*
X184450145Y-99881986D01*
X184477747Y-99866281D01*
X184498494Y-99853205D01*
X184528946Y-99832253D01*
X184566660Y-99804865D01*
X184607421Y-99774176D01*
X184647018Y-99743321D01*
X184658062Y-99734483D01*
X184665223Y-99728617D01*
X185098764Y-99728617D01*
X185102500Y-99732353D01*
X185106235Y-99728617D01*
X185102500Y-99724882D01*
X185098764Y-99728617D01*
X184665223Y-99728617D01*
X184672933Y-99722301D01*
X185113706Y-99722301D01*
X185119416Y-99720886D01*
X185136486Y-99709941D01*
X185164822Y-99689531D01*
X185204332Y-99659722D01*
X185224368Y-99644312D01*
X185249527Y-99624328D01*
X185269100Y-99607723D01*
X185280791Y-99596517D01*
X185282975Y-99592838D01*
X185276395Y-99596003D01*
X185260749Y-99606562D01*
X185238613Y-99622543D01*
X185212565Y-99641975D01*
X185185180Y-99662888D01*
X185159037Y-99683311D01*
X185136711Y-99701273D01*
X185120779Y-99714803D01*
X185113818Y-99721931D01*
X185113706Y-99722301D01*
X184672933Y-99722301D01*
X184690217Y-99708144D01*
X184725520Y-99678515D01*
X184762263Y-99647111D01*
X184798733Y-99615447D01*
X184833220Y-99585038D01*
X184864014Y-99557399D01*
X184889404Y-99534044D01*
X184907680Y-99516488D01*
X184917131Y-99506246D01*
X184917985Y-99504309D01*
X184910512Y-99501035D01*
X184891784Y-99493716D01*
X184864585Y-99483420D01*
X184831700Y-99471214D01*
X184830020Y-99470596D01*
X184656021Y-99398993D01*
X184488056Y-99314587D01*
X184327133Y-99218125D01*
X184174261Y-99110353D01*
X184030450Y-98992017D01*
X183896707Y-98863861D01*
X183774042Y-98726631D01*
X183705830Y-98639779D01*
X183686966Y-98615021D01*
X183671407Y-98595547D01*
X183661276Y-98583962D01*
X183658684Y-98581882D01*
X183657483Y-98588898D01*
X183657306Y-98608217D01*
X183614304Y-98608217D01*
X183613525Y-98510911D01*
X183563575Y-98428735D01*
X183472403Y-98264482D01*
X183394562Y-98093618D01*
X183330024Y-97916060D01*
X183278761Y-97731726D01*
X183240745Y-97540533D01*
X183222722Y-97409000D01*
X183219239Y-97367396D01*
X183216657Y-97314292D01*
X183214974Y-97253102D01*
X183214192Y-97187240D01*
X183214311Y-97120120D01*
X183215330Y-97055155D01*
X183217249Y-96995761D01*
X183220068Y-96945350D01*
X183222722Y-96915941D01*
X183252037Y-96719749D01*
X183294795Y-96530073D01*
X183351010Y-96346878D01*
X183420696Y-96170130D01*
X183503867Y-95999796D01*
X183600537Y-95835841D01*
X183710720Y-95678232D01*
X183753305Y-95623529D01*
X183791338Y-95578220D01*
X183837665Y-95526540D01*
X183889145Y-95471736D01*
X183942636Y-95417050D01*
X183994998Y-95365729D01*
X184043087Y-95321017D01*
X184064088Y-95302548D01*
X184214337Y-95183282D01*
X184372313Y-95076691D01*
X184537451Y-94983020D01*
X184709183Y-94902518D01*
X184886942Y-94835431D01*
X185070162Y-94782007D01*
X185258277Y-94742491D01*
X185393853Y-94723089D01*
X185449448Y-94718058D01*
X185515718Y-94714343D01*
X185588783Y-94711972D01*
X185664767Y-94710976D01*
X185739791Y-94711385D01*
X185809978Y-94713228D01*
X185871449Y-94716537D01*
X185901853Y-94719166D01*
X186095319Y-94746256D01*
X186282772Y-94787005D01*
X186464370Y-94841479D01*
X186640273Y-94909743D01*
X186810640Y-94991865D01*
X186975630Y-95087909D01*
X187135403Y-95197941D01*
X187220411Y-95263879D01*
X187253020Y-95291495D01*
X187291915Y-95326493D01*
X187334829Y-95366635D01*
X187379495Y-95409686D01*
X187423646Y-95453410D01*
X187465015Y-95495569D01*
X187501335Y-95533927D01*
X187530340Y-95566249D01*
X187545382Y-95584476D01*
X187561187Y-95604165D01*
X187573341Y-95618107D01*
X187579000Y-95623147D01*
X187583132Y-95616778D01*
X187593129Y-95598608D01*
X187608176Y-95570199D01*
X187627460Y-95533113D01*
X187650164Y-95488913D01*
X187675475Y-95439162D01*
X187692766Y-95404931D01*
X187746377Y-95299600D01*
X187797936Y-95200457D01*
X187846996Y-95108277D01*
X187893112Y-95023832D01*
X187935835Y-94947896D01*
X187974719Y-94881241D01*
X188009318Y-94824640D01*
X188039185Y-94778868D01*
X188063873Y-94744696D01*
X188082935Y-94722897D01*
X188090438Y-94716734D01*
X188103410Y-94709038D01*
X188108063Y-94709092D01*
G37*
D11*
X200645500Y-97790724D02*
X200645500Y-97281276D01*
X201690500Y-97790724D02*
X201690500Y-97281276D01*
X158011000Y-121385000D02*
X158011000Y-119915000D01*
X158011000Y-119915000D02*
X155551000Y-119915000D01*
X155551000Y-121385000D02*
X158011000Y-121385000D01*
D10*
X230840283Y-81280000D02*
G75*
G03*
X230840283Y-81280000I-4018283J0D01*
G01*
D11*
X194041500Y-97790724D02*
X194041500Y-97281276D01*
X195086500Y-97790724D02*
X195086500Y-97281276D01*
G36*
X177692242Y-99452546D02*
G01*
X175568562Y-99452546D01*
X175560523Y-98182546D01*
X175552485Y-96912546D01*
X174290182Y-96912546D01*
X174282031Y-97845472D01*
X174273880Y-98778399D01*
X174112698Y-98769109D01*
X173951515Y-98759818D01*
X173943365Y-97827619D01*
X173935216Y-96895420D01*
X173089454Y-96912546D01*
X173081164Y-97599164D01*
X173072874Y-98285783D01*
X172911831Y-98276498D01*
X172750788Y-98267212D01*
X172742500Y-97581317D01*
X172734211Y-96895422D01*
X171888727Y-96912546D01*
X171880437Y-97599164D01*
X171872147Y-98285783D01*
X171711104Y-98276498D01*
X171550061Y-98267212D01*
X171541772Y-97581317D01*
X171533484Y-96895422D01*
X170688000Y-96912546D01*
X170679710Y-97599164D01*
X170671419Y-98285783D01*
X170510376Y-98276498D01*
X170349333Y-98267212D01*
X170332757Y-96895422D01*
X169487273Y-96912546D01*
X169478982Y-97599164D01*
X169470692Y-98285783D01*
X169309649Y-98276498D01*
X169148606Y-98267212D01*
X169140318Y-97581317D01*
X169132029Y-96895422D01*
X168286545Y-96912546D01*
X168278255Y-97599164D01*
X168269965Y-98285783D01*
X168108922Y-98276498D01*
X167947879Y-98267212D01*
X167939590Y-97581317D01*
X167931302Y-96895422D01*
X167085818Y-96912546D01*
X167077528Y-97599164D01*
X167069238Y-98285783D01*
X166908195Y-98276498D01*
X166747151Y-98267212D01*
X166730575Y-96895422D01*
X165885091Y-96912546D01*
X165876801Y-97599164D01*
X165868510Y-98285783D01*
X165707467Y-98276498D01*
X165546424Y-98267212D01*
X165529848Y-96895422D01*
X164684364Y-96912546D01*
X164676073Y-97599164D01*
X164667783Y-98285783D01*
X164512563Y-98276498D01*
X164357344Y-98267212D01*
X164351520Y-97589879D01*
X164345697Y-96912546D01*
X163483636Y-96912546D01*
X163467064Y-98282606D01*
X163161542Y-98282606D01*
X163144970Y-96912546D01*
X162282909Y-96912546D01*
X162266337Y-98282606D01*
X161960814Y-98282606D01*
X161944242Y-96912546D01*
X161082182Y-96912546D01*
X161065610Y-98282606D01*
X160760087Y-98282606D01*
X160743515Y-96912546D01*
X158696121Y-96896322D01*
X158696121Y-96496909D01*
X160758909Y-96496909D01*
X160758909Y-95142243D01*
X161066788Y-95142243D01*
X161066788Y-96496909D01*
X161959636Y-96496909D01*
X161959636Y-95142243D01*
X162267515Y-95142243D01*
X162267515Y-96496909D01*
X163160364Y-96496909D01*
X163160364Y-95142243D01*
X163468242Y-95142243D01*
X163468242Y-96496909D01*
X164363381Y-96496909D01*
X164345697Y-95142187D01*
X164507333Y-95142215D01*
X164668970Y-95142243D01*
X164668970Y-96496909D01*
X165531030Y-96496909D01*
X165531030Y-95142243D01*
X165869697Y-95142243D01*
X165869697Y-96496909D01*
X166731757Y-96496909D01*
X166731757Y-95142243D01*
X167070424Y-95142243D01*
X167070424Y-96496909D01*
X167932485Y-96496909D01*
X167932485Y-95142243D01*
X168271151Y-95142243D01*
X168271151Y-96496909D01*
X169133212Y-96496909D01*
X169133212Y-95142243D01*
X169471879Y-95142243D01*
X169471879Y-96496909D01*
X170333939Y-96496909D01*
X170333939Y-95142243D01*
X170672606Y-95142243D01*
X170672606Y-96496909D01*
X171534667Y-96496909D01*
X171534667Y-95142243D01*
X171873333Y-95142243D01*
X171873333Y-96496909D01*
X172735394Y-96496909D01*
X172735394Y-95142243D01*
X173074061Y-95142243D01*
X173074061Y-96496909D01*
X173936121Y-96496909D01*
X173936121Y-94649637D01*
X174274788Y-94649637D01*
X174274788Y-96496909D01*
X175567879Y-96496909D01*
X175567879Y-93941515D01*
X177692242Y-93941515D01*
X177692242Y-99452546D01*
G37*
D10*
X230840283Y-119380000D02*
G75*
G03*
X230840283Y-119380000I-4018283J0D01*
G01*
D11*
X135377000Y-100811000D02*
X135377000Y-99341000D01*
X135377000Y-99341000D02*
X132917000Y-99341000D01*
X132917000Y-100811000D02*
X135377000Y-100811000D01*
D10*
X153301700Y-67105500D02*
X153301700Y-75995500D01*
X153276300Y-67105500D02*
X145402300Y-67105500D01*
X145402300Y-74827100D02*
X145402300Y-75995500D01*
X145402300Y-74852500D02*
X145402300Y-67105500D01*
X150990300Y-77138500D02*
X152133300Y-77138500D01*
X150990300Y-77138500D02*
X147688300Y-77138500D01*
X147713700Y-77138500D02*
X146545300Y-77138500D01*
X153276300Y-79424500D02*
X153276300Y-78281500D01*
X153276300Y-79424500D02*
X153276300Y-91718100D01*
X145402300Y-79424500D02*
X145402300Y-91718100D01*
X145402300Y-79449900D02*
X145402300Y-78256100D01*
X145402300Y-91743500D02*
X153276300Y-91743500D01*
X146519900Y-77138500D02*
G75*
G03*
X145402300Y-76020900I-1117598J2D01*
G01*
X153276300Y-75995500D02*
G75*
G03*
X152133300Y-77138500I0J-1143000D01*
G01*
X145402300Y-78256100D02*
G75*
G03*
X146519900Y-77138500I2J1117598D01*
G01*
X152133300Y-77138500D02*
G75*
G03*
X153276300Y-78281500I1143000J0D01*
G01*
D11*
X133903767Y-94490000D02*
X133611233Y-94490000D01*
X133903767Y-93470000D02*
X133611233Y-93470000D01*
X135377000Y-90651000D02*
X135377000Y-89181000D01*
X135377000Y-89181000D02*
X132917000Y-89181000D01*
X132917000Y-90651000D02*
X135377000Y-90651000D01*
X157841733Y-79500000D02*
X158134267Y-79500000D01*
X157841733Y-80520000D02*
X158134267Y-80520000D01*
X140461276Y-120127500D02*
X140970724Y-120127500D01*
X140461276Y-121172500D02*
X140970724Y-121172500D01*
D10*
X135590283Y-81280000D02*
G75*
G03*
X135590283Y-81280000I-4018283J0D01*
G01*
D11*
X133903767Y-96522000D02*
X133611233Y-96522000D01*
X133903767Y-95502000D02*
X133611233Y-95502000D01*
X140378000Y-114470000D02*
X140378000Y-114870000D01*
X140378000Y-114470000D02*
X145118000Y-114470000D01*
X140378000Y-117870000D02*
X140378000Y-115810000D01*
X140378000Y-119210000D02*
X140378000Y-118810000D01*
X140378000Y-119210000D02*
X145118000Y-119210000D01*
X145118000Y-114470000D02*
X145118000Y-114870000D01*
X145118000Y-117870000D02*
X145118000Y-115810000D01*
X145118000Y-119210000D02*
X145118000Y-118810000D01*
D10*
X188341000Y-77089000D02*
X202311000Y-77089000D01*
X188341000Y-89027000D02*
X188341000Y-77089000D01*
X190246000Y-89027000D02*
X188341000Y-89027000D01*
X190246000Y-89027000D02*
X202311000Y-89027000D01*
X190246000Y-91567000D02*
X190246000Y-89027000D01*
X192786000Y-77089000D02*
X192786000Y-77597000D01*
X192786000Y-81407000D02*
X192786000Y-77597000D01*
X192786000Y-81407000D02*
X192786000Y-82677000D01*
X192786000Y-82677000D02*
X197866000Y-82677000D01*
X194056000Y-82677000D02*
X194056000Y-85217000D01*
X196596000Y-82677000D02*
X196596000Y-85217000D01*
X196596000Y-85217000D02*
X194056000Y-85217000D01*
X197866000Y-77089000D02*
X197866000Y-82677000D01*
X200406000Y-89027000D02*
X200406000Y-91567000D01*
X200406000Y-91567000D02*
X190246000Y-91567000D01*
X202311000Y-89027000D02*
X202311000Y-77089000D01*
D11*
X133452776Y-97521500D02*
X133962224Y-97521500D01*
X133452776Y-98566500D02*
X133962224Y-98566500D01*
X146440000Y-121385000D02*
X146440000Y-119915000D01*
X146440000Y-119915000D02*
X143980000Y-119915000D01*
X143980000Y-121385000D02*
X146440000Y-121385000D01*
X151949000Y-114470000D02*
X151949000Y-114870000D01*
X151949000Y-114470000D02*
X156689000Y-114470000D01*
X151949000Y-117870000D02*
X151949000Y-115810000D01*
X151949000Y-119210000D02*
X151949000Y-118810000D01*
X151949000Y-119210000D02*
X156689000Y-119210000D01*
X156689000Y-114470000D02*
X156689000Y-114870000D01*
X156689000Y-117870000D02*
X156689000Y-115810000D01*
X156689000Y-119210000D02*
X156689000Y-118810000D01*
X152032276Y-120127500D02*
X152541724Y-120127500D01*
X152032276Y-121172500D02*
X152541724Y-121172500D01*
X222628000Y-98688000D02*
X206378000Y-98688000D01*
X222628000Y-77138000D02*
X222628000Y-98688000D01*
X222628000Y-77138000D02*
X206378000Y-77138000D01*
X206378000Y-77138000D02*
X206378000Y-98688000D01*
D10*
X175641000Y-89027000D02*
X175641000Y-77089000D01*
X177546000Y-89027000D02*
X175641000Y-89027000D01*
X177546000Y-91567000D02*
X177546000Y-89027000D01*
X180086000Y-77089000D02*
X180086000Y-77597000D01*
X180086000Y-81407000D02*
X180086000Y-77597000D01*
X180086000Y-81407000D02*
X180086000Y-82677000D01*
X182626000Y-77089000D02*
X182626000Y-82677000D01*
X182626000Y-82677000D02*
X180086000Y-82677000D01*
X185166000Y-89027000D02*
X185166000Y-91567000D01*
X185166000Y-91567000D02*
X177546000Y-91567000D01*
X187071000Y-77089000D02*
X175641000Y-77089000D01*
X187071000Y-89027000D02*
X177546000Y-89027000D01*
X187071000Y-89027000D02*
X187071000Y-77089000D01*
D11*
X157841733Y-92200000D02*
X158134267Y-92200000D01*
X157841733Y-93220000D02*
X158134267Y-93220000D01*
%LPC*%
D15*
X224536000Y-97181500D03*
X224536000Y-98906500D03*
D16*
X157099000Y-88900000D03*
X157099000Y-86360000D03*
X157099000Y-83820000D03*
D17*
X134667000Y-87884000D03*
X132842000Y-87884000D03*
D18*
X131572000Y-119380000D03*
D19*
X139814300Y-103173500D03*
X139814300Y-95299500D03*
D20*
X218186000Y-102616000D03*
X215646000Y-102616000D03*
X213106000Y-102616000D03*
X210566000Y-102616000D03*
X185166000Y-102616000D03*
X215646000Y-117856000D03*
X208026000Y-102616000D03*
X205486000Y-102616000D03*
X202946000Y-102616000D03*
X200406000Y-102616000D03*
X197866000Y-102616000D03*
X195326000Y-102616000D03*
X192786000Y-102616000D03*
X190246000Y-102616000D03*
X187706000Y-102616000D03*
X187706000Y-117856000D03*
X190246000Y-117856000D03*
X192786000Y-117856000D03*
X195326000Y-117856000D03*
X197866000Y-117856000D03*
X200406000Y-117856000D03*
X202946000Y-117856000D03*
X205486000Y-117856000D03*
X208026000Y-117856000D03*
X210566000Y-117856000D03*
X213106000Y-117856000D03*
X182626000Y-102616000D03*
X180086000Y-102616000D03*
X177546000Y-102616000D03*
X175006000Y-102616000D03*
X172466000Y-102616000D03*
X169926000Y-102616000D03*
X167386000Y-102616000D03*
X164846000Y-102616000D03*
X162306000Y-102616000D03*
X162306000Y-117856000D03*
X164846000Y-117856000D03*
X167386000Y-117856000D03*
X169926000Y-117856000D03*
X172466000Y-117856000D03*
X175006000Y-117856000D03*
X177546000Y-117856000D03*
X180086000Y-117856000D03*
X182626000Y-117856000D03*
X220726000Y-102616000D03*
X185166000Y-117856000D03*
X218186000Y-117856000D03*
D21*
X205756000Y-113406000D03*
X207756000Y-113406000D03*
X207756000Y-115406000D03*
X205756000Y-115406000D03*
X205756000Y-111406000D03*
X207756000Y-111406000D03*
D20*
X220726000Y-117856000D03*
D22*
X134620000Y-91948000D03*
X132895000Y-91948000D03*
D23*
X201168000Y-98448500D03*
X201168000Y-96623500D03*
D24*
X157226000Y-120650000D03*
X155476000Y-120650000D03*
D18*
X226822000Y-81280000D03*
D23*
X194564000Y-98448500D03*
X194564000Y-96623500D03*
D18*
X226822000Y-119380000D03*
D24*
X134592000Y-100076000D03*
X132842000Y-100076000D03*
D19*
X149466300Y-103173500D03*
X149466300Y-95299500D03*
D22*
X134620000Y-93980000D03*
X132895000Y-93980000D03*
D24*
X134592000Y-89916000D03*
X132842000Y-89916000D03*
D25*
X157125500Y-80010000D03*
X158850500Y-80010000D03*
D26*
X139803500Y-120650000D03*
X141628500Y-120650000D03*
D18*
X131572000Y-81280000D03*
D22*
X134620000Y-96012000D03*
X132895000Y-96012000D03*
D27*
X139148000Y-115340000D03*
X146348000Y-115340000D03*
X139148000Y-118340000D03*
X146348000Y-118340000D03*
D28*
X190246000Y-81661000D03*
X200406000Y-81661000D03*
D16*
X191516000Y-90297000D03*
X194056000Y-90297000D03*
X196596000Y-90297000D03*
X199136000Y-90297000D03*
D26*
X132795000Y-98044000D03*
X134620000Y-98044000D03*
D24*
X145655000Y-120650000D03*
X143905000Y-120650000D03*
D27*
X150719000Y-115340000D03*
X157919000Y-115340000D03*
X150719000Y-118340000D03*
X157919000Y-118340000D03*
D26*
X151374500Y-120650000D03*
X153199500Y-120650000D03*
D29*
X218948000Y-94488000D03*
X217678000Y-97028000D03*
X216408000Y-94488000D03*
X215138000Y-97028000D03*
X213868000Y-94488000D03*
X212598000Y-97028000D03*
X211328000Y-94488000D03*
X210058000Y-97028000D03*
D30*
X220828000Y-83058000D03*
X218288000Y-84848000D03*
X210718000Y-83058000D03*
X208178000Y-84848000D03*
D31*
X220218000Y-88138000D03*
X208788000Y-88138000D03*
D32*
X222378000Y-91188000D03*
X206628000Y-91188000D03*
D28*
X177546000Y-81661000D03*
X185166000Y-81661000D03*
D16*
X178816000Y-90297000D03*
X181356000Y-90297000D03*
X183896000Y-90297000D03*
D25*
X157125500Y-92710000D03*
X158850500Y-92710000D03*
%LPD*%
M02*
